<svg xmlns="http://www.w3.org/2000/svg" width="26.7in" height="15in" viewBox="0 0 1920 1080"><defs><clipPath id="a"><path fill="none" d="M0 0h62v62H0z"/></clipPath><clipPath id="b"><path fill="none" d="M668.4 137.9h541.1v449.14H668.4z" transform="rotate(-7.5 940.019 362.701)"/></clipPath><clipPath id="c"><path fill="none" d="M584.5 15.2h681.8v681.83H584.5z" transform="rotate(-8.1 925.076 368.006)"/></clipPath><pattern id="d" width="62" height="62" patternTransform="matrix(.59 0 0 .59 -19 4.9)" patternUnits="userSpaceOnUse" viewBox="0 0 62 62"><path fill="none" d="M0 0h62v62H0z"/><g clip-path="url(#a)"><path fill="#ff87dc" d="M29.4 17.7a2.3 2.3 0 1 0-3.8-2.5 2.2 2.2 0 1 0-3.7-2.5 2.3 2.3 0 0 0-.4 1.4 7.7 7.7 0 0 0 1.6 4.8 7.6 7.6 0 0 0 5.1-.4 2 2 0 0 0 1.2-.8zm-4.3 31.2a2.2 2.2 0 0 0-2.7-1.6 2.3 2.3 0 0 0-1.7 2.7 2.2 2.2 0 0 0-4.3 1.1 2.4 2.4 0 0 0 .7 1.2 7.6 7.6 0 0 0 4.7 2.1 7.7 7.7 0 0 0 3.2-4 2.6 2.6 0 0 0 .1-1.5zm8 5a2.2 2.2 0 0 0-2.7-1.6 2.3 2.3 0 0 0-1.7 2.7 2.2 2.2 0 0 0-4.3 1.1 2.4 2.4 0 0 0 .7 1.2 7.6 7.6 0 0 0 4.7 2.1 7.7 7.7 0 0 0 3.2-4 2.6 2.6 0 0 0 .1-1.5zM60 43.7a1.6 1.6 0 0 0-1.9-1.2 1.7 1.7 0 0 0-1.3 2 1.6 1.6 0 1 0-3.1.8 1.1 1.1 0 0 0 .5.9 6 6 0 0 0 3.4 1.5 5.7 5.7 0 0 0 2.4-3 1.7 1.7 0 0 0 0-1zm0-14a1.6 1.6 0 0 0-1.9-1.2 1.7 1.7 0 0 0-1.3 2 1.6 1.6 0 1 0-3.1.8 1.1 1.1 0 0 0 .5.9 6 6 0 0 0 3.4 1.5 5.7 5.7 0 0 0 2.4-3 1.7 1.7 0 0 0 0-1zm-40 0a1.6 1.6 0 0 0-1.9-1.2 1.7 1.7 0 0 0-1.3 2 1.6 1.6 0 1 0-3.1.8 1.1 1.1 0 0 0 .5.9 6 6 0 0 0 3.4 1.5 5.7 5.7 0 0 0 2.4-3 1.7 1.7 0 0 0 0-1zm23.1-9.8a2.2 2.2 0 0 0-2.7-1.6 2.3 2.3 0 0 0-1.7 2.7 2.2 2.2 0 1 0-4.3 1.1 2.4 2.4 0 0 0 .7 1.2 7.6 7.6 0 0 0 4.7 2.1 7.7 7.7 0 0 0 3.2-4 2.6 2.6 0 0 0 .1-1.5zm-30 33a2.2 2.2 0 0 0-2.7-1.6A2.3 2.3 0 0 0 8.7 54a2.2 2.2 0 0 0-4.3 1.1 2.4 2.4 0 0 0 .7 1.2 7.6 7.6 0 0 0 4.7 2.1 7.7 7.7 0 0 0 3.2-4 2.6 2.6 0 0 0 .1-1.5zm42-30a2.2 2.2 0 0 0-2.7-1.6 2.3 2.3 0 0 0-1.7 2.7 2.2 2.2 0 0 0-4.3 1.1 2.4 2.4 0 0 0 .7 1.2 7.6 7.6 0 0 0 4.7 2.1 7.7 7.7 0 0 0 3.2-4 2.6 2.6 0 0 0 .1-1.5zm4-15a2.2 2.2 0 0 0-2.7-1.6A2.3 2.3 0 0 0 54.7 9a2.2 2.2 0 1 0-4.3 1.1 2.4 2.4 0 0 0 .7 1.2 7.6 7.6 0 0 0 4.7 2.1 7.7 7.7 0 0 0 3.2-4 2.6 2.6 0 0 0 .1-1.5zm0 45a2.2 2.2 0 0 0-2.7-1.6 2.3 2.3 0 0 0-1.7 2.7 2.2 2.2 0 1 0-4.3 1.1 2.4 2.4 0 0 0 .7 1.2 7.6 7.6 0 0 0 4.7 2.1 7.7 7.7 0 0 0 3.2-4 2.6 2.6 0 0 0 .1-1.5zm-18-43a2.2 2.2 0 0 0-2.7-1.6 2.3 2.3 0 0 0-1.7 2.7 2.2 2.2 0 0 0-4.3 1.1 2.4 2.4 0 0 0 .7 1.2 7.6 7.6 0 0 0 4.7 2.1 7.7 7.7 0 0 0 3.2-4 2.6 2.6 0 0 0 .1-1.5zM12.4 25.3a2.4 2.4 0 0 0-2.8-1.9 2.5 2.5 0 0 0-1.3 3.1 2.4 2.4 0 0 0-2.8-1.9 2.4 2.4 0 0 0-1.4 3.1 3.4 3.4 0 0 0 .9 1.4 7.9 7.9 0 0 0 4.7 2.3 7.7 7.7 0 0 0 2.7-4.5 2.2 2.2 0 0 0 0-1.6zm10-21a2.4 2.4 0 0 0-2.8-1.9 2.5 2.5 0 0 0-1.3 3.1 2.4 2.4 0 0 0-2.8-1.9 2.4 2.4 0 0 0-1.4 3.1 3.4 3.4 0 0 0 .9 1.4 7.9 7.9 0 0 0 4.7 2.3 7.7 7.7 0 0 0 2.7-4.5 2.2 2.2 0 0 0 0-1.6z"/><path fill="#ffdaf7" d="M53.4 35.4a2.2 2.2 0 0 0-3-1.1 2.3 2.3 0 0 0-.5 3.2 2.2 2.2 0 0 0-3-1.1 2.3 2.3 0 0 0-.6 3.1 2.5 2.5 0 0 0 1.2 1.1 7.1 7.1 0 0 0 4.9 1 7.1 7.1 0 0 0 1.4-4.7 2.6 2.6 0 0 0-.4-1.5zm7-21a2.2 2.2 0 0 0-3-1.1 2.3 2.3 0 0 0-.5 3.2 2.2 2.2 0 0 0-3-1.1 2.3 2.3 0 0 0-.6 3.1 2.5 2.5 0 0 0 1.2 1.1 7.1 7.1 0 0 0 4.9 1 7.1 7.1 0 0 0 1.4-4.7 2.6 2.6 0 0 0-.4-1.5zM34.8 6.5a2.3 2.3 0 0 0-1.3-2.9 2.2 2.2 0 0 0-2.7 1.7 2.2 2.2 0 0 0-1.3-2.9 2.3 2.3 0 0 0-2.6 1.8 2.6 2.6 0 0 0 0 1.5 7.2 7.2 0 0 0 2.6 4.3A7.6 7.6 0 0 0 34 7.8a5.7 5.7 0 0 0 .8-1.3zM9.4 12.4a2.2 2.2 0 0 0-3-1.1 2.3 2.3 0 0 0-.5 3.2 2.2 2.2 0 0 0-3-1.1 2.3 2.3 0 0 0-.6 3.1 2.5 2.5 0 0 0 1.2 1.1 7.1 7.1 0 0 0 4.9 1 7.1 7.1 0 0 0 1.4-4.7 2.6 2.6 0 0 0-.4-1.5z"/><path fill="#fa3ab1" d="M36.5 28.3a3.5 3.5 0 1 0-7 0 3.5 3.5 0 1 0-7 0 4 4 0 0 0 .7 2.1c1.4 2.5 4.4 4.2 6.3 4.9s4.9-2.4 6.3-4.9a4 4 0 0 0 .7-2.1z"/><path fill="#ffdaf7" d="M5.5 38.3a2.4 2.4 0 0 1 3.1-1 2.2 2.2 0 0 1 .5 3.1 2.4 2.4 0 0 1 3.1-1 2.2 2.2 0 0 1 .5 3.1 2.9 2.9 0 0 1-1.1 1.1 8.3 8.3 0 0 1-5 1.1 7.7 7.7 0 0 1-1.4-4.9 2.7 2.7 0 0 1 .3-1.5zm30 10a2.4 2.4 0 0 1 3.1-1 2.2 2.2 0 0 1 .5 3.1 2.4 2.4 0 0 1 3.1-1 2.2 2.2 0 0 1 .5 3.1 2.9 2.9 0 0 1-1.1 1.1 8.3 8.3 0 0 1-5 1.1 7.7 7.7 0 0 1-1.4-4.9 2.7 2.7 0 0 1 .3-1.5z"/><path fill="#fa3ab1" d="M10.8 6.8a1.6 1.6 0 0 1-1.6 1.7 1.6 1.6 0 0 1-1.7-1.7 1.6 1.6 0 0 1-1.7 1.7 1.6 1.6 0 0 1-1.6-1.7 1.9 1.9 0 0 1 .3-1 5.8 5.8 0 0 1 3-2.3 5.8 5.8 0 0 1 3 2.3 1.9 1.9 0 0 1 .3 1zm31 32a1.6 1.6 0 0 1-1.6 1.7 1.6 1.6 0 0 1-1.7-1.7 1.6 1.6 0 0 1-1.7 1.7 1.6 1.6 0 0 1-1.6-1.7 1.9 1.9 0 0 1 .3-1 5.8 5.8 0 0 1 3-2.3 5.8 5.8 0 0 1 3 2.3 1.9 1.9 0 0 1 .3 1zm-9 5a1.6 1.6 0 0 1-1.6 1.7 1.6 1.6 0 0 1-1.7-1.7 1.6 1.6 0 0 1-1.7 1.7 1.6 1.6 0 0 1-1.6-1.7 1.9 1.9 0 0 1 .3-1 5.8 5.8 0 0 1 3-2.3 5.8 5.8 0 0 1 3 2.3 1.9 1.9 0 0 1 .3 1zm19-26a1.6 1.6 0 0 1-1.6 1.7 1.6 1.6 0 0 1-1.7-1.7 1.6 1.6 0 0 1-1.7 1.7 1.6 1.6 0 0 1-1.6-1.7 1.9 1.9 0 0 1 .3-1 5.8 5.8 0 0 1 3-2.3 5.8 5.8 0 0 1 3 2.3 1.9 1.9 0 0 1 .3 1zm-3-11a1.6 1.6 0 0 1-1.6 1.7 1.6 1.6 0 0 1-1.7-1.7 1.6 1.6 0 0 1-1.7 1.7 1.6 1.6 0 0 1-1.6-1.7 1.9 1.9 0 0 1 .3-1 5.8 5.8 0 0 1 3-2.3 5.8 5.8 0 0 1 3 2.3 1.9 1.9 0 0 1 .3 1zm2 40a1.6 1.6 0 0 1-1.6 1.7 1.6 1.6 0 0 1-1.7-1.7 1.6 1.6 0 0 1-1.7 1.7 1.6 1.6 0 0 1-1.6-1.7 1.9 1.9 0 0 1 .3-1 5.8 5.8 0 0 1 3-2.3 5.8 5.8 0 0 1 3 2.3 1.9 1.9 0 0 1 .3 1zm-29-7a1.6 1.6 0 0 1-1.6 1.7 1.6 1.6 0 0 1-1.7-1.7 1.6 1.6 0 0 1-1.7 1.7 1.6 1.6 0 0 1-1.6-1.7 1.9 1.9 0 0 1 .3-1 5.8 5.8 0 0 1 3-2.3 5.8 5.8 0 0 1 3 2.3 1.9 1.9 0 0 1 .3 1zm-2-20a1.6 1.6 0 0 1-1.6 1.7 1.6 1.6 0 0 1-1.7-1.7 1.6 1.6 0 0 1-1.7 1.7 1.6 1.6 0 0 1-1.6-1.7 1.9 1.9 0 0 1 .3-1 5.8 5.8 0 0 1 3-2.3 5.8 5.8 0 0 1 3 2.3 1.9 1.9 0 0 1 .3 1z"/></g></pattern><pattern id="e" width="62" height="62" patternTransform="matrix(.59 0 0 .59 -19 16.5)" patternUnits="userSpaceOnUse" viewBox="0 0 62 62"><path fill="none" d="M0 0h62v62H0z"/><g clip-path="url(#a)"><path fill="#ff87dc" d="M29.4 17.7a2.3 2.3 0 1 0-3.8-2.5 2.2 2.2 0 1 0-3.7-2.5 2.3 2.3 0 0 0-.4 1.4 7.7 7.7 0 0 0 1.6 4.8 7.6 7.6 0 0 0 5.1-.4 2 2 0 0 0 1.2-.8zm-4.3 31.2a2.2 2.2 0 0 0-2.7-1.6 2.3 2.3 0 0 0-1.7 2.7 2.2 2.2 0 0 0-4.3 1.1 2.4 2.4 0 0 0 .7 1.2 7.6 7.6 0 0 0 4.7 2.1 7.7 7.7 0 0 0 3.2-4 2.6 2.6 0 0 0 .1-1.5zm8 5a2.2 2.2 0 0 0-2.7-1.6 2.3 2.3 0 0 0-1.7 2.7 2.2 2.2 0 0 0-4.3 1.1 2.4 2.4 0 0 0 .7 1.2 7.6 7.6 0 0 0 4.7 2.1 7.7 7.7 0 0 0 3.2-4 2.6 2.6 0 0 0 .1-1.5zM60 43.7a1.6 1.6 0 0 0-1.9-1.2 1.7 1.7 0 0 0-1.3 2 1.6 1.6 0 1 0-3.1.8 1.1 1.1 0 0 0 .5.9 6 6 0 0 0 3.4 1.5 5.7 5.7 0 0 0 2.4-3 1.7 1.7 0 0 0 0-1zm0-14a1.6 1.6 0 0 0-1.9-1.2 1.7 1.7 0 0 0-1.3 2 1.6 1.6 0 1 0-3.1.8 1.1 1.1 0 0 0 .5.9 6 6 0 0 0 3.4 1.5 5.7 5.7 0 0 0 2.4-3 1.7 1.7 0 0 0 0-1zm-40 0a1.6 1.6 0 0 0-1.9-1.2 1.7 1.7 0 0 0-1.3 2 1.6 1.6 0 1 0-3.1.8 1.1 1.1 0 0 0 .5.9 6 6 0 0 0 3.4 1.5 5.7 5.7 0 0 0 2.4-3 1.7 1.7 0 0 0 0-1zm23.1-9.8a2.2 2.2 0 0 0-2.7-1.6 2.3 2.3 0 0 0-1.7 2.7 2.2 2.2 0 1 0-4.3 1.1 2.4 2.4 0 0 0 .7 1.2 7.6 7.6 0 0 0 4.7 2.1 7.7 7.7 0 0 0 3.2-4 2.6 2.6 0 0 0 .1-1.5zm-30 33a2.2 2.2 0 0 0-2.7-1.6A2.3 2.3 0 0 0 8.7 54a2.2 2.2 0 0 0-4.3 1.1 2.4 2.4 0 0 0 .7 1.2 7.6 7.6 0 0 0 4.7 2.1 7.7 7.7 0 0 0 3.2-4 2.6 2.6 0 0 0 .1-1.5zm42-30a2.2 2.2 0 0 0-2.7-1.6 2.3 2.3 0 0 0-1.7 2.7 2.2 2.2 0 0 0-4.3 1.1 2.4 2.4 0 0 0 .7 1.2 7.6 7.6 0 0 0 4.7 2.1 7.7 7.7 0 0 0 3.2-4 2.6 2.6 0 0 0 .1-1.5zm4-15a2.2 2.2 0 0 0-2.7-1.6A2.3 2.3 0 0 0 54.7 9a2.2 2.2 0 1 0-4.3 1.1 2.4 2.4 0 0 0 .7 1.2 7.6 7.6 0 0 0 4.7 2.1 7.7 7.7 0 0 0 3.2-4 2.6 2.6 0 0 0 .1-1.5zm0 45a2.2 2.2 0 0 0-2.7-1.6 2.3 2.3 0 0 0-1.7 2.7 2.2 2.2 0 1 0-4.3 1.1 2.4 2.4 0 0 0 .7 1.2 7.6 7.6 0 0 0 4.7 2.1 7.7 7.7 0 0 0 3.2-4 2.6 2.6 0 0 0 .1-1.5zm-18-43a2.2 2.2 0 0 0-2.7-1.6 2.3 2.3 0 0 0-1.7 2.7 2.2 2.2 0 0 0-4.3 1.1 2.4 2.4 0 0 0 .7 1.2 7.6 7.6 0 0 0 4.7 2.1 7.7 7.7 0 0 0 3.2-4 2.6 2.6 0 0 0 .1-1.5zM12.4 25.3a2.4 2.4 0 0 0-2.8-1.9 2.5 2.5 0 0 0-1.3 3.1 2.4 2.4 0 0 0-2.8-1.9 2.4 2.4 0 0 0-1.4 3.1 3.4 3.4 0 0 0 .9 1.4 7.9 7.9 0 0 0 4.7 2.3 7.7 7.7 0 0 0 2.7-4.5 2.2 2.2 0 0 0 0-1.6zm10-21a2.4 2.4 0 0 0-2.8-1.9 2.5 2.5 0 0 0-1.3 3.1 2.4 2.4 0 0 0-2.8-1.9 2.4 2.4 0 0 0-1.4 3.1 3.4 3.4 0 0 0 .9 1.4 7.9 7.9 0 0 0 4.7 2.3 7.7 7.7 0 0 0 2.7-4.5 2.2 2.2 0 0 0 0-1.6z"/><path fill="#ffdaf7" d="M53.4 35.4a2.2 2.2 0 0 0-3-1.1 2.3 2.3 0 0 0-.5 3.2 2.2 2.2 0 0 0-3-1.1 2.3 2.3 0 0 0-.6 3.1 2.5 2.5 0 0 0 1.2 1.1 7.1 7.1 0 0 0 4.9 1 7.1 7.1 0 0 0 1.4-4.7 2.6 2.6 0 0 0-.4-1.5zm7-21a2.2 2.2 0 0 0-3-1.1 2.3 2.3 0 0 0-.5 3.2 2.2 2.2 0 0 0-3-1.1 2.3 2.3 0 0 0-.6 3.1 2.5 2.5 0 0 0 1.2 1.1 7.1 7.1 0 0 0 4.9 1 7.1 7.1 0 0 0 1.4-4.7 2.6 2.6 0 0 0-.4-1.5zM34.8 6.5a2.3 2.3 0 0 0-1.3-2.9 2.2 2.2 0 0 0-2.7 1.7 2.2 2.2 0 0 0-1.3-2.9 2.3 2.3 0 0 0-2.6 1.8 2.6 2.6 0 0 0 0 1.5 7.2 7.2 0 0 0 2.6 4.3A7.6 7.6 0 0 0 34 7.8a5.7 5.7 0 0 0 .8-1.3zM9.4 12.4a2.2 2.2 0 0 0-3-1.1 2.3 2.3 0 0 0-.5 3.2 2.2 2.2 0 0 0-3-1.1 2.3 2.3 0 0 0-.6 3.1 2.5 2.5 0 0 0 1.2 1.1 7.1 7.1 0 0 0 4.9 1 7.1 7.1 0 0 0 1.4-4.7 2.6 2.6 0 0 0-.4-1.5z"/><path fill="#fa3ab1" d="M36.5 28.3a3.5 3.5 0 1 0-7 0 3.5 3.5 0 1 0-7 0 4 4 0 0 0 .7 2.1c1.4 2.5 4.4 4.2 6.3 4.9s4.9-2.4 6.3-4.9a4 4 0 0 0 .7-2.1z"/><path fill="#ffdaf7" d="M5.5 38.3a2.4 2.4 0 0 1 3.1-1 2.2 2.2 0 0 1 .5 3.1 2.4 2.4 0 0 1 3.1-1 2.2 2.2 0 0 1 .5 3.1 2.9 2.9 0 0 1-1.1 1.1 8.3 8.3 0 0 1-5 1.1 7.7 7.7 0 0 1-1.4-4.9 2.7 2.7 0 0 1 .3-1.5zm30 10a2.4 2.4 0 0 1 3.1-1 2.2 2.2 0 0 1 .5 3.1 2.4 2.4 0 0 1 3.1-1 2.2 2.2 0 0 1 .5 3.1 2.9 2.9 0 0 1-1.1 1.1 8.3 8.3 0 0 1-5 1.1 7.7 7.7 0 0 1-1.4-4.9 2.7 2.7 0 0 1 .3-1.5z"/><path fill="#fa3ab1" d="M10.8 6.8a1.6 1.6 0 0 1-1.6 1.7 1.6 1.6 0 0 1-1.7-1.7 1.6 1.6 0 0 1-1.7 1.7 1.6 1.6 0 0 1-1.6-1.7 1.9 1.9 0 0 1 .3-1 5.8 5.8 0 0 1 3-2.3 5.8 5.8 0 0 1 3 2.3 1.9 1.9 0 0 1 .3 1zm31 32a1.6 1.6 0 0 1-1.6 1.7 1.6 1.6 0 0 1-1.7-1.7 1.6 1.6 0 0 1-1.7 1.7 1.6 1.6 0 0 1-1.6-1.7 1.9 1.9 0 0 1 .3-1 5.8 5.8 0 0 1 3-2.3 5.8 5.8 0 0 1 3 2.3 1.9 1.9 0 0 1 .3 1zm-9 5a1.6 1.6 0 0 1-1.6 1.7 1.6 1.6 0 0 1-1.7-1.7 1.6 1.6 0 0 1-1.7 1.7 1.6 1.6 0 0 1-1.6-1.7 1.9 1.9 0 0 1 .3-1 5.8 5.8 0 0 1 3-2.3 5.8 5.8 0 0 1 3 2.3 1.9 1.9 0 0 1 .3 1zm19-26a1.6 1.6 0 0 1-1.6 1.7 1.6 1.6 0 0 1-1.7-1.7 1.6 1.6 0 0 1-1.7 1.7 1.6 1.6 0 0 1-1.6-1.7 1.9 1.9 0 0 1 .3-1 5.8 5.8 0 0 1 3-2.3 5.8 5.8 0 0 1 3 2.3 1.9 1.9 0 0 1 .3 1zm-3-11a1.6 1.6 0 0 1-1.6 1.7 1.6 1.6 0 0 1-1.7-1.7 1.6 1.6 0 0 1-1.7 1.7 1.6 1.6 0 0 1-1.6-1.7 1.9 1.9 0 0 1 .3-1 5.8 5.8 0 0 1 3-2.3 5.8 5.8 0 0 1 3 2.3 1.9 1.9 0 0 1 .3 1zm2 40a1.6 1.6 0 0 1-1.6 1.7 1.6 1.6 0 0 1-1.7-1.7 1.6 1.6 0 0 1-1.7 1.7 1.6 1.6 0 0 1-1.6-1.7 1.9 1.9 0 0 1 .3-1 5.8 5.8 0 0 1 3-2.3 5.8 5.8 0 0 1 3 2.3 1.9 1.9 0 0 1 .3 1zm-29-7a1.6 1.6 0 0 1-1.6 1.7 1.6 1.6 0 0 1-1.7-1.7 1.6 1.6 0 0 1-1.7 1.7 1.6 1.6 0 0 1-1.6-1.7 1.9 1.9 0 0 1 .3-1 5.8 5.8 0 0 1 3-2.3 5.8 5.8 0 0 1 3 2.3 1.9 1.9 0 0 1 .3 1zm-2-20a1.6 1.6 0 0 1-1.6 1.7 1.6 1.6 0 0 1-1.7-1.7 1.6 1.6 0 0 1-1.7 1.7 1.6 1.6 0 0 1-1.6-1.7 1.9 1.9 0 0 1 .3-1 5.8 5.8 0 0 1 3-2.3 5.8 5.8 0 0 1 3 2.3 1.9 1.9 0 0 1 .3 1z"/></g></pattern><pattern id="f" width="62" height="62" patternTransform="matrix(.59 0 0 .59 -19 -6.7)" patternUnits="userSpaceOnUse" viewBox="0 0 62 62"><path fill="none" d="M0 0h62v62H0z"/><g clip-path="url(#a)"><path fill="#ff87dc" d="M29.4 17.7a2.3 2.3 0 1 0-3.8-2.5 2.2 2.2 0 1 0-3.7-2.5 2.3 2.3 0 0 0-.4 1.4 7.7 7.7 0 0 0 1.6 4.8 7.6 7.6 0 0 0 5.1-.4 2 2 0 0 0 1.2-.8zm-4.3 31.2a2.2 2.2 0 0 0-2.7-1.6 2.3 2.3 0 0 0-1.7 2.7 2.2 2.2 0 0 0-4.3 1.1 2.4 2.4 0 0 0 .7 1.2 7.6 7.6 0 0 0 4.7 2.1 7.7 7.7 0 0 0 3.2-4 2.6 2.6 0 0 0 .1-1.5zm8 5a2.2 2.2 0 0 0-2.7-1.6 2.3 2.3 0 0 0-1.7 2.7 2.2 2.2 0 0 0-4.3 1.1 2.4 2.4 0 0 0 .7 1.2 7.6 7.6 0 0 0 4.7 2.1 7.7 7.7 0 0 0 3.2-4 2.6 2.6 0 0 0 .1-1.5zM60 43.7a1.6 1.6 0 0 0-1.9-1.2 1.7 1.7 0 0 0-1.3 2 1.6 1.6 0 1 0-3.1.8 1.1 1.1 0 0 0 .5.9 6 6 0 0 0 3.4 1.5 5.7 5.7 0 0 0 2.4-3 1.7 1.7 0 0 0 0-1zm0-14a1.6 1.6 0 0 0-1.9-1.2 1.7 1.7 0 0 0-1.3 2 1.6 1.6 0 1 0-3.1.8 1.1 1.1 0 0 0 .5.9 6 6 0 0 0 3.4 1.5 5.7 5.7 0 0 0 2.4-3 1.7 1.7 0 0 0 0-1zm-40 0a1.6 1.6 0 0 0-1.9-1.2 1.7 1.7 0 0 0-1.3 2 1.6 1.6 0 1 0-3.1.8 1.1 1.1 0 0 0 .5.9 6 6 0 0 0 3.4 1.5 5.7 5.7 0 0 0 2.4-3 1.7 1.7 0 0 0 0-1zm23.1-9.8a2.2 2.2 0 0 0-2.7-1.6 2.3 2.3 0 0 0-1.7 2.7 2.2 2.2 0 1 0-4.3 1.1 2.4 2.4 0 0 0 .7 1.2 7.6 7.6 0 0 0 4.7 2.1 7.7 7.7 0 0 0 3.2-4 2.6 2.6 0 0 0 .1-1.5zm-30 33a2.2 2.2 0 0 0-2.7-1.6A2.3 2.3 0 0 0 8.7 54a2.2 2.2 0 0 0-4.3 1.1 2.4 2.4 0 0 0 .7 1.2 7.6 7.6 0 0 0 4.7 2.1 7.7 7.7 0 0 0 3.2-4 2.6 2.6 0 0 0 .1-1.5zm42-30a2.2 2.2 0 0 0-2.7-1.6 2.3 2.3 0 0 0-1.7 2.7 2.2 2.2 0 0 0-4.3 1.1 2.4 2.4 0 0 0 .7 1.2 7.6 7.6 0 0 0 4.7 2.1 7.7 7.7 0 0 0 3.2-4 2.6 2.6 0 0 0 .1-1.5zm4-15a2.2 2.2 0 0 0-2.7-1.6A2.3 2.3 0 0 0 54.7 9a2.2 2.2 0 1 0-4.3 1.1 2.4 2.4 0 0 0 .7 1.2 7.6 7.6 0 0 0 4.7 2.1 7.7 7.7 0 0 0 3.2-4 2.6 2.6 0 0 0 .1-1.5zm0 45a2.2 2.2 0 0 0-2.7-1.6 2.3 2.3 0 0 0-1.7 2.7 2.2 2.2 0 1 0-4.3 1.1 2.4 2.4 0 0 0 .7 1.2 7.6 7.6 0 0 0 4.7 2.1 7.7 7.7 0 0 0 3.2-4 2.6 2.6 0 0 0 .1-1.5zm-18-43a2.2 2.2 0 0 0-2.7-1.6 2.3 2.3 0 0 0-1.7 2.7 2.2 2.2 0 0 0-4.3 1.1 2.4 2.4 0 0 0 .7 1.2 7.6 7.6 0 0 0 4.7 2.1 7.7 7.7 0 0 0 3.2-4 2.6 2.6 0 0 0 .1-1.5zM12.4 25.3a2.4 2.4 0 0 0-2.8-1.9 2.5 2.5 0 0 0-1.3 3.1 2.4 2.4 0 0 0-2.8-1.9 2.4 2.4 0 0 0-1.4 3.1 3.4 3.4 0 0 0 .9 1.4 7.9 7.9 0 0 0 4.7 2.3 7.7 7.7 0 0 0 2.7-4.5 2.2 2.2 0 0 0 0-1.6zm10-21a2.4 2.4 0 0 0-2.8-1.9 2.5 2.5 0 0 0-1.3 3.1 2.4 2.4 0 0 0-2.8-1.9 2.4 2.4 0 0 0-1.4 3.1 3.4 3.4 0 0 0 .9 1.4 7.9 7.9 0 0 0 4.7 2.3 7.7 7.7 0 0 0 2.7-4.5 2.2 2.2 0 0 0 0-1.6z"/><path fill="#ffdaf7" d="M53.4 35.4a2.2 2.2 0 0 0-3-1.1 2.3 2.3 0 0 0-.5 3.2 2.2 2.2 0 0 0-3-1.1 2.3 2.3 0 0 0-.6 3.1 2.5 2.5 0 0 0 1.2 1.1 7.1 7.1 0 0 0 4.9 1 7.1 7.1 0 0 0 1.4-4.7 2.6 2.6 0 0 0-.4-1.5zm7-21a2.2 2.2 0 0 0-3-1.1 2.3 2.3 0 0 0-.5 3.2 2.2 2.2 0 0 0-3-1.1 2.3 2.3 0 0 0-.6 3.1 2.5 2.5 0 0 0 1.2 1.1 7.1 7.1 0 0 0 4.9 1 7.1 7.1 0 0 0 1.4-4.7 2.6 2.6 0 0 0-.4-1.5zM34.8 6.5a2.3 2.3 0 0 0-1.3-2.9 2.2 2.2 0 0 0-2.7 1.7 2.2 2.2 0 0 0-1.3-2.9 2.3 2.3 0 0 0-2.6 1.8 2.6 2.6 0 0 0 0 1.5 7.2 7.2 0 0 0 2.6 4.3A7.6 7.6 0 0 0 34 7.8a5.7 5.7 0 0 0 .8-1.3zM9.4 12.4a2.2 2.2 0 0 0-3-1.1 2.3 2.3 0 0 0-.5 3.2 2.2 2.2 0 0 0-3-1.1 2.3 2.3 0 0 0-.6 3.1 2.5 2.5 0 0 0 1.2 1.1 7.1 7.1 0 0 0 4.9 1 7.1 7.1 0 0 0 1.4-4.7 2.6 2.6 0 0 0-.4-1.5z"/><path fill="#fa3ab1" d="M36.5 28.3a3.5 3.5 0 1 0-7 0 3.5 3.5 0 1 0-7 0 4 4 0 0 0 .7 2.1c1.4 2.5 4.4 4.2 6.3 4.9s4.9-2.4 6.3-4.9a4 4 0 0 0 .7-2.1z"/><path fill="#ffdaf7" d="M5.5 38.3a2.4 2.4 0 0 1 3.1-1 2.2 2.2 0 0 1 .5 3.1 2.4 2.4 0 0 1 3.1-1 2.2 2.2 0 0 1 .5 3.1 2.9 2.9 0 0 1-1.1 1.1 8.3 8.3 0 0 1-5 1.1 7.7 7.7 0 0 1-1.4-4.9 2.7 2.7 0 0 1 .3-1.5zm30 10a2.4 2.4 0 0 1 3.1-1 2.2 2.2 0 0 1 .5 3.1 2.4 2.4 0 0 1 3.1-1 2.2 2.2 0 0 1 .5 3.1 2.9 2.9 0 0 1-1.1 1.1 8.3 8.3 0 0 1-5 1.1 7.7 7.7 0 0 1-1.4-4.9 2.7 2.7 0 0 1 .3-1.5z"/><path fill="#fa3ab1" d="M10.8 6.8a1.6 1.6 0 0 1-1.6 1.7 1.6 1.6 0 0 1-1.7-1.7 1.6 1.6 0 0 1-1.7 1.7 1.6 1.6 0 0 1-1.6-1.7 1.9 1.9 0 0 1 .3-1 5.8 5.8 0 0 1 3-2.3 5.8 5.8 0 0 1 3 2.3 1.9 1.9 0 0 1 .3 1zm31 32a1.6 1.6 0 0 1-1.6 1.7 1.6 1.6 0 0 1-1.7-1.7 1.6 1.6 0 0 1-1.7 1.7 1.6 1.6 0 0 1-1.6-1.7 1.9 1.9 0 0 1 .3-1 5.8 5.8 0 0 1 3-2.3 5.8 5.8 0 0 1 3 2.3 1.9 1.9 0 0 1 .3 1zm-9 5a1.6 1.6 0 0 1-1.6 1.7 1.6 1.6 0 0 1-1.7-1.7 1.6 1.6 0 0 1-1.7 1.7 1.6 1.6 0 0 1-1.6-1.7 1.9 1.9 0 0 1 .3-1 5.8 5.8 0 0 1 3-2.3 5.8 5.8 0 0 1 3 2.3 1.9 1.9 0 0 1 .3 1zm19-26a1.6 1.6 0 0 1-1.6 1.7 1.6 1.6 0 0 1-1.7-1.7 1.6 1.6 0 0 1-1.7 1.7 1.6 1.6 0 0 1-1.6-1.7 1.9 1.9 0 0 1 .3-1 5.8 5.8 0 0 1 3-2.3 5.8 5.8 0 0 1 3 2.3 1.9 1.9 0 0 1 .3 1zm-3-11a1.6 1.6 0 0 1-1.6 1.7 1.6 1.6 0 0 1-1.7-1.7 1.6 1.6 0 0 1-1.7 1.7 1.6 1.6 0 0 1-1.6-1.7 1.9 1.9 0 0 1 .3-1 5.8 5.8 0 0 1 3-2.3 5.8 5.8 0 0 1 3 2.3 1.9 1.9 0 0 1 .3 1zm2 40a1.6 1.6 0 0 1-1.6 1.7 1.6 1.6 0 0 1-1.7-1.7 1.6 1.6 0 0 1-1.7 1.7 1.6 1.6 0 0 1-1.6-1.7 1.9 1.9 0 0 1 .3-1 5.8 5.8 0 0 1 3-2.3 5.8 5.8 0 0 1 3 2.3 1.9 1.9 0 0 1 .3 1zm-29-7a1.6 1.6 0 0 1-1.6 1.7 1.6 1.6 0 0 1-1.7-1.7 1.6 1.6 0 0 1-1.7 1.7 1.6 1.6 0 0 1-1.6-1.7 1.9 1.9 0 0 1 .3-1 5.8 5.8 0 0 1 3-2.3 5.8 5.8 0 0 1 3 2.3 1.9 1.9 0 0 1 .3 1zm-2-20a1.6 1.6 0 0 1-1.6 1.7 1.6 1.6 0 0 1-1.7-1.7 1.6 1.6 0 0 1-1.7 1.7 1.6 1.6 0 0 1-1.6-1.7 1.9 1.9 0 0 1 .3-1 5.8 5.8 0 0 1 3-2.3 5.8 5.8 0 0 1 3 2.3 1.9 1.9 0 0 1 .3 1z"/></g></pattern><pattern id="g" width="62" height="62" patternTransform="matrix(.59 0 0 .59 13.5 4.9)" patternUnits="userSpaceOnUse" viewBox="0 0 62 62"><path fill="none" d="M0 0h62v62H0z"/><g clip-path="url(#a)"><path fill="#ff87dc" d="M29.4 17.7a2.3 2.3 0 1 0-3.8-2.5 2.2 2.2 0 1 0-3.7-2.5 2.3 2.3 0 0 0-.4 1.4 7.7 7.7 0 0 0 1.6 4.8 7.6 7.6 0 0 0 5.1-.4 2 2 0 0 0 1.2-.8zm-4.3 31.2a2.2 2.2 0 0 0-2.7-1.6 2.3 2.3 0 0 0-1.7 2.7 2.2 2.2 0 0 0-4.3 1.1 2.4 2.4 0 0 0 .7 1.2 7.6 7.6 0 0 0 4.7 2.1 7.7 7.7 0 0 0 3.2-4 2.6 2.6 0 0 0 .1-1.5zm8 5a2.2 2.2 0 0 0-2.7-1.6 2.3 2.3 0 0 0-1.7 2.7 2.2 2.2 0 0 0-4.3 1.1 2.4 2.4 0 0 0 .7 1.2 7.6 7.6 0 0 0 4.7 2.1 7.7 7.7 0 0 0 3.2-4 2.6 2.6 0 0 0 .1-1.5zM60 43.7a1.6 1.6 0 0 0-1.9-1.2 1.7 1.7 0 0 0-1.3 2 1.6 1.6 0 1 0-3.1.8 1.1 1.1 0 0 0 .5.9 6 6 0 0 0 3.4 1.5 5.7 5.7 0 0 0 2.4-3 1.7 1.7 0 0 0 0-1zm0-14a1.6 1.6 0 0 0-1.9-1.2 1.7 1.7 0 0 0-1.3 2 1.6 1.6 0 1 0-3.1.8 1.1 1.1 0 0 0 .5.9 6 6 0 0 0 3.4 1.5 5.7 5.7 0 0 0 2.4-3 1.7 1.7 0 0 0 0-1zm-40 0a1.6 1.6 0 0 0-1.9-1.2 1.7 1.7 0 0 0-1.3 2 1.6 1.6 0 1 0-3.1.8 1.1 1.1 0 0 0 .5.9 6 6 0 0 0 3.4 1.5 5.7 5.7 0 0 0 2.4-3 1.7 1.7 0 0 0 0-1zm23.1-9.8a2.2 2.2 0 0 0-2.7-1.6 2.3 2.3 0 0 0-1.7 2.7 2.2 2.2 0 1 0-4.3 1.1 2.4 2.4 0 0 0 .7 1.2 7.6 7.6 0 0 0 4.7 2.1 7.7 7.7 0 0 0 3.2-4 2.6 2.6 0 0 0 .1-1.5zm-30 33a2.2 2.2 0 0 0-2.7-1.6A2.3 2.3 0 0 0 8.7 54a2.2 2.2 0 0 0-4.3 1.1 2.4 2.4 0 0 0 .7 1.2 7.6 7.6 0 0 0 4.7 2.1 7.7 7.7 0 0 0 3.2-4 2.6 2.6 0 0 0 .1-1.5zm42-30a2.2 2.2 0 0 0-2.7-1.6 2.3 2.3 0 0 0-1.7 2.7 2.2 2.2 0 0 0-4.3 1.1 2.4 2.4 0 0 0 .7 1.2 7.6 7.6 0 0 0 4.7 2.1 7.7 7.7 0 0 0 3.2-4 2.6 2.6 0 0 0 .1-1.5zm4-15a2.2 2.2 0 0 0-2.7-1.6A2.3 2.3 0 0 0 54.7 9a2.2 2.2 0 1 0-4.3 1.1 2.4 2.4 0 0 0 .7 1.2 7.6 7.6 0 0 0 4.7 2.1 7.7 7.7 0 0 0 3.2-4 2.6 2.6 0 0 0 .1-1.5zm0 45a2.2 2.2 0 0 0-2.7-1.6 2.3 2.3 0 0 0-1.7 2.7 2.2 2.2 0 1 0-4.3 1.1 2.4 2.4 0 0 0 .7 1.2 7.6 7.6 0 0 0 4.7 2.1 7.7 7.7 0 0 0 3.2-4 2.6 2.6 0 0 0 .1-1.5zm-18-43a2.2 2.2 0 0 0-2.7-1.6 2.3 2.3 0 0 0-1.7 2.7 2.2 2.2 0 0 0-4.3 1.1 2.4 2.4 0 0 0 .7 1.2 7.6 7.6 0 0 0 4.7 2.1 7.7 7.7 0 0 0 3.2-4 2.6 2.6 0 0 0 .1-1.5zM12.4 25.3a2.4 2.4 0 0 0-2.8-1.9 2.5 2.5 0 0 0-1.3 3.1 2.4 2.4 0 0 0-2.8-1.9 2.4 2.4 0 0 0-1.4 3.1 3.4 3.4 0 0 0 .9 1.4 7.9 7.9 0 0 0 4.7 2.3 7.7 7.7 0 0 0 2.7-4.5 2.2 2.2 0 0 0 0-1.6zm10-21a2.4 2.4 0 0 0-2.8-1.9 2.5 2.5 0 0 0-1.3 3.1 2.4 2.4 0 0 0-2.8-1.9 2.4 2.4 0 0 0-1.4 3.1 3.4 3.4 0 0 0 .9 1.4 7.9 7.9 0 0 0 4.7 2.3 7.7 7.7 0 0 0 2.7-4.5 2.2 2.2 0 0 0 0-1.6z"/><path fill="#ffdaf7" d="M53.4 35.4a2.2 2.2 0 0 0-3-1.1 2.3 2.3 0 0 0-.5 3.2 2.2 2.2 0 0 0-3-1.1 2.3 2.3 0 0 0-.6 3.1 2.5 2.5 0 0 0 1.2 1.1 7.1 7.1 0 0 0 4.9 1 7.1 7.1 0 0 0 1.4-4.7 2.6 2.6 0 0 0-.4-1.5zm7-21a2.2 2.2 0 0 0-3-1.1 2.3 2.3 0 0 0-.5 3.2 2.2 2.2 0 0 0-3-1.1 2.3 2.3 0 0 0-.6 3.1 2.5 2.5 0 0 0 1.2 1.1 7.1 7.1 0 0 0 4.9 1 7.1 7.1 0 0 0 1.4-4.7 2.6 2.6 0 0 0-.4-1.5zM34.8 6.5a2.3 2.3 0 0 0-1.3-2.9 2.2 2.2 0 0 0-2.7 1.7 2.2 2.2 0 0 0-1.3-2.9 2.3 2.3 0 0 0-2.6 1.8 2.6 2.6 0 0 0 0 1.5 7.2 7.2 0 0 0 2.6 4.3A7.6 7.6 0 0 0 34 7.8a5.7 5.7 0 0 0 .8-1.3zM9.4 12.4a2.2 2.2 0 0 0-3-1.1 2.3 2.3 0 0 0-.5 3.2 2.2 2.2 0 0 0-3-1.1 2.3 2.3 0 0 0-.6 3.1 2.5 2.5 0 0 0 1.2 1.1 7.1 7.1 0 0 0 4.9 1 7.1 7.1 0 0 0 1.4-4.7 2.6 2.6 0 0 0-.4-1.5z"/><path fill="#fa3ab1" d="M36.5 28.3a3.5 3.5 0 1 0-7 0 3.5 3.5 0 1 0-7 0 4 4 0 0 0 .7 2.1c1.4 2.5 4.4 4.2 6.3 4.9s4.9-2.4 6.3-4.9a4 4 0 0 0 .7-2.1z"/><path fill="#ffdaf7" d="M5.5 38.3a2.4 2.4 0 0 1 3.1-1 2.2 2.2 0 0 1 .5 3.1 2.4 2.4 0 0 1 3.1-1 2.2 2.2 0 0 1 .5 3.1 2.9 2.9 0 0 1-1.1 1.1 8.3 8.3 0 0 1-5 1.1 7.7 7.7 0 0 1-1.4-4.9 2.7 2.7 0 0 1 .3-1.5zm30 10a2.4 2.4 0 0 1 3.1-1 2.2 2.2 0 0 1 .5 3.1 2.4 2.4 0 0 1 3.1-1 2.2 2.2 0 0 1 .5 3.1 2.9 2.9 0 0 1-1.1 1.1 8.3 8.3 0 0 1-5 1.1 7.7 7.7 0 0 1-1.4-4.9 2.7 2.7 0 0 1 .3-1.5z"/><path fill="#fa3ab1" d="M10.8 6.8a1.6 1.6 0 0 1-1.6 1.7 1.6 1.6 0 0 1-1.7-1.7 1.6 1.6 0 0 1-1.7 1.7 1.6 1.6 0 0 1-1.6-1.7 1.9 1.9 0 0 1 .3-1 5.8 5.8 0 0 1 3-2.3 5.8 5.8 0 0 1 3 2.3 1.9 1.9 0 0 1 .3 1zm31 32a1.6 1.6 0 0 1-1.6 1.7 1.6 1.6 0 0 1-1.7-1.7 1.6 1.6 0 0 1-1.7 1.7 1.6 1.6 0 0 1-1.6-1.7 1.9 1.9 0 0 1 .3-1 5.8 5.8 0 0 1 3-2.3 5.8 5.8 0 0 1 3 2.3 1.9 1.9 0 0 1 .3 1zm-9 5a1.6 1.6 0 0 1-1.6 1.7 1.6 1.6 0 0 1-1.7-1.7 1.6 1.6 0 0 1-1.7 1.7 1.6 1.6 0 0 1-1.6-1.7 1.9 1.9 0 0 1 .3-1 5.8 5.8 0 0 1 3-2.3 5.8 5.8 0 0 1 3 2.3 1.9 1.9 0 0 1 .3 1zm19-26a1.6 1.6 0 0 1-1.6 1.7 1.6 1.6 0 0 1-1.7-1.7 1.6 1.6 0 0 1-1.7 1.7 1.6 1.6 0 0 1-1.6-1.7 1.9 1.9 0 0 1 .3-1 5.8 5.8 0 0 1 3-2.3 5.8 5.8 0 0 1 3 2.3 1.9 1.9 0 0 1 .3 1zm-3-11a1.6 1.6 0 0 1-1.6 1.7 1.6 1.6 0 0 1-1.7-1.7 1.6 1.6 0 0 1-1.7 1.7 1.6 1.6 0 0 1-1.6-1.7 1.9 1.9 0 0 1 .3-1 5.8 5.8 0 0 1 3-2.3 5.8 5.8 0 0 1 3 2.3 1.9 1.9 0 0 1 .3 1zm2 40a1.6 1.6 0 0 1-1.6 1.7 1.6 1.6 0 0 1-1.7-1.7 1.6 1.6 0 0 1-1.7 1.7 1.6 1.6 0 0 1-1.6-1.7 1.9 1.9 0 0 1 .3-1 5.8 5.8 0 0 1 3-2.3 5.8 5.8 0 0 1 3 2.3 1.9 1.9 0 0 1 .3 1zm-29-7a1.6 1.6 0 0 1-1.6 1.7 1.6 1.6 0 0 1-1.7-1.7 1.6 1.6 0 0 1-1.7 1.7 1.6 1.6 0 0 1-1.6-1.7 1.9 1.9 0 0 1 .3-1 5.8 5.8 0 0 1 3-2.3 5.8 5.8 0 0 1 3 2.3 1.9 1.9 0 0 1 .3 1zm-2-20a1.6 1.6 0 0 1-1.6 1.7 1.6 1.6 0 0 1-1.7-1.7 1.6 1.6 0 0 1-1.7 1.7 1.6 1.6 0 0 1-1.6-1.7 1.9 1.9 0 0 1 .3-1 5.8 5.8 0 0 1 3-2.3 5.8 5.8 0 0 1 3 2.3 1.9 1.9 0 0 1 .3 1z"/></g></pattern><pattern id="h" width="62" height="62" patternTransform="matrix(.59 0 0 .59 13.5 16.5)" patternUnits="userSpaceOnUse" viewBox="0 0 62 62"><path fill="none" d="M0 0h62v62H0z"/><g clip-path="url(#a)"><path fill="#ff87dc" d="M29.4 17.7a2.3 2.3 0 1 0-3.8-2.5 2.2 2.2 0 1 0-3.7-2.5 2.3 2.3 0 0 0-.4 1.4 7.7 7.7 0 0 0 1.6 4.8 7.6 7.6 0 0 0 5.1-.4 2 2 0 0 0 1.2-.8zm-4.3 31.2a2.2 2.2 0 0 0-2.7-1.6 2.3 2.3 0 0 0-1.7 2.7 2.2 2.2 0 0 0-4.3 1.1 2.4 2.4 0 0 0 .7 1.2 7.6 7.6 0 0 0 4.7 2.1 7.7 7.7 0 0 0 3.2-4 2.6 2.6 0 0 0 .1-1.5zm8 5a2.2 2.2 0 0 0-2.7-1.6 2.3 2.3 0 0 0-1.7 2.7 2.2 2.2 0 0 0-4.3 1.1 2.4 2.4 0 0 0 .7 1.2 7.6 7.6 0 0 0 4.7 2.1 7.7 7.7 0 0 0 3.2-4 2.6 2.6 0 0 0 .1-1.5zM60 43.7a1.6 1.6 0 0 0-1.9-1.2 1.7 1.7 0 0 0-1.3 2 1.6 1.6 0 1 0-3.1.8 1.1 1.1 0 0 0 .5.9 6 6 0 0 0 3.4 1.5 5.7 5.7 0 0 0 2.4-3 1.7 1.7 0 0 0 0-1zm0-14a1.6 1.6 0 0 0-1.9-1.2 1.7 1.7 0 0 0-1.3 2 1.6 1.6 0 1 0-3.1.8 1.1 1.1 0 0 0 .5.9 6 6 0 0 0 3.4 1.5 5.7 5.7 0 0 0 2.4-3 1.7 1.7 0 0 0 0-1zm-40 0a1.6 1.6 0 0 0-1.9-1.2 1.7 1.7 0 0 0-1.3 2 1.6 1.6 0 1 0-3.1.8 1.1 1.1 0 0 0 .5.9 6 6 0 0 0 3.4 1.5 5.7 5.7 0 0 0 2.4-3 1.7 1.7 0 0 0 0-1zm23.1-9.8a2.2 2.2 0 0 0-2.7-1.6 2.3 2.3 0 0 0-1.7 2.7 2.2 2.2 0 1 0-4.3 1.1 2.4 2.4 0 0 0 .7 1.2 7.6 7.6 0 0 0 4.7 2.1 7.7 7.7 0 0 0 3.2-4 2.6 2.6 0 0 0 .1-1.5zm-30 33a2.2 2.2 0 0 0-2.7-1.6A2.3 2.3 0 0 0 8.7 54a2.2 2.2 0 0 0-4.3 1.1 2.4 2.4 0 0 0 .7 1.2 7.6 7.6 0 0 0 4.7 2.1 7.7 7.7 0 0 0 3.2-4 2.6 2.6 0 0 0 .1-1.5zm42-30a2.2 2.2 0 0 0-2.7-1.6 2.3 2.3 0 0 0-1.7 2.7 2.2 2.2 0 0 0-4.3 1.1 2.4 2.4 0 0 0 .7 1.2 7.6 7.6 0 0 0 4.7 2.1 7.7 7.7 0 0 0 3.2-4 2.6 2.6 0 0 0 .1-1.5zm4-15a2.2 2.2 0 0 0-2.7-1.6A2.3 2.3 0 0 0 54.7 9a2.2 2.2 0 1 0-4.3 1.1 2.4 2.4 0 0 0 .7 1.2 7.6 7.6 0 0 0 4.7 2.1 7.7 7.7 0 0 0 3.2-4 2.6 2.6 0 0 0 .1-1.5zm0 45a2.2 2.2 0 0 0-2.7-1.6 2.3 2.3 0 0 0-1.7 2.7 2.2 2.2 0 1 0-4.3 1.1 2.4 2.4 0 0 0 .7 1.2 7.6 7.6 0 0 0 4.7 2.1 7.7 7.7 0 0 0 3.2-4 2.6 2.6 0 0 0 .1-1.5zm-18-43a2.2 2.2 0 0 0-2.7-1.6 2.3 2.3 0 0 0-1.7 2.7 2.2 2.2 0 0 0-4.3 1.1 2.4 2.4 0 0 0 .7 1.2 7.6 7.6 0 0 0 4.7 2.1 7.7 7.7 0 0 0 3.2-4 2.6 2.6 0 0 0 .1-1.5zM12.4 25.3a2.4 2.4 0 0 0-2.8-1.9 2.5 2.5 0 0 0-1.3 3.1 2.4 2.4 0 0 0-2.8-1.9 2.4 2.4 0 0 0-1.4 3.1 3.4 3.4 0 0 0 .9 1.4 7.9 7.9 0 0 0 4.7 2.3 7.7 7.7 0 0 0 2.7-4.5 2.2 2.2 0 0 0 0-1.6zm10-21a2.4 2.4 0 0 0-2.8-1.9 2.5 2.5 0 0 0-1.3 3.1 2.4 2.4 0 0 0-2.8-1.9 2.4 2.4 0 0 0-1.4 3.1 3.4 3.4 0 0 0 .9 1.4 7.9 7.9 0 0 0 4.7 2.3 7.7 7.7 0 0 0 2.7-4.5 2.2 2.2 0 0 0 0-1.6z"/><path fill="#ffdaf7" d="M53.4 35.4a2.2 2.2 0 0 0-3-1.1 2.3 2.3 0 0 0-.5 3.2 2.2 2.2 0 0 0-3-1.1 2.3 2.3 0 0 0-.6 3.1 2.5 2.5 0 0 0 1.2 1.1 7.1 7.1 0 0 0 4.9 1 7.1 7.1 0 0 0 1.4-4.7 2.6 2.6 0 0 0-.4-1.5zm7-21a2.2 2.2 0 0 0-3-1.1 2.3 2.3 0 0 0-.5 3.2 2.2 2.2 0 0 0-3-1.1 2.3 2.3 0 0 0-.6 3.1 2.5 2.5 0 0 0 1.2 1.1 7.1 7.1 0 0 0 4.9 1 7.1 7.1 0 0 0 1.4-4.7 2.6 2.6 0 0 0-.4-1.5zM34.8 6.5a2.3 2.3 0 0 0-1.3-2.9 2.2 2.2 0 0 0-2.7 1.7 2.2 2.2 0 0 0-1.3-2.9 2.3 2.3 0 0 0-2.6 1.8 2.6 2.6 0 0 0 0 1.5 7.2 7.2 0 0 0 2.6 4.3A7.6 7.6 0 0 0 34 7.8a5.7 5.7 0 0 0 .8-1.3zM9.4 12.4a2.2 2.2 0 0 0-3-1.1 2.3 2.3 0 0 0-.5 3.2 2.2 2.2 0 0 0-3-1.1 2.3 2.3 0 0 0-.6 3.1 2.5 2.5 0 0 0 1.2 1.1 7.1 7.1 0 0 0 4.9 1 7.1 7.1 0 0 0 1.4-4.7 2.6 2.6 0 0 0-.4-1.5z"/><path fill="#fa3ab1" d="M36.5 28.3a3.5 3.5 0 1 0-7 0 3.5 3.5 0 1 0-7 0 4 4 0 0 0 .7 2.1c1.4 2.5 4.4 4.2 6.3 4.9s4.9-2.4 6.3-4.9a4 4 0 0 0 .7-2.1z"/><path fill="#ffdaf7" d="M5.5 38.3a2.4 2.4 0 0 1 3.1-1 2.2 2.2 0 0 1 .5 3.1 2.4 2.4 0 0 1 3.1-1 2.2 2.2 0 0 1 .5 3.1 2.9 2.9 0 0 1-1.1 1.1 8.3 8.3 0 0 1-5 1.1 7.7 7.7 0 0 1-1.4-4.9 2.7 2.7 0 0 1 .3-1.5zm30 10a2.4 2.4 0 0 1 3.1-1 2.2 2.2 0 0 1 .5 3.1 2.4 2.4 0 0 1 3.1-1 2.2 2.2 0 0 1 .5 3.1 2.9 2.9 0 0 1-1.1 1.1 8.3 8.3 0 0 1-5 1.1 7.7 7.7 0 0 1-1.4-4.9 2.7 2.7 0 0 1 .3-1.5z"/><path fill="#fa3ab1" d="M10.8 6.8a1.6 1.6 0 0 1-1.6 1.7 1.6 1.6 0 0 1-1.7-1.7 1.6 1.6 0 0 1-1.7 1.7 1.6 1.6 0 0 1-1.6-1.7 1.9 1.9 0 0 1 .3-1 5.8 5.8 0 0 1 3-2.3 5.8 5.8 0 0 1 3 2.3 1.9 1.9 0 0 1 .3 1zm31 32a1.6 1.6 0 0 1-1.6 1.7 1.6 1.6 0 0 1-1.7-1.7 1.6 1.6 0 0 1-1.7 1.7 1.6 1.6 0 0 1-1.6-1.7 1.9 1.9 0 0 1 .3-1 5.8 5.8 0 0 1 3-2.3 5.8 5.8 0 0 1 3 2.3 1.9 1.9 0 0 1 .3 1zm-9 5a1.6 1.6 0 0 1-1.6 1.7 1.6 1.6 0 0 1-1.7-1.7 1.6 1.6 0 0 1-1.7 1.7 1.6 1.6 0 0 1-1.6-1.7 1.9 1.9 0 0 1 .3-1 5.8 5.8 0 0 1 3-2.3 5.8 5.8 0 0 1 3 2.3 1.9 1.9 0 0 1 .3 1zm19-26a1.6 1.6 0 0 1-1.6 1.7 1.6 1.6 0 0 1-1.7-1.7 1.6 1.6 0 0 1-1.7 1.7 1.6 1.6 0 0 1-1.6-1.7 1.9 1.9 0 0 1 .3-1 5.8 5.8 0 0 1 3-2.3 5.8 5.8 0 0 1 3 2.3 1.9 1.9 0 0 1 .3 1zm-3-11a1.6 1.6 0 0 1-1.6 1.7 1.6 1.6 0 0 1-1.7-1.7 1.6 1.6 0 0 1-1.7 1.7 1.6 1.6 0 0 1-1.6-1.7 1.9 1.9 0 0 1 .3-1 5.8 5.8 0 0 1 3-2.3 5.8 5.8 0 0 1 3 2.3 1.9 1.9 0 0 1 .3 1zm2 40a1.6 1.6 0 0 1-1.6 1.7 1.6 1.6 0 0 1-1.7-1.7 1.6 1.6 0 0 1-1.7 1.7 1.6 1.6 0 0 1-1.6-1.7 1.9 1.9 0 0 1 .3-1 5.8 5.8 0 0 1 3-2.3 5.8 5.8 0 0 1 3 2.3 1.9 1.9 0 0 1 .3 1zm-29-7a1.6 1.6 0 0 1-1.6 1.7 1.6 1.6 0 0 1-1.7-1.7 1.6 1.6 0 0 1-1.7 1.7 1.6 1.6 0 0 1-1.6-1.7 1.9 1.9 0 0 1 .3-1 5.8 5.8 0 0 1 3-2.3 5.8 5.8 0 0 1 3 2.3 1.9 1.9 0 0 1 .3 1zm-2-20a1.6 1.6 0 0 1-1.6 1.7 1.6 1.6 0 0 1-1.7-1.7 1.6 1.6 0 0 1-1.7 1.7 1.6 1.6 0 0 1-1.6-1.7 1.9 1.9 0 0 1 .3-1 5.8 5.8 0 0 1 3-2.3 5.8 5.8 0 0 1 3 2.3 1.9 1.9 0 0 1 .3 1z"/></g></pattern><pattern id="i" width="62" height="62" patternTransform="matrix(.59 0 0 .59 13.5 -6.7)" patternUnits="userSpaceOnUse" viewBox="0 0 62 62"><path fill="none" d="M0 0h62v62H0z"/><g clip-path="url(#a)"><path fill="#ff87dc" d="M29.4 17.7a2.3 2.3 0 1 0-3.8-2.5 2.2 2.2 0 1 0-3.7-2.5 2.3 2.3 0 0 0-.4 1.4 7.7 7.7 0 0 0 1.6 4.8 7.6 7.6 0 0 0 5.1-.4 2 2 0 0 0 1.2-.8zm-4.3 31.2a2.2 2.2 0 0 0-2.7-1.6 2.3 2.3 0 0 0-1.7 2.7 2.2 2.2 0 0 0-4.3 1.1 2.4 2.4 0 0 0 .7 1.2 7.6 7.6 0 0 0 4.7 2.1 7.7 7.7 0 0 0 3.2-4 2.6 2.6 0 0 0 .1-1.5zm8 5a2.2 2.2 0 0 0-2.7-1.6 2.3 2.3 0 0 0-1.7 2.7 2.2 2.2 0 0 0-4.3 1.1 2.4 2.4 0 0 0 .7 1.2 7.6 7.6 0 0 0 4.7 2.1 7.7 7.7 0 0 0 3.2-4 2.6 2.6 0 0 0 .1-1.5zM60 43.7a1.6 1.6 0 0 0-1.9-1.2 1.7 1.7 0 0 0-1.3 2 1.6 1.6 0 1 0-3.1.8 1.1 1.1 0 0 0 .5.9 6 6 0 0 0 3.4 1.5 5.7 5.7 0 0 0 2.4-3 1.7 1.7 0 0 0 0-1zm0-14a1.6 1.6 0 0 0-1.9-1.2 1.7 1.7 0 0 0-1.3 2 1.6 1.6 0 1 0-3.1.8 1.1 1.1 0 0 0 .5.9 6 6 0 0 0 3.4 1.5 5.7 5.7 0 0 0 2.4-3 1.7 1.7 0 0 0 0-1zm-40 0a1.6 1.6 0 0 0-1.9-1.2 1.7 1.7 0 0 0-1.3 2 1.6 1.6 0 1 0-3.1.8 1.1 1.1 0 0 0 .5.9 6 6 0 0 0 3.4 1.5 5.7 5.7 0 0 0 2.4-3 1.7 1.7 0 0 0 0-1zm23.1-9.8a2.2 2.2 0 0 0-2.7-1.6 2.3 2.3 0 0 0-1.7 2.7 2.2 2.2 0 1 0-4.3 1.1 2.4 2.4 0 0 0 .7 1.2 7.6 7.6 0 0 0 4.7 2.1 7.7 7.7 0 0 0 3.2-4 2.6 2.6 0 0 0 .1-1.5zm-30 33a2.2 2.2 0 0 0-2.7-1.6A2.3 2.3 0 0 0 8.7 54a2.2 2.2 0 0 0-4.3 1.1 2.4 2.4 0 0 0 .7 1.2 7.6 7.6 0 0 0 4.7 2.1 7.7 7.7 0 0 0 3.2-4 2.6 2.6 0 0 0 .1-1.5zm42-30a2.2 2.2 0 0 0-2.7-1.6 2.3 2.3 0 0 0-1.7 2.7 2.2 2.2 0 0 0-4.3 1.1 2.4 2.4 0 0 0 .7 1.2 7.6 7.6 0 0 0 4.7 2.1 7.7 7.7 0 0 0 3.2-4 2.6 2.6 0 0 0 .1-1.5zm4-15a2.2 2.2 0 0 0-2.7-1.6A2.3 2.3 0 0 0 54.7 9a2.2 2.2 0 1 0-4.3 1.1 2.4 2.4 0 0 0 .7 1.2 7.6 7.6 0 0 0 4.7 2.1 7.7 7.7 0 0 0 3.2-4 2.6 2.6 0 0 0 .1-1.5zm0 45a2.2 2.2 0 0 0-2.7-1.6 2.3 2.3 0 0 0-1.7 2.7 2.2 2.2 0 1 0-4.3 1.1 2.4 2.4 0 0 0 .7 1.2 7.6 7.6 0 0 0 4.7 2.1 7.7 7.7 0 0 0 3.2-4 2.6 2.6 0 0 0 .1-1.5zm-18-43a2.2 2.2 0 0 0-2.7-1.6 2.3 2.3 0 0 0-1.7 2.7 2.2 2.2 0 0 0-4.3 1.1 2.4 2.4 0 0 0 .7 1.2 7.6 7.6 0 0 0 4.7 2.1 7.7 7.7 0 0 0 3.2-4 2.6 2.6 0 0 0 .1-1.5zM12.4 25.3a2.4 2.4 0 0 0-2.8-1.9 2.5 2.5 0 0 0-1.3 3.1 2.4 2.4 0 0 0-2.8-1.9 2.4 2.4 0 0 0-1.4 3.1 3.4 3.4 0 0 0 .9 1.4 7.9 7.9 0 0 0 4.7 2.3 7.7 7.7 0 0 0 2.7-4.5 2.2 2.2 0 0 0 0-1.6zm10-21a2.4 2.4 0 0 0-2.8-1.9 2.5 2.5 0 0 0-1.3 3.1 2.4 2.4 0 0 0-2.8-1.9 2.4 2.4 0 0 0-1.4 3.1 3.4 3.4 0 0 0 .9 1.4 7.9 7.9 0 0 0 4.7 2.3 7.7 7.7 0 0 0 2.7-4.5 2.2 2.2 0 0 0 0-1.6z"/><path fill="#ffdaf7" d="M53.4 35.4a2.2 2.2 0 0 0-3-1.1 2.3 2.3 0 0 0-.5 3.2 2.2 2.2 0 0 0-3-1.1 2.3 2.3 0 0 0-.6 3.1 2.5 2.5 0 0 0 1.2 1.1 7.1 7.1 0 0 0 4.9 1 7.1 7.1 0 0 0 1.4-4.7 2.6 2.6 0 0 0-.4-1.5zm7-21a2.2 2.2 0 0 0-3-1.1 2.3 2.3 0 0 0-.5 3.2 2.2 2.2 0 0 0-3-1.1 2.3 2.3 0 0 0-.6 3.1 2.5 2.5 0 0 0 1.2 1.1 7.1 7.1 0 0 0 4.9 1 7.1 7.1 0 0 0 1.4-4.7 2.6 2.6 0 0 0-.4-1.5zM34.8 6.5a2.3 2.3 0 0 0-1.3-2.9 2.2 2.2 0 0 0-2.7 1.7 2.2 2.2 0 0 0-1.3-2.9 2.3 2.3 0 0 0-2.6 1.8 2.6 2.6 0 0 0 0 1.5 7.2 7.2 0 0 0 2.6 4.3A7.6 7.6 0 0 0 34 7.8a5.7 5.7 0 0 0 .8-1.3zM9.4 12.4a2.2 2.2 0 0 0-3-1.1 2.3 2.3 0 0 0-.5 3.2 2.2 2.2 0 0 0-3-1.1 2.3 2.3 0 0 0-.6 3.1 2.5 2.5 0 0 0 1.2 1.1 7.1 7.1 0 0 0 4.9 1 7.1 7.1 0 0 0 1.4-4.7 2.6 2.6 0 0 0-.4-1.5z"/><path fill="#fa3ab1" d="M36.5 28.3a3.5 3.5 0 1 0-7 0 3.5 3.5 0 1 0-7 0 4 4 0 0 0 .7 2.1c1.4 2.5 4.4 4.2 6.3 4.9s4.9-2.4 6.3-4.9a4 4 0 0 0 .7-2.1z"/><path fill="#ffdaf7" d="M5.5 38.3a2.4 2.4 0 0 1 3.1-1 2.2 2.2 0 0 1 .5 3.1 2.4 2.4 0 0 1 3.1-1 2.2 2.2 0 0 1 .5 3.1 2.9 2.9 0 0 1-1.1 1.1 8.3 8.3 0 0 1-5 1.1 7.7 7.7 0 0 1-1.4-4.9 2.7 2.7 0 0 1 .3-1.5zm30 10a2.4 2.4 0 0 1 3.1-1 2.2 2.2 0 0 1 .5 3.1 2.4 2.4 0 0 1 3.1-1 2.2 2.2 0 0 1 .5 3.1 2.9 2.9 0 0 1-1.1 1.1 8.3 8.3 0 0 1-5 1.1 7.7 7.7 0 0 1-1.4-4.9 2.7 2.7 0 0 1 .3-1.5z"/><path fill="#fa3ab1" d="M10.8 6.8a1.6 1.6 0 0 1-1.6 1.7 1.6 1.6 0 0 1-1.7-1.7 1.6 1.6 0 0 1-1.7 1.7 1.6 1.6 0 0 1-1.6-1.7 1.9 1.9 0 0 1 .3-1 5.8 5.8 0 0 1 3-2.3 5.8 5.8 0 0 1 3 2.3 1.9 1.9 0 0 1 .3 1zm31 32a1.6 1.6 0 0 1-1.6 1.7 1.6 1.6 0 0 1-1.7-1.7 1.6 1.6 0 0 1-1.7 1.7 1.6 1.6 0 0 1-1.6-1.7 1.9 1.9 0 0 1 .3-1 5.8 5.8 0 0 1 3-2.3 5.8 5.8 0 0 1 3 2.3 1.9 1.9 0 0 1 .3 1zm-9 5a1.6 1.6 0 0 1-1.6 1.7 1.6 1.6 0 0 1-1.7-1.7 1.6 1.6 0 0 1-1.7 1.7 1.6 1.6 0 0 1-1.6-1.7 1.9 1.9 0 0 1 .3-1 5.8 5.8 0 0 1 3-2.3 5.8 5.8 0 0 1 3 2.3 1.9 1.9 0 0 1 .3 1zm19-26a1.6 1.6 0 0 1-1.6 1.7 1.6 1.6 0 0 1-1.7-1.7 1.6 1.6 0 0 1-1.7 1.7 1.6 1.6 0 0 1-1.6-1.7 1.9 1.9 0 0 1 .3-1 5.8 5.8 0 0 1 3-2.3 5.8 5.8 0 0 1 3 2.3 1.9 1.9 0 0 1 .3 1zm-3-11a1.6 1.6 0 0 1-1.6 1.7 1.6 1.6 0 0 1-1.7-1.7 1.6 1.6 0 0 1-1.7 1.7 1.6 1.6 0 0 1-1.6-1.7 1.9 1.9 0 0 1 .3-1 5.8 5.8 0 0 1 3-2.3 5.8 5.8 0 0 1 3 2.3 1.9 1.9 0 0 1 .3 1zm2 40a1.6 1.6 0 0 1-1.6 1.7 1.6 1.6 0 0 1-1.7-1.7 1.6 1.6 0 0 1-1.7 1.7 1.6 1.6 0 0 1-1.6-1.7 1.9 1.9 0 0 1 .3-1 5.8 5.8 0 0 1 3-2.3 5.8 5.8 0 0 1 3 2.3 1.9 1.9 0 0 1 .3 1zm-29-7a1.6 1.6 0 0 1-1.6 1.7 1.6 1.6 0 0 1-1.7-1.7 1.6 1.6 0 0 1-1.7 1.7 1.6 1.6 0 0 1-1.6-1.7 1.9 1.9 0 0 1 .3-1 5.8 5.8 0 0 1 3-2.3 5.8 5.8 0 0 1 3 2.3 1.9 1.9 0 0 1 .3 1zm-2-20a1.6 1.6 0 0 1-1.6 1.7 1.6 1.6 0 0 1-1.7-1.7 1.6 1.6 0 0 1-1.7 1.7 1.6 1.6 0 0 1-1.6-1.7 1.9 1.9 0 0 1 .3-1 5.8 5.8 0 0 1 3-2.3 5.8 5.8 0 0 1 3 2.3 1.9 1.9 0 0 1 .3 1z"/></g></pattern><pattern id="j" width="62" height="62" patternTransform="matrix(.59 0 0 -.59 18.6 -1.43)" patternUnits="userSpaceOnUse" viewBox="0 0 62 62"><path fill="none" d="M0 0h62v62H0z"/><g clip-path="url(#a)"><path fill="#ff87dc" d="M29.4 17.7a2.3 2.3 0 1 0-3.8-2.5 2.2 2.2 0 1 0-3.7-2.5 2.3 2.3 0 0 0-.4 1.4 7.7 7.7 0 0 0 1.6 4.8 7.6 7.6 0 0 0 5.1-.4 2 2 0 0 0 1.2-.8zm-4.3 31.2a2.2 2.2 0 0 0-2.7-1.6 2.3 2.3 0 0 0-1.7 2.7 2.2 2.2 0 0 0-4.3 1.1 2.4 2.4 0 0 0 .7 1.2 7.6 7.6 0 0 0 4.7 2.1 7.7 7.7 0 0 0 3.2-4 2.6 2.6 0 0 0 .1-1.5zm8 5a2.2 2.2 0 0 0-2.7-1.6 2.3 2.3 0 0 0-1.7 2.7 2.2 2.2 0 0 0-4.3 1.1 2.4 2.4 0 0 0 .7 1.2 7.6 7.6 0 0 0 4.7 2.1 7.7 7.7 0 0 0 3.2-4 2.6 2.6 0 0 0 .1-1.5zM60 43.7a1.6 1.6 0 0 0-1.9-1.2 1.7 1.7 0 0 0-1.3 2 1.6 1.6 0 1 0-3.1.8 1.1 1.1 0 0 0 .5.9 6 6 0 0 0 3.4 1.5 5.7 5.7 0 0 0 2.4-3 1.7 1.7 0 0 0 0-1zm0-14a1.6 1.6 0 0 0-1.9-1.2 1.7 1.7 0 0 0-1.3 2 1.6 1.6 0 1 0-3.1.8 1.1 1.1 0 0 0 .5.9 6 6 0 0 0 3.4 1.5 5.7 5.7 0 0 0 2.4-3 1.7 1.7 0 0 0 0-1zm-40 0a1.6 1.6 0 0 0-1.9-1.2 1.7 1.7 0 0 0-1.3 2 1.6 1.6 0 1 0-3.1.8 1.1 1.1 0 0 0 .5.9 6 6 0 0 0 3.4 1.5 5.7 5.7 0 0 0 2.4-3 1.7 1.7 0 0 0 0-1zm23.1-9.8a2.2 2.2 0 0 0-2.7-1.6 2.3 2.3 0 0 0-1.7 2.7 2.2 2.2 0 1 0-4.3 1.1 2.4 2.4 0 0 0 .7 1.2 7.6 7.6 0 0 0 4.7 2.1 7.7 7.7 0 0 0 3.2-4 2.6 2.6 0 0 0 .1-1.5zm-30 33a2.2 2.2 0 0 0-2.7-1.6A2.3 2.3 0 0 0 8.7 54a2.2 2.2 0 0 0-4.3 1.1 2.4 2.4 0 0 0 .7 1.2 7.6 7.6 0 0 0 4.7 2.1 7.7 7.7 0 0 0 3.2-4 2.6 2.6 0 0 0 .1-1.5zm42-30a2.2 2.2 0 0 0-2.7-1.6 2.3 2.3 0 0 0-1.7 2.7 2.2 2.2 0 0 0-4.3 1.1 2.4 2.4 0 0 0 .7 1.2 7.6 7.6 0 0 0 4.7 2.1 7.7 7.7 0 0 0 3.2-4 2.6 2.6 0 0 0 .1-1.5zm4-15a2.2 2.2 0 0 0-2.7-1.6A2.3 2.3 0 0 0 54.7 9a2.2 2.2 0 1 0-4.3 1.1 2.4 2.4 0 0 0 .7 1.2 7.6 7.6 0 0 0 4.7 2.1 7.7 7.7 0 0 0 3.2-4 2.6 2.6 0 0 0 .1-1.5zm0 45a2.2 2.2 0 0 0-2.7-1.6 2.3 2.3 0 0 0-1.7 2.7 2.2 2.2 0 1 0-4.3 1.1 2.4 2.4 0 0 0 .7 1.2 7.6 7.6 0 0 0 4.7 2.1 7.7 7.7 0 0 0 3.2-4 2.6 2.6 0 0 0 .1-1.5zm-18-43a2.2 2.2 0 0 0-2.7-1.6 2.3 2.3 0 0 0-1.7 2.7 2.2 2.2 0 0 0-4.3 1.1 2.4 2.4 0 0 0 .7 1.2 7.6 7.6 0 0 0 4.7 2.1 7.7 7.7 0 0 0 3.2-4 2.6 2.6 0 0 0 .1-1.5zM12.4 25.3a2.4 2.4 0 0 0-2.8-1.9 2.5 2.5 0 0 0-1.3 3.1 2.4 2.4 0 0 0-2.8-1.9 2.4 2.4 0 0 0-1.4 3.1 3.4 3.4 0 0 0 .9 1.4 7.9 7.9 0 0 0 4.7 2.3 7.7 7.7 0 0 0 2.7-4.5 2.2 2.2 0 0 0 0-1.6zm10-21a2.4 2.4 0 0 0-2.8-1.9 2.5 2.5 0 0 0-1.3 3.1 2.4 2.4 0 0 0-2.8-1.9 2.4 2.4 0 0 0-1.4 3.1 3.4 3.4 0 0 0 .9 1.4 7.9 7.9 0 0 0 4.7 2.3 7.7 7.7 0 0 0 2.7-4.5 2.2 2.2 0 0 0 0-1.6z"/><path fill="#ffdaf7" d="M53.4 35.4a2.2 2.2 0 0 0-3-1.1 2.3 2.3 0 0 0-.5 3.2 2.2 2.2 0 0 0-3-1.1 2.3 2.3 0 0 0-.6 3.1 2.5 2.5 0 0 0 1.2 1.1 7.1 7.1 0 0 0 4.9 1 7.1 7.1 0 0 0 1.4-4.7 2.6 2.6 0 0 0-.4-1.5zm7-21a2.2 2.2 0 0 0-3-1.1 2.3 2.3 0 0 0-.5 3.2 2.2 2.2 0 0 0-3-1.1 2.3 2.3 0 0 0-.6 3.1 2.5 2.5 0 0 0 1.2 1.1 7.1 7.1 0 0 0 4.9 1 7.1 7.1 0 0 0 1.4-4.7 2.6 2.6 0 0 0-.4-1.5zM34.8 6.5a2.3 2.3 0 0 0-1.3-2.9 2.2 2.2 0 0 0-2.7 1.7 2.2 2.2 0 0 0-1.3-2.9 2.3 2.3 0 0 0-2.6 1.8 2.6 2.6 0 0 0 0 1.5 7.2 7.2 0 0 0 2.6 4.3A7.6 7.6 0 0 0 34 7.8a5.7 5.7 0 0 0 .8-1.3zM9.4 12.4a2.2 2.2 0 0 0-3-1.1 2.3 2.3 0 0 0-.5 3.2 2.2 2.2 0 0 0-3-1.1 2.3 2.3 0 0 0-.6 3.1 2.5 2.5 0 0 0 1.2 1.1 7.1 7.1 0 0 0 4.9 1 7.1 7.1 0 0 0 1.4-4.7 2.6 2.6 0 0 0-.4-1.5z"/><path fill="#fa3ab1" d="M36.5 28.3a3.5 3.5 0 1 0-7 0 3.5 3.5 0 1 0-7 0 4 4 0 0 0 .7 2.1c1.4 2.5 4.4 4.2 6.3 4.9s4.9-2.4 6.3-4.9a4 4 0 0 0 .7-2.1z"/><path fill="#ffdaf7" d="M5.5 38.3a2.4 2.4 0 0 1 3.1-1 2.2 2.2 0 0 1 .5 3.1 2.4 2.4 0 0 1 3.1-1 2.2 2.2 0 0 1 .5 3.1 2.9 2.9 0 0 1-1.1 1.1 8.3 8.3 0 0 1-5 1.1 7.7 7.7 0 0 1-1.4-4.9 2.7 2.7 0 0 1 .3-1.5zm30 10a2.4 2.4 0 0 1 3.1-1 2.2 2.2 0 0 1 .5 3.1 2.4 2.4 0 0 1 3.1-1 2.2 2.2 0 0 1 .5 3.1 2.9 2.9 0 0 1-1.1 1.1 8.3 8.3 0 0 1-5 1.1 7.7 7.7 0 0 1-1.4-4.9 2.7 2.7 0 0 1 .3-1.5z"/><path fill="#fa3ab1" d="M10.8 6.8a1.6 1.6 0 0 1-1.6 1.7 1.6 1.6 0 0 1-1.7-1.7 1.6 1.6 0 0 1-1.7 1.7 1.6 1.6 0 0 1-1.6-1.7 1.9 1.9 0 0 1 .3-1 5.8 5.8 0 0 1 3-2.3 5.8 5.8 0 0 1 3 2.3 1.9 1.9 0 0 1 .3 1zm31 32a1.6 1.6 0 0 1-1.6 1.7 1.6 1.6 0 0 1-1.7-1.7 1.6 1.6 0 0 1-1.7 1.7 1.6 1.6 0 0 1-1.6-1.7 1.9 1.9 0 0 1 .3-1 5.8 5.8 0 0 1 3-2.3 5.8 5.8 0 0 1 3 2.3 1.9 1.9 0 0 1 .3 1zm-9 5a1.6 1.6 0 0 1-1.6 1.7 1.6 1.6 0 0 1-1.7-1.7 1.6 1.6 0 0 1-1.7 1.7 1.6 1.6 0 0 1-1.6-1.7 1.9 1.9 0 0 1 .3-1 5.8 5.8 0 0 1 3-2.3 5.8 5.8 0 0 1 3 2.3 1.9 1.9 0 0 1 .3 1zm19-26a1.6 1.6 0 0 1-1.6 1.7 1.6 1.6 0 0 1-1.7-1.7 1.6 1.6 0 0 1-1.7 1.7 1.6 1.6 0 0 1-1.6-1.7 1.9 1.9 0 0 1 .3-1 5.8 5.8 0 0 1 3-2.3 5.8 5.8 0 0 1 3 2.3 1.9 1.9 0 0 1 .3 1zm-3-11a1.6 1.6 0 0 1-1.6 1.7 1.6 1.6 0 0 1-1.7-1.7 1.6 1.6 0 0 1-1.7 1.7 1.6 1.6 0 0 1-1.6-1.7 1.9 1.9 0 0 1 .3-1 5.8 5.8 0 0 1 3-2.3 5.8 5.8 0 0 1 3 2.3 1.9 1.9 0 0 1 .3 1zm2 40a1.6 1.6 0 0 1-1.6 1.7 1.6 1.6 0 0 1-1.7-1.7 1.6 1.6 0 0 1-1.7 1.7 1.6 1.6 0 0 1-1.6-1.7 1.9 1.9 0 0 1 .3-1 5.8 5.8 0 0 1 3-2.3 5.8 5.8 0 0 1 3 2.3 1.9 1.9 0 0 1 .3 1zm-29-7a1.6 1.6 0 0 1-1.6 1.7 1.6 1.6 0 0 1-1.7-1.7 1.6 1.6 0 0 1-1.7 1.7 1.6 1.6 0 0 1-1.6-1.7 1.9 1.9 0 0 1 .3-1 5.8 5.8 0 0 1 3-2.3 5.8 5.8 0 0 1 3 2.3 1.9 1.9 0 0 1 .3 1zm-2-20a1.6 1.6 0 0 1-1.6 1.7 1.6 1.6 0 0 1-1.7-1.7 1.6 1.6 0 0 1-1.7 1.7 1.6 1.6 0 0 1-1.6-1.7 1.9 1.9 0 0 1 .3-1 5.8 5.8 0 0 1 3-2.3 5.8 5.8 0 0 1 3 2.3 1.9 1.9 0 0 1 .3 1z"/></g></pattern><pattern id="k" width="62" height="62" patternTransform="matrix(.59 0 0 -.59 18.6 -30.44)" patternUnits="userSpaceOnUse" viewBox="0 0 62 62"><path fill="none" d="M0 0h62v62H0z"/><g clip-path="url(#a)"><path fill="#ff87dc" d="M29.4 17.7a2.3 2.3 0 1 0-3.8-2.5 2.2 2.2 0 1 0-3.7-2.5 2.3 2.3 0 0 0-.4 1.4 7.7 7.7 0 0 0 1.6 4.8 7.6 7.6 0 0 0 5.1-.4 2 2 0 0 0 1.2-.8zm-4.3 31.2a2.2 2.2 0 0 0-2.7-1.6 2.3 2.3 0 0 0-1.7 2.7 2.2 2.2 0 0 0-4.3 1.1 2.4 2.4 0 0 0 .7 1.2 7.6 7.6 0 0 0 4.7 2.1 7.7 7.7 0 0 0 3.2-4 2.6 2.6 0 0 0 .1-1.5zm8 5a2.2 2.2 0 0 0-2.7-1.6 2.3 2.3 0 0 0-1.7 2.7 2.2 2.2 0 0 0-4.3 1.1 2.4 2.4 0 0 0 .7 1.2 7.6 7.6 0 0 0 4.7 2.1 7.7 7.7 0 0 0 3.2-4 2.6 2.6 0 0 0 .1-1.5zM60 43.7a1.6 1.6 0 0 0-1.9-1.2 1.7 1.7 0 0 0-1.3 2 1.6 1.6 0 1 0-3.1.8 1.1 1.1 0 0 0 .5.9 6 6 0 0 0 3.4 1.5 5.7 5.7 0 0 0 2.4-3 1.7 1.7 0 0 0 0-1zm0-14a1.6 1.6 0 0 0-1.9-1.2 1.7 1.7 0 0 0-1.3 2 1.6 1.6 0 1 0-3.1.8 1.1 1.1 0 0 0 .5.9 6 6 0 0 0 3.4 1.5 5.7 5.7 0 0 0 2.4-3 1.7 1.7 0 0 0 0-1zm-40 0a1.6 1.6 0 0 0-1.9-1.2 1.7 1.7 0 0 0-1.3 2 1.6 1.6 0 1 0-3.1.8 1.1 1.1 0 0 0 .5.9 6 6 0 0 0 3.4 1.5 5.7 5.7 0 0 0 2.4-3 1.7 1.7 0 0 0 0-1zm23.1-9.8a2.2 2.2 0 0 0-2.7-1.6 2.3 2.3 0 0 0-1.7 2.7 2.2 2.2 0 1 0-4.3 1.1 2.4 2.4 0 0 0 .7 1.2 7.6 7.6 0 0 0 4.7 2.1 7.7 7.7 0 0 0 3.2-4 2.6 2.6 0 0 0 .1-1.5zm-30 33a2.2 2.2 0 0 0-2.7-1.6A2.3 2.3 0 0 0 8.7 54a2.2 2.2 0 0 0-4.3 1.1 2.4 2.4 0 0 0 .7 1.2 7.6 7.6 0 0 0 4.7 2.1 7.7 7.7 0 0 0 3.2-4 2.6 2.6 0 0 0 .1-1.5zm42-30a2.2 2.2 0 0 0-2.7-1.6 2.3 2.3 0 0 0-1.7 2.7 2.2 2.2 0 0 0-4.3 1.1 2.4 2.4 0 0 0 .7 1.2 7.6 7.6 0 0 0 4.7 2.1 7.7 7.7 0 0 0 3.2-4 2.6 2.6 0 0 0 .1-1.5zm4-15a2.2 2.2 0 0 0-2.7-1.6A2.3 2.3 0 0 0 54.7 9a2.2 2.2 0 1 0-4.3 1.1 2.4 2.4 0 0 0 .7 1.2 7.6 7.6 0 0 0 4.7 2.1 7.7 7.7 0 0 0 3.2-4 2.6 2.6 0 0 0 .1-1.5zm0 45a2.2 2.2 0 0 0-2.7-1.6 2.3 2.3 0 0 0-1.7 2.7 2.2 2.2 0 1 0-4.3 1.1 2.4 2.4 0 0 0 .7 1.2 7.6 7.6 0 0 0 4.7 2.1 7.7 7.7 0 0 0 3.2-4 2.6 2.6 0 0 0 .1-1.5zm-18-43a2.2 2.2 0 0 0-2.7-1.6 2.3 2.3 0 0 0-1.7 2.7 2.2 2.2 0 0 0-4.3 1.1 2.4 2.4 0 0 0 .7 1.2 7.6 7.6 0 0 0 4.7 2.1 7.7 7.7 0 0 0 3.2-4 2.6 2.6 0 0 0 .1-1.5zM12.4 25.3a2.4 2.4 0 0 0-2.8-1.9 2.5 2.5 0 0 0-1.3 3.1 2.4 2.4 0 0 0-2.8-1.9 2.4 2.4 0 0 0-1.4 3.1 3.4 3.4 0 0 0 .9 1.4 7.9 7.9 0 0 0 4.7 2.3 7.7 7.7 0 0 0 2.7-4.5 2.2 2.2 0 0 0 0-1.6zm10-21a2.4 2.4 0 0 0-2.8-1.9 2.5 2.5 0 0 0-1.3 3.1 2.4 2.4 0 0 0-2.8-1.9 2.4 2.4 0 0 0-1.4 3.1 3.4 3.4 0 0 0 .9 1.4 7.9 7.9 0 0 0 4.7 2.3 7.7 7.7 0 0 0 2.7-4.5 2.2 2.2 0 0 0 0-1.6z"/><path fill="#ffdaf7" d="M53.4 35.4a2.2 2.2 0 0 0-3-1.1 2.3 2.3 0 0 0-.5 3.2 2.2 2.2 0 0 0-3-1.1 2.3 2.3 0 0 0-.6 3.1 2.5 2.5 0 0 0 1.2 1.1 7.1 7.1 0 0 0 4.9 1 7.1 7.1 0 0 0 1.4-4.7 2.6 2.6 0 0 0-.4-1.5zm7-21a2.2 2.2 0 0 0-3-1.1 2.3 2.3 0 0 0-.5 3.2 2.2 2.2 0 0 0-3-1.1 2.3 2.3 0 0 0-.6 3.1 2.5 2.5 0 0 0 1.2 1.1 7.1 7.1 0 0 0 4.9 1 7.1 7.1 0 0 0 1.4-4.7 2.6 2.6 0 0 0-.4-1.5zM34.8 6.5a2.3 2.3 0 0 0-1.3-2.9 2.2 2.2 0 0 0-2.7 1.7 2.2 2.2 0 0 0-1.3-2.9 2.3 2.3 0 0 0-2.6 1.8 2.6 2.6 0 0 0 0 1.5 7.2 7.2 0 0 0 2.6 4.3A7.6 7.6 0 0 0 34 7.8a5.7 5.7 0 0 0 .8-1.3zM9.4 12.4a2.2 2.2 0 0 0-3-1.1 2.3 2.3 0 0 0-.5 3.2 2.2 2.2 0 0 0-3-1.1 2.3 2.3 0 0 0-.6 3.1 2.5 2.5 0 0 0 1.2 1.1 7.1 7.1 0 0 0 4.9 1 7.1 7.1 0 0 0 1.4-4.7 2.6 2.6 0 0 0-.4-1.5z"/><path fill="#fa3ab1" d="M36.5 28.3a3.5 3.5 0 1 0-7 0 3.5 3.5 0 1 0-7 0 4 4 0 0 0 .7 2.1c1.4 2.5 4.4 4.2 6.3 4.9s4.9-2.4 6.3-4.9a4 4 0 0 0 .7-2.1z"/><path fill="#ffdaf7" d="M5.5 38.3a2.4 2.4 0 0 1 3.1-1 2.2 2.2 0 0 1 .5 3.1 2.4 2.4 0 0 1 3.1-1 2.2 2.2 0 0 1 .5 3.1 2.9 2.9 0 0 1-1.1 1.1 8.3 8.3 0 0 1-5 1.1 7.7 7.7 0 0 1-1.4-4.9 2.7 2.7 0 0 1 .3-1.5zm30 10a2.4 2.4 0 0 1 3.1-1 2.2 2.2 0 0 1 .5 3.1 2.4 2.4 0 0 1 3.1-1 2.2 2.2 0 0 1 .5 3.1 2.9 2.9 0 0 1-1.1 1.1 8.3 8.3 0 0 1-5 1.1 7.7 7.7 0 0 1-1.4-4.9 2.7 2.7 0 0 1 .3-1.5z"/><path fill="#fa3ab1" d="M10.8 6.8a1.6 1.6 0 0 1-1.6 1.7 1.6 1.6 0 0 1-1.7-1.7 1.6 1.6 0 0 1-1.7 1.7 1.6 1.6 0 0 1-1.6-1.7 1.9 1.9 0 0 1 .3-1 5.8 5.8 0 0 1 3-2.3 5.8 5.8 0 0 1 3 2.3 1.9 1.9 0 0 1 .3 1zm31 32a1.6 1.6 0 0 1-1.6 1.7 1.6 1.6 0 0 1-1.7-1.7 1.6 1.6 0 0 1-1.7 1.7 1.6 1.6 0 0 1-1.6-1.7 1.9 1.9 0 0 1 .3-1 5.8 5.8 0 0 1 3-2.3 5.8 5.8 0 0 1 3 2.3 1.9 1.9 0 0 1 .3 1zm-9 5a1.6 1.6 0 0 1-1.6 1.7 1.6 1.6 0 0 1-1.7-1.7 1.6 1.6 0 0 1-1.7 1.7 1.6 1.6 0 0 1-1.6-1.7 1.9 1.9 0 0 1 .3-1 5.8 5.8 0 0 1 3-2.3 5.8 5.8 0 0 1 3 2.3 1.9 1.9 0 0 1 .3 1zm19-26a1.6 1.6 0 0 1-1.6 1.7 1.6 1.6 0 0 1-1.7-1.7 1.6 1.6 0 0 1-1.7 1.7 1.6 1.6 0 0 1-1.6-1.7 1.9 1.9 0 0 1 .3-1 5.8 5.8 0 0 1 3-2.3 5.8 5.8 0 0 1 3 2.3 1.9 1.9 0 0 1 .3 1zm-3-11a1.6 1.6 0 0 1-1.6 1.7 1.6 1.6 0 0 1-1.7-1.7 1.6 1.6 0 0 1-1.7 1.7 1.6 1.6 0 0 1-1.6-1.7 1.9 1.9 0 0 1 .3-1 5.8 5.8 0 0 1 3-2.3 5.8 5.8 0 0 1 3 2.3 1.9 1.9 0 0 1 .3 1zm2 40a1.6 1.6 0 0 1-1.6 1.7 1.6 1.6 0 0 1-1.7-1.7 1.6 1.6 0 0 1-1.7 1.7 1.6 1.6 0 0 1-1.6-1.7 1.9 1.9 0 0 1 .3-1 5.8 5.8 0 0 1 3-2.3 5.8 5.8 0 0 1 3 2.3 1.9 1.9 0 0 1 .3 1zm-29-7a1.6 1.6 0 0 1-1.6 1.7 1.6 1.6 0 0 1-1.7-1.7 1.6 1.6 0 0 1-1.7 1.7 1.6 1.6 0 0 1-1.6-1.7 1.9 1.9 0 0 1 .3-1 5.8 5.8 0 0 1 3-2.3 5.8 5.8 0 0 1 3 2.3 1.9 1.9 0 0 1 .3 1zm-2-20a1.6 1.6 0 0 1-1.6 1.7 1.6 1.6 0 0 1-1.7-1.7 1.6 1.6 0 0 1-1.7 1.7 1.6 1.6 0 0 1-1.6-1.7 1.9 1.9 0 0 1 .3-1 5.8 5.8 0 0 1 3-2.3 5.8 5.8 0 0 1 3 2.3 1.9 1.9 0 0 1 .3 1z"/></g></pattern><pattern id="l" width="62" height="62" patternTransform="matrix(.59 0 0 -.59 18.6 10.16)" patternUnits="userSpaceOnUse" viewBox="0 0 62 62"><path fill="none" d="M0 0h62v62H0z"/><g clip-path="url(#a)"><path fill="#ff87dc" d="M29.4 17.7a2.3 2.3 0 1 0-3.8-2.5 2.2 2.2 0 1 0-3.7-2.5 2.3 2.3 0 0 0-.4 1.4 7.7 7.7 0 0 0 1.6 4.8 7.6 7.6 0 0 0 5.1-.4 2 2 0 0 0 1.2-.8zm-4.3 31.2a2.2 2.2 0 0 0-2.7-1.6 2.3 2.3 0 0 0-1.7 2.7 2.2 2.2 0 0 0-4.3 1.1 2.4 2.4 0 0 0 .7 1.2 7.6 7.6 0 0 0 4.7 2.1 7.7 7.7 0 0 0 3.2-4 2.6 2.6 0 0 0 .1-1.5zm8 5a2.2 2.2 0 0 0-2.7-1.6 2.3 2.3 0 0 0-1.7 2.7 2.2 2.2 0 0 0-4.3 1.1 2.4 2.4 0 0 0 .7 1.2 7.6 7.6 0 0 0 4.7 2.1 7.7 7.7 0 0 0 3.2-4 2.6 2.6 0 0 0 .1-1.5zM60 43.7a1.6 1.6 0 0 0-1.9-1.2 1.7 1.7 0 0 0-1.3 2 1.6 1.6 0 1 0-3.1.8 1.1 1.1 0 0 0 .5.9 6 6 0 0 0 3.4 1.5 5.7 5.7 0 0 0 2.4-3 1.7 1.7 0 0 0 0-1zm0-14a1.6 1.6 0 0 0-1.9-1.2 1.7 1.7 0 0 0-1.3 2 1.6 1.6 0 1 0-3.1.8 1.1 1.1 0 0 0 .5.9 6 6 0 0 0 3.4 1.5 5.7 5.7 0 0 0 2.4-3 1.7 1.7 0 0 0 0-1zm-40 0a1.6 1.6 0 0 0-1.9-1.2 1.7 1.7 0 0 0-1.3 2 1.6 1.6 0 1 0-3.1.8 1.1 1.1 0 0 0 .5.9 6 6 0 0 0 3.4 1.5 5.7 5.7 0 0 0 2.4-3 1.7 1.7 0 0 0 0-1zm23.1-9.8a2.2 2.2 0 0 0-2.7-1.6 2.3 2.3 0 0 0-1.7 2.7 2.2 2.2 0 1 0-4.3 1.1 2.4 2.4 0 0 0 .7 1.2 7.6 7.6 0 0 0 4.7 2.1 7.7 7.7 0 0 0 3.2-4 2.6 2.6 0 0 0 .1-1.5zm-30 33a2.2 2.2 0 0 0-2.7-1.6A2.3 2.3 0 0 0 8.7 54a2.2 2.2 0 0 0-4.3 1.1 2.4 2.4 0 0 0 .7 1.2 7.6 7.6 0 0 0 4.7 2.1 7.7 7.7 0 0 0 3.2-4 2.6 2.6 0 0 0 .1-1.5zm42-30a2.2 2.2 0 0 0-2.7-1.6 2.3 2.3 0 0 0-1.7 2.7 2.2 2.2 0 0 0-4.3 1.1 2.4 2.4 0 0 0 .7 1.2 7.6 7.6 0 0 0 4.7 2.1 7.7 7.7 0 0 0 3.2-4 2.6 2.6 0 0 0 .1-1.5zm4-15a2.2 2.2 0 0 0-2.7-1.6A2.3 2.3 0 0 0 54.7 9a2.2 2.2 0 1 0-4.3 1.1 2.4 2.4 0 0 0 .7 1.2 7.6 7.6 0 0 0 4.7 2.1 7.7 7.7 0 0 0 3.2-4 2.6 2.6 0 0 0 .1-1.5zm0 45a2.2 2.2 0 0 0-2.7-1.6 2.3 2.3 0 0 0-1.7 2.7 2.2 2.2 0 1 0-4.3 1.1 2.4 2.4 0 0 0 .7 1.2 7.6 7.6 0 0 0 4.7 2.1 7.7 7.7 0 0 0 3.2-4 2.6 2.6 0 0 0 .1-1.5zm-18-43a2.2 2.2 0 0 0-2.7-1.6 2.3 2.3 0 0 0-1.7 2.7 2.2 2.2 0 0 0-4.3 1.1 2.4 2.4 0 0 0 .7 1.2 7.6 7.6 0 0 0 4.7 2.1 7.7 7.7 0 0 0 3.2-4 2.6 2.6 0 0 0 .1-1.5zM12.4 25.3a2.4 2.4 0 0 0-2.8-1.9 2.5 2.5 0 0 0-1.3 3.1 2.4 2.4 0 0 0-2.8-1.9 2.4 2.4 0 0 0-1.4 3.1 3.4 3.4 0 0 0 .9 1.4 7.9 7.9 0 0 0 4.7 2.3 7.7 7.7 0 0 0 2.7-4.5 2.2 2.2 0 0 0 0-1.6zm10-21a2.4 2.4 0 0 0-2.8-1.9 2.5 2.5 0 0 0-1.3 3.1 2.4 2.4 0 0 0-2.8-1.9 2.4 2.4 0 0 0-1.4 3.1 3.4 3.4 0 0 0 .9 1.4 7.9 7.9 0 0 0 4.7 2.3 7.7 7.7 0 0 0 2.7-4.5 2.2 2.2 0 0 0 0-1.6z"/><path fill="#ffdaf7" d="M53.4 35.4a2.2 2.2 0 0 0-3-1.1 2.3 2.3 0 0 0-.5 3.2 2.2 2.2 0 0 0-3-1.1 2.3 2.3 0 0 0-.6 3.1 2.5 2.5 0 0 0 1.2 1.1 7.1 7.1 0 0 0 4.9 1 7.1 7.1 0 0 0 1.4-4.7 2.6 2.6 0 0 0-.4-1.5zm7-21a2.2 2.2 0 0 0-3-1.1 2.3 2.3 0 0 0-.5 3.2 2.2 2.2 0 0 0-3-1.1 2.3 2.3 0 0 0-.6 3.1 2.5 2.5 0 0 0 1.2 1.1 7.1 7.1 0 0 0 4.9 1 7.1 7.1 0 0 0 1.4-4.7 2.6 2.6 0 0 0-.4-1.5zM34.8 6.5a2.3 2.3 0 0 0-1.3-2.9 2.2 2.2 0 0 0-2.7 1.7 2.2 2.2 0 0 0-1.3-2.9 2.3 2.3 0 0 0-2.6 1.8 2.6 2.6 0 0 0 0 1.5 7.2 7.2 0 0 0 2.6 4.3A7.6 7.6 0 0 0 34 7.8a5.7 5.7 0 0 0 .8-1.3zM9.4 12.4a2.2 2.2 0 0 0-3-1.1 2.3 2.3 0 0 0-.5 3.2 2.2 2.2 0 0 0-3-1.1 2.3 2.3 0 0 0-.6 3.1 2.5 2.5 0 0 0 1.2 1.1 7.1 7.1 0 0 0 4.9 1 7.1 7.1 0 0 0 1.4-4.7 2.6 2.6 0 0 0-.4-1.5z"/><path fill="#fa3ab1" d="M36.5 28.3a3.5 3.5 0 1 0-7 0 3.5 3.5 0 1 0-7 0 4 4 0 0 0 .7 2.1c1.4 2.5 4.4 4.2 6.3 4.9s4.9-2.4 6.3-4.9a4 4 0 0 0 .7-2.1z"/><path fill="#ffdaf7" d="M5.5 38.3a2.4 2.4 0 0 1 3.1-1 2.2 2.2 0 0 1 .5 3.1 2.4 2.4 0 0 1 3.1-1 2.2 2.2 0 0 1 .5 3.1 2.9 2.9 0 0 1-1.1 1.1 8.3 8.3 0 0 1-5 1.1 7.7 7.7 0 0 1-1.4-4.9 2.7 2.7 0 0 1 .3-1.5zm30 10a2.4 2.4 0 0 1 3.1-1 2.2 2.2 0 0 1 .5 3.1 2.4 2.4 0 0 1 3.1-1 2.2 2.2 0 0 1 .5 3.1 2.9 2.9 0 0 1-1.1 1.1 8.3 8.3 0 0 1-5 1.1 7.7 7.7 0 0 1-1.4-4.9 2.7 2.7 0 0 1 .3-1.5z"/><path fill="#fa3ab1" d="M10.8 6.8a1.6 1.6 0 0 1-1.6 1.7 1.6 1.6 0 0 1-1.7-1.7 1.6 1.6 0 0 1-1.7 1.7 1.6 1.6 0 0 1-1.6-1.7 1.9 1.9 0 0 1 .3-1 5.8 5.8 0 0 1 3-2.3 5.8 5.8 0 0 1 3 2.3 1.9 1.9 0 0 1 .3 1zm31 32a1.6 1.6 0 0 1-1.6 1.7 1.6 1.6 0 0 1-1.7-1.7 1.6 1.6 0 0 1-1.7 1.7 1.6 1.6 0 0 1-1.6-1.7 1.9 1.9 0 0 1 .3-1 5.8 5.8 0 0 1 3-2.3 5.8 5.8 0 0 1 3 2.3 1.9 1.9 0 0 1 .3 1zm-9 5a1.6 1.6 0 0 1-1.6 1.7 1.6 1.6 0 0 1-1.7-1.7 1.6 1.6 0 0 1-1.7 1.7 1.6 1.6 0 0 1-1.6-1.7 1.9 1.9 0 0 1 .3-1 5.8 5.8 0 0 1 3-2.3 5.8 5.8 0 0 1 3 2.3 1.9 1.9 0 0 1 .3 1zm19-26a1.6 1.6 0 0 1-1.6 1.7 1.6 1.6 0 0 1-1.7-1.7 1.6 1.6 0 0 1-1.7 1.7 1.6 1.6 0 0 1-1.6-1.7 1.9 1.9 0 0 1 .3-1 5.8 5.8 0 0 1 3-2.3 5.8 5.8 0 0 1 3 2.3 1.9 1.9 0 0 1 .3 1zm-3-11a1.6 1.6 0 0 1-1.6 1.7 1.6 1.6 0 0 1-1.7-1.7 1.6 1.6 0 0 1-1.7 1.7 1.6 1.6 0 0 1-1.6-1.7 1.9 1.9 0 0 1 .3-1 5.8 5.8 0 0 1 3-2.3 5.8 5.8 0 0 1 3 2.3 1.9 1.9 0 0 1 .3 1zm2 40a1.6 1.6 0 0 1-1.6 1.7 1.6 1.6 0 0 1-1.7-1.7 1.6 1.6 0 0 1-1.7 1.7 1.6 1.6 0 0 1-1.6-1.7 1.9 1.9 0 0 1 .3-1 5.8 5.8 0 0 1 3-2.3 5.8 5.8 0 0 1 3 2.3 1.9 1.9 0 0 1 .3 1zm-29-7a1.6 1.6 0 0 1-1.6 1.7 1.6 1.6 0 0 1-1.7-1.7 1.6 1.6 0 0 1-1.7 1.7 1.6 1.6 0 0 1-1.6-1.7 1.9 1.9 0 0 1 .3-1 5.8 5.8 0 0 1 3-2.3 5.8 5.8 0 0 1 3 2.3 1.9 1.9 0 0 1 .3 1zm-2-20a1.6 1.6 0 0 1-1.6 1.7 1.6 1.6 0 0 1-1.7-1.7 1.6 1.6 0 0 1-1.7 1.7 1.6 1.6 0 0 1-1.6-1.7 1.9 1.9 0 0 1 .3-1 5.8 5.8 0 0 1 3-2.3 5.8 5.8 0 0 1 3 2.3 1.9 1.9 0 0 1 .3 1z"/></g></pattern></defs><g clip-path="url(#b)"><g clip-path="url(#c)"><path fill="#aa7c90" d="M1199.6 287.8c-7.5-76.8-71.6-71.4-89.4-69-46.8 6.2-46.3 86.9-7.2 81.7-26.9-28.6 36.3-57.9 43.2-5.7 2.9 22.2-.2 64-42.7 69.6s-44.3-48.4-92.9-41.9c-21.4 2.8-35.2 22.2-32.4 43.6a39.2 39.2 0 0 0 43.9 33.7c38.5-5.1 44.8 31 90.4 23.5 55.9-7.3 94.8-58.4 87.1-135.5"/><path fill="none" stroke="#843d62" stroke-linecap="round" stroke-linejoin="round" stroke-width="2" d="M1199.6 287.8c-7.5-76.8-71.6-71.4-89.4-69-46.8 6.2-46.3 86.9-7.2 81.7-26.9-28.6 36.3-57.9 43.2-5.7 2.9 22.2-.2 64-42.7 69.6s-44.3-48.4-92.9-41.9c-21.4 2.8-35.2 22.2-32.4 43.6a39.2 39.2 0 0 0 43.9 33.7c38.5-5.1 44.8 31 90.4 23.5 55.9-7.3 94.8-58.4 87.1-135.5z"/><path fill="#f37f7e" d="M1103 300.5c-32.2-19.2-6.4-97.7 53.6-50.2s-6.8 189.3-101.5 129.9c-43-25.7-67.6 26-67.6 26s-36.4-65.1 17.8-82.9 56.5 49.1 100.4 40.8 39.5-53.6 34.4-77-60.2-20.9-37.1 13.4"/><path fill="#843d62" d="M1103 300.5c-22.4-17.2-7.8-65.8 36.3-31.9 54.3 41.6-1.3 146-96 86.6-43.1-25.7-55.8 51-55.8 51s-36.4-65.1 17.8-82.9 56.5 49.1 100.4 40.8 42-59.1 30.7-76.9c-14.1-22.3-52.3-15.3-33.4 13.3"/></g><g clip-path="url(#c)"><path fill="#fbc5ab" d="M1025 481a110 110 0 0 0 13-68.4 111.3 111.3 0 0 0-122.9-96.1 29.2 29.2 0 0 0-23.1-1.7 102.3 102.3 0 0 0-32.6-51.4c36.9-17.1 56.7-61.7 9.7-83.2 5.2 10.1-3.6 56.2-25.3 72.3a102.3 102.3 0 0 0-115.2 9.4c-20.8-.7-40.1-21.2-38.2-47.5-27.4 9.8-15 60.2 23.7 61.9a102.4 102.4 0 0 0-22.7 52.6c-7.4 25.5-4.8 60.5 7.1 95.6-20.1 7-42.5 18.5 11.7 28.5 30.3 62.1 89.9 116 173.9 106.6 11.8 11.9 25.9 31.7 33.4 30.7s12.5-26.8 15.9-42.9a271.8 271.8 0 0 0 39-18.4c9.9-4.3 32.1-21.3 33.7-22.9 17.6.4 30.7-7 34.5-12 2.4-3.1-6.6-8.6-15.6-13.1"/><path fill="none" stroke="#843d62" stroke-linecap="round" stroke-linejoin="round" d="M1025 481a110 110 0 0 0 13-68.4 111.3 111.3 0 0 0-122.9-96.1 29.2 29.2 0 0 0-23.1-1.7 102.3 102.3 0 0 0-32.6-51.4c36.9-17.1 56.7-61.7 9.7-83.2 5.2 10.1-3.6 56.2-25.3 72.3a102.3 102.3 0 0 0-115.2 9.4c-20.8-.7-40.1-21.2-38.2-47.5-27.4 9.8-15 60.2 23.7 61.9a102.4 102.4 0 0 0-22.7 52.6c-7.4 25.5-4.8 60.5 7.1 95.6-20.1 7-42.5 18.5 11.7 28.5 30.3 62.1 89.9 116 173.9 106.6 11.8 11.9 25.9 31.7 33.4 30.7s12.5-26.8 15.9-42.9a271.8 271.8 0 0 0 39-18.4c9.9-4.3 32.1-21.3 33.7-22.9 17.6.4 30.7-7 34.5-12 2.4-3.1-6.6-8.6-15.6-13.1z"/><path fill="#6c6676" d="M817.3 285.3c-1-7.6-5.4-13.2-9.7-12.7s-7.1 7.2-6.1 14.8 5.3 13.3 9.7 12.7 7.1-7.2 6.1-14.8m-99.2 20.8c-.7-5.7-4-10-7.3-9.6s-5.3 5.4-4.6 11.2 4.1 9.9 7.3 9.5 5.4-5.4 4.6-11.1"/><path fill="#f37f7e" d="M870.3 312.4c.7 5.5-8 11.3-19.5 12.8s-21.5-1.8-22.2-7.3 8-11.4 19.5-12.9 21.4 1.8 22.2 7.4m-165 21.7c.5 3.8-5.5 7.8-13.4 8.8s-14.7-1.2-15.2-5 5.5-7.8 13.4-8.8 14.7 1.2 15.2 5"/><path fill="none" stroke="#843d62" stroke-linecap="round" stroke-linejoin="round" d="M790 314.6c-16.1 20.9-41.2 32.1-64.9 14.6"/><path fill="#fbc9c2" d="M760.4 368.9c24-3.2 29.7-46 29.6-54.3-16.5 21.4-38.1 31.8-61.1 17.2 5.4 19.4 10.8 39.8 31.5 37.1"/><path fill="none" stroke="#843d62" stroke-linecap="round" stroke-linejoin="round" d="M760.4 368.9c24-3.2 29.7-46 29.6-54.3-16.5 21.4-38.1 31.8-61.1 17.2 5.4 19.4 10.8 39.8 31.5 37.1z"/><path fill="#b61847" d="M781.7 347.8c-17.3-7.1-38-1-41.3 11.5 3.3 5.5 9.5 10.3 19.3 9s16.6-6.6 22-20.5"/><path fill="none" stroke="#843d62" stroke-linecap="round" stroke-linejoin="round" d="M1006.1 506.1l-10.7-.5m-62 41.8c-15.2 7.6-31.7 11.5-49.3 12.2m-50.6-168.9c-33.3 10.4-53 29.7 8.2 26.6"/><path fill="none" stroke="#843d62" stroke-miterlimit="10" d="M698.5 424.5l11.7 28.5"/><path fill="none" stroke="#843d62" stroke-linecap="round" stroke-linejoin="round" d="M892 314.8c3.3 7.7 4.3 15.1 2 21.9m21.1-20.2a40.2 40.2 0 0 1 20.2 18.2"/></g><g clip-path="url(#c)"><path fill="#a06c83" d="M777.8 262.9c8.4-9.3 10.4-25.5 5.2-32.3-11.3-15-19.9 2.3-28.3 11.7s-9.9 21.5-3.5 27.2 18.3 2.8 26.6-6.6"/><path fill="none" stroke="#843d62" stroke-miterlimit="10" d="M777.8 262.9c8.4-9.3 10.4-25.5 5.2-32.3-11.3-15-19.9 2.3-28.3 11.7s-9.9 21.5-3.5 27.2 18.3 2.8 26.6-6.6z"/><path fill="#f7a39e" d="M769.5 209.9c5.8 1.5 13.8 23.9-5 43.3s-32.6-9.4-10.5-30.7c11.7-12.1 13.9-13.1 15.5-12.6"/><path fill="none" stroke="#f37f7e" stroke-miterlimit="10" d="M769.5 209.9c5.8 1.5 13.8 23.9-5 43.3s-32.6-9.4-10.5-30.7c11.7-12.1 13.9-13.1 15.5-12.6z"/><path fill="#a06c83" d="M760.2 231.3c13.8-15.3 11.7-37.1 3.6-40.5s-8.6 10.9-10.6 13.7-6.7 7.3-9.3 10.4c-10.8 12.6-1.6 33.8 16.3 16.4"/><path fill="none" stroke="#843d62" stroke-miterlimit="10" d="M760.2 231.3c13.8-15.3 11.7-37.1 3.6-40.5s-8.6 10.9-10.6 13.7-6.7 7.3-9.3 10.4c-10.8 12.6-1.6 33.8 16.3 16.4z"/><path fill="#f7a39e" d="M757.4 211.3c17.4-19.9 3.5-33.6 2.3-29.7-2.3 7.6-25.4 18.9-20.1 34.7 2.6 7.6 13.8-1.2 17.8-5"/><path fill="none" stroke="#f37f7e" stroke-miterlimit="10" d="M757.4 211.3c17.4-19.9 3.5-33.6 2.3-29.7-2.3 7.6-25.4 18.9-20.1 34.7 2.6 7.6 13.8-1.2 17.8-5z"/><path fill="#a06c83" d="M749.2 161.2c9.4-3.7 17.2 23.3 4.4 38s-17.2-4.9-8.6-14.9c6.3-7.4-.4-21.2 4.2-23.1"/><path fill="none" stroke="#843d62" stroke-miterlimit="10" d="M749.2 161.2c9.4-3.7 17.2 23.3 4.4 38s-17.2-4.9-8.6-14.9c6.3-7.4-.4-21.2 4.2-23.1z"/></g></g><path fill="#f1c661" d="M1444.4 501.4A84.6 84.6 0 1 0 1529 586a84.6 84.6 0 0 0-84.6-84.6zm0 117.5a32.9 32.9 0 1 1 32.9-32.9 32.9 32.9 0 0 1-32.9 32.9z"/><path fill="#ea8d30" d="M1527.3 569.1a48.7 48.7 0 0 1 .2 5.4c1.8 66.4-42.9 90.5-87.8 90.5a81.5 81.5 0 0 1-72.6-44.5 84.6 84.6 0 0 0 160.2-51.4z"/><path fill="none" d="M1439.7 665a81.4 81.4 0 1 0-14.1-161.5 84.7 84.7 0 0 0-58.5 117 81.5 81.5 0 0 0 72.6 44.5z"/><path fill="#ea8d30" d="M1446.5 549.9c12.8 0 25.1 4.7 31.7 14.6-6.3-11.6-20-19.3-34.1-19.3-20.4 0-38.2 15.9-38.2 36.4 0 7.5 2 16.4 5.9 22.3-2.8-5.2-2.9-12.5-2.9-18.8 0-20.4 17.1-35.2 37.6-35.2z"/><path fill="#f4f5cc" d="M1443.3 499.9c-46.3 0-83.8 35.4-83.8 79s37.5 79.1 83.8 79.1 83.8-35.4 83.8-79.1-37.5-79-83.8-79zm1.8 122.3a38.5 38.5 0 1 1 38.4-38.5 38.5 38.5 0 0 1-38.4 38.5z"/><path fill="url(#d)" d="M1443.3 499.9c-46.3 0-83.8 35.4-83.8 79s37.5 79.1 83.8 79.1 83.8-35.4 83.8-79.1-37.5-79-83.8-79zm1.8 122.3a38.5 38.5 0 1 1 38.4-38.5 38.5 38.5 0 0 1-38.4 38.5z"/><path fill="#f1c661" d="M1444.4 804.4A84.6 84.6 0 1 0 1529 889a84.6 84.6 0 0 0-84.6-84.6zm0 117.5a32.9 32.9 0 1 1 32.9-32.9 32.9 32.9 0 0 1-32.9 32.9z"/><path fill="#ea8d30" d="M1527.3 872.1a48.7 48.7 0 0 1 .2 5.4c1.8 66.4-42.9 90.5-87.8 90.5a81.5 81.5 0 0 1-72.6-44.5 84.6 84.6 0 0 0 160.2-51.4z"/><path fill="none" d="M1439.7 968a81.4 81.4 0 1 0-14.1-161.5 84.7 84.7 0 0 0-58.5 117 81.5 81.5 0 0 0 72.6 44.5z"/><path fill="#ea8d30" d="M1446.5 852.9c12.8 0 25.1 4.7 31.7 14.6-6.3-11.6-20-19.3-34.1-19.3-20.4 0-38.2 15.9-38.2 36.4 0 7.5 2 16.4 5.9 22.3-2.8-5.2-2.9-12.5-2.9-18.8 0-20.4 17.1-35.2 37.6-35.2z"/><path fill="#f4f5cc" d="M1443.3 802.9c-46.3 0-83.8 35.4-83.8 79s37.5 79.1 83.8 79.1 83.8-35.4 83.8-79.1-37.5-79-83.8-79zm1.8 122.3a38.5 38.5 0 1 1 38.4-38.5 38.5 38.5 0 0 1-38.4 38.5z"/><path fill="url(#e)" d="M1443.3 802.9c-46.3 0-83.8 35.4-83.8 79s37.5 79.1 83.8 79.1 83.8-35.4 83.8-79.1-37.5-79-83.8-79zm1.8 122.3a38.5 38.5 0 1 1 38.4-38.5 38.5 38.5 0 0 1-38.4 38.5z"/><path fill="#8f444d" d="M1606.4 651.4A84.6 84.6 0 1 0 1691 736a84.6 84.6 0 0 0-84.6-84.6zm0 117.5a32.9 32.9 0 1 1 32.9-32.9 32.9 32.9 0 0 1-32.9 32.9z"/><path fill="#ea8d30" d="M1689.3 719.1a48.7 48.7 0 0 1 .2 5.4c1.8 66.4-42.9 90.5-87.8 90.5a81.5 81.5 0 0 1-72.6-44.5 84.6 84.6 0 0 0 160.2-51.4z"/><path fill="none" d="M1601.7 815a81.4 81.4 0 1 0-14.1-161.5 84.7 84.7 0 0 0-58.5 117 81.5 81.5 0 0 0 72.6 44.5z"/><path fill="#ea8d30" d="M1608.5 699.9c12.8 0 25.1 4.7 31.7 14.6-6.3-11.6-20-19.3-34.1-19.3-20.4 0-38.2 15.9-38.2 36.4 0 7.5 2 16.4 5.9 22.3-2.8-5.2-2.9-12.5-2.9-18.8 0-20.4 17.1-35.2 37.6-35.2z"/><path fill="#ff88da" d="M1686 707.8c-9.8-33.4-42.2-57.9-80.7-57.9-46.3 0-83.8 35.4-83.8 79a76.1 76.1 0 0 0 19.6 50.8l-2.1 1.3a11.5 11.5 0 0 0 3.5.3c3.5-.5 4.6-3.4 6-6.3 8.7-9.8 25.5-13 28.1-17.8l-.5-.7a38.5 38.5 0 1 1 65.9-39c-2 3.5-3.9 11.7 2.1 5.6 4.3-4.4 7.6-7.2 10.6-8.4a10.9 10.9 0 0 1 3-.7h.3c4 0 19 4 21 0s6.9-1.8 7.3-5.4z"/><path fill="#ffd8f5" d="M1541 757c-10-22-4-64 9-71s-16 23-9 71zm39.8-91.5c18.6-7.5 54.6-4.8 60.9 3.9s-20-10.2-60.9-3.9z"/><path fill="none" d="M1642 717.5a38.5 38.5 0 1 0-65.9 39l.9.5-.4.2a38.4 38.4 0 0 0 68.9-23.5 41.1 41.1 0 0 0-1.4-10.6c-6 6.1-4.1-2.1-2.1-5.6z"/><path fill="#ff88da" d="M1657.7 714a10.9 10.9 0 0 0-3 .7z"/><path fill="#f1c661" d="M1444.4 198.4A84.6 84.6 0 1 0 1529 283a84.6 84.6 0 0 0-84.6-84.6zm0 117.5a32.9 32.9 0 1 1 32.9-32.9 32.9 32.9 0 0 1-32.9 32.9z"/><path fill="#ea8d30" d="M1527.3 266.1a48.7 48.7 0 0 1 .2 5.4c1.8 66.4-42.9 90.5-87.8 90.5a81.5 81.5 0 0 1-72.6-44.5 84.6 84.6 0 0 0 160.2-51.4z"/><path fill="none" d="M1439.7 362a81.4 81.4 0 1 0-14.1-161.5 84.7 84.7 0 0 0-58.5 117 81.5 81.5 0 0 0 72.6 44.5z"/><path fill="#ea8d30" d="M1446.5 246.9c12.8 0 25.1 4.7 31.7 14.6-6.3-11.6-20-19.3-34.1-19.3-20.4 0-38.2 15.9-38.2 36.4 0 7.5 2 16.4 5.9 22.3-2.8-5.2-2.9-12.5-2.9-18.8 0-20.4 17.1-35.2 37.6-35.2z"/><path fill="#f4f5cc" d="M1443.3 196.9c-46.3 0-83.8 35.4-83.8 79s37.5 79.1 83.8 79.1 83.8-35.4 83.8-79.1-37.5-79-83.8-79zm1.8 122.3a38.5 38.5 0 1 1 38.4-38.5 38.5 38.5 0 0 1-38.4 38.5z"/><path fill="url(#f)" d="M1443.3 196.9c-46.3 0-83.8 35.4-83.8 79s37.5 79.1 83.8 79.1 83.8-35.4 83.8-79.1-37.5-79-83.8-79zm1.8 122.3a38.5 38.5 0 1 1 38.4-38.5 38.5 38.5 0 0 1-38.4 38.5z"/><path fill="#f1c661" d="M1768.4 501.4A84.6 84.6 0 1 0 1853 586a84.6 84.6 0 0 0-84.6-84.6zm0 117.5a32.9 32.9 0 1 1 32.9-32.9 32.9 32.9 0 0 1-32.9 32.9z"/><path fill="#ea8d30" d="M1851.3 569.1a48.7 48.7 0 0 1 .2 5.4c1.8 66.4-42.9 90.5-87.8 90.5a81.5 81.5 0 0 1-72.6-44.5 84.6 84.6 0 0 0 160.2-51.4z"/><path fill="none" d="M1763.7 665a81.4 81.4 0 1 0-14.1-161.5 84.7 84.7 0 0 0-58.5 117 81.5 81.5 0 0 0 72.6 44.5z"/><path fill="#ea8d30" d="M1770.5 549.9c12.8 0 25.1 4.7 31.7 14.6-6.3-11.6-20-19.3-34.1-19.3-20.4 0-38.2 15.9-38.2 36.4 0 7.5 2 16.4 5.9 22.3-2.8-5.2-2.9-12.5-2.9-18.8 0-20.4 17.1-35.2 37.6-35.2z"/><path fill="#f4f5cc" d="M1767.3 499.9c-46.3 0-83.8 35.4-83.8 79s37.5 79.1 83.8 79.1 83.8-35.4 83.8-79.1-37.5-79-83.8-79zm1.8 122.3a38.5 38.5 0 1 1 38.4-38.5 38.5 38.5 0 0 1-38.4 38.5z"/><path fill="url(#g)" d="M1767.3 499.9c-46.3 0-83.8 35.4-83.8 79s37.5 79.1 83.8 79.1 83.8-35.4 83.8-79.1-37.5-79-83.8-79zm1.8 122.3a38.5 38.5 0 1 1 38.4-38.5 38.5 38.5 0 0 1-38.4 38.5z"/><path fill="#f1c661" d="M1768.4 804.4A84.6 84.6 0 1 0 1853 889a84.6 84.6 0 0 0-84.6-84.6zm0 117.5a32.9 32.9 0 1 1 32.9-32.9 32.9 32.9 0 0 1-32.9 32.9z"/><path fill="#ea8d30" d="M1851.3 872.1a48.7 48.7 0 0 1 .2 5.4c1.8 66.4-42.9 90.5-87.8 90.5a81.5 81.5 0 0 1-72.6-44.5 84.6 84.6 0 0 0 160.2-51.4z"/><path fill="none" d="M1763.7 968a81.4 81.4 0 1 0-14.1-161.5 84.7 84.7 0 0 0-58.5 117 81.5 81.5 0 0 0 72.6 44.5z"/><path fill="#ea8d30" d="M1770.5 852.9c12.8 0 25.1 4.7 31.7 14.6-6.3-11.6-20-19.3-34.1-19.3-20.4 0-38.2 15.9-38.2 36.4 0 7.5 2 16.4 5.9 22.3-2.8-5.2-2.9-12.5-2.9-18.8 0-20.4 17.1-35.2 37.6-35.2z"/><path fill="#f4f5cc" d="M1767.3 802.9c-46.3 0-83.8 35.4-83.8 79s37.5 79.1 83.8 79.1 83.8-35.4 83.8-79.1-37.5-79-83.8-79zm1.8 122.3a38.5 38.5 0 1 1 38.4-38.5 38.5 38.5 0 0 1-38.4 38.5z"/><path fill="url(#h)" d="M1767.3 802.9c-46.3 0-83.8 35.4-83.8 79s37.5 79.1 83.8 79.1 83.8-35.4 83.8-79.1-37.5-79-83.8-79zm1.8 122.3a38.5 38.5 0 1 1 38.4-38.5 38.5 38.5 0 0 1-38.4 38.5z"/><path fill="#f1c661" d="M1768.4 198.4A84.6 84.6 0 1 0 1853 283a84.6 84.6 0 0 0-84.6-84.6zm0 117.5a32.9 32.9 0 1 1 32.9-32.9 32.9 32.9 0 0 1-32.9 32.9z"/><path fill="#ea8d30" d="M1851.3 266.1a48.7 48.7 0 0 1 .2 5.4c1.8 66.4-42.9 90.5-87.8 90.5a81.5 81.5 0 0 1-72.6-44.5 84.6 84.6 0 0 0 160.2-51.4z"/><path fill="none" d="M1763.7 362a81.4 81.4 0 1 0-14.1-161.5 84.7 84.7 0 0 0-58.5 117 81.5 81.5 0 0 0 72.6 44.5z"/><path fill="#ea8d30" d="M1770.5 246.9c12.8 0 25.1 4.7 31.7 14.6-6.3-11.6-20-19.3-34.1-19.3-20.4 0-38.2 15.9-38.2 36.4 0 7.5 2 16.4 5.9 22.3-2.8-5.2-2.9-12.5-2.9-18.8 0-20.4 17.1-35.2 37.6-35.2z"/><path fill="#f4f5cc" d="M1767.3 196.9c-46.3 0-83.8 35.4-83.8 79s37.5 79.1 83.8 79.1 83.8-35.4 83.8-79.1-37.5-79-83.8-79zm1.8 122.3a38.5 38.5 0 1 1 38.4-38.5 38.5 38.5 0 0 1-38.4 38.5z"/><path fill="url(#i)" d="M1767.3 196.9c-46.3 0-83.8 35.4-83.8 79s37.5 79.1 83.8 79.1 83.8-35.4 83.8-79.1-37.5-79-83.8-79zm1.8 122.3a38.5 38.5 0 1 1 38.4-38.5 38.5 38.5 0 0 1-38.4 38.5z"/><path fill="#8f444d" d="M1606.4 348.4A84.6 84.6 0 1 0 1691 433a84.6 84.6 0 0 0-84.6-84.6zm0 117.5a32.9 32.9 0 1 1 32.9-32.9 32.9 32.9 0 0 1-32.9 32.9z"/><path fill="#ea8d30" d="M1689.3 416.1a48.7 48.7 0 0 1 .2 5.4c1.8 66.4-42.9 90.5-87.8 90.5a81.5 81.5 0 0 1-72.6-44.5 84.6 84.6 0 0 0 160.2-51.4z"/><path fill="none" d="M1601.7 512a81.4 81.4 0 1 0-14.1-161.5 84.7 84.7 0 0 0-58.5 117 81.5 81.5 0 0 0 72.6 44.5z"/><path fill="#ea8d30" d="M1608.5 396.9c12.8 0 25.1 4.7 31.7 14.6-6.3-11.6-20-19.3-34.1-19.3-20.4 0-38.2 15.9-38.2 36.4 0 7.5 2 16.4 5.9 22.3-2.8-5.2-2.9-12.5-2.9-18.8 0-20.4 17.1-35.2 37.6-35.2z"/><path fill="#ff88da" d="M1686 404.8c-9.8-33.4-42.2-57.9-80.7-57.9-46.3 0-83.8 35.4-83.8 79a76.1 76.1 0 0 0 19.6 50.8l-2.1 1.3a11.5 11.5 0 0 0 3.5.3c3.5-.5 4.6-3.4 6-6.3 8.7-9.8 25.5-13 28.1-17.8l-.5-.7a38.5 38.5 0 1 1 65.9-39c-2 3.5-3.9 11.7 2.1 5.6 4.3-4.4 7.6-7.2 10.6-8.4a10.9 10.9 0 0 1 3-.7h.3c4 0 19 4 21 0s6.9-1.8 7.3-5.4z"/><path fill="#ffd8f5" d="M1541 454c-10-22-4-64 9-71s-16 23-9 71zm39.8-91.5c18.6-7.5 54.6-4.8 60.9 3.9s-20-10.2-60.9-3.9z"/><path fill="none" d="M1642 414.5a38.5 38.5 0 1 0-65.9 39l.9.5-.4.2a38.4 38.4 0 0 0 68.9-23.5 41.1 41.1 0 0 0-1.4-10.6c-6 6.1-4.1-2.1-2.1-5.6z"/><path fill="#ff88da" d="M1657.7 411a10.9 10.9 0 0 0-3 .7z"/><path fill="#8f444d" d="M1606.4 45.4A84.6 84.6 0 1 0 1691 130a84.6 84.6 0 0 0-84.6-84.6zm0 117.5a32.9 32.9 0 1 1 32.9-32.9 32.9 32.9 0 0 1-32.9 32.9z"/><path fill="#ea8d30" d="M1689.3 113.1a48.7 48.7 0 0 1 .2 5.4c1.8 66.4-42.9 90.5-87.8 90.5a81.5 81.5 0 0 1-72.6-44.5 84.6 84.6 0 0 0 160.2-51.4z"/><path fill="none" d="M1601.7 209a81.4 81.4 0 1 0-14.1-161.5 84.7 84.7 0 0 0-58.5 117 81.5 81.5 0 0 0 72.6 44.5z"/><path fill="#ea8d30" d="M1608.5 93.9c12.8 0 25.1 4.7 31.7 14.6-6.3-11.6-20-19.3-34.1-19.3-20.4 0-38.2 15.9-38.2 36.4 0 7.5 2 16.4 5.9 22.3-2.8-5.2-2.9-12.5-2.9-18.8 0-20.4 17.1-35.2 37.6-35.2z"/><path fill="#ff88da" d="M1686 101.8c-9.8-33.4-42.2-57.9-80.7-57.9-46.3 0-83.8 35.4-83.8 79a76.1 76.1 0 0 0 19.6 50.8l-2.1 1.3a11.5 11.5 0 0 0 3.5.3c3.5-.5 4.6-3.4 6-6.3 8.7-9.8 25.5-13 28.1-17.8l-.5-.7a38.5 38.5 0 1 1 65.9-39c-2 3.5-3.9 11.7 2.1 5.6 4.3-4.4 7.6-7.2 10.6-8.4a10.9 10.9 0 0 1 3-.7h.3c4 0 19 4 21 0s6.9-1.8 7.3-5.4z"/><path fill="#ffd8f5" d="M1541 151c-10-22-4-64 9-71s-16 23-9 71zm39.8-91.5c18.6-7.5 54.6-4.8 60.9 3.9s-20-10.2-60.9-3.9z"/><path fill="none" d="M1642 111.5a38.5 38.5 0 1 0-65.9 39l.9.5-.4.2a38.4 38.4 0 0 0 68.9-23.5 41.1 41.1 0 0 0-1.4-10.6c-6 6.1-4.1-2.1-2.1-5.6z"/><path fill="#ff88da" d="M1657.7 108a10.9 10.9 0 0 0-3 .7z"/><path fill="#f1c661" d="M401 434.5a84.6 84.6 0 1 0-84.6 84.6 84.6 84.6 0 0 0 84.6-84.6zm-51.7 0a32.9 32.9 0 1 1-32.9-32.9 32.9 32.9 0 0 1 32.9 32.9z"/><path fill="#ea8d30" d="M399.3 451.4a48.7 48.7 0 0 0 .2-5.4c1.8-66.4-42.9-90.5-87.8-90.5a81.5 81.5 0 0 0-72.6 44.5 84.6 84.6 0 0 1 160.2 51.4z"/><path fill="none" d="M311.7 355.5A81.4 81.4 0 1 1 297.6 517a84.7 84.7 0 0 1-58.5-117 81.5 81.5 0 0 1 72.6-44.5z"/><path fill="#ea8d30" d="M318.5 470.6c12.8 0 25.1-4.7 31.7-14.6-6.3 11.6-20 19.3-34.1 19.3-20.4 0-38.2-15.9-38.2-36.4 0-7.5 2-16.4 5.9-22.3-2.8 5.2-2.9 12.5-2.9 18.8 0 20.4 17.1 35.2 37.6 35.2z"/><path fill="#f4f5cc" d="M399.1 441.6c0-43.7-37.5-79.1-83.8-79.1s-83.8 35.4-83.8 79.1 37.5 79 83.8 79 83.8-35.4 83.8-79zm-43.6-4.8a38.5 38.5 0 1 1-38.4-38.5 38.5 38.5 0 0 1 38.4 38.5z"/><path fill="url(#j)" d="M399.1 441.6c0-43.7-37.5-79.1-83.8-79.1s-83.8 35.4-83.8 79.1 37.5 79 83.8 79 83.8-35.4 83.8-79zm-43.6-4.8a38.5 38.5 0 1 1-38.4-38.5 38.5 38.5 0 0 1 38.4 38.5z"/><path fill="#f1c661" d="M401 150.5a84.6 84.6 0 1 0-84.6 84.6 84.6 84.6 0 0 0 84.6-84.6zm-51.7 0a32.9 32.9 0 1 1-32.9-32.9 32.9 32.9 0 0 1 32.9 32.9z"/><path fill="#ea8d30" d="M399.3 167.4a48.7 48.7 0 0 0 .2-5.4c1.8-66.4-42.9-90.5-87.8-90.5a81.5 81.5 0 0 0-72.6 44.5 84.6 84.6 0 0 1 160.2 51.4z"/><path fill="none" d="M311.7 71.5A81.4 81.4 0 1 1 297.6 233a84.7 84.7 0 0 1-58.5-117 81.5 81.5 0 0 1 72.6-44.5z"/><path fill="#ea8d30" d="M318.5 186.6c12.8 0 25.1-4.7 31.7-14.6-6.3 11.6-20 19.3-34.1 19.3-20.4 0-38.2-15.9-38.2-36.4 0-7.5 2-16.4 5.9-22.3-2.8 5.2-2.9 12.5-2.9 18.8 0 20.4 17.1 35.2 37.6 35.2z"/><path fill="#f4f5cc" d="M399.1 157.6c0-43.7-37.5-79.1-83.8-79.1s-83.8 35.4-83.8 79.1 37.5 79 83.8 79 83.8-35.4 83.8-79zm-43.6-4.8a38.5 38.5 0 1 1-38.4-38.5 38.5 38.5 0 0 1 38.4 38.5z"/><path fill="url(#k)" d="M399.1 157.6c0-43.7-37.5-79.1-83.8-79.1s-83.8 35.4-83.8 79.1 37.5 79 83.8 79 83.8-35.4 83.8-79zm-43.6-4.8a38.5 38.5 0 1 1-38.4-38.5 38.5 38.5 0 0 1 38.4 38.5z"/><path fill="#8f444d" d="M563 284.5a84.6 84.6 0 1 0-84.6 84.6 84.6 84.6 0 0 0 84.6-84.6zm-51.7 0a32.9 32.9 0 1 1-32.9-32.9 32.9 32.9 0 0 1 32.9 32.9z"/><path fill="#ea8d30" d="M561.3 301.4a48.7 48.7 0 0 0 .2-5.4c1.8-66.4-42.9-90.5-87.8-90.5a81.5 81.5 0 0 0-72.6 44.5 84.6 84.6 0 0 1 160.2 51.4z"/><path fill="none" d="M473.7 205.5A81.4 81.4 0 1 1 459.6 367a84.7 84.7 0 0 1-58.5-117 81.5 81.5 0 0 1 72.6-44.5z"/><path fill="#ea8d30" d="M480.5 320.6c12.8 0 25.1-4.7 31.7-14.6-6.3 11.6-20 19.3-34.1 19.3-20.4 0-38.2-15.9-38.2-36.4 0-7.5 2-16.4 5.9-22.3-2.8 5.2-2.9 12.5-2.9 18.8 0 20.4 17.1 35.2 37.6 35.2z"/><path fill="#ff88da" d="M558 312.7c-9.8 33.4-42.2 57.9-80.7 57.9-46.3 0-83.8-35.4-83.8-79a76.1 76.1 0 0 1 19.6-50.8l-2.1-1.3a11.5 11.5 0 0 1 3.5-.3c3.5.5 4.6 3.4 6 6.3 8.7 9.8 25.5 13 28.1 17.8l-.5.7a38.5 38.5 0 1 0 65.9 39c-2-3.5-3.9-11.7 2.1-5.6 4.3 4.4 7.6 7.2 10.6 8.4a10.9 10.9 0 0 0 3 .7h.3c4 0 19-4 21 0s6.9 1.8 7.3 5.4z"/><path fill="#ffd8f5" d="M413 263.5c-10 22-4 64 9 71s-16-23-9-71zm39.8 91.5c18.6 7.5 54.6 4.8 60.9-3.9s-20 10.2-60.9 3.9z"/><path fill="none" d="M514 303a38.5 38.5 0 1 1-65.9-39l.9-.5-.4-.2a38.4 38.4 0 0 1 68.9 23.5 41.1 41.1 0 0 1-1.4 10.6c-6-6.1-4.1 2.1-2.1 5.6z"/><path fill="#ff88da" d="M529.7 306.5a10.9 10.9 0 0 1-3-.7z"/><path fill="#f1c661" d="M401 737.5a84.6 84.6 0 1 0-84.6 84.6 84.6 84.6 0 0 0 84.6-84.6zm-51.7 0a32.9 32.9 0 1 1-32.9-32.9 32.9 32.9 0 0 1 32.9 32.9z"/><path fill="#ea8d30" d="M399.3 754.4a48.7 48.7 0 0 0 .2-5.4c1.8-66.4-42.9-90.5-87.8-90.5a81.5 81.5 0 0 0-72.6 44.5 84.6 84.6 0 0 1 160.2 51.4z"/><path fill="none" d="M311.7 658.5A81.4 81.4 0 1 1 297.6 820a84.7 84.7 0 0 1-58.5-117 81.5 81.5 0 0 1 72.6-44.5z"/><path fill="#ea8d30" d="M318.5 773.6c12.8 0 25.1-4.7 31.7-14.6-6.3 11.6-20 19.3-34.1 19.3-20.4 0-38.2-15.9-38.2-36.4 0-7.5 2-16.4 5.9-22.3-2.8 5.2-2.9 12.5-2.9 18.8 0 20.4 17.1 35.2 37.6 35.2z"/><path fill="#f4f5cc" d="M399.1 744.6c0-43.7-37.5-79.1-83.8-79.1s-83.8 35.4-83.8 79.1 37.5 79 83.8 79 83.8-35.4 83.8-79zm-43.6-4.8a38.5 38.5 0 1 1-38.4-38.5 38.5 38.5 0 0 1 38.4 38.5z"/><path fill="url(#l)" d="M399.1 744.6c0-43.7-37.5-79.1-83.8-79.1s-83.8 35.4-83.8 79.1 37.5 79 83.8 79 83.8-35.4 83.8-79zm-43.6-4.8a38.5 38.5 0 1 1-38.4-38.5 38.5 38.5 0 0 1 38.4 38.5z"/><path fill="#8f444d" d="M563 587.5a84.6 84.6 0 1 0-84.6 84.6 84.6 84.6 0 0 0 84.6-84.6zm-51.7 0a32.9 32.9 0 1 1-32.9-32.9 32.9 32.9 0 0 1 32.9 32.9z"/><path fill="#ea8d30" d="M561.3 604.4a48.7 48.7 0 0 0 .2-5.4c1.8-66.4-42.9-90.5-87.8-90.5a81.5 81.5 0 0 0-72.6 44.5 84.6 84.6 0 0 1 160.2 51.4z"/><path fill="none" d="M473.7 508.5A81.4 81.4 0 1 1 459.6 670a84.7 84.7 0 0 1-58.5-117 81.5 81.5 0 0 1 72.6-44.5z"/><path fill="#ea8d30" d="M480.5 623.6c12.8 0 25.1-4.7 31.7-14.6-6.3 11.6-20 19.3-34.1 19.3-20.4 0-38.2-15.9-38.2-36.4 0-7.5 2-16.4 5.9-22.3-2.8 5.2-2.9 12.5-2.9 18.8 0 20.4 17.1 35.2 37.6 35.2z"/><path fill="#ff88da" d="M558 615.7c-9.8 33.4-42.2 57.9-80.7 57.9-46.3 0-83.8-35.4-83.8-79a76.1 76.1 0 0 1 19.6-50.8l-2.1-1.3a11.5 11.5 0 0 1 3.5-.3c3.5.5 4.6 3.4 6 6.3 8.7 9.8 25.5 13 28.1 17.8l-.5.7a38.5 38.5 0 1 0 65.9 39c-2-3.5-3.9-11.7 2.1-5.6 4.3 4.4 7.6 7.2 10.6 8.4a10.9 10.9 0 0 0 3 .7h.3c4 0 19-4 21 0s6.9 1.8 7.3 5.4z"/><path fill="#ffd8f5" d="M413 566.5c-10 22-4 64 9 71s-16-23-9-71zm39.8 91.5c18.6 7.5 54.6 4.8 60.9-3.9s-20 10.2-60.9 3.9z"/><path fill="none" d="M514 606a38.5 38.5 0 1 1-65.9-39l.9-.5-.4-.2a38.4 38.4 0 0 1 68.9 23.5 41.1 41.1 0 0 1-1.4 10.6c-6-6.1-4.1 2.1-2.1 5.6z"/><path fill="#ff88da" d="M529.7 609.5a10.9 10.9 0 0 1-3-.7z"/><path fill="#8f444d" d="M563 890.5a84.6 84.6 0 1 0-84.6 84.6 84.6 84.6 0 0 0 84.6-84.6zm-51.7 0a32.9 32.9 0 1 1-32.9-32.9 32.9 32.9 0 0 1 32.9 32.9z"/><path fill="#ea8d30" d="M561.3 907.4a48.7 48.7 0 0 0 .2-5.4c1.8-66.4-42.9-90.5-87.8-90.5a81.5 81.5 0 0 0-72.6 44.5 84.6 84.6 0 0 1 160.2 51.4z"/><path fill="none" d="M473.7 811.5A81.4 81.4 0 1 1 459.6 973a84.7 84.7 0 0 1-58.5-117 81.5 81.5 0 0 1 72.6-44.5z"/><path fill="#ea8d30" d="M480.5 926.6c12.8 0 25.1-4.7 31.7-14.6-6.3 11.6-20 19.3-34.1 19.3-20.4 0-38.2-15.9-38.2-36.4 0-7.5 2-16.4 5.9-22.3-2.8 5.2-2.9 12.5-2.9 18.8 0 20.4 17.1 35.2 37.6 35.2z"/><path fill="#ff88da" d="M558 918.7c-9.8 33.4-42.2 57.9-80.7 57.9-46.3 0-83.8-35.4-83.8-79a76.1 76.1 0 0 1 19.6-50.8l-2.1-1.3a11.5 11.5 0 0 1 3.5-.3c3.5.5 4.6 3.4 6 6.3 8.7 9.8 25.5 13 28.1 17.8l-.5.7a38.5 38.5 0 1 0 65.9 39c-2-3.5-3.9-11.7 2.1-5.6 4.3 4.4 7.6 7.2 10.6 8.4a10.9 10.9 0 0 0 3 .7h.3c4 0 19-4 21 0s6.9 1.8 7.3 5.4z"/><path fill="#ffd8f5" d="M413 869.5c-10 22-4 64 9 71s-16-23-9-71zm39.8 91.5c18.6 7.5 54.6 4.8 60.9-3.9s-20 10.2-60.9 3.9z"/><path fill="none" d="M514 909a38.5 38.5 0 1 1-65.9-39l.9-.5-.4-.2a38.4 38.4 0 0 1 68.9 23.5 41.1 41.1 0 0 1-1.4 10.6c-6-6.1-4.1 2.1-2.1 5.6z"/><path fill="#ff88da" d="M529.7 912.5a10.9 10.9 0 0 1-3-.7z"/><path fill="#8f444d" d="M232 284.5a84.6 84.6 0 1 0-84.6 84.6 84.6 84.6 0 0 0 84.6-84.6zm-51.7 0a32.9 32.9 0 1 1-32.9-32.9 32.9 32.9 0 0 1 32.9 32.9z"/><path fill="#ea8d30" d="M230.3 301.4a48.7 48.7 0 0 0 .2-5.4c1.8-66.4-42.9-90.5-87.8-90.5A81.5 81.5 0 0 0 70.1 250a84.6 84.6 0 0 1 160.2 51.4z"/><path fill="none" d="M142.7 205.5A81.4 81.4 0 1 1 128.6 367a84.7 84.7 0 0 1-58.5-117 81.5 81.5 0 0 1 72.6-44.5z"/><path fill="#ea8d30" d="M149.5 320.6c12.8 0 25.1-4.7 31.7-14.6-6.3 11.6-20 19.3-34.1 19.3-20.4 0-38.2-15.9-38.2-36.4 0-7.5 2-16.4 5.9-22.3-2.8 5.2-2.9 12.5-2.9 18.8 0 20.4 17.1 35.2 37.6 35.2z"/><path fill="#ff88da" d="M227 312.7c-9.8 33.4-42.2 57.9-80.7 57.9-46.3 0-83.8-35.4-83.8-79a76.1 76.1 0 0 1 19.6-50.8l-2.1-1.3a11.5 11.5 0 0 1 3.5-.3c3.5.5 4.6 3.4 6 6.3 8.7 9.8 25.5 13 28.1 17.8l-.5.7a38.5 38.5 0 1 0 65.9 39c-2-3.5-3.9-11.7 2.1-5.6 4.3 4.4 7.6 7.2 10.6 8.4a10.9 10.9 0 0 0 3 .7h.3c4 0 19-4 21 0s6.9 1.8 7.3 5.4z"/><path fill="#ffd8f5" d="M82 263.5c-10 22-4 64 9 71s-16-23-9-71zm39.8 91.5c18.6 7.5 54.6 4.8 60.9-3.9s-20 10.2-60.9 3.9z"/><path fill="none" d="M183 303a38.5 38.5 0 1 1-65.9-39l.9-.5-.4-.2a38.4 38.4 0 0 1 68.9 23.5 41.1 41.1 0 0 1-1.4 10.6c-6-6.1-4.1 2.1-2.1 5.6z"/><path fill="#ff88da" d="M198.7 306.5a10.9 10.9 0 0 1-3-.7z"/><path fill="#8f444d" d="M232 587.5a84.6 84.6 0 1 0-84.6 84.6 84.6 84.6 0 0 0 84.6-84.6zm-51.7 0a32.9 32.9 0 1 1-32.9-32.9 32.9 32.9 0 0 1 32.9 32.9z"/><path fill="#ea8d30" d="M230.3 604.4a48.7 48.7 0 0 0 .2-5.4c1.8-66.4-42.9-90.5-87.8-90.5A81.5 81.5 0 0 0 70.1 553a84.6 84.6 0 0 1 160.2 51.4z"/><path fill="none" d="M142.7 508.5A81.4 81.4 0 1 1 128.6 670a84.7 84.7 0 0 1-58.5-117 81.5 81.5 0 0 1 72.6-44.5z"/><path fill="#ea8d30" d="M149.5 623.6c12.8 0 25.1-4.7 31.7-14.6-6.3 11.6-20 19.3-34.1 19.3-20.4 0-38.2-15.9-38.2-36.4 0-7.5 2-16.4 5.9-22.3-2.8 5.2-2.9 12.5-2.9 18.8 0 20.4 17.1 35.2 37.6 35.2z"/><path fill="#ff88da" d="M227 615.7c-9.8 33.4-42.2 57.9-80.7 57.9-46.3 0-83.8-35.4-83.8-79a76.1 76.1 0 0 1 19.6-50.8l-2.1-1.3a11.5 11.5 0 0 1 3.5-.3c3.5.5 4.6 3.4 6 6.3 8.7 9.8 25.5 13 28.1 17.8l-.5.7a38.5 38.5 0 1 0 65.9 39c-2-3.5-3.9-11.7 2.1-5.6 4.3 4.4 7.6 7.2 10.6 8.4a10.9 10.9 0 0 0 3 .7h.3c4 0 19-4 21 0s6.9 1.8 7.3 5.4z"/><path fill="#ffd8f5" d="M82 566.5c-10 22-4 64 9 71s-16-23-9-71zm39.8 91.5c18.6 7.5 54.6 4.8 60.9-3.9s-20 10.2-60.9 3.9z"/><path fill="none" d="M183 606a38.5 38.5 0 1 1-65.9-39l.9-.5-.4-.2a38.4 38.4 0 0 1 68.9 23.5 41.1 41.1 0 0 1-1.4 10.6c-6-6.1-4.1 2.1-2.1 5.6z"/><path fill="#ff88da" d="M198.7 609.5a10.9 10.9 0 0 1-3-.7z"/><path fill="#8f444d" d="M232 890.5a84.6 84.6 0 1 0-84.6 84.6 84.6 84.6 0 0 0 84.6-84.6zm-51.7 0a32.9 32.9 0 1 1-32.9-32.9 32.9 32.9 0 0 1 32.9 32.9z"/><path fill="#ea8d30" d="M230.3 907.4a48.7 48.7 0 0 0 .2-5.4c1.8-66.4-42.9-90.5-87.8-90.5A81.5 81.5 0 0 0 70.1 856a84.6 84.6 0 0 1 160.2 51.4z"/><path fill="none" d="M142.7 811.5A81.4 81.4 0 1 1 128.6 973a84.7 84.7 0 0 1-58.5-117 81.5 81.5 0 0 1 72.6-44.5z"/><path fill="#ea8d30" d="M149.5 926.6c12.8 0 25.1-4.7 31.7-14.6-6.3 11.6-20 19.3-34.1 19.3-20.4 0-38.2-15.9-38.2-36.4 0-7.5 2-16.4 5.9-22.3-2.8 5.2-2.9 12.5-2.9 18.8 0 20.4 17.1 35.2 37.6 35.2z"/><path fill="#ff88da" d="M227 918.7c-9.8 33.4-42.2 57.9-80.7 57.9-46.3 0-83.8-35.4-83.8-79a76.1 76.1 0 0 1 19.6-50.8l-2.1-1.3a11.5 11.5 0 0 1 3.5-.3c3.5.5 4.6 3.4 6 6.3 8.7 9.8 25.5 13 28.1 17.8l-.5.7a38.5 38.5 0 1 0 65.9 39c-2-3.5-3.9-11.7 2.1-5.6 4.3 4.4 7.6 7.2 10.6 8.4a10.9 10.9 0 0 0 3 .7h.3c4 0 19-4 21 0s6.9 1.8 7.3 5.4z"/><path fill="#ffd8f5" d="M82 869.5c-10 22-4 64 9 71s-16-23-9-71zm39.8 91.5c18.6 7.5 54.6 4.8 60.9-3.9s-20 10.2-60.9 3.9z"/><path fill="none" d="M183 909a38.5 38.5 0 1 1-65.9-39l.9-.5-.4-.2a38.4 38.4 0 0 1 68.9 23.5 41.1 41.1 0 0 1-1.4 10.6c-6-6.1-4.1 2.1-2.1 5.6z"/><path fill="#ff88da" d="M198.7 912.5a10.9 10.9 0 0 1-3-.7z"/><text fill="#8f444d" font-family="Comfortaa-Bold, Comfortaa" font-size="45" font-weight="700" transform="translate(597.1 700.9)">THIS <tspan x="126.8" y="0" letter-spacing="-.03em">P</tspan><tspan x="153.4" y="0" letter-spacing="-.02em">A</tspan><tspan x="184.2" y="0">GE </tspan><tspan x="263.8" y="0" letter-spacing="-.05em">Y</tspan><tspan x="291.7" y="0">OU WERE </tspan><tspan x="531.2" y="0" letter-spacing="-.07em">L</tspan><tspan x="557" y="0" letter-spacing="-.02em">O</tspan><tspan x="597.5" y="0" letter-spacing="0em">OKING</tspan></text><text fill="#8f444d" font-family="Comfortaa-Bold, Comfortaa" font-size="45" font-weight="700" transform="translate(685.1 763.9)">FOR <tspan x="111.2" y="0" letter-spacing="-.02em">D</tspan><tspan x="145.5" y="0" letter-spacing="0em">OES N</tspan><tspan x="300" y="0" letter-spacing="-.06em">O</tspan><tspan x="338.7" y="0">T EXI</tspan><tspan x="459" y="0" letter-spacing="-.04em">S</tspan><tspan x="488.2" y="0">T</tspan></text></svg>