<svg xmlns="http://www.w3.org/2000/svg" width="5in" height="5in" viewBox="0 0 360 360"><path fill="#e1bcbb" d="M0 0h360v360H0z"/><circle cx="78.4" cy="115.8" r="45.4" fill="#895e28"/><circle cx="78.4" cy="115.8" r="45.4" fill="none" stroke="#684326" stroke-miterlimit="10" stroke-width="10"/><path fill="#895e28" d="M101.6 111.3c-16.2-18.6-9.5-55.2 21.9-61.8-17 16.2 4.7 61.8 4.7 61.8z"/><path fill="none" stroke="#684326" stroke-miterlimit="10" stroke-width="6" d="M101.6 111.3c-16.2-18.6-9.5-55.2 21.9-61.8-17 16.2 4.7 61.8 4.7 61.8z"/><circle cx="265" cy="115.8" r="45.4" fill="#895e28"/><circle cx="265" cy="115.8" r="45.4" fill="none" stroke="#684326" stroke-miterlimit="10" stroke-width="10"/><path fill="#895e28" d="M242.3 111.3c16.3-18.6 9.5-55.2-21.9-61.8 17.1 16.2-4.7 61.8-4.7 61.8z"/><path fill="none" stroke="#684326" stroke-miterlimit="10" stroke-width="6" d="M242.3 111.3c16.3-18.6 9.5-55.2-21.9-61.8 17.1 16.2-4.7 61.8-4.7 61.8z"/><path fill="#f7d5c6" d="M85.9 112.4h177.9a10.1 10.1 0 0 1 10.1 10.1v120a68.1 68.1 0 0 1-68.1 68.1h-62a68.1 68.1 0 0 1-68.1-68.1V122.6a10.1 10.1 0 0 1 10.1-10.1z"/><path fill="#5b4872" d="M273.9 200.9c-36.6.2-68-13.8-96-37.4 0 0 31.1-35.5 31.1-51.1l62.9 1.2z"/><path fill="#98682f" d="M271.8 180.6c-28.7.2-65.5-10.8-87.4-29.3 0 0 24.3-27.8 24.3-40l61.5.9z"/><path fill="#a77236" d="M271.8 180.6c-27.8.2-63.2-10.1-85.3-27.6-4.8 6.2-8.6 10.5-8.6 10.5 28 23.6 59.4 37.6 96 37.4z"/><path fill="#98682f" d="M78.4 115.8l-2.6 92.6c68-4.2 110.3-38.7 133.2-96z"/><path fill="#a77236" d="M202.1 112.6c-18.3 45.5-71.7 73-125.8 76.5l-.5 19.3c68-4.2 110.3-38.7 133.2-96z"/><path fill="none" stroke="#754c29" stroke-miterlimit="10" stroke-width="10" d="M85.9 112.4h177.9a10.1 10.1 0 0 1 10.1 10.1v120a68.1 68.1 0 0 1-68.1 68.1h-62a68.1 68.1 0 0 1-68.1-68.1V122.6a10.1 10.1 0 0 1 10.1-10.1zm123.1 0c-22.9 57.3-65.2 91.8-133.2 96m102.1-44.9c28 23.6 59.4 37.6 96 37.4"/><path fill="#eae8e8" d="M191.2 218.1h54.5a2.5 2.5 0 0 1 2.5 2.5v16.8a11.5 11.5 0 0 1-11.5 11.5h-36.4a11.5 11.5 0 0 1-11.5-11.5v-16.8a2.5 2.5 0 0 1 2.4-2.5z"/><path fill="#9dc1c9" d="M233.8 218.1h-27.6a13.8 13.8 0 1 0 27.6 0z"/><path fill="none" stroke="#754c29" stroke-miterlimit="10" stroke-width="10" d="M187 218.1l66.9-7.1"/><path fill="#eae8e8" d="M156.1 248.8h-36.5a11.5 11.5 0 0 1-11.5-11.5v-16.8a2.5 2.5 0 0 1 2.5-2.5h54.5a2.5 2.5 0 0 1 2.5 2.5v16.8a11.5 11.5 0 0 1-11.5 11.5z"/><path fill="#9dc1c9" d="M122.7 218.1h27.6a13.8 13.8 0 0 1-27.6 0z"/><path fill="none" stroke="#754c29" stroke-miterlimit="10" stroke-width="10" d="M169.4 218.1l-66.9-7.1"/><path fill="none" stroke="#cd8c72" stroke-linecap="round" stroke-linejoin="round" stroke-width="3" d="M152.8 277.3c17.5-5 34.4-8.7 48.7-6.7"/></svg>