<svg xmlns="http://www.w3.org/2000/svg" width="960" height="5in" viewBox="0 0 720 360.1"><defs><clipPath id="a"><path fill="none" d="M319.4 25.2h101.3v140.44H319.4z"/></clipPath><clipPath id="b"><path fill="none" d="M293.2 19.3h153.5v153.54H293.2z"/></clipPath></defs><path fill="#5fa4af" d="M562.5 289h-80.3v-38.7l18.7-18.6H544l18.5 18.6V289z"/><path fill="#a77236" d="M556 228.6l-6.6-6.7a5.5 5.5 0 0 0-3.8-1.6h-.4v3.7l.9.5 7.3 6.7a1.9 1.9 0 0 0 2.6 0 1.9 1.9 0 0 0 0-2.6z"/><path fill="#7c5523" d="M531.7 211.6c-6.9-1.9-12.1 4.7-12.1 12.4l26 .2c.4-11.5-9.2-11.3-13.9-12.6z"/><path fill="#868e98" d="M567.9 251.5a5.3 5.3 0 0 0-.6-6.6L548 225.5a5.6 5.6 0 0 0-3.7-1.5h-43.9a5.3 5.3 0 0 0-3.6 1.5l-19.2 19.3a5.3 5.3 0 0 0-.6 6.6 2.5 2.5 0 0 0 3.8.3l20.1-20H544l20.1 20.1a2.5 2.5 0 0 0 3.8-.3z"/><path fill="#abc8cf" d="M522.7 254.7a18.8 18.8 0 0 1 18.8 18.8V289h-37.6v-15.5a18.8 18.8 0 0 1 18.8-18.8z"/><rect width="85.9" height="8.34" x="479.4" y="289" fill="#868e98" rx="2"/><path fill="#606e7a" d="M514.4 297.4h16.1v62.73h-16.1z"/><path fill="#895e28" d="M531 189.1c.7-6.4-1.9-8.9-1.9-8.9s-4.6 2.8-4.3 6.2 6.2 2.7 6.2 2.7z"/><path fill="#98682f" d="M535.9 220.3c-1.2-.4-1.9-1.4-2.4-3.1a30.9 30.9 0 0 0-.7-3.5c-1.4-5.4-3.7-8.2-5.8-8.2s-4.5 6.4-4.5 18.6H536z"/><path fill="#ab7335" d="M519.4 203.3c-7.1 0-13 7.2-13 20.7h26.1c0-13.5-5.9-20.7-13.1-20.7z"/><circle cx="521.5" cy="195.9" r="11.8" fill="#a26e33"/><path fill="#895e28" d="M511.8 189.1c-.6-6.4 1.9-8.9 1.9-8.9s4.6 2.8 4.4 6.2-6.3 2.7-6.3 2.7z"/><path fill="#98682f" d="M516.8 213.6c.5 3.9.8 6.1 2.6 6.7l.2 3.7h-10.5z"/><path fill="#98682f" d="M513.7 205.1c-3.2 0-8.2 6.7-8.2 18.9h11.4c0-12.2-.1-18.9-3.2-18.9z"/><path fill="#895e28" d="M518.5 219.8c-1.8 0-3.2 1.5-3.2 4.2h6.4c0-2.7-1.4-4.2-3.2-4.2zm17.3.2c-1.8 0-3.2 1.4-3.2 4h6.4c0-2.6-1.4-4-3.2-4zm-6-23.8c-1.9 0-.9 2.1 0 2.7s1.9-2.4 0-2.7z"/><path fill="#afb1b4" d="M114 143.3h86a2.7 2.7 0 0 1 2.7 2.7v58.7h-91.5V146a2.7 2.7 0 0 1 2.8-2.7z"/><path fill="#414042" d="M202.2 210.4h-91l-3.2-6.1a.3.3 0 0 1 .2-.5h97.1a.3.3 0 0 1 .3.5z"/><path fill="#f4dddb" d="M114 145.6h85.8v56.51H114z"/><path fill="#eaae21" d="M576.9 166.2V360h6v-20.8h46.3V360h5.9V166.2zm52.3 161.6h-46.3v-46.3h46.3zm0-55.4h-46.3v-46.3h46.3zm0-55.4h-46.3v-46.2h46.3z"/><path fill="#5fa4af" d="M582.9 210.5h46.3v6.52h-46.3z"/><path fill="#e8b2b1" d="M582.9 204h39.8v6.52h-39.8z"/><path fill="#9dc1c9" d="M582.9 197.6h33.2v6.52h-33.2z"/><path fill="#ecc0be" d="M582.9 191h26.7v6.52h-26.7z"/><path fill="#949aa4" d="M582.9 184.5h20.2v6.52h-20.2z"/><path fill="#5fa4af" d="M582.9 177.8h13.7v6.69h-13.7z"/><path fill="#606e7a" d="M582.9 170.8h7.2v7.08h-7.2z"/><path fill="#b2b5bc" d="M586.1 250.9h39.7v19.87h-39.7zm.1-23.1h39.7v19.85h-39.7z"/><path fill="#606e7a" d="M614.9 227.8l-2.5 4.3a.9.9 0 0 1-.8.4h-11.4a.8.8 0 0 1-.7-.5l-2.4-4.2h-10.9v19.8h39.7v-19.8zm0 23.1l-2.5 4.3c-.1.3-.4.4-.8.4h-11.4a.7.7 0 0 1-.7-.4l-2.4-4.3h-11v19.9h39.8v-19.9z"/><path fill="#5fa4af" d="M648.6 68.6h7v291.38h-7z"/><path fill="#f6daa3" d="M651.8 63.2a42.4 42.4 0 0 1-37.5-22.5l-6.2-11.6h87.3l-6 11.3a42.4 42.4 0 0 1-37.6 22.8z"/><path fill="#eebc50" d="M655.3 68.6h-6.4a9.4 9.4 0 0 1-8.3-4.8l-1.5-2.6h26l-1.4 2.5a9.7 9.7 0 0 1-8.4 4.9z"/><path fill="none" stroke="#79828e" stroke-miterlimit="10" d="M221 139.1c15.2 13.5 22.7 29.6 21.4 48.5m12.9-26.3c-8.9 3.2-12.3 13.1-12.9 26.3m-14.9-18.9c8.6 2.8 12.7 10 14.9 18.9"/><path fill="#f0cecc" d="M226.6 169c-1-3.7-8.5-6.1-8.5-2.7s3 6.8 8.5 2.7z"/><path fill="#ecc0be" d="M226.6 169c2.8 4.5-1.4 6.3-3.2 5.5s-3.1-4.4 3.2-5.5z"/><path fill="#e8b2b1" d="M226.3 168.7c-3.6-3.9-2.4-7.9-.1-7.5s4 3.6 2.2 6.2c1-.2 1.5.5 1 2s-3.5 2.6-3.1-.7z"/><ellipse cx="226.2" cy="168.7" fill="#eaae21" rx=".8" ry="1"/><path fill="#f0cecc" d="M222.9 140.8c-3.2-2-3.4-9.9-.1-8.9s5.6 4.9.1 8.9z"/><path fill="#ecc0be" d="M222.9 140.8c3.5 4 6.5.5 6.2-1.5s-3.3-4.1-6.2 1.5z"/><path fill="#e8b2b1" d="M222.7 140.4c-2.7-4.5-6.8-4.5-7.1-2.2s2.3 4.9 5.3 3.9c-.5.9 0 1.5 1.6 1.6s3.5-2.7.2-3.3z"/><ellipse cx="222.7" cy="140.4" fill="#eaae21" rx=".8" ry="1" transform="rotate(-73.1 222.877 140.347)"/><path fill="#f0cecc" d="M254.6 161.6c-2.1-3.3 1.2-10.4 3.7-8.1s3 6.9-3.7 8.1z"/><path fill="#ecc0be" d="M254.6 161.6c1.4 5.1 5.5 3.3 6.2 1.4s-1.1-5.2-6.2-1.4z"/><path fill="#e8b2b1" d="M254.5 161.2c-.4-5.3-4.1-7.1-5.4-5.2s0 5.4 3 5.9c-.8.6-.5 1.4.9 2.1s4.2-.9 1.5-2.8z"/><ellipse cx="254.6" cy="161.1" fill="#eaae21" rx=".8" ry="1" transform="rotate(-47.3 254.904 161.16)"/><path fill="#79828e" d="M237.6 181.7c-1.2-2.6-1.7-6.3.2-11.3a16.5 16.5 0 0 1 5.4 13.1 16.4 16.4 0 0 1 13-5.3c-3.9 8.9-10.5 9-13.5 8.6l-.4-.2-.9-.2c-1.6.4-10.1 2.3-14.8-8.3a16.5 16.5 0 0 1 11 3.6z"/><path fill="#f0cecc" d="M229.6 198.2a13 13 0 0 0 10 12.6h5.7a13 13 0 0 0 10-12.6 12.9 12.9 0 0 0-25.7 0z"/><path fill="#eaae21" d="M229.6 198.2a11.8 11.8 0 0 0 .3 2.7c2.1-2.1 24.1 4.9 25.1 0a11.2 11.2 0 0 0 .3-2.7 12.4 12.4 0 0 0-.3-2.7s-23.9-5.8-25.1 0a12.4 12.4 0 0 0-.3 2.7z"/><path fill="#79828e" d="M234.5 142.6a12.9 12.9 0 0 1 1.6 14.4s-7.9-5.2-1.6-14.4zm1.7 15.7s-6.4 4.4-11-3.4a9.7 9.7 0 0 1 11 3.4z"/><path fill="#f0cecc" d="M236.1 157.4c2.1-3.2-1.2-10.4-3.7-8.1s-3 6.9 3.7 8.1z"/><path fill="#ecc0be" d="M236.1 157.4c-1.4 5.1-5.5 3.3-6.2 1.4s1.2-5.2 6.2-1.4z"/><path fill="#e8b2b1" d="M236.2 157c.4-5.2 4.1-7 5.4-5.1s.1 5.4-3 5.8c.8.6.5 1.4-.9 2.1s-4.2-.8-1.5-2.8z"/><ellipse cx="236.1" cy="157" fill="#eaae21" rx="1" ry=".8" transform="rotate(-42.7 235.796 156.904)"/><path fill="#5fa4af" d="M160.9 95.4V112h16.6V95.4zm8.4 12.9l-.7-2.3h-2.9l-.6 2.3h-1.6l2.8-8.6h1.8l2.8 8.6zm4.1 0h-1.6v-6.4h1.6zm-.8-7.5a.9.9 0 1 1 .9-.9.9.9 0 0 1-.9.9z"/><path fill="#5fa4af" d="M167.2 100.9c-.3 1-.5 2-.8 2.9l-.3 1h2.2l-.3-1c-.3-.9-.5-1.9-.8-2.9zm-17.9 19.4v16.6h16.6v-16.6zm5.3 12.9h-1.5v-8.6h1.5zm7.5 0h-1.2v-.7h-.1a2.7 2.7 0 0 1-1.8.8c-1.6 0-2.7-1.2-2.7-3.4s1.4-3.4 2.8-3.4a2.3 2.3 0 0 1 1.7.8v-3.4h1.5z"/><path fill="#5fa4af" d="M157.8 129.9c0 1.4.5 2.2 1.5 2.2a1.7 1.7 0 0 0 1.3-.8v-3a1.8 1.8 0 0 0-1.3-.5c-.8 0-1.5.8-1.5 2.1zm-26.6-4.2h-1v3h1.1c1.3 0 1.9-.5 1.9-1.6s-.7-1.4-2-1.4z"/><path fill="#5fa4af" d="M126.1 120.3v16.6h16.7v-16.6zm5.3 9.6h-1.2v3.2h-1.5v-8.6h2.7c1.9 0 3.3.6 3.3 2.6s-1.4 2.8-3.3 2.8zm6.4 3.3a4.2 4.2 0 0 1-2.4-.9l.7-1a2.7 2.7 0 0 0 1.8.8c.7 0 1-.4 1-.8s-.7-.8-1.4-1-1.8-.8-1.8-1.9.9-2 2.4-2a3.3 3.3 0 0 1 2.1.8l-.7.9a2.4 2.4 0 0 0-1.4-.5c-.6 0-.9.3-.9.7s.6.7 1.3 1 1.9.7 1.9 1.9-.9 2-2.6 2zm.1-37.8V112h16.6V95.4zm6.2 12.9l-1.1-2.1-.6-1.4h-.1l-.6 1.4-1.1 2.1H139l2.5-4.5-2.3-4.1h1.7l.9 1.9.7 1.3.6-1.3.9-1.9h1.6l-2.3 4.2 2.5 4.4zm8.2 0H151v-.7a3.3 3.3 0 0 1-1.9.8c-1.6 0-2.6-1.2-2.6-3.4s1.3-3.4 2.7-3.4a2.3 2.3 0 0 1 1.7.8V99h1.6z"/><path fill="#5fa4af" d="M147.9 105c0 1.4.6 2.2 1.5 2.2a1.7 1.7 0 0 0 1.3-.8v-3a1.7 1.7 0 0 0-1.3-.5c-.8 0-1.5.8-1.5 2.1zm36.7 22.5c-.8 0-1.4.5-1.5 1.6h2.8c0-1-.4-1.6-1.3-1.6zm-7.2-2h-.1l-.7 2.8-.3 1.1h2.2l-.3-1.1c-.3-.9-.6-1.9-.8-2.8z"/><path fill="#5fa4af" d="M172.5 120.2v16.6h16.6v-16.6zm7 12.7l-.7-2.3h-2.9l-.7 2.3h-1.5l2.8-8.6h1.8l2.8 8.6zm7.7-2.8h-4.1a1.8 1.8 0 0 0 1.9 1.8 3 3 0 0 0 1.5-.5l.5 1a4.1 4.1 0 0 1-2.2.7 3.4 3.4 0 0 1-.2-6.8c1.7 0 2.6 1.2 2.6 3z"/><path fill="#e8b2b1" d="M606 120.3v-16.7a1.1 1.1 0 0 0-.5-1.2l-12.2-12.3-1.2 1.2 12.2 12.3v16.7h-12.9l7 45.9h14.2l7.4-45.9z"/><path fill="#e8b2b1" d="M606 103l-1.6.7c-.1 0-.2 0-.2-.1h.1l1.6-.7h.1z"/><path fill="#e8b2b1" d="M606 103.5l-1.7.2 1.7-.2a.1.1 0 0 1 .1.1h-.1z"/><path fill="#e8b2b1" d="M604.3 103.5l1.2-1.1a.1.1 0 0 1 .2 0v.2l-1.3 1.1"/><rect width="31.1" height="3.53" x="590.5" y="118.6" fill="#5fa4af" rx=".8"/><path fill="#52979e" d="M41.4 308.3h27.7L67.8 336h-25l-1.4-27.7z"/><path fill="#606e7a" d="M38.2 304.7h34.1v3.59H38.2z"/><path fill="#eaae21" d="M47.4 310.8H64v4.49H47.4z"/><path fill="#606e7a" d="M81 224.7V280H30.3v-55.3h-7.2v138.4h7.2v-20.2H81v20.2h7.2V224.7zM30.3 335.4v-47.9H81v47.9zm295.9-110.7V280h-50.8v-55.3h-7.2v138.4h7.2v-20.2h50.8v20.2h7.2V224.7zm-50.8 110.7v-47.9h50.8v47.9z"/><path fill="#e8b2b1" d="M30.3 233.4h11.3v46.67H30.3z"/><path fill="#f4dddb" d="M41.4 245.4h6.4V280h-6.4z"/><path fill="#ecc0be" d="M47.8 235.5h7.4v44.56h-7.4z"/><path fill="#e8b2b1" d="M55.2 243.1h2.4v36.96h-2.4z"/><path fill="#f4dddb" d="M57.6 248.8H60v31.23h-2.4z"/><path fill="#f0cecc" d="M60 246.2h2.4v33.87H60z"/><path fill="#f4dddb" d="M62.4 240.8h3.4v39.22h-3.4z"/><path fill="#e8b2b1" d="M65.8 249.4h4.9v30.68h-4.9z"/><path fill="#f4dddb" d="M70.7 230.1H77v49.97h-6.3z"/><path fill="#ecc0be" d="M77 238.8h4V280h-4z"/><path fill="#e8b2b1" d="M81 389.7H69.7v-46.67H81z"/><path fill="#f4dddb" d="M69.9 377.6h-6.4V343h6.4z"/><path fill="#ecc0be" d="M63.5 387.6h-7.4v-44.56h7.4z"/><path fill="#e8b2b1" d="M56 380h-2.4v-36.96H56z"/><path fill="#f4dddb" d="M53.7 374.2h-2.4v-31.23h2.4z"/><path fill="#f0cecc" d="M51.3 376.9h-2.4v-33.87h2.4z"/><path fill="#f4dddb" d="M48.9 382.2h-3.4v-39.22h3.4z"/><path fill="#e8b2b1" d="M45.5 373.7h-4.9v-30.68h4.9z"/><path fill="#f4dddb" d="M40.6 393h-6.3v-49.97h6.3z"/><path fill="#ecc0be" d="M34.3 384.2h-4V343h4z"/><path fill="#5ea1ac" d="M326.2 389.7h-11.3v-46.67h11.3z"/><path fill="#bbd1d7" d="M315.1 377.6h-6.4V343h6.4z"/><path fill="#8db7c0" d="M308.7 387.6h-7.4v-44.56h7.4z"/><path fill="#5ea1ac" d="M301.3 380h-2.4v-36.96h2.4z"/><path fill="#bbd1d7" d="M298.8 374.2h-2.4v-31.23h2.4z"/><path fill="#8db7c0" d="M296.4 376.9H294v-33.87h2.4z"/><path fill="#bbd1d7" d="M294.1 382.2h-3.4v-39.22h3.4z"/><path fill="#5ea1ac" d="M290.6 373.7h-4.9v-30.68h4.9z"/><path fill="#bbd1d7" d="M285.8 393h-6.3v-49.97h6.3z"/><path fill="#8db7c0" d="M279.5 384.2h-4V343h4z"/><path fill="#e8b2b1" d="M287 255.9h27.7l-1.3 24.1h-25l-1.4-24.1z"/><path fill="#eaae21" d="M283.8 252.4h34.1v3.59h-34.1zm9.2 7.1h16.6v4.49H293z"/><path fill="#ecc0be" d="M183.9 305.1h-19.3v-80.5h-2.5v83.1h19.4V363h2.5l-.1-57.9zm-22.8 17.7h-19.3v-98.1h-2.6v100.6h19.4V363h2.6l-.1-40.2z"/><path fill="#5fa4af" d="M151 332.8h-19.3V223.6h-2.6v111.8h19.4v26.8h2.6l-.1-29.4zm24.5-35.9v-73.4h-2.9v76.2h20v63.5h2.9v-66.3h-20z"/><path fill="#ecc0be" d="M185.9 287v-62.3h-2.8v65.1h20v73.3h2.8V287h-20z"/><path fill="#5fa4af" d="M195.8 277.1v-62.3h-2.9V280h20v83.1h2.9v-86h-20z"/><path fill="#ecc0be" d="M204 268.4v-43.8h-2.8v46.7h20v91.9h2.8v-94.8h-20z"/><path fill="#5fa4af" d="M214.2 259.8v-35.1h-2.9v37.9h20v100.6h2.9V259.8h-20z"/><path fill="#ecc0be" d="M222.8 250.9v-26.4H220v29.2h20v109.4h2.8V250.9h-20z"/><path fill="#5fa4af" d="M233.1 240.7v-16.1h-2.8v18.9h20v119.7h2.8V240.7h-20z"/><path fill="#ecc0be" d="M243.7 232v-7.3h-2.8v10.1h20v128.3h2.8V232h-20z"/><path fill="#5fa4af" d="M153 313.3v-88.7h-2.8v91.5h20V363h2.8v-49.7h-20zm-19.4 40.9h-19.4V224.7h-2.5v132h19.4v6.6h2.5v-9.1z"/><path fill="#ecc0be" d="M101.6 224.6h2.5v138.62h-2.5z"/><path fill="#5fa4af" d="M93.1 224.6h2.5v138.62h-2.5z"/><path fill="#ecc0be" d="M142.6 343.6h-19.4l-.7-119.1H120l.7 121.6h19.4v17.1h2.5v-19.6z"/><rect width="321.6" height="14.25" x="17.4" y="210.4" fill="#5fa4af" rx="1.4"/><path fill="#e8b2b1" d="M299.4 318.2c-9.5 0-13.4 7.7-13.4 17.2h26.7c0-9.5-3.8-17.2-13.3-17.2z"/><path fill="#414042" d="M311.3 300.5s-4-2.3-8.4 1.7a9.5 9.5 0 0 0-4.1-.9 10 10 0 0 0-4.2 1c-4.5-4.1-8.5-1.8-8.5-1.8a6.7 6.7 0 0 0 3.8 7.2 8.1 8.1 0 0 0-.6 3.1 9.5 9.5 0 0 0 19 0 8.7 8.7 0 0 0-.6-3.2 6.6 6.6 0 0 0 3.6-7.1z"/><path fill="#ecc0be" d="M311.3 300.5s-4-2.3-8.4 1.7a9.5 9.5 0 0 0-4.1-.9 10 10 0 0 0-4.2 1c-4.5-4.1-8.5-1.8-8.5-1.8a6.7 6.7 0 0 0 3.8 7.2 8.1 8.1 0 0 0-.6 3.1 9.5 9.5 0 0 0 19 0 8.7 8.7 0 0 0-.6-3.2 6.6 6.6 0 0 0 3.6-7.1z"/><path fill="#f4dddb" d="M312.6 332.1a3.3 3.3 0 0 0-3.3 3.3h6.6a3.3 3.3 0 0 0-3.3-3.3zm-25.7 0a3.3 3.3 0 0 0-3.3 3.3h6.6a3.3 3.3 0 0 0-3.3-3.3z"/><path fill="#f6e5e3" d="M294.2 302.5a7.4 7.4 0 0 0-7.2-1.9c4.5.3 6.1 2.5 6.3 3.1a2.3 2.3 0 0 1 .9-1.2zm8.9 0a7.4 7.4 0 0 1 7.2-1.9c-4.5.3-6.1 2.5-6.3 3.1a2.3 2.3 0 0 0-.9-1.2z"/><ellipse cx="299" cy="315" fill="#f6e5e3" rx="3.9" ry="2.9"/><ellipse cx="297.4" cy="315" fill="#e39a9b" rx=".8" ry="1.7"/><ellipse cx="297.4" cy="315" fill="#ecc0be" rx=".7" ry="1.5"/><ellipse cx="300.7" cy="315" fill="#e39a9b" rx=".8" ry="1.7"/><ellipse cx="300.7" cy="315" fill="#ecc0be" rx=".7" ry="1.5"/><path fill="#f6daa3" d="M118.8 151.3h43.3v25.81h-43.3z"/><path fill="#afb1b4" d="M118.8 182.8h25.7v15.31h-25.7z"/><path fill="#d39090" d="M146.4 182.8h15.8v15.31h-15.8z"/><path fill="#f0efef" d="M165.9 149.3h27.5v23.2h-27.5z"/><rect width="5.3" height="1.88" x="167.4" y="150.9" fill="#eaae21" rx=".9"/><rect width="18" height="1.88" x="173.3" y="150.9" fill="#9dc1c9" rx=".9"/><rect width="5.3" height="1.88" x="169.3" y="153.9" fill="#eaae21" rx=".9"/><rect width="10" height="1.88" x="175.2" y="153.9" fill="#9dc1c9" rx=".9"/><rect width="5.3" height="1.88" x="171.2" y="156.8" fill="#eaae21" rx=".9"/><rect width="10" height="1.88" x="177.1" y="156.8" fill="#9dc1c9" rx=".9"/><rect width="5.3" height="1.88" x="169.3" y="159.5" fill="#eaae21" rx=".9"/><rect width="5.3" height="1.88" x="167.4" y="162.5" fill="#eaae21" rx=".9"/><path fill="#696a6d" d="M54.4 186.2h11.2a.7.7 0 0 1 .7.7v23.5H53.7v-23.5a.7.7 0 0 1 .7-.7z"/><path fill="#f0efef" d="M54.8 187.7h10.4v20.07H54.8z"/><circle cx="60" cy="209.3" r=".9" fill="#414042"/><path fill="#414042" d="M58.5 186.7h2.9v.35h-2.9z"/><path fill="#fff" d="M54.8 187.7h10.4v2.78H54.8z"/><circle cx="60" cy="189.1" r="1" fill="#b89bc9"/><rect width="2.7" height="1.26" x="55.1" y="191.2" fill="#5fa4af" rx=".6"/><rect width="2.7" height="1.26" x="55.1" y="199.9" fill="#5fa4af" rx=".6"/><rect width="5.3" height="1.26" x="59.5" y="192.7" fill="#5fa4af" rx=".6"/><rect width="2.8" height="1.26" x="62" y="194.5" fill="#5fa4af" rx=".6"/><rect width="1.6" height="1.26" x="63.2" y="196.3" fill="#5fa4af" rx=".6"/><rect width="4.9" height="1.26" x="59.9" y="198.2" fill="#5fa4af" rx=".6"/><path fill="#f0cecc" d="M285.5 246.5a6 6 0 0 0 4.7 5.9h2.6a6 6 0 1 0-7.3-5.9z"/><path fill="#eaae21" d="M285.5 246.5c0 .5.1.9.1 1.3s11.3 2.3 11.7 0a4 4 0 0 0 0-2.5s-11.1-2.7-11.7 0c0 .4-.1.8-.1 1.2z"/><path fill="#f0cecc" d="M315.2 246.5a6 6 0 0 1-4.6 5.9h-2.7a6 6 0 1 1 7.3-5.9z"/><path fill="#eaae21" d="M315.2 246.5a5.3 5.3 0 0 1-.1 1.3c-1-1-11.2 2.3-11.7 0a4 4 0 0 1 0-2.5s11.1-2.7 11.7 0a4.9 4.9 0 0 1 .1 1.2z"/><path fill="#8db7c0" d="M374.7 376.1h-29l-4.9-76.9h38.7l-4.8 76.9z"/><path fill="#d3d3d3" d="M362.8 296.8l-6.5-6.6-.3 2.5-7.4-4.9 1.9 4a3.7 3.7 0 0 0-2.1-.6 4 4 0 0 0-3.3 1.9l-2.1-2.9-.5 7.3h3.1a3.6 3.6 0 0 0 2.8 1.2 3.8 3.8 0 0 0 3.8-3.4l.4.9z"/><rect width="40" height="6.59" x="340.1" y="294.4" fill="#606e7a" rx="1.5"/><path fill="#e8b2b1" d="M281.1 201.4h53.6v9h-53.6z"/><path fill="#5fa4af" d="M286.1 198.7h43.7v2.73h-43.7z"/><path fill="#afb1b4" d="M286.4 175.6h43.7v2.73h-43.7z"/><path fill="#eaae21" d="M289.1 195.9h43.7v2.73h-43.7z"/><path fill="#d39090" d="M281.1 192.6h53.6v3.36h-53.6z"/><path fill="#5ea1ac" d="M589.2 327.6v-9.7h40.06v9.7z"/><path fill="#bbd1d7" d="M599.5 318.1v-5.5h29.7v5.5z"/><path fill="#8db7c0" d="M591 312.5v-6.4h38.25v6.4z"/><path fill="#5ea1ac" d="M597.5 306.2v-2h31.72v2z"/><path fill="#bbd1d7" d="M602.5 304.2v-2h26.8v2z"/><path fill="#8db7c0" d="M600.2 302.1v-2h29.07v2z"/><path fill="#bbd1d7" d="M595.6 300.1v-3h33.66v3z"/><path fill="#5ea1ac" d="M602.9 297.1v-4.2h26.33v4.2z"/><path fill="#bbd1d7" d="M586.3 293v-5.4h42.89v5.4z"/><path fill="#8db7c0" d="M593.9 287.6v-3.5h35.36v3.5z"/><path fill="#bb9848" d="M278.8 189.2h53.6v3.36h-53.6z"/><path fill="#abc8cf" d="M289.7 178.3h36.9v10.91h-36.9z"/><path fill="#52979e" d="M592.3 349.1H620l-1.4 27.7h-24.9l-1.4-27.7z"/><path fill="#606e7a" d="M589.1 345.5h34.1v3.59h-34.1z"/><path fill="#eaae21" d="M598.3 351.6h16.6v4.49h-16.6z"/><path fill="#d39090" d="M433.7 255.6h-34v104.7h4.9v-8.8h24.2v8.8h9.9v-8.8h24.2v8.8h4.9V255.6zm-4.9 88.4h-24.2v-38.6h24.2zm0-46.1h-24.2v-38.5h24.2zm34.1 46.1h-24.2v-38.6h24.2zm0-46.1h-24.2v-38.5h24.2z"/><path fill="none" stroke="#7eafb9" stroke-miterlimit="10" stroke-width=".5" d="M423.7 221.6c7.2 6.4 10.7 14 10.1 23m6.1-12.5c-4.2 1.5-5.8 6.2-6.1 12.5m-7.1-9c4.1 1.3 6.1 4.7 7.1 9"/><path fill="#f0cecc" d="M426.3 235.8c-.5-1.8-4-2.9-4-1.3s1.4 3.2 4 1.3z"/><path fill="#ecc0be" d="M426.3 235.8c1.3 2.1-.6 2.9-1.5 2.6s-1.5-2.1 1.5-2.6z"/><path fill="#e8b2b1" d="M426.2 235.6c-1.7-1.8-1.1-3.7-.1-3.6a2 2 0 0 1 1.1 3c.5-.1.7.2.5 1s-1.7 1.2-1.5-.4z"/><ellipse cx="426.1" cy="235.6" fill="#eaae21" rx=".4" ry=".5"/><path fill="#f0cecc" d="M424.6 222.4c-1.6-1-1.6-4.7-.1-4.2s2.7 2.3.1 4.2z"/><path fill="#ecc0be" d="M424.6 222.4c1.6 1.9 3 .2 2.9-.7s-1.5-2-2.9.7z"/><path fill="#e8b2b1" d="M424.5 222.2c-1.3-2.1-3.3-2.1-3.4-1.1a2 2 0 0 0 2.5 1.9c-.2.4 0 .7.8.7s1.6-1.2.1-1.5z"/><ellipse cx="424.5" cy="222.2" fill="#eaae21" rx=".4" ry=".5" transform="rotate(-73.1 424.806 222.106)"/><path fill="#f0cecc" d="M439.6 232.2c-1-1.5.6-4.9 1.8-3.8s1.4 3.3-1.8 3.8z"/><path fill="#ecc0be" d="M439.6 232.2c.7 2.5 2.6 1.6 2.9.7s-.5-2.5-2.9-.7z"/><path fill="#e8b2b1" d="M439.6 232c-.2-2.4-2-3.3-2.6-2.4a2 2 0 0 0 1.4 2.8c-.3.3-.2.6.4 1s2.1-.4.8-1.4z"/><ellipse cx="439.6" cy="232" fill="#eaae21" rx=".4" ry=".5" transform="rotate(-47.3 440.076 232.046)"/><path fill="#7eafb9" d="M431.5 241.8a7.1 7.1 0 0 1 .1-5.4 8 8 0 0 1 2.6 6.3 7.7 7.7 0 0 1 6.2-2.6c-1.9 4.2-5 4.3-6.4 4.1h-.1s0-.1-.2-.2h-.4c-.7.3-4.7 1.1-7-3.9a7.6 7.6 0 0 1 5.2 1.7z"/><path fill="#eaae21" d="M427.7 249.6a6.2 6.2 0 0 0 4.8 6h2.7a6.1 6.1 0 0 0-1.4-12.1 6.2 6.2 0 0 0-6.1 6.1z"/><path fill="#e8b2b1" d="M427.7 249.6a5.1 5.1 0 0 0 .2 1.3c1-1 11.4 2.3 11.9 0a5.3 5.3 0 0 0 .1-1.3 5.7 5.7 0 0 0-.1-1.3s-11.3-2.7-11.9 0a5.9 5.9 0 0 0-.2 1.3z"/><path fill="#7eafb9" d="M430.1 223.3a6.1 6.1 0 0 1 .7 6.8s-3.7-2.5-.7-6.8zm.8 7.4s-3.1 2.1-5.3-1.6a4.7 4.7 0 0 1 5.3 1.6z"/><path fill="#f0cecc" d="M430.9 230.3c.9-1.6-.7-5-1.8-3.9s-1.4 3.3 1.8 3.9z"/><path fill="#ecc0be" d="M430.9 230.3c-.7 2.4-2.7 1.5-3 .6s.5-2.4 3-.6z"/><path fill="#e8b2b1" d="M430.9 230.1c.2-2.5 1.9-3.4 2.6-2.5a2 2 0 0 1-1.5 2.8c.4.3.3.7-.4 1s-2-.4-.7-1.3z"/><ellipse cx="430.8" cy="230.1" fill="#eaae21" rx=".5" ry=".4" transform="rotate(-42.7 430.329 229.996)"/><path fill="#eaae21" d="M407 265.5h18.2v26.14H407z"/><path fill="#f4d28f" d="M409.5 269.2h13.1v18.88h-13.1z"/><path fill="#5ea1ac" d="M411.4 271.9h9.4v13.48h-9.4z"/><path fill="#abc8cf" d="M413 274.1h6.2v8.97H413z"/><path fill="#e8b2b1" d="M413.9 275.5h4.4v6.26h-4.4z"/><path fill="#f2d6d3" d="M414.7 276.6h2.8v3.97h-2.8zm26.8-11.1h18.2v26.14h-18.2z"/><path fill="#e8b2b1" d="M444 269.2h13.1v18.88H444z"/><path fill="#abc8cf" d="M445.9 271.9h9.4v13.48h-9.4z"/><path fill="#5ea1ac" d="M447.5 274.1h6.2v8.97h-6.2z"/><path fill="#f4d28f" d="M448.4 275.5h4.4v6.26h-4.4z"/><path fill="#eaae21" d="M449.2 276.6h2.8v3.97h-2.8z"/><path fill="#e8b2b1" d="M406.8 337.9h6.6l-6.6-6.6v6.6z"/><path fill="#f2d6d3" d="M406.8 331.3l6.6 6.6v-6.6h-6.6zm6.6-6.6h6.6l-6.6-6.6v6.6z"/><path fill="#e8b2b1" d="M413.4 318.1l6.6 6.6v-6.6h-6.6z"/><path fill="#5ea1ac" d="M413.4 337.9h6.6l-6.6-6.6v6.6z"/><path fill="#abc8cf" d="M413.4 331.3l6.6 6.6v-6.6h-6.6z"/><path fill="#f4d28f" d="M420 337.9h6.6l-6.6-6.6v6.6z"/><path fill="#eaae21" d="M420 331.3l6.6 6.6v-6.6H420z"/><path fill="#e8b2b1" d="M406.8 318.1h6.6l-6.6-6.6v6.6z"/><path fill="#f2d6d3" d="M406.8 311.5l6.6 6.6v-6.6h-6.6z"/><path fill="#5ea1ac" d="M413.4 318.1h6.6l-6.6-6.6v6.6z"/><path fill="#abc8cf" d="M413.4 311.5l6.6 6.6v-6.6h-6.6z"/><path fill="#f4d28f" d="M420 318.1h6.6l-6.6-6.6v6.6z"/><path fill="#eaae21" d="M420 311.5l6.6 6.6v-6.6H420z"/><path fill="#f4d28f" d="M406.8 324.7h6.6l-6.6-6.6v6.6z"/><path fill="#eaae21" d="M406.8 318.1l6.6 6.6v-6.6h-6.6z"/><path fill="#abc8cf" d="M406.8 331.3h6.6l-6.6-6.6v6.6z"/><path fill="#5ea1ac" d="M406.8 324.7l6.6 6.6v-6.6h-6.6zm13.2 0h6.6l-6.6-6.6v6.6z"/><path fill="#abc8cf" d="M420 318.1l6.6 6.6v-6.6H420z"/><path fill="#eaae21" d="M413.4 331.3h6.6l-6.6-6.6v6.6z"/><path fill="#f4d28f" d="M413.4 324.7l6.6 6.6v-6.6h-6.6z"/><path fill="#e8b2b1" d="M420 331.3h6.6l-6.6-6.6v6.6z"/><path fill="#f2d6d3" d="M420 324.7l6.6 6.6v-6.6H420z"/><path fill="#e8b2b1" d="M460.5 311.5h-6.6l6.6 6.6v-6.6z"/><path fill="#f2d6d3" d="M460.5 318.1l-6.6-6.6v6.6h6.6zm-6.6 6.6h-6.6l6.6 6.6v-6.6z"/><path fill="#e8b2b1" d="M453.9 331.3l-6.6-6.6v6.6h6.6z"/><path fill="#5ea1ac" d="M453.9 311.5h-6.6l6.6 6.6v-6.6z"/><path fill="#abc8cf" d="M453.9 318.1l-6.6-6.6v6.6h6.6z"/><path fill="#f4d28f" d="M447.3 311.5h-6.6l6.6 6.6v-6.6z"/><path fill="#eaae21" d="M447.3 318.1l-6.6-6.6v6.6h6.6z"/><path fill="#e8b2b1" d="M460.5 331.3h-6.6l6.6 6.6v-6.6z"/><path fill="#f2d6d3" d="M460.5 337.9l-6.6-6.6v6.6h6.6z"/><path fill="#5ea1ac" d="M453.9 331.3h-6.6l6.6 6.6v-6.6z"/><path fill="#abc8cf" d="M453.9 337.9l-6.6-6.6v6.6h6.6z"/><path fill="#f4d28f" d="M447.3 331.3h-6.6l6.6 6.6v-6.6z"/><path fill="#eaae21" d="M447.3 337.9l-6.6-6.6v6.6h6.6z"/><path fill="#f4d28f" d="M460.5 324.7h-6.6l6.6 6.6v-6.6z"/><path fill="#eaae21" d="M460.5 331.3l-6.6-6.6v6.6h6.6z"/><path fill="#abc8cf" d="M460.5 318.1h-6.6l6.6 6.6v-6.6z"/><path fill="#5ea1ac" d="M460.5 324.7l-6.6-6.6v6.6h6.6zm-13.2 0h-6.6l6.6 6.6v-6.6z"/><path fill="#abc8cf" d="M447.3 331.3l-6.6-6.6v6.6h6.6z"/><path fill="#eaae21" d="M453.9 318.1h-6.6l6.6 6.6v-6.6z"/><path fill="#f4d28f" d="M453.9 324.7l-6.6-6.6v6.6h6.6z"/><path fill="#e8b2b1" d="M447.3 318.1h-6.6l6.6 6.6v-6.6z"/><path fill="#f2d6d3" d="M447.3 324.7l-6.6-6.6v6.6h6.6z"/><path fill="#5ea1ac" d="M466.6 248.4l-2.4-.9v-.8a1.9 1.9 0 0 0-1.9-1.9h-1.7a1.8 1.8 0 0 0 1.9-1.9v-3.5a2.2 2.2 0 0 0-.9-1.7v-7.1a.6.6 0 1 0-1.2 0v6.9h-3.1v-6.9c0-.4-.2-.7-.6-.7a.7.7 0 0 0-.6.7v7.1a2.1 2.1 0 0 0-.9 1.7v3.5a1.8 1.8 0 0 0 1.9 1.9h-1.7a1.9 1.9 0 0 0-1.9 1.9v.9l-2.1.8a1.9 1.9 0 0 0-1.1 2.5 2 2 0 0 0 2.4 1.1l.8-.3v2a1.9 1.9 0 0 0 1.9 1.9h6.9a1.9 1.9 0 0 0 1.9-1.9v-2.1l1 .4a1.9 1.9 0 1 0 1.4-3.6z"/><path fill="#5fa4af" d="M19.6 104.6h71.7v71.71H19.6z"/><path fill="#f0efef" d="M21.8 106.8h67.3v67.34H21.8z"/><path fill="#f6daa3" d="M64.1 129.4h14.8v3.71H64.1z"/><path fill="#f2cb7c" d="M64.1 124.3h14.8v3.71H64.1z"/><path fill="#eebc50" d="M64.1 119.1h14.8v3.71H64.1z"/><path fill="#eaae21" d="M64.1 113.9h14.8v3.71H64.1z"/><path fill="#bcd3d8" d="M46.8 129.4h14.8v3.71H46.8z"/><path fill="#9dc1c9" d="M46.8 124.3h14.8v3.71H46.8z"/><path fill="#7fb2bb" d="M46.8 119.1h14.8v3.71H46.8z"/><path fill="#5fa4af" d="M46.8 113.9h14.8v3.71H46.8z"/><path fill="#f4dddb" d="M29.1 129.4h14.8v3.71H29.1z"/><path fill="#f0cecc" d="M29.1 124.3h14.8v3.71H29.1z"/><path fill="#ecc0be" d="M29.1 119.1h14.8v3.71H29.1z"/><path fill="#e8b2b1" d="M29.1 113.9h14.8v3.71H29.1z"/><path fill="#afb1b4" d="M64.1 156.5h14.8v3.71H64.1z"/><path fill="#8c8e90" d="M64.1 151.3h14.8v3.71H64.1z"/><path fill="#696a6d" d="M64.1 146.1h14.8v3.71H64.1z"/><path fill="#414042" d="M64.1 141h14.8v3.71H64.1z"/><path fill="#b2b5bc" d="M46.8 156.5h14.8v3.71H46.8z"/><path fill="#949aa4" d="M46.8 151.3h14.8v3.71H46.8z"/><path fill="#79828e" d="M46.8 146.1h14.8v3.71H46.8z"/><path fill="#606e7a" d="M46.8 141h14.8v3.71H46.8z"/><path fill="#f2cb7c" d="M486 26.4h71.2v135.68H486z"/><path fill="#bb9848" d="M486 89.5h71.2v1.6H486zm5.9 6.6H503v11.06h-11.1zm12.1 0h11.1v11.06H504zm12.1 0h11.1v11.06h-11.1zm12 0h11.1v11.06h-11.1zm12.1 0h11.1v11.06h-11.1zm-48.3 12H503v11.06h-11.1zm12.1 0h11.1v11.06H504zm12.1 0h11.1v11.06h-11.1zm12 0h11.1v11.06h-11.1zm12.1 0h11.1v11.06h-11.1zm-48.3 12.1H503v11.06h-11.1zm12.1 0h11.1v11.06H504zm12.1 0h11.1v11.06h-11.1zm12 0h11.1v11.06h-11.1zm12.1 0h11.1v11.06h-11.1zm-48.3 12.1H503v11.06h-11.1zm12.1 0h11.1v11.06H504zm12.1 0h11.1v11.06h-11.1zm12 0h11.1v11.06h-11.1zm12.1 0h11.1v11.06h-11.1zm-48.3 12H503v11.06h-11.1zm12.1 0h11.1v11.06H504zm12.1 0h11.1v11.06h-11.1zm12 0h11.1v11.06h-11.1zm12.1 0h11.1v11.06h-11.1z"/><path fill="#f7ddac" d="M552.4 37.6v48h-50l50-48z"/><path fill="#c68383" d="M38.9 33.6c-5.4 23.1 10.9 30.9 16.9 27.2 8.3-5.1 6.2-21.7-16.9-27.2z"/><path fill="#c68383" d="M38.9 33.6C44.3 56.7 28 64.5 22 60.8c-8.3-5.1-6.2-21.7 16.9-27.2z"/><path fill="#d39090" d="M38.9 33.6h-.1c-16.7 16.8-7 32.1.1 32.1 9.8 0 16.7-15.3 0-32.1z"/><path fill="#ddab41" d="M39.4 31.6V-1.9h-1.1v33.5c-1.4.2-5.2 1-5.5 3.9h12.1c-.3-2.9-4.1-3.7-5.5-3.9z"/><path fill="#c68383" d="M106.1 33.6C100.7 56.7 117 64.5 123 60.8c8.3-5.1 6.2-21.7-16.9-27.2z"/><path fill="#c68383" d="M106.1 33.6c5.4 23.1-10.9 30.9-16.9 27.2-8.3-5.1-6.2-21.7 16.9-27.2z"/><path fill="#d39090" d="M106.1 33.6h-.1c-16.7 16.8-7 32.1.1 32.1 9.8 0 16.7-15.3 0-32.1z"/><path fill="#ddab41" d="M106.6 31.6V-1.9h-1.1v33.5c-1.4.2-5.2 1-5.5 3.9h12.1c-.3-2.9-4.1-3.7-5.5-3.9z"/><path fill="#c68383" d="M173.8 33.6h-.1c-5.3 23.1 11 30.9 16.9 27.2 8.4-5.1 6.3-21.7-16.8-27.2z"/><path fill="#c68383" d="M173.8 33.6c5.4 23.1-10.9 30.9-16.9 27.2-8.4-5.1-6.2-21.7 16.9-27.2z"/><path fill="#d39090" d="M173.8 33.6h-.1c-16.7 16.8-7 32.1 0 32.1 9.9 0 16.8-15.3.1-32.1z"/><path fill="#ddab41" d="M174.2 31.6V-1.9h-1v33.5c-1.4.2-5.2 1-5.5 3.9h12.1c-.4-2.9-4.1-3.7-5.6-3.9z"/><path fill="#c68383" d="M242.8 33.6h-.1c-5.4 23.1 10.9 30.9 16.9 27.2 8.4-5.1 6.2-21.7-16.8-27.2z"/><path fill="#c68383" d="M242.7 33.6h.1c5.4 23.1-10.9 30.9-16.9 27.2-8.4-5.1-6.2-21.7 16.8-27.2z"/><path fill="#d39090" d="M242.7 33.6c-16.8 16.8-7 32.1 0 32.1 9.9 0 16.8-15.3 0-32.1z"/><path fill="#ddab41" d="M243.2 31.6V-1.9h-1v33.5c-1.5.2-5.2 1-5.6 3.9h12.1c-.3-2.9-4.1-3.7-5.5-3.9z"/><path fill="#606e7a" d="M678.9 261.4V125.7H731v-6.5h-57.8V268H731v-6.6h-52.1z"/><path fill="#b2b5bc" d="M678.9 191l52.1 17.6v-82.9h-52.1V191z"/><path fill="#d1d2d6" d="M678.9 191v70.4H731v-52.8L678.9 191z"/><path fill="#eaae21" d="M731 287.5V277h-57.8v10.5h13V310h-13v10.4h13v29.2h-13V360H731v-10.4h-39.6v-29.2H731V310h-39.6v-22.5H731z"/><path fill="#8a919c" d="M701.9 295.3h26.7v10.59h-26.7z"/><path fill="#505c66" d="M700.1 305.9h34.3v4.1h-34.3zm0-6.2h34.3v3.08h-34.3zm0-7.5h34.3v3.49h-34.3z"/><path fill="#606e7a" d="M691.3 334.2h1.7v15.43h-1.7z"/><path fill="#7e8792" d="M693.1 334.2h1.7v15.43h-1.7z"/><path fill="#606e7a" d="M694.8 334.2h1.7v15.43h-1.7z"/><path fill="#7e8792" d="M696.6 334.2h1.7v15.43h-1.7z"/><path fill="#606e7a" d="M698.3 334.2h1.7v15.43h-1.7z"/><path fill="#7e8792" d="M700 334.2h1.7v15.43H700z"/><path fill="#606e7a" d="M701.8 334.2h1.7v15.43h-1.7z"/><path fill="#7e8792" d="M703.5 334.2h1.7v15.43h-1.7z"/><path fill="#606e7a" d="M705.2 334.2h1.7v15.43h-1.7z"/><path fill="#7e8792" d="M706.958 335.578l1.583-.62 5.63 14.366-1.583.62z"/><g clip-path="url(#a)"><path fill="#606e7a" d="M417.8 25.2h-98.4l37.4 67.2-37.4 67.3h20v-3.1h-14.9l34-61.2 8.4 15.2-8 14.3 4.3-1.4 5.4-9.9 8 14.5 4.4 1.4-10.7-18.9 8.4-15.2 34 61.2h-13v3.1h18.1l-37.4-67.3zm-93.3 3.1h88.2l-34 61.1-8.4-15.1L381 55.4l-4.4 1.3-8 14.5-11.9-21.3-4.2-1.4 14.4 25.8-8.4 15.1zm44.1 79.3l-8.4-15.2 8.4-15.1 8.4 15.1z"/><g fill="#e8b2b1" clip-path="url(#b)"><path d="M319.7 106h2.9V84.8h-2.9v-.5h10.8v.5h-2.8v9.9h1.2l8.6-8.3c.7-.7.6-1.6-.9-1.6h-1.2v-.5h6.2v.5h-.5c-1.1 0-1.6.4-2.9 1.7l-5.5 5.4 9 14.1h1.2v.5h-10.1v-.5h2.7l-6.8-10.7h-1V106h2.8v.5h-10.8zm73.2 0h1c1.5 0 2-.7 2-2V84.8h-2.8v-.5h8l6 16.2 5.9-16.2h7.7v.5h-2.8V106h2.8v.5h-10.9v-.5h3V86.3l-7.3 20.2h-1.4l-7.7-20.1V104c0 1.3.5 2 2 2h1v.5h-6.5zm-51.6 54.8h1.7v-12.1h-1.7v-.3h5.5c4.5 0 6.4 2.4 6.4 6.1s-1.7 6.6-6.4 6.6h-5.5zm5.6 0c2.9 0 4.3-2.1 4.3-6.1s-1.4-6-4.3-6h-2v12.1zm10-4c0 3.3.7 4.1 2.3 4.1a2.6 2.6 0 0 0 2.7-2.3h.3a2.7 2.7 0 0 1-1.8 2.4l-1.4.2c-2.4 0-3.9-1.3-3.9-4.4s1.6-4.5 3.9-4.5 3.4 1.1 3.4 3.5v.7h-5.5zm3.8-.6v-.7c0-1.8-.4-2.9-1.7-2.9s-2.1 1.2-2.1 3.6zm3.4 5a9.9 9.9 0 0 0 .2-1.8V158h.3v.7c0 1 1.1 2.2 2.9 2.2s2.2-.5 2.2-1.6-5.5-.8-5.5-4.4c0-2 1.7-2.6 3-2.6a3.1 3.1 0 0 1 2.2.8 1.1 1.1 0 0 0 .7-.8h.3a3.6 3.6 0 0 0-.3 1.8v1h-.3v-.3a2.3 2.3 0 0 0-2.6-2.2c-1.2 0-2.3.5-2.3 1.6s5.6.9 5.6 4.3a2.8 2.8 0 0 1-3.1 2.7 3.5 3.5 0 0 1-2.4-.9c-.4.1-.6.6-.7.9zm7.7-.4h1.3v-8.1h-1.3v-.3h3v8.4h1.4v.3h-4.4zm2.1-12.6a1.1 1.1 0 0 1 1 1 1.1 1.1 0 0 1-1 1.1 1.1 1.1 0 0 1-1.1-1.1 1.1 1.1 0 0 1 1.1-1m5.7 14.4c-.7-.1-1 .3-1 1.1s.9 1.6 2.7 1.6 3.6-.6 3.6-2-1.7-1.4-3.6-1.5-4.1-.4-4.1-2.2a2.7 2.7 0 0 1 1.5-2.2 2.6 2.6 0 0 1-.9-2.1c0-1.7 1.1-3 3.4-3a4 4 0 0 1 2.6.8 1.1 1.1 0 0 0 .6-1.1c0-.7-.3-1-.9-1h.7c1 0 1.4.5 1.4 1s-.8 1-1.6 1.5a2.9 2.9 0 0 1 .7 1.9c0 1.8-1.3 2.9-3.5 2.9a3.9 3.9 0 0 1-2.3-.6c-.5.4-1 .9-1 1.4s1.6 1.1 3.6 1.3 4 .5 4 2.5-2.1 2.9-4.2 2.9-4-.8-4-2 .9-1.3 1.7-1.3h.6zm3.4-7.4c0-1.5-.4-2.6-1.8-2.6s-1.7 1.1-1.7 2.7.3 2.6 1.7 2.6 1.8-1.1 1.8-2.7m3.1 5.6h1.4v-8.1h-1.4v-.3h3v2.1h.1a3.2 3.2 0 0 1 3.1-2.2c1.9 0 2.7.8 2.7 2.6v5.9h1.4v.3h-4.3v-.3h1.3v-6.2c0-1.5-.4-2-1.4-2a2.3 2.3 0 0 0-2.1 1.2 4 4 0 0 0-.7 2.1v4.9h1.2v.3h-4.3z"/></g></g></svg>