<svg xmlns="http://www.w3.org/2000/svg" width="960" height="2.7in" viewBox="0 0 720 197.6"><defs><clipPath id="a"><path fill="none" d="M307.2 21.9h101.3v140.44H307.2z"/></clipPath><clipPath id="b"><path fill="none" d="M281 16h153.5v153.54H281z"/></clipPath><clipPath id="c"><path fill="none" d="M130 69.4h10.2v14.14H130z"/></clipPath><clipPath id="d"><path fill="none" d="M127.4 68.8h15.5v15.46h-15.5z"/></clipPath></defs><path fill="#495965" d="M600.9 172.8h-54.5v-26.3l12.7-12.6h29.2l12.6 12.6v26.3z"/><path fill="#a77236" d="M596.5 131.7l-4.5-4.5a3.6 3.6 0 0 0-2.6-1.1h-.3v2.5l.6.3 5 4.6a1.3 1.3 0 0 0 1.8 0 1.3 1.3 0 0 0 0-1.8z"/><path fill="#7c5523" d="M580 120.2c-4.7-1.3-8.2 3.2-8.2 8.4l17.6.2c.3-7.9-6.2-7.7-9.4-8.6z"/><path fill="#656f7a" d="M604.6 147.3a3.6 3.6 0 0 0-.5-4.5L591 129.7a3.2 3.2 0 0 0-2.4-1.1h-29.8a3.6 3.6 0 0 0-2.5 1.1l-13 13.1a3.5 3.5 0 0 0-.4 4.4 1.6 1.6 0 0 0 2.6.2l13.6-13.5h29.2l13.7 13.6a1.7 1.7 0 0 0 2.6-.2z"/><path fill="#b8babf" d="M573.9 149.5a12.8 12.8 0 0 1 12.8 12.8v10.5h-25.6v-10.6a12.8 12.8 0 0 1 12.8-12.7z"/><rect width="58.3" height="5.66" x="544.5" y="172.8" fill="#656f7a" rx="2"/><path fill="#57636f" d="M568.2 178.4h10.9v19.15h-10.9z"/><path fill="#895e28" d="M579.5 105c.5-4.4-1.3-6.1-1.3-6.1s-3.1 1.9-2.9 4.2 4.2 1.9 4.2 1.9z"/><path fill="#98682f" d="M582.8 126.1c-.8-.2-1.3-.9-1.6-2.1a15.5 15.5 0 0 0-.5-2.3c-.9-3.7-2.5-5.6-3.9-5.6s-3.1 4.4-3.1 12.6h9.2z"/><path fill="#ab7335" d="M571.7 114.5c-4.9 0-8.8 5-8.8 14.1h17.6c0-9.1-3.9-14.1-8.8-14.1z"/><circle cx="573.1" cy="109.5" r="8" fill="#a26e33"/><path fill="#895e28" d="M566.5 105c-.4-4.4 1.3-6.1 1.3-6.1s3.1 1.9 3 4.2-4.3 1.9-4.3 1.9z"/><path fill="#98682f" d="M569.9 121.6c.3 2.6.5 4.1 1.8 4.5v2.5h-7.2z"/><path fill="#98682f" d="M567.8 115.8c-2.2 0-5.6 4.6-5.6 12.8h7.8c0-8.2-.1-12.8-2.2-12.8z"/><path fill="#895e28" d="M571 125.8c-1.2 0-2.1 1-2.1 2.8h4.3c0-1.8-1-2.8-2.2-2.8zm11.8.1c-1.2 0-2.2 1-2.2 2.7h4.3c0-1.7-.9-2.7-2.1-2.7zm-4.1-16.1c-1.3 0-.6 1.4 0 1.8s1.3-1.7 0-1.8z"/><path fill="#3d999b" d="M275.8 197.6h-21.6l-3.7-20.2h28.9l-3.6 20.2z"/><path fill="#cbccd1" d="M266.9 175.6l-4.8-4.9-.2 1.9-5.5-3.7 1.3 3a2.5 2.5 0 0 0-1.5-.5 2.8 2.8 0 0 0-2.5 1.5l-1.6-2.2-.3 5.4h2.3a2.7 2.7 0 0 0 2.1.9 2.9 2.9 0 0 0 2.8-2.5l.3.6z"/><rect width="29.8" height="4.92" x="250" y="173.8" fill="#495965" rx="1.5"/><path fill="none" stroke="#3d999b" stroke-miterlimit="10" stroke-width=".5" d="M650.8 10.6c9.8 8.7 14.6 19.1 13.8 31.3m8.3-16.9c-5.8 2-8 8.4-8.3 16.9m-9.7-12.2c5.6 1.8 8.2 6.4 9.7 12.2"/><path fill="#f0cecb" d="M654.3 29.9c-.6-2.4-5.4-4-5.4-1.8s1.9 4.4 5.4 1.8z"/><path fill="#e5a3a2" d="M654.3 29.9c1.8 2.9-.8 4.1-2 3.5s-2-2.8 2-3.5z"/><path fill="#e09090" d="M654.2 29.7c-2.3-2.5-1.6-5.1-.1-4.9a2.8 2.8 0 0 1 1.4 4.1c.7-.2 1 .3.7 1.3s-2.3 1.6-2-.5z"/><ellipse cx="654.1" cy="29.7" fill="#eaae21" rx=".5" ry=".7"/><path fill="#f0cecb" d="M652 11.7c-2.1-1.3-2.2-6.4-.1-5.8s3.6 3.2.1 5.8z"/><path fill="#e5a3a2" d="M652 11.7c2.2 2.6 4.1.4 4-.9s-2.1-2.7-4 .9z"/><path fill="#e09090" d="M651.8 11.5c-1.7-3-4.4-3-4.6-1.5a2.7 2.7 0 0 0 3.4 2.6c-.3.5.1.9 1.1.9s2.2-1.6.1-2z"/><ellipse cx="651.9" cy="11.4" fill="#eaae21" rx=".5" ry=".7" transform="rotate(-73.1 652.221 11.203)"/><path fill="#f0cecb" d="M672.4 25.1c-1.3-2.1.8-6.7 2.4-5.2s1.9 4.4-2.4 5.2z"/><path fill="#e5a3a2" d="M672.4 25.1c.9 3.3 3.6 2.1 4 .9s-.7-3.3-4-.9z"/><path fill="#e09090" d="M672.4 24.8c-.3-3.3-2.7-4.5-3.5-3.3a2.7 2.7 0 0 0 1.9 3.8c-.5.4-.3.9.6 1.4s2.7-.6 1-1.9z"/><ellipse cx="672.4" cy="24.8" fill="#eaae21" rx=".5" ry=".7" transform="rotate(-47.3 672.973 24.615)"/><path fill="#56a0a3" d="M661.5 38.1a8.7 8.7 0 0 1 .1-7.3 10.8 10.8 0 0 1 3.5 8.5 10.5 10.5 0 0 1 8.4-3.5c-2.6 5.8-6.8 5.9-8.8 5.6h-.8c-1.1.3-6.5 1.5-9.6-5.4a10.8 10.8 0 0 1 7.2 2.1z"/><path fill="#eaae21" d="M656.3 48.7a8.2 8.2 0 0 0 6.4 8.1h3.7a8.3 8.3 0 1 0-10.1-8.1z"/><path fill="#e09090" d="M656.3 48.7a5.2 5.2 0 0 0 .2 1.8c1.4-1.4 15.5 3.2 16.2 0a7.8 7.8 0 0 0 0-3.5s-15.4-3.7-16.2 0a5 5 0 0 0-.2 1.7z"/><path fill="#56a0a3" d="M659.5 12.9a8.2 8.2 0 0 1 1 9.2s-5.1-3.3-1-9.2zm1.1 10.1s-4.2 2.8-7.2-2.2a6.5 6.5 0 0 1 7.2 2.2z"/><path fill="#f0cecb" d="M660.5 22.4c1.3-2.1-.8-6.7-2.4-5.2s-1.9 4.4 2.4 5.2z"/><path fill="#e5a3a2" d="M660.5 22.4c-.9 3.3-3.6 2.2-4 .9s.7-3.3 4-.9z"/><path fill="#e09090" d="M660.5 22.2c.3-3.4 2.7-4.6 3.5-3.3s.1 3.4-1.9 3.7c.5.4.3.9-.6 1.4s-2.7-.6-1-1.8z"/><ellipse cx="660.5" cy="22.1" fill="#eaae21" rx=".7" ry=".5" transform="rotate(-42.7 659.86 22.294)"/><path fill="#d14c4b" d="M709.1 47.2l-3.2-1.2v-1.1a2.6 2.6 0 0 0-2.6-2.6H701a2.6 2.6 0 0 0 2.6-2.6v-4.8a2.5 2.5 0 0 0-1.3-2.2v-9.8a.8.8 0 1 0-1.6 0v9.4h-4.2v-9.4a.8.8 0 1 0-1.6 0v9.7a2.4 2.4 0 0 0-1.3 2.2v4.8a2.6 2.6 0 0 0 2.6 2.6h-2.4a2.6 2.6 0 0 0-2.5 2.6V46l-2.9 1.1a2.5 2.5 0 0 0-1.4 3.3 2.5 2.5 0 0 0 3.3 1.5l1-.3v2.7a2.5 2.5 0 0 0 2.5 2.5h9.5a2.5 2.5 0 0 0 2.6-2.5v-2.8l1.3.5a2.6 2.6 0 1 0 1.9-4.8z"/><path fill="#52979e" d="M39.2 160.3h19.2l-.9 19.3H40.2l-1-19.3z"/><path fill="#606e7a" d="M36.9 157.8h23.7v2.49H36.9z"/><path fill="#eaae21" d="M43.4 162H55v3.12H43.4z"/><path fill="#606e7a" d="M66.7 102.2v38.5H31.4v-38.5h-5v95.4h5v-13.2h35.3v13.2h5v-95.4zm-35.3 77v-33.3h35.3v33.3zm205.7-77v38.5h-35.2v-38.5h-5.1v95.4h5.1v-13.2h35.2v13.2h5v-95.4zm-35.2 77v-33.3h35.2v33.3z"/><path fill="#e8b2b1" d="M31.4 108.2h7.8v32.44h-7.8z"/><path fill="#f4dddb" d="M39.2 116.6h4.4v24.05h-4.4z"/><path fill="#ecc0be" d="M43.6 109.7h5.2v30.98h-5.2z"/><path fill="#e8b2b1" d="M48.8 115h1.7v25.69h-1.7z"/><path fill="#f4dddb" d="M50.4 119h1.7v21.71h-1.7z"/><path fill="#f0cecc" d="M52.1 117.1h1.7v23.54h-1.7z"/><path fill="#f4dddb" d="M53.7 113.4h2.4v27.26h-2.4z"/><path fill="#e8b2b1" d="M56.1 119.3h3.4v21.33h-3.4z"/><path fill="#f4dddb" d="M59.5 105.9h4.4v34.74h-4.4z"/><path fill="#ecc0be" d="M63.9 112h2.8v28.64h-2.8z"/><path fill="#e8b2b1" d="M66.7 197.5h-7.8v-13.11h7.8z"/><path fill="#f4dddb" d="M59 197.6h-4.4v-13.19H59z"/><path fill="#ecc0be" d="M54.5 197.5h-5.2v-13.11h5.2z"/><path fill="#e8b2b1" d="M49.3 197.6h-1.7v-13.19h1.7z"/><path fill="#f4dddb" d="M47.7 197.6H46v-13.19h1.7z"/><path fill="#f0cecc" d="M46 197.6h-1.7v-13.19H46z"/><path fill="#f4dddb" d="M44.4 197.5H42v-13.11h2.4z"/><path fill="#e8b2b1" d="M42 197.6h-3.4v-13.19H42z"/><path fill="#f4dddb" d="M38.7 197.5h-4.4v-13.11h4.4z"/><path fill="#ecc0be" d="M34.3 197.6h-2.8v-13.19h2.8z"/><path fill="#5ea1ac" d="M237.1 197.6h-7.8v-13.16h7.8z"/><path fill="#bbd1d7" d="M229.3 197.5h-4.4v-13.15h4.4z"/><path fill="#8db7c0" d="M224.9 197.5h-5.2v-13.15h5.2z"/><path fill="#5ea1ac" d="M219.8 197.5h-1.7v-13.15h1.7z"/><path fill="#bbd1d7" d="M218.1 197.6h-1.7v-13.16h1.7z"/><path fill="#8db7c0" d="M216.5 197.5h-1.7v-13.15h1.7z"/><path fill="#bbd1d7" d="M214.8 197.5h-2.4v-13.15h2.4z"/><path fill="#5ea1ac" d="M212.4 197.6H209v-13.16h3.4z"/><path fill="#bbd1d7" d="M209 197.6h-4.4v-13.16h4.4z"/><path fill="#8db7c0" d="M204.6 197.5h-2.8v-13.15h2.8z"/><path fill="#e09090" d="M209.9 123.9h19.2l-.9 16.8h-17.3l-1-16.8z"/><path fill="#d14c4b" d="M207.6 121.4h23.7v2.49h-23.7zm6.5 5h11.6v3.12h-11.6z"/><path fill="#e09090" d="M138.2 158.1h-13.4v-56H123v57.8h13.5v37.7h1.8l-.1-39.5zm-15.8 12.3h-13.5v-68.2h-1.7v69.9h13.5v25.5h1.7v-27.2z"/><path fill="#ebb8b6" d="M115.3 177.4h-13.4v-75.9h-1.7v77.6h13.4v18.5h1.8l-.1-20.2zm17-25v-51h-1.9v53h13.9v43.2h2v-45.2h-14z"/><path fill="#e09090" d="M139.6 145.5v-43.3h-2v45.3h13.9v50.1h2v-52.1h-13.9z"/><path fill="#ebb8b6" d="M146.5 138.7V95.3h-2v45.3h13.9v57h2v-58.9h-13.9z"/><path fill="#e09090" d="M152.2 132.6v-30.4h-1.9v32.4h13.9v63h1.9v-65h-13.9z"/><path fill="#ebb8b6" d="M159.2 126.6v-24.4h-1.9v26.4h13.9v69h1.9v-71h-13.9z"/><path fill="#e09090" d="M165.3 120.4v-18.3h-2v20.3h13.9v75.2h2v-77.2h-13.9z"/><path fill="#ebb8b6" d="M172.4 113.3v-11.1h-1.9v13.1h13.9v82.3h1.9v-84.3h-13.9z"/><path fill="#e09090" d="M179.8 107.3v-5.1h-2v7h13.9v88.4h2v-90.3h-13.9z"/><path fill="#ebb8b6" d="M116.8 163.8v-61.7h-2v63.6h13.9v31.9h2v-33.8h-13.9zm-13.6 28.4H89.8v-90H88V194h13.5v3.6h1.7v-5.4z"/><path fill="#e09090" d="M81 102.2h1.8v95.4H81z"/><path fill="#ebb8b6" d="M75.1 102.2h1.8v95.4h-1.8z"/><path fill="#e09090" d="M109.5 184.8H96l-.4-82.7h-1.8l.5 84.5h13.5v11h1.7v-12.8z"/><rect width="223.5" height="9.91" x="22.5" y="92.3" fill="#5fa4af" rx="1.4"/><path fill="#e09090" d="M218.5 167.2c-6.6 0-9.3 5.4-9.3 12h18.5c0-6.6-2.6-12-9.2-12z"/><path fill="#414042" d="M226.8 154.9s-2.8-1.6-5.9 1.2a6.4 6.4 0 0 0-2.8-.6 6.5 6.5 0 0 0-2.9.6c-3.1-2.8-6-1.2-6-1.2a4.7 4.7 0 0 0 2.7 5 5.2 5.2 0 0 0-.4 2.1 6.6 6.6 0 1 0 13.2 0 8.5 8.5 0 0 0-.4-2.2 4.6 4.6 0 0 0 2.5-4.9z"/><path fill="#e09090" d="M226.8 154.9s-2.8-1.6-5.9 1.2a6.4 6.4 0 0 0-2.8-.6 6.5 6.5 0 0 0-2.9.6c-3.1-2.8-6-1.2-6-1.2a4.7 4.7 0 0 0 2.7 5 5.2 5.2 0 0 0-.4 2.1 6.6 6.6 0 1 0 13.2 0 8.5 8.5 0 0 0-.4-2.2 4.6 4.6 0 0 0 2.5-4.9z"/><path fill="#f0cecb" d="M227.7 176.9a2.3 2.3 0 0 0-2.3 2.3h4.6a2.3 2.3 0 0 0-2.3-2.3zm-17.9 0a2.3 2.3 0 0 0-2.3 2.3h4.6a2.3 2.3 0 0 0-2.3-2.3zm5.1-20.6c-2.5-2.2-4.8-1.4-5-1.3 3.1.2 4.2 1.7 4.3 2.1a1.9 1.9 0 0 1 .7-.8zm6.2 0a4.9 4.9 0 0 1 5-1.3c-3.2.2-4.3 1.7-4.4 2.1a1.2 1.2 0 0 0-.6-.8z"/><ellipse cx="218.2" cy="164.9" fill="#f0cecb" rx="2.7" ry="2"/><ellipse cx="217.1" cy="164.9" fill="#e39a9b" rx=".5" ry="1.2"/><ellipse cx="217.1" cy="164.9" fill="#f0cecb" rx=".5" ry="1"/><ellipse cx="219.4" cy="164.9" fill="#e39a9b" rx=".5" ry="1.2"/><ellipse cx="219.4" cy="164.9" fill="#f0cecb" rx=".5" ry="1"/><path fill="#9fc2c5" d="M208.8 117.4a4.1 4.1 0 0 0 3.3 4h1.8a4.1 4.1 0 0 0 3.3-4 4.2 4.2 0 0 0-8.4 0z"/><path fill="#3d999b" d="M208.8 117.4c0 .3.1.6.1.9s7.8 1.5 8.2 0 .1-.6.1-.9-.1-.6-.1-.9-7.8-1.9-8.2 0c0 .3-.1.6-.1.9z"/><path fill="#9fc2c5" d="M229.5 117.4a4.1 4.1 0 0 1-3.2 4h-1.9a4.1 4.1 0 0 1-3.2-4 4.1 4.1 0 0 1 4.1-4.2 4.2 4.2 0 0 1 4.2 4.2z"/><path fill="#3d999b" d="M229.5 117.4a2.8 2.8 0 0 1-.1.9c-.7-.8-7.8 1.5-8.1 0a4.1 4.1 0 0 1 0-1.8s7.7-1.9 8.1 0a2.8 2.8 0 0 1 .1.9z"/><path fill="#edc2b7" d="M553.3 6.1h37v70.6h-37z"/><path fill="#d14c4b" d="M553.3 38.9h37v.83h-37z"/><path fill="#e09090" d="M556.4 42.3h5.8v5.76h-5.8zm6.2 0h5.8v5.76h-5.8zm6.3 0h5.8v5.76h-5.8zm6.3 0h5.8v5.76h-5.8zm6.3 0h5.8v5.76h-5.8zm-25.1 6.3h5.8v5.76h-5.8z"/><path fill="#d14c4b" d="M562.6 48.6h5.8v5.76h-5.8z"/><path fill="#e09090" d="M568.9 48.6h5.8v5.76h-5.8zm6.3 0h5.8v5.76h-5.8zm6.3 0h5.8v5.76h-5.8zm-25.1 6.3h5.8v5.76h-5.8zm6.2 0h5.8v5.76h-5.8zm6.3 0h5.8v5.76h-5.8zm6.3 0h5.8v5.76h-5.8zm6.3 0h5.8v5.76h-5.8zm-25.1 6.3h5.8v5.76h-5.8zm6.2 0h5.8v5.76h-5.8zm6.3 0h5.8v5.76h-5.8z"/><path fill="#d14c4b" d="M575.2 61.2h5.8v5.76h-5.8z"/><path fill="#e09090" d="M581.5 61.2h5.8v5.76h-5.8zm-25.1 6.2h5.8v5.76h-5.8zm6.2 0h5.8v5.76h-5.8zm6.3 0h5.8v5.76h-5.8zm6.3 0h5.8v5.76h-5.8zm6.3 0h5.8v5.76h-5.8zm6.3-55.5v25h-26l26-25z"/><path fill="#e49e9e" d="M454.9 18.3c-3.1 13.2 6.2 17.6 9.6 15.5s3.5-12.4-9.6-15.5z"/><path fill="#e49e9e" d="M454.9 18.3c3.1 13.2-6.2 17.6-9.6 15.5s-3.5-12.4 9.6-15.5z"/><path fill="#e09090" d="M454.9 18.3c-9.6 9.6-4 18.3 0 18.3 5.6 0 9.5-8.7 0-18.3z"/><path fill="#ddab41" d="M455.2 17.1v-19h-.6v19c-.8.2-3 .7-3.2 2.3h6.9c-.2-1.6-2.3-2.1-3.1-2.3z"/><path fill="#e49e9e" d="M487.6 18.3h-.1c-3 13.2 6.2 17.6 9.6 15.5s3.6-12.4-9.5-15.5z"/><path fill="#e49e9e" d="M487.5 18.3h.1c3 13.2-6.3 17.6-9.7 15.5s-3.5-12.4 9.6-15.5z"/><path fill="#e09090" d="M487.5 18.3c-9.5 9.6-4 18.3 0 18.3 5.6 0 9.6-8.7 0-18.3z"/><path fill="#ddab41" d="M487.8 17.1v-19h-.6v19c-.8.2-3 .7-3.1 2.3h6.8c-.1-1.6-2.3-2.1-3.1-2.3z"/><path fill="#e49e9e" d="M522.1 18.3c-3.1 13.2 6.2 17.6 9.6 15.5s3.5-12.4-9.6-15.5z"/><path fill="#e49e9e" d="M522.1 18.3c3.1 13.2-6.2 17.6-9.6 15.5s-3.5-12.4 9.6-15.5z"/><path fill="#e09090" d="M522.1 18.3c-9.5 9.6-4 18.3 0 18.3 5.6 0 9.5-8.7 0-18.3z"/><path fill="#ddab41" d="M522.4 17.1v-19h-.6v19c-.8.2-3 .7-3.2 2.3h6.9c-.2-1.6-2.3-2.1-3.1-2.3z"/><path fill="#e49e9e" d="M186.5 18.3h-.1c-3 13.2 6.3 17.6 9.7 15.5s3.5-12.4-9.6-15.5z"/><path fill="#e49e9e" d="M186.5 18.3c3.1 13.2-6.2 17.6-9.6 15.5s-3.6-12.4 9.6-15.5z"/><path fill="#e09090" d="M186.5 18.3h-.1c-9.5 9.6-3.9 18.3 0 18.3 5.7 0 9.6-8.7.1-18.3z"/><path fill="#ddab41" d="M186.7 17.1v-19h-.6v19c-.8.2-2.9.7-3.1 2.3h6.9c-.2-1.6-2.4-2.1-3.2-2.3z"/><path fill="#e49e9e" d="M219.1 18.3c-3.1 13.2 6.2 17.6 9.6 15.5s3.5-12.4-9.6-15.5z"/><path fill="#e49e9e" d="M219.1 18.3c3.1 13.2-6.2 17.6-9.6 15.5s-3.5-12.4 9.6-15.5z"/><path fill="#e09090" d="M219.1 18.3c-9.5 9.6-4 18.3 0 18.3 5.6 0 9.5-8.7 0-18.3z"/><path fill="#ddab41" d="M219.4 17.1v-19h-.6v19c-.8.2-3 .7-3.2 2.3h6.9c-.2-1.6-2.3-2.1-3.1-2.3z"/><path fill="#e49e9e" d="M253.7 18.3c-3.1 13.2 6.2 17.6 9.6 15.5s3.5-12.4-9.6-15.5z"/><path fill="#e49e9e" d="M253.7 18.3c3.1 13.2-6.2 17.6-9.6 15.5s-3.5-12.4 9.6-15.5z"/><path fill="#e09090" d="M253.7 18.3h-.1c-9.5 9.6-3.9 18.3.1 18.3 5.6 0 9.5-8.7 0-18.3z"/><path fill="#ddab41" d="M253.9 17.1v-19h-.6v19c-.8.2-2.9.7-3.1 2.3h6.9c-.2-1.6-2.4-2.1-3.2-2.3z"/><g clip-path="url(#a)"><path fill="#606e7a" d="M405.7 21.9h-98.5l37.4 67.2-37.4 67.3h20v-3.1h-14.9l34-61.1 8.4 15.1-7.9 14.4 4.2-1.4 5.4-10 8 14.6 4.4 1.3-10.7-18.9 8.4-15.1 34.1 61.1h-13.1v3.1h18.2l-37.5-67.3zM312.3 25h88.3l-34.1 61.1-8.4-15.1 10.7-18.9-4.4 1.3-8 14.5-11.8-21.3-4.3-1.4L354.7 71l-8.4 15.1zm44.1 79.3L348 89.1l8.4-15.1 8.5 15.1z"/><g fill="#e8b2b1" clip-path="url(#b)"><path d="M307.6 102.7h2.8V81.5h-2.8V81h10.7v.5h-2.8v10h1.2l8.6-8.3c.7-.8.7-1.7-.9-1.7h-1.2V81h6.3v.5h-.6c-1.1 0-1.6.4-2.9 1.7l-5.5 5.4 9 14.1h1.3v.5h-10.2v-.5h2.8L316.5 92h-1v10.7h2.8v.5h-10.7zm73.1 0h1c1.5 0 2-.7 2-2V81.5h-2.8V81h8l6.1 16.2 5.8-16.2h7.7v.5h-2.8v21.2h2.8v.5h-10.9v-.5h3V83.1l-7.3 20.1h-1.4l-7.7-20.1v17.6c0 1.3.5 2 2 2h1.1v.5h-6.6zm-51.6 54.8h1.7v-12.1h-1.7v-.3h5.6c4.5 0 6.4 2.4 6.4 6.1s-1.8 6.6-6.4 6.6h-5.6zm5.6 0c2.9 0 4.3-2.1 4.3-6s-1.4-6.1-4.3-6.1h-2v12.1zm10-4c0 3.3.8 4.1 2.3 4.1a2.5 2.5 0 0 0 2.7-2.3h.3a2.6 2.6 0 0 1-1.8 2.4 3 3 0 0 1-1.4.2c-2.4 0-3.9-1.3-3.9-4.4s1.6-4.5 3.9-4.5 3.4 1.1 3.4 3.5v.7h-5.5zm3.8-.5v-.8c0-1.8-.4-2.9-1.7-2.9s-2 1.2-2.1 3.7zm3.4 4.9a8.2 8.2 0 0 0 .2-1.8v-1.4h.3v.7c0 1 1.1 2.2 2.9 2.2s2.2-.5 2.2-1.6-5.5-.8-5.5-4.4c0-2 1.7-2.6 3-2.6a3.1 3.1 0 0 1 2.2.8c.5 0 .6-.5.7-.8h.3a3.6 3.6 0 0 0-.3 1.8v1h-.3v-.3a2.3 2.3 0 0 0-2.6-2.2c-1.2 0-2.2.5-2.2 1.6s5.5.9 5.5 4.3a2.7 2.7 0 0 1-3 2.7 3.6 3.6 0 0 1-2.5-.9 1.6 1.6 0 0 0-.7.9zm7.7-.4h1.4v-8.1h-1.4v-.2h3.1v8.3h1.3v.3h-4.4zm2.1-12.6a1.1 1.1 0 0 1 1 1 1.1 1.1 0 0 1-1 1.1 1.1 1.1 0 0 1-1.1-1.1 1.1 1.1 0 0 1 1.1-1m5.7 14.4c-.7-.1-1 .3-1 1.2s.9 1.5 2.7 1.5 3.6-.6 3.6-2-1.7-1.4-3.6-1.5-4.1-.3-4.1-2.1a2.9 2.9 0 0 1 1.5-2.3 2.6 2.6 0 0 1-.9-2.1c0-1.7 1.2-3 3.5-3a3.9 3.9 0 0 1 2.5.8 1.1 1.1 0 0 0 .6-1.1c0-.7-.2-1-.9-1h.7c1 0 1.4.5 1.4 1s-.8 1-1.6 1.5a2.6 2.6 0 0 1 .7 1.9c0 1.8-1.3 2.9-3.5 2.9a4.9 4.9 0 0 1-2.3-.5 1.8 1.8 0 0 0-1 1.4c0 1.1 1.6 1 3.7 1.2s3.9.5 3.9 2.5-2 2.9-4.2 2.9-3.9-.7-3.9-1.9a1.5 1.5 0 0 1 1.6-1.4h.6zm3.4-7.4c0-1.5-.3-2.6-1.8-2.6s-1.7 1.1-1.7 2.7.3 2.6 1.7 2.6 1.8-1.1 1.8-2.7m3.2 5.6h1.3v-8.1H374v-.2h3v2a3.2 3.2 0 0 1 3.1-2.2c1.9 0 2.8.8 2.8 2.7v5.8h1.3v.3H380v-.3h1.2v-6.2c0-1.4-.4-1.9-1.4-1.9a2.4 2.4 0 0 0-2.1 1.1 4 4 0 0 0-.7 2.1v4.9h1.2v.3H374z"/></g></g><path fill="#3d999b" d="M482.6 61.8v135.7h4.2V183h32.4v14.5h4.1V61.8zM519.2 175h-32.4v-32.5h32.4zm0-38.8h-32.4v-32.4h32.4zm0-38.8h-32.4V65h32.4z"/><path fill="#d14c4b" d="M486.8 92.9h32.4v4.56h-32.4z"/><path fill="#d45e57" d="M486.8 88.3h27.8v4.56h-27.8z"/><path fill="#d86f64" d="M486.8 83.8h23.3v4.56h-23.3z"/><path fill="#dc7f72" d="M486.8 79.2h18.7v4.56h-18.7z"/><path fill="#e08f81" d="M486.8 74.6H501v4.56h-14.2z"/><path fill="#e49f92" d="M486.8 70h9.6v4.68h-9.6z"/><path fill="#e9b0a4" d="M486.8 65h5v4.96h-5z"/><path fill="#e9ae21" d="M519.2 174.9h-32.4v-4.56h32.4z"/><path fill="#ecb538" d="M519.2 170.4h-27.8v-4.56h27.8z"/><path fill="#eebc50" d="M519.2 165.9h-23.3v-4.56h23.3z"/><path fill="#f0c367" d="M519.2 161.3h-18.7v-4.56h18.7z"/><path fill="#f2cb7c" d="M519.2 156.7H505v-4.56h14.2z"/><path fill="#f4d28f" d="M519.2 152.2h-9.6v-4.68h9.6z"/><path fill="#f5daa3" d="M519.2 147.6h-5v-4.96h5z"/><path fill="#e09090" d="M502.9 119.4v-6.1a.4.4 0 0 0-.2-.4l-4.5-4.5-.4.4 4.4 4.5v6.1h-4.7l2.6 16.8h5.2l2.7-16.8z"/><path fill="#d14c4b" d="M502.9 113.1l-.6.2c-.1.1-.1 0-.1 0l.6-.3zm0 .2z"/><path fill="#d14c4b" d="M502.2 113.3l.5-.4-.4.4"/><rect width="11.3" height="1.29" x="497.2" y="118.8" fill="#d14c4b" rx=".6"/><path fill="#3d999b" d="M493.4 189.9h19.3l-.9 7.6h-17.4l-1-7.6z"/><path fill="#495965" d="M491.1 187.4H515v2.51h-23.9z"/><path fill="#d14c4b" d="M497.6 191.6h11.7v3.14h-11.7z"/><path fill="#afb1b4" d="M90.2 45.2h58.2a2.7 2.7 0 0 1 2.7 2.7v40H87.5v-40a2.7 2.7 0 0 1 2.7-2.7z"/><path fill="#414042" d="M150.8 91.9H87.5l-2.3-4.2a.3.3 0 0 1 .2-.4H153a.3.3 0 0 1 .2.4z"/><path fill="#fff" d="M89.5 46.8h59.7v39.33H89.5z"/><path fill="none" stroke="#79828e" stroke-miterlimit="10" d="M158.4 42.3c10.6 9.4 15.8 20.6 14.9 33.8m9-18.3c-6.2 2.2-8.6 9.1-9 18.3m-10.4-13.2c6 1.9 8.9 6.9 10.4 13.2"/><path fill="#ebb8b6" d="M162.3 63.1c-.7-2.6-5.9-4.3-5.9-1.9s2.1 4.7 5.9 1.9z"/><path fill="#e5a3a2" d="M162.3 63.1c1.9 3.1-1 4.4-2.3 3.8s-2.1-3 2.3-3.8z"/><path fill="#e09090" d="M162.1 62.9c-2.5-2.7-1.7-5.5-.1-5.2a2.9 2.9 0 0 1 1.6 4.3c.7-.2 1 .3.7 1.4s-2.5 1.8-2.2-.5z"/><ellipse cx="162" cy="62.9" fill="#eaae21" rx=".5" ry=".7"/><path fill="#ebb8b6" d="M159.7 43.5c-2.2-1.4-2.3-6.9-.1-6.2s4 3.4.1 6.2z"/><path fill="#e5a3a2" d="M159.7 43.5c2.5 2.8 4.5.4 4.4-1s-2.3-2.9-4.4 1z"/><path fill="#e09090" d="M159.6 43.2c-1.9-3.1-4.8-3.1-5-1.5a2.9 2.9 0 0 0 3.7 2.7c-.3.6.1 1.1 1.1 1.1s2.5-1.9.2-2.3z"/><ellipse cx="159.6" cy="43.2" fill="#eaae21" rx=".5" ry=".7" transform="rotate(-73.1 159.7 43.137)"/><path fill="#ebb8b6" d="M181.8 58c-1.5-2.3.8-7.3 2.6-5.7s2 4.8-2.6 5.7z"/><path fill="#e5a3a2" d="M181.8 58c1 3.5 3.8 2.2 4.3.9s-.8-3.6-4.3-.9z"/><path fill="#e09090" d="M181.7 57.7c-.2-3.7-2.9-5-3.8-3.6a3 3 0 0 0 2.2 4.1c-.6.4-.4.9.5 1.4s3-.6 1.1-1.9z"/><ellipse cx="181.8" cy="57.6" fill="#eaae21" rx=".5" ry=".7" transform="rotate(-47.3 181.873 57.604)"/><path fill="#79828e" d="M170 71.9c-.9-1.8-1.2-4.3.1-7.8a11.2 11.2 0 0 1 3.7 9.1 11.8 11.8 0 0 1 9.1-3.7c-2.7 6.2-7.3 6.3-9.4 6l-.3-.2h-.6c-1.1.3-7 1.6-10.3-5.8a11.8 11.8 0 0 1 7.7 2.4z"/><path fill="#ebb8b6" d="M164.4 83.4a8.9 8.9 0 0 0 6.9 8.8h4a9 9 0 0 0-2-17.7 8.9 8.9 0 0 0-8.9 8.9z"/><path fill="#eaae21" d="M164.4 83.4a5.8 5.8 0 0 0 .2 1.9c1.5-1.5 16.7 3.4 17.5 0a11.1 11.1 0 0 0 .2-1.9 13.7 13.7 0 0 0-.2-1.9s-16.7-4-17.5 0a6.5 6.5 0 0 0-.2 1.9z"/><path fill="#79828e" d="M167.8 44.8a8.7 8.7 0 0 1 1.1 9.9s-5.5-3.5-1.1-9.9zm1.2 10.9s-4.5 3-7.7-2.4a6.9 6.9 0 0 1 7.7 2.4z"/><path fill="#f0cecc" d="M168.9 55.1c1.5-2.3-.8-7.3-2.6-5.7s-2 4.8 2.6 5.7z"/><path fill="#e5a3a2" d="M168.9 55.1c-1 3.5-3.8 2.2-4.3.9s.8-3.6 4.3-.9z"/><path fill="#e09090" d="M169 54.8c.2-3.7 2.8-4.9 3.8-3.6a3 3 0 0 1-2.2 4.1c.6.4.4.9-.5 1.4s-3-.6-1.1-1.9z"/><ellipse cx="168.9" cy="54.7" fill="#eaae21" rx=".7" ry=".5" transform="rotate(-42.7 168.68 54.729)"/><path fill="#e09090" d="M122.1 11.9v11.5h11.5V11.9zm5.8 9l-.4-1.6h-2.1l-.4 1.6h-1.1l1.9-6h1.3l1.9 6zm2.8 0h-1v-4.5h1zm-.5-5.3a.5.5 0 0 1-.6-.6.6.6 0 0 1 .6-.6.7.7 0 0 1 .7.6c0 .4-.3.6-.7.6z"/><path fill="#e09090" d="M126.5 15.7h-.1a11.7 11.7 0 0 1-.5 2l-.2.7h1.5l-.2-.7a11.7 11.7 0 0 1-.5-2zM114 29.2v11.6h11.6V29.2zm3.7 9h-1.1v-6h1.1zm5.2 0h-.8v-.5a2.2 2.2 0 0 1-1.3.6c-1.1 0-1.9-.9-1.9-2.4a2.1 2.1 0 0 1 1.9-2.3 1.5 1.5 0 0 1 1.2.5v-2.4h1z"/><path fill="#e09090" d="M119.9 35.9c0 1 .4 1.5 1 1.5a1.4 1.4 0 0 0 1-.5v-2.1a1.2 1.2 0 0 0-.9-.4c-.6 0-1.1.6-1.1 1.5zM101.4 33h-.7v2h.8c.9 0 1.3-.3 1.3-1s-.5-1-1.4-1z"/><path fill="#e09090" d="M97.9 29.2v11.6h11.5V29.2zm3.7 6.7h-.9v2.2h-1.1v-6h1.9c1.3 0 2.3.5 2.3 1.9s-1 1.9-2.2 1.9zm4.4 2.3a3.5 3.5 0 0 1-1.7-.6l.5-.7a2.1 2.1 0 0 0 1.3.5c.4 0 .7-.2.7-.5s-.5-.6-1-.8-1.2-.5-1.2-1.3.6-1.3 1.6-1.3a2.5 2.5 0 0 1 1.5.5l-.5.7a1.3 1.3 0 0 0-1-.4c-.4 0-.6.2-.6.5s.4.5.9.6 1.3.6 1.3 1.4-.6 1.4-1.8 1.4zm0-26.3v11.5h11.6V11.9zm4.4 8.9l-.8-1.4a10.4 10.4 0 0 1-.4-1h-.1a10.4 10.4 0 0 1-.4 1l-.7 1.4h-1.2l1.8-3.1-1.6-2.9h1.1l.7 1.4.5.9a3.9 3.9 0 0 1 .4-.9l.6-1.4h1.2l-1.6 3 1.7 3zm5.7 0h-.9v-.5a1.6 1.6 0 0 1-1.3.6c-1.1 0-1.8-.8-1.8-2.3s.9-2.4 1.9-2.4a1.4 1.4 0 0 1 1.1.5v-2.3h1.1z"/><path fill="#e09090" d="M113.1 18.6c0 .9.3 1.5 1 1.5a1.4 1.4 0 0 0 .9-.5v-2.1a1.2 1.2 0 0 0-.9-.4c-.6 0-1 .5-1 1.5zm25.5 15.6c-.6 0-1 .4-1.1 1.1h2c0-.7-.3-1.1-.9-1.1zm-5.1-1.4c-.2.7-.3 1.4-.5 2l-.2.7h1.5l-.2-.7z"/><path fill="#e09090" d="M130.1 29.2v11.5h11.6V29.2zM135 38l-.5-1.6h-2l-.4 1.6H131l1.9-6h1.3l1.9 6zm5.4-2h-2.9a1.3 1.3 0 0 0 1.3 1.3 1.7 1.7 0 0 0 1.1-.4l.3.7a2.5 2.5 0 0 1-1.5.5 2.2 2.2 0 0 1-2.2-2.4 2.2 2.2 0 0 1 2-2.3 1.8 1.8 0 0 1 1.9 2.1z"/><rect width="223.8" height="10.25" x="22.2" y="91.9" fill="#7a828d" rx="1.4"/><path fill="#eebc50" d="M92.8 50.8h30.1v17.97H92.8z"/><path fill="#d39090" d="M92.8 50.8h30.1v1.61H92.8z"/><path fill="#afb1b4" d="M92.8 72.7h17.9v10.66H92.8z"/><path fill="#dc7f72" d="M111.9 72.7h11v10.66h-11z"/><path fill="#40403f" d="M125.6 49.4h19.2v16.15h-19.2z"/><path fill="#d39090" d="M125.6 49.4h19.2v1.38h-19.2z"/><rect width="3.7" height="1.31" x="126.6" y="52.1" fill="#d26450" rx=".6"/><rect width="12.5" height="1.31" x="130.7" y="52.1" fill="#9dc1c9" rx=".6"/><rect width="3.7" height="1.31" x="127.9" y="54.2" fill="#d26450" rx=".6"/><rect width="6.9" height="1.31" x="132" y="54.2" fill="#9dc1c9" rx=".6"/><rect width="3.7" height="1.31" x="129.3" y="56.2" fill="#d26450" rx=".6"/><rect width="6.9" height="1.31" x="133.3" y="56.2" fill="#9dc1c9" rx=".6"/><rect width="3.7" height="1.31" x="127.9" y="58.1" fill="#d26450" rx=".6"/><rect width="3.7" height="1.31" x="126.6" y="60.2" fill="#d26450" rx=".6"/><path fill="#696a6d" d="M48.1 75.1h7.4a.7.7 0 0 1 .7.7v16.1h-8.8V75.8a.7.7 0 0 1 .7-.7z"/><path fill="#f0efef" d="M48.2 76.1h7.2v13.97h-7.2z"/><circle cx="51.8" cy="91.1" r=".6" fill="#414042"/><path fill="#414042" d="M50.8 75.4h2v.25h-2z"/><path fill="#fff" d="M48.2 76.1h7.2v1.93h-7.2z"/><circle cx="51.8" cy="77.1" r=".7" fill="#d14c4b"/><rect width="1.9" height=".88" x="48.5" y="78.6" fill="#3d999b" rx=".4"/><rect width="1.9" height=".88" x="48.5" y="84.6" fill="#3d999b" rx=".4"/><rect width="3.7" height=".88" x="51.5" y="79.6" fill="#3d999b" rx=".4"/><rect width="2" height=".88" x="53.2" y="80.9" fill="#3d999b" rx=".4"/><rect width="1.1" height=".88" x="54.1" y="82.1" fill="#3d999b" rx=".4"/><rect width="3.4" height=".88" x="51.8" y="83.4" fill="#3d999b" rx=".4"/><path fill="#d14c4b" d="M192.3 83.1h52.6v8.84h-52.6z"/><path fill="#dc7f72" d="M197.2 80.4h42.9v2.68h-42.9z"/><path fill="#d86f64" d="M197.5 54.2h42.9v4.66h-42.9z"/><path fill="#e9b0a4" d="M200.2 77.7h42.9v2.68h-42.9z"/><path fill="#e08f81" d="M193.3 73.6h52.6v4.14h-52.6z"/><path fill="#d14c4b" d="M191.6 69.6h52.6v4.02h-52.6z"/><path fill="#dc7f72" d="M200.8 58.9H237v10.7h-36.2z"/><path fill="#5fa4af" d="M23.8 18.3h49.9v49.91H23.8z"/><path fill="#f0efef" d="M25.3 19.8h46.9v46.86H25.3z"/><path fill="#f6daa3" d="M55.8 38h10.3v2.58H55.8z"/><path fill="#f2cb7c" d="M55.8 34.4h10.3v2.58H55.8z"/><path fill="#eebc50" d="M55.8 30.8h10.3v2.58H55.8z"/><path fill="#eaae21" d="M55.8 27.2h10.3v2.58H55.8z"/><path fill="#b1cdcf" d="M43.7 38H54v2.58H43.7z"/><path fill="#8eb9bc" d="M43.7 34.4H54v2.58H43.7z"/><path fill="#6aa8ab" d="M43.7 30.8H54v2.58H43.7z"/><path fill="#3d999b" d="M43.7 27.2H54v2.58H43.7z"/><path fill="#f0cecb" d="M31.3 38h10.3v2.58H31.3z"/><path fill="#ebb8b6" d="M31.3 34.4h10.3v2.58H31.3z"/><path fill="#e5a3a2" d="M31.3 30.8h10.3v2.58H31.3z"/><path fill="#e09090" d="M31.3 27.2h10.3v2.58H31.3z"/><path fill="#e9b0a4" d="M31.3 56.8h10.3v2.58H31.3z"/><path fill="#e08f81" d="M31.3 53.2h10.3v2.58H31.3z"/><path fill="#d86f64" d="M31.3 49.6h10.3v2.58H31.3z"/><path fill="#d14c4b" d="M31.3 46h10.3v2.58H31.3z"/><path fill="#afb1b4" d="M55.8 56.8h10.3v2.58H55.8z"/><path fill="#8c8e90" d="M55.8 53.2h10.3v2.58H55.8z"/><path fill="#696a6d" d="M55.8 49.6h10.3v2.58H55.8z"/><path fill="#414042" d="M55.8 46h10.3v2.58H55.8z"/><path fill="#a5a8b0" d="M43.7 56.8H54v2.58H43.7z"/><path fill="#838993" d="M43.7 53.2H54v2.58H43.7z"/><path fill="#656f7a" d="M43.7 49.6H54v2.58H43.7z"/><path fill="#495965" d="M43.7 46H54v2.58H43.7z"/><circle cx="126.3" cy="50.1" r=".3" fill="#d26450"/><circle cx="127.2" cy="50.1" r=".3" fill="#e9ae21"/><circle cx="128.1" cy="50.1" r=".3" fill="#5fa4aa"/><circle cx="93.7" cy="51.6" r=".3" fill="#d26450"/><circle cx="94.6" cy="51.6" r=".3" fill="#e9ae21"/><circle cx="95.5" cy="51.6" r=".3" fill="#5fa4aa"/><path fill="#fff" d="M95.5 53.4H119v14.83H95.5z"/><path fill="#959aa3" d="M97 54.7h6.3v4.23H97z"/><path fill="#b3b5bc" d="M97 59.2h6.3v.36H97zm0 .5h6.3v.36H97zm0 .5h6.3v.36H97zm0 .5h6.3v.36H97zm0 .5h3.2v.36H97z"/><path fill="#959aa3" d="M104.1 54.7h6.3v4.23h-6.3z"/><path fill="#b3b5bc" d="M104.1 59.2h6.3v.36h-6.3zm0 .5h6.3v.36h-6.3zm0 .5h6.3v.36h-6.3zm0 .5h6.3v.36h-6.3zm0 .5h3.2v.36h-3.2z"/><path fill="#959aa3" d="M111.2 54.7h6.3v4.23h-6.3z"/><path fill="#b3b5bc" d="M111.2 59.2h6.3v.36h-6.3zm0 .5h6.3v.36h-6.3zm0 .5h6.3v.36h-6.3zm0 .5h6.3v.36h-6.3zm0 .5h3.2v.36h-3.2z"/><path fill="#fff" d="M208.5 61.6a2.4 2.4 0 0 1 .9 1.1 4 4 0 0 1 .3 1.5 4.1 4.1 0 0 1-.3 1.6 3.1 3.1 0 0 1-.9 1.1 3.3 3.3 0 0 1-1.4.4h-2.5c0-.1-.1-.2-.1-.3v-5.4c0-.1.1-.2.1-.3h2.5a2.3 2.3 0 0 1 1.4.3zm-.2 4.2a2.5 2.5 0 0 0 .5-1.6 2.8 2.8 0 0 0-.5-1.6 1.5 1.5 0 0 0-1.3-.6h-1.6v4.5h1.6a1.4 1.4 0 0 0 1.3-.7zm6.2.8a.5.5 0 0 1 0 .6h-3.6a.4.4 0 0 1-.1-.3v-5.3a.4.4 0 0 1 .1-.3h3.6a.5.5 0 0 1 0 .6h-2.9v1.8h2.2c.2 0 .3 0 .3.1s.1.1.1.3 0 .2-.1.2h-2.5v2h2.9zm2 .6a2.1 2.1 0 0 1-1-.6.5.5 0 0 1-.2-.4.2.2 0 0 1 .2-.2c0-.1.1-.2.3-.2h.2l.7.5.9.2a1.6 1.6 0 0 0 .9-.3c.2-.2.4-.4.4-.6a.8.8 0 0 0-.4-.7l-1.1-.4-1.4-.5a1.7 1.7 0 0 1-.5-1.2 1.6 1.6 0 0 1 .3-.9 1.3 1.3 0 0 1 .7-.6l1.1-.2a1.6 1.6 0 0 1 1 .2l.8.4a.8.8 0 0 1 .2.4.4.4 0 0 1-.1.3h-.3c-.1 0-.2 0-.2-.1l-.6-.4h-.8l-.9.2a.8.8 0 0 0-.4.7.6.6 0 0 0 .4.6 1.9 1.9 0 0 0 1 .4l1.1.3.7.6a2.4 2.4 0 0 1 .2.9 1.2 1.2 0 0 1-.3.9 1.3 1.3 0 0 1-.7.6 2.3 2.3 0 0 1-1.1.3zm5 0h-.6c-.1-.1-.1-.2-.1-.4v-5.2a.4.4 0 0 1 .1-.3h.6c.1.1.2.2.2.3v5.2a.5.5 0 0 1-.2.4zm6.4-3a.4.4 0 0 1 .1.3v1.9a.5.5 0 0 1-.2.4l-.9.4-1 .2a3 3 0 0 1-1.6-.5 2.3 2.3 0 0 1-1.1-1.1 2.9 2.9 0 0 1-.4-1.6 3.2 3.2 0 0 1 .4-1.6 3.8 3.8 0 0 1 1.1-1.1 2.9 2.9 0 0 1 1.6-.4h.9c.2.1.5.1.7.3h.2v.2a.4.4 0 0 1-.1.3h-.5a2.7 2.7 0 0 0-1.2-.3 2 2 0 0 0-1.1.3 1.8 1.8 0 0 0-.8.9 2 2 0 0 0-.3 1.1 2.4 2.4 0 0 0 .3 1.2 2 2 0 0 0 .8.8 2 2 0 0 0 1.1.3h.7l.5-.2v-1.1h-1c-.2 0-.3 0-.3-.1l-.2-.3.2-.3c0-.1.1-.1.3-.1h1.8zm6.1-2.9a.4.4 0 0 1 .1.3v5.2c0 .2 0 .3-.1.4h-.7l-3.4-4.5v4.2a.4.4 0 0 1-.1.3h-.5a.4.4 0 0 1-.1-.3v-5.3a.4.4 0 0 1 .1-.3h.6l3.4 4.5v-4.2c0-.1.1-.2.2-.3h.5zm-28.5 28.2h-.4c-.1 0-.1-.1-.1-.2v-3.4c0-.1 0-.2.1-.2s.1-.1.2-.1h.2a.3.3 0 0 1 .1.2v3.4a.3.3 0 0 1-.1.3zm1.5 0h-.4c-.1 0-.1-.1-.1-.2v-3.7h.5v3.9zm1.4 0h-.4a.3.3 0 0 1-.1-.2v-3.7h.6v3.7c0 .1 0 .2-.1.2zm3.3-2.8c.1 0 .1.1.1.2v1.5a1.2 1.2 0 0 1-.3.9 1.3 1.3 0 0 1-.9.4 1.8 1.8 0 0 1-1-.4 1.2 1.2 0 0 1-.3-.9v-1.5c0-.1 0-.2.1-.2s.1-.1.2-.1h.2a.3.3 0 0 1 .1.2v1.5c0 .5.2.8.7.8l.5-.2a1.1 1.1 0 0 0 .2-.6v-1.4c0-.1 0-.2.1-.2a.1.1 0 0 1 .1-.1c.1 0 .2 0 .2.1zm.7 2.3c0-.1 0-.2.1-.2h.3l.4.3h.9c.1 0 .1-.1.1-.3a.4.4 0 0 0-.1-.3l-.5-.2-.6-.2-.3-.2a.8.8 0 0 1-.2-.5.5.5 0 0 1 .2-.4l.4-.4h1.1c.1.1.3.2.4.4h.1c0 .1-.1.1-.1.2h-.3l-.3-.2h-.8c-.1 0-.1.1-.1.3a.4.4 0 0 0 .1.3l.6.2h.5l.3.3a.7.7 0 0 1 .1.5.9.9 0 0 1-.1.5l-.4.3h-.6l-.6-.2a.7.7 0 0 1-.5-.4zm3.8-1.9v1.7c0 .2.1.3.2.3h.4c0 .1 0 .2-.1.2h-.7l-.2-.2a.8.8 0 0 1-.2-.5v-1.5h-.5v-.2c0-.1.1-.1.1-.2h.5v-.4a.3.3 0 0 1 .1-.2h.4a.3.3 0 0 1 .1.2v.4h.6c.1.1.1.1.1.2v.2h-.6zm3.1-.5v.2c0 .1 0 .2-.1.2h-.8c-.2.1-.2.2-.3.4a.7.7 0 0 0-.1.5v1.3c0 .1 0 .2-.1.2h-.4a.3.3 0 0 1-.1-.2v-2.3a.3.3 0 0 1 .1-.2h.4c.1 0 .1.1.1.2v.3a1 1 0 0 1 .4-.5l.5-.2zm3.2 0v2.9h-.4c-.1 0-.1-.1-.1-.2l-.4.3-.6.2-.7-.2-.5-.6a1.7 1.7 0 0 1 0-1.6l.5-.6.7-.2.6.2.4.3v-.4h.4zm-.9 2.4l.3-.4a1.3 1.3 0 0 0 0-1l-.3-.4-.5-.2-.5.2-.3.4a1.3 1.3 0 0 0 0 1l.3.4.5.2zm2.6-1.9v1.7c0 .2 0 .3.2.3h.4c0 .1 0 .2-.1.2h-.7l-.3-.2a.7.7 0 0 1-.1-.5v-1.5h-.5v-.2c0-.1 0-.1.1-.2h.5v-.4c0-.1 0-.2.1-.2h.4a.3.3 0 0 1 .1.2v.4h.6c.1.1.1.1.1.2v.2h-.6zm1.3-1h-.1a.3.3 0 0 1 .1-.2h.5a.3.3 0 0 1 .1.2h-.6zm.5 3.4h-.4c-.1 0-.1-.1-.1-.2v-2.4c0-.1 0-.2.1-.2s.1-.1.2-.1h.2v2.8zm3.4-.6l-.5.6-.8.2-.7-.2a3.4 3.4 0 0 1-.6-.6 1.7 1.7 0 0 1 0-1.6 3.4 3.4 0 0 1 .6-.6l.7-.2.8.2.5.6a1.7 1.7 0 0 1 0 1.6zm-.4-1.3a.8.8 0 0 0-.4-.4l-.5-.2-.5.2-.3.4a.7.7 0 0 0-.1.5 1.3 1.3 0 0 0 .1.6l.3.3.5.2.5-.2.4-.3a1.3 1.3 0 0 0 .1-.6.7.7 0 0 0-.1-.5zm3.8.2v1.7h-.4c-.1 0-.1-.1-.1-.2v-1.5a1.4 1.4 0 0 0-.2-.6.6.6 0 0 0-.5-.2h-.4l-.3.3c0 .1-.1.2-.1.4v1.5c0 .1 0 .2-.1.2h-.3c-.1 0-.1-.1-.1-.2v-2.3c0-.1 0-.2.1-.2a.1.1 0 0 1 .1-.1c.1 0 .2 0 .2.1s.1.1.1.2v.2l.4-.4.6-.2c.7 0 1 .5 1 1.3zm-18.5-17.4v2.3h-.3v-1.6l-.6 1h-.3l-.7-1.1v1.7h-.3v-2.3h.2l.9 1.2.8-1.2h.2zm2.7 1.8a1 1 0 0 1-.4.5l-.6.2-.6-.2a1 1 0 0 1-.4-.5 1.1 1.1 0 0 1-.2-.6 1.4 1.4 0 0 1 .2-.6 1 1 0 0 1 .4-.5h1.2a1 1 0 0 1 .4.5 1.4 1.4 0 0 1 .2.6 1.1 1.1 0 0 1-.2.6zm-.3-1.1l-.3-.3h-.8l-.3.3a1.3 1.3 0 0 0 0 1l.3.3h.8l.3-.3a1.3 1.3 0 0 0 0-1zm2.5-.7v.2h-.8v2h-.4v-2h-.7v-.2h1.8zm.8 2.4h-.3v-2.2h.3v2.1zm2.6-.6a1 1 0 0 1-.4.5l-.6.2-.6-.2a1 1 0 0 1-.4-.5 1.1 1.1 0 0 1-.2-.6 1.4 1.4 0 0 1 .2-.6 1 1 0 0 1 .4-.5h1.2a1 1 0 0 1 .4.5 1.4 1.4 0 0 1 .2.6 1.1 1.1 0 0 1-.2.6zm-.3-1.1l-.3-.3h-.8l-.3.3a1.3 1.3 0 0 0 0 1l.3.3h.8q.3-.2.3-.3a1.3 1.3 0 0 0 0-1zm2.8-.7v2.3h-.3l-1.3-1.7v1.7h-.3v-2.3h.2l1.4 1.7v-1.7h.2zm-10.7-13.9v1h-.2a.1.1 0 0 1-.1-.1v-1c0-.4-.2-.5-.5-.5h-.2c-.1.1-.2.1-.2.2a.4.4 0 0 0-.1.3v1h-.2a.1.1 0 0 1-.1-.1h-.1v-1c0-.2 0-.3-.1-.4s-.1-.1-.3-.1h-.4c-.1.1-.1.2-.1.4v1a.1.1 0 0 1-.1.1c0 .1 0 .1-.1.1a.1.1 0 0 1-.1-.1.1.1 0 0 1-.1-.1v-1.4h.4v.2l.3-.3h.3a.8.8 0 0 1 .7.4.2.2 0 0 1 .2-.2l.5-.2q.6-.1.6.8zm2.2-.8h.1v1.7a.8.8 0 0 1-.3.7.9.9 0 0 1-.7.3h-.5l-.2-.2a.1.1 0 0 0 .1-.1h.6a.5.5 0 0 0 .6-.6l-.3.2h-.4a.6.6 0 0 1-.5-.2.7.7 0 0 1-.1-.5v-1.2h.3v1.1c0 .1.1.3.1.4h.4l.3-.2c.1-.1.2-.2.2-.3v-1h.3zm1.5 1.6v-.2h.1a.1.1 0 0 1 .1.1l.3.2h.5c.1-.1.2-.2.2-.3l-.2-.2h-.7l-.2-.2a.5.5 0 0 1 0-.6l.3-.2h.7l.3.2h-.1a.1.1 0 0 1-.1-.1h-.5c-.1 0-.2 0-.2.1s-.1.1-.1.2v.2h.7l.2.2a.4.4 0 0 1 .1.3c0 .1 0 .3-.1.3l-.3.2h-.8c-.1 0-.3-.1-.3-.2zm3.7.2h-.2a.1.1 0 0 1-.1-.1l-.8-.8-.2.2v.5h-.2a.1.1 0 0 1-.1-.1h-.1V55h.1a.1.1 0 0 1 .1-.1h.2v1.6l1-.9a.1.1 0 0 1 .1-.1h.2c0 .1-.1.1-.1.2l-.7.6.8.8zm.5-2.2h-.1a.1.1 0 0 1 .1-.1h.1c-.1.2-.1.2-.1.1zm.3 2.3h-.2a.1.1 0 0 1-.1-.1h-.1v-1.7h.4v1.7zm.9 0h-.3V55h.3v2.5zm1 0h-.2a.1.1 0 0 1-.1-.1h-.1V55h.1a.1.1 0 0 1 .1-.1h.2v2.5zm.4-.3c0-.1.1-.1.1-.2h.1c.1 0 .1 0 .1.1l.3.2h.6c0-.1.1-.2.1-.3a.3.3 0 0 1-.1-.2h-.7l-.3-.2c0-.1-.1-.2-.1-.3s.1-.2.1-.3l.3-.2h.7l.3.2a.1.1 0 0 1 .1.1h-1c-.1 0-.1.1-.1.2v.2h.7l.2.2a.4.4 0 0 1 .1.3c0 .1 0 .3-.1.3l-.3.2h-.8l-.3-.2a.1.1 0 0 0 0-.1zm-11.2 17.4l-.5 1.8h-.1c0 .1 0 .1-.1.1h-.1l-.5-1.1-.4 1.1h-.1c-.1 0-.1 0-.1-.1h-.1l-.6-1.8h.2a.1.1 0 0 0 .1.1l.5 1.5.4-1a.1.1 0 0 1 .1-.1h.1c.1 0 .1 0 .1.1l.4 1 .5-1.5h.2zm1.6 1.7a.1.1 0 0 1-.1.1h-1a.1.1 0 0 1-.1-.1v-1.6h.2V76h1zm1.8-.6c.1 0 .1.1.1.3s0 .3-.2.4a.5.5 0 0 1-.4.2h-.9v-1.9h1.3c.1.1.1.2.1.4v.4zm-.4-.8h-.7v.6h.7c.1 0 .1-.1.1-.2s0-.4-.1-.4zm.1 1.3c.1 0 .1-.1.1-.2a.3.3 0 0 0-.3-.3h-.6v.6h.6c.1 0 .2 0 .2-.1zm2.9-1.5l.3.4a4.3 4.3 0 0 1 .1.5c0 .2-.1.3-.1.5l-.3.3-.5.2h-.7a.1.1 0 0 1-.1-.1v-1.8h1.3zm-.1 1.4a.8.8 0 0 0 .2-.5 1.1 1.1 0 0 0-.2-.6l-.4-.2h-.5v1.5h.5a.5.5 0 0 0 .4-.2zm2.1.2a.1.1 0 0 1-.1.1h-1c-.1 0-.1 0-.1-.1h-.1v-1.6h.3V76h1zm.6.2h-.3v-.2h.2l.2.2h.6a.4.4 0 0 0 .1-.3v-.2h-.4l-.4-.2a.5.5 0 0 1-.2-.4.4.4 0 0 1 .1-.3c.1-.1.1-.2.2-.2h1c0 .1.1.1.1.2h-.2l-.2-.2h-.6c-.1 0-.1.1-.1.2v.2h.7l.2.2a.5.5 0 0 1 0 .6c-.1.1-.1.2-.3.2h-.7zm1.7 0a.1.1 0 1 1-.2 0v-1.8h.2v1.7zm2.1-.9v.6l-.3.2h-.9l-.4-.4c0-.2-.1-.3-.1-.5s.1-.4.1-.6l.4-.3.6-.2h-.4l-.3.3c-.1.1-.1.2-.1.4a.4.4 0 0 0 .1.3q.1.3.3.3h.6a.1.1 0 0 0 .1-.1v-.4h-.3a.1.1 0 0 1-.1-.1.1.1 0 0 1 .1-.1h.5a.1.1 0 0 1 .1.6zm2-1h.1v1.7h-.1c0 .1 0 .1-.1.1a.1.1 0 0 1-.1-.1l-1.1-1.4v1.3h-.1c0 .1 0 .1-.1.1h-.1v-1.6h.3l1.1 1.5v-1.5h.2zm-7.7 3.6v1.3l-.3.2h-.6c-.1-.1-.2-.1-.2-.2a.6.6 0 0 1-.1-.4v-.9h.2v.9c0 .1 0 .2.1.2v.2h.4l.2-.2v-1.1h.2zm1.6 1.4a.1.1 0 0 0-.1.1.1.1 0 0 1-.1-.1l-.5-.6-.4.6h-.2l.5-.7-.5-.6h.2l.5.6.4-.6h.2l-.5.6zm.2.4h-.1l1-1.9h.2l-1 2a.1.1 0 0 1-.1.1zm2.6-1.8v.9a.6.6 0 0 1-.1.4c0 .1-.1.1-.2.2h-.6l-.3-.2v-1.3h.2v1.1l.2.2h.4c.1 0 .1-.1.1-.2s.1-.1.1-.2v-.9h.2zm.6 1.5h-.1a.1.1 0 0 0-.1-.1v-1.4h.2v1.4z"/><g clip-path="url(#c)"><path fill="#606e7a" d="M140 69.4h-10l3.8 6.7-3.8 6.8h2.1v-.3h-1.5l3.4-6.2.8 1.6-.8 1.4h.5l.5-1 .8 1.4.4.2-1-1.9.8-1.6 3.4 6.2h-1.3v.3h1.9l-3.8-6.8zm-9.4.3h8.8l-3.4 6.1-.8-1.5 1-1.9h-.4L135 74l-1.2-2.1-.4-.2 1.4 2.6-.8 1.5zm4.4 8l-.8-1.6.8-1.5.9 1.5z"/><g fill="#e8b2b1" clip-path="url(#d)"><path d="M130.1 77.5h.3v-2.1h.5v1h.1l.9-.9-.5.6.9 1.4h-.6l-.7-1.1h-.1v1.1h-.8zm7.3 0h.1c.2 0 .3-.1.3-.2v-1.9h.5l.6 1.6.6-1.6h.5v2.1h-.6v-2l-.7 2.1h-.1l-.8-2.1v1.8a.2.2 0 0 0 .2.2h-.6zm-5.1 5.5h.1v-1.2h.4c.5 0 .7.2.7.6s-.2.6-.7.6zm.5 0c.3 0 .4-.2.4-.6s-.1-.6-.4-.6h-.2V83zm1-.4c0 .3.1.4.2.4s.3-.1.3-.2h.1a.2.2 0 0 1-.2.2h-.2a.5.5 0 0 1-.4-.5.4.4 0 0 1 .4-.4c.2 0 .4.1.4.3h-.6zm.4 0c0-.2 0-.3-.2-.3s-.2.1-.2.4zm.3.5v-.4c0 .1.1.2.3.2h.2c0-.3-.5-.1-.5-.5s.1-.2.3-.2h.2a.2.2 0 0 0-.2-.2c-.2 0-.3 0-.3.2s.6 0 .6.4a.3.3 0 0 1-.3.3h-.4zm.8-.1h.2v-.8h.1v.8h-.3zm.2-1.2c.1 0 .1 0 .1.1h-.2a.1.1 0 0 1 .1-.1m.6 1.4h-.1c0 .1.1.2.3.2s.3-.1.3-.2-.1-.2-.3-.2-.4 0-.4-.2 0-.2.1-.2-.1-.1-.1-.2.1-.3.4-.3h.2c.1 0 .1 0 .1-.1h.1c0 .1-.1.1-.1.2v.2a.3.3 0 0 1-.3.3h-.4c0 .1.2.1.4.2s.4 0 .4.2-.2.3-.4.3-.4-.1-.4-.2h.2zm.3-.7c0-.2 0-.3-.1-.3s-.2.1-.2.3 0 .2.2.2.1-.1.1-.2m.4.5h.1v-.8h.2v.2s0-.2.3-.2.3 0 .3.2v.6h-.2v-.6c0-.2 0-.2-.1-.2h-.3v.8h-.3z"/></g></g><path fill="#e49f92" d="M675.2 74.3h24.7v35.56h-24.7z"/><path fill="#d14c4b" d="M678.7 79.3h17.9v25.68h-17.9z"/><path fill="#9fc2c5" d="M681.2 82.9H694v18.34h-12.8z"/><path fill="#3d999b" d="M683.4 86h8.5v12.2h-8.5z"/><path fill="#f4d28f" d="M684.6 87.8h5.9v8.51h-5.9z"/><path fill="#e9ae21" d="M685.7 89.4h3.8v5.4h-3.8z"/><path fill="#e49f92" d="M628.9 74.3h24.7v35.56h-24.7z"/><path fill="#d14c4b" d="M632.3 79.3h17.9v25.68h-17.9z"/><path fill="#9fc2c5" d="M634.9 82.9h12.8v18.34h-12.8z"/><path fill="#3d999b" d="M637 86h8.5v12.2H637z"/><path fill="#f4d28f" d="M638.3 87.8h5.9v8.51h-5.9z"/><path fill="#e9ae21" d="M639.4 89.4h3.8v5.4h-3.8z"/><path fill="#3d999b" d="M700.1 140.4h-8.3l8.3 8.3v-8.3z"/><path fill="#9fc2c5" d="M700.1 148.7l-8.3-8.3v8.3h8.3zm-8.3 8.3h-8.4l8.4 8.3V157z"/><path fill="#3d999b" d="M691.8 165.3l-8.4-8.3v8.3h8.4z"/><path fill="#e9ae21" d="M691.8 140.4h-8.4l8.4 8.3v-8.3z"/><path fill="#f4d28f" d="M691.8 148.7l-8.4-8.3v8.3h8.4z"/><path fill="#e49f92" d="M683.4 140.4h-8.3l8.3 8.3v-8.3z"/><path fill="#d14c4b" d="M683.4 148.7l-8.3-8.3v8.3h8.3z"/><path fill="#3d999b" d="M700.1 165.3h-8.3l8.3 8.4v-8.4z"/><path fill="#9fc2c5" d="M700.1 173.7l-8.3-8.4v8.4h8.3z"/><path fill="#e9ae21" d="M691.8 165.3h-8.4l8.4 8.4v-8.4z"/><path fill="#f4d28f" d="M691.8 173.7l-8.4-8.4v8.4h8.4z"/><path fill="#e49f92" d="M683.4 165.3h-8.3l8.3 8.4v-8.4z"/><path fill="#d14c4b" d="M683.4 173.7l-8.3-8.4v8.4h8.3z"/><path fill="#e49f92" d="M700.1 157h-8.3l8.3 8.3V157z"/><path fill="#d14c4b" d="M700.1 165.3l-8.3-8.3v8.3h8.3z"/><path fill="#f4d28f" d="M700.1 148.7h-8.3l8.3 8.3v-8.3z"/><path fill="#e9ae21" d="M700.1 157l-8.3-8.3v8.3h8.3zm-16.7 0h-8.3l8.3 8.3V157z"/><path fill="#f4d28f" d="M683.4 165.3l-8.3-8.3v8.3h8.3z"/><path fill="#d14c4b" d="M691.8 148.7h-8.4l8.4 8.3v-8.3z"/><path fill="#e49f92" d="M691.8 157l-8.4-8.3v8.3h8.4z"/><path fill="#3d999b" d="M683.4 148.7h-8.3l8.3 8.3v-8.3z"/><path fill="#9fc2c5" d="M683.4 157l-8.3-8.3v8.3h8.3z"/><path fill="#3d999b" d="M628.8 173.7h8.3l-8.3-8.4v8.4z"/><path fill="#9fc2c5" d="M628.8 165.3l8.3 8.4v-8.4h-8.3zm8.3-8.3h8.3l-8.3-8.3v8.3z"/><path fill="#3d999b" d="M637.1 148.7l8.3 8.3v-8.3h-8.3z"/><path fill="#e9ae21" d="M637.1 173.7h8.3l-8.3-8.4v8.4z"/><path fill="#f4d28f" d="M637.1 165.3l8.3 8.4v-8.4h-8.3z"/><path fill="#e49f92" d="M645.4 173.7h8.4l-8.4-8.4v8.4z"/><path fill="#d14c4b" d="M645.4 165.3l8.4 8.4v-8.4h-8.4z"/><path fill="#3d999b" d="M628.8 148.7h8.3l-8.3-8.3v8.3z"/><path fill="#9fc2c5" d="M628.8 140.4l8.3 8.3v-8.3h-8.3z"/><path fill="#e9ae21" d="M637.1 148.7h8.3l-8.3-8.3v8.3z"/><path fill="#f4d28f" d="M637.1 140.4l8.3 8.3v-8.3h-8.3z"/><path fill="#e49f92" d="M645.4 148.7h8.4l-8.4-8.3v8.3z"/><path fill="#d14c4b" d="M645.4 140.4l8.4 8.3v-8.3h-8.4z"/><path fill="#e49f92" d="M628.8 157h8.3l-8.3-8.3v8.3z"/><path fill="#d14c4b" d="M628.8 148.7l8.3 8.3v-8.3h-8.3z"/><path fill="#f4d28f" d="M628.8 165.3h8.3l-8.3-8.3v8.3z"/><path fill="#e9ae21" d="M628.8 157l8.3 8.3V157h-8.3zm16.6 0h8.4l-8.4-8.3v8.3z"/><path fill="#f4d28f" d="M645.4 148.7l8.4 8.3v-8.3h-8.4z"/><path fill="#d14c4b" d="M637.1 165.3h8.3l-8.3-8.3v8.3z"/><path fill="#e49f92" d="M637.1 157l8.3 8.3V157h-8.3z"/><path fill="#3d999b" d="M645.4 165.3h8.4l-8.4-8.3v8.3z"/><path fill="#9fc2c5" d="M645.4 157l8.4 8.3V157h-8.4z"/><path fill="#e09090" d="M615 56.9v140.7h97.8V56.9zm42.4 123.2h-32.2v-46.2h32.2zm0-64.9h-32.2V69h32.2zm46.3 64.9h-32.2v-46.2h32.2zm0-65h-32.2V68.8h32.2z"/></svg>