<svg xmlns="http://www.w3.org/2000/svg" width="960" height="2.7in" viewBox="0 0 720 197.6"><path fill="#fcf4f3" d="M0 .1h719.3v197.16H0z"/><path fill="#5fa4af" d="M600.9 172.8h-54.5v-26.3l12.7-12.6h29.2l12.6 12.6v26.3z"/><path fill="#a77236" d="M596.5 131.7l-4.5-4.5a3.6 3.6 0 0 0-2.6-1.1h-.3v2.5l.6.3 5 4.6a1.3 1.3 0 0 0 1.8 0 1.3 1.3 0 0 0 0-1.8z"/><path fill="#7c5523" d="M580 120.2c-4.7-1.3-8.2 3.2-8.2 8.4l17.6.2c.3-7.9-6.2-7.7-9.4-8.6z"/><path fill="#868e98" d="M604.6 147.3a3.6 3.6 0 0 0-.5-4.5L591 129.7a3.2 3.2 0 0 0-2.4-1.1h-29.8a3.6 3.6 0 0 0-2.5 1.1l-13 13.1a3.5 3.5 0 0 0-.4 4.4 1.6 1.6 0 0 0 2.6.2l13.6-13.5h29.2l13.7 13.6a1.7 1.7 0 0 0 2.6-.2z"/><path fill="#abc8cf" d="M573.9 149.5a12.8 12.8 0 0 1 12.8 12.8v10.5h-25.6v-10.6a12.8 12.8 0 0 1 12.8-12.7z"/><rect width="58.3" height="5.66" x="544.5" y="172.8" fill="#868e98" rx="2"/><path fill="#606e7a" d="M568.2 178.4h10.9v42.56h-10.9z"/><path fill="#895e28" d="M579.5 105c.5-4.4-1.3-6.1-1.3-6.1s-3.1 1.9-2.9 4.2 4.2 1.9 4.2 1.9z"/><path fill="#98682f" d="M582.8 126.1c-.8-.2-1.3-.9-1.6-2.1a15.5 15.5 0 0 0-.5-2.3c-.9-3.7-2.5-5.6-3.9-5.6s-3.1 4.4-3.1 12.6h9.2z"/><path fill="#ab7335" d="M571.7 114.5c-4.9 0-8.8 5-8.8 14.1h17.6c0-9.1-3.9-14.1-8.8-14.1z"/><circle cx="573.1" cy="109.5" r="8" fill="#a26e33"/><path fill="#895e28" d="M566.5 105c-.4-4.4 1.3-6.1 1.3-6.1s3.1 1.9 3 4.2-4.3 1.9-4.3 1.9z"/><path fill="#98682f" d="M569.9 121.6c.3 2.6.5 4.1 1.8 4.5v2.5h-7.2z"/><path fill="#98682f" d="M567.8 115.8c-2.2 0-5.6 4.6-5.6 12.8h7.8c0-8.2-.1-12.8-2.2-12.8z"/><path fill="#895e28" d="M571 125.8c-1.2 0-2.1 1-2.1 2.8h4.3c0-1.8-1-2.8-2.2-2.8zm11.8.1c-1.2 0-2.2 1-2.2 2.7h4.3c0-1.7-.9-2.7-2.1-2.7zm-4.1-16.1c-1.3 0-.6 1.4 0 1.8s1.3-1.7 0-1.8z"/><circle cx="353.5" cy="80.6" r="45.2" fill="#606e7a"/><circle cx="353.5" cy="80.6" r="41.3" fill="#eaae21"/><path fill="#fee9dc" d="M373.2 89.8c.1-.3.1-.5.2-.8a22.6 22.6 0 0 0 1.1-6.9 21.3 21.3 0 0 0-42.5 0 22.6 22.6 0 0 0 1.1 6.9c.1.1.1.3.2.5-6.6-3.7-7.3 8.1 3.1 9.9 3.1 7.4 8.3 14.3 16.9 14.3s13.7-6.8 16.8-14.2c11.3-1.5 10.3-14.5 3.1-9.7z"/><path fill="#895e28" d="M352.3 62.3c-6.6-10.5-7.6-18.5 6.8-17.5s7.2 17.2 2.4 18.6a13.7 13.7 0 0 1-9.2-1.1z"/><path fill="#98682f" d="M361.1 71.4c4.2-11.8 2.5-14.2 0-15.2s-31.2-.7-31.2 26.9c6.4 4.4 30.3-5.9 31.2-11.7z"/><path fill="#a77236" d="M363.6 61.6C363.1 76.9 356 97 328 87.5c-4.1-1.8-2.6-9.3-.8-10.2.7 4.5 3 3.9 3 3.9s30.3 1.6 33.4-19.6z"/><path fill="#98682f" d="M363.6 79c-.9-4.8-1.6-17.1 0-18.7s19.1 8.2 13.1 26.7c-8.4 4.6-13.1-8-13.1-8z"/><path fill="#a77236" d="M362.6 65.8c-.9 11.1-1.3 23 10.6 23.7a9 9 0 0 0 8-4.2C373 88 364 83.6 362.6 65.8z"/><path fill="#51423a" d="M348.2 95.3c-2.7 1.7-7.3 2-9.4-.3-.9.3-1.1 0-1.1 0a.9.9 0 0 0 .8.5c.6 1.9 7.6 2.9 10-.1zm11.1 0c2.7 1.7 7.3 2 9.4-.3.9.3 1.1 0 1.1 0a.9.9 0 0 1-.8.5c-.6 1.9-7.5 2.9-10-.1z"/><path fill="#6fb5bf" d="M350.1 88.8a31.7 31.7 0 0 0-14.2 1 1.6 1.6 0 0 0-1.2 1.5v5.5a5.1 5.1 0 0 0 4.4 5 34.8 34.8 0 0 0 7.9 0 5 5 0 0 0 4.4-5v-6.5a1.5 1.5 0 0 0-1.3-1.5zm6 1.5v6.5a5 5 0 0 0 4.4 5 34.8 34.8 0 0 0 7.9 0 5.1 5.1 0 0 0 4.4-5v-5.5a1.6 1.6 0 0 0-1.2-1.5 31.7 31.7 0 0 0-14.2-1 1.5 1.5 0 0 0-1.3 1.5z" opacity=".4"/><path fill="#231f20" d="M350.1 88.8a31.7 31.7 0 0 0-14.2 1 1.6 1.6 0 0 0-1.2 1.5v5.5a5.1 5.1 0 0 0 4.4 5 34.8 34.8 0 0 0 7.9 0 5 5 0 0 0 4.4-5v-6.5a1.5 1.5 0 0 0-1.3-1.5zm.2 7.8a4.2 4.2 0 0 1-3.8 4.3 26.6 26.6 0 0 1-6.9 0 4.4 4.4 0 0 1-3.8-4.3v-4.8a1.5 1.5 0 0 1 1.1-1.3 27.4 27.4 0 0 1 12.3-.8 1.3 1.3 0 0 1 1.1 1.3z"/><path fill="#231f20" d="M356.1 93.5c-.9-.4-5-.6-5.4 0v-.8s3.6-.7 5.4 0 0 .8 0 .8z"/><path fill="#414042" d="M349.7 89a35.3 35.3 0 0 0-14.3 1 1.6 1.6 0 0 0-1.2 1.6V97a5.1 5.1 0 0 0 4.4 5 29.8 29.8 0 0 0 7.9 0 5 5 0 0 0 4.5-4.9v-6.5a1.6 1.6 0 0 0-1.3-1.6zm.2 7.9a4.4 4.4 0 0 1-3.9 4.3 32 32 0 0 1-6.9-.1 4.3 4.3 0 0 1-3.7-4.3v-4.7a1.3 1.3 0 0 1 1-1.3 27.5 27.5 0 0 1 12.3-.9 1.4 1.4 0 0 1 1.2 1.3z"/><path fill="#231f20" d="M356.1 90.3v6.5a5 5 0 0 0 4.4 5 34.8 34.8 0 0 0 7.9 0 5.1 5.1 0 0 0 4.4-5v-5.5a1.6 1.6 0 0 0-1.2-1.5 31.7 31.7 0 0 0-14.2-1 1.5 1.5 0 0 0-1.3 1.5zm1.1.7a1.3 1.3 0 0 1 1.1-1.3 27.4 27.4 0 0 1 12.3.8 1.5 1.5 0 0 1 1.1 1.3v4.8a4.3 4.3 0 0 1-3.8 4.3 26.6 26.6 0 0 1-6.9 0 4.2 4.2 0 0 1-3.8-4.3z"/><path fill="#414042" d="M355.7 90.6v6.5a5 5 0 0 0 4.5 4.9 29.8 29.8 0 0 0 7.9 0 5.1 5.1 0 0 0 4.4-5v-5.4a1.6 1.6 0 0 0-1.2-1.6 34.9 34.9 0 0 0-14.2-1 1.6 1.6 0 0 0-1.4 1.6zm1.2.6a1.3 1.3 0 0 1 1.1-1.3 27.5 27.5 0 0 1 12.3.9 1.3 1.3 0 0 1 1 1.3v4.7a4.3 4.3 0 0 1-3.7 4.3 31.9 31.9 0 0 1-6.9.1 4.3 4.3 0 0 1-3.8-4.3z"/><path fill="#414042" d="M356.1 93.8c-.9-.4-5-.6-5.4 0V93s3.6-.7 5.4 0 0 .8 0 .8z"/><path fill="#e7acce" d="M349.5 104.7c.8.9 4 2.3 6.2 1.2-.8 1.2-4.7 1.2-6.2-1.2z"/><path fill="#606e7a" d="M289.5 131.3c-3.2 1.1-12.7 9.7-12.7 13.1 0 .8.5 1.3 1.9 1.3 3 0 3.3-2.4 4.6-2.4s.8.3.8.9-2.2 3.8-6.4 4.1a5 5 0 0 1-4.2-2.3c-.2 0-.5.4-.5 1.2s-1.4 1.5-2.3 1.5-.7-.1-.7-.6a1.8 1.8 0 0 1 .1-.6 59.5 59.5 0 0 0 1.5-6.8c.1-1.2.6-5 .6-7.4s-.6-1.2-.6-1.7 1.6-1.5 2.5-1.5 1.2 1.4 1.2 2.7a68 68 0 0 1-1.3 9c2.1-2.5 8.6-10.1 12.2-12.1h.5c1.1 0 3 .6 3 1.3z"/><path fill="#606e7a" d="M292.7 143.5c-.6 0-.9-.4-1.3-.4s-2.8 2.6-3.3 3.5-.5 1.2-1.6 1.2-1.8-.2-1.8-.8 1-3 1-4-.1-.7-.6-.7-1.1.4-1.6.4a.6.6 0 0 1-.5-.6 3.7 3.7 0 0 1 .7-1.4 8.5 8.5 0 0 1 3.2-.9c1 0 1.3.4 1.3.9s-.4 1.4-.4 2h.1c.2 0 2.4-2.8 4.4-2.8s.7 1.4 2.3 1.4 1.1-.5 1.4-.6.2.2.2.4-2.2 2.4-3.5 2.4z"/><path fill="#606e7a" d="M302.7 152.5c0 .6.5.5.5 1.2s-1.2 1.3-2.8 1.3a1.1 1.1 0 0 1-1-1.2c0-1.7 2.2-7.7 2.2-8.2s-.1-.2-.2-.2a12.1 12.1 0 0 1-5.1 1.8c-1.1 0-1.4-.6-1.4-1.3a18.5 18.5 0 0 1 .7-3.1.5.5 0 0 0-.3-.5c-.8 0-1.3.5-2.1.5a.7.7 0 0 1-.6-.7c0-1 1.1-2.5 4.3-2.5.7 0 1.5.2 1.5 1s-.6 1.8-.6 2.6a.9.9 0 0 0 1 .9c1.5 0 3.6-2.2 3.8-2.5a3.1 3.1 0 0 1 1.5-.3c.5 0 1.5 0 1.5.7s-2.9 8.5-2.9 10.5z"/><path fill="#606e7a" d="M309.2 147.8c-1.8 0-2.6-.8-2.6-1.4s.9-2.1 1.7-2.1.5 1.1 2 1.1a1.7 1.7 0 0 0 1.9-1.7 1.6 1.6 0 0 0-1.7-1.6c-.5 0-4.2 2.3-4.4 2.3s-.9-.8-.9-1.1 5-3.7 6.4-3.7 2.9 1.7 2.9 3.5-1.6 4.7-5.3 4.7z"/><path fill="#606e7a" d="M323.5 141.8h-1.3l-3.3.2a8.1 8.1 0 0 0-.1 1.6c0 1.1.5 2 1.2 2s1.6-.8 2.3-.8.6.4.6.7-1.6 2.4-3.3 2.4-3.5-1.2-3.5-4.4v-.9H315c-.5 0-.8-.2-.8-.7a1.6 1.6 0 0 1 .8-1.5l1.4-.3c.8-3.9 2.9-7.4 4-7.4s1 .5 1 1.2-1.2 3.4-2 5.7h2.4c1.2 0 2.5.2 2.5 1.4s-.1.8-.8.8z"/><path fill="#606e7a" d="M332 152.5c0 .6.5.5.5 1.2s-1.2 1.3-2.8 1.3a1.1 1.1 0 0 1-1-1.2c0-1.7 2.1-7.7 2.1-8.2s0-.2-.1-.2a12.7 12.7 0 0 1-5.1 1.8c-1.1 0-1.4-.6-1.4-1.3a18.5 18.5 0 0 1 .7-3.1.5.5 0 0 0-.3-.5c-.9 0-1.3.5-2.1.5s-.6-.3-.6-.7 1.1-2.5 4.3-2.5c.7 0 1.5.2 1.5 1s-.6 1.8-.6 2.6a.8.8 0 0 0 .9.9c1.6 0 3.7-2.2 3.9-2.5a3.1 3.1 0 0 1 1.5-.3c.5 0 1.5 0 1.5.7s-2.9 8.5-2.9 10.5z"/><path fill="#606e7a" d="M342.9 147.6c-1.4 0-1.4-.8-1.4-2.4s-.1-.6-.5-.6-3.1 2.5-3.4 2.8a1.9 1.9 0 0 1-.9.3c-.4 0-1-.2-1-.8s1-2.4 1-3.4-.3-.8-.9-.8-1.1.3-1.4.3-.6-.4-.6-.8 0-1.9 3.2-1.9c1.3 0 1.7.5 1.7 1.2a6.4 6.4 0 0 1-.5 1.9l.2.2c.4 0 2.9-2 4.5-2s1.5.2 1.5 1-.3 1.3-.3 2 0 .7.5.7 2.4-.9 2.8-.9.4.2.4.5-2.8 2.7-4.9 2.7zm14.7-.1a1.8 1.8 0 0 1-1.7-1.1h-.1c-.4 0-2.2 1.7-5.3 1.7s-3-.9-3-2 4.1-6.5 8.2-6.5c.8 0 1.1.4 1.1.8a2.1 2.1 0 0 1-1.8 1.8c-1.8 0-4.5 2-4.5 3s.3.5 1 .5 3.7-1.3 5.5-3a1 1 0 0 1 .8-.4c.2 0 .4.2.4.6s-.1 1.2-.1 1.7.1.7.5.7l1.6-.3a.5.5 0 0 1 .6.6c0 .6-1.7 1.9-3.2 1.9zm25.1 1.2a2.1 2.1 0 0 1-2.2-2.3c0-1.7 1.5-6.2 1.5-6.9a.3.3 0 0 0-.3-.3c-1.5 0-5.2 5.9-5.8 7.3s-.9 1.9-1.5 1.9-2.1 0-2.1-.7 3.3-8.6 3.3-10.7c0-.1 0-.2-.1-.2s-4.6 5.7-5.9 8.1-1.4 2.6-3.1 3.1l-1.2.2c-.5 0-.7-.2-.7-.4v-.3a86.3 86.3 0 0 0 3.6-14.7c0-1.1-.6-1.1-.6-1.3s2.2-1.4 2.8-1.4h.3c.7.2.9 1 .9 1.7s-1.9 7.3-1.9 7.3h.1l.3-.3c1.1-1.7 4.9-7.2 7.6-7.2 1 0 1.4.8 1.4 1.8 0 2.5-1.6 5.7-1.6 6h.1c1-1 4.8-5.5 6.9-5.5a1.2 1.2 0 0 1 1.3 1.3c0 2-2.6 8.7-2.6 10a.6.6 0 0 0 .7.7c.9 0 1.8-1.1 2.4-1.1a.8.8 0 0 1 .7.9c0 1.2-2.4 3-4.3 3zm14.6-1.2a1.8 1.8 0 0 1-1.7-1.1h-.1a10.7 10.7 0 0 1-5.3 1.7c-2.1 0-3-.9-3-2s4.1-6.5 8.2-6.5c.8 0 1.1.4 1.1.8a2 2 0 0 1-1.8 1.8c-1.7 0-4.5 2-4.5 3s.3.5 1 .5 3.7-1.3 5.5-3a1.2 1.2 0 0 1 .8-.4c.3 0 .5.2.5.6s-.2 1.2-.2 1.7.1.7.6.7 1-.3 1.6-.3a.6.6 0 0 1 .6.6c0 .6-1.8 1.9-3.3 1.9z"/><path fill="#606e7a" d="M404.9 147.9c-3.5 0-4.9-1.3-4.9-2.8s3.2-5.3 7.1-5.3c1.5 0 2 .7 2 1.5a1.6 1.6 0 0 1-1.4 1.6c-.6 0-.8-.8-1.5-.8s-3.7 1.5-3.7 2.7.5 1.1 1.9 1.1c3.3 0 3.8-1.2 4.9-1.2s.7.5.7.9-2.6 2.3-5.1 2.3zm8.9-6.8a14.9 14.9 0 0 0-.3 2.8c0 1.3.3 2.2 1.3 2.2s.8-.3 1.4-.3.4.2.4.6-1.6 1.8-2.9 1.8-3.4-1.9-3.4-4.4a8.3 8.3 0 0 1 .3-2.2h-.2c-.7 0-.9-.4-.9-.8s.2-.5.4-.5h1c1.2-4.7 4.5-9.8 7.8-9.8s3.2 1.1 3.2 2.6-3.2 6.6-8.1 8zm3.8-8.7c-.7 0-2.3 3.3-3.3 6.7 3.1-1.5 4.2-3.9 4.2-5.3s-.4-1.4-.9-1.4z"/><path fill="#606e7a" d="M420 145.4s0 .5 1.9.5 2.1-.9 2.9-.9.7.2.7.5-2.6 2.6-5 2.6-4.1-1.3-4.1-2.9 2.9-5.6 6.8-5.6c2 0 2.8.6 2.8 1.4s-2.8 4-6 4.4zm2.3-4.1c-.9 0-2.7 1.1-2.7 2.2s0 .2.2.2 3.1-1.3 3.1-2.1-.3-.3-.6-.3z"/><path fill="#606e7a" d="M435.3 143.9c-.2 2.3-3.4 4.1-6.4 4.1s-3.5-1-3.5-2.4 3.7-6.4 8.3-6.4h.7c.3 0 .4.3.4.6a2 2 0 0 1-.7 1.6c-2.8.3-6 1.5-6 3.5a.8.8 0 0 0 .9.9 4.4 4.4 0 0 0 4.4-3.9h.1a8.8 8.8 0 0 0 3.7-.5c0 .1.1.2.1.4s-1.3 1.9-2 2.1zm11.5-.7v.6a1.4 1.4 0 0 0 1.4 1.6c.6 0 .9-.4 1.1-.4a.5.5 0 0 1 .6.6c0 1.3-1.6 2.2-2.9 2.2a2.4 2.4 0 0 1-2.3-1.6 12.6 12.6 0 0 1-6.2 1.9c-1.7 0-3-.6-3-2.3s3.7-5.7 6.9-5.7c1 0 1.3.5 1.3 1a1.5 1.5 0 0 1-1.2 1.4c-2.4.1-4.2 1.7-4.2 2.8s.3.7 1.2.7 3.7-1.4 4.8-2.5v-.3a37.7 37.7 0 0 1 1.7-9.4c.7-1.4 1.6-2.2 2.5-2.2s1.5 1.1 1.5 2.3-2.9 8.3-3.2 9.3z"/><path fill="#8db7c0" d="M275.8 234.8h-21.6l-3.7-57.4h28.9l-3.6 57.4z"/><path fill="#d3d3d3" d="M266.9 175.6l-4.8-4.9-.2 1.9-5.5-3.7 1.3 3a2.5 2.5 0 0 0-1.5-.5 2.8 2.8 0 0 0-2.5 1.5l-1.6-2.2-.3 5.4h2.3a2.7 2.7 0 0 0 2.1.9 2.9 2.9 0 0 0 2.8-2.5l.3.6z"/><rect width="29.8" height="4.92" x="250" y="173.8" fill="#606e7a" rx="1.5"/><path fill="#eaae21" d="M482.6 61.8v135.7h4.2V183h32.4v14.5h4.1V61.8zM519.2 175h-32.4v-32.5h32.4zm0-38.8h-32.4v-32.4h32.4zm0-38.8h-32.4V65h32.4z"/><path fill="#5fa4af" d="M486.8 92.9h32.4v4.56h-32.4z"/><path fill="#e8b2b1" d="M486.8 88.3h27.8v4.56h-27.8z"/><path fill="#9dc1c9" d="M486.8 83.8h23.3v4.56h-23.3z"/><path fill="#ecc0be" d="M486.8 79.2h18.7v4.56h-18.7z"/><path fill="#949aa4" d="M486.8 74.6H501v4.56h-14.2z"/><path fill="#5fa4af" d="M486.8 70h9.6v4.68h-9.6z"/><path fill="#606e7a" d="M486.8 64h5v4.96h-5z"/><path fill="#e8b2b1" d="M503 119.8v-6.2a.4.4 0 0 0-.2-.4l-4.5-4.5-.4.5 4.5 4.4v6.2h-4.8l2.6 16.7h5.2l2.7-16.7z"/><path fill="#e8b2b1" d="M503 113.4l-.6.3h-.1l.7-.2z"/><path fill="#e8b2b1" d="M503 113.6h-.6c-.1 0-.1 0-.1-.1h.7z"/><path fill="#e8b2b1" d="M502.3 113.6l.5-.4h.1l-.5.4"/><rect width="11.3" height="1.29" x="497.3" y="119.1" fill="#5fa4af" rx=".6"/><path fill="#5ea1ac" d="M491.2 174.9v-6.8h28.05v6.8z"/><path fill="#bbd1d7" d="M498.5 168.2v-3.8h20.8v3.8z"/><path fill="#8db7c0" d="M492.5 164.4v-4.5h26.78v4.5z"/><path fill="#5ea1ac" d="M497 159.9v-1.4h22.22v1.4z"/><path fill="#bbd1d7" d="M500.5 158.4V157h18.77v1.4z"/><path fill="#8db7c0" d="M498.9 157v-1.4h20.35v1.4z"/><path fill="#bbd1d7" d="M495.7 155.6v-2.1h23.57v2.1z"/><path fill="#5ea1ac" d="M500.8 153.5v-2.9h18.44v2.9z"/><path fill="#bbd1d7" d="M489.2 150.5v-3.8h30.03v3.8z"/><path fill="#8db7c0" d="M494.5 146.8v-2.4h24.76v2.4z"/><path fill="#52979e" d="M493.4 189.9h19.3l-.9 19.4h-17.4l-1-19.4z"/><path fill="#606e7a" d="M491.1 187.4H515v2.51h-23.9z"/><path fill="#eaae21" d="M497.6 191.6h11.7v3.14h-11.7z"/><path fill="#d39090" d="M664.4 54.6h-46.3v142.5h6.7v-11.9h32.9v11.9h13.5v-11.9H704v11.9h6.8V54.6zm-6.7 120.3h-32.9v-52.4h32.9zm0-62.7h-32.9V59.8h32.9zm46.3 62.7h-32.8v-52.4H704zm0-62.7h-32.8V59.8H704z"/><path fill="none" stroke="#7eafb9" stroke-miterlimit="10" stroke-width=".5" d="M650.8 8.4c9.8 8.7 14.6 19.1 13.8 31.3m8.3-16.9c-5.8 2-8 8.4-8.3 16.9m-9.7-12.2c5.6 1.8 8.2 6.4 9.7 12.2"/><path fill="#f0cecc" d="M654.3 27.7c-.6-2.4-5.4-4-5.4-1.8s1.9 4.4 5.4 1.8z"/><path fill="#ecc0be" d="M654.3 27.7c1.8 2.9-.8 4.1-2 3.5s-2-2.8 2-3.5z"/><path fill="#e8b2b1" d="M654.2 27.5c-2.3-2.5-1.6-5.1-.1-4.8s2.6 2.3 1.4 4c.7-.2 1 .3.7 1.3s-2.3 1.6-2-.5z"/><ellipse cx="654.1" cy="27.5" fill="#eaae21" rx=".5" ry=".7"/><path fill="#f0cecc" d="M652 9.5c-2.1-1.3-2.2-6.4-.1-5.7s3.6 3.1.1 5.7z"/><path fill="#ecc0be" d="M652 9.5c2.2 2.6 4.1.4 4-.9s-2.1-2.7-4 .9z"/><path fill="#e8b2b1" d="M651.8 9.3c-1.7-2.9-4.4-3-4.6-1.5a2.7 2.7 0 0 0 3.4 2.6c-.3.5.1.9 1.1 1s2.2-1.7.1-2.1z"/><ellipse cx="651.9" cy="9.2" fill="#eaae21" rx=".5" ry=".7" transform="rotate(-73.1 652.192 8.986)"/><path fill="#f0cecc" d="M672.4 22.9c-1.3-2.1.8-6.7 2.4-5.2s1.9 4.4-2.4 5.2z"/><path fill="#ecc0be" d="M672.4 22.9c.9 3.3 3.6 2.1 4 .9s-.7-3.3-4-.9z"/><path fill="#e8b2b1" d="M672.4 22.7c-.3-3.4-2.7-4.6-3.5-3.4a2.7 2.7 0 0 0 1.9 3.8c-.5.4-.3.9.6 1.4s2.7-.6 1-1.8z"/><ellipse cx="672.4" cy="22.6" fill="#eaae21" rx=".5" ry=".7" transform="rotate(-47.3 672.974 22.438)"/><path fill="#7eafb9" d="M661.5 35.9a8.7 8.7 0 0 1 .1-7.3 10.8 10.8 0 0 1 3.5 8.5 10.5 10.5 0 0 1 8.4-3.5c-2.6 5.8-6.8 5.9-8.8 5.6l-.2-.2h-.6c-1.1.3-6.5 1.5-9.6-5.4a10.8 10.8 0 0 1 7.2 2.3z"/><path fill="#eaae21" d="M656.3 46.6a8.2 8.2 0 0 0 6.4 8h3.7a8.2 8.2 0 0 0 6.5-8 8.3 8.3 0 1 0-16.6 0z"/><path fill="#e8b2b1" d="M656.3 46.6a5 5 0 0 0 .2 1.7c1.4-1.4 15.5 3.2 16.2 0a9.9 9.9 0 0 0 .2-1.7 11 11 0 0 0-.2-1.8s-15.4-3.7-16.2 0a5.5 5.5 0 0 0-.2 1.8z"/><path fill="#7eafb9" d="M659.5 10.7a8.2 8.2 0 0 1 1 9.2s-5.1-3.3-1-9.2zm1.1 10.1s-4.2 2.9-7.2-2.2a6.5 6.5 0 0 1 7.2 2.2z"/><path fill="#f0cecc" d="M660.5 20.3c1.3-2.1-.8-6.8-2.4-5.3s-1.9 4.5 2.4 5.3z"/><path fill="#ecc0be" d="M660.5 20.3c-.9 3.2-3.6 2.1-4 .8s.7-3.3 4-.8z"/><path fill="#e8b2b1" d="M660.5 20c.3-3.4 2.7-4.6 3.5-3.3a2.5 2.5 0 0 1-1.9 3.7c.5.4.3.9-.6 1.4s-2.7-.6-1-1.8z"/><ellipse cx="660.5" cy="19.9" fill="#eaae21" rx=".7" ry=".5" transform="rotate(-42.7 659.97 20.126)"/><path fill="#eaae21" d="M628.1 68.2h24.7v35.56h-24.7z"/><path fill="#f4d28f" d="M631.5 73.2h17.9v25.68h-17.9z"/><path fill="#5ea1ac" d="M634.1 76.8h12.8v18.34h-12.8z"/><path fill="#abc8cf" d="M636.2 79.9h8.5v12.2h-8.5z"/><path fill="#e8b2b1" d="M637.5 81.7h5.9v8.51h-5.9z"/><path fill="#f2d6d3" d="M638.6 83.3h3.8v5.4h-3.8zM675 68.2h24.7v35.56H675z"/><path fill="#e8b2b1" d="M678.5 73.2h17.9v25.68h-17.9z"/><path fill="#abc8cf" d="M681 76.8h12.8v18.34H681z"/><path fill="#5ea1ac" d="M683.1 79.9h8.5v12.2h-8.5z"/><path fill="#f4d28f" d="M684.4 81.7h5.9v8.51h-5.9z"/><path fill="#eaae21" d="M685.5 83.3h3.8v5.4h-3.8z"/><path fill="#e8b2b1" d="M627.9 164.6h8.9l-8.9-9v9z"/><path fill="#f2d6d3" d="M627.9 155.6l8.9 9v-9h-8.9zm8.9-6.9h8.9l-8.9-9v9z"/><path fill="#e8b2b1" d="M636.8 139.7l8.9 9v-9h-8.9z"/><path fill="#5ea1ac" d="M636.8 166.6h8.9l-8.9-9v9z"/><path fill="#abc8cf" d="M636.8 157.6l8.9 9v-9h-8.9z"/><path fill="#f4d28f" d="M645.7 166.6h9l-9-9v9z"/><path fill="#eaae21" d="M645.7 157.6l9 9v-9h-9z"/><path fill="#e8b2b1" d="M627.9 137.7h8.9l-8.9-8.9v8.9z"/><path fill="#f2d6d3" d="M627.9 128.8l8.9 8.9v-8.9h-8.9z"/><path fill="#5ea1ac" d="M636.8 139.7h8.9l-8.9-8.9v8.9z"/><path fill="#abc8cf" d="M636.8 130.8l8.9 8.9v-8.9h-8.9z"/><path fill="#f4d28f" d="M645.7 139.7h9l-9-8.9v8.9z"/><path fill="#eaae21" d="M645.7 130.8l9 8.9v-8.9h-9z"/><path fill="#f4d28f" d="M627.9 146.7h8.9l-8.9-9v9z"/><path fill="#eaae21" d="M627.9 137.7l8.9 9v-9h-8.9z"/><path fill="#abc8cf" d="M627.9 155.6h8.9l-8.9-8.9v8.9z"/><path fill="#5ea1ac" d="M627.9 146.7l8.9 8.9v-8.9h-8.9zm17.8 2h9l-9-9v9z"/><path fill="#abc8cf" d="M645.7 139.7l9 9v-9h-9z"/><path fill="#eaae21" d="M636.8 157.6h8.9l-8.9-8.9v8.9z"/><path fill="#f4d28f" d="M636.8 148.7l8.9 8.9v-8.9h-8.9z"/><path fill="#e8b2b1" d="M645.7 157.6h9l-9-8.9v8.9z"/><path fill="#f2d6d3" d="M645.7 148.7l9 8.9v-8.9h-9z"/><path fill="#e8b2b1" d="M700.8 130.8h-8.9l8.9 8.9v-8.9z"/><path fill="#f2d6d3" d="M700.8 139.7l-8.9-8.9v8.9h8.9zm-8.9 9h-9l9 8.9v-8.9z"/><path fill="#e8b2b1" d="M691.9 157.6l-9-8.9v8.9h9z"/><path fill="#5ea1ac" d="M691.9 130.8h-9l9 8.9v-8.9z"/><path fill="#abc8cf" d="M691.9 139.7l-9-8.9v8.9h9z"/><path fill="#f4d28f" d="M682.9 130.8H674l8.9 8.9v-8.9z"/><path fill="#eaae21" d="M682.9 139.7l-8.9-8.9v8.9h8.9z"/><path fill="#e8b2b1" d="M700.8 157.6h-8.9l8.9 9v-9z"/><path fill="#f2d6d3" d="M700.8 166.6l-8.9-9v9h8.9z"/><path fill="#5ea1ac" d="M691.9 157.6h-9l9 9v-9z"/><path fill="#abc8cf" d="M691.9 166.6l-9-9v9h9z"/><path fill="#f4d28f" d="M682.9 157.6H674l8.9 9v-9z"/><path fill="#eaae21" d="M682.9 166.6l-8.9-9v9h8.9z"/><path fill="#f4d28f" d="M700.8 148.7h-8.9l8.9 8.9v-8.9z"/><path fill="#eaae21" d="M700.8 157.6l-8.9-8.9v8.9h8.9z"/><path fill="#abc8cf" d="M700.8 139.7h-8.9l8.9 9v-9z"/><path fill="#5ea1ac" d="M700.8 148.7l-8.9-9v9h8.9zm-17.9 0H674l8.9 8.9v-8.9z"/><path fill="#abc8cf" d="M682.9 157.6l-8.9-8.9v8.9h8.9z"/><path fill="#eaae21" d="M691.9 139.7h-9l9 9v-9z"/><path fill="#f4d28f" d="M691.9 148.7l-9-9v9h9z"/><path fill="#e8b2b1" d="M682.9 139.7H674l8.9 9v-9z"/><path fill="#f2d6d3" d="M682.9 148.7l-8.9-9v9h8.9z"/><path fill="#5ea1ac" d="M709.1 44.9l-3.2-1.2v-1.1a2.6 2.6 0 0 0-2.6-2.6H701a2.6 2.6 0 0 0 2.6-2.6v-4.8a2.5 2.5 0 0 0-1.3-2.2v-9.8a.8.8 0 0 0-1.6 0V30h-4.2v-9.4a.8.8 0 0 0-1.6 0v9.7a2.4 2.4 0 0 0-1.3 2.2v4.8a2.5 2.5 0 0 0 2.6 2.6h-2.4a2.6 2.6 0 0 0-2.5 2.6v1.2l-2.9 1.1a2.5 2.5 0 0 0-1.4 3.3 2.5 2.5 0 0 0 3.3 1.5l1-.3V52a2.5 2.5 0 0 0 2.5 2.5h9.5a2.5 2.5 0 0 0 2.6-2.5v-2.8l1.3.5a2.6 2.6 0 1 0 1.9-4.8z"/><path fill="#afb1b4" d="M90.4 45.6h58.1a2.7 2.7 0 0 1 2.7 2.7v40H87.7v-40a2.7 2.7 0 0 1 2.7-2.7z"/><path fill="#414042" d="M151 92.3H87.7l-2.3-4.2c-.1-.2 0-.4.2-.4h67.5c.2 0 .3.2.2.4z"/><path fill="#f4dddb" d="M89.7 47.2h59.6v39.28H89.7z"/><path fill="none" stroke="#79828e" stroke-miterlimit="10" d="M164 42.7c10.6 9.4 15.8 20.6 14.9 33.7m8.9-18.2c-6.2 2.2-8.5 9-8.9 18.2m-10.4-13.1c6 1.9 8.9 6.9 10.4 13.1"/><path fill="#f0cecc" d="M167.9 63.5c-.7-2.6-5.9-4.3-5.9-1.9s2.1 4.7 5.9 1.9z"/><path fill="#ecc0be" d="M167.9 63.5c1.9 3.1-1 4.4-2.2 3.8s-2.2-3 2.2-3.8z"/><path fill="#e8b2b1" d="M167.7 63.3c-2.5-2.7-1.7-5.5-.1-5.3s2.8 2.6 1.6 4.4c.7-.2 1 .3.7 1.4s-2.5 1.7-2.2-.5z"/><ellipse cx="167.6" cy="63.3" fill="#eaae21" rx=".5" ry=".7"/><path fill="#f0cecc" d="M165.3 43.9c-2.2-1.4-2.3-6.9-.1-6.2s4 3.4.1 6.2z"/><path fill="#ecc0be" d="M165.3 43.9c2.5 2.8 4.5.4 4.4-1s-2.3-2.9-4.4 1z"/><path fill="#e8b2b1" d="M165.2 43.6c-1.9-3.1-4.7-3.1-5-1.5a2.9 2.9 0 0 0 3.7 2.7c-.3.6.1 1.1 1.2 1.1s2.4-1.9.1-2.3z"/><ellipse cx="165.2" cy="43.6" fill="#eaae21" rx=".5" ry=".7" transform="rotate(-73.1 165.344 43.56)"/><path fill="#f0cecc" d="M187.3 58.3c-1.4-2.2.9-7.2 2.7-5.6s2 4.8-2.7 5.6z"/><path fill="#ecc0be" d="M187.3 58.3c1 3.6 3.9 2.3 4.4 1s-.8-3.6-4.4-1z"/><path fill="#e8b2b1" d="M187.3 58c-.3-3.6-2.9-4.9-3.8-3.5a2.9 2.9 0 0 0 2.2 4c-.6.4-.4 1 .5 1.5s3-.6 1.1-2z"/><ellipse cx="187.4" cy="58" fill="#eaae21" rx=".5" ry=".7" transform="rotate(-47.3 187.532 58.041)"/><path fill="#79828e" d="M175.6 72.3c-.9-1.8-1.2-4.4.1-7.8a11.2 11.2 0 0 1 3.7 9.1 11.4 11.4 0 0 1 9.1-3.7c-2.8 6.1-7.3 6.3-9.4 5.9h-.3l-.6-.2c-1.2.4-7 1.6-10.3-5.7a11.2 11.2 0 0 1 7.7 2.4z"/><path fill="#f0cecc" d="M170 83.8a8.8 8.8 0 0 0 6.9 8.7h4a8.8 8.8 0 0 0 6.9-8.7 8.9 8.9 0 0 0-17.8 0z"/><path fill="#eaae21" d="M170 83.8a6.2 6.2 0 0 0 .2 1.9c1.5-1.5 16.7 3.4 17.4 0a6.2 6.2 0 0 0 .2-1.9 5.8 5.8 0 0 0-.2-1.9s-16.6-4-17.4 0a5.8 5.8 0 0 0-.2 1.9z"/><path fill="#79828e" d="M173.4 45.2a8.9 8.9 0 0 1 1.1 9.9s-5.5-3.5-1.1-9.9zm1.2 10.9s-4.5 3-7.7-2.4a6.9 6.9 0 0 1 7.7 2.4z"/><path fill="#f0cecc" d="M174.5 55.5c1.4-2.3-.9-7.3-2.6-5.7s-2 4.8 2.6 5.7z"/><path fill="#ecc0be" d="M174.5 55.5c-1 3.5-3.8 2.2-4.3.9s.8-3.6 4.3-.9z"/><path fill="#e8b2b1" d="M174.6 55.2c.2-3.7 2.8-4.9 3.7-3.6a2.9 2.9 0 0 1-2.1 4.1c.6.4.4.9-.6 1.4s-2.9-.6-1.1-1.9z"/><ellipse cx="174.5" cy="55.1" fill="#eaae21" rx=".7" ry=".5" transform="rotate(-42.7 174.269 55.144)"/><path fill="#5fa4af" d="M122.2 12.3v11.6h11.6V12.3zm5.9 9l-.5-1.6h-2l-.5 1.6h-1l1.9-5.9h1.2l2 5.9zm2.8 0h-1.1v-4.5h1.1zm-.5-5.2a.7.7 0 0 1-.7-.6c0-.4.3-.6.7-.6a.6.6 0 0 1 .6.6.6.6 0 0 1-.6.6z"/><path fill="#5fa4af" d="M126.6 16.2a13.3 13.3 0 0 0-.5 1.9l-.3.8h1.6l-.2-.8zm-12.4 13.4v11.6h11.5V29.6zm3.6 9h-1v-6h1zm5.3 0h-.9v-.5h-.1a2 2 0 0 1-1.3.6c-1.1 0-1.8-.9-1.8-2.4a2.1 2.1 0 0 1 1.9-2.3 1.8 1.8 0 0 1 1.2.5v-2.4h1.1z"/><path fill="#5fa4af" d="M120.1 36.3c0 1 .4 1.5 1 1.5a1.1 1.1 0 0 0 .9-.5v-2.1a1.2 1.2 0 0 0-.9-.4c-.5 0-1 .6-1 1.5zm-18.5-2.9h-.7v2.1h.8c.8 0 1.3-.4 1.3-1.1s-.5-1-1.4-1z"/><path fill="#5fa4af" d="M98.1 29.6v11.6h11.5V29.6zm3.6 6.7h-.8v2.2h-1.1v-6h1.9c1.3 0 2.3.5 2.3 1.9s-1 1.9-2.3 1.9zm4.5 2.3a3.2 3.2 0 0 1-1.7-.6l.5-.7a2.1 2.1 0 0 0 1.2.5c.5 0 .8-.2.8-.5s-.5-.6-1-.7-1.3-.6-1.3-1.4.7-1.3 1.7-1.3a3.3 3.3 0 0 1 1.5.5l-.5.7a2.1 2.1 0 0 0-1-.4c-.5 0-.7.2-.7.5s.5.5 1 .7 1.3.5 1.3 1.3-.7 1.4-1.8 1.4zm0-26.3v11.6h11.6V12.3zm4.4 9l-.8-1.4a3.1 3.1 0 0 0-.5-1 3 3 0 0 0-.4 1l-.7 1.4H107l1.7-3.1-1.6-2.9h1.2l.7 1.3a3.6 3.6 0 0 0 .4.9h.1a3.6 3.6 0 0 1 .4-.9l.6-1.3h1.1l-1.6 2.9 1.7 3.1zm5.6 0h-.8v-.5h-.1a1.7 1.7 0 0 1-1.2.6c-1.1 0-1.9-.9-1.9-2.4a2.1 2.1 0 0 1 1.9-2.3 1.7 1.7 0 0 1 1.2.5v-2.4h1z"/><path fill="#5fa4af" d="M113.2 19c0 1 .4 1.5 1 1.5a1.1 1.1 0 0 0 1-.5v-2.1a1.2 1.2 0 0 0-.9-.4c-.6 0-1.1.6-1.1 1.5zm25.5 15.6a1.2 1.2 0 0 0-1.1 1.1h2c0-.7-.3-1.1-.9-1.1zm-5-1.4l-.6 2-.2.7h1.5l-.2-.7c-.2-.6-.3-1.3-.5-2z"/><path fill="#5fa4af" d="M130.3 29.6v11.5h11.5V29.6zm4.8 8.8l-.4-1.6h-2l-.5 1.6h-1.1l2-6h1.2l2 6zm5.4-2h-2.9a1.3 1.3 0 0 0 1.4 1.3 1.9 1.9 0 0 0 1-.3l.4.6a3 3 0 0 1-1.6.5 2.4 2.4 0 0 1-.1-4.7c1.2 0 1.8.9 1.8 2.1z"/><path fill="#52979e" d="M39.2 160.3h19.2l-.9 19.3H40.2l-1-19.3z"/><path fill="#606e7a" d="M36.9 157.8h23.7v2.49H36.9z"/><path fill="#eaae21" d="M43.4 162H55v3.12H43.4z"/><path fill="#606e7a" d="M66.7 102.2v38.5H31.4v-38.5h-5v96.2h5v-14h35.3v14h5v-96.2zm-35.3 77v-33.3h35.3v33.3zm205.7-77v38.5h-35.2v-38.5h-5.1v96.2h5.1v-14h35.2v14h5v-96.2zm-35.2 77v-33.3h35.2v33.3z"/><path fill="#e8b2b1" d="M31.4 108.2h7.8v32.44h-7.8z"/><path fill="#f4dddb" d="M39.2 116.6h4.4v24.05h-4.4z"/><path fill="#ecc0be" d="M43.6 109.7h5.2v30.98h-5.2z"/><path fill="#e8b2b1" d="M48.8 115h1.7v25.69h-1.7z"/><path fill="#f4dddb" d="M50.4 119h1.7v21.71h-1.7z"/><path fill="#f0cecc" d="M52.1 117.1h1.7v23.54h-1.7z"/><path fill="#f4dddb" d="M53.7 113.4h2.4v27.26h-2.4z"/><path fill="#e8b2b1" d="M56.1 119.3h3.4v21.33h-3.4z"/><path fill="#f4dddb" d="M59.5 105.9h4.4v34.74h-4.4z"/><path fill="#ecc0be" d="M63.9 112h2.8v28.64h-2.8z"/><path fill="#e8b2b1" d="M66.7 216.8h-7.8v-32.44h7.8z"/><path fill="#f4dddb" d="M59 208.5h-4.4v-24.05H59z"/><path fill="#ecc0be" d="M54.5 215.4h-5.2v-30.98h5.2z"/><path fill="#e8b2b1" d="M49.3 210.1h-1.7v-25.69h1.7z"/><path fill="#f4dddb" d="M47.7 206.1H46v-21.71h1.7z"/><path fill="#f0cecc" d="M46 207.9h-1.7v-23.54H46z"/><path fill="#f4dddb" d="M44.4 211.7H42v-27.26h2.4z"/><path fill="#e8b2b1" d="M42 205.7h-3.4v-21.33H42z"/><path fill="#f4dddb" d="M38.7 219.1h-4.4v-34.74h4.4z"/><path fill="#ecc0be" d="M34.3 213h-2.8v-28.64h2.8z"/><path fill="#5ea1ac" d="M237.1 216.8h-7.8v-32.44h7.8z"/><path fill="#bbd1d7" d="M229.3 208.5h-4.4v-24.05h4.4z"/><path fill="#8db7c0" d="M224.9 215.4h-5.2v-30.98h5.2z"/><path fill="#5ea1ac" d="M219.8 210.1h-1.7v-25.69h1.7z"/><path fill="#bbd1d7" d="M218.1 206.1h-1.7v-21.71h1.7z"/><path fill="#8db7c0" d="M216.5 207.9h-1.7v-23.54h1.7z"/><path fill="#bbd1d7" d="M214.8 211.7h-2.4v-27.26h2.4z"/><path fill="#5ea1ac" d="M212.4 205.7H209v-21.33h3.4z"/><path fill="#bbd1d7" d="M209 219.1h-4.4v-34.74h4.4z"/><path fill="#8db7c0" d="M204.6 213h-2.8v-28.64h2.8z"/><path fill="#e8b2b1" d="M209.9 123.9h19.2l-.9 16.8h-17.3l-1-16.8z"/><path fill="#eaae21" d="M207.6 121.4h23.7v2.49h-23.7zm6.5 5h11.6v3.12h-11.6z"/><path fill="#ecc0be" d="M138.2 158.1h-13.4v-56H123v57.8h13.5v38.5h1.8l-.1-40.3zm-15.8 12.3h-13.5v-68.2h-1.7v69.9h13.5v26.2h1.7v-27.9z"/><path fill="#5fa4af" d="M115.3 177.4h-13.4v-75.9h-1.7v77.6h13.4v18.7h1.8l-.1-20.4zm17-25v-51h-1.9v53h13.9v44.1h2v-46.1h-14z"/><path fill="#ecc0be" d="M139.6 145.5v-43.3h-2v45.3h13.9v50.9h2v-52.9h-13.9z"/><path fill="#5fa4af" d="M146.5 138.7V95.3h-2v45.3h13.9v57.8h2v-59.7h-13.9z"/><path fill="#ecc0be" d="M152.2 132.6v-30.4h-1.9v32.4h13.9v63.9h1.9v-65.9h-13.9z"/><path fill="#5fa4af" d="M159.2 126.6v-24.4h-1.9v26.4h13.9v69.9h1.9v-71.9h-13.9z"/><path fill="#ecc0be" d="M165.3 120.4v-18.3h-2v20.3h13.9v76h2v-78h-13.9z"/><path fill="#5fa4af" d="M172.4 113.3v-11.1h-1.9v13.1h13.9v83.2h1.9v-85.2h-13.9z"/><path fill="#ecc0be" d="M179.8 107.3v-5.1h-2v7h13.9v89.2h2v-91.1h-13.9z"/><path fill="#5fa4af" d="M116.8 163.8v-61.7h-2v63.6h13.9v32.7h2v-34.6h-13.9zm-13.6 28.4H89.8v-90H88V194h13.5v4.5h1.7v-6.3z"/><path fill="#ecc0be" d="M81 102.2h1.8v96.35H81z"/><path fill="#5fa4af" d="M75.1 102.2h1.8v96.35h-1.8z"/><path fill="#ecc0be" d="M109.5 184.8H96l-.4-82.7h-1.8l.5 84.5h13.5v11.8h1.7v-13.6z"/><rect width="223.5" height="9.91" x="22.5" y="92.3" fill="#5fa4af" rx="1.4"/><path fill="#e8b2b1" d="M218.5 167.2c-6.6 0-9.3 5.4-9.3 12h18.5c0-6.6-2.6-12-9.2-12z"/><path fill="#414042" d="M226.8 154.9s-2.8-1.6-5.9 1.2a6.4 6.4 0 0 0-2.8-.6 6.5 6.5 0 0 0-2.9.6c-3.1-2.8-6-1.2-6-1.2a4.7 4.7 0 0 0 2.7 5 5.2 5.2 0 0 0-.4 2.1 6.6 6.6 0 1 0 13.2 0 8.5 8.5 0 0 0-.4-2.2 4.6 4.6 0 0 0 2.5-4.9z"/><path fill="#ecc0be" d="M226.8 154.9s-2.8-1.6-5.9 1.2a6.4 6.4 0 0 0-2.8-.6 6.5 6.5 0 0 0-2.9.6c-3.1-2.8-6-1.2-6-1.2a4.7 4.7 0 0 0 2.7 5 5.2 5.2 0 0 0-.4 2.1 6.6 6.6 0 1 0 13.2 0 8.5 8.5 0 0 0-.4-2.2 4.6 4.6 0 0 0 2.5-4.9z"/><path fill="#f4dddb" d="M227.7 176.9a2.3 2.3 0 0 0-2.3 2.3h4.6a2.3 2.3 0 0 0-2.3-2.3zm-17.9 0a2.3 2.3 0 0 0-2.3 2.3h4.6a2.3 2.3 0 0 0-2.3-2.3z"/><path fill="#f6e5e3" d="M214.9 156.3c-2.5-2.2-4.8-1.4-5-1.3 3.1.2 4.2 1.7 4.3 2.1a1.9 1.9 0 0 1 .7-.8zm6.2 0a4.9 4.9 0 0 1 5-1.3c-3.2.2-4.3 1.7-4.4 2.1a1.2 1.2 0 0 0-.6-.8z"/><ellipse cx="218.2" cy="164.9" fill="#f6e5e3" rx="2.7" ry="2"/><ellipse cx="217.1" cy="164.9" fill="#e39a9b" rx=".5" ry="1.2"/><ellipse cx="217.1" cy="164.9" fill="#ecc0be" rx=".5" ry="1"/><ellipse cx="219.4" cy="164.9" fill="#e39a9b" rx=".5" ry="1.2"/><ellipse cx="219.4" cy="164.9" fill="#ecc0be" rx=".5" ry="1"/><path fill="#f6daa3" d="M93 51.2h30.1v17.94H93z"/><path fill="#afb1b4" d="M93 73.1h17.9v10.64H93z"/><path fill="#d39090" d="M112.1 73.1h11v10.64h-11z"/><path fill="#f0efef" d="M125.7 49.8h19.1v16.13h-19.1z"/><rect width="3.7" height="1.31" x="126.8" y="50.9" fill="#eaae21" rx=".7"/><rect width="12.5" height="1.31" x="130.9" y="50.9" fill="#9dc1c9" rx=".7"/><rect width="3.7" height="1.31" x="128.1" y="53" fill="#eaae21" rx=".7"/><rect width="6.9" height="1.31" x="132.2" y="53" fill="#9dc1c9" rx=".7"/><rect width="3.7" height="1.31" x="129.4" y="55" fill="#eaae21" rx=".7"/><rect width="6.9" height="1.31" x="133.5" y="55" fill="#9dc1c9" rx=".7"/><rect width="3.7" height="1.31" x="128.1" y="56.9" fill="#eaae21" rx=".7"/><rect width="3.7" height="1.31" x="126.8" y="59" fill="#eaae21" rx=".7"/><path fill="#696a6d" d="M48.4 75.5h7.4a.7.7 0 0 1 .7.7v16.1h-8.8V76.2a.7.7 0 0 1 .7-.7z"/><path fill="#f0efef" d="M48.5 76.5h7.2v13.95h-7.2z"/><circle cx="52.1" cy="91.5" r=".6" fill="#414042"/><path fill="#414042" d="M51.1 75.8h2v.25h-2z"/><path fill="#fff" d="M48.5 76.5h7.2v1.93h-7.2z"/><circle cx="52.1" cy="77.5" r=".7" fill="#b89bc9"/><rect width="1.9" height=".88" x="48.7" y="78.9" fill="#5fa4af" rx=".4"/><rect width="1.9" height=".88" x="48.7" y="85" fill="#5fa4af" rx=".4"/><rect width="3.7" height=".88" x="51.7" y="79.9" fill="#5fa4af" rx=".4"/><rect width="2" height=".88" x="53.5" y="81.2" fill="#5fa4af" rx=".4"/><rect width="1.1" height=".88" x="54.3" y="82.5" fill="#5fa4af" rx=".4"/><rect width="3.4" height=".88" x="52" y="83.8" fill="#5fa4af" rx=".4"/><path fill="#f0cecc" d="M208.8 117.4a4.1 4.1 0 0 0 3.3 4h1.8a4.1 4.1 0 0 0 3.3-4 4.2 4.2 0 0 0-8.4 0z"/><path fill="#eaae21" d="M208.8 117.4c0 .3.1.6.1.9s7.8 1.5 8.2 0 .1-.6.1-.9-.1-.6-.1-.9-7.8-1.9-8.2 0c0 .3-.1.6-.1.9z"/><path fill="#f0cecc" d="M229.5 117.4a4.1 4.1 0 0 1-3.2 4h-1.9a4.1 4.1 0 0 1-3.2-4 4.1 4.1 0 0 1 4.1-4.2 4.2 4.2 0 0 1 4.2 4.2z"/><path fill="#eaae21" d="M229.5 117.4a2.8 2.8 0 0 1-.1.9c-.7-.8-7.8 1.5-8.1 0a4.1 4.1 0 0 1 0-1.8s7.7-1.9 8.1 0a2.8 2.8 0 0 1 .1.9z"/><path fill="#e8b2b1" d="M205.8 86h37.3v6.26h-37.3z"/><path fill="#5fa4af" d="M209.2 84.1h30.4V86h-30.4z"/><path fill="#afb1b4" d="M209.5 68.1h30.4V70h-30.4z"/><path fill="#eaae21" d="M211.3 82.2h30.4v1.9h-30.4z"/><path fill="#d39090" d="M205.8 79.9h37.3v2.33h-37.3z"/><path fill="#bb9848" d="M204.2 77.6h37.3v2.33h-37.3z"/><path fill="#abc8cf" d="M211.8 70h25.6v7.58h-25.6z"/><path fill="#5fa4af" d="M24 13.8h49.8v49.85H24z"/><path fill="#f0efef" d="M25.6 15.3h46.8v46.8H25.6z"/><path fill="#f6daa3" d="M55 31h10.3v2.58H55z"/><path fill="#f2cb7c" d="M55 27.4h10.3v2.58H55z"/><path fill="#eebc50" d="M55 23.8h10.3v2.58H55z"/><path fill="#eaae21" d="M55 20.2h10.3v2.58H55z"/><path fill="#bcd3d8" d="M42.9 31h10.3v2.58H42.9z"/><path fill="#9dc1c9" d="M42.9 27.4h10.3v2.58H42.9z"/><path fill="#7fb2bb" d="M42.9 23.8h10.3v2.58H42.9z"/><path fill="#5fa4af" d="M42.9 20.2h10.3v2.58H42.9z"/><path fill="#f4dddb" d="M30.6 31h10.3v2.58H30.6z"/><path fill="#f0cecc" d="M30.6 27.4h10.3v2.58H30.6z"/><path fill="#ecc0be" d="M30.6 23.8h10.3v2.58H30.6z"/><path fill="#e8b2b1" d="M30.6 20.2h10.3v2.58H30.6z"/><path fill="#afb1b4" d="M55 49.8h10.3v2.58H55z"/><path fill="#8c8e90" d="M55 46.2h10.3v2.58H55z"/><path fill="#696a6d" d="M55 42.6h10.3v2.58H55z"/><path fill="#414042" d="M55 39h10.3v2.58H55z"/><path fill="#b2b5bc" d="M42.9 49.8h10.3v2.58H42.9z"/><path fill="#949aa4" d="M42.9 46.2h10.3v2.58H42.9z"/><path fill="#79828e" d="M42.9 42.6h10.3v2.58H42.9z"/><path fill="#606e7a" d="M42.9 39h10.3v2.58H42.9z"/><path fill="#f2cb7c" d="M553.3 6.1h37v70.6h-37z"/><path fill="#bb9848" d="M553.3 38.9h37v.83h-37zm3.1 3.4h5.8v5.76h-5.8zm6.2 0h5.8v5.76h-5.8zm6.3 0h5.8v5.76h-5.8zm6.3 0h5.8v5.76h-5.8zm6.3 0h5.8v5.76h-5.8zm-25.1 6.3h5.8v5.76h-5.8zm6.2 0h5.8v5.76h-5.8zm6.3 0h5.8v5.76h-5.8zm6.3 0h5.8v5.76h-5.8zm6.3 0h5.8v5.76h-5.8zm-25.1 6.3h5.8v5.76h-5.8zm6.2 0h5.8v5.76h-5.8zm6.3 0h5.8v5.76h-5.8zm6.3 0h5.8v5.76h-5.8zm6.3 0h5.8v5.76h-5.8zm-25.1 6.3h5.8v5.76h-5.8zm6.2 0h5.8v5.76h-5.8zm6.3 0h5.8v5.76h-5.8zm6.3 0h5.8v5.76h-5.8zm6.3 0h5.8v5.76h-5.8zm-25.1 6.2h5.8v5.76h-5.8zm6.2 0h5.8v5.76h-5.8zm6.3 0h5.8v5.76h-5.8zm6.3 0h5.8v5.76h-5.8zm6.3 0h5.8v5.76h-5.8z"/><path fill="#f7ddac" d="M587.8 11.9v25h-26l26-25z"/><path fill="#c68383" d="M260.8 18.3c-3.1 13.2 6.2 17.6 9.6 15.5s3.5-12.4-9.6-15.5z"/><path fill="#c68383" d="M260.8 18.3c3.1 13.2-6.2 17.6-9.6 15.5s-3.5-12.4 9.6-15.5z"/><path fill="#d39090" d="M260.8 18.3c-9.6 9.6-4 18.3 0 18.3 5.6 0 9.5-8.7 0-18.3z"/><path fill="#ddab41" d="M261.1 17.1v-19h-.6v19c-.8.2-3 .7-3.2 2.3h6.9c-.2-1.6-2.3-2.1-3.1-2.3z"/><path fill="#c68383" d="M225.6 18.3c-3.1 13.2 6.2 17.6 9.6 15.5s3.6-12.4-9.6-15.5z"/><path fill="#c68383" d="M225.6 18.3c3.1 13.2-6.2 17.6-9.6 15.5s-3.5-12.4 9.6-15.5z"/><path fill="#d39090" d="M225.6 18.3c-9.5 9.6-4 18.3 0 18.3 5.6 0 9.5-8.7 0-18.3z"/><path fill="#ddab41" d="M225.9 17.1v-19h-.6v19c-.8.2-3 .7-3.1 2.3h6.8c-.2-1.6-2.3-2.1-3.1-2.3z"/><path fill="#c68383" d="M191.2 18.3c-3.1 13.2 6.2 17.6 9.6 15.5s3.5-12.4-9.6-15.5z"/><path fill="#c68383" d="M191.2 18.3c3.1 13.2-6.2 17.6-9.6 15.5s-3.5-12.4 9.6-15.5z"/><path fill="#d39090" d="M191.2 18.3c-9.5 9.6-4 18.3 0 18.3 5.6 0 9.5-8.7 0-18.3z"/><path fill="#ddab41" d="M191.5 17.1v-19h-.6v19c-.8.2-3 .7-3.2 2.3h6.9c-.2-1.6-2.3-2.1-3.1-2.3z"/><path fill="#c68383" d="M454.9 18.3c-3.1 13.2 6.2 17.6 9.6 15.5s3.5-12.4-9.6-15.5z"/><path fill="#c68383" d="M454.9 18.3c3.1 13.2-6.2 17.6-9.6 15.5s-3.5-12.4 9.6-15.5z"/><path fill="#d39090" d="M454.9 18.3c-9.6 9.6-4 18.3 0 18.3 5.6 0 9.5-8.7 0-18.3z"/><path fill="#ddab41" d="M455.2 17.1v-19h-.6v19c-.8.2-3 .7-3.2 2.3h6.9c-.2-1.6-2.3-2.1-3.1-2.3z"/><path fill="#c68383" d="M487.6 18.3h-.1c-3 13.2 6.2 17.6 9.6 15.5s3.6-12.4-9.5-15.5z"/><path fill="#c68383" d="M487.5 18.3h.1c3 13.2-6.3 17.6-9.7 15.5s-3.5-12.4 9.6-15.5z"/><path fill="#d39090" d="M487.5 18.3c-9.5 9.6-4 18.3 0 18.3 5.6 0 9.6-8.7 0-18.3z"/><path fill="#ddab41" d="M487.8 17.1v-19h-.6v19c-.8.2-3 .7-3.1 2.3h6.8c-.1-1.6-2.3-2.1-3.1-2.3z"/><path fill="#c68383" d="M522.1 18.3c-3.1 13.2 6.2 17.6 9.6 15.5s3.5-12.4-9.6-15.5z"/><path fill="#c68383" d="M522.1 18.3c3.1 13.2-6.2 17.6-9.6 15.5s-3.5-12.4 9.6-15.5z"/><path fill="#d39090" d="M522.1 18.3c-9.5 9.6-4 18.3 0 18.3 5.6 0 9.5-8.7 0-18.3z"/><path fill="#ddab41" d="M522.4 17.1v-19h-.6v19c-.8.2-3 .7-3.2 2.3h6.9c-.2-1.6-2.3-2.1-3.1-2.3z"/></svg>