<svg xmlns="http://www.w3.org/2000/svg" width="10in" height="2.7in" viewBox="0 0 720 197.6"><title>banner-4</title><g id="Layer_9" data-name="Layer 9"><path d="M405.7,21.9H307.2l37.4,67.2-37.4,67.3h20v-3.1H312.3l34-61.1,8.4,15.1-7.9,14.4,4.2-1.4,5.4-10,8,14.6,4.4,1.3-10.7-18.9,8.4-15.1,34.1,61.1H387.5v3.1h18.2L368.2,89.1ZM312.3,25h88.3L366.5,86.1,358.1,71l10.7-18.9-4.4,1.3-8,14.5L344.6,46.6l-4.3-1.4L354.7,71l-8.4,15.1Zm44.1,79.3L348,89.1,356.4,74l8.5,15.1Z" fill="#424142"/><path d="M307.6,102.7h2.8V81.5h-2.8V81h10.7v.5h-2.8v10h1.2l8.6-8.3c.7-.8.7-1.7-.9-1.7h-1.2V81h6.3v.5h-.6c-1.1,0-1.6.4-2.9,1.7l-5.5,5.4,9,14.1h1.3v.5H320.6v-.5h2.8L316.5,92h-1v10.7h2.8v.5H307.6Z" fill="#e09090"/><path d="M380.7,102.7h1c1.5,0,2-.7,2-2V81.5h-2.8V81h8L395,97.2,400.8,81h7.7v.5h-2.8v21.2h2.8v.5H397.6v-.5h3V83.1l-7.3,20.1h-1.4l-7.7-20.1v17.6c0,1.3.5,2,2,2h1.1v.5h-6.6Z" fill="#e09090"/><path d="M329.1,157.5h1.7V145.4h-1.7v-.3h5.6c4.5,0,6.4,2.4,6.4,6.1s-1.8,6.6-6.4,6.6h-5.6Zm5.6,0c2.9,0,4.3-2.1,4.3-6s-1.4-6.1-4.3-6.1h-2v12.1Z" fill="#424142"/><path d="M344.7,153.5c0,3.3.8,4.1,2.3,4.1a2.5,2.5,0,0,0,2.7-2.3h.3a2.6,2.6,0,0,1-1.8,2.4,3,3,0,0,1-1.4.2c-2.4,0-3.9-1.3-3.9-4.4s1.6-4.5,3.9-4.5,3.4,1.1,3.4,3.5v.7h-5.5Zm3.8-.5v-.8c0-1.8-.4-2.9-1.7-2.9s-2,1.2-2.1,3.7Z" fill="#424142"/><path d="M351.9,157.9a8.2,8.2,0,0,0,.2-1.8v-1.4h.3v.7c0,1,1.1,2.2,2.9,2.2s2.2-.5,2.2-1.6-5.5-.8-5.5-4.4c0-2,1.7-2.6,3-2.6a3.1,3.1,0,0,1,2.2.8c.5,0,.6-.5.7-.8h.3a3.6,3.6,0,0,0-.3,1.8v1h-.3v-.3a2.3,2.3,0,0,0-2.6-2.2c-1.2,0-2.2.5-2.2,1.6s5.5.9,5.5,4.3a2.7,2.7,0,0,1-3,2.7,3.6,3.6,0,0,1-2.5-.9,1.6,1.6,0,0,0-.7.9Z" fill="#424142"/><path d="M359.6,157.5H361v-8.1h-1.4v-.2h3.1v8.3H364v.3h-4.4Zm2.1-12.6a1.1,1.1,0,0,1,1,1,1.1,1.1,0,0,1-1,1.1,1.1,1.1,0,0,1-1.1-1.1,1.1,1.1,0,0,1,1.1-1" fill="#424142"/><path d="M367.4,159.3c-.7-.1-1,.3-1,1.2s.9,1.5,2.7,1.5,3.6-.6,3.6-2-1.7-1.4-3.6-1.5-4.1-.3-4.1-2.1a2.9,2.9,0,0,1,1.5-2.3,2.6,2.6,0,0,1-.9-2.1c0-1.7,1.2-3,3.5-3a3.9,3.9,0,0,1,2.5.8,1.1,1.1,0,0,0,.6-1.1c0-.7-.2-1-.9-1h.7c1,0,1.4.5,1.4,1s-.8,1-1.6,1.5a2.6,2.6,0,0,1,.7,1.9c0,1.8-1.3,2.9-3.5,2.9a4.9,4.9,0,0,1-2.3-.5,1.8,1.8,0,0,0-1,1.4c0,1.1,1.6,1,3.7,1.2s3.9.5,3.9,2.5-2,2.9-4.2,2.9-3.9-.7-3.9-1.9a1.5,1.5,0,0,1,1.6-1.4h.6Zm3.4-7.4c0-1.5-.3-2.6-1.8-2.6s-1.7,1.1-1.7,2.7.3,2.6,1.7,2.6,1.8-1.1,1.8-2.7" fill="#424142"/><path d="M374,157.5h1.3v-8.1H374v-.2h3v2h0a3.2,3.2,0,0,1,3.1-2.2c1.9,0,2.8.8,2.8,2.7v5.8h1.3v.3H380v-.3h1.2v-6.2c0-1.4-.4-1.9-1.4-1.9a2.4,2.4,0,0,0-2.1,1.1,4,4,0,0,0-.7,2.1v4.9h1.2v.3H374Z" fill="#424142"/><polygon points="703 197.6 455.2 197.6 558.5 0 703 0 703 197.6" fill="#495965"/><polygon points="693.9 197.6 446.1 197.6 549.4 0 693.9 0 693.9 197.6" fill="#d14c4b"/><polygon points="699.4 197.6 451.6 197.6 554.9 0 699.4 0 699.4 197.6" fill="#e9ae21"/><polygon points="703 197.6 455.2 197.6 558.5 0 703 0 703 197.6" fill="#495965"/><polygon points="712.8 197.6 465 197.6 568.3 0 712.8 0 712.8 197.6" fill="#3d999b"/><polygon points="720 197.6 472.2 197.6 575.5 0 720 0 720 197.6" fill="#e09090"/><polygon points="17 0 264.8 0 161.5 197.6 17 197.6 17 0" fill="#495965"/><polygon points="26.1 0 273.9 0 170.6 197.6 26.1 197.6 26.1 0" fill="#d14c4b"/><polygon points="20.6 0 268.4 0 165.1 197.6 20.6 197.6 20.6 0" fill="#e9ae21"/><polygon points="17 0 264.8 0 161.5 197.6 17 197.6 17 0" fill="#495965"/><polygon points="7.2 0 255 0 151.7 197.6 7.2 197.6 7.2 0" fill="#3d999b"/><polygon points="0 0 247.8 0 144.5 197.6 0 197.6 0 0" fill="#e09090"/></g></svg>