<svg xmlns="http://www.w3.org/2000/svg" width="10in" height="2.7in" viewBox="0 0 720 197.6"><title>banner-5</title><g id="Layer_9" data-name="Layer 9"><path d="M410.7,43.4H325.1l32.5,58.5-32.5,58.5h17.4v-2.7h-13l29.6-53.2,7.3,13.2-6.9,12.5,3.7-1.2,4.7-8.7,6.9,12.7,3.9,1.1-9.3-16.4,7.3-13.2,29.6,53.2H394.9v2.7h15.8l-32.5-58.5Zm-81.2,2.8h76.8L376.7,99.3l-7.3-13.2,9.3-16.4-3.9,1.2-6.9,12.6L357.6,65l-3.7-1.2,12.5,22.3-7.3,13.2Zm38.4,68.9-7.3-13.2,7.3-13.2,7.3,13.2Z" fill="#424142"/><path d="M325.4,113.7h2.5V95.3h-2.5v-.5h9.4v.5h-2.5v8.6h1.1l7.4-7.2c.7-.6.6-1.4-.7-1.4H339v-.5h5.5v.5H344c-1,0-1.4.3-2.6,1.4l-4.7,4.7,7.8,12.3h1.1v.5h-8.8v-.5h2.4l-6-9.3h-.9v9.3h2.5v.5h-9.4Z" fill="#e09090"/><path d="M389,113.7h.9c1.3,0,1.7-.6,1.7-1.7V95.3h-2.4v-.5h6.9l5.3,14.1,5.1-14.1h6.7v.5h-2.5v18.4h2.5v.5h-9.5v-.5h2.6V96.6L400,114.2h-1.3l-6.6-17.5V112c0,1.1.4,1.7,1.7,1.7h.9v.5H389Z" fill="#e09090"/><path d="M344.2,161.3h1.5V150.8h-1.5v-.2H349c3.9,0,5.5,2.1,5.5,5.3s-1.5,5.7-5.5,5.7h-4.8Zm4.8,0c2.5,0,3.8-1.8,3.8-5.2s-1.3-5.3-3.8-5.3h-1.7v10.5Z" fill="#424142"/><path d="M357.7,157.9c0,2.8.7,3.6,2,3.6a2.2,2.2,0,0,0,2.3-2.1h.3a2.1,2.1,0,0,1-1.6,2.1l-1.2.2c-2,0-3.4-1.1-3.4-3.9s1.4-3.8,3.4-3.8,3,.9,3,3v.6h-4.8Zm3.3-.5v-.7c0-1.6-.3-2.5-1.5-2.5s-1.7,1.1-1.8,3.2Z" fill="#424142"/><path d="M363.9,161.7a3.6,3.6,0,0,0,.2-1.5v-1.3h.3v.6a2.3,2.3,0,0,0,2.5,2c1.1,0,1.9-.5,1.9-1.5s-4.7-.7-4.7-3.8,1.5-2.2,2.6-2.2a2.4,2.4,0,0,1,1.9.7c.4-.1.5-.5.6-.7h.2a3.6,3.6,0,0,0-.2,1.5v.9h-.3v-.3a1.9,1.9,0,0,0-2.2-1.9c-1.1,0-2,.4-2,1.4s4.8.7,4.8,3.8a2.3,2.3,0,0,1-2.6,2.3,3.1,3.1,0,0,1-2.2-.8,1.6,1.6,0,0,0-.5.8Z" fill="#424142"/><path d="M370.7,161.3h1.1v-7h-1.1v-.2h2.6v7.2h1.2v.3h-3.8Zm1.8-10.9a.9.9,0,0,1,0,1.8.9.9,0,1,1,0-1.8" fill="#424142"/><path d="M377.5,162.9c-.6-.1-.9.3-.9,1s.8,1.4,2.3,1.4,3.1-.6,3.1-1.8-1.4-1.2-3-1.3-3.6-.3-3.6-1.9a2.3,2.3,0,0,1,1.2-1.9,2.4,2.4,0,0,1-.7-1.8c0-1.5,1-2.6,3-2.6a3.1,3.1,0,0,1,2.2.7,1,1,0,0,0,.5-1c0-.6-.2-.9-.8-.9h.6c.9,0,1.2.5,1.2.9s-.6.9-1.3,1.3a2.5,2.5,0,0,1,.6,1.7c0,1.5-1.2,2.5-3.1,2.5a3.3,3.3,0,0,1-1.9-.5c-.5.4-.9.7-.9,1.2s1.4,1,3.1,1.1,3.5.4,3.5,2.2-1.8,2.5-3.7,2.5-3.4-.6-3.4-1.7.8-1.1,1.4-1.1h.6Zm2.9-6.4c0-1.3-.3-2.3-1.5-2.3s-1.6,1-1.6,2.3.3,2.3,1.5,2.3,1.6-.9,1.6-2.3" fill="#424142"/><path d="M383.2,161.3h1.1v-7h-1.1v-.2h2.6v1.8h0a2.7,2.7,0,0,1,2.7-1.9c1.6,0,2.4.7,2.4,2.2v5.1h1.2v.3h-3.7v-.3h1v-5.4c0-1.2-.3-1.6-1.2-1.6a2.3,2.3,0,0,0-1.8.9,3.8,3.8,0,0,0-.6,1.9v4.2h1v.3h-3.6Z" fill="#424142"/><polygon points="678.2 25 478.5 25 478.5 32.5 471.3 32.5 478.5 54.6 656.6 54.6 656.6 151 478.5 151 471 172.8 478.5 172.8 478.5 180.3 678.2 180.3 685.7 180.3 685.7 172.8 685.7 32.5 685.7 25 678.2 25" fill="#e9ae21"/><polygon points="678.2 25 478.5 25 478.5 32.5 471.3 32.5 478.5 51 660.2 51 660.2 154.6 478.5 154.6 471 172.8 478.5 172.8 478.5 180.3 678.2 180.3 685.7 180.3 685.7 172.8 685.7 32.5 685.7 25 678.2 25" fill="#d14c4b"/><polygon points="685.7 25 720 0 720 197.6 685.7 180.3 685.7 25" fill="#edc3c0"/><polygon points="678.2 25 478.5 25 478.5 32.5 471.3 32.5 478.5 47.1 664.1 47.1 664.1 157.9 478.5 157.9 471 172.8 478.5 172.8 478.5 180.3 678.2 180.3 685.7 180.3 685.7 172.8 685.7 32.5 685.7 25 678.2 25" fill="#495965"/><polygon points="678.2 25 478.5 25 478.5 32.5 471.3 32.5 478.5 39.7 671 39.7 671 165.3 478.5 165.3 471 172.8 478.5 172.8 478.5 180.3 678.2 180.3 685.7 180.3 685.7 172.8 685.7 32.5 685.7 25 678.2 25" fill="#3d999b"/><polygon points="41.1 25 240.8 25 240.8 32.5 248 32.5 240.8 54.6 62.7 54.6 62.7 151 240.8 151 248.2 172.8 240.8 172.8 240.8 180.3 41.1 180.3 33.5 180.3 33.5 172.8 33.5 32.5 33.5 25 41.1 25" fill="#e9ae21"/><polygon points="41.1 25 240.8 25 240.8 32.5 248 32.5 240.8 51 59.1 51 59.1 154.6 240.8 154.6 248.2 172.8 240.8 172.8 240.8 180.3 41.1 180.3 33.5 180.3 33.5 172.8 33.5 32.5 33.5 25 41.1 25" fill="#d14c4b"/><polygon points="41.1 25 240.8 25 240.8 32.5 248 32.5 240.8 47.1 55.2 47.1 55.2 157.9 240.8 157.9 248.2 172.8 240.8 172.8 240.8 180.3 41.1 180.3 33.5 180.3 33.5 172.8 33.5 32.5 33.5 25 41.1 25" fill="#495965"/><polygon points="41.1 25 240.8 25 240.8 32.5 248 32.5 240.8 39.7 48.2 39.7 48.2 165.3 240.8 165.3 248.2 172.8 240.8 172.8 240.8 180.3 41.1 180.3 33.5 180.3 33.5 172.8 33.5 32.5 33.5 25 41.1 25" fill="#3d999b"/><path d="M678.2,25H34.3V180.3H685.7V25Zm0,147.8H41.8V32.5H678.2Z" fill="#e09090"/><polygon points="34.3 25 0 0 0 197.6 34.3 180.3 34.3 25" fill="#edc3c0"/><polygon points="685.7 180.3 241.5 180.3 240 180.3 34.3 180.3 0 197.6 216.7 197.6 222.3 197.6 720 197.6 685.7 180.3" fill="#e9b3b1"/><polygon points="455.2 0 222.3 0 0 0 34.3 25 241.5 25 478.5 25 685.7 25 720 0 455.2 0" fill="#e5a3a2"/></g></svg>