<svg xmlns="http://www.w3.org/2000/svg" width="5in" height="5in" viewBox="0 0 360 360"><circle cx="180" cy="180.6" r="180" fill="#e09090"/><path fill="#fff" d="M153.3 177.4c21.7-1.9 24.4-31.6 24.4-37.6s-2.7-42.2-48.9-42.2H55.5V265h73.3c54.8 0 54.6-27.1 54.6-47.2 0-22.3-13.5-34.7-30.1-40.4zm-65-52.7h40.5c21.9 0 21.9 41.9 0 41.9H88.3zm40.5 113.2H88.3v-44.2h40.5c27.3 0 27.3 44.2 0 44.2zm98.8-22.1h83.2c.2-2.5.2-5.1.2-7.7 0-32.9-16.7-62.5-56.6-62.5-36.5 0-58.3 21-59.6 62.5-1.1 32.9 20.4 61.4 59.6 59.6 37.5-1.7 50.9-16.9 55-39h-34.2c-10.8 20.7-47.6 16.4-47.6-12.9zm50.6-22.1h-50.6c0-27.1 50.6-32.8 50.6 0zm-66.7-86.1h81.7v19.76h-81.7z"/></svg>