<svg xmlns="http://www.w3.org/2000/svg" xmlns:xlink="http://www.w3.org/1999/xlink" width="11in" height="17in" viewBox="0 0 792 1224"><defs><radialGradient id="b" cx="392.71" cy="519.99" r="290.18" gradientTransform="matrix(1 0 0 .09 0 475.6)" gradientUnits="userSpaceOnUse"><stop offset="0" stop-color="#b26928"/><stop offset=".31" stop-color="#b56c28"/><stop offset=".53" stop-color="#be7428"/><stop offset=".72" stop-color="#ce8228"/><stop offset=".9" stop-color="#e49627"/><stop offset=".95" stop-color="#eb9c27"/></radialGradient><linearGradient id="c" x1="495.71" x2="616.06" y1="474.99" y2="474.99" gradientUnits="userSpaceOnUse"><stop offset=".27" stop-color="#ccc"/><stop offset=".8" stop-color="#fff"/><stop offset=".99" stop-color="#d9d9d9"/></linearGradient><linearGradient id="a" x1="258.15" x2="269.97" y1="441.42" y2="441.42" gradientUnits="userSpaceOnUse"><stop offset=".43" stop-color="#e3e3e3"/><stop offset="1" stop-color="#fff"/></linearGradient><linearGradient id="d" x1="272.3" x2="284.12" y1="441.42" y2="441.42" xlink:href="#a"/><linearGradient id="e" x1="287.23" x2="295.09" y1="441.42" y2="441.42" xlink:href="#a"/><linearGradient id="f" x1="297.3" x2="305.16" y1="441.42" y2="441.42" xlink:href="#a"/><linearGradient id="g" x1="307.37" x2="315.23" y1="441.42" y2="441.42" xlink:href="#a"/><linearGradient id="h" x1="317.95" x2="325.8" y1="441.42" y2="441.42" xlink:href="#a"/><linearGradient id="i" x1="258.01" x2="264.04" y1="465.66" y2="465.66" xlink:href="#a"/><linearGradient id="j" x1="265.09" x2="271.81" y1="467.28" y2="467.28" xlink:href="#a"/><linearGradient id="k" x1="273.17" x2="279.7" y1="468.79" y2="468.79" xlink:href="#a"/><linearGradient id="l" x1="281.17" x2="288.07" y1="467.28" y2="467.28" xlink:href="#a"/><linearGradient id="m" x1="293.82" x2="295.22" y1="465.66" y2="465.66" xlink:href="#a"/><linearGradient id="n" x1="297.61" x2="303.46" y1="467.17" y2="467.17" xlink:href="#a"/><linearGradient id="o" x1="305.36" x2="311.3" y1="467.28" y2="467.28" xlink:href="#a"/><linearGradient id="p" x1="312.82" x2="314.7" y1="470.76" y2="470.76" xlink:href="#a"/><clipPath id="q"><path fill="none" d="M584.7 1131.2h189.4v39.73H584.7z"/></clipPath><clipPath id="r"><path fill="none" d="M572.7 1111.6h218.5v69.53H572.7z"/></clipPath></defs><path fill="#eb9d28" d="M-8.2-9.8h810v1242h-810z"/><ellipse cx="392.7" cy="520" fill="url(#b)" opacity=".5" rx="292.4" ry="25.6"/><ellipse cx="174.2" cy="500" fill="#462600" rx="6.7" ry="3.5" transform="rotate(-16.4 173.851 499.3)"/><path fill="#6b4019" d="M180.5 498.2c-7.9-2.6-8.4 4.9-12.5 3.7 4.2 2.3 5.7-3.8 12.5-3.7z"/><ellipse cx="225.2" cy="509.5" fill="#462600" rx="6.7" ry="3.5" transform="rotate(-16.4 224.557 508.733)"/><path fill="#6b4019" d="M231.5 507.7c-7.9-2.7-8.4 4.9-12.5 3.6 4.2 2.4 5.7-3.8 12.5-3.6z"/><ellipse cx="277.3" cy="495.4" fill="#462600" rx="6.7" ry="3.5" transform="rotate(-16.4 276.877 494.667)"/><path fill="#6b4019" d="M283.6 493.5c-7.9-2.6-8.4 4.9-12.5 3.7 4.2 2.4 5.7-3.8 12.5-3.7z"/><ellipse cx="283.6" cy="500.3" fill="#462600" rx="6.7" ry="3.5" transform="rotate(-16.4 282.92 499.434)"/><path fill="#6b4019" d="M289.9 498.4c-7.9-2.6-8.4 5-12.5 3.7 4.1 2.4 5.6-3.8 12.5-3.7z"/><ellipse cx="268.3" cy="509.5" fill="#462600" rx="6.7" ry="3.5" transform="rotate(-16.4 267.788 508.587)"/><path fill="#6b4019" d="M274.5 507.7c-7.9-2.7-8.4 4.9-12.5 3.6 4.2 2.4 5.7-3.8 12.5-3.6z"/><ellipse cx="238.7" cy="500.3" fill="#462600" rx="6.7" ry="3.5" transform="rotate(-16.4 238.3 499.38)"/><path fill="#6b4019" d="M245 498.5c-7.9-2.7-8.4 4.9-12.5 3.6 4.2 2.4 5.7-3.8 12.5-3.6z"/><ellipse cx="256.9" cy="493" fill="#462600" rx="6.7" ry="3.5" transform="rotate(-16.4 256.356 492.064)"/><path fill="#6b4019" d="M263.2 491.1c-8-2.6-8.4 5-12.6 3.7 4.2 2.4 5.7-3.8 12.6-3.7z"/><ellipse cx="194.4" cy="507.1" fill="#462600" rx="6.7" ry="3.5" transform="rotate(-46.1 194.2 506.753)"/><path fill="#6b4019" d="M199 502.4c-8.2 1.6-4.9 8.4-9.1 9.4 4.8 0 3.1-6.1 9.1-9.4z"/><ellipse cx="213.1" cy="498.5" fill="#462600" rx="6.7" ry="3.5" transform="rotate(-46.1 212.84 498.17)"/><path fill="#6b4019" d="M217.7 493.7c-8.2 1.7-4.9 8.5-9.1 9.4 4.8 0 3.1-6.1 9.1-9.4z"/><ellipse cx="225.2" cy="493" fill="#462600" rx="3.5" ry="6.7" transform="rotate(-55.7 224.934 492.772)"/><path fill="#6b4019" d="M219.8 489.3c3 7.8 9.2 3.4 10.8 7.3-.8-4.7-6.5-1.9-10.8-7.3z"/><ellipse cx="156.8" cy="500.9" fill="#462600" rx="3.5" ry="6.7" transform="rotate(-55.7 156.484 500.668)"/><path fill="#6b4019" d="M151.4 497.3c2.9 7.8 9.1 3.3 10.8 7.3-.9-4.7-6.6-2-10.8-7.3z"/><ellipse cx="160.9" cy="506.3" fill="#462600" rx="3.5" ry="6.7" transform="rotate(-55.7 160.578 505.979)"/><path fill="#6b4019" d="M155.5 502.6c2.9 7.8 9.1 3.4 10.7 7.4-.8-4.7-6.5-2-10.7-7.4z"/><ellipse cx="164.3" cy="501.3" fill="#462600" rx="3.5" ry="6.7" transform="rotate(-55.7 164.04 501.03)"/><path fill="#6b4019" d="M158.9 497.6c2.9 7.8 9.1 3.4 10.7 7.4-.8-4.7-6.5-2-10.7-7.4z"/><ellipse cx="177.5" cy="509.5" fill="#462600" rx="3.5" ry="6.7" transform="rotate(-55.7 177.263 509.226)"/><path fill="#6b4019" d="M172.1 505.8c3 7.8 9.2 3.4 10.8 7.4-.8-4.8-6.5-2-10.8-7.4z"/><ellipse cx="176.4" cy="501.3" fill="#462600" rx="6.7" ry="3.5" transform="rotate(-11.5 174.406 495.94)"/><path fill="#6b4019" d="M169.9 502.6c7.7 3.3 8.8-4.2 12.8-2.6-3.9-2.7-5.9 3.3-12.8 2.6z"/><ellipse cx="186.3" cy="500.3" fill="#462600" rx="3.5" ry="6.7" transform="rotate(-55.7 185.99 500.037)"/><path fill="#6b4019" d="M180.9 496.6c3 7.8 9.1 3.4 10.8 7.4-.8-4.7-6.6-2-10.8-7.4z"/><ellipse cx="199" cy="497.7" fill="#462600" rx="3.5" ry="6.7" transform="rotate(-55.7 198.642 497.4)"/><path fill="#6b4019" d="M193.6 494c2.9 7.8 9.1 3.4 10.8 7.3-.9-4.7-6.6-1.9-10.8-7.3z"/><ellipse cx="201.4" cy="510.6" fill="#462600" rx="3.5" ry="6.7" transform="rotate(-55.7 201.128 510.336)"/><path fill="#6b4019" d="M196 506.9c3 7.8 9.1 3.4 10.8 7.4-.8-4.7-6.6-2-10.8-7.4z"/><ellipse cx="250.6" cy="508.8" fill="#462600" rx="3.5" ry="6.7" transform="rotate(-55.7 250.292 508.47)"/><path fill="#6b4019" d="M245.2 505.1c3 7.8 9.2 3.3 10.8 7.3-.8-4.7-6.5-2-10.8-7.3z"/><ellipse cx="236.7" cy="503.3" fill="#462600" rx="3.5" ry="6.7" transform="rotate(-55.7 236.338 503.034)"/><path fill="#6b4019" d="M231.3 499.6c2.9 7.8 9.1 3.4 10.8 7.3-.9-4.7-6.6-1.9-10.8-7.3z"/><ellipse cx="184.5" cy="507.1" fill="#462600" rx="3.5" ry="6.7" transform="rotate(-55.7 184.21 506.844)"/><path fill="#6b4019" d="M179.1 503.4c3 7.8 9.1 3.4 10.8 7.4-.8-4.8-6.6-2-10.8-7.4z"/><ellipse cx="221.6" cy="505.3" fill="#462600" rx="3.5" ry="6.7" transform="rotate(-55.7 221.211 505.089)"/><path fill="#6b4019" d="M216.2 501.7c2.9 7.8 9.1 3.3 10.7 7.3-.8-4.7-6.5-2-10.7-7.3z"/><ellipse cx="260.8" cy="497.1" fill="#462600" rx="3.5" ry="6.7" transform="rotate(-55.7 260.51 496.921)"/><path fill="#6b4019" d="M255.4 493.4c3 7.8 9.2 3.4 10.8 7.4-.8-4.7-6.5-2-10.8-7.4z"/><ellipse cx="285.9" cy="505.6" fill="#462600" rx="3.5" ry="6.7" transform="rotate(-55.7 285.55 505.43)"/><path fill="#6b4019" d="M280.5 502c2.9 7.8 9.1 3.3 10.8 7.3-.9-4.7-6.6-2-10.8-7.3z"/><ellipse cx="297.2" cy="497.9" fill="#462600" rx="3.5" ry="6.7" transform="rotate(-55.7 296.784 497.687)"/><path fill="#6b4019" d="M291.8 494.2c2.9 7.8 9.1 3.4 10.7 7.4-.8-4.8-6.5-2-10.7-7.4z"/><ellipse cx="292.9" cy="508" fill="#462600" rx="3.5" ry="6.7" transform="rotate(-55.7 292.535 507.79)"/><path fill="#6b4019" d="M287.5 504.3c3 7.8 9.2 3.4 10.8 7.4-.8-4.8-6.6-2-10.8-7.4z"/><ellipse cx="152.2" cy="507.1" fill="#462600" rx="6.7" ry="3.5" transform="rotate(-46.1 151.977 506.829)"/><path fill="#6b4019" d="M156.8 502.4c-8.2 1.6-4.9 8.4-9.1 9.4 4.8 0 3.1-6.1 9.1-9.4z"/><ellipse cx="192.3" cy="495.7" fill="#462600" rx="6.7" ry="3.5" transform="rotate(-46.1 191.956 495.39)"/><path fill="#6b4019" d="M196.8 491c-8.2 1.6-4.8 8.4-9 9.4 4.8 0 3-6.1 9-9.4z"/><ellipse cx="305.1" cy="500.9" fill="#462600" rx="6.7" ry="3.5" transform="rotate(-16.4 304.435 500.055)"/><path fill="#6b4019" d="M311.4 499c-7.9-2.6-8.4 5-12.5 3.7 4.1 2.4 5.6-3.8 12.5-3.7z"/><ellipse cx="302.2" cy="510" fill="#462600" rx="6.7" ry="3.5" transform="rotate(-16.4 301.698 509.223)"/><path fill="#6b4019" d="M308.5 508.1c-7.9-2.6-8.4 4.9-12.5 3.7 4.1 2.4 5.6-3.8 12.5-3.7z"/><ellipse cx="169.4" cy="507.1" fill="#462600" rx="6.7" ry="3.5" transform="rotate(-16.4 168.935 506.384)"/><path fill="#6b4019" d="M175.7 505.3c-7.9-2.7-8.4 4.9-12.5 3.7 4.1 2.3 5.6-3.9 12.5-3.7z"/><ellipse cx="205.5" cy="504.4" fill="#462600" rx="6.7" ry="3.5" transform="rotate(-16.4 205.13 503.454)"/><path fill="#6b4019" d="M211.8 502.5c-7.9-2.6-8.4 5-12.5 3.7 4.1 2.4 5.6-3.8 12.5-3.7z"/><ellipse cx="194.4" cy="501.3" fill="#462600" rx="6.7" ry="3.5" transform="rotate(-16.4 193.879 500.416)"/><path fill="#6b4019" d="M200.7 499.5c-7.9-2.7-8.4 4.9-12.5 3.7 4.2 2.3 5.7-3.8 12.5-3.7z"/><ellipse cx="188.7" cy="512.8" fill="#462600" rx="6.7" ry="3.5" transform="rotate(-16.4 188.312 512.01)"/><path fill="#6b4019" d="M195 510.9c-8-2.6-8.4 5-12.6 3.7 4.2 2.4 5.7-3.8 12.6-3.7z"/><ellipse cx="241.8" cy="510.8" fill="#462600" rx="6.7" ry="3.5" transform="rotate(-16.4 241.362 510.092)"/><path fill="#6b4019" d="M248.1 508.9c-7.9-2.6-8.4 4.9-12.6 3.7 4.2 2.3 5.7-3.8 12.6-3.7z"/><ellipse cx="140.1" cy="506.8" fill="#462600" rx="6.7" ry="3.5" transform="rotate(-16.4 139.586 506.051)"/><path fill="#6b4019" d="M146.4 504.9c-7.9-2.6-8.4 4.9-12.5 3.7 4.1 2.3 5.6-3.8 12.5-3.7z"/><ellipse cx="126.6" cy="510.4" fill="#462600" rx="5.9" ry="2.9" transform="rotate(-16.4 126.344 509.456)"/><path fill="#6b4019" d="M132.1 508.8c-6.9-2.2-7.4 4.2-11 3.2 3.6 1.9 5-3.3 11-3.2z"/><ellipse cx="147.6" cy="513.2" fill="#462600" rx="5.9" ry="2.9" transform="rotate(-16.4 147.163 512.456)"/><path fill="#6b4019" d="M153.1 511.6c-6.9-2.2-7.4 4.2-11 3.2 3.6 1.9 5-3.3 11-3.2z"/><ellipse cx="130" cy="517.9" fill="#462600" rx="5" ry="2.5" transform="rotate(-35.5 130.42 518.411)"/><path fill="#6b4019" d="M134 515c-6.1.2-4.7 5.5-7.9 5.6 3.5.6 3.1-3.9 7.9-5.6z"/><ellipse cx="147.7" cy="506.3" fill="#462600" rx="6.7" ry="3.5" transform="rotate(-16.4 147.469 505.416)"/><path fill="#6b4019" d="M154 504.5c-7.9-2.7-8.4 4.9-12.5 3.7 4.2 2.3 5.7-3.8 12.5-3.7z"/><ellipse cx="232.5" cy="495.7" fill="#462600" rx="3.1" ry="6.2" transform="rotate(-75 232.374 495.62)"/><path fill="#6b4019" d="M226.7 494.1c7.3-2.4 7.8 4.3 11.6 3.2-3.9 2-5.3-3.3-11.6-3.2z"/><ellipse cx="215.2" cy="506.5" fill="#462600" rx="3.2" ry="6" transform="rotate(-46.6 215.179 506.393)"/><path fill="#6b4019" d="M211 502.4c7.6 1.4 4.5 7.3 8.4 8.2-4.5 0-2.8-5.4-8.4-8.2z"/><ellipse cx="248" cy="495.7" fill="#462600" rx="6.1" ry="3.1" transform="rotate(-31.8 249.193 494.45)"/><path fill="#6b4019" d="M253 492.4c-2.8 6.9-8.5 3-10 6.5.8-4.2 6.1-1.8 10-6.5z"/><ellipse cx="266.7" cy="497.3" fill="#462600" rx="6.1" ry="3.1" transform="rotate(-31.9 267.235 497.806)"/><path fill="#6b4019" d="M271.7 494.1c-2.7 6.8-8.4 2.9-9.9 6.4.7-4.1 6-1.7 9.9-6.4z"/><ellipse cx="246.2" cy="501.9" fill="#462600" rx="6.1" ry="3.1" transform="rotate(-31.9 246.64 502.329)"/><path fill="#6b4019" d="M251.2 498.6c-2.7 6.9-8.4 3-9.9 6.5.7-4.2 6-1.8 9.9-6.5z"/><ellipse cx="258.3" cy="503.3" fill="#462600" rx="6.1" ry="3.1" transform="rotate(-31.9 258.737 503.704)"/><path fill="#6b4019" d="M263.3 500c-2.8 6.9-8.5 3-10 6.5.8-4.1 6.1-1.7 10-6.5z"/><ellipse cx="230.8" cy="508.6" fill="#462600" rx="6.1" ry="3.1" transform="rotate(-31.9 231.269 509.1)"/><path fill="#6b4019" d="M235.8 505.3c-2.7 6.9-8.4 3-10 6.5.8-4.2 6.1-1.8 10-6.5z"/><ellipse cx="222.7" cy="500.5" fill="#462600" rx="6.1" ry="3.1" transform="rotate(-31.9 223.147 501.102)"/><path fill="#6b4019" d="M227.7 497.3c-2.7 6.8-8.4 3-9.9 6.4.7-4.1 6-1.7 9.9-6.4z"/><ellipse cx="206.8" cy="498.2" fill="#462600" rx="6.1" ry="3.1" transform="rotate(-31.9 207.152 498.801)"/><path fill="#6b4019" d="M211.8 495c-2.8 6.8-8.5 3-10 6.4.8-4.1 6.1-1.7 10-6.4z"/><ellipse cx="208.8" cy="509.6" fill="#462600" rx="6.1" ry="3.1" transform="rotate(-31.9 209.2 510.173)"/><path fill="#6b4019" d="M213.8 506.3c-2.8 6.9-8.5 3-10 6.5.8-4.2 6.1-1.8 10-6.5z"/><ellipse cx="254.1" cy="506.5" fill="#462600" rx="3.2" ry="6" transform="rotate(-46.6 254.019 506.329)"/><path fill="#6b4019" d="M249.9 502.3c7.6 1.5 4.5 7.4 8.4 8.3-4.4-.1-2.8-5.4-8.4-8.3z"/><ellipse cx="258.3" cy="501" fill="#462600" rx="3.2" ry="6" transform="rotate(-46.6 258.178 500.825)"/><path fill="#6b4019" d="M254.1 496.8c7.5 1.4 4.5 7.4 8.4 8.3-4.5-.1-2.9-5.4-8.4-8.3z"/><ellipse cx="258.7" cy="510.8" fill="#462600" rx="3.2" ry="6" transform="rotate(-46.6 258.625 510.652)"/><path fill="#6b4019" d="M254.5 506.6c7.5 1.4 4.4 7.4 8.3 8.3-4.4-.1-2.8-5.4-8.3-8.3z"/><ellipse cx="215.2" cy="494.1" fill="#462600" rx="3.2" ry="6" transform="rotate(-46.6 215.15 493.994)"/><path fill="#6b4019" d="M211 490c7.6 1.4 4.5 7.4 8.4 8.2-4.5 0-2.8-5.3-8.4-8.2z"/><ellipse cx="238.3" cy="506.5" fill="#462600" rx="3.1" ry="6.2" transform="rotate(-75 238.136 506.46)"/><path fill="#6b4019" d="M232.5 504.9c7.3-2.3 7.8 4.3 11.6 3.2-3.9 2.1-5.3-3.3-11.6-3.2z"/><ellipse cx="227.7" cy="502" fill="#462600" rx="3.1" ry="6.2" transform="rotate(-75 227.51 501.825)"/><path fill="#6b4019" d="M221.9 500.3c7.3-2.3 7.7 4.4 11.5 3.3-3.8 2-5.2-3.4-11.5-3.3z"/><ellipse cx="254.1" cy="495.7" fill="#462600" rx="3.1" ry="6.2" transform="rotate(-75 253.993 495.643)"/><path fill="#6b4019" d="M248.4 494.1c7.2-2.3 7.7 4.3 11.5 3.2-3.9 2.1-5.2-3.3-11.5-3.2z"/><ellipse cx="274.8" cy="503.1" fill="#462600" rx="3.1" ry="6.2" transform="rotate(-75 274.594 503.065)"/><path fill="#6b4019" d="M269 501.5c7.3-2.3 7.7 4.3 11.5 3.2-3.8 2.1-5.2-3.3-11.5-3.2z"/><ellipse cx="279.6" cy="510" fill="#462600" rx="3.1" ry="6.2" transform="rotate(-75 279.415 509.87)"/><path fill="#6b4019" d="M273.8 508.4c7.3-2.4 7.8 4.3 11.6 3.2-3.9 2-5.3-3.3-11.6-3.2z"/><ellipse cx="261.6" cy="505.9" fill="#462600" rx="3.1" ry="6.2" transform="rotate(-75 261.487 505.845)"/><path fill="#6b4019" d="M255.9 504.3c7.2-2.3 7.7 4.3 11.5 3.2-3.9 2.1-5.2-3.3-11.5-3.2z"/><ellipse cx="359.3" cy="506.7" fill="#462600" rx="6.7" ry="3.5" transform="rotate(-16.4 358.517 505.723)"/><path fill="#6b4019" d="M365.5 504.8c-7.9-2.6-8.3 4.9-12.5 3.7 4.2 2.4 5.7-3.8 12.5-3.7z"/><ellipse cx="410.3" cy="516.1" fill="#462600" rx="6.7" ry="3.5" transform="rotate(-16.4 409.57 515.205)"/><path fill="#6b4019" d="M416.6 514.3c-8-2.7-8.4 4.9-12.6 3.6 4.2 2.4 5.7-3.8 12.6-3.6z"/><ellipse cx="462.4" cy="502" fill="#462600" rx="6.7" ry="3.5" transform="rotate(-16.4 461.543 501.09)"/><path fill="#6b4019" d="M468.7 500.1c-7.9-2.6-8.4 5-12.6 3.7 4.2 2.4 5.7-3.8 12.6-3.7z"/><ellipse cx="468.7" cy="506.9" fill="#462600" rx="6.7" ry="3.5" transform="rotate(-16.4 467.535 506.203)"/><path fill="#6b4019" d="M474.9 505c-7.9-2.6-8.4 5-12.5 3.7 4.2 2.4 5.7-3.8 12.5-3.7z"/><ellipse cx="453.3" cy="516.1" fill="#462600" rx="6.7" ry="3.5" transform="rotate(-16.4 452.403 515.356)"/><path fill="#6b4019" d="M459.6 514.3c-7.9-2.7-8.4 4.9-12.5 3.6 4.2 2.4 5.7-3.8 12.5-3.6z"/><ellipse cx="423.8" cy="506.9" fill="#462600" rx="6.7" ry="3.5" transform="rotate(-16.4 422.916 506.149)"/><path fill="#6b4019" d="M430.1 505.1c-8-2.7-8.4 4.9-12.6 3.6 4.2 2.4 5.7-3.8 12.6-3.6z"/><ellipse cx="441.9" cy="499.6" fill="#462600" rx="6.7" ry="3.5" transform="rotate(-16.4 440.971 498.833)"/><path fill="#6b4019" d="M448.2 497.8c-7.9-2.7-8.4 4.9-12.5 3.6 4.2 2.4 5.7-3.8 12.5-3.6z"/><ellipse cx="379.5" cy="513.7" fill="#462600" rx="6.7" ry="3.5" transform="rotate(-46.1 378.97 513.484)"/><path fill="#6b4019" d="M384 509c-8.1 1.6-4.8 8.4-9 9.4 4.8 0 3-6.1 9-9.4z"/><ellipse cx="398.2" cy="505.1" fill="#462600" rx="6.7" ry="3.5" transform="rotate(-46.1 397.778 504.833)"/><path fill="#6b4019" d="M402.7 500.4c-8.1 1.6-4.8 8.4-9 9.4 4.8-.1 3-6.2 9-9.4z"/><ellipse cx="410.3" cy="499.6" fill="#462600" rx="3.5" ry="6.7" transform="rotate(-55.7 409.878 499.458)"/><path fill="#6b4019" d="M404.9 495.9c2.9 7.8 9.1 3.4 10.8 7.4-.9-4.8-6.6-2-10.8-7.4z"/><ellipse cx="341.8" cy="507.6" fill="#462600" rx="3.5" ry="6.7" transform="rotate(-55.7 341.428 507.354)"/><path fill="#6b4019" d="M336.4 503.9c3 7.8 9.2 3.3 10.8 7.3-.8-4.7-6.5-2-10.8-7.3z"/><ellipse cx="345.9" cy="512.9" fill="#462600" rx="3.5" ry="6.7" transform="rotate(-55.7 345.522 512.665)"/><path fill="#6b4019" d="M340.5 509.2c3 7.8 9.2 3.4 10.8 7.4-.8-4.7-6.5-2-10.8-7.4z"/><ellipse cx="349.3" cy="507.9" fill="#462600" rx="3.5" ry="6.7" transform="rotate(-55.7 348.985 507.715)"/><path fill="#6b4019" d="M343.9 504.2c3 7.8 9.2 3.4 10.8 7.4-.8-4.7-6.5-2-10.8-7.4z"/><ellipse cx="362.6" cy="516.1" fill="#462600" rx="3.5" ry="6.7" transform="rotate(-55.7 362.206 515.912)"/><path fill="#6b4019" d="M357.2 512.4c3 7.8 9.1 3.4 10.8 7.4-.8-4.7-6.6-2-10.8-7.4z"/><ellipse cx="361.4" cy="507.9" fill="#462600" rx="6.7" ry="3.5" transform="rotate(-11.5 357.5 502.5)"/><path fill="#6b4019" d="M355 509.2c7.7 3.4 8.8-4.2 12.8-2.6-4-2.7-6 3.4-12.8 2.6z"/><ellipse cx="371.4" cy="506.9" fill="#462600" rx="3.5" ry="6.7" transform="rotate(-55.7 370.935 506.723)"/><path fill="#6b4019" d="M366 503.2c2.9 7.8 9.1 3.4 10.7 7.4-.8-4.7-6.5-2-10.7-7.4z"/><ellipse cx="384" cy="504.3" fill="#462600" rx="3.5" ry="6.7" transform="rotate(-55.7 383.586 504.087)"/><path fill="#6b4019" d="M378.6 500.6c3 7.8 9.2 3.4 10.8 7.4-.8-4.8-6.5-2-10.8-7.4z"/><ellipse cx="386.5" cy="517.2" fill="#462600" rx="3.5" ry="6.7" transform="rotate(-55.7 386.072 517.021)"/><path fill="#6b4019" d="M381.1 513.5c2.9 7.8 9.1 3.4 10.7 7.4-.8-4.7-6.5-2-10.7-7.4z"/><ellipse cx="435.7" cy="515.4" fill="#462600" rx="3.5" ry="6.7" transform="rotate(-55.7 435.236 515.156)"/><path fill="#6b4019" d="M430.3 511.7c2.9 7.8 9.1 3.4 10.8 7.3-.9-4.7-6.6-1.9-10.8-7.3z"/><ellipse cx="421.7" cy="509.9" fill="#462600" rx="3.5" ry="6.7" transform="rotate(-55.7 421.282 509.72)"/><path fill="#6b4019" d="M416.3 506.2c3 7.8 9.2 3.4 10.8 7.4-.8-4.8-6.5-2-10.8-7.4z"/><ellipse cx="369.6" cy="513.7" fill="#462600" rx="3.5" ry="6.7" transform="rotate(-55.7 369.154 513.53)"/><path fill="#6b4019" d="M364.2 510c2.9 7.8 9.1 3.4 10.7 7.4-.8-4.8-6.5-2-10.7-7.4z"/><ellipse cx="406.6" cy="512" fill="#462600" rx="3.5" ry="6.7" transform="rotate(-55.7 406.155 511.774)"/><path fill="#6b4019" d="M401.2 508.3c3 7.8 9.2 3.3 10.8 7.3-.8-4.7-6.6-2-10.8-7.3z"/><ellipse cx="445.9" cy="503.7" fill="#462600" rx="3.5" ry="6.7" transform="rotate(-55.7 445.454 503.607)"/><path fill="#6b4019" d="M440.5 500.1c2.9 7.8 9.1 3.3 10.8 7.3-.9-4.7-6.6-2-10.8-7.3z"/><ellipse cx="471" cy="512.3" fill="#462600" rx="3.5" ry="6.7" transform="rotate(-55.7 470.494 512.116)"/><path fill="#6b4019" d="M465.6 508.6c2.9 7.8 9.1 3.3 10.7 7.3-.8-4.7-6.5-2-10.7-7.3z"/><ellipse cx="482.2" cy="504.5" fill="#462600" rx="3.5" ry="6.7" transform="rotate(-55.7 481.728 504.373)"/><path fill="#6b4019" d="M476.8 500.8c3 7.8 9.1 3.4 10.8 7.4-.8-4.8-6.6-2-10.8-7.4z"/><ellipse cx="478" cy="514.6" fill="#462600" rx="3.5" ry="6.7" transform="rotate(-55.7 477.48 514.475)"/><path fill="#6b4019" d="M472.6 510.9c2.9 7.8 9.1 3.4 10.8 7.4-.9-4.7-6.6-2-10.8-7.4z"/><ellipse cx="337.3" cy="513.7" fill="#462600" rx="6.7" ry="3.5" transform="rotate(-46.1 336.915 513.492)"/><path fill="#6b4019" d="M341.8 509c-8.1 1.6-4.8 8.4-9 9.4 4.8 0 3-6.1 9-9.4z"/><ellipse cx="377.3" cy="502.3" fill="#462600" rx="6.7" ry="3.5" transform="rotate(-46.1 376.894 502.053)"/><path fill="#6b4019" d="M381.9 497.6c-8.2 1.6-4.9 8.4-9.1 9.4 4.8 0 3.1-6.1 9.1-9.4z"/><ellipse cx="490.2" cy="507.5" fill="#462600" rx="6.7" ry="3.5" transform="rotate(-16.4 489.05 506.824)"/><path fill="#6b4019" d="M496.4 505.6c-7.9-2.6-8.4 5-12.5 3.7 4.2 2.4 5.7-3.8 12.5-3.7z"/><ellipse cx="487.3" cy="516.6" fill="#462600" rx="6.7" ry="3.5" transform="rotate(-16.4 486.363 515.646)"/><path fill="#6b4019" d="M493.5 514.7c-7.9-2.6-8.4 5-12.5 3.7 4.2 2.4 5.7-3.8 12.5-3.7z"/><ellipse cx="354.5" cy="513.7" fill="#462600" rx="6.7" ry="3.5" transform="rotate(-16.4 353.6 512.807)"/><path fill="#6b4019" d="M360.7 511.9c-7.9-2.7-8.4 4.9-12.5 3.7 4.2 2.3 5.7-3.8 12.5-3.7z"/><ellipse cx="390.6" cy="511" fill="#462600" rx="6.7" ry="3.5" transform="rotate(-16.4 389.745 510.223)"/><path fill="#6b4019" d="M396.8 509.2c-7.9-2.7-8.4 4.9-12.5 3.6 4.2 2.4 5.7-3.8 12.5-3.6z"/><ellipse cx="379.5" cy="508" fill="#462600" rx="6.7" ry="3.5" transform="rotate(-16.4 378.841 507.235)"/><path fill="#6b4019" d="M385.8 506.1c-7.9-2.6-8.4 4.9-12.5 3.7 4.1 2.3 5.6-3.8 12.5-3.7z"/><ellipse cx="373.7" cy="519.4" fill="#462600" rx="6.7" ry="3.5" transform="rotate(-16.4 372.978 518.432)"/><path fill="#6b4019" d="M380 517.5c-7.9-2.6-8.4 5-12.5 3.7 4.2 2.4 5.7-3.8 12.5-3.7z"/><ellipse cx="426.8" cy="517.4" fill="#462600" rx="6.7" ry="3.5" transform="rotate(-16.4 426.027 516.514)"/><path fill="#6b4019" d="M433.1 515.5c-7.9-2.6-8.4 4.9-12.5 3.7 4.2 2.4 5.7-3.8 12.5-3.7z"/><ellipse cx="325.2" cy="513.4" fill="#462600" rx="6.7" ry="3.5" transform="rotate(-16.4 324.598 512.523)"/><path fill="#6b4019" d="M331.4 511.5c-7.9-2.6-8.4 5-12.5 3.7 4.2 2.4 5.7-3.8 12.5-3.7z"/><ellipse cx="311.6" cy="517" fill="#462600" rx="5.9" ry="2.9" transform="rotate(-16.4 310.96 516.225)"/><path fill="#6b4019" d="M317.1 515.4c-6.8-2.2-7.3 4.2-10.9 3.2 3.6 1.9 5-3.3 10.9-3.2z"/><ellipse cx="332.6" cy="519.8" fill="#462600" rx="5.9" ry="2.9" transform="rotate(-16.4 331.828 518.878)"/><path fill="#6b4019" d="M338.1 518.2c-6.8-2.2-7.3 4.2-10.9 3.2 3.6 1.9 5-3.3 10.9-3.2z"/><ellipse cx="315.1" cy="524.5" fill="#462600" rx="5" ry="2.5" transform="rotate(-35.5 315.666 525.014)"/><path fill="#6b4019" d="M319 521.7c-6 .2-4.7 5.4-7.8 5.6 3.4.5 3.1-4 7.8-5.6z"/><ellipse cx="332.8" cy="512.9" fill="#462600" rx="6.7" ry="3.5" transform="rotate(-16.4 332.084 512.185)"/><path fill="#6b4019" d="M339.1 511.1c-7.9-2.7-8.4 4.9-12.6 3.7 4.2 2.3 5.7-3.8 12.6-3.7z"/><ellipse cx="417.6" cy="502.3" fill="#462600" rx="3.1" ry="6.2" transform="rotate(-75 417.36 502.254)"/><path fill="#6b4019" d="M411.8 500.7c7.3-2.3 7.7 4.3 11.5 3.2-3.8 2.1-5.2-3.3-11.5-3.2z"/><ellipse cx="400.3" cy="513.1" fill="#462600" rx="3.2" ry="6" transform="rotate(-46.6 400.203 512.994)"/><path fill="#6b4019" d="M396.1 509c7.5 1.4 4.5 7.4 8.3 8.2-4.4 0-2.8-5.4-8.3-8.2z"/><ellipse cx="433" cy="502.3" fill="#462600" rx="6.1" ry="3.1" transform="rotate(-31.9 433.663 502.793)"/><path fill="#6b4019" d="M438 499c-2.7 6.9-8.4 3-9.9 6.5.7-4.1 6-1.7 9.9-6.5z"/><ellipse cx="451.8" cy="503.9" fill="#462600" rx="6.1" ry="3.1" transform="rotate(-31.9 452.507 504.395)"/><path fill="#6b4019" d="M456.8 500.7c-2.8 6.8-8.5 3-10 6.4.8-4.1 6.1-1.7 10-6.4z"/><ellipse cx="431.3" cy="508.5" fill="#462600" rx="6.1" ry="3.1" transform="rotate(-31.9 431.913 508.917)"/><path fill="#6b4019" d="M436.3 505.3c-2.7 6.8-8.4 2.9-10 6.4.8-4.1 6.1-1.7 10-6.4z"/><ellipse cx="443.3" cy="509.9" fill="#462600" rx="6.1" ry="3.1" transform="rotate(-31.9 444.01 510.292)"/><path fill="#6b4019" d="M448.3 506.7c-2.7 6.8-8.4 2.9-9.9 6.4.7-4.1 6-1.7 9.9-6.4z"/><ellipse cx="415.9" cy="515.2" fill="#462600" rx="6.1" ry="3.1" transform="rotate(-31.9 416.541 515.688)"/><path fill="#6b4019" d="M420.8 512c-2.7 6.8-8.4 2.9-9.9 6.4.8-4.1 6-1.7 9.9-6.4z"/><ellipse cx="407.8" cy="507.1" fill="#462600" rx="6.1" ry="3.1" transform="rotate(-31.9 408.42 507.69)"/><path fill="#6b4019" d="M412.7 503.9c-2.7 6.8-8.4 3-9.9 6.5.8-4.2 6-1.8 9.9-6.5z"/><ellipse cx="391.8" cy="504.8" fill="#462600" rx="6.1" ry="3.1" transform="rotate(-31.9 392.424 505.39)"/><path fill="#6b4019" d="M396.8 501.6c-2.7 6.8-8.4 3-9.9 6.4.7-4.1 6-1.7 9.9-6.4z"/><ellipse cx="393.8" cy="516.2" fill="#462600" rx="6.1" ry="3.1" transform="rotate(-31.9 394.523 516.586)"/><path fill="#6b4019" d="M398.8 512.9c-2.7 6.9-8.4 3-9.9 6.5.7-4.2 6-1.8 9.9-6.5z"/><ellipse cx="439.2" cy="513.1" fill="#462600" rx="3.2" ry="6" transform="rotate(-46.6 438.993 513.046)"/><path fill="#6b4019" d="M435 509c7.5 1.4 4.5 7.3 8.3 8.2-4.4 0-2.8-5.4-8.3-8.2z"/><ellipse cx="443.3" cy="507.6" fill="#462600" rx="3.2" ry="6" transform="rotate(-46.6 443.153 507.543)"/><path fill="#6b4019" d="M439.2 503.4c7.5 1.5 4.4 7.4 8.3 8.3-4.4-.1-2.8-5.4-8.3-8.3z"/><ellipse cx="443.7" cy="517.4" fill="#462600" rx="3.2" ry="6" transform="rotate(-46.6 443.6 517.37)"/><path fill="#6b4019" d="M439.5 513.2c7.6 1.5 4.5 7.4 8.4 8.3-4.4-.1-2.8-5.4-8.4-8.3z"/><ellipse cx="400.3" cy="500.7" fill="#462600" rx="3.2" ry="6" transform="rotate(-46.6 400.126 500.712)"/><path fill="#6b4019" d="M396.1 496.6c7.5 1.4 4.5 7.4 8.3 8.2-4.4 0-2.8-5.3-8.3-8.2z"/><ellipse cx="423.4" cy="513.1" fill="#462600" rx="3.1" ry="6.2" transform="rotate(-75 423.122 513.094)"/><path fill="#6b4019" d="M417.6 511.5c7.3-2.3 7.7 4.3 11.5 3.2-3.8 2.1-5.2-3.3-11.5-3.2z"/><ellipse cx="412.7" cy="508.6" fill="#462600" rx="3.1" ry="6.2" transform="rotate(-75 412.56 508.509)"/><path fill="#6b4019" d="M407 507c7.2-2.4 7.7 4.3 11.5 3.2-3.9 2-5.2-3.4-11.5-3.2z"/><ellipse cx="439.2" cy="502.3" fill="#462600" rx="3.1" ry="6.2" transform="rotate(-75 438.98 502.278)"/><path fill="#6b4019" d="M433.4 500.7c7.3-2.3 7.8 4.3 11.6 3.2-3.9 2.1-5.3-3.3-11.6-3.2z"/><ellipse cx="459.8" cy="509.7" fill="#462600" rx="3.1" ry="6.2" transform="rotate(-75 459.58 509.7)"/><path fill="#6b4019" d="M454 508.1c7.3-2.3 7.8 4.3 11.6 3.2-3.9 2.1-5.3-3.3-11.6-3.2z"/><ellipse cx="464.7" cy="516.6" fill="#462600" rx="3.1" ry="6.2" transform="rotate(-75 464.466 516.554)"/><path fill="#6b4019" d="M458.9 515c7.3-2.3 7.7 4.3 11.5 3.2-3.8 2.1-5.2-3.3-11.5-3.2z"/><ellipse cx="446.7" cy="512.5" fill="#462600" rx="3.1" ry="6.2" transform="rotate(-75 446.473 512.48)"/><path fill="#6b4019" d="M440.9 510.9c7.3-2.3 7.8 4.3 11.6 3.2-3.9 2.1-5.3-3.3-11.6-3.2z"/><ellipse cx="612.8" cy="507.6" fill="#462600" rx="3.5" ry="6.7" transform="rotate(-73.7 611.475 507.492)"/><path fill="#6b4019" d="M606.5 505.7c7.9-2.6 8.4 4.9 12.5 3.7-4.2 2.3-5.7-3.8-12.5-3.7z"/><ellipse cx="561.7" cy="517" fill="#462600" rx="3.5" ry="6.7" transform="rotate(-73.6 562.112 517.04)"/><path fill="#6b4019" d="M555.5 515.2c7.9-2.7 8.4 4.9 12.5 3.6-4.2 2.4-5.7-3.8-12.5-3.6z"/><ellipse cx="509.6" cy="502.9" fill="#462600" rx="3.5" ry="6.7" transform="rotate(-73.6 509.926 502.914)"/><path fill="#6b4019" d="M503.4 501c7.9-2.6 8.4 4.9 12.5 3.7-4.2 2.4-5.7-3.8-12.5-3.7z"/><ellipse cx="503.4" cy="507.8" fill="#462600" rx="3.5" ry="6.7" transform="rotate(-73.6 503.655 507.813)"/><path fill="#6b4019" d="M497.1 505.9c7.9-2.6 8.4 5 12.5 3.7-4.2 2.4-5.7-3.8-12.5-3.7z"/><ellipse cx="518.7" cy="517" fill="#462600" rx="3.5" ry="6.7" transform="rotate(-73.6 519.058 517.043)"/><path fill="#6b4019" d="M512.4 515.2c7.9-2.7 8.4 4.9 12.5 3.6-4.1 2.4-5.6-3.8-12.5-3.6z"/><ellipse cx="548.3" cy="507.8" fill="#462600" rx="3.5" ry="6.7" transform="rotate(-73.6 548.562 507.842)"/><path fill="#6b4019" d="M542 506c7.9-2.7 8.4 4.9 12.5 3.6-4.2 2.4-5.7-3.8-12.5-3.6z"/><ellipse cx="530.1" cy="500.5" fill="#462600" rx="3.5" ry="6.7" transform="rotate(-73.6 530.39 500.502)"/><path fill="#6b4019" d="M523.8 498.6c7.9-2.6 8.4 5 12.5 3.7-4.1 2.4-5.6-3.8-12.5-3.7z"/><ellipse cx="592.5" cy="514.6" fill="#462600" rx="3.5" ry="6.7" transform="rotate(-43.9 593.214 514.814)"/><path fill="#6b4019" d="M588 509.9c8.2 1.6 4.8 8.4 9 9.4-4.8 0-3-6.1-9-9.4z"/><ellipse cx="573.8" cy="506" fill="#462600" rx="3.5" ry="6.7" transform="matrix(.72 -.69 .69 .72 -190.45 539.78)"/><path fill="#6b4019" d="M569.3 501.2c8.2 1.7 4.8 8.5 9 9.4-4.8 0-3-6.1-9-9.4z"/><ellipse cx="561.7" cy="500.5" fill="#462600" rx="6.7" ry="3.5" transform="rotate(-34.3 562.54 500.823)"/><path fill="#6b4019" d="M567.1 496.8c-2.9 7.8-9.1 3.4-10.7 7.3.8-4.7 6.5-1.9 10.7-7.3z"/><ellipse cx="630.2" cy="508.4" fill="#462600" rx="6.7" ry="3.5" transform="rotate(-34.3 631.05 508.833)"/><path fill="#6b4019" d="M635.6 504.8c-3 7.8-9.1 3.3-10.8 7.3.8-4.7 6.6-2 10.8-7.3z"/><ellipse cx="626.1" cy="513.8" fill="#462600" rx="6.7" ry="3.5" transform="rotate(-34.3 626.932 514.128)"/><path fill="#6b4019" d="M631.5 510.1c-2.9 7.8-9.1 3.4-10.8 7.4.9-4.7 6.6-2 10.8-7.4z"/><ellipse cx="622.7" cy="508.8" fill="#462600" rx="6.7" ry="3.5" transform="rotate(-34.3 623.657 509.213)"/><path fill="#6b4019" d="M628.1 505.1c-3 7.8-9.1 3.4-10.8 7.4.8-4.7 6.6-2 10.8-7.4z"/><ellipse cx="609.4" cy="517" fill="#462600" rx="6.7" ry="3.5" transform="rotate(-34.3 610.323 517.343)"/><path fill="#6b4019" d="M614.8 513.3c-2.9 7.8-9.1 3.4-10.7 7.4.8-4.8 6.5-2 10.7-7.4z"/><ellipse cx="610.6" cy="508.8" fill="#462600" rx="3.5" ry="6.7" transform="rotate(-78.6 610.474 508.848)"/><path fill="#6b4019" d="M617 510.1c-7.6 3.3-8.8-4.2-12.8-2.6 4-2.7 6 3.3 12.8 2.6z"/><ellipse cx="600.7" cy="507.8" fill="#462600" rx="6.7" ry="3.5" transform="rotate(-34.3 601.43 508.21)"/><path fill="#6b4019" d="M606.1 504.1c-3 7.8-9.2 3.4-10.8 7.4.8-4.7 6.5-2 10.8-7.4z"/><ellipse cx="588" cy="505.2" fill="#462600" rx="6.7" ry="3.5" transform="rotate(-34.3 588.766 505.544)"/><path fill="#6b4019" d="M593.4 501.5c-3 7.8-9.1 3.4-10.8 7.3.8-4.7 6.6-1.9 10.8-7.3z"/><ellipse cx="585.6" cy="518.1" fill="#462600" rx="6.7" ry="3.5" transform="rotate(-34.3 586.374 518.47)"/><path fill="#6b4019" d="M591 514.4c-3 7.8-9.2 3.4-10.8 7.4.8-4.7 6.5-2 10.8-7.4z"/><ellipse cx="536.3" cy="516.3" fill="#462600" rx="6.7" ry="3.5" transform="rotate(-34.3 537.095 516.572)"/><path fill="#6b4019" d="M541.7 512.6c-2.9 7.8-9.1 3.3-10.7 7.3.8-4.7 6.5-2 10.7-7.3z"/><ellipse cx="550.3" cy="510.8" fill="#462600" rx="6.7" ry="3.5" transform="rotate(-34.3 551.025 511.11)"/><path fill="#6b4019" d="M555.7 507.1c-3 7.8-9.2 3.4-10.8 7.3.8-4.7 6.6-1.9 10.8-7.3z"/><ellipse cx="602.5" cy="514.6" fill="#462600" rx="6.7" ry="3.5" transform="rotate(-34.3 603.244 514.981)"/><path fill="#6b4019" d="M607.9 510.9c-3 7.8-9.2 3.4-10.8 7.4.8-4.8 6.5-2 10.8-7.4z"/><ellipse cx="565.4" cy="512.8" fill="#462600" rx="6.7" ry="3.5" transform="rotate(-34.3 566.195 513.13)"/><path fill="#6b4019" d="M570.8 509.2c-2.9 7.8-9.1 3.3-10.8 7.3.9-4.7 6.6-2 10.8-7.3z"/><ellipse cx="526.1" cy="504.6" fill="#462600" rx="6.7" ry="3.5" transform="rotate(-34.3 526.97 505.107)"/><path fill="#6b4019" d="M531.5 501c-2.9 7.8-9.1 3.3-10.7 7.3.8-4.7 6.5-2 10.7-7.3z"/><ellipse cx="501.1" cy="513.2" fill="#462600" rx="6.7" ry="3.5" transform="rotate(-34.3 501.842 513.501)"/><path fill="#6b4019" d="M506.5 509.5c-3 7.8-9.2 3.3-10.8 7.3.8-4.7 6.5-2 10.8-7.3z"/><ellipse cx="489.8" cy="505.4" fill="#462600" rx="6.7" ry="3.5" transform="rotate(-34.3 490.567 505.763)"/><path fill="#6b4019" d="M495.2 501.7c-2.9 7.8-9.1 3.4-10.8 7.4.9-4.8 6.6-2 10.8-7.4z"/><ellipse cx="494" cy="515.5" fill="#462600" rx="6.7" ry="3.5" transform="rotate(-34.3 494.71 515.914)"/><path fill="#6b4019" d="M499.4 511.8c-2.9 7.8-9.1 3.4-10.7 7.4.8-4.8 6.5-2 10.7-7.4z"/><ellipse cx="634.7" cy="514.6" fill="#462600" rx="3.5" ry="6.7" transform="rotate(-43.9 635.465 514.824)"/><path fill="#6b4019" d="M630.2 509.9c8.2 1.6 4.8 8.4 9 9.4-4.8 0-3-6.1-9-9.4z"/><ellipse cx="594.7" cy="503.2" fill="#462600" rx="3.5" ry="6.7" transform="rotate(-43.9 595.355 503.418)"/><path fill="#6b4019" d="M590.1 498.5c8.2 1.6 4.9 8.4 9.1 9.4-4.8 0-3-6.1-9.1-9.4z"/><ellipse cx="481.9" cy="508.4" fill="#462600" rx="3.5" ry="6.7" transform="rotate(-73.6 482.154 508.407)"/><path fill="#6b4019" d="M475.6 506.5c7.9-2.6 8.4 5 12.5 3.7-4.2 2.4-5.7-3.8-12.5-3.7z"/><ellipse cx="484.8" cy="517.5" fill="#462600" rx="3.5" ry="6.7" transform="rotate(-73.6 485.07 517.468)"/><path fill="#6b4019" d="M478.5 515.6c7.9-2.6 8.4 5 12.5 3.7-4.2 2.4-5.7-3.8-12.5-3.7z"/><ellipse cx="617.6" cy="514.6" fill="#462600" rx="3.5" ry="6.7" transform="rotate(-73.7 616.27 514.557)"/><path fill="#6b4019" d="M611.3 512.8c7.9-2.7 8.4 4.9 12.5 3.7-4.2 2.3-5.7-3.8-12.5-3.7z"/><ellipse cx="581.5" cy="511.9" fill="#462600" rx="3.5" ry="6.7" transform="rotate(-73.6 581.77 511.942)"/><path fill="#6b4019" d="M575.2 510c7.9-2.6 8.4 5 12.5 3.7-4.2 2.4-5.7-3.8-12.5-3.7z"/><ellipse cx="592.5" cy="508.8" fill="#462600" rx="3.5" ry="6.7" transform="rotate(-73.6 592.835 508.856)"/><path fill="#6b4019" d="M586.2 507c8-2.6 8.4 4.9 12.6 3.7-4.2 2.3-5.7-3.8-12.6-3.7z"/><ellipse cx="598.3" cy="520.3" fill="#462600" rx="3.5" ry="6.7" transform="rotate(-73.6 598.658 520.301)"/><path fill="#6b4019" d="M592 518.4c7.9-2.6 8.4 5 12.5 3.7-4.1 2.4-5.6-3.8-12.5-3.7z"/><ellipse cx="545.2" cy="518.3" fill="#462600" rx="3.5" ry="6.7" transform="rotate(-73.6 545.536 518.296)"/><path fill="#6b4019" d="M538.9 516.4c7.9-2.6 8.4 4.9 12.5 3.7-4.2 2.3-5.7-3.8-12.5-3.7z"/><ellipse cx="646.9" cy="514.3" fill="#462600" rx="3.5" ry="6.7" transform="rotate(-73.6 647.23 514.316)"/><path fill="#6b4019" d="M640.6 512.4c7.9-2.6 8.4 4.9 12.5 3.7-4.2 2.4-5.7-3.8-12.5-3.7z"/><ellipse cx="660.4" cy="517.9" fill="#462600" rx="2.9" ry="5.9" transform="rotate(-73.6 660.74 517.855)"/><path fill="#6b4019" d="M654.9 516.3c6.8-2.2 7.4 4.2 10.9 3.2-3.6 1.9-5-3.3-10.9-3.2z"/><ellipse cx="639.4" cy="520.7" fill="#462600" rx="2.9" ry="5.9" transform="rotate(-73.6 639.742 520.702)"/><path fill="#6b4019" d="M633.9 519.1c6.9-2.2 7.4 4.2 10.9 3.2-3.6 1.9-4.9-3.3-10.9-3.2z"/><ellipse cx="656.9" cy="525.4" fill="#462600" rx="2.5" ry="5" transform="rotate(-54.5 656.276 525.201)"/><path fill="#6b4019" d="M653 522.5c6.1.3 4.7 5.5 7.8 5.7-3.4.5-3-4-7.8-5.7z"/><ellipse cx="639.2" cy="513.8" fill="#462600" rx="3.5" ry="6.7" transform="rotate(-73.6 639.584 513.808)"/><path fill="#6b4019" d="M633 512c7.9-2.7 8.4 4.9 12.5 3.7-4.2 2.3-5.7-3.8-12.5-3.7z"/><ellipse cx="554.5" cy="503.2" fill="#462600" rx="6.2" ry="3.1" transform="rotate(-15 555.328 503.913)"/><path fill="#6b4019" d="M560.2 501.6c-7.2-2.3-7.7 4.3-11.5 3.2 3.9 2.1 5.2-3.3 11.5-3.2z"/><ellipse cx="571.8" cy="514" fill="#462600" rx="6" ry="3.2" transform="rotate(-43.4 571.913 514.018)"/><path fill="#6b4019" d="M575.9 509.9c-7.5 1.4-4.4 7.3-8.3 8.2 4.4 0 2.8-5.4 8.3-8.2z"/><ellipse cx="539" cy="503.2" fill="#462600" rx="3.1" ry="6.1" transform="rotate(-58.1 538.528 503.02)"/><path fill="#6b4019" d="M534 499.9c2.7 6.9 8.4 3 9.9 6.5-.7-4.2-6-1.8-9.9-6.5z"/><ellipse cx="520.2" cy="504.8" fill="#462600" rx="3.1" ry="6.1" transform="rotate(-58.1 519.696 504.691)"/><path fill="#6b4019" d="M515.3 501.6c2.7 6.8 8.4 3 9.9 6.4-.8-4.1-6-1.7-9.9-6.4z"/><ellipse cx="540.7" cy="509.4" fill="#462600" rx="3.1" ry="6.1" transform="rotate(-58.1 540.24 509.27)"/><path fill="#6b4019" d="M535.8 506.1c2.7 6.9 8.4 3 9.9 6.5-.8-4.2-6.1-1.7-9.9-6.5z"/><ellipse cx="528.7" cy="510.8" fill="#462600" rx="3.1" ry="6.1" transform="rotate(-58.1 528.147 510.681)"/><path fill="#6b4019" d="M523.7 507.6c2.7 6.8 8.4 2.9 9.9 6.4-.7-4.1-6-1.7-9.9-6.4z"/><ellipse cx="556.2" cy="516.1" fill="#462600" rx="3.1" ry="6.1" transform="rotate(-58.1 555.622 515.93)"/><path fill="#6b4019" d="M551.2 512.8c2.7 6.9 8.4 3 9.9 6.5-.7-4.2-6-1.8-9.9-6.5z"/><ellipse cx="564.3" cy="508" fill="#462600" rx="3.1" ry="6.1" transform="rotate(-58.1 563.712 507.938)"/><path fill="#6b4019" d="M559.3 504.8c2.7 6.8 8.4 3 9.9 6.4-.7-4.1-6-1.7-9.9-6.4z"/><ellipse cx="580.2" cy="505.7" fill="#462600" rx="3.1" ry="6.1" transform="rotate(-58.1 579.624 505.587)"/><path fill="#6b4019" d="M575.2 502.5c2.7 6.8 8.4 3 9.9 6.4-.7-4.1-6-1.7-9.9-6.4z"/><ellipse cx="578.2" cy="517.1" fill="#462600" rx="3.1" ry="6.1" transform="rotate(-58.1 577.655 516.978)"/><path fill="#6b4019" d="M573.2 513.8c2.7 6.9 8.4 3 9.9 6.5-.7-4.2-6-1.8-9.9-6.5z"/><ellipse cx="532.8" cy="514" fill="#462600" rx="6" ry="3.2" transform="rotate(-43.4 533.066 513.987)"/><path fill="#6b4019" d="M537 509.8c-7.5 1.5-4.4 7.4-8.3 8.3 4.4-.1 2.8-5.4 8.3-8.3z"/><ellipse cx="528.7" cy="508.5" fill="#462600" rx="6" ry="3.2" transform="rotate(-43.4 528.838 508.52)"/><path fill="#6b4019" d="M532.9 504.3c-7.6 1.4-4.5 7.4-8.4 8.3 4.4-.1 2.8-5.4 8.4-8.3z"/><ellipse cx="528.3" cy="518.3" fill="#462600" rx="6" ry="3.2" transform="rotate(-43.4 528.453 518.264)"/><path fill="#6b4019" d="M532.5 514.1c-7.5 1.4-4.5 7.4-8.3 8.3 4.4-.1 2.8-5.4 8.3-8.3z"/><ellipse cx="571.8" cy="501.6" fill="#462600" rx="6" ry="3.2" transform="rotate(-43.4 571.891 501.639)"/><path fill="#6b4019" d="M575.9 497.5c-7.5 1.4-4.4 7.4-8.3 8.2 4.4 0 2.8-5.3 8.3-8.2z"/><ellipse cx="548.7" cy="514" fill="#462600" rx="6.2" ry="3.1" transform="rotate(-15 549.65 514.757)"/><path fill="#6b4019" d="M554.5 512.4c-7.3-2.3-7.8 4.3-11.6 3.2 3.9 2.1 5.3-3.3 11.6-3.2z"/><ellipse cx="559.3" cy="509.5" fill="#462600" rx="6.2" ry="3.1" transform="rotate(-15 560.325 509.98)"/><path fill="#6b4019" d="M565.1 507.8c-7.3-2.3-7.8 4.4-11.6 3.3 3.9 2 5.3-3.4 11.6-3.3z"/><ellipse cx="532.8" cy="503.2" fill="#462600" rx="6.2" ry="3.1" transform="rotate(-15 533.71 503.772)"/><path fill="#6b4019" d="M538.6 501.6c-7.3-2.3-7.7 4.3-11.5 3.2 3.8 2.1 5.2-3.3 11.5-3.2z"/><ellipse cx="512.2" cy="510.6" fill="#462600" rx="6.2" ry="3.1" transform="rotate(-15 512.991 511.476)"/><path fill="#6b4019" d="M518 509c-7.3-2.3-7.8 4.3-11.6 3.2 3.9 2.1 5.3-3.3 11.6-3.2z"/><ellipse cx="507.3" cy="517.5" fill="#462600" rx="6.2" ry="3.1" transform="rotate(-15 508.243 518.192)"/><path fill="#6b4019" d="M513.1 515.9c-7.3-2.4-7.7 4.3-11.5 3.2 3.8 2 5.2-3.3 11.5-3.2z"/><ellipse cx="525.3" cy="513.4" fill="#462600" rx="6.2" ry="3.1" transform="rotate(-15 526.184 513.986)"/><path fill="#6b4019" d="M531.1 511.8c-7.3-2.3-7.7 4.3-11.5 3.2 3.8 2.1 5.2-3.3 11.5-3.2z"/><path fill="#4b3621" d="M164.3 212.2c0 29.4-8.8 40-8.8 51.1v250.9l40.6 13.2V284.9h-.3c.6-6.3 4.9-57-31.5-72.7z"/><path fill="#4b3621" d="M164.3 216.8c-5.8-8-9.7-20.2-1.5-20.8s8 15.2 1.5 20.8z"/><path fill="#3a291a" d="M164.3 212.2c0 29.4-8.8 40-8.8 51.1v250.9L167 517V274.6s6.7-58.8-2.7-62.4z"/><path fill="#6c4f36" d="M333.9 212.2H164.3c18.2 12.5 30.8 27.4 31.4 73.2v242.5h169.7V285.4c.6-39.3-8.3-55-31.5-73.2z"/><path fill="#7b5b3f" d="M333.9 212.2h-20.8c18.2 12.5 30.8 27.4 31.4 73.2v242.5h20.9V285.4c.6-39.3-8.3-55-31.5-73.2z"/><path fill="#5c442d" d="M336.6 196H162.8c8.2 1.3 6.4 16.2 1.5 16.2l170.9 1c2.9-.7 10.2-13.8 1.4-17.2z"/><path fill="#45311c" d="M195.7 413.5h169.7v70.53H195.7z"/><path fill="#f1f2f2" d="M499.5 317.1l-107.9-10.4a3.9 3.9 0 0 0-3.9 2.5l-7.4 21.5h122.3v-10.1a3.6 3.6 0 0 0-3.1-3.5z"/><path fill="#a8835f" d="M380.3 338.8l26.3 190.8c-.2 1.8 3.2 3.6 10.2 5 13.6 2.7 35.7 2.7 49.3 0 6.8-1.3 10.3-3.1 10.3-4.8l26.2-191z"/><path fill="#4b3621" d="M395.2 452.7l-7.7-52.2c37.4 4.8 73.5 5.2 107.8 0l-7.9 52.2c-31.7 5.7-62.6 5.8-92.2 0z"/><path fill="#e6e7e8" d="M379.2 326.2q60.8 2.9 123 0a4.9 4.9 0 0 1 4.6 3.2l4.6 13H370.9l3.5-12.6a4.8 4.8 0 0 1 4.8-3.6z"/><path fill="#f1f2f2" d="M512 343.1c0 1.9-141.9 1.9-141.9 0a.2.2 0 0 1-.2-.2v-1.7a.2.2 0 0 1 .2-.2q70.8 2.8 141.9 0a.2.2 0 0 1 .2.2v1.7a.2.2 0 0 1-.2.2zm-12.5-26l-107.9-10.4a3.9 3.9 0 0 0-3.9 2.5l-7.4 21.5h122.3v-10.1a3.6 3.6 0 0 0-3.1-3.5z"/><path fill="#d6d6d6" d="M414.6 309l-23-2.3a3.9 3.9 0 0 0-3.9 2.5l-7.4 21.5h40.9z"/><path fill="#a8835f" d="M380.3 338.8l26.3 190.8c-.2 1.8 3.2 3.6 10.2 5 13.6 2.7 35.7 2.7 49.3 0 6.8-1.3 10.3-3.1 10.3-4.8l26.2-191z"/><path fill="#b58c66" d="M470.5 533.6c3.9-1.2 5.9-2.5 5.9-3.8l26.2-191H491s-21.8 195.1-20.5 194.8z"/><path fill="#967051" d="M380.3 338.8l26.3 190.8c-.2 1.8 3.2 3.6 10.2 5l-1.1-195.8z"/><path fill="#715644" d="M380.3 338.8l26.3 190.8c-.2 1.8 3.2 3.6 3.5 3.1l-16.2-194.8z"/><path fill="#4b3621" d="M395.2 452.7l-7.7-52.2c37.4 4.8 73.5 5.2 107.8 0l-7.9 52.2c-31.7 5.7-62.6 5.8-92.2 0z"/><path fill="#5f462e" d="M488.7 401.4l6.6-.9-7.9 52.2-5.2.9z"/><path fill="#3a281a" d="M395.2 452.7l-7.7-52.2c10.1 1.3 20.1 2.3 30.1 2.9V456a212.2 212.2 0 0 1-22.4-3.3z"/><path fill="#e6e7e8" d="M379.2 326.2q60.8 2.9 123 0a4.9 4.9 0 0 1 4.6 3.2l4.6 13H370.9l3.5-12.6a4.8 4.8 0 0 1 4.8-3.6z"/><path fill="#ddd" d="M379.2 326.2c10.6.5 21.2.9 31.9 1.1l5.7 15.1h-45.9l3.5-12.6a4.8 4.8 0 0 1 4.8-3.6z"/><path fill="#f1f2f2" d="M512 343.1c0 1.9-141.9 1.9-141.9 0a.2.2 0 0 1-.2-.2v-1.7a.2.2 0 0 1 .2-.2q70.8 2.8 141.9 0a.2.2 0 0 1 .2.2v1.7a.2.2 0 0 1-.2.2z"/><path fill="none" stroke="#603913" stroke-linecap="round" stroke-miterlimit="10" stroke-width="3" d="M32.5 961.9h728.1"/><path fill="none" stroke="#603913" stroke-linecap="round" stroke-miterlimit="10" d="M285.9 979.9v80.4m233-80.4v80.4"/><ellipse cx="159.3" cy="521.6" fill="#462600" rx="3.5" ry="6.7" transform="rotate(-46.2 159.183 521.372)"/><path fill="#6b4019" d="M154.6 517.1c1.6 8.2 8.5 4.9 9.4 9 0-4.7-6.1-3-9.4-9z"/><ellipse cx="182.4" cy="523.8" fill="#462600" rx="3.5" ry="6.7" transform="rotate(-46.2 182.213 523.575)"/><path fill="#6b4019" d="M177.7 519.3c1.6 8.1 8.5 4.8 9.4 9 0-4.8-6.1-3-9.4-9z"/><ellipse cx="176.8" cy="522.4" fill="#462600" rx="3.5" ry="6.7" transform="rotate(-46.2 176.588 522.145)"/><path fill="#6b4019" d="M172.1 517.8c1.7 8.2 8.5 4.9 9.4 9.1 0-4.8-6.1-3.1-9.4-9.1z"/><ellipse cx="191.7" cy="524.8" fill="#462600" rx="3.5" ry="6.7" transform="rotate(-46.2 191.468 524.613)"/><path fill="#6b4019" d="M187 520.3c1.6 8.2 8.5 4.8 9.4 9 0-4.8-6.1-3-9.4-9z"/><ellipse cx="200.2" cy="528.3" fill="#462600" rx="2.7" ry="5.7" transform="rotate(-46.2 199.958 528.096)"/><path fill="#6b4019" d="M196.2 524.4c1.7 6.7 7.1 4.3 8.1 7.8-.3-3.9-5.1-2.8-8.1-7.8z"/><ellipse cx="364.9" cy="523.3" fill="#462600" rx="3.5" ry="6.7" transform="rotate(-46.2 364.494 523.044)"/><path fill="#6b4019" d="M360.2 518.7c1.6 8.2 8.4 4.9 9.4 9.1-.1-4.8-6.2-3.1-9.4-9.1z"/><ellipse cx="170.6" cy="524.8" fill="#462600" rx="6.7" ry="3.5" transform="rotate(-18.2 170.992 525.572)"/><path fill="#6b4019" d="M176.8 522.8c-7.9-2.4-8.2 5.2-12.3 4 4.2 2.3 5.5-3.9 12.3-4z"/><ellipse cx="370.7" cy="525.9" fill="#462600" rx="6.7" ry="3.5" transform="rotate(-6.9 369.556 525.04)"/><path fill="#6b4019" d="M377.2 525.2c-7.4-4-9.1 3.4-13 1.5 3.8 3 6.3-2.8 13-1.5z"/><ellipse cx="360.2" cy="529.9" fill="#462600" rx="6.7" ry="3.5" transform="rotate(-6.9 359.354 528.586)"/><path fill="#6b4019" d="M366.7 529.1c-7.4-3.9-9.1 3.5-13 1.6 3.7 3 6.2-2.9 13-1.6z"/><ellipse cx="190.4" cy="520" fill="#462600" rx="6.7" ry="3.5" transform="rotate(-6.9 190.162 518.386)"/><path fill="#6b4019" d="M196.9 519.2c-7.4-3.9-9.1 3.5-12.9 1.6 3.7 3 6.2-2.9 12.9-1.6z"/><ellipse cx="154" cy="517.1" fill="#462600" rx="6.7" ry="3.5" transform="rotate(-6.9 153.67 516.186)"/><path fill="#6b4019" d="M160.5 516.3c-7.4-3.9-9.1 3.5-13 1.6 3.8 3 6.3-2.8 13-1.6z"/><ellipse cx="147.7" cy="516.1" fill="#462600" rx="5.9" ry="2.9" transform="rotate(-6.9 147.085 514.957)"/><path fill="#6b4019" d="M153.3 515.4c-6.4-3.2-7.9 3-11.3 1.4 3.3 2.5 5.5-2.4 11.3-1.4z"/><ellipse cx="168" cy="519.8" fill="#462600" rx="5.9" ry="2.9" transform="rotate(-6.9 167.67 518.695)"/><path fill="#6b4019" d="M173.6 519.2c-6.4-3.3-7.9 2.9-11.3 1.3 3.3 2.5 5.5-2.4 11.3-1.3z"/><ellipse cx="136.7" cy="520.9" fill="#462600" rx="5" ry="2.5" transform="rotate(-26.1 136.308 520.071)"/><path fill="#6b4019" d="M141 518.8c-6-.8-5.5 4.5-8.7 4.2 3.3 1.1 3.7-3.4 8.7-4.2z"/><ellipse cx="160.5" cy="519.7" fill="#462600" rx="6.7" ry="3.5" transform="rotate(-6.9 160.205 518.245)"/><path fill="#6b4019" d="M167 518.9c-7.4-3.9-9.1 3.5-13 1.6 3.8 3 6.3-2.8 13-1.6z"/><ellipse cx="375.6" cy="533.5" fill="#462600" rx="3.1" ry="6.2" transform="rotate(-65.5 375.45 533.488)"/><path fill="#6b4019" d="M370.1 531c7.6-1.1 6.9 5.5 10.9 5-4.2 1.4-4.6-4.1-10.9-5z"/><path fill="#35240f" d="M544.3 324.1c29.1 12.4-14.7 61.2-.3 85.4-22.3-22.4 25.2-73.6.3-85.4" opacity=".5"/><path fill="#35240f" d="M561.5 338.7c29.1 12.4-21.8 50.8-4 78.3-28.3-29 28.9-66.5 4-78.3m-31.7 0c29 12.4-21.9 50.8-4.1 78.3-28.2-29 29-66.5 4.1-78.3M413.1 228c-32.9 15 0 42-5.2 73.5-3.3-31.5-33.8-58.5 5.2-73.5" opacity=".5"/><path fill="#462600" d="M65.1 1122.2h-3.2a.2.2 0 0 0-.2.2v19.5h3.6v-3.7c0-.2.2-.2.3-.2h3.5c.2 0 .3 0 .3.2v4c0 2.4-.8 3.8-3.9 3.8h-3.9c-3.1 0-4-1.4-4-3.8v-20.1c0-2.4 1-3.8 3.9-3.8h4c2.9 0 3.9 1.4 3.9 3.8v3.6a.3.3 0 0 1-.3.3h-3.5a.3.3 0 0 1-.3-.3v-3.3c0-.1 0-.2-.2-.2zm6.7 20v-20.1c0-2.4 1-3.8 3.9-3.8h4c2.9 0 3.9 1.4 3.9 3.8v20.1c0 2.4-.8 3.8-3.9 3.8h-3.9c-3.1 0-4-1.4-4-3.8zm7.5-20h-3.2a.2.2 0 0 0-.2.2v19.5h3.6v-19.5c0-.1 0-.2-.2-.2zm11.6 11.7v11.6a.3.3 0 0 1-.3.3h-3.5c-.3 0-.3-.2-.3-.3v-26.7a.3.3 0 0 1 .3-.3h7.2a.3.3 0 0 1 .3.3v3.3a.3.3 0 0 1-.3.3h-3.4v7.6h3.3a.3.3 0 0 1 .3.3v3.3a.3.3 0 0 1-.3.3zm10.1 0v11.6a.3.3 0 0 1-.3.3h-3.5c-.3 0-.3-.2-.3-.3v-26.7a.3.3 0 0 1 .3-.3h7.2a.3.3 0 0 1 .3.3v3.3a.3.3 0 0 1-.3.3H101v7.6h3.3a.3.3 0 0 1 .3.3v3.3a.3.3 0 0 1-.3.3zm6.3 11.9c-.3 0-.3-.2-.3-.3v-26.7a.3.3 0 0 1 .3-.3h7.2a.3.3 0 0 1 .3.3v3.3a.3.3 0 0 1-.3.3h-3.4v7.6h3.4a.3.3 0 0 1 .3.3v3.3a.3.3 0 0 1-.3.3h-3.4v8h3.4c.2 0 .3.1.3.2v3.4a.3.3 0 0 1-.3.3zm10.6 0c-.3 0-.3-.2-.3-.3v-26.7a.3.3 0 0 1 .3-.3h7.2c.2 0 .4.1.4.3v3.3c0 .2-.2.3-.4.3h-3.4v7.6h3.4c.2 0 .4.1.4.3v3.3c0 .2-.2.3-.4.3h-3.4v8h3.4l.4.2v3.4c0 .2-.2.3-.4.3z"/><path fill="#6b4019" d="M57.5 1150.6h6v1.2h-4.6v3.9h4.5v1.2h-4.5v4.2h4.6v1.2h-6zm10.4 8.3l-1.9 3.4h-1.4l2.5-4.3-2.4-4.2h1.4l1.8 3.3 1.8-3.3h1.4l-2.4 4.2 2.6 4.3h-1.4zm4.8 6.7v-11.8h1.2v1.2a2.7 2.7 0 0 1 2.2-1.4c2 0 3.1 1.8 3.1 4.5s-1.1 4.4-3.1 4.4a2.4 2.4 0 0 1-2.2-1.4v4.5zm3.1-10.9a2.3 2.3 0 0 0-1.9 1.4v3.9a2.3 2.3 0 0 0 1.9 1.4c1.4 0 2.1-1.5 2.1-3.3s-.7-3.4-2.1-3.4zm4.9 3.4c0-2.4 1.2-4.5 3.4-4.5s3.5 2.1 3.5 4.5-1.2 4.4-3.5 4.4-3.4-2-3.4-4.4zm5.6 0c0-1.7-.7-3.4-2.2-3.4s-2.1 1.7-2.1 3.4.7 3.3 2.1 3.3 2.2-1.6 2.2-3.3zm7.1-7.5h1.4v11.7h-1.4zm8.4 5.7c0-1.2-.5-1.6-1.4-1.6a2.6 2.6 0 0 0-2 1.4v6.2h-1.2v-8.5h1.2v1.2a3.4 3.4 0 0 1 2.5-1.4c1.4 0 2.1.8 2.1 2.3v6.4h-1.2zm6.7-2.7a3.1 3.1 0 0 1 2.4 1.1l-.7.9a1.9 1.9 0 0 0-1.6-.9c-1.5 0-2.3 1.6-2.3 3.4s.8 3.3 2.3 3.3a1.8 1.8 0 0 0 1.6-.8l.7.8a2.8 2.8 0 0 1-2.4 1.1c-2.2 0-3.6-1.9-3.6-4.4s1.4-4.5 3.6-4.5zm4.9 7a1 1 0 0 1 .9 1 .9.9 0 0 1-.9.9 1 1 0 0 1-1-.9 1.1 1.1 0 0 1 1-1z"/><ellipse cx="36.7" cy="1139.3" fill="#462600" rx="23.2" ry="12.2" transform="rotate(-72 36.887 1139.562)"/><path fill="#6b4019" d="M43.7 1117.7c-23.1 17.5-2.4 33.7-14 43 14.9-7.3.2-23.7 14-43z"/><path fill="url(#c)" d="M609.9 432.9h-19.2l.3-10.2c0-2.4-95.3-2.4-95.3 0l1.9 96.4c0 2.2 4.6 3.9 13.3 6.3 18 4.8 46.9 4.9 64.4 0 8.7-2.5 13.3-4.1 13.3-6.3l.7-25.6h20.6a6.2 6.2 0 0 0 6.2-6.2v-48.2a6.2 6.2 0 0 0-6.2-6.2zm-2.6 19v27c0 3.5-1.4 4.3-5.1 4.3h-12.7l.9-36.8h11.8c5.9 0 5.1 1.7 5.1 5.5z"/><path fill="#462600" d="M533.7 458h-2.4c-.1 0-.2 0-.2.1v15.1c0 .1.1.1.2.1h2.4c.2 0 .2 0 .2-.1v-2.8c0-.2.1-.3.2-.3h2.8c.1 0 .2.1.2.3v3c0 1.9-.7 3-3 3H531c-2.4 0-3.1-1.1-3.1-2.9v-15.6c0-1.9.8-3 3.1-3h3.1c2.2 0 3 1.1 3 3v2.8a.2.2 0 0 1-.2.2h-2.8a.2.2 0 0 1-.2-.2v-2.6c0-.1 0-.1-.2-.1zm5.2 15.5v-15.6c0-1.9.8-3 3-3h3.1c2.3 0 3.1 1.1 3.1 3v15.5c0 1.9-.7 3-3 3H542c-2.4 0-3.1-1.1-3.1-2.9zm5.8-15.5h-2.4c-.2 0-.2 0-.2.1v15.1c0 .1 0 .1.2.1h2.4c.1 0 .2 0 .2-.1v-15.1c0-.1-.1-.1-.2-.1zm9 9v9c0 .1-.1.2-.3.2h-2.7a.2.2 0 0 1-.2-.2v-20.7a.2.2 0 0 1 .2-.2h5.6c.2 0 .3.1.3.2v2.6c0 .1-.1.2-.3.2h-2.6v5.9h2.5c.2 0 .3 0 .3.2v2.6c0 .1-.1.2-.3.2zm7.8 0v9c0 .1-.1.2-.3.2h-2.7a.2.2 0 0 1-.2-.2v-20.7a.2.2 0 0 1 .2-.2h5.6c.2 0 .3.1.3.2v2.6c0 .1-.1.2-.3.2h-2.6v5.9h2.5c.2 0 .3 0 .3.2v2.6c0 .1-.1.2-.3.2zm4.8 9.2l-.2-.2v-20.7a.2.2 0 0 1 .2-.2h5.6c.2 0 .3.1.3.2v2.6c0 .1-.1.2-.3.2h-2.6v5.9h2.6c.2 0 .3 0 .3.2v2.6c0 .1-.1.2-.3.2h-2.6v6.2h2.6c.2 0 .3 0 .3.2v2.6c0 .1-.1.2-.3.2zm8.2 0l-.2-.2v-20.7a.2.2 0 0 1 .2-.2h5.6c.2 0 .3.1.3.2v2.6c0 .1-.1.2-.3.2h-2.6v5.9h2.6c.2 0 .3 0 .3.2v2.6c0 .1-.1.2-.3.2h-2.6v6.2h2.6c.2 0 .3 0 .3.2v2.6c0 .1-.1.2-.3.2z"/><path fill="#6b4019" d="M527.8 479.9h4.7v1h-3.6v3h3.5v.9h-3.5v3.2h3.6v1h-4.7zm8.1 6.4l-1.5 2.7h-1.1l2-3.4-1.9-3.2h1.1l1.4 2.5 1.4-2.5h1.1l-1.9 3.2 2 3.4h-1.1zm3.7 5.2v-9.1h.9v.9a2.3 2.3 0 0 1 1.8-1.1c1.5 0 2.3 1.4 2.3 3.5s-.8 3.5-2.3 3.5a2.1 2.1 0 0 1-1.8-1.2v3.5zm2.4-8.4a1.9 1.9 0 0 0-1.5 1.1v3a1.9 1.9 0 0 0 1.5 1.1c1.1 0 1.6-1.2 1.6-2.6s-.5-2.6-1.6-2.6zm3.8 2.6c0-1.9.9-3.5 2.6-3.5s2.7 1.6 2.7 3.5-.9 3.5-2.7 3.5-2.6-1.7-2.6-3.5zm4.3 0c0-1.3-.5-2.6-1.7-2.6s-1.6 1.3-1.6 2.6.5 2.6 1.6 2.6 1.7-1.3 1.7-2.6zm5.5-5.8h1.1v9.1h-1.1zm6.5 4.4c0-.9-.4-1.2-1.1-1.2a1.9 1.9 0 0 0-1.5 1.1v4.8h-1v-6.6h1v.9a2.7 2.7 0 0 1 1.9-1.1c1.1 0 1.7.6 1.7 1.8v5h-1zm5.2-2.1a2.1 2.1 0 0 1 1.8.9l-.5.7a1.5 1.5 0 0 0-1.3-.7c-1.1 0-1.7 1.2-1.7 2.6s.6 2.6 1.7 2.6a1.5 1.5 0 0 0 1.3-.7l.5.7a2.1 2.1 0 0 1-1.8.9c-1.7 0-2.8-1.6-2.8-3.5s1.1-3.5 2.8-3.5zm3.7 5.5a.7.7 0 1 1 0 1.4.7.7 0 1 1 0-1.4z"/><ellipse cx="513.1" cy="467.1" fill="#462600" rx="13.4" ry="7" transform="rotate(-72 513.323 467.162)"/><path fill="#6b4019" d="M517.2 454.7c-13.3 10-1.4 19.4-8.1 24.8 8.6-4.2.1-13.7 8.1-24.8z"/><path fill="url(#a)" d="M265.6 431.5h-3.1c-.2 0-.2.1-.2.2v19.4c0 .2 0 .2.2.2h3.1c.2 0 .2 0 .2-.2v-3.6c0-.2.2-.3.4-.3h3.5a.3.3 0 0 1 .3.3v3.9c0 2.4-.9 3.8-3.9 3.8h-3.9c-3.2 0-4.1-1.4-4.1-3.7v-20.1c0-2.4 1.1-3.8 4-3.8h3.9c2.9 0 4 1.4 4 3.8v3.6a.3.3 0 0 1-.3.3h-3.5c-.2 0-.4-.1-.4-.3v-3.3c0-.1 0-.2-.2-.2z"/><path fill="url(#d)" d="M272.3 451.5v-20.1c0-2.4 1-3.8 3.9-3.8h4c2.9 0 3.9 1.4 3.9 3.8v20c0 2.4-.8 3.8-3.9 3.8h-3.9c-3.1 0-4-1.4-4-3.7zm7.5-20h-3.2a.2.2 0 0 0-.2.2v19.4c0 .2.1.2.2.2h3.2c.2 0 .2 0 .2-.2v-19.4c0-.1 0-.2-.2-.2z"/><path fill="url(#e)" d="M291.4 443.2v11.5c0 .3-.2.3-.4.3h-3.5a.3.3 0 0 1-.3-.3v-26.6a.3.3 0 0 1 .3-.3h7.3a.3.3 0 0 1 .3.3v3.3a.3.3 0 0 1-.3.3h-3.4v7.5h3.3a.4.4 0 0 1 .3.4v3.3a.3.3 0 0 1-.3.3z"/><path fill="url(#f)" d="M301.4 443.2v11.5c0 .3-.1.3-.3.3h-3.5a.3.3 0 0 1-.3-.3v-26.6a.3.3 0 0 1 .3-.3h7.2c.2 0 .4.1.4.3v3.3c0 .2-.2.3-.4.3h-3.4v7.5h3.3c.2 0 .3.2.3.4v3.3a.3.3 0 0 1-.3.3z"/><path fill="url(#g)" d="M307.7 455c-.3 0-.3-.2-.3-.3v-26.6a.3.3 0 0 1 .3-.3h7.2a.3.3 0 0 1 .3.3v3.3a.3.3 0 0 1-.3.3h-3.4v7.5h3.4c.2 0 .3.2.3.4v3.3a.3.3 0 0 1-.3.3h-3.4v7.9h3.4a.3.3 0 0 1 .3.3v3.3c0 .3-.1.3-.3.3z"/><path fill="url(#h)" d="M318.3 455c-.3 0-.4-.2-.4-.3v-26.6c0-.2.2-.3.4-.3h7.2a.3.3 0 0 1 .3.3v3.3a.3.3 0 0 1-.3.3h-3.4v7.5h3.4a.4.4 0 0 1 .3.4v3.3a.3.3 0 0 1-.3.3h-3.4v7.9h3.4a.3.3 0 0 1 .3.3v3.3c0 .3-.2.3-.3.3z"/><path fill="url(#i)" d="M258 459.8h6v1.2h-4.6v3.9h4.5v1.2h-4.5v4.2h4.6v1.2h-6z"/><path fill="url(#j)" d="M268.4 468.1l-1.9 3.4h-1.4l2.6-4.3-2.5-4.2h1.4l1.8 3.3 1.9-3.3h1.4l-2.5 4.2 2.6 4.3h-1.4z"/><path fill="url(#k)" d="M273.2 474.8V463h1.2v1.2a2.9 2.9 0 0 1 2.3-1.4c1.9 0 3 1.8 3 4.5s-1.1 4.4-3 4.4a2.7 2.7 0 0 1-2.3-1.4v4.5zm3.1-10.9a2.5 2.5 0 0 0-1.9 1.4v3.9a2.5 2.5 0 0 0 1.9 1.4c1.4 0 2.1-1.5 2.1-3.3s-.7-3.4-2.1-3.4z"/><path fill="url(#l)" d="M281.2 467.3c0-2.4 1.2-4.5 3.4-4.5s3.5 2.1 3.5 4.5-1.2 4.4-3.5 4.4-3.4-2-3.4-4.4zm5.6 0c0-1.7-.7-3.4-2.2-3.4s-2.1 1.7-2.1 3.4.7 3.3 2.1 3.3 2.2-1.6 2.2-3.3z"/><path fill="url(#m)" d="M293.8 459.8h1.4v11.7h-1.4z"/><path fill="url(#n)" d="M302.2 465.5c0-1.1-.5-1.6-1.4-1.6a2.3 2.3 0 0 0-1.9 1.4v6.2h-1.3V463h1.3v1.2a3 3 0 0 1 2.4-1.4c1.5 0 2.2.8 2.2 2.3v6.4h-1.3z"/><path fill="url(#o)" d="M308.9 462.8a3.1 3.1 0 0 1 2.4 1.1l-.7.9a1.9 1.9 0 0 0-1.6-.9c-1.5 0-2.3 1.6-2.3 3.4s.8 3.3 2.3 3.3a1.9 1.9 0 0 0 1.6-.9l.7.9a2.8 2.8 0 0 1-2.4 1.1c-2.2 0-3.5-1.9-3.5-4.4s1.3-4.5 3.5-4.5z"/><path fill="url(#p)" d="M313.8 469.8a1 1 0 0 1 .9 1 .9.9 0 0 1-.9.9.9.9 0 0 1-1-.9 1 1 0 0 1 1-1z"/><ellipse cx="239.1" cy="443.3" fill="#462600" rx="17.3" ry="9.1" transform="rotate(-72 239.225 443.402)"/><path fill="#6b4019" d="M244.3 427.3c-17.2 13-1.8 25-10.4 32 11.1-5.5.1-17.6 10.4-32z"/><path fill="#462600" d="M105.5 643.8c0-37.7 20.9-63.8 53.8-63.8 26.7 0 38.3 17.2 44.2 32.4l-24.6 10.5c-3.1-9.6-9.8-16.5-19.6-16.5-14.6 0-23.3 15.8-23.3 37.4s8.7 37.4 23.3 37.4c10 0 16.9-7.8 19.6-17.8l24.8 10.6c-5.7 15.1-17.5 33.6-44.4 33.6-32.9 0-53.8-26.2-53.8-63.8zM264.8 580c33.3 0 53.8 26.6 53.8 63.8s-20.5 63.8-53.8 63.8-53.9-26.6-53.9-63.8 20.6-63.8 53.9-63.8zm0 26.4c-15 0-23.3 16-23.3 37.4s8.3 37.4 23.3 37.4 23.5-16.1 23.5-37.4-8.4-37.4-23.5-37.4zm68.4-24.4h74.4v25.7h-44.4v22.2h43.1v25.8h-43.1v49.7h-30zm89.8 0h74.3v25.7h-44.4v22.2H496v25.8h-43.1v49.7H423zm89.7 0H587v25.7h-44.4v22.2h43.1v25.8h-43.1v24H587v25.7h-74.3zm90.8 0h74.4v25.7h-44.4v22.2h43.1v25.8h-43.1v24h44.4v25.7h-74.4z"/><path fill="#6b4019" d="M276.7 723.2h40.2v3.9h-36.1v36.2h35.1v3.9h-35.1V806h36.1v3.9h-40.2zm78.1 46.4l-23.5 40.3h-5.1l26.3-44.2-24.9-42.5h5.2l22 38.3 22-38.3h5.2l-24.8 42.3 26.2 44.4h-5.1zm41.1-46.4h21.6c14.1 0 21.4 11.3 21.4 24.5s-7.4 24.6-21.4 24.6H400v37.6h-4.1zm21.4 3.9H400v41.3h17.3c11 0 17.1-8.7 17.1-20.7s-6.1-20.6-17.1-20.6zm64.1-5.4c19.8 0 30.1 20.3 30.1 44.9s-10.3 44.8-30.1 44.8-30-20.2-30-44.8 10.3-44.9 30-44.9zm0 3.9c-16.5 0-25.4 18.2-25.4 41s8.9 40.9 25.4 40.9 25.5-18.4 25.5-40.9-9-41-25.5-41zm-192.3 96.1c12.9 0 21.8 9.6 21.8 22.4s-8.9 22.5-21.8 22.5-21.8-9.6-21.8-22.5 8.9-22.4 21.8-22.4zm0 5.8c-9.3 0-15.1 7.1-15.1 16.6s5.8 16.7 15.1 16.7 15.1-7.2 15.1-16.7-5.9-16.6-15.1-16.6zm38.6.7h-13.4v-5.8h33.3v5.8h-13.4v37.6h-6.5zm37.3 0h-13.5v-5.8h33.3v5.8h-13.3v37.6H365zm49.7 28.6h-21.2l-3.5 9h-7.2l17.3-43.4h8.1l17.2 43.4h-7.1zm-19.3-5.8h17.5l-8.8-22.9zm56.4-18.7l-9 33.5h-6.9l-12.4-43.4h7.2l9 34.8 9.5-34.8h5.3l9.4 34.8 9-34.8h7.2l-12.3 43.4h-7zm58.3 24.5h-21.3l-3.5 9h-7.1l17.2-43.4h8.1l17.3 43.4h-7.2zm-19.4-5.8h17.5l-8.8-22.9z"/><path fill="#fff" d="M191.1 944.1a6.4 6.4 0 0 0 4.7 2.2c2.5 0 3.6-1.5 3.6-3.3s-1.8-3.2-3.9-4.2-5.1-2.3-5.1-5.8 2.4-5.3 5.7-5.3a7.4 7.4 0 0 1 5.4 2.1l-1.3 1.8a5.3 5.3 0 0 0-4.1-1.7 3.1 3.1 0 0 0-3.3 3c0 1.9 1.8 2.7 3.8 3.7s5.3 2.5 5.3 6.3-2 5.5-6.1 5.5a7.6 7.6 0 0 1-6-2.5zm21.8-6.4c0-1.9-.9-2.5-2.4-2.5a4 4 0 0 0-3.3 2.3v10.6H205v-20h2.2v7.6a5.2 5.2 0 0 1 4.2-2.5q3.6 0 3.6 3.9v11h-2.1zm13.5 8.8a4.5 4.5 0 0 1-8.2-2.9c0-3 2-4.8 4.4-4.8a4.5 4.5 0 0 1 3.8 1.9v-2.5a2.8 2.8 0 0 0-3-3.1 4.5 4.5 0 0 0-3.6 1.8l-.9-1.6a6.5 6.5 0 0 1 4.9-2.1c2.9 0 4.8 1.4 4.8 4.7v10.2h-2.2zm0-4.2a3.4 3.4 0 0 0-3.1-1.9 2.9 2.9 0 0 0-2.9 3.2 3 3 0 0 0 2.9 3.3 3.3 3.3 0 0 0 3.1-1.8zm13.7-5.9l-3.1 11.7h-2.2l-3.9-14.5h2.3l2.8 11.6 3-11.6h2.1l3.1 11.6 2.8-11.6h2.3l-3.9 14.5h-2.2zm17.4 1.7c0-6 3-10.4 7.7-10.4a6.4 6.4 0 0 1 5.9 3.9l-1.9 1a4.5 4.5 0 0 0-4-2.7c-3.1 0-5.2 3.5-5.2 8.2s2.1 8.2 5.2 8.2 3.2-1.2 4-3l2 1c-1.1 2.2-2.8 4.1-6 4.1s-7.7-4.3-7.7-10.3zm21.7-4.9c3.9 0 5.8 3.5 5.8 7.7v.6h-9.4c.1 3 1.6 5.1 4.2 5.1a4.5 4.5 0 0 0 3.4-1.7l1.1 1.2a5.7 5.7 0 0 1-4.7 2.3c-3.9 0-6.2-3.1-6.2-7.6s2.2-7.6 5.8-7.6zm-3.6 6.8h7.2c0-2.3-.9-5-3.6-5s-3.6 2.8-3.6 5zm20.4-2.2c0-2-.9-2.6-2.4-2.6a4 4 0 0 0-3.3 2.3v10.6h-2.2v-14.5h2.2v2.1a5.2 5.2 0 0 1 4.2-2.5c2.4 0 3.6 1.4 3.6 4v10.9H296zm6.5 7.4v-9.7h-1.9v-1.9h1.9v-4h2.2v4h2.4v1.9h-2.4v9.3c0 1.1.3 1.7 1.1 1.7a1.7 1.7 0 0 0 1.3-.5l.6 1.6a3 3 0 0 1-2.3.8c-2 0-2.9-1.1-2.9-3.2zm7.5-11.6h2.1v2.3a4.8 4.8 0 0 1 4.1-2.6v2.2h-.7a4.4 4.4 0 0 0-3.4 2.4v10.3H310zm13.9-.4c3.8 0 5.7 3.5 5.7 7.7v.6h-9.4c.1 3 1.6 5.1 4.2 5.1a4.5 4.5 0 0 0 3.4-1.7l1.2 1.2a6 6 0 0 1-4.8 2.3c-3.9 0-6.2-3.1-6.2-7.6s2.2-7.6 5.9-7.6zm-3.7 6.8h7.3c-.1-2.3-1-5-3.7-5s-3.5 2.8-3.6 5zm18.8.7a1.7 1.7 0 0 1 1.6-1.6 1.6 1.6 0 0 1 1.6 1.6 1.7 1.7 0 0 1-1.6 1.7 1.7 1.7 0 0 1-1.6-1.7zm12.8 4.1a3.8 3.8 0 0 0 3 1.5c2 0 3.2-1.2 3.2-3.4v-14.8h2.3V943c0 3.7-2.2 5.4-5.3 5.4a5.1 5.1 0 0 1-4.2-1.8zm20.4 1.3a5.3 5.3 0 0 1-4.2 2.3c-2.4 0-3.6-1.2-3.6-3.8v-11h2.1v10.3c0 2 .9 2.6 2.4 2.6a3.9 3.9 0 0 0 3.3-2.2v-10.7h2.2v14.5h-2.2zm6.2-18h2.1v20h-2.1zM385 952c.8 0 1.3-.3 1.7-1.4l.8-2.2-4.8-14.8h2.3l3.6 11.9 3.6-11.9h2.3l-5.8 17.5c-.7 2.1-1.8 2.9-3.6 2.9l-1.4-.2.3-2a2 2 0 0 0 1 .2zm17.8-5.9c6.5-7.5 8.7-9.9 8.7-12.8a3.2 3.2 0 0 0-3.2-3.4 4.7 4.7 0 0 0-4.2 2.5l-1.6-1.4a6.7 6.7 0 0 1 5.9-3.2 5.3 5.3 0 0 1 5.6 5.4c0 3.4-2.5 6.4-7.9 12.8h8v2.1h-11.3zm18-14.9l-3.1 3.3-1.4-1.5 4.8-4.9h2.1v20h-2.4zM427 951a4.3 4.3 0 0 0 1.9-2.8h-.4a1.4 1.4 0 0 1-1.4-1.4 1.6 1.6 0 0 1 1.6-1.6 2 2 0 0 1 1.8 2.2 6 6 0 0 1-2.4 4.5zm13.2-4.9c6.5-7.5 8.8-9.9 8.8-12.8a3.2 3.2 0 0 0-3.3-3.4 4.8 4.8 0 0 0-4.2 2.5L440 931a6.4 6.4 0 0 1 5.8-3.2 5.3 5.3 0 0 1 5.6 5.4c0 3.4-2.5 6.4-7.8 12.8h7.9v2.1h-11.3zm20.7-18.3c4.7 0 6.3 5.5 6.3 10.3s-1.6 10.3-6.3 10.3-6.2-5.5-6.2-10.3 1.5-10.3 6.2-10.3zm0 2.1c-3 0-3.8 4.2-3.8 8.2s.7 8.2 3.8 8.2 3.9-4.3 3.9-8.2-.8-8.2-3.9-8.2zm12.7 1.3l-3.1 3.3-1.4-1.5 4.8-4.9h2.1v20h-2.4zm7.7 13a3.5 3.5 0 0 0 3.3 2.1c3.3 0 4.4-4.2 4.4-8v-.6a5.3 5.3 0 0 1-4.4 2.9c-2.9 0-5.3-2.1-5.3-6.3s2.1-6.6 5.8-6.6 6.3 5.1 6.3 10.4-1.9 10.3-6.8 10.3a5.3 5.3 0 0 1-4.6-2.5zm3.9-14.3c-2.4 0-3.5 2.2-3.5 4.3s1.6 4.4 3.5 4.4 3-1.5 3.7-3.1-.9-5.6-3.7-5.6zm15.9 10.8a1.6 1.6 0 1 1 3.2 0 1.6 1.6 0 1 1-3.2 0zm13.6-12.6h2.4v20h-2.4zm14.3 9.7c0-2-.9-2.6-2.3-2.6a4 4 0 0 0-3.4 2.3v10.6h-2.2v-14.5h2.2v2.1a5.2 5.2 0 0 1 4.2-2.5c2.4 0 3.6 1.4 3.6 4v10.9H529zm14.4 8.2a4.5 4.5 0 0 1-3.8 2.4c-3.3 0-5.2-3-5.2-7.5s1.9-7.7 5.2-7.7a4.6 4.6 0 0 1 3.8 2.5v-7.6h2.1v20h-2.1zm0-8.5a4 4 0 0 0-3.3-2.3c-2.4 0-3.5 2.5-3.5 5.7s1.1 5.6 3.5 5.6a4 4 0 0 0 3.3-2.3zm5.4 3.3c0-4.1 2-7.6 5.8-7.6s5.9 3.5 5.9 7.6-2 7.6-5.9 7.6-5.8-3.5-5.8-7.6zm9.5 0c0-2.9-1.1-5.6-3.7-5.6s-3.6 2.7-3.6 5.6 1.2 5.7 3.6 5.7 3.7-2.7 3.7-5.7zm4.8 0c0-4.1 2-7.6 5.9-7.6s5.9 3.5 5.9 7.6-2.1 7.6-5.9 7.6-5.9-3.5-5.9-7.6zm9.5 0c0-2.9-1.1-5.6-3.6-5.6s-3.7 2.7-3.7 5.6 1.2 5.7 3.7 5.7 3.6-2.7 3.6-5.7zm5.5-7.2h2.1v2.3a5.1 5.1 0 0 1 4.1-2.6v2.2h-.7a4.4 4.4 0 0 0-3.4 2.4v10.3h-2.1zm8.6 11.3a5.3 5.3 0 0 0 3.8 1.8c1.7 0 2.8-.9 2.8-2.3s-1.4-2.2-3-2.8-4.2-1.7-4.2-4.5 1.7-3.9 4.6-3.9a5.8 5.8 0 0 1 4.4 1.9l-1 1.5a4.1 4.1 0 0 0-3.4-1.6c-1.6 0-2.6.8-2.6 2s1.4 2 2.9 2.6 4.4 1.7 4.4 4.7-1.9 4.1-4.9 4.1a5.9 5.9 0 0 1-4.8-2zm-266.4 215.4l-2.6 9.7h-.6l-2.8-10.6h.7l2.4 9.6 2.6-9.6h.7l2.5 9.6 2.5-9.6h.7l-2.9 10.6h-.6zm13.1 0l-2.6 9.7h-.6l-2.9-10.6h.7l2.5 9.6 2.6-9.6h.6l2.6 9.6 2.4-9.6h.8l-2.9 10.6h-.6zm13.1 0l-2.7 9.7h-.6l-2.8-10.6h.7l2.5 9.6 2.5-9.6h.7l2.6 9.6 2.4-9.6h.7l-2.8 10.6h-.6zm7.9 8.5a.7.7 0 1 1-.7.7.7.7 0 0 1 .7-.7zm7.3-9.7a3.1 3.1 0 0 1 2.7 1.4l-.5.4a2.5 2.5 0 0 0-2.2-1.2c-2.3 0-3.3 2.4-3.3 5s1 5 3.3 5a2.6 2.6 0 0 0 2.2-1.3l.5.5a3.1 3.1 0 0 1-2.7 1.4c-2.6 0-4-2.6-4-5.6s1.4-5.6 4-5.6zm4.6 5.6c0-3 1.3-5.6 3.9-5.6s3.9 2.6 3.9 5.6-1.3 5.6-3.9 5.6-3.9-2.6-3.9-5.6zm7.1 0c0-2.5-1-5-3.2-5s-3.1 2.5-3.1 5 .9 5 3.1 5 3.2-2.5 3.2-5zm3.8-4.7h-1.4v-.6h1.4v-1.8a2.2 2.2 0 0 1 2.2-2.5 1.7 1.7 0 0 1 1 .3l-.3.5-.7-.2c-1 0-1.5.7-1.5 1.9v1.8h1.8v.6h-1.8v10h-.7zm5 0h-1.5v-.6h1.5v-1.8c0-1.5.8-2.5 2.1-2.5a2 2 0 0 1 1.1.3l-.3.5-.8-.2c-.9 0-1.5.7-1.5 1.9v1.8h1.9v.6h-1.9v10h-.6zm8-.9c2.7 0 3.9 2.6 3.9 5.6v.2h-7c0 2.7 1.3 4.8 3.4 4.8a3.6 3.6 0 0 0 2.8-1.6l.5.4a4 4 0 0 1-3.3 1.8c-2.7 0-4.2-2.4-4.2-5.6s1.5-5.6 3.9-5.6zm-3.1 5.2h6.3c0-2-.9-4.6-3.2-4.6s-3.1 2.6-3.1 4.6zm13.2-5.2c2.7 0 3.9 2.6 3.9 5.6v.2h-7.1c.1 2.7 1.4 4.8 3.5 4.8a3.6 3.6 0 0 0 2.8-1.6l.5.4a4 4 0 0 1-3.3 1.8c-2.7 0-4.2-2.4-4.2-5.6s1.5-5.6 3.9-5.6zm-3.2 5.2h6.4c0-2-.9-4.6-3.2-4.6s-3.1 2.6-3.2 4.6zm8.9 0h4.5v.7H406zm10.3-5.2c2.7 0 3.8 2.6 3.8 5.6v.2h-7c0 2.7 1.3 4.8 3.5 4.8a3.4 3.4 0 0 0 2.7-1.6l.5.4a3.8 3.8 0 0 1-3.2 1.8c-2.7 0-4.2-2.4-4.2-5.6s1.4-5.6 3.9-5.6zm-3.2 5.2h6.3c0-2-.9-4.6-3.2-4.6s-3.1 2.6-3.1 4.6zm11.9.8l-2.9 4.9h-.8l3.3-5.4-3.1-5.2h.8l2.7 4.6 2.7-4.6h.8l-3.1 5.2 3.3 5.4h-.8zm5.8 8.9v-14.6h.7v1.6a3.4 3.4 0 0 1 2.9-1.9c2.4 0 3.7 2.3 3.7 5.6s-1.3 5.6-3.7 5.6a3.4 3.4 0 0 1-2.9-2v5.7zm3.6-14.3a3.3 3.3 0 0 0-2.9 2.2v5.6a3.5 3.5 0 0 0 2.9 2.2c2 0 2.9-2.4 2.9-5s-.9-5-2.9-5zm6 5c0-3 1.4-5.6 3.9-5.6s3.9 2.6 3.9 5.6-1.3 5.6-3.9 5.6-3.9-2.6-3.9-5.6zm7.1 0c0-2.5-.9-5-3.2-5s-3.1 2.5-3.1 5 .9 5 3.1 5 3.2-2.5 3.2-5zm4 4.1a.7.7 0 0 1 0 1.4.7.7 0 1 1 0-1.4zm7.2-9.7a3.2 3.2 0 0 1 2.8 1.4l-.5.4a2.7 2.7 0 0 0-2.3-1.2c-2.2 0-3.2 2.4-3.2 5s1 5 3.2 5a2.8 2.8 0 0 0 2.3-1.3l.5.5a3.2 3.2 0 0 1-2.8 1.4c-2.5 0-4-2.6-4-5.6s1.5-5.6 4-5.6zm10.6 9.7a3.3 3.3 0 0 1-6-2.1 3.2 3.2 0 0 1 3.2-3.5 3.1 3.1 0 0 1 2.8 1.5v-2.4c0-1.7-.9-2.6-2.3-2.6a3.5 3.5 0 0 0-2.8 1.4l-.4-.5a4.1 4.1 0 0 1 3.2-1.5c1.9 0 3 1.1 3 3.2v7.7h-.7zm0-3.4a3 3 0 0 0-2.7-1.6c-1.6 0-2.5 1.3-2.5 2.9s.9 3 2.5 3a2.9 2.9 0 0 0 2.7-1.7z"/><path fill="#6b4019" d="M89.6 1001a14.3 14.3 0 0 1-5.2 1 7.9 7.9 0 0 1-8.6-8.5c0-5.1 3.4-8.7 9.1-8.7a11.9 11.9 0 0 1 4.2.7l-.5 1.8a9.2 9.2 0 0 0-3.8-.7c-4.1 0-6.7 2.5-6.7 6.8s2.5 6.8 6.5 6.8a6.2 6.2 0 0 0 2.9-.5v-5H84v-1.8h5.6zm4.6-4.9c0 3 1.9 4.2 4.1 4.2a7.4 7.4 0 0 0 3.4-.6l.4 1.6a11.2 11.2 0 0 1-4.1.7c-3.7 0-5.9-2.4-5.9-6.1s2.1-6.5 5.7-6.5 5 3.5 5 5.7c0 .5-.1.8-.1 1zm6.4-1.5c.1-1.4-.5-3.6-3-3.6s-3.2 2-3.4 3.6zm4.9-1.6c0-1.3 0-2.3-.1-3.3h1.9l.2 2a4.4 4.4 0 0 1 4-2.3c1.7 0 4.3 1 4.3 5.2v7.2h-2.2v-7c0-1.9-.7-3.6-2.8-3.6a3.2 3.2 0 0 0-3 2.3 3.1 3.1 0 0 0-.1 1v7.3h-2.2zm15.1 3.1c0 3 1.9 4.2 4.1 4.2a7.4 7.4 0 0 0 3.4-.6l.4 1.6a11.2 11.2 0 0 1-4.1.7c-3.7 0-5.9-2.4-5.9-6.1s2.1-6.5 5.7-6.5 5 3.5 5 5.7c0 .5-.1.8-.1 1zm6.4-1.5c.1-1.4-.5-3.6-3-3.6s-3.2 2-3.4 3.6zm4.9-1.1c0-1.5 0-2.7-.1-3.8h1.9v2.4h.1a3.6 3.6 0 0 1 3.3-2.7h.7v2.1h-.8a3.1 3.1 0 0 0-2.9 2.8 3.4 3.4 0 0 0-.1 1v6.5h-2.2zm14.7 8.3v-1.5h-.1a4.7 4.7 0 0 1-3.7 1.8 3.5 3.5 0 0 1-3.7-3.5c0-2.9 2.6-4.5 7.3-4.5v-.3a2.5 2.5 0 0 0-2.8-2.8 6.3 6.3 0 0 0-3.1.9l-.5-1.4a6.9 6.9 0 0 1 3.9-1.1c3.7 0 4.6 2.5 4.6 5v4.5a24.8 24.8 0 0 0 .2 2.9zm-.3-6.2c-2.4 0-5.1.4-5.1 2.7a1.9 1.9 0 0 0 2.1 2.1 3.1 3.1 0 0 0 2.9-2 1.7 1.7 0 0 0 .1-.7zM152 984h2.2v17.8H152zm14 12.5l-1.8 5.3H162l5.7-16.9h2.6l5.8 16.9h-2.3l-1.8-5.3zm5.5-1.7l-1.6-4.9a24.3 24.3 0 0 1-.9-3h-.1c-.2 1-.5 2-.8 3l-1.7 4.9zm17.1-10.8v14.7c0 1 .1 2.3.1 3.1h-1.9v-2.1h-.1a4.5 4.5 0 0 1-4.1 2.4c-2.9 0-5.2-2.5-5.2-6.2s2.5-6.5 5.4-6.5a4.1 4.1 0 0 1 3.7 1.9V984zm-2.2 10.6a2.8 2.8 0 0 0-.1-.9 3.2 3.2 0 0 0-3.1-2.6c-2.3 0-3.7 2-3.7 4.7s1.2 4.5 3.6 4.5a3.3 3.3 0 0 0 3.2-2.6 3.1 3.1 0 0 0 .1-1zm5.9-1.6c0-1.3 0-2.3-.1-3.3h1.9v1.9h.1a4.3 4.3 0 0 1 3.8-2.2 3.6 3.6 0 0 1 3.4 2.4h.1a4.6 4.6 0 0 1 4-2.4c1.6 0 4 1.1 4 5.3v7.1h-2.2v-6.9c0-2.3-.8-3.7-2.6-3.7a2.8 2.8 0 0 0-2.6 2 3.6 3.6 0 0 0-.2 1.1v7.5h-2.1v-7.3c0-1.9-.9-3.3-2.6-3.3a3.1 3.1 0 0 0-2.7 2.2 3.6 3.6 0 0 0-.2 1.1v7.3h-2.1zm23.3-6.7a1.3 1.3 0 0 1-1.4 1.3 1.3 1.3 0 0 1-1.3-1.3 1.3 1.3 0 0 1 1.3-1.4 1.3 1.3 0 0 1 1.4 1.4zm-2.5 15.5v-12.1h2.2v12.1zm5.6-2.3a5 5 0 0 0 2.9.9c1.6 0 2.3-.8 2.3-1.8s-.6-1.6-2.2-2.2-3.2-2-3.2-3.4 1.6-3.6 4.2-3.6a5.6 5.6 0 0 1 2.9.8l-.5 1.6a5 5 0 0 0-2.5-.7c-1.3 0-2 .7-2 1.6s.7 1.5 2.3 2.1 3.2 1.8 3.2 3.6-1.7 3.6-4.6 3.6a7.1 7.1 0 0 1-3.4-.8zm9.9 0a5 5 0 0 0 2.9.9c1.6 0 2.3-.8 2.3-1.8s-.6-1.6-2.2-2.2-3.2-2-3.2-3.4 1.6-3.6 4.2-3.6a5.6 5.6 0 0 1 2.9.8l-.5 1.6a5 5 0 0 0-2.5-.7c-1.3 0-2 .7-2 1.6s.7 1.5 2.3 2.1 3.2 1.8 3.2 3.6-1.7 3.6-4.6 3.6a7.1 7.1 0 0 1-3.4-.8zm12.6-13.2c.1.7-.5 1.3-1.4 1.3a1.3 1.3 0 0 1-1.3-1.3 1.4 1.4 0 0 1 1.4-1.4 1.3 1.3 0 0 1 1.3 1.4zm-2.4 15.5v-12.1h2.2v12.1zm16.8-6.2c0 4.5-3.1 6.5-6 6.5s-5.8-2.4-5.8-6.3 2.6-6.4 6-6.4 5.8 2.5 5.8 6.2zm-9.6.2c0 2.6 1.5 4.6 3.7 4.6s3.6-2 3.6-4.7-1-4.6-3.6-4.6-3.7 2.4-3.7 4.7zm12.4-2.8c0-1.3-.1-2.3-.1-3.3h1.9v2h.1a4.4 4.4 0 0 1 4-2.3c1.7 0 4.3 1 4.3 5.2v7.2h-2.2v-7c0-1.9-.8-3.6-2.8-3.6a3.2 3.2 0 0 0-3 2.3 3.1 3.1 0 0 0-.1 1v7.3h-2.2zm60.3-7.8a30.3 30.3 0 0 1 4.6-.4c3.1 0 5.3.7 6.8 2.1a7.8 7.8 0 0 1 2.4 6.1 8.7 8.7 0 0 1-2.5 6.5c-1.5 1.6-4.1 2.4-7.4 2.4a23 23 0 0 1-3.9-.2zm2.1 14.9h2.2c4.7 0 7.2-2.6 7.2-7.2s-2.2-6.5-6.8-6.5a8.4 8.4 0 0 0-2.6.3zm25.5-4.5c0 4.5-3.1 6.5-6.1 6.5s-5.7-2.4-5.7-6.3 2.6-6.4 5.9-6.4 5.9 2.5 5.9 6.2zm-9.6.2c0 2.6 1.5 4.6 3.6 4.6s3.7-2 3.7-4.7-1-4.6-3.6-4.6-3.7 2.4-3.7 4.7zm23.3-.2c0 4.5-3.1 6.5-6 6.5s-5.8-2.4-5.8-6.3 2.6-6.4 6-6.4 5.8 2.5 5.8 6.2zm-9.6.2c0 2.6 1.5 4.6 3.7 4.6s3.6-2 3.6-4.7-1-4.6-3.6-4.6-3.7 2.4-3.7 4.7zm12.4-2.3c0-1.5 0-2.7-.1-3.8h1.9v2.4h.1a3.5 3.5 0 0 1 3.3-2.7h.6v2.1h-.6c-1.6 0-2.6 1.2-2.9 2.8a3.4 3.4 0 0 0-.1 1v6.5h-2.2zm7.9 6a4.9 4.9 0 0 0 2.8.9c1.6 0 2.4-.8 2.4-1.8s-.6-1.6-2.3-2.2-3.1-2-3.1-3.4 1.5-3.6 4.1-3.6a6.3 6.3 0 0 1 3 .8l-.6 1.6a4.3 4.3 0 0 0-2.4-.7c-1.3 0-2 .7-2 1.6s.7 1.5 2.2 2.1 3.2 1.8 3.2 3.6-1.6 3.6-4.5 3.6a7.1 7.1 0 0 1-3.4-.8zm29.9-6.3c0 5.8-3.5 8.9-7.8 8.9s-7.6-3.5-7.6-8.6 3.3-8.8 7.8-8.8 7.6 3.5 7.6 8.5zm-13.1.3c0 3.6 2 6.8 5.4 6.8s5.4-3.2 5.4-7-1.7-6.9-5.4-6.9-5.4 3.4-5.4 7.1zm15.9.1c0-1.5-.1-2.8-.1-3.9h1.9v2.1h.1a4.7 4.7 0 0 1 4.3-2.4c2.9 0 5.1 2.5 5.1 6.2s-2.6 6.5-5.5 6.5a4.2 4.2 0 0 1-3.7-1.9h-.1v6.5h-2.1zm2.1 3.3a2.9 2.9 0 0 0 .2.9 3.2 3.2 0 0 0 3.2 2.5c2.4 0 3.7-1.9 3.7-4.6s-1.3-4.5-3.6-4.5a3.4 3.4 0 0 0-3.3 2.7 2.9 2.9 0 0 0-.2.9zm13.3-.8c.1 3 2 4.2 4.2 4.2a7.2 7.2 0 0 0 3.3-.6l.4 1.6a11 11 0 0 1-4 .7c-3.7 0-6-2.4-6-6.1s2.2-6.5 5.7-6.5 5 3.5 5 5.7c0 .5-.1.8-.1 1zm6.5-1.5c0-1.4-.6-3.6-3.1-3.6s-3.2 2-3.4 3.6zm4.8-1.6c0-1.3 0-2.3-.1-3.3h2v2a4.4 4.4 0 0 1 4-2.3c1.7 0 4.3 1 4.3 5.2v7.2h-2.2v-7c0-1.9-.7-3.6-2.8-3.6a3.1 3.1 0 0 0-2.9 2.3 3 3 0 0 0-.2 1v7.3H430zm25.9 8.8l-.2-1.5h-.1a4.4 4.4 0 0 1-3.7 1.8 3.4 3.4 0 0 1-3.6-3.5c0-2.9 2.5-4.5 7.2-4.5v-.3a2.5 2.5 0 0 0-2.7-2.8 6.6 6.6 0 0 0-3.2.9l-.5-1.4a7.2 7.2 0 0 1 4-1.1c3.7 0 4.6 2.5 4.6 5v4.5a13.2 13.2 0 0 0 .2 2.9zm-.3-6.2c-2.4 0-5.2.4-5.2 2.7a1.9 1.9 0 0 0 2.1 2.1 2.9 2.9 0 0 0 2.9-2 1.9 1.9 0 0 0 .2-.7zm8.2-9.4v3.5h3.1v1.7h-3.1v6.5c0 1.5.4 2.3 1.6 2.3h1.3v1.6a4.7 4.7 0 0 1-1.9.3 3 3 0 0 1-2.4-.9 4.4 4.4 0 0 1-.9-3.1v-6.6h-1.8v-1.7h1.8v-2.9z"/><path fill="#fff" d="M147.1 1015.7c0-2.4 1-3.8 3.8-3.8v-1.7a.3.3 0 0 1 .3-.3h3.3a.3.3 0 0 1 .3.3v1.7c2.8 0 3.8 1.4 3.8 3.7v3.5a.3.3 0 0 1-.3.3h-3.4a.3.3 0 0 1-.3-.3v-3.1c0-.2-.1-.2-.2-.2h-3.1c-.2 0-.2 0-.2.2v7.3c0 .1 0 .2.2.2h3.5c3 0 3.8 1.3 3.8 3.6v8c0 2.4-.8 3.7-3.8 3.7v2.4c0 .3-.1.3-.3.3h-3.3a.3.3 0 0 1-.3-.3v-2.4c-3 0-3.8-1.3-3.8-3.6v-3.9a.3.3 0 0 1 .3-.3h3.4a.3.3 0 0 1 .3.3v3.5c0 .2 0 .2.2.2h3.1c.1 0 .2 0 .2-.2v-7.3c0-.2-.1-.2-.2-.2h-3.5c-2.7 0-3.8-.5-3.8-3.6zm14.3 38.7v-6.6a.6.6 0 0 1 .5-.6h5.8a.6.6 0 0 1 .6.6v5.9c0 .3 0 .4.3.4h5.3c.3 0 .3-.1.3-.4v-12.6c0-.2 0-.3-.3-.3h-5.1a.5.5 0 0 1-.5-.5v-5.6c0-.3.1-.5.5-.5h5.1c.3 0 .3 0 .3-.3v-12.5c0-.3 0-.4-.3-.4h-5.3c-.3 0-.3.1-.3.4v5.4a.6.6 0 0 1-.6.5h-5.8a.5.5 0 0 1-.5-.5v-6c0-4 1.7-6.3 6.5-6.3h6.7c4.8 0 6.5 2.3 6.5 6.3v11c0 3.5-.9 4.8-2.1 5.7 1.2 1 2.1 2.3 2.1 5.8v11c0 4-1.4 6.3-6.5 6.3h-6.5c-5.2 0-6.7-2.3-6.7-6.2zm37.5-39.9c4.8 0 6.5 2.3 6.5 6.3v33.5c0 4-1.4 6.3-6.5 6.3h-6.5c-5.2 0-6.7-2.3-6.7-6.2v-33.6c0-4 1.7-6.3 6.5-6.3h6.7zm-6.3 6.9v32.3c0 .3 0 .4.3.4h5.3c.3 0 .3-.1.3-.4v-32.3c0-.3 0-.4-.3-.4h-5.3c-.3 0-.3.1-.3.4z"/><path fill="#6b4019" d="M588.8 993.9h-6.5v6.1h7.3v1.8h-9.5v-16.9h9.1v1.9h-6.9v5.3h6.5zm4.5-4.2l1.8 2.6 1.2 2h.1a17.6 17.6 0 0 1 1.2-2l1.7-2.6h2.3l-4.1 5.8 4.3 6.3h-2.5l-1.8-2.7a23.9 23.9 0 0 1-1.3-2.1h-.1c-.4.7-.8 1.3-1.2 2.1l-1.8 2.7h-2.4l4.3-6.2-4.1-5.9zm10.6 3.9c0-1.5-.1-2.8-.1-3.9h2v2.1a4.7 4.7 0 0 1 4.3-2.4c2.9 0 5.1 2.5 5.1 6.2s-2.6 6.5-5.5 6.5a4.2 4.2 0 0 1-3.7-1.9v6.5h-2.2zm2.2 3.3a2.8 2.8 0 0 0 .1.9 3.3 3.3 0 0 0 3.3 2.5c2.3 0 3.6-1.9 3.6-4.6s-1.2-4.5-3.6-4.5a3.4 3.4 0 0 0-3.3 2.7 2.8 2.8 0 0 0-.1.9zm23-1.3c0 4.5-3.1 6.5-6.1 6.5s-5.8-2.4-5.8-6.3 2.7-6.4 6-6.4 5.9 2.5 5.9 6.2zm-9.6.2c0 2.6 1.5 4.6 3.6 4.6s3.7-2 3.7-4.7-1-4.6-3.6-4.6-3.7 2.4-3.7 4.7zm17.7-10.7a38.9 38.9 0 0 1 4.2-.3 6.9 6.9 0 0 1 4.7 1.4 4.6 4.6 0 0 1 1.5 3.5 4.9 4.9 0 0 1-1.3 3.6 6.8 6.8 0 0 1-5.2 1.9 4.7 4.7 0 0 1-1.7-.2v6.8h-2.2zm2.2 8.2h1.8c2.6 0 4.2-1.2 4.2-3.6s-1.6-3.3-4-3.3l-2 .2zm17.1 8.5l-.2-1.5h-.1a4.4 4.4 0 0 1-3.7 1.8 3.5 3.5 0 0 1-3.7-3.5c0-2.9 2.6-4.5 7.3-4.5v-.3a2.5 2.5 0 0 0-2.7-2.8 6.6 6.6 0 0 0-3.2.9l-.5-1.4a7.2 7.2 0 0 1 4-1.1c3.7 0 4.6 2.5 4.6 5v4.5a13.2 13.2 0 0 0 .2 2.9zm-.3-6.2c-2.4 0-5.2.4-5.2 2.7a1.9 1.9 0 0 0 2.1 2.1 2.9 2.9 0 0 0 2.9-2 1.9 1.9 0 0 0 .2-.7zm5.3 3.9a5.3 5.3 0 0 0 2.9.9c1.6 0 2.4-.8 2.4-1.8s-.6-1.6-2.3-2.2-3.2-2-3.2-3.4 1.6-3.6 4.2-3.6a6.3 6.3 0 0 1 3 .8l-.6 1.6a4.3 4.3 0 0 0-2.4-.7c-1.3 0-2.1.7-2.1 1.6s.8 1.5 2.3 2.1 3.2 1.8 3.2 3.6-1.6 3.6-4.5 3.6a6.8 6.8 0 0 1-3.4-.8zm9.9 0a5.3 5.3 0 0 0 2.9.9c1.6 0 2.4-.8 2.4-1.8s-.6-1.6-2.3-2.2-3.2-2-3.2-3.4 1.6-3.6 4.2-3.6a6.3 6.3 0 0 1 3 .8l-.6 1.6a4.3 4.3 0 0 0-2.4-.7c-1.3 0-2.1.7-2.1 1.6s.8 1.5 2.3 2.1 3.2 1.8 3.2 3.6-1.6 3.6-4.5 3.6a6.8 6.8 0 0 1-3.4-.8zm11.5-3.4c0 3 1.9 4.2 4.1 4.2a7.7 7.7 0 0 0 3.4-.6l.3 1.6a10.6 10.6 0 0 1-4 .7c-3.7 0-5.9-2.4-5.9-6.1s2.1-6.5 5.6-6.5 5 3.5 5 5.7v1zm6.4-1.5c0-1.4-.6-3.6-3-3.6s-3.2 2-3.4 3.6zm4.6 4.9a5 5 0 0 0 2.9.9c1.6 0 2.3-.8 2.3-1.8s-.6-1.6-2.2-2.2-3.2-2-3.2-3.4 1.5-3.6 4.1-3.6a6 6 0 0 1 3 .8l-.5 1.6a5 5 0 0 0-2.5-.7c-1.3 0-2 .7-2 1.6s.7 1.5 2.3 2.1 3.1 1.8 3.1 3.6-1.6 3.6-4.5 3.6a7.1 7.1 0 0 1-3.4-.8z"/><path fill="#fff" d="M598.6 1015.7c0-2.4 1.1-3.8 3.9-3.8v-1.7a.3.3 0 0 1 .3-.3h3.2a.3.3 0 0 1 .3.3v1.7c2.8 0 3.8 1.4 3.8 3.7v3.5a.3.3 0 0 1-.3.3h-3.4a.3.3 0 0 1-.3-.3v-3.1c0-.2 0-.2-.2-.2h-3.1c-.1 0-.2 0-.2.2v7.3a.2.2 0 0 0 .2.2h3.5c3 0 3.8 1.3 3.8 3.6v8c0 2.4-.8 3.7-3.7 3.7h-.1v2.4c0 .3-.1.3-.3.3h-3.2a.3.3 0 0 1-.3-.3v-2.4c-3 0-3.9-1.3-3.9-3.6v-3.9a.3.3 0 0 1 .3-.3h3.4a.3.3 0 0 1 .3.3v3.5c0 .2.1.2.2.2h3.1c.2 0 .2 0 .2-.2v-7.3c0-.2 0-.2-.2-.2h-3.4c-2.8 0-3.9-.5-3.9-3.6zm12.8 5.7c-.4 0-.6-.4-.2-.8l6-5.3a2.2 2.2 0 0 1 1.4-.5h4.8c.4 0 .6.2.6.5v44.5c0 .4-.2.5-.6.5h-5.8a.5.5 0 0 1-.5-.5v-38.4zm24.9 12.8h5.7c4.8 0 6.6 2.4 6.6 6.3v13.8c0 4-1.4 6.3-6.5 6.3h-6.7c-4.8 0-6.6-2.3-6.6-6.3v-6.6c0-.3.2-.5.6-.5h5.8a.5.5 0 0 1 .5.5v6c0 .3.1.4.3.4h5.4c.2 0 .3-.1.3-.4v-12.6a.3.3 0 0 0-.3-.3h-11.8c-.3 0-.5-.1-.5-.5v-25c0-.4.2-.5.5-.5h14.2a.5.5 0 0 1 .5.5v5.5c0 .2-.1.6-.5.6h-7.5c-.3 0-.3 0-.3.3v12.2c0 .3 0 .3.3.3zm28.7-19.7c4.8 0 6.6 2.3 6.6 6.3v33.5c0 4-1.4 6.3-6.5 6.3h-6.6c-5.2 0-6.7-2.3-6.7-6.2v-33.6c0-4 1.8-6.3 6.6-6.3h6.6zm-6.3 6.9v32.3c0 .3.1.4.4.4h5.3c.2 0 .3-.1.3-.4v-32.3c0-.3-.1-.4-.3-.4h-5.3c-.3 0-.4.1-.4.4zm-326.5 0c-.4 0-.6-.4-.2-.8l5.9-5.3a2.3 2.3 0 0 1 1.5-.5h4.8a.5.5 0 0 1 .5.5v44.5c0 .4-.2.5-.5.5h-5.9a.5.5 0 0 1-.5-.5v-38.4zm15.6 0c-.4 0-.6-.4-.2-.8l5.9-5.3a2.3 2.3 0 0 1 1.5-.5h4.8a.5.5 0 0 1 .5.5v44.5c0 .4-.2.5-.5.5h-5.9a.5.5 0 0 1-.5-.5v-38.4zm16.9 13.3a.5.5 0 0 1-.5-.5v-5.9a.5.5 0 0 1 .5-.5h5.9a.5.5 0 0 1 .5.5v5.9c0 .4-.2.5-.5.5zm0 25.6a.5.5 0 0 1-.5-.5v-5.9a.5.5 0 0 1 .5-.5h5.9a.5.5 0 0 1 .5.5v5.9c0 .4-.2.5-.5.5zm22.8-45.8c4.8 0 6.6 2.3 6.6 6.3v33.5c0 4-1.4 6.3-6.5 6.3H381c-5.2 0-6.7-2.3-6.7-6.2v-33.6c0-4 1.8-6.3 6.6-6.3h6.6zm-6.3 6.9v32.3c0 .3.1.4.4.4h5.3c.2 0 .3-.1.3-.4v-32.3c0-.3-.1-.4-.3-.4h-5.3c-.3 0-.4.1-.4.4zm30.6-6.9c4.9 0 6.6 2.3 6.6 6.3v33.5c0 4-1.4 6.3-6.5 6.3h-6.6c-5.2 0-6.7-2.3-6.7-6.2v-33.6c0-4 1.8-6.3 6.6-6.3h6.6zm-6.3 6.9v32.3c0 .3.1.4.4.4h5.3c.3 0 .3-.1.3-.4v-32.3c0-.3 0-.4-.3-.4h-5.3c-.3 0-.4.1-.4.4zm23.9 12a.3.3 0 0 1 .3.3l4.3 25.9a.3.3 0 0 1-.3.3h-3.6a.3.3 0 0 1-.3-.3l-.9-6.3h-3.1l-1 6.3a.3.3 0 0 1-.3.3H421a.3.3 0 0 1-.3-.3l4.5-25.9a.3.3 0 0 1 .3-.3zm-3 16.1h2l-.9-7.3zm21.3-2.9l-2.1 7.4c-.1.2-.2.5-.5.6h-2.8c-.3-.1-.4-.4-.5-.6l-2.2-7.3v12.9c0 .3-.1.3-.3.3H436a.3.3 0 0 1-.3-.3v-25.9a.3.3 0 0 1 .3-.3h3.2c.4 0 .5.3.5.6l4 13.4 3.9-13.4c.1-.3.1-.6.6-.6h3.2a.3.3 0 0 1 .3.3v25.9a.3.3 0 0 1-.3.3H448c-.1 0-.3 0-.3-.3z"/><g clip-path="url(#q)"><g fill="#231f20" clip-path="url(#r)"><path d="M702.4 1146.6a7.5 7.5 0 0 1-1.2-4 6.6 6.6 0 0 1 6.7-6.8h.1a6.5 6.5 0 0 1 6.7 6.8 7.9 7.9 0 0 1-.6 3.2l-1.4-1.1-3 3.4a70.7 70.7 0 0 0 8.2 1 10.7 10.7 0 0 0 2-6.3 11.9 11.9 0 0 0-23.8.1 13.6 13.6 0 0 0 .2 2 54.3 54.3 0 0 0 6.1 1.8m34.3 2.4l4.6-.5a14 14 0 0 0 .7-4.4v-12.6h-4.9v12.8c0 2.5-.9 4.1-2.5 4.9l2.1-.2m13.6-1.9v-15.6h-4.9v16.5l4.9-.9m8.8-2.1v-5.4l3.2 4.3 4.7-1.6-8.3-10.8h-4.5v14.7l4.9-1.2m-28.8 4.4c-1.8-.7-2.9-2.5-2.9-5.3v-12.6h-4.9v12.8a11.3 11.3 0 0 0 1 5.1h6.8m23.9-.9v5.4h4.9v-6.3l-4.9.9m-8.8 1.1v4.3h4.9v-4.9a38.6 38.6 0 0 1-4.9.6m-5.1.5c-5.5.4-10.9.6-16.1.5 1.6 2.4 4.4 3.6 8 3.6s6.7-1.4 8.4-4.1h-.3m-33.3-.8h-.1c-3.4-.5-6.7-1-9.8-1.7a11.7 11.7 0 0 0 10.9 6.6 12.4 12.4 0 0 0 6.6-1.9l3.6 3.1 3.1-3.5-1.7-1.4a122.5 122.5 0 0 1-12.6-1.2m62.2-4l-4.9 1.2 5.6 7.4h4.2v-10l-4.9 1.4m0-13.8v9.9l4.9-2.2v-7.7zm-143.9 6.8l5.1-.3a6.4 6.4 0 0 1 4.9-2.3 8.3 8.3 0 0 1 5.8 2.2l3.1-3.7a12.2 12.2 0 0 0-8.8-3.1 11.6 11.6 0 0 0-10.9 7.2h.8m28.1.3a6.4 6.4 0 0 1 5.5-2.9 6.7 6.7 0 0 1 6.4 4.4l5.5 1.1a12 12 0 0 0-22.8-3l5.4.4m-38.8.6v-7.7h-4.9v8.3l4.9-.6m73.9 6.1l-10.5-13.8h-4.5v10.4l4.8 1.3v-3.6l10.8 14.3h4.2v-7.2l-4.8-1.4zm-15 8.6h4.8v-6.6a34.8 34.8 0 0 0-4.8-2.1zm15-22.4v9.9c1.5.8 3.1 1.5 4.8 2.2v-12.1zm-22.8 11.2c0 3.9-2.7 7-6.7 7a6.8 6.8 0 0 1-6.8-7 7 7 0 0 1 .5-2.5l-5.2-.6a11.2 11.2 0 0 0-.4 3.2 11.4 11.4 0 0 0 11.8 11.5 11.7 11.7 0 0 0 11.9-10 42.8 42.8 0 0 0-5.1-1.5m-30.4 2.4h4.9v3.2a7.6 7.6 0 0 1-4.6 1.4 6.8 6.8 0 0 1-6.8-7.1 7.3 7.3 0 0 1 .8-3.3l-2.8.2-2.7.3a9.2 9.2 0 0 0-.4 2.9c0 6.7 4.8 11.5 11.8 11.5a14.8 14.8 0 0 0 9.5-3.5v-9.7h-9.7zm-20.7-4.1l-4.9.9v11.9h14v-4.7h-9.1zm-28.2 8.8l-1.7 4h5l1.9-4.7h9.8l1.9 4.7h5.1l-4.4-10.5a106 106 0 0 0-17.6 6.5m7.8-7.1l2.3-5.5 1.9 4.5 4.5-.9-4.1-9.6h-4.5l-5.5 12.9 5.4-1.4m91 21.3a6.6 6.6 0 0 1 6.8-6.7 6.8 6.8 0 0 1 5.1 2l-1.5 1.7a5 5 0 0 0-3.6-1.6 4.3 4.3 0 0 0-4.3 4.6 4.3 4.3 0 0 0 4.3 4.6 4.8 4.8 0 0 0 3.7-1.7l1.5 1.5a6.9 6.9 0 0 1-12-4.4m13.2 0a6.8 6.8 0 0 1 13.6 0 6.8 6.8 0 0 1-13.6 0m11.2 0a4.4 4.4 0 0 0-4.4-4.6 4.4 4.4 0 0 0-4.4 4.6 4.4 4.4 0 0 0 4.4 4.6 4.4 4.4 0 0 0 4.4-4.6m4.8-6.5h2.3v10.9h6.8v2.1h-9.1v-13zm11.5 0h2.3v10.9h6.8v2.1h-9.1v-13zm11.5 0h9.7v2h-7.4v3.4h6.5v2.1h-6.5v3.5h7.5v2h-9.8v-13zm11.7 6.5a6.7 6.7 0 0 1 6.8-6.7 7.4 7.4 0 0 1 5 1.7l-1.5 1.8a4.9 4.9 0 0 0-3.6-1.4 4.5 4.5 0 0 0-4.3 4.6 4.4 4.4 0 0 0 4.5 4.7 5.2 5.2 0 0 0 3.1-1v-2.5h-3.3v-2h5.5v5.5a8 8 0 0 1-5.4 2 6.5 6.5 0 0 1-6.8-6.7m15.2-6.5h9.7v2h-7.4v3.4h6.5v2.1h-6.5v3.5h7.5v2h-9.8v-13z"/><path d="M702.4 1146.6a7.5 7.5 0 0 1-1.2-4 6.6 6.6 0 0 1 6.7-6.8h.1a6.5 6.5 0 0 1 6.7 6.8 7.9 7.9 0 0 1-.6 3.2l-1.4-1.1-3 3.4a70.7 70.7 0 0 0 8.2 1 10.7 10.7 0 0 0 2-6.3 11.9 11.9 0 0 0-23.8.1 13.6 13.6 0 0 0 .2 2 54.3 54.3 0 0 0 6.1 1.8m34.3 2.4l4.6-.5a14 14 0 0 0 .7-4.4v-12.6h-4.9v12.8c0 2.5-.9 4.1-2.5 4.9l2.1-.2m13.6-1.9v-15.6h-4.9v16.5l4.9-.9m8.8-2.1v-5.4l3.2 4.3 4.7-1.6-8.3-10.8h-4.5v14.7l4.9-1.2m-28.8 4.4c-1.8-.7-2.9-2.5-2.9-5.3v-12.6h-4.9v12.8a11.3 11.3 0 0 0 1 5.1h6.8m23.9-.9v5.4h4.9v-6.3l-4.9.9m-8.8 1.1v4.3h4.9v-4.9a38.6 38.6 0 0 1-4.9.6m-5.1.5c-5.5.4-10.9.6-16.1.5 1.6 2.4 4.4 3.6 8 3.6s6.7-1.4 8.4-4.1h-.3m-33.3-.8h-.1c-3.4-.5-6.7-1-9.8-1.7a11.7 11.7 0 0 0 10.9 6.6 12.4 12.4 0 0 0 6.6-1.9l3.6 3.1 3.1-3.5-1.7-1.4a122.5 122.5 0 0 1-12.6-1.2m62.2-4l-4.9 1.2 5.6 7.4h4.2v-10l-4.9 1.4m0-13.8v9.9l4.9-2.2v-7.7zm-143.9 6.8l5.1-.3a6.4 6.4 0 0 1 4.9-2.3 8.3 8.3 0 0 1 5.8 2.2l3.1-3.7a12.2 12.2 0 0 0-8.8-3.1 11.6 11.6 0 0 0-10.9 7.2h.8m28.1.3a6.4 6.4 0 0 1 5.5-2.9 6.7 6.7 0 0 1 6.4 4.4l5.5 1.1a12 12 0 0 0-22.8-3l5.4.4m-38.8.6v-7.7h-4.9v8.3l4.9-.6m73.9 6.1l-10.5-13.8h-4.5v10.4l4.8 1.3v-3.6l10.8 14.3h4.2v-7.2l-4.8-1.4zm-15 8.6h4.8v-6.6a34.8 34.8 0 0 0-4.8-2.1zm15-22.4v9.9c1.5.8 3.1 1.5 4.8 2.2v-12.1zm-22.8 11.2c0 3.9-2.7 7-6.7 7a6.8 6.8 0 0 1-6.8-7 7 7 0 0 1 .5-2.5l-5.2-.6a11.2 11.2 0 0 0-.4 3.2 11.4 11.4 0 0 0 11.8 11.5 11.7 11.7 0 0 0 11.9-10 42.8 42.8 0 0 0-5.1-1.5m-30.4 2.4h4.9v3.2a7.6 7.6 0 0 1-4.6 1.4 6.8 6.8 0 0 1-6.8-7.1 7.3 7.3 0 0 1 .8-3.3l-2.8.2-2.7.3a9.2 9.2 0 0 0-.4 2.9c0 6.7 4.8 11.5 11.8 11.5a14.8 14.8 0 0 0 9.5-3.5v-9.7h-9.7zm-20.7-4.1l-4.9.9v11.9h14v-4.7h-9.1zm-28.2 8.8l-1.7 4h5l1.9-4.7h9.8l1.9 4.7h5.1l-4.4-10.5a106 106 0 0 0-17.6 6.5m7.8-7.1l2.3-5.5 1.9 4.5 4.5-.9-4.1-9.6h-4.5l-5.5 12.9 5.4-1.4"/></g></g></svg>