<svg xmlns="http://www.w3.org/2000/svg" width="240" height="400" viewBox="0 0 240 400"><defs><radialGradient id="a" cx="119.86" cy="297.26" r="64.78" gradientTransform="matrix(.49 0 0 .11 61.6 264.2)" gradientUnits="userSpaceOnUse"><stop offset="0" stop-color="#b26928"/><stop offset=".31" stop-color="#b56c28"/><stop offset=".53" stop-color="#be7428"/><stop offset=".72" stop-color="#ce8228"/><stop offset=".9" stop-color="#e49627"/><stop offset=".95" stop-color="#eb9c27"/></radialGradient><clipPath id="b"><path fill="none" d="M134.2 370.5h96.7v20.29h-96.7z"/></clipPath><clipPath id="c"><path fill="none" d="M128 360.4h111.6v35.51H128z"/></clipPath></defs><path fill="#eb9d28" d="M-9-9h258v418H-9z"/><path fill="#462600" d="M54.8 27.9c0-8.5 4.7-14.5 12.2-14.5s8.7 4 10.1 7.4l-5.6 2.4c-.7-2.2-2.3-3.7-4.5-3.7s-5.3 3.5-5.3 8.4 2 8.5 5.3 8.5 3.8-1.7 4.5-4l5.6 2.4c-1.3 3.4-4 7.6-10.1 7.6s-12.2-5.9-12.2-14.5zM91 13.4c7.5 0 12.2 6.1 12.2 14.5S98.5 42.4 91 42.4s-12.3-6-12.3-14.5S83.4 13.4 91 13.4zm0 6.1c-3.4 0-5.3 3.6-5.3 8.4s1.9 8.5 5.3 8.5 5.3-3.6 5.3-8.5-1.9-8.4-5.3-8.4zm15.5-5.6h16.9v5.8h-10.1v5.1h9.8v5.8h-9.8v11.3h-6.8zm20.4 0h16.9v5.8h-10.1v5.1h9.8v5.8h-9.8v11.3h-6.8zm20.3 0h16.9v5.8H154v5.1h9.8v5.8H154v5.5h10.1v5.8h-16.9zm20.7 0h16.8v5.8h-10v5.1h9.8v5.8h-9.8v5.5h10v5.8h-16.8z"/><path fill="#6b4019" d="M91.9 47.4h9.9v1H93v8.9h8.6v.9H93v9.6h8.8v.9h-9.9zm19.3 11.4l-5.8 9.9h-1.3l6.5-10.8-6.1-10.5h1.3l5.4 9.4 5.4-9.4h1.3l-6.1 10.4 6.4 10.9H117zm10.1-11.4h5.3c3.5 0 5.3 2.8 5.3 6s-1.8 6.1-5.3 6.1h-4.3v9.2h-1zm5.3 1h-4.3v10.1h4.3c2.7 0 4.2-2.1 4.2-5.1s-1.5-5-4.2-5zm15.7-1.4c4.9 0 7.4 5 7.4 11.1s-2.5 11-7.4 11-7.3-5-7.3-11 2.5-11.1 7.3-11.1zm0 1c-4 0-6.2 4.5-6.2 10.1s2.2 10.1 6.2 10.1 6.3-4.6 6.3-10.1-2.2-10.1-6.3-10.1z"/><path fill="#fff" d="M86.8 349.5H85c-.2 0-.2-.1-.2-.2v-1.7a.2.2 0 0 1 .2-.2h1.7v-11.8c0-.1 0-.1.1-.1h1.8c.1 0 .2 0 .2.1v11.9a1.8 1.8 0 0 1-2 2zm5.7-2h1.6c.1 0 .1 0 .1-.1v-11.8c0-.1.1-.1.2-.1h1.8c.1 0 .2 0 .2.1v12a1.8 1.8 0 0 1-2 2h-2.1c-1.6 0-2-.8-2-2v-12c0-.1 0-.1.1-.1h1.8c.1 0 .2 0 .2.1v11.8c0 .1 0 .1.1.1zm5.7 2c-.1 0-.1-.1-.1-.2v-13.7c0-.1 0-.1.1-.1h1.8c.1 0 .2 0 .2.1v11.8h1.9a.2.2 0 0 1 .2.2v1.7a.2.2 0 0 1-.2.2zm5.2 0a.2.2 0 0 1-.2-.2v-4.6l-1.9-9.1c-.1-.1 0-.1.1-.1h1.8c.1 0 .2 0 .2.1l.9 4.8.9-4.8c0-.1.1-.1.2-.1h1.8c.1 0 .2 0 .1.1l-1.9 9.1v4.6l-.2.2zm7.6-.2v-4.6a2 2 0 0 1 .6-1.4l2.8-3a1.4 1.4 0 0 0 .5-1.3v-1.5c0-.1 0-.1-.1-.1h-1.6c-.1 0-.1 0-.1.1v1.8a.2.2 0 0 1-.2.2h-1.8a.2.2 0 0 1-.2-.2v-2c0-1.2.6-1.9 2.1-1.9h2c1.5 0 2 .7 2 1.9v2.2a3 3 0 0 1-.8 2.1l-2.8 3a.9.9 0 0 0-.3.7v2h3.8c.1 0 .1.1.1.2v1.7c0 .1 0 .2-.1.2h-5.7a.2.2 0 0 1-.2-.1zm6.5-11.8c-.2 0-.2-.1-.1-.2l1.8-1.7h2c.1 0 .1 0 .1.1v13.7c0 .1 0 .2-.1.2h-1.8c-.2 0-.2-.1-.2-.2v-11.9zm7.2 9.8c.1 0 .2.1.1.2l-1.1 3.9a.2.2 0 0 1-.2.2h-1.6c-.1 0-.2-.1-.1-.2l1.1-3.9a.2.2 0 0 1 .2-.2zm4.2 2v-4.6a1.6 1.6 0 0 1 .6-1.4l2.7-3a1.4 1.4 0 0 0 .5-1.3v-1.5c0-.1 0-.1-.1-.1H131c-.1 0-.1 0-.1.1v1.8a.2.2 0 0 1-.2.2h-1.8c-.1 0-.1-.1-.1-.2v-2c0-1.2.5-1.9 2-1.9h2.1c1.5 0 2 .7 2 1.9v2.2a3.1 3.1 0 0 1-.9 2.1l-2.7 3a.9.9 0 0 0-.3.7v2h3.7a.2.2 0 0 1 .2.2v1.7a.2.2 0 0 1-.2.2H129c-.1.1-.1 0-.1-.1zm11.1-13.9c1.5 0 2 .7 2 1.9v10.3c0 1.2-.4 2-2 2h-2c-1.6 0-2-.8-2-2v-10.3c0-1.2.5-1.9 2-1.9h2zm-1.9 2.1v9.9c0 .1 0 .1.1.1h1.6c.1 0 .1 0 .1-.1v-9.9c0-.1 0-.1-.1-.1h-1.6c-.1 0-.1 0-.1.1zm4.7 0c-.1 0-.2-.1-.1-.2l1.9-1.7h1.9c.1 0 .1 0 .1.1v13.7c0 .1 0 .2-.1.2h-1.8a.2.2 0 0 1-.2-.2v-11.9zm7.6 10h1.6c.1 0 .1 0 .1-.1v-3.9h-1.9a1.8 1.8 0 0 1-2.1-2v-4.1a1.8 1.8 0 0 1 2-2h2.1c1.5 0 2 .7 2 1.9v10.3c0 1.2-.4 2-2 2h-2a1.8 1.8 0 0 1-2.1-2v-2a.2.2 0 0 1 .2-.2h1.8a.2.2 0 0 1 .2.2v1.8c0 .1 0 .1.1.1zm0-6.1h1.7v-3.9c0-.1 0-.1-.1-.1h-1.6c-.1 0-.1 0-.1.1v3.8z"/><path fill="#6b4019" d="M67 323.3a4.9 4.9 0 0 0 3.6 1.7 2.5 2.5 0 0 0 2.8-2.6c0-1.7-1.4-2.4-3-3.2s-4-1.8-4-4.5 1.9-4.1 4.5-4.1a5.7 5.7 0 0 1 4.1 1.6l-1 1.4a4.1 4.1 0 0 0-3.2-1.3 2.3 2.3 0 0 0-2.5 2.3c0 1.4 1.4 2.1 2.9 2.9s4.1 1.9 4.1 4.8-1.5 4.3-4.7 4.3a5.8 5.8 0 0 1-4.6-1.9zm16.8-5c0-1.4-.7-2-1.8-2a3.3 3.3 0 0 0-2.6 1.8v8.2h-1.7v-15.4h1.7v5.8a4.2 4.2 0 0 1 3.3-1.8c1.9 0 2.8.9 2.8 3v8.4h-1.7zm10.5 6.8a3.3 3.3 0 0 1-3 1.5 3.4 3.4 0 0 1-3.3-3.7c0-2.4 1.5-3.7 3.3-3.7a3.5 3.5 0 0 1 3 1.4v-1.9a2.2 2.2 0 0 0-2.3-2.4 3.4 3.4 0 0 0-2.8 1.4l-.8-1.2a5.2 5.2 0 0 1 3.8-1.6c2.3 0 3.8 1.1 3.8 3.6v7.8h-1.7zm0-3.2a2.7 2.7 0 0 0-2.4-1.5 2.5 2.5 0 0 0 0 5 2.8 2.8 0 0 0 2.4-1.4zm10.6-4.6l-2.4 9h-1.7l-3-11.2h1.7l2.2 9 2.4-9h1.5l2.4 9 2.2-9h1.8l-3 11.2h-1.7zm13.4 1.3c0-4.6 2.4-8 6-8a5 5 0 0 1 4.6 3l-1.6.8a3.2 3.2 0 0 0-3-2.1c-2.5 0-4.1 2.7-4.1 6.3s1.6 6.4 4.1 6.4a3.4 3.4 0 0 0 3.1-2.3l1.5.7a5 5 0 0 1-4.6 3.2c-3.6 0-6-3.4-6-8zm16.8-3.7c3 0 4.5 2.6 4.5 5.9v.5h-7.3c.1 2.2 1.2 3.9 3.2 3.9a3.7 3.7 0 0 0 2.7-1.3l.9.9a4.7 4.7 0 0 1-3.7 1.8c-3 0-4.8-2.4-4.8-5.9s1.7-5.8 4.5-5.8zm-2.8 5.2h5.6c0-1.8-.7-3.8-2.8-3.8s-2.7 2.1-2.8 3.8zm15.8-1.7c0-1.5-.7-2.1-1.8-2.1a3.3 3.3 0 0 0-2.6 1.8v8.2H142v-11.2h1.7v1.6a4.2 4.2 0 0 1 3.2-1.8c1.9 0 2.8 1 2.8 3v8.4h-1.6zm5 5.7v-7.5h-1.5v-1.5h1.5v-3h1.7v3h1.9v1.5h-1.9v7.2c0 .9.2 1.3.9 1.3a1.2 1.2 0 0 0 1-.4l.5 1.2a2.5 2.5 0 0 1-1.8.7c-1.6 0-2.3-.8-2.3-2.5zm5.8-9h1.6v1.8a3.8 3.8 0 0 1 3.2-2v1.7h-.5a3.4 3.4 0 0 0-2.7 1.8v7.9h-1.6zm10.7-.2c3 0 4.5 2.6 4.5 5.9v.5h-7.3c.1 2.2 1.2 3.9 3.2 3.9a3.7 3.7 0 0 0 2.7-1.3l.9.9a4.7 4.7 0 0 1-3.7 1.8c-3 0-4.8-2.4-4.8-5.9s1.7-5.8 4.5-5.8zm-2.8 5.2h5.6c0-1.8-.7-3.8-2.8-3.8s-2.8 2.1-2.8 3.8z"/><path fill="#462600" d="M36.4 368.8h-1.9v10.7h2v-2a.3.3 0 0 1 .1-.2h2c.1 0 .1.1.1.2v2.1c0 1.4-.4 2.1-2.1 2.1h-2.2c-1.7 0-2.1-.7-2.1-2v-11c0-1.4.5-2.1 2.1-2.1h2.2c1.6 0 2.1.7 2.1 2v2c0 .1 0 .2-.1.2h-2a.3.3 0 0 1-.1-.2v-1.8zm3.6 11v-11c0-1.4.6-2.1 2.2-2.1h2.1c1.6 0 2.2.7 2.2 2v11c0 1.4-.5 2.1-2.1 2.1h-2.2c-1.7 0-2.2-.7-2.2-2zm4.1-11h-1.8v10.7h1.9v-10.6zm6.4 6.4v6.3c0 .2-.1.2-.2.2h-1.9a.2.2 0 0 1-.2-.2V367c0-.2.1-.2.2-.2h4s.1 0 .1.2v1.8h-2v4.2h2v2c0 .2-.1.2-.2.2zm5.5 0v6.3c0 .2-.1.2-.2.2h-1.9a.2.2 0 0 1-.2-.2V367c0-.2.1-.2.2-.2h4c.1 0 .1 0 .1.2v1.8h-2v4.2h2v2c0 .2-.1.2-.2.2zm3.4 6.5c-.1 0-.1-.1-.1-.2V367c0-.2 0-.2.1-.2h4c.1 0 .2 0 .2.2v1.8h-2.1v4.2h2.1v2c0 .2-.1.2-.2.2h-1.9v4.4h2.1v1.8c0 .2-.1.2-.2.2zm5.8 0c-.1 0-.1-.1-.1-.2V367c0-.2 0-.2.1-.2h4c.1 0 .2 0 .2.2v1.8h-2.1v4.2h2.1v2c0 .2-.1.2-.2.2h-1.9v4.4h2.1v1.8c0 .2-.1.2-.2.2z"/><path fill="#6b4019" d="M32.2 384.3h3.3v.7H33v2.1h2.4v.7H33v2.3h2.5v.7h-3.3zm5.7 4.6l-1.1 1.9h-.7l1.4-2.4-1.4-2.3h.8l1 1.8 1-1.8h.8l-1.4 2.3 1.4 2.4H39zm2.6 3.6v-6.4h.7v.7a1.4 1.4 0 0 1 1.2-.8c1.1 0 1.7 1 1.7 2.4s-.6 2.5-1.7 2.5a1.4 1.4 0 0 1-1.2-.8v2.4zm1.7-5.9a1.3 1.3 0 0 0-1 .8v2.1a1.3 1.3 0 0 0 1 .8c.8 0 1.2-.9 1.2-1.9s-.4-1.8-1.2-1.8zm2.7 1.8c0-1.3.6-2.4 1.9-2.4s1.9 1.1 1.9 2.4-.7 2.5-1.9 2.5-1.9-1.2-1.9-2.5zm3.1 0c0-.9-.4-1.8-1.2-1.8s-1.2.9-1.2 1.8.4 1.9 1.2 1.9 1.2-.9 1.2-1.9zm3.8-4.1h.8v6.5h-.8zm4.6 3.1c0-.6-.3-.8-.7-.8a1.4 1.4 0 0 0-1.1.7v3.5h-.7v-4.7h.7v.7a1.8 1.8 0 0 1 1.3-.8c.8 0 1.2.4 1.2 1.3v3.5h-.7zm3.7-1.4a1.8 1.8 0 0 1 1.3.6l-.4.5a.9.9 0 0 0-.9-.5c-.8 0-1.2.8-1.2 1.8s.4 1.9 1.2 1.9a1.1 1.1 0 0 0 .9-.5l.4.5a1.8 1.8 0 0 1-1.3.6c-1.2 0-1.9-1.1-1.9-2.5s.7-2.4 1.9-2.4zm2.7 3.8a.6.6 0 0 1 0 1.1.6.6 0 0 1-.5-.6.5.5 0 0 1 .5-.5z"/><ellipse cx="20.8" cy="378.2" fill="#462600" rx="12.7" ry="6.7" transform="rotate(-72 20.87 378.232)"/><path fill="#6b4019" d="M24.6 366.4c-12.6 9.5-1.2 18.4-7.6 23.5 8.2-4 .1-13 7.6-23.5z"/><ellipse cx="119.9" cy="295.8" fill="url(#a)" opacity=".5" rx="31.7" ry="7.1"/><path fill="none" stroke="#462600" stroke-miterlimit="10" d="M58.4 331.4h126.1"/><g clip-path="url(#b)"><g fill="#231f20" clip-path="url(#c)"><path d="M194.3 378.3a3.2 3.2 0 0 1-.6-2 3.4 3.4 0 0 1 3.4-3.5 3.4 3.4 0 0 1 3.5 3.5 3.8 3.8 0 0 1-.4 1.6l-.7-.6-1.5 1.8 4.2.5a5.8 5.8 0 0 0 1-3.2 6.1 6.1 0 0 0-12.1.1v1a29.9 29.9 0 0 0 3.2.9m17.5 1.2l2.3-.2a5.6 5.6 0 0 0 .4-2.3v-6.4H212v6.5a2.5 2.5 0 0 1-1.3 2.5h1.1m7-1.1v-7.9h-2.6v8.4l2.6-.5m4.4-1.1v-2.7l1.7 2.2 2.3-.8-4.2-5.5h-2.3v7.5l2.5-.7m-14.7 2.3a2.6 2.6 0 0 1-1.5-2.7v-6.4h-2.5v6.5a6.7 6.7 0 0 0 .5 2.6h3.5m12.2-.5v2.8h2.5v-3.2l-2.5.4m-4.5.6v2.2h2.6v-2.5l-2.6.3m-2.6.3a76 76 0 0 1-8.2.2 4.7 4.7 0 0 0 4.1 1.9 4.8 4.8 0 0 0 4.3-2.1h-.2m-17-.4l-5-.9a5.8 5.8 0 0 0 5.5 3.4 6.5 6.5 0 0 0 3.4-1l1.8 1.6 1.6-1.8-.9-.8c-2.2-.1-4.3-.2-6.4-.5m31.8-2.1l-2.5.6 2.8 3.8h2.2V377l-2.5.7m0-7v5l2.5-1.1v-3.9zm-73.5 3.4h2.6a3.3 3.3 0 0 1 2.5-1.2 4.4 4.4 0 0 1 3 1.1l1.5-1.9a6 6 0 0 0-4.4-1.5 5.9 5.9 0 0 0-5.6 3.6h.4m14.3.1a3.4 3.4 0 0 1 2.9-1.5 3.3 3.3 0 0 1 3.2 2.3l2.8.5a5.8 5.8 0 0 0-6-5.1 6 6 0 0 0-5.6 3.6l2.7.2m-19.8.3v-3.9h-2.5v4.2l2.5-.3m37.8 3.1l-5.4-7h-2.3v5.3l2.5.7v-1.9l5.5 7.3h2.1v-3.7l-2.4-.7zm-7.7 4.4h2.5v-3.4l-2.5-1zm7.7-11.4v5l2.4 1.1v-6.1zm-11.7 5.7a3.4 3.4 0 0 1-3.4 3.6 3.6 3.6 0 0 1-3.5-3.6 2.7 2.7 0 0 1 .3-1.2 12.4 12.4 0 0 0-2.7-.3 7.8 7.8 0 0 0-.2 1.6 5.9 5.9 0 0 0 6.1 5.9 6 6 0 0 0 6-5.1l-2.6-.8m-15.5 1.2h2.5v1.6a3.5 3.5 0 0 1-2.3.7 3.4 3.4 0 0 1-3.5-3.6 2.9 2.9 0 0 1 .4-1.6h-2.8a3.9 3.9 0 0 0-.2 1.5 5.7 5.7 0 0 0 6 5.9 7.5 7.5 0 0 0 4.9-1.8v-5h-5zm-10.6-2.1l-2.5.4v6.1h7.2v-2.4h-4.7zm-14.4 4.5l-.8 2h2.5l1-2.4h5l.9 2.4h2.7l-2.3-5.3a45.4 45.4 0 0 0-9 3.3m4-3.7l1.2-2.8.9 2.3 2.4-.4-2.1-4.9h-2.3l-2.8 6.5 2.7-.7m46.5 10.9a3.3 3.3 0 0 1 3.4-3.4 3.7 3.7 0 0 1 2.7 1l-.8.9a2.6 2.6 0 0 0-1.9-.8 2.2 2.2 0 0 0-2.2 2.3 2.3 2.3 0 0 0 2.2 2.4 2.2 2.2 0 0 0 1.9-.9l.8.8a3.6 3.6 0 0 1-2.7 1.2 3.4 3.4 0 0 1-3.4-3.5m6.7 0a3.5 3.5 0 0 1 7 0 3.5 3.5 0 0 1-3.5 3.5 3.4 3.4 0 0 1-3.5-3.5m5.7 0a2.2 2.2 0 0 0-2.2-2.3 2.3 2.3 0 0 0-2.3 2.3 2.3 2.3 0 0 0 2.3 2.4 2.3 2.3 0 0 0 2.2-2.4m2.5-3.3h1.2v5.6h3.5v1h-4.7V384zm5.9 0h1.1v5.6h3.5v1h-4.6V384zm5.8 0h5v1h-3.8v1.8h3.4v1h-3.4v1.8h3.8v1h-5V384zm6 3.3a3.6 3.6 0 0 1 6-2.5l-.7.9a2.4 2.4 0 0 0-1.9-.7 2.2 2.2 0 0 0-2.1 2.3 2.2 2.2 0 0 0 2.2 2.4 2.5 2.5 0 0 0 1.6-.5v-1.3h-1.7v-1h2.9v2.8a4.2 4.2 0 0 1-2.8 1.1 3.4 3.4 0 0 1-3.5-3.5m7.8-3.3h4.9v1h-3.7v1.8h3.3v1h-3.3v1.8h3.8v1h-5V384z"/><path d="M194.3 378.3a3.2 3.2 0 0 1-.6-2 3.4 3.4 0 0 1 3.4-3.5 3.4 3.4 0 0 1 3.5 3.5 3.8 3.8 0 0 1-.4 1.6l-.7-.6-1.5 1.8 4.2.5a5.8 5.8 0 0 0 1-3.2 6.1 6.1 0 0 0-12.1.1v1a29.9 29.9 0 0 0 3.2.9m17.5 1.2l2.3-.2a5.6 5.6 0 0 0 .4-2.3v-6.4H212v6.5a2.5 2.5 0 0 1-1.3 2.5h1.1m7-1.1v-7.9h-2.6v8.4l2.6-.5m4.4-1.1v-2.7l1.7 2.2 2.3-.8-4.2-5.5h-2.3v7.5l2.5-.7m-14.7 2.3a2.6 2.6 0 0 1-1.5-2.7v-6.4h-2.5v6.5a6.7 6.7 0 0 0 .5 2.6h3.5m12.2-.5v2.8h2.5v-3.2l-2.5.4m-4.5.6v2.2h2.6v-2.5l-2.6.3m-2.6.3a76 76 0 0 1-8.2.2 4.7 4.7 0 0 0 4.1 1.9 4.8 4.8 0 0 0 4.3-2.1h-.2m-17-.4l-5-.9a5.8 5.8 0 0 0 5.5 3.4 6.5 6.5 0 0 0 3.4-1l1.8 1.6 1.6-1.8-.9-.8c-2.2-.1-4.3-.2-6.4-.5m31.8-2.1l-2.5.6 2.8 3.8h2.2V377l-2.5.7m0-7v5l2.5-1.1v-3.9zm-73.5 3.4h2.6a3.3 3.3 0 0 1 2.5-1.2 4.4 4.4 0 0 1 3 1.1l1.5-1.9a6 6 0 0 0-4.4-1.5 5.9 5.9 0 0 0-5.6 3.6h.4m14.3.1a3.4 3.4 0 0 1 2.9-1.5 3.3 3.3 0 0 1 3.2 2.3l2.8.5a5.8 5.8 0 0 0-6-5.1 6 6 0 0 0-5.6 3.6l2.7.2m-19.8.3v-3.9h-2.5v4.2l2.5-.3m37.8 3.1l-5.4-7h-2.3v5.3l2.5.7v-1.9l5.5 7.3h2.1v-3.7l-2.4-.7zm-7.7 4.4h2.5v-3.4l-2.5-1zm7.7-11.4v5l2.4 1.1v-6.1zm-11.7 5.7a3.4 3.4 0 0 1-3.4 3.6 3.6 3.6 0 0 1-3.5-3.6 2.7 2.7 0 0 1 .3-1.2 12.4 12.4 0 0 0-2.7-.3 7.8 7.8 0 0 0-.2 1.6 5.9 5.9 0 0 0 6.1 5.9 6 6 0 0 0 6-5.1l-2.6-.8m-15.5 1.2h2.5v1.6a3.5 3.5 0 0 1-2.3.7 3.4 3.4 0 0 1-3.5-3.6 2.9 2.9 0 0 1 .4-1.6h-2.8a3.9 3.9 0 0 0-.2 1.5 5.7 5.7 0 0 0 6 5.9 7.5 7.5 0 0 0 4.9-1.8v-5h-5zm-10.6-2.1l-2.5.4v6.1h7.2v-2.4h-4.7zm-14.4 4.5l-.8 2h2.5l1-2.4h5l.9 2.4h2.7l-2.3-5.3a45.4 45.4 0 0 0-9 3.3m4-3.7l1.2-2.8.9 2.3 2.4-.4-2.1-4.9h-2.3l-2.8 6.5 2.7-.7"/></g></g><path fill="#35240f" d="M99.8 97.2c-23.5 10.6 0 30-3.7 52.5-2.3-22.5-24.2-41.9 3.7-52.5" opacity=".6"/><path fill="#f1f2f2" d="M158.6 155.8L88.1 149a2.5 2.5 0 0 0-2.6 1.6l-4.8 14.1h79.9v-6.6a2.3 2.3 0 0 0-2-2.3z"/><path fill="#d6d6d6" d="M103.1 150.5l-15-1.5a2.5 2.5 0 0 0-2.6 1.6l-4.8 14.1h26.7z"/><path fill="#a8835f" d="M80.7 169.9l17.2 124.8c-.1 1.2 2.1 2.3 6.6 3.2 8.9 1.8 23.4 1.8 32.3 0 4.4-.8 6.7-2 6.7-3.1l17.1-124.9z"/><path fill="#b58c66" d="M139.6 297.3c2.6-.8 3.9-1.7 3.9-2.5l17.1-124.9h-7.5s-14.3 127.6-13.5 127.4z"/><path fill="#967051" d="M80.7 169.9l17.2 124.8c-.1 1.2 2.1 2.3 6.6 3.2l-.7-128z"/><path fill="#715644" d="M80.7 169.9l17.2 124.8c-.1 1.2 2.1 2.3 2.3 2L89.5 169.4z"/><path fill="#4b3621" d="M90.4 244.4l-5-34.1c24.4 3.1 48 3.4 70.4 0l-5.1 34.1c-20.7 3.7-40.9 3.8-60.3 0z"/><path fill="#5f462e" d="M151.5 210.9l4.3-.6-5.1 34.1-3.4.6z"/><path fill="#3a281a" d="M90.4 244.4l-5-34.1c6.6.8 13.2 1.5 19.6 1.9v34.4a144.7 144.7 0 0 1-14.6-2.2z"/><path fill="#e6e7e8" d="M79.9 161.7q39.9 2 80.4 0a3.3 3.3 0 0 1 3.1 2.2l3 8.4H74.5l2.3-8.2a3.3 3.3 0 0 1 3.1-2.4z"/><path fill="#ddd" d="M79.9 161.7l20.9.8 3.7 9.8h-30l2.3-8.2a3.3 3.3 0 0 1 3.1-2.4z"/><path fill="#f1f2f2" d="M166.8 172.8c0 1.3-92.8 1.3-92.8 0s-.1-.1-.1-.2v-1c0-.1 0-.2.1-.2q46.4 1.8 92.8 0c.1 0 .1.1.1.2v1c0 .1 0 .2-.1.2z"/><path fill="#6b4019" d="M92.1 72.6a6 6 0 0 1 0 12 6 6 0 0 1 0-12zm0 1.5c-2.5 0-4.1 1.9-4.1 4.5a4.1 4.1 0 0 0 4.1 4.4c2.4 0 4-1.9 4-4.4s-1.6-4.5-4-4.5zm10.3.2h-3.6v-1.5h8.9v1.5h-3.6v10.1h-1.7zm10 0h-3.6v-1.5h8.9v1.5h-3.6v10.1h-1.7zm13.3 7.7H120l-.9 2.4h-2l4.7-11.6h2.1l4.6 11.6h-1.9zm-5.2-1.6h4.7l-2.4-6.1zm15.1-5l-2.4 9h-1.9L128 72.8h2l2.4 9.3 2.5-9.3h1.4l2.5 9.3 2.4-9.3h2l-3.3 11.6H138zm15.6 6.6h-5.7l-.9 2.4h-1.9l4.6-11.6h2.1l4.7 11.6h-2zm-5.2-1.6h4.7l-2.3-6.1z"/></svg>