<svg xmlns="http://www.w3.org/2000/svg" width="720" height="90" viewBox="0 0 720 90"><defs><radialGradient id="a" cx="419.74" cy="77.8" r="64.78" gradientTransform="matrix(1.92 0 0 .09 -385.5 71.2)" gradientUnits="userSpaceOnUse"><stop offset="0" stop-color="#b26928"/><stop offset=".31" stop-color="#b56c28"/><stop offset=".53" stop-color="#be7428"/><stop offset=".72" stop-color="#ce8228"/><stop offset=".9" stop-color="#e49627"/><stop offset=".95" stop-color="#eb9c27"/></radialGradient><clipPath id="b"><path fill="none" d="M605.7 55.1h109.8v23.03H605.7z"/></clipPath><clipPath id="c"><path fill="none" d="M598.7 43.7h126.7V84H598.7z"/></clipPath><linearGradient id="d" x1="395.12" x2="455.35" y1="56.23" y2="56.23" gradientUnits="userSpaceOnUse"><stop offset=".27" stop-color="#ccc"/><stop offset=".8" stop-color="#fff"/><stop offset=".99" stop-color="#d9d9d9"/></linearGradient></defs><path fill="#eb9d28" d="M729-9V99H-9V-9z"/><ellipse cx="419.7" cy="77.8" fill="url(#a)" opacity=".5" rx="125.2" ry="5.7"/><ellipse cx="467.6" cy="64.9" fill="#462600" rx="3.5" ry="6.7" transform="rotate(-73.6 467.774 64.736)"/><path fill="#6b4019" d="M461.3 63c7.9-2.6 8.4 5 12.5 3.7-4.1 2.4-5.6-3.8-12.5-3.7z"/><ellipse cx="420.4" cy="71.8" fill="#462600" rx="3.5" ry="6.7" transform="rotate(-73.6 420.539 71.721)"/><path fill="#6b4019" d="M414.1 69.9c7.9-2.6 8.4 4.9 12.5 3.7-4.2 2.4-5.7-3.8-12.5-3.7z"/><ellipse cx="377.3" cy="65.7" fill="#462600" rx="3.5" ry="6.7" transform="rotate(-73.6 377.494 65.58)"/><path fill="#6b4019" d="M371 63.8c8-2.6 8.4 4.9 12.6 3.7-4.2 2.3-5.7-3.8-12.6-3.7z"/><ellipse cx="362" cy="62.5" fill="#462600" rx="3.5" ry="6.7" transform="rotate(-73.6 362.082 62.494)"/><path fill="#6b4019" d="M355.7 60.7c7.9-2.7 8.4 4.9 12.5 3.7-4.2 2.3-5.7-3.8-12.5-3.7z"/><ellipse cx="377.3" cy="71.8" fill="#462600" rx="3.5" ry="6.7" transform="rotate(-73.6 377.485 71.724)"/><path fill="#6b4019" d="M371 69.9c8-2.6 8.4 4.9 12.6 3.7-4.2 2.4-5.7-3.8-12.6-3.7z"/><ellipse cx="406.9" cy="62.6" fill="#462600" rx="3.5" ry="6.7" transform="rotate(-73.6 407.039 62.456)"/><path fill="#6b4019" d="M400.6 60.7c7.9-2.6 8.4 4.9 12.5 3.7-4.2 2.4-5.7-3.8-12.5-3.7z"/><ellipse cx="398.5" cy="59.9" fill="#462600" rx="3.5" ry="6.7" transform="rotate(-73.7 397.97 60.248)"/><path fill="#6b4019" d="M392.3 58.1c7.9-2.7 8.4 4.9 12.5 3.7-4.2 2.3-5.7-3.8-12.5-3.7z"/><ellipse cx="451.1" cy="69.4" fill="#462600" rx="3.5" ry="6.7" transform="rotate(-43.9 451.445 69.304)"/><path fill="#6b4019" d="M446.6 64.7c8.2 1.6 4.9 8.4 9.1 9.4-4.8-.1-3.1-6.2-9.1-9.4z"/><ellipse cx="432.4" cy="60.7" fill="#462600" rx="3.5" ry="6.7" transform="rotate(-43.9 432.863 60.662)"/><path fill="#6b4019" d="M427.9 56c8.2 1.6 4.9 8.4 9.1 9.4-4.8 0-3.1-6.1-9.1-9.4z"/><ellipse cx="420.3" cy="55.2" fill="#462600" rx="6.7" ry="3.5" transform="rotate(-34.3 420.764 55.138)"/><path fill="#6b4019" d="M425.7 51.5c-2.9 7.8-9.1 3.4-10.7 7.4.8-4.7 6.5-2 10.7-7.4z"/><ellipse cx="488.8" cy="63.2" fill="#462600" rx="6.7" ry="3.5" transform="rotate(-34.3 489.274 63.148)"/><path fill="#6b4019" d="M494.2 59.5c-3 7.8-9.1 3.4-10.8 7.4.9-4.7 6.6-2 10.8-7.4z"/><ellipse cx="484.7" cy="68.6" fill="#462600" rx="6.7" ry="3.5" transform="rotate(-34.3 485.317 68.493)"/><path fill="#6b4019" d="M490.1 64.9c-2.9 7.8-9.1 3.4-10.8 7.3.9-4.7 6.6-1.9 10.8-7.3z"/><ellipse cx="487.5" cy="72.6" fill="#462600" rx="6.7" ry="3.5" transform="rotate(-33.9 492.158 70.834)"/><path fill="#6b4019" d="M492.9 68.9c-3 7.8-9.1 3.4-10.8 7.4.8-4.7 6.6-2 10.8-7.4z"/><ellipse cx="468" cy="71.8" fill="#462600" rx="6.7" ry="3.5" transform="rotate(-34.3 468.547 71.658)"/><path fill="#6b4019" d="M473.4 68.1c-2.9 7.8-9.1 3.3-10.7 7.3.8-4.7 6.5-2 10.7-7.3z"/><ellipse cx="473.4" cy="66.9" fill="#462600" rx="3.5" ry="6.7" transform="rotate(-78.6 473.353 66.911)"/><path fill="#6b4019" d="M479.9 68.2c-7.7 3.3-8.8-4.2-12.8-2.6 3.9-2.7 6 3.3 12.8 2.6z"/><ellipse cx="457.7" cy="63.7" fill="#462600" rx="6.7" ry="3.5" transform="rotate(-34.3 458.231 63.683)"/><path fill="#6b4019" d="M463.1 60c-3 7.8-9.1 3.4-10.8 7.4.9-4.8 6.6-2 10.8-7.4z"/><ellipse cx="447.2" cy="62.8" fill="#462600" rx="6.7" ry="3.5" transform="rotate(-34.3 447.698 62.74)"/><path fill="#6b4019" d="M452.6 59.1c-3 7.8-9.1 3.4-10.8 7.4.8-4.8 6.6-2 10.8-7.4z"/><ellipse cx="444" cy="71.6" fill="#462600" rx="6.7" ry="3.5" transform="rotate(-34.3 444.462 71.501)"/><path fill="#6b4019" d="M449.4 67.9c-2.9 7.8-9.1 3.4-10.8 7.4.9-4.8 6.6-2 10.8-7.4z"/><ellipse cx="395" cy="71" fill="#462600" rx="6.7" ry="3.5" transform="rotate(-34.3 395.481 70.937)"/><path fill="#6b4019" d="M400.4 67.3c-3 7.8-9.2 3.4-10.8 7.4.8-4.7 6.5-2 10.8-7.4z"/><ellipse cx="408.9" cy="65.5" fill="#462600" rx="6.7" ry="3.5" transform="rotate(-34.3 409.41 65.476)"/><path fill="#6b4019" d="M414.3 61.8c-3 7.8-9.1 3.4-10.8 7.4.8-4.7 6.6-2 10.8-7.4z"/><ellipse cx="461.1" cy="69.3" fill="#462600" rx="6.7" ry="3.5" transform="rotate(-34.3 461.63 69.346)"/><path fill="#6b4019" d="M466.5 65.7c-3 7.8-9.2 3.3-10.8 7.3.8-4.7 6.5-2 10.8-7.3z"/><ellipse cx="424" cy="67.6" fill="#462600" rx="6.7" ry="3.5" transform="rotate(-34.3 424.581 67.495)"/><path fill="#6b4019" d="M429.4 63.9c-2.9 7.8-9.1 3.4-10.7 7.4.8-4.8 6.5-2 10.7-7.4z"/><ellipse cx="388" cy="60.9" fill="#462600" rx="6.7" ry="3.5" transform="rotate(-33.9 391.776 59.503)"/><path fill="#6b4019" d="M393.4 57.2c-2.9 7.8-9.1 3.4-10.7 7.4.8-4.8 6.5-2 10.7-7.4z"/><ellipse cx="359.7" cy="67.9" fill="#462600" rx="6.7" ry="3.5" transform="rotate(-34.3 360.066 67.816)"/><path fill="#6b4019" d="M365.1 64.2c-3 7.8-9.1 3.4-10.8 7.4.8-4.7 6.6-2 10.8-7.4z"/><ellipse cx="325.6" cy="72.6" fill="#462600" rx="6.7" ry="3.5" transform="rotate(-34.3 325.954 72.55)"/><path fill="#6b4019" d="M331 68.9c-3 7.8-9.1 3.4-10.8 7.4.8-4.7 6.6-2 10.8-7.4z"/><ellipse cx="352.7" cy="70.3" fill="#462600" rx="6.7" ry="3.5" transform="rotate(-34.3 353.095 70.279)"/><path fill="#6b4019" d="M358.1 66.6c-3 7.8-9.2 3.4-10.8 7.3.8-4.7 6.5-1.9 10.8-7.3z"/><ellipse cx="493.3" cy="69.4" fill="#462600" rx="3.5" ry="6.7" transform="rotate(-43.9 493.747 69.19)"/><path fill="#6b4019" d="M488.8 64.6c8.2 1.7 4.9 8.5 9.1 9.4-4.8 0-3.1-6.1-9.1-9.4z"/><ellipse cx="443" cy="61.8" fill="#462600" rx="3.5" ry="6.7" transform="rotate(-43.9 443.392 61.733)"/><path fill="#6b4019" d="M438.5 57.1c8.2 1.7 4.8 8.5 9 9.4-4.8 0-3-6.1-9-9.4z"/><ellipse cx="336.1" cy="72.8" fill="#462600" rx="3.5" ry="6.7" transform="rotate(-73.6 336.186 72.726)"/><path fill="#6b4019" d="M329.8 71c7.9-2.7 8.4 4.9 12.5 3.7-4.2 2.3-5.7-3.8-12.5-3.7z"/><ellipse cx="343.4" cy="72.2" fill="#462600" rx="3.5" ry="6.7" transform="rotate(-73.6 343.497 72.15)"/><path fill="#6b4019" d="M337.1 70.4c7.9-2.7 8.4 4.9 12.5 3.7-4.1 2.3-5.6-3.9-12.5-3.7z"/><ellipse cx="475.6" cy="72.6" fill="#462600" rx="3.5" ry="6.7" transform="rotate(-73.6 475.813 72.522)"/><path fill="#6b4019" d="M469.4 70.8c7.9-2.7 8.4 4.9 12.5 3.7-4.2 2.3-5.7-3.8-12.5-3.7z"/><ellipse cx="440.1" cy="66.6" fill="#462600" rx="3.5" ry="6.7" transform="rotate(-73.6 440.248 66.555)"/><path fill="#6b4019" d="M433.8 64.8c7.9-2.6 8.4 4.9 12.5 3.7-4.2 2.3-5.7-3.8-12.5-3.7z"/><ellipse cx="453.5" cy="66.5" fill="#462600" rx="3.5" ry="6.7" transform="rotate(-73.6 453.653 66.472)"/><path fill="#6b4019" d="M447.2 64.7c7.9-2.7 8.4 4.9 12.5 3.7-4.2 2.3-5.7-3.8-12.5-3.7z"/><ellipse cx="456.9" cy="75" fill="#462600" rx="3.5" ry="6.7" transform="rotate(-73.7 456.25 75.375)"/><path fill="#6b4019" d="M450.6 73.2c7.9-2.7 8.4 4.9 12.6 3.7-4.2 2.3-5.7-3.8-12.6-3.7z"/><ellipse cx="403.8" cy="73" fill="#462600" rx="3.5" ry="6.7" transform="rotate(-73.6 403.963 72.977)"/><path fill="#6b4019" d="M397.5 71.2c7.9-2.7 8.4 4.9 12.5 3.6-4.1 2.4-5.6-3.8-12.5-3.6z"/><ellipse cx="505.5" cy="69" fill="#462600" rx="3.5" ry="6.7" transform="rotate(-73.6 505.707 68.93)"/><path fill="#6b4019" d="M499.2 67.2c7.9-2.7 8.4 4.9 12.5 3.7-4.2 2.3-5.7-3.9-12.5-3.7z"/><ellipse cx="519" cy="72.6" fill="#462600" rx="2.9" ry="5.9" transform="rotate(-73.6 519.167 72.536)"/><path fill="#6b4019" d="M513.5 71c6.9-2.1 7.4 4.2 11 3.2-3.7 1.9-5-3.2-11-3.2z"/><ellipse cx="505.5" cy="74.6" fill="#462600" rx="2.9" ry="5.9" transform="rotate(-73.6 505.614 74.489)"/><path fill="#6b4019" d="M500 73c6.8-2.1 7.4 4.2 10.9 3.2-3.6 1.9-5-3.2-10.9-3.2z"/><ellipse cx="534.4" cy="74.7" fill="#462600" rx="2.5" ry="5" transform="rotate(-54.5 533.995 74.808)"/><path fill="#6b4019" d="M530.5 71.9c6.1.2 4.7 5.4 7.8 5.6-3.4.5-3-4-7.8-5.6z"/><ellipse cx="497.9" cy="68.6" fill="#462600" rx="3.5" ry="6.7" transform="rotate(-73.6 498.01 68.488)"/><path fill="#6b4019" d="M491.6 66.7c7.9-2.6 8.4 5 12.5 3.7-4.2 2.4-5.7-3.8-12.5-3.7z"/><ellipse cx="413.1" cy="57.9" fill="#462600" rx="6.2" ry="3.1" transform="rotate(-15 413.898 57.968)"/><path fill="#6b4019" d="M418.9 56.3c-7.3-2.3-7.8 4.3-11.6 3.2 3.9 2.1 5.3-3.3 11.6-3.2z"/><ellipse cx="430.4" cy="68.7" fill="#462600" rx="6" ry="3.2" transform="rotate(-43.4 430.527 68.72)"/><path fill="#6b4019" d="M434.6 64.6c-7.6 1.4-4.5 7.4-8.4 8.2 4.4 0 2.8-5.3 8.4-8.2z"/><ellipse cx="397.6" cy="57.9" fill="#462600" rx="3.1" ry="6.1" transform="rotate(-58.1 397.342 58.036)"/><path fill="#6b4019" d="M392.6 54.7c2.7 6.8 8.4 3 10 6.4-.8-4.1-6.1-1.7-10-6.4z"/><ellipse cx="378.9" cy="59.6" fill="#462600" rx="3.1" ry="6.1" transform="rotate(-58.1 378.65 59.668)"/><path fill="#6b4019" d="M373.9 56.4c2.7 6.8 8.4 2.9 9.9 6.4-.7-4.1-6-1.7-9.9-6.4z"/><ellipse cx="399.3" cy="64.1" fill="#462600" rx="3.1" ry="6.1" transform="rotate(-58.1 399.103 64.197)"/><path fill="#6b4019" d="M394.4 60.9c2.7 6.8 8.4 3 9.9 6.4-.8-4.1-6-1.7-9.9-6.4z"/><ellipse cx="387.3" cy="65.5" fill="#462600" rx="3.1" ry="6.1" transform="rotate(-58.1 387.011 65.608)"/><path fill="#6b4019" d="M382.3 62.3c2.8 6.8 8.4 3 10 6.5-.8-4.2-6.1-1.8-10-6.5z"/><ellipse cx="414.8" cy="70.8" fill="#462600" rx="3.1" ry="6.1" transform="rotate(-58.1 414.526 70.997)"/><path fill="#6b4019" d="M409.8 67.6c2.7 6.8 8.4 3 9.9 6.4-.7-4.1-6-1.7-9.9-6.4z"/><ellipse cx="422.9" cy="62.8" fill="#462600" rx="3.1" ry="6.1" transform="rotate(-58 422.651 62.078)"/><path fill="#6b4019" d="M417.9 59.6c2.7 6.8 8.4 2.9 9.9 6.4-.7-4.1-6-1.7-9.9-6.4z"/><ellipse cx="435.9" cy="63.6" fill="#462600" rx="6.1" ry="3.1" transform="rotate(-3.4 433.146 63.44)"/><path fill="#6b4019" d="M441.8 63.3c-6.2-4-8.6 2.5-11.8.5 3 2.9 5.9-2.1 11.8-.5z"/><ellipse cx="436.8" cy="71.8" fill="#462600" rx="3.1" ry="6.1" transform="rotate(-58.1 436.519 71.905)"/><path fill="#6b4019" d="M431.8 68.6c2.7 6.8 8.4 2.9 10 6.4-.8-4.1-6.1-1.7-10-6.4z"/><ellipse cx="391.5" cy="68.7" fill="#462600" rx="6" ry="3.2" transform="rotate(-43.4 391.505 68.765)"/><path fill="#6b4019" d="M395.6 64.6c-7.5 1.4-4.4 7.4-8.3 8.2 4.4 0 2.8-5.3 8.3-8.2z"/><ellipse cx="387.3" cy="63.2" fill="#462600" rx="6" ry="3.2" transform="rotate(-43.4 387.326 63.172)"/><path fill="#6b4019" d="M391.5 59.1c-7.6 1.4-4.5 7.4-8.4 8.2 4.5 0 2.8-5.3 8.4-8.2z"/><ellipse cx="386.9" cy="73" fill="#462600" rx="6" ry="3.2" transform="rotate(-43.4 387.067 72.966)"/><path fill="#6b4019" d="M391.1 68.9c-7.5 1.4-4.5 7.4-8.3 8.2 4.4 0 2.8-5.3 8.3-8.2z"/><ellipse cx="478.4" cy="66.6" fill="#462600" rx="6" ry="3.2" transform="rotate(-43.4 478.536 66.577)"/><path fill="#6b4019" d="M482.6 62.5c-7.6 1.4-4.5 7.4-8.4 8.2 4.5 0 2.9-5.3 8.4-8.2z"/><ellipse cx="407.3" cy="68.8" fill="#462600" rx="6.2" ry="3.1" transform="rotate(-15 407.84 68.762)"/><path fill="#6b4019" d="M413.1 67.1c-7.3-2.3-7.8 4.4-11.6 3.3 3.9 2 5.3-3.4 11.6-3.3z"/><ellipse cx="417.9" cy="64.2" fill="#462600" rx="6.2" ry="3.1" transform="rotate(-15 418.465 64.365)"/><path fill="#6b4019" d="M423.7 62.6c-7.3-2.3-7.8 4.3-11.6 3.2 3.9 2.1 5.3-3.3 11.6-3.2z"/><ellipse cx="395.6" cy="63.6" fill="#462600" rx="6.2" ry="3.1" transform="rotate(-15 396.138 63.744)"/><path fill="#6b4019" d="M401.4 62c-7.3-2.4-7.7 4.3-11.5 3.2 3.8 2 5.2-3.4 11.5-3.2z"/><ellipse cx="370.8" cy="65.4" fill="#462600" rx="6.2" ry="3.1" transform="rotate(-15 371.561 65.53)"/><path fill="#6b4019" d="M376.6 63.8c-7.3-2.3-7.7 4.3-11.5 3.2 3.8 2.1 5.2-3.3 11.5-3.2z"/><ellipse cx="366" cy="72.2" fill="#462600" rx="6.2" ry="3.1" transform="rotate(-15 366.433 72.197)"/><path fill="#6b4019" d="M371.7 70.6c-7.2-2.3-7.7 4.3-11.5 3.2 3.9 2.1 5.2-3.3 11.5-3.2z"/><ellipse cx="383.9" cy="68.2" fill="#462600" rx="6.2" ry="3.1" transform="rotate(-15 384.704 68.42)"/><path fill="#6b4019" d="M389.7 66.6c-7.3-2.3-7.7 4.3-11.5 3.2 3.8 2.1 5.2-3.3 11.5-3.2z"/><path fill="#462600" d="M670.2 11.5h-2.4c-.1 0-.1.1-.1.2v14.2c0 .1 0 .1.1.1h2.4c.1 0 .1 0 .1-.1v-2.7a.2.2 0 0 1 .2-.2h2.6c.2 0 .2.1.2.2v2.9c0 1.8-.6 2.8-2.8 2.8h-2.9c-2.3 0-2.9-1-2.9-2.7V11.5c0-1.8.7-2.8 2.9-2.8h2.9c2.1 0 2.8 1 2.8 2.7v2.7c0 .1 0 .2-.2.2h-2.6a.2.2 0 0 1-.2-.2v-2.4c0-.1 0-.2-.1-.2zm4.9 14.7V11.5c0-1.8.7-2.8 2.8-2.8h2.9c2.2 0 2.9 1 2.9 2.7v14.7c0 1.8-.6 2.8-2.8 2.8H678c-2.3 0-2.9-1-2.9-2.7zm5.5-14.7h-2.4c-.1 0-.1.1-.1.2v14.2c0 .1 0 .1.1.1h2.4c.1 0 .1 0 .1-.1V11.7c0-.1 0-.2-.1-.2zm8.4 8.6v8.4c0 .2-.1.3-.2.3h-2.6c-.1 0-.2-.2-.2-.3V9l.2-.2h5.3c.2 0 .3.1.3.2v2.5c0 .1-.1.2-.3.2H689v5.5h2.5l.2.2v2.4c0 .2-.1.3-.2.3zm7.4 0v8.4c0 .2-.1.3-.2.3h-2.6c-.1 0-.2-.2-.2-.3V9l.2-.2h5.3l.3.2v2.5l-.3.2h-2.5v5.5h2.4c.2 0 .3.1.3.2v2.4a.3.3 0 0 1-.3.3zm4.6 8.7c-.2 0-.2-.2-.2-.3V9l.2-.2h5.3l.2.2v2.5l-.2.2h-2.5v5.5h2.5l.2.2v2.4c0 .2-.1.3-.2.3h-2.5v5.8h2.5a.2.2 0 0 1 .2.2v2.4c0 .2-.1.3-.2.3zm7.8 0a.3.3 0 0 1-.3-.3V9c0-.1.1-.2.3-.2h5.3a.2.2 0 0 1 .2.2v2.5a.2.2 0 0 1-.2.2h-2.5v5.5h2.5a.2.2 0 0 1 .2.2v2.4c0 .2-.1.3-.2.3h-2.5v5.8h2.5a.2.2 0 0 1 .2.2v2.4c0 .2-.1.3-.2.3z"/><path fill="#6b4019" d="M664.6 32.3h4.4v.9h-3.4V36h3.3v.9h-3.3v3h3.4v1h-4.4zm7.6 6.1l-1.4 2.5h-1l1.9-3.2-1.8-3.1h1l1.3 2.4 1.4-2.4h1l-1.8 3.1 1.9 3.2h-1zm3.5 4.8v-8.6h.9v.9a2 2 0 0 1 1.6-1c1.5 0 2.3 1.3 2.3 3.2s-.8 3.3-2.3 3.3a1.8 1.8 0 0 1-1.6-1v3.2zm2.3-7.9a1.8 1.8 0 0 0-1.4 1v2.9a1.8 1.8 0 0 0 1.4 1c1 0 1.5-1.1 1.5-2.5s-.5-2.4-1.5-2.4zm3.6 2.4c0-1.7.8-3.2 2.5-3.2s2.5 1.5 2.5 3.2-.8 3.3-2.5 3.3-2.5-1.5-2.5-3.3zm4.1 0c0-1.2-.5-2.4-1.6-2.4s-1.6 1.2-1.6 2.4.5 2.5 1.6 2.5 1.6-1.2 1.6-2.5zm5.1-5.4h1.1v8.6h-1.1zm6.2 4.1c0-.8-.4-1.1-1-1.1a2 2 0 0 0-1.5 1v4.6h-.9v-6.3h.9v.9a2.5 2.5 0 0 1 1.8-1c1.1 0 1.6.5 1.6 1.7v4.7h-.9zm4.9-1.9a2.2 2.2 0 0 1 1.8.8l-.5.6a1.7 1.7 0 0 0-1.2-.6c-1.1 0-1.7 1.1-1.7 2.4s.6 2.5 1.7 2.5a1.7 1.7 0 0 0 1.2-.6l.5.6a2.2 2.2 0 0 1-1.8.8c-1.6 0-2.6-1.4-2.6-3.3s1-3.2 2.6-3.2zm3.6 5.1a.7.7 0 0 1 0 1.4.7.7 0 1 1 0-1.4z"/><ellipse cx="649.4" cy="24" fill="#462600" rx="17" ry="8.9" transform="rotate(-72 649.57 23.912)"/><path fill="#6b4019" d="M654.5 8.2c-16.9 12.8-1.7 24.7-10.2 31.5 10.9-5.4.1-17.3 10.2-31.5z"/><g clip-path="url(#b)"><g fill="#231f20" clip-path="url(#c)"><path d="M673.9 64a4.2 4.2 0 0 1-.7-2.3 3.9 3.9 0 0 1 3.9-4h.1a3.9 3.9 0 0 1 3.9 4 5.8 5.8 0 0 1-.4 1.9l-.8-.7-1.8 2 4.8.6a7 7 0 0 0 1.1-3.7 6.6 6.6 0 0 0-6.8-6.7 6.7 6.7 0 0 0-6.9 6.7 4.9 4.9 0 0 0 .1 1.2l3.5 1m19.9 1.5l2.7-.3a9.8 9.8 0 0 0 .3-2.6v-7.3H694v7.4a3 3 0 0 1-1.4 2.9h1.2m7.9-1.2v-9.1h-2.9v9.6l2.9-.5m5.1-1.3V60l1.9 2.5 2.6-.9-4.7-6.3h-2.7v8.6l2.9-.8m-16.7 2.6c-1.1-.4-1.7-1.4-1.7-3.1v-7.3h-2.8v7.4a8.5 8.5 0 0 0 .5 3h4m13.8-.6v3.2h2.9v-3.7l-2.9.5m-5.1.7v2.5h2.9v-2.8l-2.9.3m-2.9.3c-3.2.3-6.4.3-9.4.3a5.4 5.4 0 0 0 4.7 2.1 5.1 5.1 0 0 0 4.8-2.4h-.1m-19.3-.5h-.1a46.5 46.5 0 0 1-5.6-1 6.6 6.6 0 0 0 6.2 3.9 7.1 7.1 0 0 0 3.9-1.1l2 1.8 1.9-2.1-1-.8a54.8 54.8 0 0 1-7.3-.7m36-2.3l-2.8.7 3.2 4.3h2.5v-5.8l-2.9.8m0-8V61l2.9-1.2v-4.5zm-83.4 3.9h3a3.8 3.8 0 0 1 2.8-1.4 4.9 4.9 0 0 1 3.4 1.3l1.8-2.1a7.1 7.1 0 0 0-5.1-1.8 6.5 6.5 0 0 0-6.3 4.2h.4m16.3 0a3.8 3.8 0 0 1 3.2-1.7 3.9 3.9 0 0 1 3.7 2.6l3.2.6a6.6 6.6 0 0 0-6.8-5.8 6.8 6.8 0 0 0-6.4 4.1l3.1.2m-22.5.4v-4.5h-2.8v4.8l2.8-.3m42.8 3.5l-6-8h-2.7v6l2.8.8V60l6.3 8.3h2.4v-4.2l-2.8-.8zm-8.7 5h2.8v-3.8a18.2 18.2 0 0 0-2.8-1.3zm8.7-13V61l2.8 1.3v-7zm-13.2 6.5a3.8 3.8 0 0 1-3.8 4.1 4 4 0 0 1-4-4.1 3.3 3.3 0 0 1 .3-1.5l-3-.3a5.5 5.5 0 0 0-.2 1.8 6.6 6.6 0 0 0 6.8 6.7 6.8 6.8 0 0 0 6.9-5.8l-3-.9M635 63.3h2.9v1.8a4.8 4.8 0 0 1-2.7.8 3.8 3.8 0 0 1-3.9-4.1 3.8 3.8 0 0 1 .4-1.9h-3.2a9.9 9.9 0 0 0-.2 1.7 6.5 6.5 0 0 0 6.8 6.7 7.9 7.9 0 0 0 5.5-2.1v-5.4H635zm-12-2.4l-2.8.5v6.9h8.1v-2.7H623zM606.7 66l-1 2.3h2.9l1.1-2.7h5.7l1 2.7h3l-2.5-6.1a52.9 52.9 0 0 0-10.2 3.8m4.5-4.2l1.3-3.2 1.1 2.7 2.6-.5-2.3-5.6h-2.7l-3.1 7.5 3.1-.9M664 74.2a3.8 3.8 0 0 1 3.9-3.9 3.7 3.7 0 0 1 2.9 1.2l-.8 1a3 3 0 0 0-2.1-1 2.5 2.5 0 0 0-2.5 2.7 2.5 2.5 0 0 0 2.5 2.7 2.8 2.8 0 0 0 2.1-1l.9.9a4.1 4.1 0 0 1-3.1 1.3 3.8 3.8 0 0 1-3.8-3.9m7.6 0a4 4 0 0 1 7.9 0 3.9 3.9 0 0 1-4 3.9 3.8 3.8 0 0 1-3.9-3.9m6.5 0a2.6 2.6 0 0 0-2.6-2.7 2.5 2.5 0 0 0-2.5 2.7 2.5 2.5 0 0 0 2.5 2.7 2.6 2.6 0 0 0 2.6-2.7m2.8-3.8h1.3v6.4h4V78h-5.3v-7.6zm6.6 0h1.4v6.4h3.9V78h-5.3v-7.6zm6.7 0h5.6v1.2h-4.3v2h3.8v1.2h-3.8v2h4.4V78h-5.7v-7.6zm6.8 3.8a3.8 3.8 0 0 1 3.9-3.9 4.4 4.4 0 0 1 2.9 1l-.8 1a3.1 3.1 0 0 0-2.2-.8 2.6 2.6 0 0 0-2.4 2.7 2.5 2.5 0 0 0 2.6 2.7 2.8 2.8 0 0 0 1.8-.6v-1.4h-1.9v-1.1h3.2v3.1a4.6 4.6 0 0 1-3.2 1.2 3.8 3.8 0 0 1-3.9-3.9m8.8-3.8h5.6v1.2h-4.3v2h3.8v1.2h-3.8v2h4.4V78h-5.7v-7.6z"/><path d="M673.9 64a4.2 4.2 0 0 1-.7-2.3 3.9 3.9 0 0 1 3.9-4h.1a3.9 3.9 0 0 1 3.9 4 5.8 5.8 0 0 1-.4 1.9l-.8-.7-1.8 2 4.8.6a7 7 0 0 0 1.1-3.7 6.6 6.6 0 0 0-6.8-6.7 6.7 6.7 0 0 0-6.9 6.7 4.9 4.9 0 0 0 .1 1.2l3.5 1m19.9 1.5l2.7-.3a9.8 9.8 0 0 0 .3-2.6v-7.3H694v7.4a3 3 0 0 1-1.4 2.9h1.2m7.9-1.2v-9.1h-2.9v9.6l2.9-.5m5.1-1.3V60l1.9 2.5 2.6-.9-4.7-6.3h-2.7v8.6l2.9-.8m-16.7 2.6c-1.1-.4-1.7-1.4-1.7-3.1v-7.3h-2.8v7.4a8.5 8.5 0 0 0 .5 3h4m13.8-.6v3.2h2.9v-3.7l-2.9.5m-5.1.7v2.5h2.9v-2.8l-2.9.3m-2.9.3c-3.2.3-6.4.3-9.4.3a5.4 5.4 0 0 0 4.7 2.1 5.1 5.1 0 0 0 4.8-2.4h-.1m-19.3-.5h-.1a46.5 46.5 0 0 1-5.6-1 6.6 6.6 0 0 0 6.2 3.9 7.1 7.1 0 0 0 3.9-1.1l2 1.8 1.9-2.1-1-.8a54.8 54.8 0 0 1-7.3-.7m36-2.3l-2.8.7 3.2 4.3h2.5v-5.8l-2.9.8m0-8V61l2.9-1.2v-4.5zm-83.4 3.9h3a3.8 3.8 0 0 1 2.8-1.4 4.9 4.9 0 0 1 3.4 1.3l1.8-2.1a7.1 7.1 0 0 0-5.1-1.8 6.5 6.5 0 0 0-6.3 4.2h.4m16.3 0a3.8 3.8 0 0 1 3.2-1.7 3.9 3.9 0 0 1 3.7 2.6l3.2.6a6.6 6.6 0 0 0-6.8-5.8 6.8 6.8 0 0 0-6.4 4.1l3.1.2m-22.5.4v-4.5h-2.8v4.8l2.8-.3m42.8 3.5l-6-8h-2.7v6l2.8.8V60l6.3 8.3h2.4v-4.2l-2.8-.8zm-8.7 5h2.8v-3.8a18.2 18.2 0 0 0-2.8-1.3zm8.7-13V61l2.8 1.3v-7zm-13.2 6.5a3.8 3.8 0 0 1-3.8 4.1 4 4 0 0 1-4-4.1 3.3 3.3 0 0 1 .3-1.5l-3-.3a5.5 5.5 0 0 0-.2 1.8 6.6 6.6 0 0 0 6.8 6.7 6.8 6.8 0 0 0 6.9-5.8l-3-.9M635 63.3h2.9v1.8a4.8 4.8 0 0 1-2.7.8 3.8 3.8 0 0 1-3.9-4.1 3.8 3.8 0 0 1 .4-1.9h-3.2a9.9 9.9 0 0 0-.2 1.7 6.5 6.5 0 0 0 6.8 6.7 7.9 7.9 0 0 0 5.5-2.1v-5.4H635zm-12-2.4l-2.8.5v6.9h8.1v-2.7H623zM606.7 66l-1 2.3h2.9l1.1-2.7h5.7l1 2.7h3l-2.5-6.1a52.9 52.9 0 0 0-10.2 3.8m4.5-4.2l1.3-3.2 1.1 2.7 2.6-.5-2.3-5.6h-2.7l-3.1 7.5 3.1-.9"/></g></g><path fill="#35240f" d="M421.1-18.9c13.7 5.8-6.9 28.8-.1 40.2-10.5-10.5 11.9-34.6.1-40.2" opacity=".5"/><path fill="#35240f" d="M429.2-12c13.7 5.8-10.3 23.9-1.9 36.9C414 11.2 441-6.4 429.2-12m-14.9 0c13.7 5.8-10.3 23.9-1.9 36.9C399.1 11.2 426-6.4 414.3-12" opacity=".5"/><path fill="url(#d)" d="M452.2 35.2h-9.5v-5.1c0-1.2-47.7-1.2-47.7 0l1 48.2c0 1.1 2.3 2 6.6 3.2 9 2.4 23.5 2.4 32.2 0 4.4-1.3 6.7-2.1 6.7-3.2l.3-12.8h10.3a3.1 3.1 0 0 0 3.1-3.1V38.3a3 3 0 0 0-3-3.1zm-1.3 9.5v13.5c0 1.7-.6 2.1-2.5 2.1h-6.3l.4-18.4h5.9c2.9 0 2.5.9 2.5 2.8z"/><path fill="#462600" d="M414.2 47.7h-1.4v7.5a.1.1 0 0 0 .1.1h1.3v-1.4a.1.1 0 0 1 .1-.1h1.4c.1 0 .1 0 .1.1v1.5c0 1-.3 1.5-1.5 1.5h-1.5c-1.2 0-1.6-.5-1.6-1.4v-7.8c0-1 .4-1.5 1.6-1.5h1.5c1.1 0 1.5.5 1.5 1.5v1.4a.1.1 0 0 1-.1.1h-1.5v-1.4zm2.5 7.8v-7.8c0-1 .4-1.5 1.6-1.5h1.5c1.1 0 1.5.5 1.5 1.5v7.7c0 1-.3 1.5-1.5 1.5h-1.5c-1.2 0-1.6-.5-1.6-1.4zm2.9-7.8h-1.3v7.5c0 .1 0 .1.1.1h1.2c.1 0 .1 0 .1-.1v-7.4zm4.5 4.5v4.5h-1.6V46.4a.1.1 0 0 1 .1-.1h2.9a.1.1 0 0 1 .1.1v1.3h-1.5v2.9h1.4v1.3c0 .1 0 .1-.1.1zm3.9 0v4.5h-1.6V46.4c0-.1.1-.1.2-.1h2.8a.1.1 0 0 1 .1.1v1.3H428v2.9h1.4v1.3c0 .1 0 .1-.1.1zm2.5 4.6h-.2V46.4c0-.1.1-.1.2-.1h2.8a.1.1 0 0 1 .1.1v1.3h-1.5v2.9h1.5v1.3a.1.1 0 0 1-.1.1h-1.4v3.1h1.5v1.3h-2.9zm4.1 0h-.2V46.4c0-.1.1-.1.2-.1h2.8a.1.1 0 0 1 .1.1v1.3H436v2.9h1.5v1.3a.1.1 0 0 1-.1.1H436v3.1h1.5v1.3h-2.9z"/><path fill="#6b4019" d="M411.2 58.7h2.3v.5h-1.8v1.5h1.8v.5h-1.8v1.6h1.8v.4h-2.3zm4 3.2l-.7 1.3h-.6l1-1.6-.9-1.7h.5l.7 1.3.7-1.3h.6l-1 1.7 1 1.6h-.5zm1.9 2.6v-4.6h.5v.5a.9.9 0 0 1 .8-.5c.8 0 1.2.7 1.2 1.7s-.4 1.7-1.2 1.7a1 1 0 0 1-.8-.5v1.7zm1.2-4.2a.8.8 0 0 0-.7.5v1.5a.9.9 0 0 0 .7.6c.5 0 .8-.6.8-1.3s-.3-1.3-.8-1.3zm1.9 1.3c0-.9.4-1.7 1.3-1.7a1.7 1.7 0 0 1 0 3.4c-.9 0-1.3-.8-1.3-1.7zm2.1 0c0-.7-.2-1.3-.8-1.3s-.8.6-.8 1.3.2 1.3.8 1.3.8-.6.8-1.3zm2.8-2.9h.5v4.5h-.5zm3.2 2.2c0-.4-.2-.6-.5-.6s-.6.3-.8.5v2.4h-.4v-3.3h.4v.5a1.2 1.2 0 0 1 1-.5c.6 0 .8.3.8.9v2.4h-.5zm2.6-1a1.1 1.1 0 0 1 1 .4l-.3.3-.6-.3c-.6 0-.9.6-.9 1.3s.3 1.3.9 1.3a.7.7 0 0 0 .6-.4l.3.4a1.3 1.3 0 0 1-1 .4c-.8 0-1.3-.7-1.3-1.7s.5-1.7 1.3-1.7zm1.9 2.7c.2 0 .4.1.4.3a.4.4 0 0 1-.4.4c-.2 0-.3-.2-.3-.4a.3.3 0 0 1 .3-.3z"/><ellipse cx="403.8" cy="52.3" fill="#462600" rx="6.7" ry="3.5" transform="rotate(-72 403.947 52.279)"/><path fill="#6b4019" d="M405.9 46.1c-6.7 5-.7 9.7-4.1 12.4 4.3-2.1.1-6.9 4.1-12.4z"/><path fill="#462600" d="M63.6 20.8c0-7.1 3.9-12.1 10.2-12.1s7.2 3.3 8.3 6.2l-4.6 2c-.6-1.9-1.9-3.2-3.7-3.2s-4.4 3-4.4 7.1 1.6 7.1 4.4 7.1 3.2-1.5 3.7-3.4l4.7 2c-1.1 2.9-3.4 6.4-8.4 6.4s-10.2-5-10.2-12.1zM93.7 8.7c6.3 0 10.2 5.1 10.2 12.1S100 32.9 93.7 32.9s-10.2-5-10.2-12.1S87.4 8.7 93.7 8.7zm0 5c-2.8 0-4.4 3.1-4.4 7.1s1.6 7.1 4.4 7.1 4.5-3.1 4.5-7.1-1.6-7.1-4.5-7.1zm13-4.6h14V14h-8.4v4.2h8.2v4.9h-8.2v9.4h-5.6zm16.9 0h14.1V14h-8.4v4.2h8.2v4.9h-8.2v9.4h-5.7zm17 0h14.1V14h-8.4v4.2h8.1v4.9h-8.1v4.5h8.4v4.9h-14.1zm17.2 0h14.1V14h-8.4v4.2h8.1v4.9h-8.1v4.5h8.4v4.9h-14.1z"/><path fill="#6b4019" d="M100.5 36.6h7.7v.7h-6.9v7h6.7v.7h-6.7v7.5h6.9v.7h-7.7zm15 8.9l-4.5 7.7h-1l5.1-8.5-4.8-8.1h1l4.2 7.3 4.2-7.3h1l-4.7 8.1 5 8.5h-1zm7.9-8.9h4.2c2.7 0 4.1 2.1 4.1 4.7s-1.4 4.7-4.1 4.7h-3.4v7.2h-.8zm4.1.7h-3.3v8h3.3c2.1 0 3.3-1.7 3.3-4s-1.2-4-3.3-4zm12.4-1c3.8 0 5.7 3.9 5.7 8.6s-1.9 8.6-5.7 8.6-5.8-3.9-5.8-8.6 2-8.6 5.8-8.6zm0 .7c-3.2 0-4.9 3.5-4.9 7.9s1.7 7.9 4.9 7.9 4.9-3.6 4.9-7.9-1.8-7.9-4.9-7.9z"/><path fill="#fff" d="M57.5 79.9a2.8 2.8 0 0 0 2 1 1.4 1.4 0 0 0 1.6-1.5c0-.9-.8-1.3-1.7-1.8s-2.2-1-2.2-2.5a2.3 2.3 0 0 1 2.5-2.3 3.2 3.2 0 0 1 2.3.9l-.6.8a2.3 2.3 0 0 0-1.8-.8 1.3 1.3 0 0 0-1.4 1.3c0 .9.8 1.2 1.7 1.6s2.2 1.2 2.2 2.8a2.3 2.3 0 0 1-2.6 2.4 3.3 3.3 0 0 1-2.6-1.1zm9.4-2.8c0-.8-.4-1.1-1-1.1a2 2 0 0 0-1.5 1v4.6h-.9V73h.9v3.2a2.6 2.6 0 0 1 1.9-1c1 0 1.5.5 1.5 1.7v4.7h-.9zm5.9 3.9a2.1 2.1 0 0 1-1.7.8 2.1 2.1 0 0 1 0-4.2 2.1 2.1 0 0 1 1.7.8v-1.1a1.2 1.2 0 0 0-1.3-1.3 1.9 1.9 0 0 0-1.6.8l-.4-.7a2.9 2.9 0 0 1 2.1-.9c1.3 0 2.1.6 2.1 2v4.4h-.9zm0-1.9a1.6 1.6 0 0 0-1.4-.8c-.8 0-1.2.6-1.2 1.4s.4 1.4 1.2 1.4a1.6 1.6 0 0 0 1.4-.8zm5.9-2.5l-1.4 5h-.9l-1.7-6.3h1l1.2 5.1 1.3-5.1h.9l1.4 5.1 1.2-5.1h1L81 81.6h-1zm7.6.7c0-2.6 1.3-4.5 3.3-4.5a2.9 2.9 0 0 1 2.6 1.7l-.9.4a1.9 1.9 0 0 0-1.7-1.2c-1.4 0-2.3 1.5-2.3 3.6s.9 3.6 2.3 3.6a1.9 1.9 0 0 0 1.7-1.3l.9.4a2.9 2.9 0 0 1-2.6 1.8c-2 0-3.3-1.9-3.3-4.5zm9.4-2.1c1.6 0 2.4 1.5 2.4 3.3v.3h-4c0 1.3.7 2.2 1.8 2.2a2.1 2.1 0 0 0 1.5-.8l.5.6a2.7 2.7 0 0 1-2.1 1c-1.7 0-2.7-1.4-2.7-3.3s1-3.3 2.6-3.3zm-1.6 2.9h3.1c0-1-.4-2.1-1.5-2.1s-1.6 1.2-1.6 2.1zm8.8-.9c0-.9-.4-1.2-1-1.2a2 2 0 0 0-1.5 1v4.6h-.9v-6.3h.9v.9a2.6 2.6 0 0 1 1.9-1c1 0 1.5.6 1.5 1.7v4.7h-.9zm2.8 3.2v-4.2h-.8v-.9h.8v-1.7h1v1.7h1v.9h-1v4c0 .5.1.8.5.8a.9.9 0 0 0 .5-.3l.3.7a1.3 1.3 0 0 1-1 .4c-.9 0-1.3-.5-1.3-1.4zm3.3-5.1h.9v1a2.2 2.2 0 0 1 1.8-1.1v1h-.3a1.9 1.9 0 0 0-1.5 1.1v4.4h-.9zm6-.1c1.6 0 2.5 1.5 2.5 3.3v.3h-4.1c0 1.3.7 2.2 1.8 2.2a1.9 1.9 0 0 0 1.5-.8l.5.6a2.7 2.7 0 0 1-2.1 1c-1.6 0-2.7-1.4-2.7-3.3s1-3.3 2.6-3.3zm-1.6 2.9h3.2c-.1-1-.5-2.1-1.6-2.1s-1.6 1.2-1.6 2.1zm8.2.3a.7.7 0 0 1 .7-.6c.3 0 .7.3.7.6a.8.8 0 0 1-.7.7.7.7 0 0 1-.7-.7zm5.5 1.8a1.7 1.7 0 0 0 1.3.7 1.3 1.3 0 0 0 1.4-1.5V73h1v6.4a2.2 2.2 0 0 1-2.3 2.4 2.3 2.3 0 0 1-1.8-.8zm8.9.6a2.6 2.6 0 0 1-1.9 1c-1 0-1.5-.6-1.5-1.7v-4.8h.9v4.5c0 .9.4 1.2 1 1.2a2 2 0 0 0 1.5-1v-4.7h.9v6.3h-.9zm2.6-7.8h.9v8.6h-.9zm2.9 10.3c.4 0 .6-.1.7-.6l.4-.9-2.1-6.5h1l1.5 5.2 1.6-5.2h1l-2.5 7.7a1.5 1.5 0 0 1-1.5 1.2h-.7l.2-.8zm7.7-2.5c2.8-3.3 3.8-4.3 3.8-5.6a1.5 1.5 0 0 0-1.4-1.5 2.2 2.2 0 0 0-1.8 1.1l-.7-.6a2.9 2.9 0 0 1 2.5-1.4 2.3 2.3 0 0 1 2.4 2.4c0 1.4-1 2.7-3.3 5.5h3.4v.9h-4.9zm7.8-6.5l-1.3 1.5-.7-.7 2.1-2.1h.9v8.6h-1zm2.7 8.6a1.8 1.8 0 0 0 .8-1.2h-.1a.7.7 0 0 1-.7-.6.7.7 0 0 1 .7-.7.8.8 0 0 1 .8.9 3 3 0 0 1-1 2zm5.7-2.1c2.8-3.3 3.8-4.3 3.8-5.6a1.4 1.4 0 0 0-1.4-1.5 2.2 2.2 0 0 0-1.8 1.1l-.7-.6a2.9 2.9 0 0 1 2.5-1.4 2.3 2.3 0 0 1 2.5 2.4c0 1.4-1.1 2.7-3.4 5.5h3.4v.9h-4.9zm9-8c2 0 2.7 2.4 2.7 4.5s-.7 4.5-2.7 4.5-2.7-2.4-2.7-4.5.7-4.5 2.7-4.5zm0 .9c-1.3 0-1.7 1.9-1.7 3.6s.4 3.6 1.7 3.6 1.7-1.9 1.7-3.6-.4-3.6-1.7-3.6zm5.5.6l-1.4 1.5-.6-.7L180 73h.9v8.6h-1zm3.3 5.7a1.5 1.5 0 0 0 1.5.8c1.4 0 1.8-1.8 1.8-3.4v-.3a2.3 2.3 0 0 1-1.9 1.3c-1.2 0-2.2-.9-2.2-2.8a2.6 2.6 0 0 1 2.5-2.8c2 0 2.7 2.2 2.7 4.5s-.8 4.5-2.9 4.5a2.7 2.7 0 0 1-2.1-1.1zm1.7-6.3c-1 0-1.5 1-1.5 1.9s.7 1.9 1.5 1.9a1.9 1.9 0 0 0 1.6-1.3c0-1-.4-2.5-1.6-2.5z"/><path fill="#6b4019" d="M101.5 56.4a4.6 4.6 0 0 1 0 9.1 4.6 4.6 0 0 1 0-9.1zm0 1.2a3.1 3.1 0 0 0-3.1 3.4 3.1 3.1 0 1 0 6.2 0 3.1 3.1 0 0 0-3.1-3.4zm7.9.1h-2.7v-1.2h6.8v1.2h-2.8v7.7h-1.3zm7.6 0h-2.7v-1.2h6.8v1.2h-2.7v7.7H117zm10.2 5.9h-4.3l-.8 1.8h-1.4l3.5-8.9h1.7l3.5 8.9h-1.5zm-4-1.2h3.6l-1.8-4.7zm11.6-3.9l-1.9 6.9h-1.4l-2.5-8.9h1.5l1.8 7.1 1.9-7.1h1.1l1.9 7.1 1.9-7.1h1.5l-2.6 8.9h-1.4zm11.9 5.1h-4.4l-.7 1.8h-1.4l3.5-8.9h1.6l3.6 8.9h-1.5zm-4-1.2h3.6l-1.8-4.7z"/></svg>