<svg xmlns="http://www.w3.org/2000/svg" width="5in" height="5in" viewBox="0 0 360 360"><defs><radialGradient id="a" cx="184.2" cy="167.14" r="136.51" gradientTransform="matrix(1 0 0 .09 0 152.9)" gradientUnits="userSpaceOnUse"><stop offset="0" stop-color="#b26928"/><stop offset=".31" stop-color="#b56c28"/><stop offset=".53" stop-color="#be7428"/><stop offset=".72" stop-color="#ce8228"/><stop offset=".9" stop-color="#e49627"/><stop offset=".95" stop-color="#eb9c27"/></radialGradient><linearGradient id="b" x1="232.66" x2="289.28" y1="145.97" y2="145.97" gradientUnits="userSpaceOnUse"><stop offset=".43" stop-color="#e3e3e3"/><stop offset="1" stop-color="#fff"/></linearGradient></defs><path fill="#eb9d28" d="M0 0h360v360H0z"/><ellipse cx="184.2" cy="167.1" fill="url(#a)" opacity=".5" rx="137.6" ry="12"/><ellipse cx="81.4" cy="157.8" fill="#462600" rx="3.2" ry="1.7" transform="rotate(-16.4 81.064 157.604)"/><path fill="#6b4019" d="M84.4 156.9c-3.8-1.3-4 2.3-5.9 1.7 1.9 1.1 2.7-1.8 5.9-1.7z"/><ellipse cx="105.4" cy="162.2" fill="#462600" rx="3.2" ry="1.7" transform="rotate(-16.4 105.252 161.798)"/><path fill="#6b4019" d="M108.4 161.3c-3.8-1.2-4 2.4-5.9 1.8 1.9 1.1 2.6-1.8 5.9-1.8z"/><ellipse cx="129.9" cy="155.6" fill="#462600" rx="3.2" ry="1.7" transform="rotate(-16.4 129.553 155.383)"/><path fill="#6b4019" d="M132.9 154.7c-3.7-1.3-4 2.3-5.9 1.7 2 1.1 2.7-1.8 5.9-1.7z"/><ellipse cx="132.9" cy="157.9" fill="#462600" rx="3.2" ry="1.7" transform="rotate(-16.4 132.772 157.618)"/><path fill="#6b4019" d="M135.8 157c-3.7-1.2-3.9 2.3-5.9 1.7 2 1.1 2.7-1.8 5.9-1.7z"/><ellipse cx="125.7" cy="162.2" fill="#462600" rx="3.2" ry="1.7" transform="rotate(-16.4 125.43 161.872)"/><path fill="#6b4019" d="M128.6 161.3c-3.7-1.2-3.9 2.4-5.9 1.8 2 1.1 2.7-1.8 5.9-1.8z"/><ellipse cx="111.8" cy="157.9" fill="#462600" rx="3.2" ry="1.7" transform="rotate(-16.4 111.504 157.74)"/><path fill="#6b4019" d="M114.7 157c-3.7-1.2-3.9 2.3-5.9 1.7 2 1.2 2.7-1.7 5.9-1.7z"/><ellipse cx="120.3" cy="154.4" fill="#462600" rx="3.2" ry="1.7" transform="rotate(-16.4 120.134 154.38)"/><path fill="#6b4019" d="M123.3 153.6c-3.8-1.3-4 2.3-5.9 1.7 1.9 1.1 2.6-1.8 5.9-1.7z"/><ellipse cx="90.9" cy="161.1" fill="#462600" rx="3.2" ry="1.7" transform="rotate(-46.1 90.799 161.042)"/><path fill="#6b4019" d="M93.1 158.9c-3.9.7-2.3 3.9-4.3 4.4 2.3 0 1.4-2.9 4.3-4.4z"/><ellipse cx="99.7" cy="157" fill="#462600" rx="3.2" ry="1.7" transform="rotate(-46.1 99.641 156.894)"/><path fill="#6b4019" d="M101.9 154.8c-3.9.8-2.3 4-4.3 4.4 2.3 0 1.4-2.9 4.3-4.4z"/><ellipse cx="105.4" cy="154.4" fill="#462600" rx="1.7" ry="3.2" transform="rotate(-55.7 105.314 154.42)"/><path fill="#6b4019" d="M102.9 152.7c1.4 3.7 4.3 1.6 5 3.5-.3-2.3-3-1-5-3.5z"/><ellipse cx="73.2" cy="158.2" fill="#462600" rx="1.7" ry="3.2" transform="rotate(-55.7 73.105 158.103)"/><path fill="#6b4019" d="M70.7 156.4c1.4 3.7 4.3 1.6 5 3.5-.3-2.2-3-.9-5-3.5z"/><ellipse cx="75.1" cy="160.7" fill="#462600" rx="1.7" ry="3.2" transform="rotate(-55.7 75.06 160.589)"/><path fill="#6b4019" d="M72.6 159c1.4 3.6 4.3 1.6 5.1 3.4-.4-2.2-3.1-.9-5.1-3.4z"/><ellipse cx="76.7" cy="158.4" fill="#462600" rx="1.7" ry="3.2" transform="rotate(-55.7 76.644 158.278)"/><path fill="#6b4019" d="M74.2 156.6c1.4 3.7 4.3 1.6 5.1 3.5-.4-2.2-3.1-.9-5.1-3.5z"/><ellipse cx="83" cy="162.2" fill="#462600" rx="1.7" ry="3.2" transform="rotate(-55.7 82.83 162.151)"/><path fill="#6b4019" d="M80.4 160.5c1.4 3.6 4.3 1.6 5.1 3.4-.4-2.2-3.1-.9-5.1-3.4z"/><ellipse cx="82.4" cy="158.4" fill="#462600" rx="3.2" ry="1.7" transform="rotate(-11.4 82.331 158.478)"/><path fill="#6b4019" d="M79.4 159c3.6 1.5 4.1-2 6-1.2-1.8-1.3-2.8 1.5-6 1.2z"/><ellipse cx="87.1" cy="157.9" fill="#462600" rx="1.7" ry="3.2" transform="rotate(-55.7 86.949 157.791)"/><path fill="#6b4019" d="M84.6 156.2c1.4 3.6 4.3 1.5 5 3.4-.4-2.2-3-.9-5-3.4z"/><ellipse cx="93.1" cy="156.6" fill="#462600" rx="1.7" ry="3.2" transform="rotate(-55.7 92.913 156.584)"/><path fill="#6b4019" d="M90.5 154.9c1.4 3.7 4.3 1.6 5.1 3.5-.4-2.3-3.1-1-5.1-3.5z"/><ellipse cx="94.2" cy="162.7" fill="#462600" rx="1.7" ry="3.2" transform="rotate(-56 93.36 161.913)"/><path fill="#6b4019" d="M91.7 161c1.4 3.7 4.3 1.6 5 3.5-.3-2.3-3-1-5-3.5z"/><ellipse cx="117.4" cy="161.9" fill="#462600" rx="1.7" ry="3.2" transform="rotate(-55.7 117.26 161.822)"/><path fill="#6b4019" d="M114.8 160.1c1.4 3.7 4.3 1.6 5.1 3.5-.4-2.2-3.1-.9-5.1-3.5z"/><ellipse cx="110.8" cy="159.3" fill="#462600" rx="1.7" ry="3.2" transform="rotate(-56 109.864 158.506)"/><path fill="#6b4019" d="M108.3 157.5c1.4 3.7 4.3 1.6 5 3.5-.4-2.2-3-.9-5-3.5z"/><ellipse cx="86.3" cy="161.1" fill="#462600" rx="1.7" ry="3.2" transform="rotate(-55.7 86.111 160.98)"/><path fill="#6b4019" d="M83.7 159.3c1.4 3.7 4.3 1.6 5.1 3.5-.4-2.2-3.1-.9-5.1-3.5z"/><ellipse cx="103.7" cy="160.3" fill="#462600" rx="1.7" ry="3.2" transform="rotate(-55.7 103.605 160.175)"/><path fill="#6b4019" d="M101.1 158.5c1.4 3.7 4.3 1.6 5.1 3.5-.4-2.2-3.1-1-5.1-3.5z"/><ellipse cx="122.2" cy="156.4" fill="#462600" rx="1.7" ry="3.2" transform="rotate(-55.7 121.98 156.327)"/><path fill="#6b4019" d="M119.6 154.7c1.4 3.6 4.3 1.5 5.1 3.4-.4-2.2-3.1-.9-5.1-3.4z"/><ellipse cx="134" cy="160.4" fill="#462600" rx="1.7" ry="3.2" transform="rotate(-55.7 133.813 160.279)"/><path fill="#6b4019" d="M131.4 158.7c1.4 3.6 4.3 1.6 5.1 3.4-.4-2.2-3.1-.9-5.1-3.4z"/><ellipse cx="139.3" cy="156.7" fill="#462600" rx="1.7" ry="3.2" transform="rotate(-55.7 139.113 156.663)"/><path fill="#6b4019" d="M136.7 155c1.4 3.7 4.3 1.6 5.1 3.5-.4-2.2-3.1-1-5.1-3.5z"/><ellipse cx="137.3" cy="161.5" fill="#462600" rx="1.7" ry="3.2" transform="rotate(-55.7 137.091 161.405)"/><path fill="#6b4019" d="M134.7 159.8c1.4 3.6 4.3 1.6 5.1 3.4-.4-2.2-3.1-.9-5.1-3.4z"/><ellipse cx="71.1" cy="161.1" fill="#462600" rx="3.2" ry="1.7" transform="rotate(-46.1 70.995 160.942)"/><path fill="#6b4019" d="M73.2 158.9c-3.8.7-2.3 3.9-4.2 4.4 2.2 0 1.4-2.9 4.2-4.4z"/><ellipse cx="89.9" cy="155.7" fill="#462600" rx="3.2" ry="1.7" transform="rotate(-46.1 89.778 155.611)"/><path fill="#6b4019" d="M92.1 153.5c-3.9.8-2.3 4-4.3 4.4 2.3 0 1.4-2.9 4.3-4.4z"/><ellipse cx="143" cy="158.1" fill="#462600" rx="3.2" ry="1.7" transform="rotate(-16.4 142.638 157.977)"/><path fill="#6b4019" d="M145.9 157.3c-3.7-1.3-3.9 2.3-5.8 1.7 1.9 1.1 2.6-1.8 5.8-1.7z"/><ellipse cx="141.6" cy="162.4" fill="#462600" rx="3.2" ry="1.7" transform="rotate(-16.4 141.344 162.04)"/><path fill="#6b4019" d="M144.6 161.6c-3.7-1.3-4 2.3-5.9 1.7 2 1.1 2.7-1.8 5.9-1.7z"/><ellipse cx="79.2" cy="161.1" fill="#462600" rx="3.2" ry="1.7" transform="rotate(-16.4 78.83 160.824)"/><path fill="#6b4019" d="M82.1 160.2c-3.7-1.2-3.9 2.3-5.9 1.8 2 1.1 2.7-1.8 5.9-1.8z"/><ellipse cx="96.1" cy="159.8" fill="#462600" rx="3.2" ry="1.7" transform="rotate(-16.4 96.034 159.407)"/><path fill="#6b4019" d="M99.1 158.9c-3.7-1.2-4 2.4-5.9 1.8 2 1.1 2.7-1.8 5.9-1.8z"/><ellipse cx="90.9" cy="158.4" fill="#462600" rx="3.2" ry="1.7" transform="rotate(-16.4 90.88 158.31)"/><path fill="#6b4019" d="M93.9 157.5c-3.7-1.2-4 2.3-5.9 1.7 2 1.1 2.7-1.8 5.9-1.7z"/><ellipse cx="88.2" cy="163.7" fill="#462600" rx="3.2" ry="1.7" transform="rotate(-16.3 88.96 164.78)"/><path fill="#6b4019" d="M91.2 162.9c-3.7-1.3-4 2.3-5.9 1.7 1.9 1.1 2.7-1.8 5.9-1.7z"/><ellipse cx="113.2" cy="162.8" fill="#462600" rx="3.2" ry="1.7" transform="rotate(-16.4 112.936 162.551)"/><path fill="#6b4019" d="M116.2 161.9c-3.8-1.2-4 2.3-5.9 1.8 1.9 1.1 2.6-1.8 5.9-1.8z"/><ellipse cx="65.4" cy="160.9" fill="#462600" rx="3.2" ry="1.7" transform="rotate(-16.4 65.047 160.609)"/><path fill="#6b4019" d="M68.3 160.1c-3.7-1.3-3.9 2.3-5.9 1.7 2 1.1 2.7-1.8 5.9-1.7z"/><ellipse cx="59" cy="162.6" fill="#462600" rx="2.8" ry="1.4" transform="rotate(-16.4 58.798 162.188)"/><path fill="#6b4019" d="M61.6 161.9c-3.2-1-3.5 1.9-5.2 1.5 1.7.9 2.4-1.6 5.2-1.5z"/><ellipse cx="68.9" cy="163.9" fill="#462600" rx="2.8" ry="1.4" transform="rotate(-16.4 68.86 163.638)"/><path fill="#6b4019" d="M71.5 163.2c-3.3-1-3.5 2-5.2 1.5 1.7.9 2.4-1.5 5.2-1.5z"/><ellipse cx="60.6" cy="166.1" fill="#462600" rx="2.3" ry="1.2" transform="rotate(-35.5 60.754 166.339)"/><path fill="#6b4019" d="M62.5 164.8c-2.9.1-2.2 2.6-3.7 2.7 1.6.2 1.4-1.9 3.7-2.7z"/><ellipse cx="69" cy="160.7" fill="#462600" rx="3.2" ry="1.7" transform="rotate(-16.4 68.964 160.465)"/><path fill="#6b4019" d="M71.9 159.8c-3.7-1.2-3.9 2.4-5.9 1.8 2 1.1 2.7-1.8 5.9-1.8z"/><ellipse cx="108.8" cy="155.7" fill="#462600" rx="1.5" ry="2.9" transform="rotate(-75 108.78 155.733)"/><path fill="#6b4019" d="M106.1 154.9c3.4-1 3.7 2.1 5.5 1.6-1.9.9-2.5-1.6-5.5-1.6z"/><ellipse cx="100.7" cy="160.8" fill="#462600" rx="1.5" ry="2.8" transform="rotate(-46.6 100.616 160.732)"/><path fill="#6b4019" d="M98.7 158.8c3.6.7 2.1 3.5 4 3.9-2.1 0-1.4-2.5-4-3.9z"/><ellipse cx="116.1" cy="155.7" fill="#462600" rx="2.9" ry="1.5" transform="rotate(-31.9 116.305 155.866)"/><path fill="#6b4019" d="M118.5 154.2c-1.3 3.2-4 1.4-4.7 3 .3-1.9 2.8-.8 4.7-3z"/><ellipse cx="124.9" cy="156.5" fill="#462600" rx="2.9" ry="1.5" transform="rotate(-31.9 125.152 156.691)"/><path fill="#6b4019" d="M127.3 155c-1.3 3.2-4 1.4-4.7 3 .4-2 2.8-.8 4.7-3z"/><ellipse cx="115.3" cy="158.6" fill="#462600" rx="2.9" ry="1.5" transform="rotate(-31.9 115.455 158.84)"/><path fill="#6b4019" d="M117.6 157.1c-1.2 3.2-3.9 1.4-4.6 3 .3-1.9 2.8-.8 4.6-3z"/><ellipse cx="121" cy="159.3" fill="#462600" rx="2.9" ry="1.5" transform="rotate(-31.9 121.128 159.515)"/><path fill="#6b4019" d="M123.3 157.8c-1.3 3.2-4 1.4-4.7 3 .4-2 2.9-.8 4.7-3z"/><ellipse cx="108" cy="161.8" fill="#462600" rx="2.9" ry="1.5" transform="rotate(-31.9 108.157 161.863)"/><path fill="#6b4019" d="M110.4 160.3c-1.3 3.2-4 1.3-4.7 3 .4-2 2.8-.8 4.7-3z"/><ellipse cx="104.2" cy="158" fill="#462600" rx="2.9" ry="1.5" transform="rotate(-31.9 104.483 158.164)"/><path fill="#6b4019" d="M106.6 156.5c-1.3 3.2-4 1.4-4.7 3 .4-1.9 2.8-.8 4.7-3z"/><ellipse cx="96.7" cy="156.9" fill="#462600" rx="2.9" ry="1.5" transform="rotate(-31.9 96.835 157.114)"/><path fill="#6b4019" d="M99.1 155.4c-1.3 3.2-4 1.4-4.7 3 .4-1.9 2.8-.8 4.7-3z"/><ellipse cx="97.7" cy="162.2" fill="#462600" rx="2.9" ry="1.5" transform="rotate(-31.9 97.81 162.312)"/><path fill="#6b4019" d="M100 160.7c-1.3 3.2-3.9 1.4-4.7 3 .4-1.9 2.9-.8 4.7-3z"/><ellipse cx="119" cy="160.8" fill="#462600" rx="1.5" ry="2.8" transform="rotate(-46.6 118.907 160.765)"/><path fill="#6b4019" d="M117 158.8c3.6.7 2.1 3.5 4 3.9-2.1 0-1.4-2.5-4-3.9z"/><ellipse cx="121" cy="158.2" fill="#462600" rx="1.5" ry="2.8" transform="rotate(-46.6 120.97 158.212)"/><path fill="#6b4019" d="M119 156.3c3.5.6 2.1 3.4 3.9 3.8-2.1 0-1.3-2.5-3.9-3.8z"/><ellipse cx="121.1" cy="162.8" fill="#462600" rx="1.5" ry="2.8" transform="rotate(-46.6 121.061 162.793)"/><path fill="#6b4019" d="M119.2 160.9c3.5.6 2.1 3.4 3.9 3.8-2.1 0-1.3-2.5-3.9-3.8z"/><ellipse cx="100.7" cy="155" fill="#462600" rx="1.5" ry="2.8" transform="rotate(-46.6 100.626 154.956)"/><path fill="#6b4019" d="M98.7 153c3.6.7 2.1 3.5 4 3.9-2.1 0-1.4-2.5-4-3.9z"/><ellipse cx="111.6" cy="160.8" fill="#462600" rx="1.5" ry="2.9" transform="rotate(-75 111.5 160.822)"/><path fill="#6b4019" d="M108.8 160c3.5-1.1 3.7 2.1 5.5 1.5-1.8 1-2.5-1.5-5.5-1.5z"/><ellipse cx="106.6" cy="158.7" fill="#462600" rx="1.5" ry="2.9" transform="rotate(-75 106.53 158.665)"/><path fill="#6b4019" d="M103.9 157.9c3.4-1.1 3.6 2 5.4 1.5-1.8 1-2.5-1.6-5.4-1.5z"/><ellipse cx="119" cy="155.7" fill="#462600" rx="1.5" ry="2.9" transform="rotate(-75 118.966 155.68)"/><path fill="#6b4019" d="M116.3 155c3.4-1.1 3.6 2 5.4 1.5-1.8.9-2.4-1.6-5.4-1.5z"/><ellipse cx="128.7" cy="159.2" fill="#462600" rx="1.5" ry="2.9" transform="rotate(-75 128.12 158.528)"/><path fill="#6b4019" d="M126 158.5c3.4-1.1 3.6 2 5.4 1.5-1.8.9-2.4-1.6-5.4-1.5z"/><ellipse cx="131" cy="162.4" fill="#462600" rx="1.5" ry="2.9" transform="rotate(-75 130.983 162.416)"/><path fill="#6b4019" d="M128.3 161.7c3.4-1.1 3.6 2 5.4 1.5-1.8 1-2.5-1.6-5.4-1.5z"/><ellipse cx="122.5" cy="160.5" fill="#462600" rx="1.5" ry="2.9" transform="rotate(-75 122.478 160.549)"/><path fill="#6b4019" d="M119.8 159.8c3.5-1.1 3.7 2 5.5 1.5-1.9 1-2.5-1.6-5.5-1.5z"/><ellipse cx="168.5" cy="160.9" fill="#462600" rx="3.2" ry="1.7" transform="rotate(-16.4 168.117 160.586)"/><path fill="#6b4019" d="M171.4 160c-3.7-1.2-3.9 2.3-5.9 1.7 2 1.1 2.7-1.8 5.9-1.7z"/><ellipse cx="192.5" cy="165.3" fill="#462600" rx="3.2" ry="1.7" transform="rotate(-16.4 192.255 165.127)"/><path fill="#6b4019" d="M195.4 164.5c-3.7-1.3-3.9 2.3-5.9 1.7 2 1.1 2.7-1.8 5.9-1.7z"/><ellipse cx="217" cy="158.7" fill="#462600" rx="3.2" ry="1.7" transform="rotate(-16.4 216.606 158.364)"/><path fill="#6b4019" d="M219.9 157.8c-3.7-1.2-3.9 2.3-5.9 1.7 2 1.1 2.7-1.8 5.9-1.7z"/><ellipse cx="219.9" cy="161" fill="#462600" rx="3.2" ry="1.7" transform="rotate(-16.4 219.429 160.896)"/><path fill="#6b4019" d="M222.9 160.1c-3.7-1.2-4 2.3-5.9 1.7 2 1.2 2.7-1.7 5.9-1.7z"/><ellipse cx="212.7" cy="165.3" fill="#462600" rx="3.2" ry="1.7" transform="rotate(-16.4 212.433 165.2)"/><path fill="#6b4019" d="M215.7 164.5c-3.7-1.3-4 2.3-5.9 1.7 1.9 1.1 2.7-1.8 5.9-1.7z"/><ellipse cx="198.8" cy="161" fill="#462600" rx="3.2" ry="1.7" transform="rotate(-16.4 198.557 160.722)"/><path fill="#6b4019" d="M201.8 160.1c-3.7-1.2-4 2.3-5.9 1.8 1.9 1.1 2.7-1.8 5.9-1.8z"/><ellipse cx="207.4" cy="157.6" fill="#462600" rx="3.2" ry="1.7" transform="rotate(-16.3 208.905 158.415)"/><path fill="#6b4019" d="M210.3 156.7c-3.7-1.3-3.9 2.3-5.9 1.7 2 1.1 2.7-1.8 5.9-1.7z"/><ellipse cx="178" cy="164.2" fill="#462600" rx="3.2" ry="1.7" transform="rotate(-46.1 177.783 164.052)"/><path fill="#6b4019" d="M180.1 162c-3.8.7-2.3 3.9-4.2 4.4 2.2 0 1.4-2.9 4.2-4.4z"/><ellipse cx="186.8" cy="160.1" fill="#462600" rx="3.2" ry="1.7" transform="rotate(-46.1 186.576 160.022)"/><path fill="#6b4019" d="M188.9 157.9c-3.8.8-2.3 4-4.2 4.4 2.2 0 1.4-2.9 4.2-4.4z"/><ellipse cx="192.5" cy="157.5" fill="#462600" rx="1.7" ry="3.2" transform="rotate(-55.7 192.285 157.52)"/><path fill="#6b4019" d="M189.9 155.8c1.4 3.7 4.3 1.6 5.1 3.5-.4-2.3-3.1-1-5.1-3.5z"/><ellipse cx="160.3" cy="161.3" fill="#462600" rx="1.7" ry="3.2" transform="rotate(-55.7 160.077 161.203)"/><path fill="#6b4019" d="M157.7 159.6c1.4 3.6 4.3 1.5 5.1 3.4-.4-2.2-3.1-.9-5.1-3.4z"/><ellipse cx="162.2" cy="163.8" fill="#462600" rx="1.7" ry="3.2" transform="rotate(-55.7 161.982 163.783)"/><path fill="#6b4019" d="M159.7 162.1c1.3 3.7 4.3 1.6 5 3.4-.4-2.2-3.1-.9-5-3.4z"/><ellipse cx="163.8" cy="161.5" fill="#462600" rx="1.7" ry="3.2" transform="rotate(-55.7 163.616 161.378)"/><path fill="#6b4019" d="M161.3 159.7c1.3 3.7 4.3 1.6 5 3.5-.4-2.2-3.1-.9-5-3.5z"/><ellipse cx="170" cy="165.3" fill="#462600" rx="1.7" ry="3.2" transform="rotate(-55.7 169.895 165.301)"/><path fill="#6b4019" d="M167.5 163.6c1.4 3.7 4.3 1.6 5.1 3.4-.4-2.2-3.1-.9-5.1-3.4z"/><ellipse cx="169.5" cy="161.5" fill="#462600" rx="3.2" ry="1.7" transform="rotate(-11.4 169.543 161.618)"/><path fill="#6b4019" d="M166.5 162.1c3.6 1.5 4.1-2 6-1.2-1.9-1.3-2.8 1.5-6 1.2z"/><ellipse cx="174.2" cy="161" fill="#462600" rx="1.7" ry="3.2" transform="rotate(-55.7 174.015 160.94)"/><path fill="#6b4019" d="M171.6 159.3c1.4 3.6 4.3 1.6 5.1 3.4-.4-2.2-3.1-.9-5.1-3.4z"/><ellipse cx="180.1" cy="159.8" fill="#462600" rx="1.7" ry="3.2" transform="rotate(-55.7 179.979 159.734)"/><path fill="#6b4019" d="M177.6 158c1.4 3.7 4.3 1.6 5.1 3.5-.4-2.2-3.1-.9-5.1-3.5z"/><ellipse cx="181.3" cy="165.8" fill="#462600" rx="1.7" ry="3.2" transform="rotate(-55.7 181.136 165.793)"/><path fill="#6b4019" d="M178.7 164.1c1.4 3.7 4.3 1.6 5.1 3.5-.4-2.2-3.1-1-5.1-3.5z"/><ellipse cx="204.4" cy="165" fill="#462600" rx="1.7" ry="3.2" transform="rotate(-55.7 204.232 164.922)"/><path fill="#6b4019" d="M201.9 163.2c1.4 3.7 4.3 1.6 5.1 3.5-.4-2.2-3.1-.9-5.1-3.5z"/><ellipse cx="197.9" cy="162.4" fill="#462600" rx="1.7" ry="3.2" transform="rotate(-55.7 197.73 162.335)"/><path fill="#6b4019" d="M195.3 160.7c1.4 3.6 4.3 1.5 5.1 3.4-.4-2.2-3.1-.9-5.1-3.4z"/><ellipse cx="173.3" cy="164.2" fill="#462600" rx="1.7" ry="3.2" transform="rotate(-55.7 173.177 164.13)"/><path fill="#6b4019" d="M170.8 162.4c1.4 3.7 4.3 1.6 5 3.5-.3-2.2-3-.9-5-3.5z"/><ellipse cx="190.7" cy="163.4" fill="#462600" rx="1.7" ry="3.2" transform="rotate(-55.7 190.576 163.275)"/><path fill="#6b4019" d="M188.2 161.6c1.4 3.7 4.3 1.6 5.1 3.5-.4-2.2-3.1-.9-5.1-3.5z"/><ellipse cx="209.2" cy="159.5" fill="#462600" rx="1.7" ry="3.2" transform="rotate(-55.7 209.046 159.476)"/><path fill="#6b4019" d="M206.7 157.8c1.4 3.6 4.3 1.6 5 3.4-.3-2.2-3-.9-5-3.4z"/><ellipse cx="221" cy="163.5" fill="#462600" rx="1.7" ry="3.2" transform="rotate(-55.7 220.829 163.523)"/><path fill="#6b4019" d="M218.5 161.8c1.4 3.6 4.3 1.6 5 3.4-.3-2.2-3-.9-5-3.4z"/><ellipse cx="226.3" cy="159.9" fill="#462600" rx="1.7" ry="3.2" transform="rotate(-55.7 226.084 159.763)"/><path fill="#6b4019" d="M223.8 158.1c1.4 3.7 4.3 1.6 5 3.5-.3-2.2-3-.9-5-3.5z"/><ellipse cx="224.3" cy="164.6" fill="#462600" rx="1.7" ry="3.2" transform="rotate(-55.7 224.157 164.555)"/><path fill="#6b4019" d="M221.8 162.9c1.4 3.6 4.3 1.6 5 3.4-.3-2.2-3-.9-5-3.4z"/><ellipse cx="158.1" cy="164.2" fill="#462600" rx="3.2" ry="1.7" transform="rotate(-46.1 157.93 164.07)"/><path fill="#6b4019" d="M160.3 162c-3.9.7-2.3 3.9-4.3 4.4 2.3 0 1.4-2.9 4.3-4.4z"/><ellipse cx="177" cy="158.8" fill="#462600" rx="3.2" ry="1.7" transform="rotate(-46.1 176.83 158.79)"/><path fill="#6b4019" d="M179.1 156.6c-3.8.8-2.3 4-4.2 4.4 2.2 0 1.4-2.8 4.2-4.4z"/><ellipse cx="230" cy="161.3" fill="#462600" rx="3.2" ry="1.7" transform="rotate(-16.4 229.69 160.958)"/><path fill="#6b4019" d="M233 160.4c-3.7-1.3-3.9 2.3-5.9 1.7 2 1.1 2.7-1.8 5.9-1.7z"/><ellipse cx="228.7" cy="165.5" fill="#462600" rx="3.2" ry="1.7" transform="rotate(-16.4 228.347 165.369)"/><path fill="#6b4019" d="M231.6 164.7c-3.7-1.3-3.9 2.3-5.9 1.7 2 1.1 2.7-1.8 5.9-1.7z"/><ellipse cx="166.2" cy="164.2" fill="#462600" rx="3.2" ry="1.7" transform="rotate(-16.4 165.882 163.806)"/><path fill="#6b4019" d="M169.2 163.3c-3.8-1.2-4 2.4-5.9 1.8 1.9 1.1 2.6-1.8 5.9-1.8z"/><ellipse cx="183.2" cy="162.9" fill="#462600" rx="3.2" ry="1.7" transform="rotate(-16.4 182.69 162.686)"/><path fill="#6b4019" d="M186.1 162c-3.7-1.2-3.9 2.4-5.8 1.8 1.9 1.1 2.6-1.8 5.8-1.8z"/><ellipse cx="178" cy="161.5" fill="#462600" rx="3.2" ry="1.7" transform="rotate(-16.4 177.585 161.242)"/><path fill="#6b4019" d="M180.9 160.6c-3.7-1.2-3.9 2.3-5.8 1.7 1.9 1.2 2.6-1.7 5.8-1.7z"/><ellipse cx="175.3" cy="166.9" fill="#462600" rx="3.2" ry="1.7" transform="rotate(-16.4 175.05 166.543)"/><path fill="#6b4019" d="M178.2 166c-3.7-1.3-3.9 2.3-5.9 1.7 2 1.1 2.7-1.8 5.9-1.7z"/><ellipse cx="200.3" cy="165.9" fill="#462600" rx="3.2" ry="1.7" transform="rotate(-16.4 199.989 165.533)"/><path fill="#6b4019" d="M203.2 165c-3.7-1.2-3.9 2.4-5.9 1.8 2 1.1 2.7-1.8 5.9-1.8z"/><ellipse cx="152.4" cy="164" fill="#462600" rx="3.2" ry="1.7" transform="rotate(-16.4 152.05 163.937)"/><path fill="#6b4019" d="M155.4 163.2c-3.7-1.3-4 2.3-5.9 1.7 2 1.1 2.7-1.8 5.9-1.7z"/><ellipse cx="146.1" cy="165.7" fill="#462600" rx="2.8" ry="1.4" transform="rotate(-16.4 145.801 165.516)"/><path fill="#6b4019" d="M148.7 165c-3.3-1-3.5 1.9-5.2 1.5 1.7.9 2.4-1.5 5.2-1.5z"/><ellipse cx="155.9" cy="167" fill="#462600" rx="2.8" ry="1.4" transform="rotate(-16.4 155.517 166.916)"/><path fill="#6b4019" d="M158.5 166.3c-3.2-1-3.4 2-5.1 1.5 1.7.9 2.3-1.5 5.1-1.5z"/><ellipse cx="147.7" cy="169.2" fill="#462600" rx="2.3" ry="1.2" transform="rotate(-35.5 147.929 169.446)"/><path fill="#6b4019" d="M149.5 167.9c-2.8.1-2.2 2.6-3.6 2.7 1.6.2 1.4-1.9 3.6-2.7z"/><ellipse cx="156" cy="163.8" fill="#462600" rx="3.2" ry="1.7" transform="rotate(-16.4 155.62 163.743)"/><path fill="#6b4019" d="M159 163c-3.8-1.3-4 2.3-5.9 1.7 1.9 1.1 2.7-1.8 5.9-1.7z"/><ellipse cx="195.9" cy="158.8" fill="#462600" rx="1.5" ry="2.9" transform="rotate(-75 195.83 158.858)"/><path fill="#6b4019" d="M193.2 158.1c3.4-1.1 3.6 2 5.4 1.5-1.8.9-2.5-1.6-5.4-1.5z"/><ellipse cx="187.8" cy="163.9" fill="#462600" rx="1.5" ry="2.8" transform="rotate(-46.6 187.767 163.858)"/><path fill="#6b4019" d="M185.8 162c3.5.6 2.1 3.4 3.9 3.8-2.1 0-1.3-2.5-3.9-3.8z"/><ellipse cx="203.2" cy="158.8" fill="#462600" rx="2.9" ry="1.5" transform="rotate(-31.9 203.405 158.997)"/><path fill="#6b4019" d="M205.5 157.3c-1.3 3.2-3.9 1.4-4.6 3 .3-1.9 2.8-.8 4.6-3z"/><ellipse cx="212" cy="159.6" fill="#462600" rx="2.9" ry="1.5" transform="rotate(-31.9 212.302 159.647)"/><path fill="#6b4019" d="M214.3 158.1c-1.2 3.2-3.9 1.4-4.6 3 .3-1.9 2.8-.8 4.6-3z"/><ellipse cx="202.4" cy="161.7" fill="#462600" rx="2.9" ry="1.5" transform="rotate(-31.9 202.605 161.796)"/><path fill="#6b4019" d="M204.7 160.2c-1.3 3.2-4 1.4-4.7 3 .4-1.9 2.9-.8 4.7-3z"/><ellipse cx="208" cy="162.4" fill="#462600" rx="2.9" ry="1.5" transform="rotate(-31.9 208.278 162.471)"/><path fill="#6b4019" d="M210.4 160.9c-1.3 3.2-4 1.4-4.7 3 .3-1.9 2.8-.8 4.7-3z"/><ellipse cx="195.1" cy="164.9" fill="#462600" rx="2.9" ry="1.5" transform="rotate(-31.9 195.432 165.044)"/><path fill="#6b4019" d="M197.4 163.4c-1.2 3.2-3.9 1.4-4.6 3 .3-2 2.8-.8 4.6-3z"/><ellipse cx="191.3" cy="161.1" fill="#462600" rx="2.9" ry="1.5" transform="rotate(-31.9 191.583 161.295)"/><path fill="#6b4019" d="M193.6 159.6c-1.2 3.2-3.9 1.4-4.6 3 .3-1.9 2.8-.8 4.6-3z"/><ellipse cx="183.8" cy="160" fill="#462600" rx="2.9" ry="1.5" transform="rotate(-31.9 184.16 160.12)"/><path fill="#6b4019" d="M186.1 158.5c-1.2 3.2-3.9 1.4-4.6 3 .3-1.9 2.8-.8 4.6-3z"/><ellipse cx="184.7" cy="165.3" fill="#462600" rx="2.9" ry="1.5" transform="rotate(-31.9 185.085 165.493)"/><path fill="#6b4019" d="M187.1 163.8c-1.3 3.2-4 1.4-4.7 3.1.4-2 2.8-.9 4.7-3.1z"/><ellipse cx="206.1" cy="163.9" fill="#462600" rx="1.5" ry="2.8" transform="rotate(-46.6 206.058 163.89)"/><path fill="#6b4019" d="M204.1 162c3.5.6 2.1 3.4 3.9 3.8-2.1 0-1.3-2.5-3.9-3.8z"/><ellipse cx="208" cy="161.3" fill="#462600" rx="1.5" ry="2.8" transform="rotate(-46.6 208.005 161.287)"/><path fill="#6b4019" d="M206.1 159.4c3.5.6 2.1 3.4 3.9 3.8-2.1 0-1.3-2.5-3.9-3.8z"/><ellipse cx="208.2" cy="165.9" fill="#462600" rx="1.5" ry="2.8" transform="rotate(-46.6 208.096 165.869)"/><path fill="#6b4019" d="M206.2 164c3.6.6 2.1 3.4 4 3.8-2.1 0-1.4-2.5-4-3.8z"/><ellipse cx="187.8" cy="158.1" fill="#462600" rx="1.5" ry="2.8" transform="rotate(-46.6 187.661 158.031)"/><path fill="#6b4019" d="M185.8 156.1c3.5.7 2.1 3.5 3.9 3.9-2.1 0-1.3-2.5-3.9-3.9z"/><ellipse cx="198.6" cy="163.9" fill="#462600" rx="1.5" ry="2.9" transform="rotate(-75 198.55 163.948)"/><path fill="#6b4019" d="M195.9 163.1c3.4-1 3.6 2.1 5.4 1.6-1.8.9-2.4-1.6-5.4-1.6z"/><ellipse cx="193.6" cy="161.8" fill="#462600" rx="1.5" ry="2.9" transform="rotate(-75 193.515 161.74)"/><path fill="#6b4019" d="M190.9 161c3.4-1.1 3.7 2 5.4 1.5-1.8 1-2.4-1.5-5.4-1.5z"/><ellipse cx="206.1" cy="158.8" fill="#462600" rx="1.5" ry="2.9" transform="rotate(-75 206.016 158.806)"/><path fill="#6b4019" d="M203.4 158.1c3.4-1.1 3.6 2 5.4 1.5-1.8 1-2.5-1.6-5.4-1.5z"/><ellipse cx="215.8" cy="162.3" fill="#462600" rx="1.5" ry="2.9" transform="rotate(-75 215.67 162.28)"/><path fill="#6b4019" d="M213.1 161.6c3.4-1.1 3.6 2 5.4 1.5-1.8.9-2.5-1.6-5.4-1.5z"/><ellipse cx="218.1" cy="165.5" fill="#462600" rx="1.5" ry="2.9" transform="rotate(-75 217.967 165.492)"/><path fill="#6b4019" d="M215.3 164.8c3.5-1.1 3.7 2 5.5 1.5-1.8 1-2.5-1.6-5.5-1.5z"/><ellipse cx="209.6" cy="163.6" fill="#462600" rx="1.5" ry="2.9" transform="rotate(-75 209.527 163.675)"/><path fill="#6b4019" d="M206.9 162.9c3.4-1.1 3.6 2 5.4 1.5-1.8 1-2.5-1.6-5.4-1.5z"/><ellipse cx="287.7" cy="161.3" fill="#462600" rx="1.7" ry="3.2" transform="rotate(-73.6 287.882 161.262)"/><path fill="#6b4019" d="M284.8 160.4c3.7-1.2 3.9 2.3 5.9 1.8-2 1.1-2.7-1.8-5.9-1.8z"/><ellipse cx="263.7" cy="165.7" fill="#462600" rx="1.7" ry="3.2" transform="rotate(-73.6 263.898 165.732)"/><path fill="#6b4019" d="M260.8 164.9c3.7-1.3 3.9 2.3 5.9 1.7-2 1.1-2.7-1.8-5.9-1.7z"/><ellipse cx="239.2" cy="159.1" fill="#462600" rx="1.7" ry="3.2" transform="rotate(-73.6 239.383 159.067)"/><path fill="#6b4019" d="M236.3 158.2c3.7-1.2 3.9 2.3 5.9 1.7-2 1.2-2.7-1.7-5.9-1.7z"/><ellipse cx="236.3" cy="161.4" fill="#462600" rx="1.7" ry="3.2" transform="rotate(-73.7 235.798 161.422)"/><path fill="#6b4019" d="M233.3 160.5c3.7-1.2 4 2.4 5.9 1.8-2 1.1-2.7-1.8-5.9-1.8z"/><ellipse cx="243.5" cy="165.7" fill="#462600" rx="1.7" ry="3.2" transform="rotate(-73.6 243.565 165.74)"/><path fill="#6b4019" d="M240.5 164.9c3.7-1.3 4 2.3 5.9 1.7-1.9 1.1-2.7-1.8-5.9-1.7z"/><ellipse cx="257.4" cy="161.4" fill="#462600" rx="1.7" ry="3.2" transform="rotate(-73.6 257.55 161.4)"/><path fill="#6b4019" d="M254.4 160.5c3.7-1.2 4 2.4 5.9 1.8-1.9 1.1-2.7-1.8-5.9-1.8z"/><ellipse cx="248.8" cy="158" fill="#462600" rx="1.7" ry="3.2" transform="rotate(-73.6 248.948 157.987)"/><path fill="#6b4019" d="M245.9 157.1c3.7-1.2 3.9 2.3 5.9 1.7-2 1.1-2.7-1.8-5.9-1.7z"/><ellipse cx="278.2" cy="164.6" fill="#462600" rx="1.7" ry="3.2" transform="rotate(-43.9 278.492 164.586)"/><path fill="#6b4019" d="M276.1 162.4c3.8.8 2.3 4 4.2 4.4-2.2 0-1.4-2.9-4.2-4.4z"/><ellipse cx="269.4" cy="160.5" fill="#462600" rx="1.7" ry="3.2" transform="rotate(-43.9 269.709 160.614)"/><path fill="#6b4019" d="M267.3 158.3c3.8.8 2.3 4 4.2 4.4-2.2 0-1.4-2.8-4.2-4.4z"/><ellipse cx="263.7" cy="158" fill="#462600" rx="3.2" ry="1.7" transform="rotate(-34.3 264.099 157.982)"/><path fill="#6b4019" d="M266.3 156.2c-1.4 3.7-4.3 1.6-5.1 3.5.4-2.2 3.1-.9 5.1-3.5z"/><ellipse cx="295.9" cy="161.7" fill="#462600" rx="3.2" ry="1.7" transform="rotate(-34.3 296.31 161.712)"/><path fill="#6b4019" d="M298.5 160c-1.4 3.6-4.3 1.6-5.1 3.4.4-2.2 3.1-.9 5.1-3.4z"/><ellipse cx="294" cy="164.2" fill="#462600" rx="3.2" ry="1.7" transform="rotate(-34.3 294.437 164.328)"/><path fill="#6b4019" d="M296.5 162.5c-1.3 3.7-4.3 1.6-5 3.5.4-2.3 3.1-1 5-3.5z"/><ellipse cx="292.4" cy="161.9" fill="#462600" rx="3.2" ry="1.7" transform="rotate(-34.3 292.831 162.058)"/><path fill="#6b4019" d="M294.9 160.2c-1.3 3.6-4.3 1.5-5 3.4.4-2.2 3.1-.9 5-3.4z"/><ellipse cx="286.2" cy="165.7" fill="#462600" rx="3.2" ry="1.7" transform="rotate(-34.3 286.532 165.793)"/><path fill="#6b4019" d="M288.7 164c-1.4 3.7-4.3 1.6-5.1 3.5.4-2.3 3.1-1 5.1-3.5z"/><ellipse cx="286.7" cy="161.9" fill="#462600" rx="1.7" ry="3.2" transform="rotate(-78.6 286.66 161.894)"/><path fill="#6b4019" d="M289.7 162.5c-3.6 1.6-4.1-2-6-1.2 1.9-1.3 2.8 1.5 6 1.2z"/><ellipse cx="282" cy="161.4" fill="#462600" rx="3.2" ry="1.7" transform="rotate(-34.3 282.36 161.488)"/><path fill="#6b4019" d="M284.6 159.7c-1.4 3.6-4.3 1.6-5.1 3.4.4-2.2 3.1-.9 5.1-3.4z"/><ellipse cx="276.1" cy="160.2" fill="#462600" rx="3.2" ry="1.7" transform="rotate(-34.3 276.377 160.174)"/><path fill="#6b4019" d="M278.6 158.4c-1.4 3.7-4.3 1.6-5.1 3.5.4-2.2 3.1-.9 5.1-3.5z"/><ellipse cx="274.9" cy="166.3" fill="#462600" rx="3.2" ry="1.7" transform="rotate(-34.3 275.337 166.42)"/><path fill="#6b4019" d="M277.5 164.5c-1.4 3.7-4.3 1.6-5.1 3.5.4-2.2 3.1-.9 5.1-3.5z"/><ellipse cx="251.8" cy="165.4" fill="#462600" rx="3.2" ry="1.7" transform="rotate(-34.3 252.2 165.49)"/><path fill="#6b4019" d="M254.3 163.7c-1.4 3.6-4.3 1.5-5.1 3.4.4-2.2 3.1-.9 5.1-3.4z"/><ellipse cx="258.3" cy="162.8" fill="#462600" rx="3.2" ry="1.7" transform="rotate(-34.3 258.684 162.877)"/><path fill="#6b4019" d="M260.9 161.1c-1.4 3.6-4.3 1.6-5.1 3.4.4-2.2 3.1-.9 5.1-3.4z"/><ellipse cx="282.9" cy="164.6" fill="#462600" rx="3.2" ry="1.7" transform="rotate(-34.3 283.342 164.63)"/><path fill="#6b4019" d="M285.4 162.9c-1.4 3.6-4.3 1.6-5 3.4.3-2.2 3-.9 5-3.4z"/><ellipse cx="265.5" cy="163.8" fill="#462600" rx="3.2" ry="1.7" transform="rotate(-34.3 265.84 163.843)"/><path fill="#6b4019" d="M268 162c-1.4 3.7-4.3 1.6-5.1 3.5.4-2.2 3.1-.9 5.1-3.5z"/><ellipse cx="247" cy="159.9" fill="#462600" rx="3.2" ry="1.7" transform="rotate(-34.3 247.305 160.075)"/><path fill="#6b4019" d="M249.5 158.2c-1.4 3.7-4.3 1.6-5 3.4.3-2.2 3-.9 5-3.4z"/><ellipse cx="235.2" cy="163.9" fill="#462600" rx="3.2" ry="1.7" transform="rotate(-34.3 235.433 164.043)"/><path fill="#6b4019" d="M237.7 162.2c-1.4 3.7-4.3 1.6-5 3.5.3-2.3 3-1 5-3.5z"/><ellipse cx="229.9" cy="160.3" fill="#462600" rx="3.2" ry="1.7" transform="rotate(-34.3 230.2 160.298)"/><path fill="#6b4019" d="M232.4 158.5c-1.4 3.7-4.3 1.6-5 3.5.3-2.2 3-.9 5-3.5z"/><ellipse cx="231.9" cy="165" fill="#462600" rx="3.2" ry="1.7" transform="rotate(-34.3 232.24 165.187)"/><path fill="#6b4019" d="M234.4 163.3c-1.4 3.7-4.3 1.6-5 3.5.3-2.3 3-1 5-3.5z"/><ellipse cx="298.1" cy="164.6" fill="#462600" rx="1.7" ry="3.2" transform="rotate(-43.9 298.363 164.662)"/><path fill="#6b4019" d="M295.9 162.4c3.9.7 2.3 4 4.3 4.4-2.3 0-1.4-2.9-4.3-4.4z"/><ellipse cx="279.2" cy="159.2" fill="#462600" rx="1.7" ry="3.2" transform="rotate(-43.9 279.5 159.223)"/><path fill="#6b4019" d="M277.1 157c3.8.8 2.3 4 4.2 4.5-2.2-.1-1.4-2.9-4.2-4.5z"/><ellipse cx="226.2" cy="161.7" fill="#462600" rx="1.7" ry="3.2" transform="rotate(-73.6 226.282 161.67)"/><path fill="#6b4019" d="M223.2 160.8c3.7-1.2 3.9 2.3 5.9 1.7-2 1.1-2.7-1.8-5.9-1.7z"/><ellipse cx="227.5" cy="166" fill="#462600" rx="1.7" ry="3.2" transform="rotate(-73.6 227.673 165.943)"/><path fill="#6b4019" d="M224.6 165.1c3.7-1.3 3.9 2.3 5.9 1.7-2 1.1-2.7-1.8-5.9-1.7z"/><ellipse cx="290" cy="164.6" fill="#462600" rx="1.7" ry="3.2" transform="rotate(-73.6 290.156 164.631)"/><path fill="#6b4019" d="M287 163.8c3.8-1.3 4 2.3 5.9 1.7-1.9 1.1-2.6-1.8-5.9-1.7z"/><ellipse cx="273" cy="163.3" fill="#462600" rx="1.7" ry="3.2" transform="rotate(-73.6 273.094 163.333)"/><path fill="#6b4019" d="M270.1 162.5c3.7-1.3 3.9 2.3 5.8 1.7-1.9 1.1-2.6-1.8-5.8-1.7z"/><ellipse cx="278.2" cy="161.9" fill="#462600" rx="1.7" ry="3.2" transform="rotate(-73.6 278.367 161.858)"/><path fill="#6b4019" d="M275.3 161c3.7-1.2 3.9 2.4 5.8 1.8-1.9 1.1-2.6-1.8-5.8-1.8z"/><ellipse cx="280.9" cy="167.3" fill="#462600" rx="1.7" ry="3.2" transform="rotate(-73.6 281.061 167.313)"/><path fill="#6b4019" d="M278 166.4c3.7-1.2 3.9 2.3 5.9 1.7-2 1.1-2.7-1.8-5.9-1.7z"/><ellipse cx="255.9" cy="166.3" fill="#462600" rx="1.7" ry="3.2" transform="rotate(-73.6 256.053 166.326)"/><path fill="#6b4019" d="M253 165.5c3.7-1.3 3.9 2.3 5.9 1.7-2 1.1-2.7-1.8-5.9-1.7z"/><ellipse cx="303.8" cy="164.4" fill="#462600" rx="1.7" ry="3.2" transform="rotate(-73.6 303.962 164.43)"/><path fill="#6b4019" d="M300.8 163.6c3.7-1.3 4 2.3 5.9 1.7-2 1.1-2.7-1.8-5.9-1.7z"/><ellipse cx="310.1" cy="166.1" fill="#462600" rx="1.4" ry="2.8" transform="rotate(-73.7 309.568 166.228)"/><path fill="#6b4019" d="M307.5 165.4c3.3-1 3.5 2 5.2 1.5-1.7.9-2.4-1.5-5.2-1.5z"/><ellipse cx="300.3" cy="167.5" fill="#462600" rx="1.4" ry="2.8" transform="rotate(-73.6 300.393 167.39)"/><path fill="#6b4019" d="M297.7 166.7c3.2-1 3.4 2 5.1 1.5-1.7.9-2.3-1.5-5.1-1.5z"/><ellipse cx="308.5" cy="169.7" fill="#462600" rx="1.2" ry="2.3" transform="rotate(-54.5 308.15 169.64)"/><path fill="#6b4019" d="M306.7 168.3c2.8.1 2.2 2.6 3.6 2.7-1.6.2-1.4-1.9-3.6-2.7z"/><ellipse cx="300.2" cy="164.2" fill="#462600" rx="1.7" ry="3.2" transform="rotate(-73.6 300.356 164.235)"/><path fill="#6b4019" d="M297.2 163.4c3.8-1.3 4 2.3 5.9 1.7-1.9 1.1-2.7-1.8-5.9-1.7z"/><ellipse cx="260.3" cy="159.2" fill="#462600" rx="2.9" ry="1.5" transform="rotate(-15 260.665 159.501)"/><path fill="#6b4019" d="M263 158.5c-3.4-1.1-3.6 2-5.4 1.5 1.8 1 2.5-1.6 5.4-1.5z"/><ellipse cx="268.4" cy="164.3" fill="#462600" rx="2.8" ry="1.5" transform="rotate(-43.4 268.478 164.33)"/><path fill="#6b4019" d="M270.4 162.4c-3.5.6-2.1 3.5-3.9 3.8 2.1 0 1.3-2.5 3.9-3.8z"/><ellipse cx="253" cy="159.2" fill="#462600" rx="1.5" ry="2.9" transform="rotate(-58.1 252.78 159.253)"/><path fill="#6b4019" d="M250.7 157.7c1.3 3.2 3.9 1.4 4.6 3-.3-1.9-2.8-.8-4.6-3z"/><ellipse cx="244.2" cy="160" fill="#462600" rx="1.5" ry="2.9" transform="rotate(-58.1 243.988 160.024)"/><path fill="#6b4019" d="M241.9 158.5c1.2 3.2 3.9 1.4 4.6 3-.3-1.9-2.8-.8-4.6-3z"/><ellipse cx="253.8" cy="162.1" fill="#462600" rx="1.5" ry="2.9" transform="rotate(-58.1 253.67 162.103)"/><path fill="#6b4019" d="M251.5 160.6c1.3 3.2 4 1.4 4.7 3.1-.4-2-2.9-.9-4.7-3.1z"/><ellipse cx="248.2" cy="162.8" fill="#462600" rx="1.5" ry="2.9" transform="rotate(-58.1 247.969 162.824)"/><path fill="#6b4019" d="M245.8 161.3c1.3 3.2 4 1.4 4.7 3-.3-1.9-2.8-.8-4.7-3z"/><ellipse cx="261.1" cy="165.3" fill="#462600" rx="1.5" ry="2.9" transform="rotate(-58.1 260.861 165.273)"/><path fill="#6b4019" d="M258.8 163.8c1.2 3.2 3.9 1.4 4.6 3-.3-1.9-2.8-.8-4.6-3z"/><ellipse cx="264.9" cy="161.5" fill="#462600" rx="1.5" ry="2.9" transform="rotate(-58.1 264.711 161.522)"/><path fill="#6b4019" d="M262.6 160c1.2 3.2 3.9 1.4 4.6 3-.3-1.9-2.8-.8-4.6-3z"/><ellipse cx="272.4" cy="160.4" fill="#462600" rx="1.5" ry="2.9" transform="rotate(-58.1 272.132 160.461)"/><path fill="#6b4019" d="M270.1 158.9c1.2 3.2 3.9 1.4 4.6 3-.3-1.9-2.8-.8-4.6-3z"/><ellipse cx="271.5" cy="165.8" fill="#462600" rx="1.5" ry="2.9" transform="rotate(-58.1 271.213 165.722)"/><path fill="#6b4019" d="M269.1 164.2c1.3 3.3 4 1.4 4.7 3.1-.4-2-2.8-.8-4.7-3.1z"/><ellipse cx="250.1" cy="164.3" fill="#462600" rx="2.8" ry="1.5" transform="rotate(-43.4 250.147 164.312)"/><path fill="#6b4019" d="M252.1 162.4c-3.5.6-2.1 3.4-3.9 3.8 2.1 0 1.3-2.5 3.9-3.8z"/><ellipse cx="248.2" cy="161.7" fill="#462600" rx="2.8" ry="1.5" transform="rotate(-43.4 248.284 161.678)"/><path fill="#6b4019" d="M250.1 159.8c-3.5.6-2.1 3.5-3.9 3.8 2.1 0 1.3-2.5 3.9-3.8z"/><ellipse cx="248" cy="166.3" fill="#462600" rx="2.8" ry="1.5" transform="rotate(-43.4 248.016 166.375)"/><path fill="#6b4019" d="M250 164.4c-3.6.7-2.1 3.5-4 3.9 2.1-.1 1.4-2.6 4-3.9z"/><ellipse cx="268.4" cy="158.5" fill="#462600" rx="2.8" ry="1.5" transform="rotate(-43.4 268.468 158.504)"/><path fill="#6b4019" d="M270.4 156.6c-3.5.6-2.1 3.4-3.9 3.8 2.1 0 1.3-2.5 3.9-3.8z"/><ellipse cx="257.6" cy="164.3" fill="#462600" rx="2.9" ry="1.5" transform="rotate(-15 258.066 164.568)"/><path fill="#6b4019" d="M260.3 163.6c-3.4-1.1-3.6 2-5.4 1.5 1.8.9 2.4-1.6 5.4-1.5z"/><ellipse cx="262.6" cy="162.2" fill="#462600" rx="2.9" ry="1.5" transform="matrix(.97 -.26 .26 .97 -33.07 73.61)"/><path fill="#6b4019" d="M265.3 161.4c-3.4-1.1-3.7 2.1-5.4 1.5 1.8 1 2.4-1.5 5.4-1.5z"/><ellipse cx="250.1" cy="159.2" fill="#462600" rx="2.9" ry="1.5" transform="rotate(-15 250.64 159.34)"/><path fill="#6b4019" d="M252.8 158.5c-3.4-1.1-3.6 2-5.4 1.5 1.8 1 2.5-1.6 5.4-1.5z"/><ellipse cx="240.4" cy="162.7" fill="#462600" rx="2.9" ry="1.5" transform="rotate(-15 240.876 163.078)"/><path fill="#6b4019" d="M243.1 162c-3.4-1.1-3.6 2-5.4 1.5 1.8 1 2.5-1.6 5.4-1.5z"/><ellipse cx="238.1" cy="166" fill="#462600" rx="2.9" ry="1.5" transform="matrix(.97 -.26 .26 .97 -34.88 67.4)"/><path fill="#6b4019" d="M240.9 165.2c-3.5-1.1-3.7 2-5.5 1.5 1.8 1 2.5-1.5 5.5-1.5z"/><ellipse cx="246.6" cy="164.1" fill="#462600" rx="2.9" ry="1.5" transform="rotate(-15 246.902 164.258)"/><path fill="#6b4019" d="M249.3 163.3c-3.4-1.1-3.6 2-5.4 1.5 1.8 1 2.5-1.6 5.4-1.5z"/><path fill="#4b3621" d="M76.7 22.3c0 13.9-4.1 18.8-4.1 24.1v118l19.1 6.2V56.5h-.1c.3-2.9 2.3-26.8-14.9-34.2z"/><path fill="#4b3621" d="M76.7 24c-2.7-3.7-4.5-9.5-.7-9.8s3.8 7.2.7 9.8z"/><path fill="#6c4f36" d="M156.6 22.3H76.7c8.6 5.9 14.5 12.9 14.8 34.5v114h79.8v-114c.3-18.5-3.8-25.9-14.7-34.5z"/><path fill="#5c442d" d="M157.8 14.2H76c3.9.7 3.1 8.1.7 8.1h81.1c1.4-.3 4.1-6.5 0-8.1z"/><path fill="#35240f" d="M91.5 117h79.8v33.18H91.5z"/><path fill="url(#b)" d="M286.4 126.2h-9v-4.8c0-1.1-44.8-1.1-44.8 0l.9 45.3c0 1.1 2.1 1.9 6.2 3 8.5 2.3 22.1 2.3 30.3 0 4.1-1.2 6.3-1.9 6.3-3l.3-12h9.7a2.9 2.9 0 0 0 2.9-3v-22.6a2.9 2.9 0 0 0-2.8-2.9zm-1.3 8.9v12.7c0 1.6-.6 2-2.4 2h-5.9l.4-17.3h5.5c2.8 0 2.4.8 2.4 2.6z"/><path fill="#f1f2f2" d="M234.4 71.7l-50.7-4.9a1.6 1.6 0 0 0-1.8 1.2l-3.5 10.1h57.5v-4.8a1.6 1.6 0 0 0-1.5-1.6z"/><path fill="#a8835f" d="M178.4 81.9l12.3 89.8c0 .8 1.5 1.7 4.8 2.3a69.5 69.5 0 0 0 23.2 0c3.3-.6 4.9-1.4 4.9-2.3l12.3-89.8z"/><path fill="#4b3621" d="M185.4 135.5l-3.7-24.6c17.7 2.3 34.6 2.5 50.8 0l-3.7 24.6a117.2 117.2 0 0 1-43.4 0z"/><path fill="#e6e7e8" d="M177.8 76q28.6 1.4 57.9 0a2.3 2.3 0 0 1 2.2 1.5l2.2 6.1h-66.2l1.7-5.9a2.3 2.3 0 0 1 2.2-1.7z"/><path fill="#f1f2f2" d="M240.3 83.9c0 .9-66.7.9-66.7 0s-.1 0-.1-.1V83h.1q33.3 1.3 66.7 0h.1v.8c0 .1 0 .1-.1.1z"/><ellipse cx="74.4" cy="167.9" fill="#462600" rx="1.7" ry="3.2" transform="rotate(-46.2 74.286 167.88)"/><path fill="#6b4019" d="M72.2 165.8c.8 3.8 4 2.3 4.4 4.2 0-2.2-2.9-1.4-4.4-4.2z"/><ellipse cx="85.3" cy="168.9" fill="#462600" rx="1.7" ry="3.2" transform="rotate(-46.2 85.249 168.816)"/><path fill="#6b4019" d="M83.1 166.8c.7 3.9 3.9 2.3 4.4 4.3 0-2.3-2.9-1.5-4.4-4.3z"/><ellipse cx="82.7" cy="168.3" fill="#462600" rx="1.7" ry="3.2" transform="rotate(-46.2 82.587 168.234)"/><path fill="#6b4019" d="M80.4 166.1c.8 3.9 4 2.3 4.5 4.3-.1-2.3-2.9-1.4-4.5-4.3z"/><ellipse cx="89.7" cy="169.4" fill="#462600" rx="1.7" ry="3.2" transform="rotate(-46.2 89.617 169.293)"/><path fill="#6b4019" d="M87.4 167.3c.8 3.8 4 2.3 4.5 4.2-.1-2.2-2.9-1.4-4.5-4.2z"/><ellipse cx="93.7" cy="171.1" fill="#462600" rx="1.2" ry="2.7" transform="rotate(-46.2 93.602 170.993)"/><path fill="#6b4019" d="M91.8 169.2c.8 3.2 3.3 2.1 3.7 3.7-.1-1.8-2.3-1.3-3.7-3.7z"/><ellipse cx="171.1" cy="168.7" fill="#462600" rx="1.7" ry="3.2" transform="rotate(-46.2 170.943 168.651)"/><path fill="#6b4019" d="M168.9 166.5c.8 3.9 4 2.3 4.4 4.3 0-2.3-2.9-1.4-4.4-4.3z"/><ellipse cx="79.7" cy="169.4" fill="#462600" rx="3.2" ry="1.7" transform="rotate(-18.2 79.762 169.659)"/><path fill="#6b4019" d="M82.7 168.5c-3.8-1.2-3.9 2.4-5.9 1.9 2 1 2.6-1.9 5.9-1.9z"/><ellipse cx="173.8" cy="169.9" fill="#462600" rx="3.2" ry="1.7" transform="rotate(-6.9 173.74 169.46)"/><path fill="#6b4019" d="M176.9 169.6c-3.5-1.9-4.3 1.6-6.1.7 1.8 1.4 2.9-1.3 6.1-.7z"/><ellipse cx="168.9" cy="171.8" fill="#462600" rx="3.2" ry="1.7" transform="rotate(-6.9 168.615 171.648)"/><path fill="#6b4019" d="M171.9 171.4c-3.4-1.8-4.2 1.7-6 .8 1.7 1.4 2.9-1.4 6-.8z"/><ellipse cx="89" cy="167.1" fill="#462600" rx="3.2" ry="1.7" transform="rotate(-6.9 88.995 166.848)"/><path fill="#6b4019" d="M92.1 166.8c-3.5-1.9-4.3 1.6-6.1.7 1.8 1.4 2.9-1.3 6.1-.7z"/><ellipse cx="71.9" cy="165.8" fill="#462600" rx="3.2" ry="1.7" transform="rotate(-6.9 71.628 164.968)"/><path fill="#6b4019" d="M75 165.4c-3.5-1.8-4.3 1.7-6.1.8 1.7 1.4 2.9-1.4 6.1-.8z"/><ellipse cx="68.9" cy="165.3" fill="#462600" rx="2.8" ry="1.4" transform="rotate(-6.9 68.31 164.768)"/><path fill="#6b4019" d="M71.6 165c-3-1.5-3.8 1.4-5.3.6 1.5 1.2 2.5-1.1 5.3-.6z"/><ellipse cx="78.5" cy="167.1" fill="#462600" rx="2.8" ry="1.4" transform="rotate(-6.9 78.163 167.027)"/><path fill="#6b4019" d="M81.1 166.8c-3-1.6-3.7 1.3-5.3.6 1.6 1.2 2.6-1.1 5.3-.6z"/><ellipse cx="63.8" cy="167.6" fill="#462600" rx="2.3" ry="1.2" transform="rotate(-26.1 63.522 167.245)"/><path fill="#6b4019" d="M65.8 166.6c-2.8-.4-2.6 2.1-4.1 2 1.6.5 1.8-1.6 4.1-2z"/><ellipse cx="75" cy="167" fill="#462600" rx="3.2" ry="1.7" transform="rotate(-7 74.846 166.77)"/><path fill="#6b4019" d="M78 166.7c-3.4-1.9-4.3 1.6-6.1.7 1.8 1.4 3-1.3 6.1-.7z"/><ellipse cx="176.1" cy="173.5" fill="#462600" rx="1.5" ry="2.9" transform="rotate(-65.5 176.107 173.498)"/><path fill="#6b4019" d="M173.6 172.3c3.5-.5 3.2 2.6 5.1 2.4-2 .7-2.2-2-5.1-2.4z"/><path fill="#35240f" d="M255.5 75c13.7 5.8-6.9 28.8-.1 40.1-10.5-10.5 11.8-34.5.1-40.1" opacity=".5"/><path fill="#35240f" d="M263.6 81.9c13.7 5.8-10.3 23.8-1.9 36.8-13.3-13.6 13.6-31.3 1.9-36.8m-14.9 0c13.7 5.8-10.3 23.8-1.9 36.8-13.3-13.6 13.6-31.3 1.9-36.8m-54.9-52.1c-15.5 7 0 19.7-2.4 34.5-1.6-14.8-15.9-27.5 2.4-34.5" opacity=".5"/><path fill="#462600" d="M49.1 225.4c0-17.8 9.8-30 25.3-30 12.5 0 18 8.1 20.8 15.2l-11.6 5c-1.4-4.6-4.6-7.8-9.2-7.8-6.9 0-11 7.4-11 17.6s4.1 17.6 11 17.6c4.7 0 7.9-3.7 9.2-8.4l11.7 5c-2.7 7.1-8.3 15.8-20.9 15.8-15.5 0-25.3-12.3-25.3-30zm74.9-30c15.7 0 25.3 12.5 25.3 30s-9.6 30-25.3 30-25.3-12.5-25.3-30 9.7-30 25.3-30zm0 12.4c-7 0-10.9 7.5-10.9 17.6S117 243 124 243s11.1-7.6 11.1-17.6-3.9-17.6-11.1-17.6zm32.2-11.5h35v12.1h-20.9v10.5h20.3V231h-20.3v23.4h-14.1zm42.2 0h35v12.1h-20.9v10.5h20.3V231h-20.3v23.4h-14.1zm42.2 0h35v12.1h-20.9v10.5H275V231h-20.3v11.3h20.9v12.1h-35zm42.8 0h35v12.1h-20.9v10.5h20.3V231h-20.3v11.3h20.9v12.1h-35z"/><path fill="#6b4019" d="M125.4 265.1h20.4v2h-18.3v18.4h17.8v2h-17.8v19.6h18.3v2h-20.4zm39.6 23.5l-11.9 20.5h-2.6l13.3-22.4-12.6-21.6h2.7l11.1 19.5 11.1-19.5h2.7l-12.6 21.5 13.3 22.5h-2.6zm20.8-23.5h10.9c7.2 0 10.9 5.8 10.9 12.5s-3.7 12.4-10.9 12.4h-8.8v19.1h-2.1zm10.9 2h-8.8V288h8.8c5.5 0 8.6-4.4 8.6-10.4s-3.1-10.5-8.6-10.5zm32.5-2.7c10 0 15.2 10.3 15.2 22.7s-5.2 22.7-15.2 22.7-15.3-10.2-15.3-22.7 5.2-22.7 15.3-22.7zm0 2c-8.4 0-13 9.2-13 20.7s4.6 20.8 13 20.8 12.9-9.4 12.9-20.8-4.6-20.7-12.9-20.7zm-76.8 70.8v-15.8c0-1.8.8-2.9 3-2.9h3.2c2.2 0 3 1.1 3 2.9v15.8c0 1.9-.6 3-3 3h-3.1c-2.4 0-3.1-1.1-3.1-3zm5.9-15.7h-2.6c-.1 0-.1.1-.1.2v15.2c0 .1 0 .2.1.2h2.6c.1 0 .1-.1.1-.2v-15.2c0-.1 0-.2-.1-.2zm9.9.2v18.1a.2.2 0 0 1-.2.2h-2.8a.2.2 0 0 1-.2-.2v-18.1h-2.3a.3.3 0 0 1-.3-.3v-2.5a.3.3 0 0 1 .3-.3h7.9c.1 0 .2.1.2.3v2.5c0 .2-.1.3-.2.3zm8.7 0v18.1a.2.2 0 0 1-.2.2h-2.8l-.2-.2v-18.1h-2.3a.3.3 0 0 1-.3-.3v-2.5a.3.3 0 0 1 .3-.3h7.9c.1 0 .2.1.2.3v2.5c0 .2-.1.3-.2.3zm8.8-3.1c.1 0 .2.2.2.3l3.5 20.9c0 .1-.1.2-.3.2h-2.9a.2.2 0 0 1-.2-.2l-.7-5.1h-2.6l-.7 5.1c0 .1-.1.2-.3.2h-2.8c-.2 0-.3-.1-.3-.2l3.7-20.9c0-.1 0-.3.2-.3zm-2.5 13h1.7l-.8-5.9zm16.9 8.4c-.2 0-.3-.1-.3-.2l-2-12.1-1.9 12.1c0 .1 0 .2-.2.2h-3.2a.2.2 0 0 1-.2-.2l-3.6-20.9a.3.3 0 0 1 .3-.3h2.9c.1 0 .2.1.2.3l2 13.1 2-13.1a.3.3 0 0 1 .3-.3h3c.1 0 .2.1.2.3l2 13.1 2-13.1a.3.3 0 0 1 .3-.3h2.9c.1 0 .2.1.2.3l-3.6 20.9c0 .1 0 .2-.2.2zm13.3-21.4a.3.3 0 0 1 .3.3l3.4 20.9a.2.2 0 0 1-.2.2H214a.2.2 0 0 1-.2-.2l-.7-5.1h-2.6l-.7 5.1c0 .1-.1.2-.3.2h-2.9a.2.2 0 0 1-.2-.2l3.6-20.9a.3.3 0 0 1 .3-.3zm-2.4 13h1.7l-.8-5.9z"/></svg>