<svg xmlns="http://www.w3.org/2000/svg" width="26.8in" height="52.4in" viewBox="0 0 1927.4 3769.9"><defs><clipPath id="a"><path fill="none" d="M246.6 707.3C324 512 629.3-5.8 1143.6-5.8c524.8.1 682.5 490.9 712 555.7s91 239.1 93.9 394.6-278 483.5-362.1 617c-37.7 59.8-242.1 352.9-491.3 708-297.3 423.4-658.4 935-876.6 1243.8l-196 277.3L0 2685.4s-1.8-983.9 85.2-1419c61.7-308.5 161.4-559.1 161.4-559.1z"/></clipPath><clipPath id="b"><path fill="none" d="M59.7 2717.9h553.1v116.04H59.7z"/></clipPath><clipPath id="c"><path fill="none" d="M24.7 2660.5H663v203.09H24.7z"/></clipPath><linearGradient id="d" x1="1004.16" x2="1704.16" y1="1017.31" y2="1017.31" gradientUnits="userSpaceOnUse"><stop offset=".27" stop-color="#ccc"/><stop offset=".8" stop-color="#fff"/><stop offset=".99" stop-color="#d9d9d9"/></linearGradient></defs><path fill="none" d="M-169 1305.7h1719.1v1626.32H-169z"/><g clip-path="url(#a)"><path fill="#eb9d28" d="M-62-86.1h2051.4v4040.75H-62z"/></g><ellipse cx="1320.4" cy="1200.7" fill="#462600" rx="19.6" ry="37.4" transform="rotate(-73.6 1321.18 1200.813)"/><path fill="#6b4019" d="M1285.5 1190.4c44-14.7 46.8 27.5 69.7 20.5-23.3 13.2-31.6-21.2-69.7-20.5z"/><ellipse cx="1057.1" cy="1239.1" fill="#462600" rx="19.6" ry="37.4" transform="rotate(-73.6 1057.715 1239.196)"/><path fill="#6b4019" d="M1022.1 1228.8c44-14.8 46.8 27.5 69.8 20.5-23.3 13.1-31.7-21.3-69.8-20.5z"/><ellipse cx="817.1" cy="1205" fill="#462600" rx="19.6" ry="37.4" transform="rotate(-73.6 817.632 1205.216)"/><path fill="#6b4019" d="M782.1 1194.7c44.1-14.7 46.8 27.5 69.8 20.5-23.3 13.2-31.7-21.2-69.8-20.5z"/><ellipse cx="731.6" cy="1187.7" fill="#462600" rx="19.6" ry="37.4" transform="rotate(-73.6 732.072 1187.909)"/><path fill="#6b4019" d="M696.6 1177.4c44.1-14.8 46.8 27.5 69.8 20.5-23.3 13.2-31.7-21.2-69.8-20.5z"/><ellipse cx="817.1" cy="1239.1" fill="#462600" rx="19.6" ry="37.4" transform="rotate(-73.6 817.707 1239.255)"/><path fill="#6b4019" d="M782.1 1228.8c44.1-14.8 46.8 27.5 69.8 20.5-23.3 13.1-31.7-21.3-69.8-20.5z"/><ellipse cx="981.8" cy="1187.8" fill="#462600" rx="19.6" ry="37.4" transform="rotate(-73.6 982.463 1187.904)"/><path fill="#6b4019" d="M946.8 1177.5c44.1-14.8 46.9 27.5 69.8 20.5-23.3 13.2-31.6-21.2-69.8-20.5z"/><ellipse cx="935.4" cy="1173.2" fill="#462600" rx="19.6" ry="37.4" transform="rotate(-73.6 936.053 1173.303)"/><path fill="#6b4019" d="M900.4 1162.9c44.1-14.8 46.8 27.5 69.8 20.5-23.3 13.1-31.7-21.3-69.8-20.5z"/><ellipse cx="1228.6" cy="1225.7" fill="#462600" rx="19.6" ry="37.4" transform="rotate(-43.9 1230.032 1226.318)"/><path fill="#6b4019" d="M1203.3 1199.5c45.6 9 27.1 47 50.5 52.4-26.8-.2-17-34.2-50.5-52.4z"/><ellipse cx="1124.4" cy="1177.5" fill="#462600" rx="19.6" ry="37.4" transform="rotate(-43.9 1125.734 1178.083)"/><path fill="#6b4019" d="M1099.1 1151.2c45.6 9 27.1 47.1 50.5 52.4-26.8-.1-17-34.1-50.5-52.4z"/><ellipse cx="1057" cy="1146.9" fill="#462600" rx="37.4" ry="19.6" transform="rotate(-34.3 1058.475 1147.898)"/><path fill="#6b4019" d="M1087.1 1126.4c-16.5 43.4-50.9 18.8-60.1 41 4.6-26.4 36.5-11.1 60.1-41z"/><ellipse cx="1438.6" cy="1191.4" fill="#462600" rx="37.4" ry="19.6" transform="rotate(-34.3 1440.702 1192.208)"/><path fill="#6b4019" d="M1468.7 1170.8c-16.4 43.5-50.9 18.8-60 41 4.5-26.3 36.4-11 60-41z"/><ellipse cx="1415.8" cy="1221.3" fill="#462600" rx="37.4" ry="19.6" transform="rotate(-34.3 1417.776 1222.221)"/><path fill="#6b4019" d="M1446 1200.7c-16.5 43.5-51 18.9-60.1 41.1 4.6-26.4 36.5-11.1 60.1-41.1z"/><ellipse cx="1431.3" cy="1243.9" fill="#462600" rx="37.4" ry="19.6" transform="rotate(-34.3 1433.353 1244.774)"/><path fill="#6b4019" d="M1461.4 1223.3c-16.5 43.5-50.9 18.9-60.1 41.1 4.6-26.4 36.5-11.1 60.1-41.1z"/><ellipse cx="1322.9" cy="1239.1" fill="#462600" rx="37.4" ry="19.6" transform="rotate(-34.3 1324.798 1240.022)"/><path fill="#6b4019" d="M1353 1218.5c-16.5 43.5-50.9 18.8-60.1 41 4.6-26.3 36.5-11 60.1-41z"/><ellipse cx="1353" cy="1211.8" fill="#462600" rx="19.6" ry="37.4" transform="rotate(-78.5 1356.076 1211.695)"/><path fill="#6b4019" d="M1388.7 1219.1c-42.6 18.5-49-23.4-71.3-14.4 22.1-15.1 33.4 18.4 71.3 14.4z"/><ellipse cx="1265.2" cy="1194.1" fill="#462600" rx="37.4" ry="19.6" transform="rotate(-34.3 1266.99 1195.032)"/><path fill="#6b4019" d="M1295.3 1173.6c-16.4 43.4-50.9 18.8-60 41 4.5-26.4 36.5-11.1 60-41z"/><ellipse cx="1206.7" cy="1189.1" fill="#462600" rx="37.4" ry="19.6" transform="rotate(-34.3 1208.414 1189.91)"/><path fill="#6b4019" d="M1236.8 1168.5c-16.5 43.5-50.9 18.9-60.1 41 4.6-26.3 36.5-11 60.1-41z"/><ellipse cx="1188.9" cy="1238.2" fill="#462600" rx="37.4" ry="19.6" transform="rotate(-34.3 1190.745 1239.113)"/><path fill="#6b4019" d="M1219 1217.6c-16.5 43.5-50.9 18.8-60.1 41 4.6-26.3 36.5-11 60.1-41z"/><ellipse cx="915.4" cy="1234.9" fill="#462600" rx="37.4" ry="19.6" transform="rotate(-34.3 916.82 1236.033)"/><path fill="#6b4019" d="M945.5 1214.3c-16.5 43.5-50.9 18.9-60.1 41.1 4.6-26.4 36.5-11.1 60.1-41.1z"/><ellipse cx="993.1" cy="1204.4" fill="#462600" rx="37.4" ry="19.6" transform="rotate(-34.3 994.6 1205.379)"/><path fill="#6b4019" d="M1023.2 1183.8c-16.4 43.5-50.9 18.9-60 41 4.5-26.3 36.5-11 60-41z"/><ellipse cx="1284" cy="1225.6" fill="#462600" rx="37.4" ry="19.6" transform="rotate(-34.3 1285.826 1226.576)"/><path fill="#6b4019" d="M1314.1 1205c-16.4 43.5-50.9 18.9-60 41.1 4.6-26.4 36.5-11.1 60-41.1z"/><ellipse cx="1077.5" cy="1215.9" fill="#462600" rx="37.4" ry="19.6" transform="rotate(-33.9 1093.045 1221.264)"/><path fill="#6b4019" d="M1107.6 1195.3c-16.5 43.5-50.9 18.9-60.1 41.1 4.6-26.4 36.5-11.1 60.1-41.1z"/><ellipse cx="876.9" cy="1178.5" fill="#462600" rx="37.4" ry="19.6" transform="rotate(-34.3 878.332 1179.614)"/><path fill="#6b4019" d="M907 1158c-16.5 43.5-50.9 18.8-60.1 41 4.6-26.3 36.5-11 60.1-41z"/><ellipse cx="718.8" cy="1217.6" fill="#462600" rx="37.4" ry="19.6" transform="rotate(-34.3 720.024 1218.778)"/><path fill="#6b4019" d="M748.9 1197c-16.5 43.5-50.9 18.9-60.1 41.1 4.6-26.4 36.5-11.1 60.1-41.1z"/><ellipse cx="528.6" cy="1243.9" fill="#462600" rx="37.4" ry="19.6" transform="rotate(-34.3 529.675 1245.038)"/><path fill="#6b4019" d="M558.7 1223.3c-16.4 43.5-50.9 18.9-60 41.1 4.6-26.4 36.5-11.1 60-41.1z"/><ellipse cx="679.6" cy="1230.7" fill="#462600" rx="37.4" ry="19.6" transform="rotate(-34.3 680.843 1231.886)"/><path fill="#6b4019" d="M709.7 1210.1c-16.4 43.5-50.9 18.9-60 41.1 4.5-26.4 36.5-11.1 60-41.1z"/><ellipse cx="1463.9" cy="1225.7" fill="#462600" rx="19.6" ry="37.4" transform="rotate(-43.9 1465.458 1226.159)"/><path fill="#6b4019" d="M1438.6 1199.4c45.6 9 27.1 47.1 50.5 52.4-26.8-.1-17-34.2-50.5-52.4z"/><ellipse cx="1183.4" cy="1183.8" fill="#462600" rx="19.6" ry="37.4" transform="rotate(-43.9 1184.636 1184.371)"/><path fill="#6b4019" d="M1158.1 1157.6c45.6 8.9 27 47 50.4 52.3-26.7-.1-17-34.1-50.4-52.3z"/><ellipse cx="587" cy="1245" fill="#462600" rx="19.6" ry="37.4" transform="rotate(-73.7 585.092 1243.975)"/><path fill="#6b4019" d="M552.1 1234.7c44-14.8 46.8 27.5 69.8 20.5-23.3 13.2-31.7-21.2-69.8-20.5z"/><ellipse cx="627.9" cy="1241.7" fill="#462600" rx="19.6" ry="37.4" transform="rotate(-73.6 628.47 1241.957)"/><path fill="#6b4019" d="M592.9 1231.4c44.1-14.8 46.9 27.5 69.8 20.5-23.3 13.1-31.6-21.3-69.8-20.5z"/><ellipse cx="1365.2" cy="1243.9" fill="#462600" rx="19.6" ry="37.4" transform="rotate(-73.6 1366.04 1243.961)"/><path fill="#6b4019" d="M1330.2 1233.6c44.1-14.8 46.8 27.5 69.8 20.5-23.3 13.2-31.6-21.2-69.8-20.5z"/><ellipse cx="1167" cy="1210.6" fill="#462600" rx="19.6" ry="37.4" transform="rotate(-73.6 1167.676 1210.649)"/><path fill="#6b4019" d="M1132 1200.3c44.1-14.8 46.8 27.5 69.8 20.5-23.3 13.1-31.7-21.3-69.8-20.5z"/><ellipse cx="1241.7" cy="1209.9" fill="#462600" rx="19.6" ry="37.4" transform="rotate(-73.6 1242.363 1210.024)"/><path fill="#6b4019" d="M1206.7 1199.7c44-14.8 46.8 27.4 69.8 20.5-23.3 13.1-31.7-21.3-69.8-20.5z"/><ellipse cx="1260.8" cy="1257.3" fill="#462600" rx="19.6" ry="37.4" transform="rotate(-73.6 1261.535 1257.41)"/><path fill="#6b4019" d="M1225.8 1247c44.1-14.8 46.8 27.5 69.8 20.5-23.3 13.2-31.7-21.2-69.8-20.5z"/><ellipse cx="964.7" cy="1246.1" fill="#462600" rx="19.6" ry="37.4" transform="rotate(-73.6 965.34 1246.186)"/><path fill="#6b4019" d="M929.7 1235.8c44.1-14.8 46.8 27.5 69.8 20.5-23.3 13.1-31.7-21.3-69.8-20.5z"/><ellipse cx="1531.6" cy="1223.8" fill="#462600" rx="19.6" ry="37.4" transform="rotate(-73.6 1532.436 1223.86)"/><path fill="#6b4019" d="M1496.6 1213.5c44.1-14.8 46.8 27.5 69.8 20.5-23.3 13.2-31.7-21.2-69.8-20.5z"/><ellipse cx="1606.9" cy="1243.9" fill="#462600" rx="16.3" ry="32.7" transform="rotate(-73.6 1607.783 1243.95)"/><path fill="#6b4019" d="M1576.4 1234.9c38.2-11.8 41 23.5 60.9 17.9-20.1 10.7-27.8-18.1-60.9-17.9z"/><ellipse cx="1531.5" cy="1254.9" fill="#462600" rx="16.3" ry="32.7" transform="rotate(-73.6 1532.323 1254.944)"/><path fill="#6b4019" d="M1500.9 1245.9c38.2-11.8 41.1 23.5 61 17.9-20.1 10.7-27.8-18.1-61-17.9z"/><ellipse cx="1692.9" cy="1255.4" fill="#462600" rx="13.8" ry="27.7" transform="rotate(-54.5 1691.101 1255.072)"/><path fill="#6b4019" d="M1671 1239.7c33.8 1.2 26.3 30.2 43.8 31.3-19.1 2.9-17.2-22.2-43.8-31.3z"/><ellipse cx="1489.1" cy="1221.4" fill="#462600" rx="19.6" ry="37.4" transform="rotate(-73.6 1489.863 1221.407)"/><path fill="#6b4019" d="M1454.1 1211.1c44.1-14.8 46.8 27.5 69.8 20.5-23.3 13.2-31.7-21.2-69.8-20.5z"/><ellipse cx="1016.4" cy="1162" fill="#462600" rx="34.4" ry="17.2" transform="rotate(-15 1018.266 1163.734)"/><path fill="#6b4019" d="M1048.7 1153.1c-40.7-13-43.2 24-64.4 17.9 21.5 11.5 29.2-18.6 64.4-17.9z"/><ellipse cx="1112.9" cy="1222.2" fill="#462600" rx="33.6" ry="17.6" transform="rotate(-43.4 1113.208 1222.376)"/><path fill="#6b4019" d="M1136.2 1199.3c-42 7.8-24.9 41.1-46.5 45.8 24.7-.1 15.6-29.9 46.5-45.8z"/><ellipse cx="930.1" cy="1161.9" fill="#462600" rx="17.4" ry="34" transform="rotate(-58.1 929.168 1161.593)"/><path fill="#6b4019" d="M902.4 1144c15.1 38 46.9 16.4 55.3 35.8-4.2-23-33.6-9.6-55.3-35.8z"/><ellipse cx="825.7" cy="1171.2" fill="#462600" rx="17.4" ry="34" transform="rotate(-58.1 824.783 1170.753)"/><path fill="#6b4019" d="M797.9 1153.2c15.2 38 47 16.5 55.4 35.9-4.2-23.1-33.7-9.7-55.4-35.9z"/><ellipse cx="939.9" cy="1196.5" fill="#462600" rx="17.4" ry="34" transform="rotate(-58.1 938.872 1196.078)"/><path fill="#6b4019" d="M912.1 1178.5c15.2 38.1 47 16.5 55.4 35.9-4.2-23-33.6-9.6-55.4-35.9z"/><ellipse cx="872.8" cy="1204.4" fill="#462600" rx="17.4" ry="34" transform="rotate(-58.1 871.833 1203.954)"/><path fill="#6b4019" d="M845 1186.4c15.2 38 47 16.5 55.4 35.9-4.2-23.1-33.7-9.7-55.4-35.9z"/><ellipse cx="1026" cy="1233.9" fill="#462600" rx="17.4" ry="34" transform="rotate(-58.1 1024.917 1233.506)"/><path fill="#6b4019" d="M998.2 1215.9c15.2 38 47 16.5 55.4 35.9-4.2-23.1-33.7-9.7-55.4-35.9z"/><ellipse cx="1071.1" cy="1189.1" fill="#462600" rx="17.4" ry="34" transform="rotate(-58.1 1069.96 1188.676)"/><path fill="#6b4019" d="M1043.3 1171.1c15.2 38 47 16.5 55.4 35.9-4.2-23.1-33.7-9.7-55.4-35.9z"/><ellipse cx="1143.4" cy="1193.4" fill="#462600" rx="34" ry="17.4" transform="rotate(-3.4 1136.7 1185.383)"/><path fill="#6b4019" d="M1176.5 1192c-34.4-22.3-47.9 13.7-66 2.7 16.8 16.4 33.1-11.5 66-2.7z"/><ellipse cx="1148.7" cy="1239.4" fill="#462600" rx="17.4" ry="34" transform="rotate(-58.1 1147.566 1238.967)"/><path fill="#6b4019" d="M1120.9 1221.4c15.2 38 47 16.5 55.4 35.9-4.2-23.1-33.6-9.7-55.4-35.9z"/><ellipse cx="895.9" cy="1222.2" fill="#462600" rx="33.6" ry="17.6" transform="rotate(-43.4 896.222 1222.333)"/><path fill="#6b4019" d="M919.3 1199.2c-42.1 7.9-25 41.2-46.6 45.8 24.7-.1 15.7-29.9 46.6-45.8z"/><ellipse cx="872.7" cy="1191.4" fill="#462600" rx="33.6" ry="17.6" transform="rotate(-43.4 872.965 1191.538)"/><path fill="#6b4019" d="M896 1168.5c-42 7.8-24.9 41.1-46.5 45.8 24.7-.1 15.7-29.9 46.5-45.8z"/><ellipse cx="870.7" cy="1246.1" fill="#462600" rx="33.6" ry="17.6" transform="rotate(-43.4 871.003 1246.208)"/><path fill="#6b4019" d="M894 1223.1c-42.1 7.8-25 41.2-46.5 45.8 24.6-.1 15.6-29.9 46.5-45.8z"/><ellipse cx="1380.7" cy="1210.6" fill="#462600" rx="33.6" ry="17.6" transform="rotate(-43.4 1381.023 1210.627)"/><path fill="#6b4019" d="M1404 1187.6c-42.1 7.8-25 41.2-46.6 45.8 24.7-.1 15.7-29.9 46.6-45.8z"/><ellipse cx="984.1" cy="1222.3" fill="#462600" rx="34.4" ry="17.2" transform="rotate(-15 985.99 1224.009)"/><path fill="#6b4019" d="M1016.4 1213.3c-40.6-12.9-43.2 24.1-64.3 18 21.4 11.5 29.2-18.6 64.3-18z"/><ellipse cx="1043.3" cy="1197" fill="#462600" rx="34.4" ry="17.2" transform="rotate(-15 1045.359 1198.597)"/><path fill="#6b4019" d="M1075.6 1188c-40.7-12.9-43.2 24.1-64.4 18 21.5 11.5 29.2-18.6 64.4-18z"/><ellipse cx="919.3" cy="1193.5" fill="#462600" rx="34.4" ry="17.2" transform="rotate(-15 921.037 1194.98)"/><path fill="#6b4019" d="M951.5 1184.5c-40.6-13-43.2 24-64.3 17.9 21.4 11.5 29.2-18.6 64.3-17.9z"/><ellipse cx="780.8" cy="1203.5" fill="#462600" rx="34.4" ry="17.2" transform="rotate(-15 782.513 1205.334)"/><path fill="#6b4019" d="M813.1 1194.6c-40.6-13-43.2 24-64.3 17.9 21.4 11.5 29.2-18.6 64.3-17.9z"/><ellipse cx="753.8" cy="1241.8" fill="#462600" rx="34.4" ry="17.2" transform="rotate(-15 755.085 1243.451)"/><path fill="#6b4019" d="M786 1232.8c-40.6-13-43.2 24-64.3 17.9 21.4 11.5 29.2-18.6 64.3-17.9z"/><ellipse cx="854" cy="1219.1" fill="#462600" rx="34.4" ry="17.2" transform="rotate(-15 855.821 1220.781)"/><path fill="#6b4019" d="M886.3 1210.2c-40.7-13-43.2 24-64.4 17.9 21.5 11.5 29.2-18.6 64.4-17.9z"/><path fill="#35240f" d="M1370.8 227.5c135.9 57.9-68.7 286-1.2 399.1-104.3-104.3 117.8-343.8 1.2-399.1" opacity=".5"/><path fill="#35240f" d="M1451.3 295.9c135.9 57.8-102.1 237.2-19 365.9-132-135.3 135.6-310.7 19-365.9m-148.3 0c135.8 57.8-102.2 237.2-19 365.9-132.1-135.3 135.6-310.7 19-365.9" opacity=".5"/><path fill="#462600" d="M100.1 1607.9c0-77.9 43.1-131.7 111.1-131.7 54.9 0 79 35.5 91.2 66.8l-50.8 21.8c-6.5-19.9-20.2-34-40.4-34-30.2 0-48.1 32.4-48.1 77.1s17.9 77.1 48.1 77.1c20.6 0 34.7-16 40.4-36.7l51.2 21.8c-11.9 31.3-36.3 69.5-91.6 69.5-68 0-111.1-54.2-111.1-131.7zm328.6-131.7c68.7 0 111.1 55 111.1 131.7s-42.4 131.7-111.1 131.7-111-55-111-131.7 42.3-131.7 111-131.7zm0 54.6c-30.9 0-48.1 32.8-48.1 77.1s17.2 77.1 48.1 77.1 48.5-33.2 48.5-77.1-17.2-77.1-48.5-77.1zm141.2-50.4h153.5v53.1h-91.6v45.8h88.9v53h-88.9V1735h-61.9zm185.1 0h153.4v53.1h-91.5v45.8h88.9v53h-88.9V1735H755zm185.1 0h153.4v53.1h-91.6v45.8h89v53h-89v49.6h91.6v53.1H940.1zm187.4 0h153.4v53.1h-91.6v45.8h89v53h-89v49.6h91.6v53.1h-153.4z"/><path fill="#6b4019" d="M131.3 1793.7h89.3v8.7h-80v80.5h77.9v8.7h-77.9v86.1h80v8.6h-89.3zm173.6 103.1l-52.3 89.5h-11.3l58.4-98.2-55.2-94.4h11.6l48.8 85.2 48.8-85.2h11.5l-55.1 94.2 58.3 98.4h-11.2zm91.2-103.1h48c31.5 0 47.6 25.1 47.6 54.6s-16.4 54.6-47.6 54.6h-38.7v83.4h-9.3zm47.7 8.7h-38.4v91.8h38.4c24.3 0 37.8-19.3 37.8-45.9s-13.5-45.9-37.8-45.9zm142.4-11.9c43.9 0 66.7 45.1 66.7 99.7s-22.8 99.6-66.7 99.6-66.7-45-66.7-99.6 22.8-99.7 66.7-99.7zm0 8.7c-36.7 0-56.6 40.4-56.6 91s19.9 90.9 56.6 90.9 56.6-41 56.6-90.9-19.9-91-56.6-91z"/><path fill="#462600" d="M202 2926.5h-10c-.5 0-.7.2-.7.6v61c0 .5.2.6.7.6h10c.5 0 .6-.1.6-.6v-11.4a.9.9 0 0 1 1-.9h11c.6 0 1 .3 1 .9v12.3c0 7.6-2.7 12-12.3 12H191c-9.8 0-12.6-4.4-12.6-11.7v-63.1c0-7.6 3.3-12 12.3-12h12.5c9.1 0 12.4 4.4 12.4 11.8v11.4c0 .6-.4.9-1 .9h-11a.9.9 0 0 1-1-.9v-10.3c0-.4-.1-.6-.6-.6zm20.9 62.8v-63.1c0-7.6 3.3-12 12.4-12h12.4c9.1 0 12.4 4.4 12.4 11.8v63c0 7.6-2.7 12-12.2 12h-12.4c-9.8 0-12.6-4.4-12.6-11.7zm23.6-62.8h-10c-.5 0-.6.2-.6.6v61c0 .5.1.6.6.6h10c.5 0 .6-.1.6-.6v-61c0-.4-.1-.6-.6-.6zm36.3 36.6v36.3c0 .8-.3 1-.9 1h-11a.9.9 0 0 1-1-1v-83.6a.9.9 0 0 1 1-1h22.7a1 1 0 0 1 1 1v10.4c0 .6-.5.8-1 .8h-10.8v23.8h10.4a.9.9 0 0 1 1 .9v10.4a.9.9 0 0 1-1 1zm31.7 0v36.3c0 .8-.3 1-1 1h-11a.9.9 0 0 1-.9-1v-83.6c0-.6.3-1 .9-1h22.8a1 1 0 0 1 1 1v10.4c0 .6-.5.8-1 .8h-10.8v23.8h10.4a.9.9 0 0 1 1 .9v10.4a.9.9 0 0 1-1 1zm19.7 37.3a1 1 0 0 1-1-1v-83.6a.9.9 0 0 1 1-1H357a.9.9 0 0 1 .9 1v10.4c0 .6-.4.8-.9.8h-10.8v23.8H357a.8.8 0 0 1 .9.9v10.4c0 .8-.4 1-.9 1h-10.8v25H357a.8.8 0 0 1 .9.8v10.5c0 .8-.4 1-.9 1zm33.3 0a.9.9 0 0 1-1-1v-83.6a.9.9 0 0 1 1-1h22.7a1 1 0 0 1 1 1v10.4c0 .6-.5.8-1 .8h-10.7v23.8h10.7a.9.9 0 0 1 1 .9v10.4a.9.9 0 0 1-1 1h-10.7v25h10.7a.9.9 0 0 1 1 .8v10.5a.9.9 0 0 1-1 1z"/><path fill="#6b4019" d="M178 3015.4h18.9v3.9h-14.5v12.2h14.1v3.9h-14.1v13h14.5v3.9H178zm32.8 26.2l-6.1 10.7h-4.5l8.2-13.6-7.7-13.1h4.4l5.7 10.2 5.7-10.2h4.4l-7.7 13.1 8.1 13.6h-4.4zm14.9 20.9v-36.9h3.9v3.8a8.3 8.3 0 0 1 7-4.5c6 0 9.6 5.6 9.6 14s-3.6 14.1-9.6 14.1a8.1 8.1 0 0 1-7-4.6v14.1zm9.9-34a7.1 7.1 0 0 0-6 4.3v12.2c1 2.3 3.5 4.4 6 4.4 4.4 0 6.4-4.7 6.4-10.5s-2-10.4-6.4-10.4zm15.2 10.4c0-7.5 3.8-14 10.8-14s10.9 6.5 10.9 14-3.7 14.1-10.9 14.1-10.8-6.6-10.8-14.1zm17.6 0c0-5.3-2.1-10.4-6.8-10.4s-6.7 5.1-6.7 10.4 2.1 10.5 6.7 10.5 6.8-5.1 6.8-10.5zm22.2-23.5h4.4v36.9h-4.4zm26.3 17.9c0-3.5-1.6-4.8-4.2-4.8s-5 2-6.3 4.2v19.6h-3.9v-26.7h3.9v3.8c1.6-2.3 4.6-4.5 7.8-4.5s6.7 2.5 6.7 7.3v20.1h-4zm21-8.4a9.2 9.2 0 0 1 7.7 3.6l-2.2 2.7a6 6 0 0 0-5.1-2.7c-4.8 0-7.3 4.7-7.3 10.4s2.5 10.5 7.3 10.5a6 6 0 0 0 5.1-2.7l2.2 2.7a9.2 9.2 0 0 1-7.7 3.6c-6.8 0-11-6.2-11-14.1s4.2-14 11-14zm15.4 22a3.1 3.1 0 0 1 3 3 3 3 0 0 1-3 2.9 2.9 2.9 0 0 1-2.9-2.9 3 3 0 0 1 2.9-3z"/><ellipse cx="112.8" cy="2980" fill="#462600" rx="72.9" ry="38.2" transform="rotate(-72 113.335 2980.698)"/><path fill="#6b4019" d="M134.7 2912.4c-72.2 54.7-7.3 105.5-43.7 134.8 46.7-23 .6-74.3 43.7-134.8z"/><g clip-path="url(#b)"><g fill="#231f20" clip-path="url(#c)"><path d="M403.6 2762.9a20.4 20.4 0 0 1-3.5-11.7v-.2c0-10.9 8-19.8 19.5-19.8h.2c11.6 0 19.6 8.9 19.6 19.8v.2a23.2 23.2 0 0 1-1.9 9.4l-4-3.5-8.9 10.2c7.8 1.3 15.8 2.3 24.1 2.9a32.4 32.4 0 0 0 5.7-18.5v-.2c0-18.6-14.4-33.6-34.6-33.6s-34.8 15.2-34.8 33.8v.2a34.3 34.3 0 0 0 .5 5.6c5.8 2 11.8 3.8 18.1 5.4m100.1 7.3l13.3-1.4a38.8 38.8 0 0 0 2-12.9V2719h-14.3v37.4c0 7.2-2.6 12-7.1 14.2l6.1-.4m39.8-5.6V2719h-14.4v48.1c4.9-.7 9.7-1.6 14.4-2.5m25.4-6.3v-15.5l9.6 12.6c4.6-1.5 9.1-3.2 13.5-4.9l-24-31.5h-13.2v43.1c4.8-1.2 9.5-2.4 14.1-3.8m-83.9 12.9c-5.4-2-8.5-7.1-8.5-15.2v-37h-14.4v37.3a35 35 0 0 0 2.9 14.9c6.5.2 13.2.2 20 0m69.8-2.7v15.8h14.1V2766c-4.6.9-9.4 1.8-14.1 2.5m-25.7 3.5v12.3h14.4v-14.1q-7.2 1.1-14.4 1.8m-15 1.4c-16.1 1.2-31.9 1.7-47.1 1.4 4.8 7 12.9 10.5 23.4 10.5s19.8-3.9 24.5-12h-.8m-97.2-2.2h-.4c-9.9-1.3-19.4-3-28.4-5 5.2 11.5 16.9 19.4 31.5 19.4a35.5 35.5 0 0 0 19.5-5.7l10.3 9.3 9.2-10.5-4.9-4.1c-12.8-.6-25.1-1.7-36.8-3.3m181.7-12q-7.1 2-14.4 3.6l16.4 21.5h12.2v-29.1c-4.6 1.4-9.4 2.7-14.2 4m0-40.2v28.9c4.9-2.1 9.6-4.2 14.2-6.5V2719zm-420.3 19.8c5-.3 10-.6 15-.7a17.7 17.7 0 0 1 14-6.9c7.6 0 12.1 2.4 17.1 6.6l9-10.9c-6.8-5.8-13.8-9-25.6-9-15 0-26.9 8.7-31.8 21h2.3m82.1.8a18.8 18.8 0 0 1 16.1-8.5 19.3 19.3 0 0 1 18.5 13c5.5.9 10.9 2 16.1 3.2-2-16.6-15.8-29.5-34.4-29.5-15.1 0-27.1 8.5-32.2 20.6q8.1.5 15.9 1.2m-113.3 1.8V2719h-14.4v24.4l14.4-1.9m215.6 17.7l-30.5-40.2h-13.3v30.2c5 1.3 9.7 2.7 14.2 4.1v-10.5l31.6 41.5h12.2v-21c-4.9-1.2-9.6-2.6-14.2-4.1zm-43.8 25.1h14.2v-19.2c-4.5-2.2-9.2-4.2-14.2-6.1zm43.8-65.3v28.9c4.5 2.3 9.3 4.4 14.2 6.4V2719zm-66.4 32.6v.2c0 11.2-8 20.3-19.6 20.3s-19.8-9.3-19.8-20.5v-.2a22.6 22.6 0 0 1 1.3-7.4c-5-.6-10-1.2-15-1.6a31 31 0 0 0-1.3 9.2v.2c0 18.5 14.5 33.5 34.6 33.5 18.5 0 32.4-12.8 34.5-29.3q-7-2.4-14.7-4.5m-88.9 7.6h14.5v9.4a23.1 23.1 0 0 1-13.5 3.9c-11.6 0-19.8-8.8-19.8-20.7v-.2a21.8 21.8 0 0 1 2.2-9.6l-8.1.6-8.1.7a33.6 33.6 0 0 0-1 8.5v.2c0 19.3 14 33.5 34.3 33.5a42.4 42.4 0 0 0 27.9-10.3v-28.4h-28.4zm-60.3-12.1c-4.9.8-9.7 1.7-14.4 2.8v34.5h40.8v-13.5h-26.4zm-82.5 25.8l-4.9 11.5h14.6l5.5-13.5h28.6l5.5 13.5h15l-13-30.5a285.3 285.3 0 0 0-51.3 19m22.9-20.9l6.6-16.1 5.5 13.4 13.2-2.6-11.9-28H87.7l-16 37.4c5.1-1.4 10.4-2.8 15.8-4.1m265.8 62.5c0-10.9 8.1-19.7 19.7-19.7a19.9 19.9 0 0 1 14.9 5.9l-4.3 4.9c-3.1-2.8-6.3-4.7-10.7-4.7-7.3 0-12.5 6-12.5 13.4v.2c0 7.4 5.2 13.5 12.5 13.5 4.7 0 7.7-1.9 11-5l4.3 4.4c-4 4.1-8.4 6.7-15.5 6.7a19.1 19.1 0 0 1-19.4-19.5m38.4-.1a19.5 19.5 0 0 1 19.9-19.7c11.7 0 19.9 8.8 19.9 19.5v.2c0 10.7-8.3 19.6-20 19.6s-19.8-8.8-19.8-19.5m32.8 0c0-7.5-5.4-13.6-13-13.6s-12.8 6-12.8 13.4v.2c0 7.4 5.4 13.5 12.9 13.5s12.9-6 12.9-13.4m13.9-19.4h6.7v32h20v6.1h-26.7v-38.1zm33.7 0h6.6v32h20.1v6.1h-26.7v-38.1zm33.6 0h28.2v6h-21.5v9.9h19.1v6h-19.1v10.2h21.8v6h-28.5v-38.1zm34.3 19.2a19.3 19.3 0 0 1 19.6-19.7c6.6 0 10.7 1.8 14.6 5.1l-4.2 5.1a14.9 14.9 0 0 0-10.7-4.1c-7 0-12.3 6.1-12.3 13.4v.2c0 7.8 5.1 13.6 12.9 13.6a15.7 15.7 0 0 0 9.2-2.9v-7.2h-9.7v-5.9h16.2v16a24.3 24.3 0 0 1-15.9 5.9c-11.9 0-19.7-8.4-19.7-19.5m44.3-19.2h28.2v6H591v9.9h19.1v6H591v10.2h21.8v6h-28.5v-38.1z"/><path d="M403.6 2762.9a20.4 20.4 0 0 1-3.5-11.7v-.2c0-10.9 8-19.8 19.5-19.8h.2c11.6 0 19.6 8.9 19.6 19.8v.2a23.2 23.2 0 0 1-1.9 9.4l-4-3.5-8.9 10.2c7.8 1.3 15.8 2.3 24.1 2.9a32.4 32.4 0 0 0 5.7-18.5v-.2c0-18.6-14.4-33.6-34.6-33.6s-34.8 15.2-34.8 33.8v.2a34.3 34.3 0 0 0 .5 5.6c5.8 2 11.8 3.8 18.1 5.4m100.1 7.3l13.3-1.4a38.8 38.8 0 0 0 2-12.9V2719h-14.3v37.4c0 7.2-2.6 12-7.1 14.2l6.1-.4m39.8-5.6V2719h-14.4v48.1c4.9-.7 9.7-1.6 14.4-2.5m25.4-6.3v-15.5l9.6 12.6c4.6-1.5 9.1-3.2 13.5-4.9l-24-31.5h-13.2v43.1c4.8-1.2 9.5-2.4 14.1-3.8m-83.9 12.9c-5.4-2-8.5-7.1-8.5-15.2v-37h-14.4v37.3a35 35 0 0 0 2.9 14.9c6.5.2 13.2.2 20 0m69.8-2.7v15.8h14.1V2766c-4.6.9-9.4 1.8-14.1 2.5m-25.7 3.5v12.3h14.4v-14.1q-7.2 1.1-14.4 1.8m-15 1.4c-16.1 1.2-31.9 1.7-47.1 1.4 4.8 7 12.9 10.5 23.4 10.5s19.8-3.9 24.5-12h-.8m-97.2-2.2h-.4c-9.9-1.3-19.4-3-28.4-5 5.2 11.5 16.9 19.4 31.5 19.4a35.5 35.5 0 0 0 19.5-5.7l10.3 9.3 9.2-10.5-4.9-4.1c-12.8-.6-25.1-1.7-36.8-3.3m181.7-12q-7.1 2-14.4 3.6l16.4 21.5h12.2v-29.1c-4.6 1.4-9.4 2.7-14.2 4m0-40.2v28.9c4.9-2.1 9.6-4.2 14.2-6.5V2719zm-420.3 19.8c5-.3 10-.6 15-.7a17.7 17.7 0 0 1 14-6.9c7.6 0 12.1 2.4 17.1 6.6l9-10.9c-6.8-5.8-13.8-9-25.6-9-15 0-26.9 8.7-31.8 21h2.3m82.1.8a18.8 18.8 0 0 1 16.1-8.5 19.3 19.3 0 0 1 18.5 13c5.5.9 10.9 2 16.1 3.2-2-16.6-15.8-29.5-34.4-29.5-15.1 0-27.1 8.5-32.2 20.6q8.1.5 15.9 1.2m-113.3 1.8V2719h-14.4v24.4l14.4-1.9m215.6 17.7l-30.5-40.2h-13.3v30.2c5 1.3 9.7 2.7 14.2 4.1v-10.5l31.6 41.5h12.2v-21c-4.9-1.2-9.6-2.6-14.2-4.1zm-43.8 25.1h14.2v-19.2c-4.5-2.2-9.2-4.2-14.2-6.1zm43.8-65.3v28.9c4.5 2.3 9.3 4.4 14.2 6.4V2719zm-66.4 32.6v.2c0 11.2-8 20.3-19.6 20.3s-19.8-9.3-19.8-20.5v-.2a22.6 22.6 0 0 1 1.3-7.4c-5-.6-10-1.2-15-1.6a31 31 0 0 0-1.3 9.2v.2c0 18.5 14.5 33.5 34.6 33.5 18.5 0 32.4-12.8 34.5-29.3q-7-2.4-14.7-4.5m-88.9 7.6h14.5v9.4a23.1 23.1 0 0 1-13.5 3.9c-11.6 0-19.8-8.8-19.8-20.7v-.2a21.8 21.8 0 0 1 2.2-9.6l-8.1.6-8.1.7a33.6 33.6 0 0 0-1 8.5v.2c0 19.3 14 33.5 34.3 33.5a42.4 42.4 0 0 0 27.9-10.3v-28.4h-28.4zm-60.3-12.1c-4.9.8-9.7 1.7-14.4 2.8v34.5h40.8v-13.5h-26.4zm-82.5 25.8l-4.9 11.5h14.6l5.5-13.5h28.6l5.5 13.5h15l-13-30.5a285.3 285.3 0 0 0-51.3 19m22.9-20.9l6.6-16.1 5.5 13.4 13.2-2.6-11.9-28H87.7l-16 37.4c5.1-1.4 10.4-2.8 15.8-4.1"/></g></g><path fill="url(#d)" d="M1668.1 777.8h-111.3l1.5-57.7c0-13.6-554.1-13.6-554.1 0l11 547.8c0 13.1 26.6 22.7 77.5 36 104.7 27.5 272.4 27.9 374.4 0 50.7-13.9 77.5-22.9 77.5-36l3.6-145.6h119.9c19.9 0 36.1-15.8 36.1-35.2v-274c0-19.5-16.2-35.3-36.1-35.3zM1653 886v153.8c0 19.5-7.7 24.2-29.6 24.2h-73.7l5.2-209.3h68.5c34.3 0 29.6 9.9 29.6 31.3z"/><path fill="#462600" d="M1225.4 920.6H1211c-.7 0-.8.2-.8.9v85.4c0 .7.1.8.8.8h14.4c.7 0 .9-.1.9-.8v-16a1.3 1.3 0 0 1 1.4-1.2h15.8c.9 0 1.4.4 1.4 1.2v17.3c0 10.7-3.9 16.9-17.6 16.9h-17.7c-14 0-18-6.2-18-16.5v-88.5c0-10.6 4.7-16.8 17.7-16.8h17.9c12.9 0 17.7 6.2 17.7 16.6v16c0 .8-.5 1.2-1.4 1.2h-15.8a1.3 1.3 0 0 1-1.4-1.2v-14.4c0-.7-.2-.9-.9-.9zm30 88v-88.5c0-10.6 4.7-16.8 17.7-16.8h17.9c13 0 17.7 6.2 17.7 16.6v88.3c0 10.7-3.9 16.9-17.5 16.9h-17.7c-14.1 0-18.1-6.2-18.1-16.5zm33.8-88h-14.3c-.7 0-.9.2-.9.9v85.4c0 .7.2.8.9.8h14.3c.7 0 .9-.1.9-.8v-85.4c0-.7-.2-.9-.9-.9zm52.1 51.3v50.9a1.2 1.2 0 0 1-1.4 1.4h-15.8a1.4 1.4 0 0 1-1.4-1.4V905.5a1.3 1.3 0 0 1 1.4-1.3h32.7a1.3 1.3 0 0 1 1.4 1.3v14.6c0 .9-.7 1.2-1.4 1.2h-15.5v33.3h14.9a1.3 1.3 0 0 1 1.4 1.3v14.6a1.3 1.3 0 0 1-1.4 1.4zm45.4 0v50.9a1.2 1.2 0 0 1-1.4 1.4h-15.8a1.4 1.4 0 0 1-1.4-1.4V905.5a1.3 1.3 0 0 1 1.4-1.3h32.7a1.3 1.3 0 0 1 1.4 1.3v14.6c0 .9-.7 1.2-1.4 1.2h-15.5v33.3h14.9a1.3 1.3 0 0 1 1.4 1.3v14.6a1.3 1.3 0 0 1-1.4 1.4zm28.3 52.3a1.3 1.3 0 0 1-1.4-1.4V905.5a1.2 1.2 0 0 1 1.4-1.3h32.6a1.3 1.3 0 0 1 1.4 1.3v14.6c0 .9-.7 1.2-1.4 1.2h-15.5v33.3h15.5a1.3 1.3 0 0 1 1.4 1.3v14.6a1.3 1.3 0 0 1-1.4 1.4h-15.5v35h15.5a1.3 1.3 0 0 1 1.4 1.2v14.7a1.3 1.3 0 0 1-1.4 1.4zm47.7 0a1.3 1.3 0 0 1-1.4-1.4V905.5a1.2 1.2 0 0 1 1.4-1.3h32.6a1.3 1.3 0 0 1 1.4 1.3v14.6c0 .9-.7 1.2-1.4 1.2h-15.5v33.3h15.5a1.3 1.3 0 0 1 1.4 1.3v14.6a1.3 1.3 0 0 1-1.4 1.4h-15.5v35h15.5a1.3 1.3 0 0 1 1.4 1.2v14.7a1.3 1.3 0 0 1-1.4 1.4z"/><path fill="#6b4019" d="M1191 1045.2h27.2v5.5h-20.9v17.1h20.3v5.4h-20.3v18.2h20.9v5.5H1191zm47 36.7l-8.8 15h-6.3l11.6-19-11-18.4h6.4l8.1 14.2 8.2-14.2h6.3l-11 18.4 11.7 19h-6.4zm21.3 29.3v-51.7h5.7v5.3a11.8 11.8 0 0 1 10-6.2c8.7 0 13.7 7.8 13.7 19.6s-5 19.6-13.7 19.6a11.4 11.4 0 0 1-10-6.3v19.7zm14.3-47.7c-3.6 0-7.1 2.8-8.6 6.1v17.1c1.5 3.2 5 6.2 8.6 6.2 6.3 0 9.2-6.6 9.2-14.7s-2.9-14.7-9.2-14.7zm21.8 14.7c0-10.6 5.4-19.6 15.5-19.6s15.6 9 15.6 19.6-5.3 19.6-15.6 19.6-15.5-9.1-15.5-19.6zm25.2 0c0-7.6-2.9-14.7-9.7-14.7s-9.6 7.1-9.6 14.7 3 14.7 9.6 14.7 9.7-7.1 9.7-14.7zm31.8-33h6.4v51.7h-6.4zm37.8 25.1c0-5-2.3-6.8-6.1-6.8s-7.2 2.9-8.9 6v27.4h-5.7v-37.4h5.7v5.3c2.2-3.2 6.4-6.2 11-6.2 6.5 0 9.7 3.4 9.7 10.1v28.2h-5.7zm30.1-11.7c5.3 0 8.6 2 10.9 4.9l-3 3.8a8.8 8.8 0 0 0-7.4-3.8c-6.8 0-10.4 6.7-10.4 14.7s3.6 14.7 10.4 14.7a9.1 9.1 0 0 0 7.4-3.8l3 3.8c-2.3 2.9-5.6 4.9-10.9 4.9-9.8 0-15.8-8.6-15.8-19.6s6-19.6 15.8-19.6zm22 30.8a4.2 4.2 0 1 1 0 8.3 4.2 4.2 0 1 1 0-8.3z"/><ellipse cx="1105.5" cy="972.6" fill="#462600" rx="76.4" ry="40.8" transform="rotate(-71.3 1106.366 972.699)"/><path fill="#6b4019" d="M1128.9 901.9c-77.2 57.1-7.7 110.4-46.7 141 50-24.1.6-77.7 46.7-141zM165.1 2019.4c24.5 0 41.4 18.2 41.4 42.6s-16.9 42.6-41.4 42.6-41.5-18.1-41.5-42.6 16.9-42.6 41.5-42.6zm0 11c-17.7 0-28.8 13.5-28.8 31.6s11.1 31.7 28.8 31.7 28.7-13.6 28.7-31.7-11.3-31.6-28.7-31.6zm73.3 1.3h-25.6v-10.9h63.4v10.9h-25.5v71.5h-12.3zm70.8 0h-25.6v-10.9h63.3v10.9h-25.4v71.5h-12.3zm94.5 54.4h-40.3l-6.7 17.1h-13.6l32.7-82.4h15.5l32.7 82.4h-13.6zm-36.8-11h33.3l-16.7-43.6zm107.2-35.5l-17 63.6h-13.2l-23.6-82.4h13.8l17 66.1 18.1-66.1h10l17.9 66.1 17-66.1H528l-23.5 82.4h-13.2zm110.8 46.5h-40.4l-6.7 17.1h-13.6l32.8-82.4h15.4l32.7 82.4h-13.6zm-36.8-11h33.2l-16.7-43.6z"/></svg>