<svg xmlns="http://www.w3.org/2000/svg" width="5in" height="5in" viewBox="0 0 360 360"><path fill="#aa7c90" stroke="#843d62" stroke-linecap="round" stroke-linejoin="round" stroke-width="2" d="M335.3 162.3c1.4-42.7-34.2-44.4-44.1-44.4-26.2 0-31.8 44.4-9.9 44.4-12.7-17.7 24.2-29.2 24.2 0 0 12.4-4.8 35.2-28.6 35.2s-20.8-29.8-48-29.8c-12 0-21 9.7-21 21.6a21.7 21.7 0 0 0 21.7 21.7c21.6 0 22.4 20.3 48 19.5 31.3 0 56.3-25.2 57.7-68.2z"/><path fill="#f37f7e" d="M281.3 162.3c-16.3-12.8 3.5-54.2 33.1-23.7s-17.4 103.6-65.2 64c-21.8-17.2-39 9.4-39 9.4s-15.3-38.4 15.7-44.2 27.6 31.1 52.3 29.6 25.6-26.5 24.4-39.8-31.5-15.8-21.3 4.7z"/><path fill="#843d62" d="M281.3 162.3c-11.1-11 .5-36.7 22.3-14.9 26.8 26.8-11.3 80.2-59.1 40.6-21.8-17.2-34.3 24-34.3 24s-15.3-38.4 15.7-44.2 27.6 31.1 52.3 29.6 27.3-29.4 22.4-40c-6.1-13.3-27.6-12.2-19.3 4.9z"/><path fill="#fbc5ab" stroke="#843d62" stroke-linecap="round" stroke-linejoin="round" d="M225.4 255.9a61.7 61.7 0 0 0-48.5-98.4 16.4 16.4 0 0 0-12.6-2.6 57.2 57.2 0 0 0-14.2-30.6c21.5-6.8 35.6-29.8 11.3-45 2.2 5.9-6 30.6-19.1 37.8a56.8 56.8 0 0 0-64-3.1c-11.4-1.9-20.5-14.6-17.6-28.9-15.7 3.4-12.5 32 8.6 35.7A57.4 57.4 0 0 0 53 148.1c-5.9 13.5-7 32.9-3 53.1-11.6 2.4-24.7 7.1 4.3 16.5 12.2 36.3 41.1 70.3 87.9 71.2 5.7 7.4 11.9 19.3 16.1 19.3s8.9-13.9 11.9-22.5a156.3 156.3 0 0 0 22.8-7.2c5.7-1.7 19.1-9.4 20.2-10.2 9.6 1.5 17.3-1.6 19.8-4.1s-3-5.2-7.6-8.3z"/><ellipse cx="120.9" cy="133.3" fill="#6c6676" rx="4.4" ry="7.7"/><ellipse cx="66" cy="137.5" fill="#6c6676" rx="3.3" ry="5.8"/><ellipse cx="140.9" cy="152" fill="#f37f7e" rx="11.6" ry="5.6"/><ellipse cx="52.3" cy="152" fill="#f37f7e" rx="8" ry="3.9"/><path fill="none" stroke="#843d62" stroke-linecap="round" stroke-linejoin="round" d="M108.2 147.4c-10.3 10.3-24.9 14.6-36.7 3.3"/><path fill="#fbc9c2" stroke="#843d62" stroke-linecap="round" stroke-linejoin="round" d="M88 175.1c13.4 0 19.7-23.1 20.2-27.7-10.6 10.6-23.2 14.7-34.8 5 1.6 11.1 3.1 22.7 14.6 22.7z"/><path fill="#b61847" d="M101.3 165.1c-9-5.2-20.8-3.3-23.6 3.3a10.4 10.4 0 0 0 10 6.3c5.1 0 9.6-2.4 13.6-9.6z"/><path fill="none" stroke="#843d62" stroke-linecap="round" stroke-linejoin="round" d="M213.2 268.3l-5.9-1m-37.1 18.4a65.9 65.9 0 0 1-28 3.2m-15.6-96.5c-19 3.3-31.3 12.5 2.6 15.2"/><path fill="none" stroke="#843d62" stroke-miterlimit="10" d="M50 201.2l4.3 16.5"/><path fill="none" stroke="#843d62" stroke-linecap="round" stroke-linejoin="round" d="M164.3 154.9c1.3 4.5 1.3 8.6-.5 12.2m13.1-9.6a22 22 0 0 1 9.7 11.5"/><g stroke-miterlimit="10"><path fill="#a06c83" stroke="#843d62" d="M105.3 118.1c5.3-4.5 7.5-13.3 5.2-17.4-5.1-9-11.1-.1-16.4 4.4s-7 11.1-4 14.7 9.9 2.8 15.2-1.7z"/><path fill="#f7a39e" stroke="#f37f7e" d="M104.5 88.3c3.1 1.3 5.9 14.2-5.8 23.5s-17.3-7.5-3.6-17.6c7.3-5.9 8.6-6.2 9.4-5.9z"/><path fill="#a06c83" stroke="#843d62" d="M97.9 99.4c8.7-7.3 9.1-19.5 4.9-21.9s-5.5 5.4-6.8 6.7-4.2 3.5-5.9 5.1c-6.8 6.1-3.3 18.4 7.8 10.1z"/><path fill="#f7a39e" stroke="#f37f7e" d="M97.8 88.2c11-9.6 4.4-18.2 3.4-16.1-1.8 4-15.3 8.5-13.5 17.6.8 4.4 7.6.3 10.1-1.5z"/><path fill="#a06c83" stroke="#843d62" d="M96.9 60.1c5.5-1.4 7.8 14.1-.3 21.2s-9.1-3.9-3.7-8.8 1.3-11.7 4-12.4z"/></g></svg>