<svg id="icon-head" xmlns="http://www.w3.org/2000/svg" width="5in" height="5in" viewBox="0 0 360 360"><title>icon-head</title><path d="M283.1,231.3l.9-4.2a106.3,106.3,0,1,0-201.2,0,20.5,20.5,0,0,0,.5,2.4C50.6,211.3,47.1,270.3,99,279.4c15.5,36.8,41.5,71.4,84.4,71.4s68.6-34.3,84.2-71C323.8,272.2,319,207.4,283.1,231.3Z" fill="#fee9dc"/><path d="M178.6,93.7C145.4,41.2,140.6.8,212.7,6.1s36.1,86.1,12,92.9S178.6,93.7,178.6,93.7Z" fill="#895e28"/><path d="M222.3,139c21.3-58.8,12.7-71.1,0-75.8S66.5,59.6,66.5,197.8C98.6,219.8,218,168.2,222.3,139Z" fill="#98682f"/><path d="M235,90.3c-2.6,76.5-37.9,177.1-177.9,129.5-20.3-9.2-13-46.5-4.3-51.2C56.4,190.9,68,188,68,188S219.8,196,235,90.3Z" fill="#a77236"/><path d="M235,177.2c-4.2-24.2-8-85.8,0-93.8s95.5,41.2,65.6,133.5C258.8,240.4,235,177.2,235,177.2Z" fill="#98682f"/><path d="M230.3,111.2c-5,55.2-6.5,115.2,53,118.2,28.9,0,40-20.8,40-20.8C281.9,222,237.1,199.9,230.3,111.2Z" fill="#a77236"/><path d="M158.2,258.8c-13.7,8.4-36.7,10-47.2-1.8-4.6,1.4-5.7.3-5.7.3a4.8,4.8,0,0,0,4.3,2.4c3,9.4,37.7,14.5,50-.3Z" fill="#51423a"/><path d="M213.4,258.8c13.7,8.4,36.8,10,47.3-1.8,4.5,1.4,5.6.3,5.6.3a4.8,4.8,0,0,1-4.2,2.4c-3,9.4-37.7,14.5-50-.3Z" fill="#51423a"/><path d="M167.7,226.1c-22.3-3.8-46.1-1.8-71.2,5a7.9,7.9,0,0,0-5.9,7.6v27.4a25,25,0,0,0,21.8,24.8,160,160,0,0,0,39.7.3,25.1,25.1,0,0,0,22.2-24.8V233.9A7.9,7.9,0,0,0,167.7,226.1Z" fill="#6fb5bf" opacity="0.4"/><path d="M197.4,233.9v32.5a25,25,0,0,0,22.2,24.8,159.2,159.2,0,0,0,39.6-.3,25,25,0,0,0,21.9-24.8V238.7a7.9,7.9,0,0,0-6-7.6c-25-6.8-48.8-8.8-71.1-5A7.9,7.9,0,0,0,197.4,233.9Z" fill="#6fb5bf" opacity="0.4"/><path d="M167.7,226.1c-22.3-3.8-46.1-1.8-71.2,5a7.9,7.9,0,0,0-5.9,7.6v27.4a25,25,0,0,0,21.8,24.8,160,160,0,0,0,39.7.3,25.1,25.1,0,0,0,22.2-24.8V233.9A7.9,7.9,0,0,0,167.7,226.1Zm1,39.2a21.7,21.7,0,0,1-19.2,21.5,146.7,146.7,0,0,1-34.4-.2,21.7,21.7,0,0,1-18.9-21.5V241.4a7,7,0,0,1,5.1-6.7c21.7-5.8,42.4-7.6,61.7-4.3a6.9,6.9,0,0,1,5.7,6.8Z" fill="#231f20"/><path d="M197.4,249.8c-4.2-2.1-24.7-3-26.7,0v-4.3s17.8-3.4,26.7,0S197.4,249.8,197.4,249.8Z" fill="#231f20"/><path d="M165.3,227.3c-22.3-3.8-46.1-1.8-71.1,5a7.8,7.8,0,0,0-5.9,7.6v27.4a24.9,24.9,0,0,0,21.8,24.8,164.1,164.1,0,0,0,39.6.3,25,25,0,0,0,22.2-24.9V235.1A7.9,7.9,0,0,0,165.3,227.3Zm1,39.1A21.7,21.7,0,0,1,147.1,288a140.7,140.7,0,0,1-34.3-.3,21.6,21.6,0,0,1-18.9-21.5V242.5a6.8,6.8,0,0,1,5.1-6.6c21.7-5.9,42.3-7.6,61.6-4.3a6.8,6.8,0,0,1,5.7,6.7Z" fill="#414042"/><path d="M197.4,233.9v32.5a25,25,0,0,0,22.2,24.8,159.2,159.2,0,0,0,39.6-.3,25,25,0,0,0,21.9-24.8V238.7a7.9,7.9,0,0,0-6-7.6c-25-6.8-48.8-8.8-71.1-5A7.9,7.9,0,0,0,197.4,233.9Zm5.6,3.3a6.9,6.9,0,0,1,5.7-6.8c19.3-3.3,39.9-1.5,61.6,4.3a7,7,0,0,1,5.1,6.7v23.7a21.7,21.7,0,0,1-18.9,21.5,145.8,145.8,0,0,1-34.3.2A21.7,21.7,0,0,1,203,265.3Z" fill="#231f20"/><path d="M195.7,235.1v32.4a25.1,25.1,0,0,0,22.2,24.9,164.9,164.9,0,0,0,39.7-.3,24.9,24.9,0,0,0,21.8-24.8V239.9a7.8,7.8,0,0,0-5.9-7.6c-25-6.8-48.8-8.8-71.1-5A7.9,7.9,0,0,0,195.7,235.1Zm5.7,3.2a6.8,6.8,0,0,1,5.7-6.7c19.3-3.3,39.9-1.6,61.6,4.3a6.8,6.8,0,0,1,5.1,6.6v23.7a21.6,21.6,0,0,1-18.9,21.5,140.7,140.7,0,0,1-34.3.3,21.7,21.7,0,0,1-19.2-21.6Z" fill="#414042"/><path d="M197.4,251.3c-4.2-2.2-24.7-3.1-26.7,0v-4.4s17.8-3.4,26.7,0S197.4,251.3,197.4,251.3Z" fill="#414042"/><path d="M164.5,299.8c4.3,4.3,20.2,11.4,31.2,6C191.8,311.6,172.1,311.7,164.5,299.8Z" fill="#e7acce"/></svg>