<svg xmlns="http://www.w3.org/2000/svg" width="5in" height="5in" viewBox="0 0 360 360"><title>icon-cloud-dots</title><g id="Cloud_with_dots" data-name="Cloud with dots"><path d="M87.3,72.8C63.6,49.1,131.5,4.3,172.5,26.7c12.2-42.9,108.9-14.8,108.9,36.5,26.6-26.6,72.4,63.4,37.8,82.6,14.8,14.8-8.9,69.2-47.4,53.2,20.5,14.7-64.7,75-85.8,25-26.3,18.6-85.2,0-77.5-20.5C75.2,215,55.9,192,61.7,176.6,33.5,172.7,34.2,140,50.8,132,22.5,103.7,47,63.2,87.3,72.8Z" fill="#c7d2d1"/><path d="M77.1,80.2c-23.7-23.7,44.2-68.5,85.2-46.1C174.5-8.8,271.2,19.4,271.2,70.6c26.6-26.6,72.4,63.5,37.8,82.7,14.7,14.7-9,69.2-47.4,53.1,20.5,14.8-64.7,75-85.9,25-26.2,18.6-85.2,0-77.5-20.5C64.9,222.5,45.7,199.4,51.5,184c-28.2-3.8-27.6-36.6-10.9-44.5C12.2,111.1,36.7,70.6,77.1,80.2Z" fill="#f4f4f5"/><ellipse cx="58.3" cy="257.1" rx="19.3" ry="19.5" fill="#c7d2d1"/><ellipse cx="56.5" cy="258.5" rx="19.3" ry="19.5" fill="#f4f4f5"/><ellipse cx="84.5" cy="303.2" rx="14.3" ry="14.5" fill="#c7d2d1"/><ellipse cx="83.1" cy="304.2" rx="14.3" ry="14.5" fill="#f4f4f5"/><ellipse cx="94.8" cy="342.1" rx="11.3" ry="11.4" fill="#c7d2d1"/><ellipse cx="93.7" cy="342.9" rx="11.3" ry="11.4" fill="#f4f4f5"/></g></svg>