<svg xmlns="http://www.w3.org/2000/svg" width="5in" height="5in" viewBox="0 0 360 360"><title>icon-cloud</title><g id="Cloud"><path d="M76.3,117.9c-26.6-26.5,49.4-76.7,95.3-51.6,13.7-48.1,121.9-16.5,121.9,40.8,29.8-29.7,81.1,71,42.4,92.5,16.4,16.5-10.1,77.5-53.1,59.6,22.9,16.4-72.4,83.9-96.1,27.9-29.4,20.8-95.4,0-86.8-22.9-37.3,12.9-58.8-12.9-52.3-30.1-31.6-4.3-30.8-41-12.2-49.9C3.7,152.5,31.1,107.1,76.3,117.9Z" fill="#c7d2d1"/><path d="M64.8,126.2c-26.5-26.5,49.5-76.7,95.4-51.6,13.6-48.1,121.9-16.5,121.9,40.9,29.7-29.8,81,71,42.3,92.5,16.5,16.5-10.1,77.4-53.1,59.5,23,16.5-72.4,83.9-96.1,28-29.4,20.7-95.3,0-86.7-23-37.3,12.9-58.8-12.9-52.4-30.1-31.5-4.3-30.8-41-12.2-49.9C-7.8,160.8,19.6,115.5,64.8,126.2Z" fill="#f4f4f5"/></g></svg>