<svg xmlns="http://www.w3.org/2000/svg" width="5in" height="5in" viewBox="0 0 360 360"><path fill="#fee9dc" d="M283.1 231.3l.9-4.2a106.3 106.3 0 1 0-201.2 0 20.5 20.5 0 0 0 .5 2.4c-32.7-18.2-36.2 40.8 15.7 49.9 15.5 36.8 41.5 71.4 84.4 71.4s68.6-34.3 84.2-71c56.2-7.6 51.4-72.4 15.5-48.5z"/><path fill="#895e28" d="M178.6 93.7c-33.2-52.5-38-92.9 34.1-87.6s36.1 86.1 12 92.9-46.1-5.3-46.1-5.3z"/><path fill="#98682f" d="M222.3 139c21.3-58.8 12.7-71.1 0-75.8S66.5 59.6 66.5 197.8c32.1 22 151.5-29.6 155.8-58.8z"/><path fill="#a77236" d="M235 90.3c-2.6 76.5-37.9 177.1-177.9 129.5-20.3-9.2-13-46.5-4.3-51.2C56.4 190.9 68 188 68 188s151.8 8 167-97.7z"/><path fill="#98682f" d="M235 177.2c-4.2-24.2-8-85.8 0-93.8s95.5 41.2 65.6 133.5c-41.8 23.5-65.6-39.7-65.6-39.7z"/><path fill="#a77236" d="M230.3 111.2c-5 55.2-6.5 115.2 53 118.2 28.9 0 40-20.8 40-20.8-41.4 13.4-86.2-8.7-93-97.4z"/><path fill="#51423a" d="M158.2 258.8c-13.7 8.4-36.7 10-47.2-1.8-4.6 1.4-5.7.3-5.7.3a4.8 4.8 0 0 0 4.3 2.4c3 9.4 37.7 14.5 50-.3zm55.2 0c13.7 8.4 36.8 10 47.3-1.8 4.5 1.4 5.6.3 5.6.3a4.8 4.8 0 0 1-4.2 2.4c-3 9.4-37.7 14.5-50-.3z"/><path fill="#6fb5bf" d="M167.7 226.1c-22.3-3.8-46.1-1.8-71.2 5a7.9 7.9 0 0 0-5.9 7.6v27.4a25 25 0 0 0 21.8 24.8 160 160 0 0 0 39.7.3 25.1 25.1 0 0 0 22.2-24.8v-32.5a7.9 7.9 0 0 0-6.6-7.8zm29.7 7.8v32.5a25 25 0 0 0 22.2 24.8 159.2 159.2 0 0 0 39.6-.3 25 25 0 0 0 21.9-24.8v-27.4a7.9 7.9 0 0 0-6-7.6c-25-6.8-48.8-8.8-71.1-5a7.9 7.9 0 0 0-6.6 7.8z" opacity=".4"/><path fill="#231f20" d="M167.7 226.1c-22.3-3.8-46.1-1.8-71.2 5a7.9 7.9 0 0 0-5.9 7.6v27.4a25 25 0 0 0 21.8 24.8 160 160 0 0 0 39.7.3 25.1 25.1 0 0 0 22.2-24.8v-32.5a7.9 7.9 0 0 0-6.6-7.8zm1 39.2a21.7 21.7 0 0 1-19.2 21.5 146.7 146.7 0 0 1-34.4-.2 21.7 21.7 0 0 1-18.9-21.5v-23.7a7 7 0 0 1 5.1-6.7c21.7-5.8 42.4-7.6 61.7-4.3a6.9 6.9 0 0 1 5.7 6.8z"/><path fill="#231f20" d="M197.4 249.8c-4.2-2.1-24.7-3-26.7 0v-4.3s17.8-3.4 26.7 0 0 4.3 0 4.3z"/><path fill="#414042" d="M165.3 227.3c-22.3-3.8-46.1-1.8-71.1 5a7.8 7.8 0 0 0-5.9 7.6v27.4a24.9 24.9 0 0 0 21.8 24.8 164.1 164.1 0 0 0 39.6.3 25 25 0 0 0 22.2-24.9v-32.4a7.9 7.9 0 0 0-6.6-7.8zm1 39.1a21.7 21.7 0 0 1-19.2 21.6 140.7 140.7 0 0 1-34.3-.3 21.6 21.6 0 0 1-18.9-21.5v-23.7a6.8 6.8 0 0 1 5.1-6.6c21.7-5.9 42.3-7.6 61.6-4.3a6.8 6.8 0 0 1 5.7 6.7z"/><path fill="#231f20" d="M197.4 233.9v32.5a25 25 0 0 0 22.2 24.8 159.2 159.2 0 0 0 39.6-.3 25 25 0 0 0 21.9-24.8v-27.4a7.9 7.9 0 0 0-6-7.6c-25-6.8-48.8-8.8-71.1-5a7.9 7.9 0 0 0-6.6 7.8zm5.6 3.3a6.9 6.9 0 0 1 5.7-6.8c19.3-3.3 39.9-1.5 61.6 4.3a7 7 0 0 1 5.1 6.7v23.7a21.7 21.7 0 0 1-18.9 21.5 145.8 145.8 0 0 1-34.3.2 21.7 21.7 0 0 1-19.2-21.5z"/><path fill="#414042" d="M195.7 235.1v32.4a25.1 25.1 0 0 0 22.2 24.9 164.9 164.9 0 0 0 39.7-.3 24.9 24.9 0 0 0 21.8-24.8v-27.4a7.8 7.8 0 0 0-5.9-7.6c-25-6.8-48.8-8.8-71.1-5a7.9 7.9 0 0 0-6.7 7.8zm5.7 3.2a6.8 6.8 0 0 1 5.7-6.7c19.3-3.3 39.9-1.6 61.6 4.3a6.8 6.8 0 0 1 5.1 6.6v23.7a21.6 21.6 0 0 1-18.9 21.5 140.7 140.7 0 0 1-34.3.3 21.7 21.7 0 0 1-19.2-21.6z"/><path fill="#414042" d="M197.4 251.3c-4.2-2.2-24.7-3.1-26.7 0v-4.4s17.8-3.4 26.7 0 0 4.4 0 4.4z"/><path fill="#e7acce" d="M164.5 299.8c4.3 4.3 20.2 11.4 31.2 6-3.9 5.8-23.6 5.9-31.2-6z"/></svg>