<svg xmlns="http://www.w3.org/2000/svg" width="5in" height="5in" viewBox="0 0 360 360"><circle cx="180" cy="180" r="175.9" fill="#e09090"/><path fill="#fff" d="M66.2 117.7v124.5a49.8 49.8 0 0 0 49.9 49.9h124.5a50.1 50.1 0 0 0 49.9-49.9V117.7a50.1 50.1 0 0 0-49.9-49.9H116.1a49.8 49.8 0 0 0-49.9 49.9zm157.6 157.6h-90.9A49.8 49.8 0 0 1 83 225.6v-91.1a49.8 49.8 0 0 1 49.7-49.9h91.1a49.8 49.8 0 0 1 49.9 49.9v90.9a49.8 49.8 0 0 1-49.9 49.9z"/><path fill="#fff" d="M175.3 118.6a60.5 60.5 0 1 0 60.5 60.5 60.5 60.5 0 0 0-60.5-60.5zm0 99.9a39.5 39.5 0 1 1 .1 0z"/><circle cx="236.8" cy="118" r="15.8" fill="#fff"/></svg>