<svg xmlns="http://www.w3.org/2000/svg" width="612" height="792" viewBox="0 0 612 792"><path fill="#c6e2e6" d="M12 14.1h586v763H12z"/><rect width="423.1" height="30.49" x="101.4" y="670.7" fill="#8dc5cd" rx="9"/><ellipse cx="279.2" cy="675.1" fill="#31455d" rx="28.5" ry="2.6"/><ellipse cx="352.2" cy="683.6" fill="#31455d" rx="28.5" ry="3.6"/><path fill="#e8ecf3" d="M336 170.1c0 12.1-12.6 15.9-24.7 15.9s-24.7-3.9-24.7-16c2.6-5.4-4.3-10.5-1.5-15 4.8.7 6.1-5.3 8.2-7.3 4.3-4.1 12.9-4.6 18-5.6 11.9-2.5 24.7 11.6 24.7 28z"/><path fill="#31455d" d="M367.2 215.6c.9-7.3-6.2-31.2-15.4-34.8-9.3-6.3-64.2-23.5-98.5 15-8.1 10.2-10.6 35.3-10.6 35.3s29.7-38.2 64.9-40.3 43.1 8.3 59.6 24.8z"/><path fill="#77583b" d="M255.8 317.3s-8-15.1-9.2-29.7h-7.4s13.4-105.7 82.9-90.8 41.9 93 41.9 93z"/><path fill="#e8ecf3" d="M376.2 230.2s.3 8.8-.7 9.9 3 21.5-2 26.5-6.8 3.8-6.8 3.8l1.9-13.6s-4.7-26.2-15.9-29.9c-2.2-2.1 4.6-12.5-1.2-16.3-2.9 2.9-3 11.3-10.8 10.8-1.1-7.1-12.1-10.4-14.6-8.8 1.6-7.9-4-13.5-4-13.5s-.3 12.6-7.6 14.8c0 0-12.5-.4-14.8 1.9l-2.9-8.1-6 9.6c-7.2-1.2-22.9 12.2-22.9 15.6l-3.9-1.2-1.5 5.3s-11.1 7.8-14.1 17.2-4.4 11.6-7.4 27.8l-4.2-2.7-2.3-24.2 1.6-2.9s-5.2-6.1.7-13.6 33.8-43.9 64.9-47.1 51.3-1.5 74.5 38.7z"/><path fill="#31455d" d="M368.5 372.3s18.3 78.1 21.2 81.1l3.8 1.2 3.3 15.6-6.6 6.5-1.8-6.5-15.7 17 2.4 47s-15.8 16.2-24 14v-18.4l-21.7 3.6s-5.1 5.1-8.7 5.5l-1 9.5s-21.2-8-53.2-6.6c-13.2-1.4-17-4.9-17-4.9l2.4-33.5s-15.9-5.4-21.7-20.1c0 0-2.1-9.1 2.9-15.7 0 0 23-81.7 26.9-83.4s20.2 6.2 58.7.6c12.6 2.8 39.1-13.9 50.6-12.5"/><path fill="#cc4a4a" d="M374.6 341l2.9-9.5-7.4-9.4s-103.1.4-117 16.9c-4 5.6 3.3 8.4 2.6 12.2s-15.3 5.8-14.2 9.9 8 8.4 6.9 16.4c-.5 3.5 6.1 5.7 13.6 7.1-1 48.8-22.1 77-18.8 80.3s4.3 1.7 4.3 9.3 26.7 10.1 31.6 6.5l2.7-20.4 12.7-.9 4.6-73.5c12.4-.5 27.5-1.4 30.5-2.5 5.3-1.8 41.5-12.8 41.5-12.8l6.4-16.1 5.3-8.8s-6.1-4.8-8.2-4.7zm12.9 129.2l-14.8 17.7 1 13.1s23.5-8 13.8-30.8zm-148 27.7c1.2 9.2 8.5 18.1 11 18.1l1.3-12.6z"/><path fill="#eedece" d="M362.3 255.6v44s10.4-12.9 13.9-5.9-5.6 22-12.7 24.6v3.9s-72.2-1.1-104.6 12.7l-19.7-12.8s-9.6-21.9 11.6-13.9l3 7.1h2s-7.2-49.5-.5-57l3 1.5s2.1-20.5 6.9-20.9 11.3 2.7 19.6-10.3l6.8 2.5s13.1-6.5 13.9 0c.9 8.6 1.5 11.6 1.5 11.6l6-5.4s.8 13.7 0 17.5c0 0 19-13.1 18.3-30.2 0 0 7.5 8.5 7.5 12.3s2.8-6.7 2.8-6.7 2.5 2.2 6.2 0 8.9 20.6 8.9 20.6l3.7-3.7c1.5 1.2 2.4 6.3 1.9 8.5z"/><path fill="#fff" d="M351.4 298.5c-1 2.2-4.9 4.9-7.2 3.8s-7-5.7-4.8-11.8 7.8-6 9.1-2.3 4.1 8 2.9 10.3z"/><ellipse cx="346.8" cy="310.7" fill="#f1cece" rx="8" ry="4.6"/><ellipse cx="281.4" cy="315.3" fill="#f1cece" rx="8" ry="4.6"/><ellipse cx="344.7" cy="293.7" fill="#8dc5cd" rx="4.3" ry="8.2"/><path fill="#fff" d="M299.8 295.8c-2-4.4-10.8-12.8-17.9 5.8 0 3.6 5.8 4.2 11.1 3.2s6.8-9 6.8-9z"/><ellipse cx="292.4" cy="297.3" fill="#8dc5cd" rx="4.3" ry="7.4"/><path fill="#77583b" d="M353.2 269.5c-1.1-7.1-8-14.9-12.8-1.9 1.7.9 6.6-3.4 12.8 1.9zm-52.3 2.5c-1.1-7.1-11-18.1-17.4 4.5 2.1 2.1 10.2-14.7 17.4-4.5z"/><path fill="#83909e" d="M319.4 539.5s12.4 64.3 16.6 64.6 16.2-3 16.2-3-3.6-19.6-1.8-34 .6-37.3.6-37.3l-21.7 3.6zm-22.4 2.9v11.2l-2.7 6-4 42s-15.9-3.4-18.4-.9c0 0-9.3-28.5-1-44.6l-2.4-2.3 3.9-4-3.2-7.4z"/><ellipse cx="317.2" cy="455.9" fill="#424b59" rx="2.8" ry="6.8"/><ellipse cx="315" cy="428.9" fill="#424b59" rx="1.9" ry="6.1"/><ellipse cx="313.3" cy="399.2" fill="#424b59" rx="2.7" ry="5.4"/><path fill="#cc4a4a" d="M364.6 601.6l-1.3 11.7 3.5 2.4.7 13.2-1.2 4.6v3l11.3 4.5 1.7 13.5s.5-7.1-14.5-6.2-17.3 5.5-18.7 6.9l-12 11.6-6.8-2.6s-2.5-1.6-1.6-6.8a56.9 56.9 0 0 0 .8-9.7l3.2-3.2-3.2-8.7-1-24.2s10.8-9.6 19.6-10 19.5 0 19.5 0zm-63.6 3.9c-7.5-7.8-35.8-8.2-37.4 1.2l2.3 7.6.8 3.9-2 2 1.7 13.3 2.1.6-1.1 13.9s-10.8.5-10 16.7l38.7 2.1s1.4-11.8-3.1-16.3z"/><path fill="#594f43" d="M293 672.9l3.1-6.1-35.4-1.5s-4.3 8.4 9.4 8.4 22.9-.8 22.9-.8zm87.4-14l-1.3-6s-3.2-9-26.7-2.9c-7.1 2.6-18.3 16.8-18.3 16.8l-6-1.7s-1.3 7.6 7.7 7.6 24.9 2.4 24.9 2.4l2.1-2.2 16.5-14"/><g fill="#131f31"><path d="M266.8 646.9c.2-3.9.3-7.4.4-11.1-1.3-.3-2.1-1.1-2-3.1s-.7-4-1-6l-.6-4.2c-.4-3.3 1-5 4.2-5.9 5.7-1.7 11.5-.5 17.3-.1a60.3 60.3 0 0 1 7.3.8c1.2.2 1.6 1.1 1.3 2.3-.7 3-1.4 6-2.3 9a39.8 39.8 0 0 1-1.7 4.4c-.4.9-1 .9-2 .5a22.1 22.1 0 0 0-16.2-.8c-1.3.4-1.7 1-1.7 2.5a74.6 74.6 0 0 1-1 8.1c-.1 1.1-.2 2.2-.3 3.7 2.3-.4 4.3-.8 6.3-1a11 11 0 0 1 3.1.4c.7.1 1.4.6 1.9.5 3.8-.7 7.4.2 11 .7h1.1a24.2 24.2 0 0 0 1-3.6c1.3-6.8 2.5-13.6 3.8-20.4.8-4.2 1.8-8.4 2.7-12.6a12 12 0 0 0 .2-4.2 3.4 3.4 0 0 0-2-2.1 32.4 32.4 0 0 0-4.7-1.6 2.8 2.8 0 0 0-1.2-.4 80.1 80.1 0 0 0-10.8-1.5 41.1 41.1 0 0 0-10.5 1c-1.8.4-3.4 2-4.9 3.3a2.8 2.8 0 0 0-.4 2.2c.4 2.2 1.2 4.2 1.7 6.3a4.1 4.1 0 0 1-.1 1.9c-.5-.4-1.4-.6-1.6-1-.9-2.6-1.7-5.2-2.4-7.9a2.2 2.2 0 0 1 .5-1.9 63.8 63.8 0 0 1 5.3-5.1c.7-.7 1.1-1.1.7-2.2-1.4-3.7-1.6-7.6-2.1-11.5a90.3 90.3 0 0 1-.5-18 71.1 71.1 0 0 1 2-11.2c.1-.9.3-1.4-.4-2.1s-1.3-3.1.8-4.1l2-.8c0-1.7.2-3.3-1.6-4.4s-.8-1.6-1.3-2.7c-2.3-.1-4.9-.2-7.4-.5a30.3 30.3 0 0 1-4.3-1.2 52.7 52.7 0 0 0-6.8-1.9c-1-.2-1.7-.4-1.9-1.3a6.5 6.5 0 0 1-.1-2.4c.1-1.3.4-2.5.5-3.7.5-4.2.9-8.5 1.2-12.7a2.6 2.6 0 0 0-.8-1.9 20.1 20.1 0 0 1-6.2-6.1 18.2 18.2 0 0 1-1.6-4.3l-3-10.8a3.5 3.5 0 0 0-.7-1.5c-2.5-3.1-5.1-6-7.4-9.2a4 4 0 0 1-.7-4.3 4 4 0 0 0-.1-3.2 6.7 6.7 0 0 1 .5-5.7c.9-1.9 1.2-4 1.9-6a5.7 5.7 0 0 1 1.1-1.6c.5-.7 1.4-1.3 1.6-2 1-3.9 1.8-7.8 2.7-11.6.3-1.3 1-2.6 1.4-3.9 2.6-8.6 5-17.2 7.7-25.8 1.1-3.3 2.6-6.6 3.7-9.9s2.6-8.2 3.8-12.3 1.8-6.7 2.9-10a32.8 32.8 0 0 1 2.3-4.6l-6.7-2.1a6.2 6.2 0 0 1-4.6-6.1c-.1-3.1.4-6.3-2-8.9a18.9 18.9 0 0 0-2-2c-2.2-2.1-2.6-3.8-1.6-6.5.1-.3.2-.7.5-.8s3.5-2.1 5.3-3 4.1-2.1 6.1-3.3a1.9 1.9 0 0 0 .3-1.8c-1.1-2.3-1.2-5-3.4-6.8-.3-.2-.3-1.3-.1-1.8a20.2 20.2 0 0 1 2.4-4 8.4 8.4 0 0 1 2.4-1.5c1-.6 1.3-1.2.1-1.9-3.4-2.1-6.8-4.2-10.2-6.5s-6.2-4.3-7.8-7.6-2.2-8 .1-11.9c.8-1.5 4.8-3.2 6.5-2.9l5.2.8c-.8-4-1.2-7.9-2.2-11.7a8.5 8.5 0 0 1-.7-3.8c.1-1.2-.4-1.3-1.5-1.2a24.4 24.4 0 0 1-5.4.1 2.4 2.4 0 0 1-1.9-1.4 2.9 2.9 0 0 1 .9-2.4c2.3-2.4 2.1-3.4-1.2-4.6-1.4-.5-2.1-2.4-2.2-4.6-.2-4.6-.6-9.2-1-13.8-.2-2.5-.5-4.9-.8-7.3 0-.2-.2-.6 0-.7 2.9-2.2.7-4.9.5-7.2s-.2-4 .9-5.8 3.4-5.2 5-7.8a32.4 32.4 0 0 0 1.7-3.2 2.1 2.1 0 0 0-.2-1.3c-.5-.9-.3-5 .5-5.7a1.2 1.2 0 0 1 .8-.2c.3-2.1-.4-3.9 1.1-5.9s1.5-4.6 2.1-6.9a49 49 0 0 1 7.1-16c1.9-2.8 4.7-4.1 6.9-6.4a15.6 15.6 0 0 1 2.8-2.3c1.9-1.3 3.8-3.1 5.9-3.7 4.5-1.2 7.8-4.9 12.5-5.6 1.6-.2 3.1-1.1 4.8-1.7.2-2.7-1.5-5.9 1.3-8.3l-3.5-6.4a5 5 0 0 1 2.2-7.3c1-.5 3.8 1 3.9 2.1a1.5 1.5 0 0 1-.5 1.3 1.1 1.1 0 0 1-1.2-.1c-.7-.5-1.5-1-2.2-.2a3.1 3.1 0 0 0-.6 2.2 61.6 61.6 0 0 0 3.3 5.5c.3.5.9.8 1.4 1.3s1.1 1.8-.1 2.6c-2.8 1.6-2.1 4.1-1.7 6.6 2.9-.9 5.7-2.2 8.6-2.5s6.4-1.4 9.7-.3c1.5.5 3.1.2 4.7.2 4.6-.1 9.2-.4 13.7-.2s6.4.9 10 1.4c-1.4-1.7-.6-2.8.5-3.9s.5-1.3-.1-2.3-1-3.6-1.5-5.7c-1.2-.3-.8-1.8-.6-3a1.6 1.6 0 0 0-.8-1.8c-1.4-1.1-2.9-2.1-2.4-4.3.1-.4-.9-1-1.2-1.5a13.9 13.9 0 0 1-.6-1.9c.6-.1 1.3-.5 1.8-.3a4 4 0 0 1 2.6 3.7 2.5 2.5 0 0 0 1.4 2.4c.4.3 1.1.5 1.1.9.5 2 1.2 4 1.1 5.9a34.3 34.3 0 0 0 1.3 7.9 5.9 5.9 0 0 1 .2 1.4c-.3 2.7.4 3.5 3.1 3.5a6.2 6.2 0 0 1 2.3.7c2.6 1.2 5.2 2.5 7.7 3.9a30.7 30.7 0 0 1 7.5 6.4c4.1 4.5 6.4 9.8 8 15.4l3.6 12.4a19.3 19.3 0 0 1 .1 2.4c.4 3.2 2.4 5.7 4.2 8.2l1 1.8 2.2 3.8a4.5 4.5 0 0 1 .7 1.8c.1 2.9.2 5.8.1 8.6a11.5 11.5 0 0 1-1 2.3h-.5a22.9 22.9 0 0 0 .8 2.8c1 1.8.7 3.6.5 5.5s-.3 6-.5 9a59 59 0 0 1-.9 7.2 4.2 4.2 0 0 1-1.7 2.3c-1.9 1.4-3.9 2.7-6.5 4.4-1 6.9-2.1 14.7-3.2 22.4a14.2 14.2 0 0 1 7.7-3.7c2.5-.3 5.6 1.9 5.9 4.3.4 4.2 0 7.9-2.4 11.8a38.1 38.1 0 0 1-8.1 9.7c-.6.6-1.5.9-2.2 1.5a1.8 1.8 0 0 0-.7 1.5c0 .3.9.9 1.3.8a10.4 10.4 0 0 1 8 2.4c2.6 2.2 5.4 4.6 5.3 8.8a6.6 6.6 0 0 1-2.1 4.6c-1.8 1.8-1.4 2.9.8 4.1a32.9 32.9 0 0 1 5.4 3.8 2.5 2.5 0 0 1 .3 2.1 13.1 13.1 0 0 1-2 3.9c-2.9 4.1-5.8 8.1-6.6 13.4-.4 3.1-1.1 6.5-4.4 8.3-.4.2-.6 1.2-.5 1.8.7 2.9 1.6 5.7 2.3 8.6s1.5 7.2 2.2 10.8 1.7 7.5 2.5 11.2 1.5 5.5 2.1 8.3c1.1 4.6 2.1 9.2 3.3 13.8s2 6.4 2.9 9.7l3.6 12c.3.9.7 1.8 1 2.8s.7 2.1 2.4 1.4 1.7.6 2.1 1.7 1.5 3.5 2.2 5.2a1.5 1.5 0 0 1 .1.9c-1.5 2-.5 3.8.3 5.6a6.1 6.1 0 0 1-1.5 6.5 54.5 54.5 0 0 0-3.8 4.6l.3.3H391c-.5 3.6-1.1 7.1-1.6 10.6s-3 5.9-5.6 7.8-5.4 3.4-8 5.1a3 3 0 0 0-.8 2.1c.2 3.2.5 6.4.7 9.5.1 1 0 2 .1 3 .2 6.4.5 12.7.7 19.1a2 2 0 0 1-.6 1.5c-3.6 3.1-7.3 6.1-11.1 9.1a13.8 13.8 0 0 1-3 1.4 46.6 46.6 0 0 1-6.1 2.6c-1 .4-2.2 0-3.5-.1a14.9 14.9 0 0 0-.2 2.1c-.1 3.9-.4 7.8-.3 11.7a54.8 54.8 0 0 1-.2 8.1 87.5 87.5 0 0 0-.3 21.7c.2 2.2.6 4.4 1 6.9l2.9-.2c2.5.1 5 0 7.4.3s3.2 1.8 2.9 4.2-.4 4.5-.7 6.7 1.7 2.3 2.1 3.7a38.8 38.8 0 0 1 1.4 4.5 109.4 109.4 0 0 1 .9 11.4c0 1.1-.7 2.3-1.1 3.5s-.5 1.1-.6 1.4c3.2 1.4 6.1 2.6 9 4 1.1.5 2.1 1.1 1.5 2.7a2.9 2.9 0 0 0 .6 1.7 12 12 0 0 1 1.4 7.4 11.5 11.5 0 0 0 .3 2.6 10.3 10.3 0 0 1 .5 2.4c0 .3-.5.7-.8 1.1s-.8-.5-1-.9a3.3 3.3 0 0 1-.4-1.4c-.6-3.1-3.2-3.8-5.7-4.6-4.1-1.2-8.3-.4-12.4-.2s-5.9.4-8.5 1.9a13.1 13.1 0 0 0-2.8 2c-2.3 2-4.6 4-6.7 6.1s-3.8 4.1-5.6 6.2-.5 2.8.3 4.1c3.2-3.6 6.5-7.1 9.4-10.8a17.8 17.8 0 0 1 7.6-5.3c1.6-.7 3.6-.2 5.5-.3h5.6a7.6 7.6 0 0 1 1.6.3c3.2.5 6.4.9 9.5 1.6a11 11 0 0 1 3.7 2.5 1.3 1.3 0 0 1-.7 2.3c-3.3.7-5.7 2.9-8.2 4.9s-5.7 5.4-8.5 8.1c1.5 2.1 1.4 2.8-.9 3.5a13.9 13.9 0 0 1-5.3.7c-4.7-.6-9.3-1.6-14-2.3a43 43 0 0 0-6.2-.4 12.3 12.3 0 0 1-8.2-3.3c-.7-.6-.8-1.8-1.1-2.8s-1.7-4.4-2.3-6.7a14.1 14.1 0 0 1 .6-9.7 3.5 3.5 0 0 0-.1-3.7c-.9-1.2-.2-2.8 1.1-3.7l2.1-1.5c-1.8-4.1-3.4-7.8-3-12.2.2-2.5-.4-5.1-.6-7.6s0-5.3-.1-7.9a9.1 9.1 0 0 0-.5-3.3 2.5 2.5 0 0 1 .7-2.7c2.1-2.7 5.1-4.1 8.4-5.8-.9-4.1-1.7-8.3-2.8-12.5s-2.4-7.9-3.5-11.8-2.3-8.2-3.3-12.4-2.2-10-3.2-15a4.2 4.2 0 0 0-2.5-3.3c-5.1-2.7-10.5-2.9-16-3.3h-4.2a25.8 25.8 0 0 0 .3 4.8 8.5 8.5 0 0 1-.8 5.6c-1.7 3.2-2 6.6-2.2 10.2s-1.5 8.9-2 13.4-1 11.4-1.5 17.1c-.1 1.2-.1 2.4-.1 3.6l7.1 2.1c2.2.7 4.2 1.9 3.4 5.4s-1.8 9.6-2.6 14.4-1.4 8.7-2.2 13.1-1.6 7.7-2.3 11.5a5.3 5.3 0 0 0 .2 3.3c2.4 5.3 2.6 10.8 2.6 16.4 0 2.3-1.1 4.6-2 6.8a3 3 0 0 1-2.4 1.4c-2.8.1-5.7-.2-8.6-.2h-8.3c-3.8.1-7.5.4-11.3.3-5.6-.2-7.7-2.7-7.6-8.6a5.4 5.4 0 0 0 0-1.8c-1.3-3.2-.3-6.3.6-9.3a21.6 21.6 0 0 1 3.5-6.3c.6-.9 2-1.1 3.1-1.5zm33.2-259c0 2.5 0 4.6-.1 6.7-.2 4.5-.5 9-.8 13.5s-.4 6.3-.7 9.5-.8 6-1.1 9.1-.2 7.5-.4 11.3c-.3 6-1 11.9-1.1 17.9 0 1.7-1.2 2.7-1.6 4.1s-.7.5-1.1.5l-9.5 1.5a1.8 1.8 0 0 0-1.2 1.2l-1.5 12.4c-.1 1.2-.6 2.7-.2 3.8s-.3 2.5-1.5 2.8-5.3 1.6-7.9 1.5c-4.3-.2-8.5-1.1-12.8-1.7a39.8 39.8 0 0 1-4.5-.9c-.1.5-.3 1-.4 1.5-.4 7.8-.6 15.7-1.2 23.5-.3 4.2-1.1 8.4-.9 12.8s-.9 10.6-1.3 16a1.8 1.8 0 0 0 .7 1.5 11.7 11.7 0 0 0 3.5 1.4c3.8.7 7.7 1.3 11.6 1.8 1.5.3 3.2-.2 4.7.2a34.2 34.2 0 0 0 10.6.6c3.1-.2 6.2.1 9.3 0a20.3 20.3 0 0 0 3.1-.8l10.3-1.1 13.2-1.8a76.7 76.7 0 0 0 8.1-1.5 2.7 2.7 0 0 0 2-1.6 6.9 6.9 0 0 0 0-3.5 54.4 54.4 0 0 1-1.2-14.5c.1-8.8.2-17.5.2-26.2s-.2-15-.4-22.6c-.2-5.1-.6-10.2-.9-15.3-.8-13.8-1.1-27.6-3.3-41.4-.5-3.1-.1-6.3-.3-9.5s-.9-8.5-1.3-12.7a2.2 2.2 0 0 1 .9-1.7c1-.3 1.4.4 1.5 1.4s.4 3.6.5 5.4c.4 5.7.5 11.5 1 17.2s1.4 13.6 2 20.4.7 12.3 1 18.4c.1 1.8-.1 3.5 0 5.3.3 5.2.9 10.5 1.1 15.8.2 7.1.3 14.1.4 21.2.1 2.4-.1 4.7-.1 7.1 0 5.8.2 11.5.1 17.3a46.7 46.7 0 0 0 1.8 16.2l6.6-.8c3.9-.6 7.7-1.4 11.6-1.9a77.4 77.4 0 0 1 8.3-.7 19.1 19.1 0 0 1 4.8.2 40.9 40.9 0 0 1 4.9 1.8c2.1.8 2.3 1.3.7 3.4-4.6-3.1-9.9-3.1-15.6-2.5l.9 16.2c1.1-.3 2.3-.4 3.4-.8 6.3-2.7 12.2-5.9 16.9-11.1a4.4 4.4 0 0 0 1.2-3.9l-.3-4c-.2-2.3-.5-4.7-.6-7-.3-5.3-.3-10.6-.6-15.8-.1-2.7-.8-5.4-1-8.1s-.2-4.6-1.4-6.7a.8.8 0 0 1 .1-.8c1.2-1.7.7-3.5.5-5.3-.8-6.6-1.5-13.2-2.2-19.8h-.6l.3 6.6h-.5l-.6-5.7a21.3 21.3 0 0 0 .3-2.5c-.1-1.5-.5-2.9-.7-4.4-.9-7.6-1.7-15.2-2.6-22.8-.6-4.7-1.4-9.4-2-14.1s-1.2-10.5-1.6-15.8c-.1-.6.6-1.1 1-1.7s1.1.8 1.1 1.2c.5 3.1.9 6.3 1.2 9.4.8 7 1.5 13.9 2.4 20.9.7 5.1 1.7 10.2 2.4 15.3.5 3.5.8 6.9 1.3 10.4.8 5.7 1.7 11.5 2.5 17.2.3 2 .5 4 .8 5.9l.4.2c.6-.8 1.3-1.5 1.9-2.2 2.9-3.6 5.8-7.2 8.9-10.6a35.7 35.7 0 0 1 4.6-4c1-.9 1.7-.6 2 .5s-1.2 1.3-1.2 1.9.7 3.8 1 5.6c1.3-1.9 2.7-3.7 3.9-5.8a4.6 4.6 0 0 0 .3-2.6c-.2-1.3-.8-2.5-1-3.8s-1-1.7-2.1-1.1l-5.4 3.6c-.3.3-.6.7-.8.7a8.3 8.3 0 0 1-1.5-.4 5.7 5.7 0 0 1 .7-2.2c2.3-2.7 5.4-4 9.1-4.5l-.9-2c-.9-2.2-1.1-2-3.4-1.3a17 17 0 0 0-6.4 4 1.2 1.2 0 0 1-1.4-.1c-.4-.3-.6-1.3-.4-1.5a10.4 10.4 0 0 1 2.8-2.3c4-2.3 4.1-2.3 3.2-5.8a.8.8 0 0 0-.1-.4c-1.8-5.9-3.8-11.8-5.6-17.8s-2.6-10.3-3.8-15.4c-.3-1.1-.2-2.3-.8-3.3-1.9-3.4-1.7-7.3-2.5-10.9s-2-8.5-2.9-12.8c-.3-1.4-.7-2.8-1-4.2-.9-3.7-1.9-7.3-2.8-10.8a9.2 9.2 0 0 1-2.3.1 17.1 17.1 0 0 0-3.2 0 13.1 13.1 0 0 0-2.8.9c-3.4.9-6.9 1.6-10.2 2.6l-18 5.7a18.9 18.9 0 0 1-5.1 1.2c-3.8.3-7.7.3-11.5.5a24.7 24.7 0 0 0-2.9.6l-5.5.9zm-47.4-71.3l-1.6-4.4c-.8-3-5.3-5.3-8.2-4.2-4.5 1.6-6.3 7.8-3.1 11.4a38.3 38.3 0 0 0 7.4 6.5c3.7 2.5 7.8 4.3 11.2 7.2a1.9 1.9 0 0 0 1.4.4l3.9-1.3c7.1-2.1 14.1-4.2 21.2-6.1 1.7-.5 3.6-.2 5.4-.5 4-.8 8-1.9 12.1-2.5a71.8 71.8 0 0 1 10.4-1c2.8-.1 5.6.3 8.4.2s8.6-.5 12.9-.7c8.7-.4 17.5-.7 26.2-.9 1.6-.1 2.2-.6 2.1-2.1-.2-4.6-.3-9.1-.5-13.7s-.4-8.6-.5-12.9.4-7.6.4-11.4c0-5.3-.1-10.6-.2-15.9s-.4-8.4-.5-12.6c-.1-.5.6-1 .9-1.5s1.2.9 1.2 1.4c.3 6.3.5 12.7.8 19 .1 3 .3 6 .5 8.8-.1.1.1-.2.1-.4.8-5.2 1.8-10.5 2.2-15.7.4-3.7 1-7.5-.3-11.3-.6-1.6-.5-3.4-1.1-5-1.4-3.5-3-6.8-4.5-10.2a16.6 16.6 0 0 0-7.7-8.4c-2.3-1.3-2.3-1.4-3.2 1.1 4.3 5.5 5.7 12.2 7.6 18.8l2.9-2.7.7.4a8.8 8.8 0 0 1-.7 2.3 16.5 16.5 0 0 1-2 3.1c-.5.5-1.6 1.1-1.9.9a4.2 4.2 0 0 1-1.6-2.1c-.2-.8 0-1.8-.2-2.6-1.1-3.8-2.2-7.7-3.6-11.4-.7-2.1-1.6-4.2-3.3-5l-5.7 1.2c-.4 2.2-.6 4.6-1.2 6.8a2.7 2.7 0 0 1-2 1.7c-1.1.2-1.3-.8-1.2-1.8a4.9 4.9 0 0 0 .1-1.7 22.4 22.4 0 0 0-5.9-11.1 40.1 40.1 0 0 1-.4 4.2c-.8 2.5-1.7 4.9-2.6 7.3-2 5.7-6.2 10-9.8 14.5a1.1 1.1 0 0 1-.8.2c-.4.2-.9.2-1.1.4a25.3 25.3 0 0 0-3.1 4.9c-.7 1.6-1.8 1.8-3.6 2.5 2.4-6.8 2.2-13.3 2-20.2l-5.5 3.8a2.5 2.5 0 0 1-1.9 0c-.2 0-.4-1-.3-1.4a19.6 19.6 0 0 0-.6-13.3c-.1-.4.4-1.1.6-1.7a12.9 12.9 0 0 1 1.6.9c.2.1.2.6.3.9a23.6 23.6 0 0 1 1.1 10.9c3.3-1 3.6-4.5 5.7-6.3 1.3.8 1.5 1.2 1.2 2.6a14.6 14.6 0 0 0-.3 2.2c0 2.5.2 4.9.2 7.4v6.1c5.3-6.5 5.4-14.6 7.8-22 1.2-.2 2.2-.2 1.9 1.4s-.6 3.1-1 4.7l-2.8 10.6a13.3 13.3 0 0 0 2.1-2.6 34.8 34.8 0 0 0 7.4-19.6 12.6 12.6 0 0 1 .5-3.3c.1-.4.7-.7 1.1-.9s.7.4.7.7c-.1 2 1.4 3.2 2.3 4.8s3.9 4.6 4.3 7.8c0 .1.2.2.6.7.1-1.2.3-2 .4-2.8s0-2.5.1-3.8a14.7 14.7 0 0 0-6.1-13c-1.7-1.3-3.8-1.1-5.8-.9a3.7 3.7 0 0 0-3.4 2.2 9.6 9.6 0 0 1-2.2 2.3c-.3.2-1 .3-1.1.1a1.5 1.5 0 0 1-.3-1.3c.1-.4.6-.8.9-1.2 3.7-4 4-10.1.4-14.9v2c-.2 2.8-.9 5.4-3.2 7.4l-3.8 3.5a2.6 2.6 0 0 1-1.6.7 34.9 34.9 0 0 1-5.6-.1c-2.6-.3-5 .5-7.6 1.4a13.9 13.9 0 0 1-2.6 12.6 5.6 5.6 0 0 1-2.7 2.1c-2.8.7-5.7.7-8.3-1.1a5.2 5.2 0 0 0-1.5-.7c-.7 3.1-2.8 5.2-4.9 7.1a19.4 19.4 0 0 1-5.1 3.3c-2.8 1.4-5.8 1.1-8.8.5a2.7 2.7 0 0 0-2.3.5 9.7 9.7 0 0 0-1.8 3.5c-.9 4.3-1.7 8.6-2.3 12.9-.2 1.7.5 3.6.6 5.4a8.2 8.2 0 0 1-.6 1.9 6.8 6.8 0 0 1-1.7-.9 41 41 0 0 1-2.9-3.6c-.5 1.4-1.1 2.3-1.1 3.3-.4 5.2-.7 10.5-.8 15.7s0 11.2.4 16.7a120.1 120.1 0 0 0 2.2 15.8c.8 4.1 2.3 8 3.4 12a7.4 7.4 0 0 1 .1 2.1l-1.8-1.2a1 1 0 0 1-.4-.5c-1.3.8-2 .3-2.4-1a6.7 6.7 0 0 0-4.7-4.4 8 8 0 0 0-1.5-.3l-5.6-.3c.5-2.1 3-2.5 9.1-1.3zm120 27.3l-.4-.6a12 12 0 0 1 .3-2c.7-1.9 1.4-3.9 2.2-5.8s1.5-4.5-.7-6.6c-.4-.3-.6-.9-1-1.3-1.7-2.1-3.3-4.4-6.7-3.8-.2.1-.6-.1-.9-.1-3.6-.1-7.3-.6-11-.4-7.7.5-15.4 1.3-23.1 1.8-5.3.4-10.5.4-15.7.7s-10.6.1-15.8 1.5c-2 .5-4 .8-6 1.1s-6.4.8-9.6 1.4-7.1 1.4-10.6 2.3-7 2.1-10.5 3.3a32.9 32.9 0 0 0-4.4 1.6c-4.9 2.2-7 3.9-3.8 8.7 2.1 3.2 1.7 6.8 2.3 10.2.2 1.2-.3 2.5-.6 4.3-2.5-1.6-.1-4.4-2.2-5.8l-7.6 3.7a25.3 25.3 0 0 0-2.7 1.8 1.7 1.7 0 0 0-.1 2.8l2.2 2.3c1.6 2.1 3.3 4.2 3.2 7.1a47.1 47.1 0 0 0 .3 5.3 3.2 3.2 0 0 0 3.1 3 2.7 2.7 0 0 1 1.2.3 65.1 65.1 0 0 0 13.1 3.6c7 .9 13.9 1.7 20.9 1.2 3.4-.2 6.9-.2 10.3-.2s5.7.2 8.5-.2c4.9-.7 9.7-1.9 14.7-1.7a19.8 19.8 0 0 0 4.3-.3c5.4-1.4 10.7-2.9 16-4.5s9.8-3.8 15.1-4.5a36.4 36.4 0 0 0 10-3.2c1.6-.6 3.9-.6 4.5-2.9.1-.4.3-.7.4-1.1.9-2.9 1.3-6 2.6-8.7 2-4.3 4.5-8.3 6.8-12.4a19.9 19.9 0 0 0-3.6-2.7 4.2 4.2 0 0 0-2.5-.2 10.9 10.9 0 0 0-2.5 1zM267 232c.9-1.7 1.3-3.6 2.5-4.7a63.1 63.1 0 0 1 7.8-5.8 42.7 42.7 0 0 1 13.6-6.1 2.7 2.7 0 0 0 2-2.1 18.6 18.6 0 0 0 1-3.9 28.1 28.1 0 0 0 0-5.8c-.1-1.2-1.1-2.8.6-3.2s1.8 1.4 2.1 2.4 1.2 4.4 1.9 6.5 1.2 3.3 1.8 5a16.6 16.6 0 0 1 3.2-1.3l10.5-1a2.7 2.7 0 0 0 1.7-.6c3.5-2.9 5.3-6.4 4.1-11.1a3 3 0 0 1-.1-1.6c.3-.5 1.2-1.2 1.5-1.1 2 .8 3.9 2.1 4.4 4.1a89.1 89.1 0 0 1 1.6 9 4.9 4.9 0 0 1 .1 1.2 9.6 9.6 0 0 1 3.7-.3 12.8 12.8 0 0 1 8.6 6.1c1.3 2.2 3.4 2.5 5.2.9s4.7-5.1 4.1-9c-.1-.6.3-1.8.5-1.8s1.8.1 2.1.6a21.9 21.9 0 0 1 2.8 5.5 14.5 14.5 0 0 1-1 10.2 1.6 1.6 0 0 0 .8 2.4c1.6 1 3.4 1.8 4.4 3.1a65.2 65.2 0 0 1 5.5 8.2 14.8 14.8 0 0 1 2 3.7c1.4 4.4 2.6 8.8 3.8 13.3a7.5 7.5 0 0 1 .4 3.3c-.1 1.3-.9 2.5-1.1 3.8s-.3 4.8-.4 7.3c4.4-2.1 5.9-5.2 5.8-9.6a78.2 78.2 0 0 1 .6-10.8 10.1 10.1 0 0 0-.7-4.9c-1-2.6-1.9-5.3-2.7-8-.1-.4.3-1.4.7-1.5s1.3.1 1.4 1.1a10.9 10.9 0 0 0 1.1 2.7 11.9 11.9 0 0 0-1.2-10c-1.6-2.6-2.3-5.7-5.4-7.2-.3-.1-.4-.7-.6-1.1a15.6 15.6 0 0 0-1.7-3.7c-2.1-2.4-4.3-4.7-6.6-7.1a24.1 24.1 0 0 0-3.7-3.4c-2.2-1.7-4.5-3.4-6.9-5a74.8 74.8 0 0 0-6.7-4.1c-2.9-1.5-6-2.8-9.1-4.2h-.7c-2.7-.3-5.3-.4-8-.9a36.1 36.1 0 0 0-13.1 0c-3.8.5-7.5 1.1-11.2 1.8a66.1 66.1 0 0 0-10 2.3 50.2 50.2 0 0 0-8.7 4.3 140.1 140.1 0 0 0-13.2 8.4 126.9 126.9 0 0 0-10.9 9.8c-4.3 4.2-8.5 8.5-12.6 13-2.5 2.8-4.6 5.9-6.9 8.9a9.7 9.7 0 0 0-1.3 10.6 20 20 0 0 1 1.5-2.6c.3-.4 1-.6 1.5-.9s.6 1.3.4 1.8a22.7 22.7 0 0 1-1.9 3.4 9.1 9.1 0 0 0-2.1 7.4 43.3 43.3 0 0 1 .8 5c.3 3.7.7 7.4.9 11s.8 3.7 3.3 4.4c.5-2.8 1-5.6 1.5-8.2h-2.4a9.5 9.5 0 0 1 .5-1.8l6.6-13.4c.3-.6.7-1.2.6-1.7a8.4 8.4 0 0 1 2.1-5.5l.9-.9a79.5 79.5 0 0 1 4.8-6.6 66.6 66.6 0 0 1 5.6-5c.8-.7 1.1-1.1.7-2.2a9 9 0 0 1-.3-4c.3-2 1.7-2.4 3.3-1.1a24.9 24.9 0 0 1 2.3 2.3zm10.8 248.7c3.7-31.1 9-61.7 10.8-92.4l-15-1-9.5-.7c-.4 0-1.1.8-1.2 1.2-.4 3.5-.6 7-1.1 10.4-.6 5.1-1.1 10.2-2.2 15.3-1.4 7.2-3.3 14.4-5 21.7a47.7 47.7 0 0 1-1.5 5.4c-2.8 7.3-5.7 14.6-8.5 22-.5 1.3-.4 2.5 1 2.9s3.6 2.8 3 5.5a3.1 3.1 0 0 0-.1 1 5.2 5.2 0 0 0 2.9 5.4c6 3 12.5 3.5 19 4.1 2.4.2 5-.5 7.4-.8zm88.5-267.9l.4-.2c-.6-2-1.4-3.9-1.8-5.9-1.6-7.7-4-15-9.4-20.9a23 23 0 0 0-9.4-6.6c-.6-.3-1.5-.1-1.9-.5-2.7-2.6-6.2-2.7-9.5-3.1s-9.1-1.1-13.7-1.5c-3.1-.2-6.2-.1-9.3-.2a37.4 37.4 0 0 1-5.8 0 23.6 23.6 0 0 0-12.1 1.1l-3.3.8a52.3 52.3 0 0 0-7.7 2.3 127.4 127.4 0 0 0-14.9 7.1c-5.1 3-10.2 6.2-13.4 11.5l-.7.8c-1 1.3-2.4 2.5-3 4-1.3 3.6-2.5 7.3-3.5 11.1s-2.3 9.4-3.4 14.1a10.3 10.3 0 0 0-.1 1.9l.8-.8 8.4-8.8c2.8-2.9 5.9-5.6 8.4-8.8s4.5-3.2 5.8-5.7c.1-.2.6-.2.8-.3s3-.8 3.8-2.4.5-.2.7-.3 2.7-1.7 4.1-2.4a3.8 3.8 0 0 1 1.8-.9 3.7 3.7 0 0 0 3.4-2 1.6 1.6 0 0 1 .9-.9l9.1-4c.7-.3 1.7.1 2.6 0a4.3 4.3 0 0 0 1.4-.4l4.2-1.2.2.5 1-1.5.5 2 1.8-.5.6-2 1.9.6c.5.2 1 .6 1.5.5 4-.3 8-.9 12-1.1a22.2 22.2 0 0 1 5.1.6l7.4 1.2a24.6 24.6 0 0 1 4.1 1 72.2 72.2 0 0 1 8.4 4 66.1 66.1 0 0 1 9.8 6.4c4.2 3.6 8.9 6.7 12 11.4zm-35.8 321.8c.4 2.2-1 3.1-2.5 3.7s-3.9 1.1-5.8 1.7-1.3.8-1.2 1.1c.5 2.5-.3 5.3 1.7 7.5a2.4 2.4 0 0 1 .2.8c-.8 3.1.3 6.1.9 9 1.6 6.8 3.4 13.5 5.2 20.2.9 3.4 2 6.7 2.9 10.2s2 8 2.8 12.1c.4 2 .8 2.4 2.9 1.9l8.4-1.9 5-1c-1.8-.9-1.8-2.4-1.9-3.7s-.2-4.9-.4-7.3a106.8 106.8 0 0 1 .5-19.6c.5-4.3.3-8.6.4-12.9v-16.3c0-2.9-.3-5.7-.5-8.9zm31.5 77.3c.4-2.7.9-5.3 1.1-7.8a2.6 2.6 0 0 0-1.2-1.8 20.8 20.8 0 0 0-5.5-.7 85.6 85.6 0 0 0-11.3 1.7 65.9 65.9 0 0 0-10.5 3c-2.5 1-4.8 2.8-7.1 4.3a2 2 0 0 0-.8 1.3c0 3.8.1 7.5.3 11.3s.6 5.7.6 8.5.7 7.5 3.2 10.6c.9 1.1.6 1.9-.2 2.8a8.3 8.3 0 0 1-1.5 1.1 2.5 2.5 0 0 0-1.2 2.7 19.8 19.8 0 0 1-.3 4.2c-.2 1.4-.7 2.8-1 4.2-.5 3.4.7 5.8 3.8 7.2s3.9 1.1 5.9-1.2 2.5-2.9 3.9-4.2l7-6.7c1.3-1.2 2.4-2.8 3.9-3.2a48.3 48.3 0 0 1 8.6-1.5 56.2 56.2 0 0 1 5.8-.2c2.8.1 5.7-.4 8.5 1a25 25 0 0 0 3.6 1.2c-.3-1.7-.5-2.9-.8-4.1s-.6-2.5-1-3.7l.5-.2a20.8 20.8 0 0 0-12.8-4.1c-4 0-8.1 1-12 1.7s-5.7 1.2-7.1 4.3a6 6 0 0 1-1.6 2.3c-1.4 1.5-2.1 4.1-5 3.8-.4 0-1 .9-1.4 1.5a5.6 5.6 0 0 0-.7 1.6c-1.7-.7-1.5-1.7-1-2.9a9 9 0 0 1 4.3-4.3 5.2 5.2 0 0 0 1.8-1.5c1.2-1.6 2.3-3.3 3.6-4.9a2.8 2.8 0 0 1 1.7-.9 19.7 19.7 0 0 1 3.5-.7l15.5-2.9c.3-1.2-1.5-1.4-1.9-2.4s-2.6-2.6-4.8-2.4a26.2 26.2 0 0 1-2.8 0c-3.7.3-7.5.4-11.2 1s-5.3 1.6-8 2.3-2.9 0-3.2-2.5-.9-5.2-1.3-7.8-.5-3 .9-4.1a31.3 31.3 0 0 1 8.8-5.3c5.7-2 11.3-3 17.3-2zm-73.2-12c.4-4 .6-7.7 1-11.4s.5-6.4.9-9.6c.6-4.9 1.2-9.8 1.9-14.7.3-2.2.3-4.5 1.2-6.4 2-4.5 1.4-9.2 1.4-13.6l-25-.7 4.1 4.5a2.2 2.2 0 0 1 .2 1.1 4.1 4.1 0 0 1-3.3 3.7 9 9 0 0 0-1.4.7l.9.7c1.8.7 1.9 1 .7 2.6a3.7 3.7 0 0 0-.5 1.1c-1.8 5.1-1.8 10.4-2.2 15.7a32.7 32.7 0 0 0-.1 5.4c.7 6 .5 12.1 2.7 17.9.9 2.3.6 2.2 3 2.1s5 0 7.5.1zm-28.1-213.4h-.5c-.5 1-1.1 2-1.5 3l-2.4 8.3c-1.3 4.2-2.6 8.5-4 12.7-.9 2.6-2 5.1-3 7.6s-1.2 2.5-1.6 3.8c-1.1 3.6-2.1 7.2-3.1 10.8-2 6.7-4.1 13.3-5.9 20q-1.9 7.5-3.6 15a5.4 5.4 0 0 0 .5 3.3c1.5 2.4 3.3 4.7 4.9 7.2a4.9 4.9 0 0 1 .6 1.7c-.6 0-1.4.2-1.9-.1a13.3 13.3 0 0 1-2.7-2.6c-1.3-1.7-2.4-3.7-3.6-5.6-2.8 2.6-2.6 6.4.1 9.2a37.4 37.4 0 0 1 4.1 5.5c.2.3-.2.9-.3 1.4a3.8 3.8 0 0 1-1.1-.8l-3.9-4.1-.6.4a27.5 27.5 0 0 0 2.4 4.1c2.8 3.4 5.8 6.6 8.8 9.8a15.4 15.4 0 0 0 8 4.6V500c.3-6.1.6-12.2 1-18.2a2.7 2.7 0 0 0-1.8-3.1c-.8-.3-1.8-.6-2.1-1.2s-2-4.2-1.2-6.8 0-2.8-2.1-3.2l-1.8-.4c-.1-1.3-.2-2.3-.2-3.2s-.2-1.1 0-1.5c2.3-5.8 4.8-11.5 7-17.3 1.2-3.3 2.3-6.6 3.2-10s1.4-6.4 2.2-9.5c1.1-4.7 2.5-9.3 3.3-14 1.2-7.4 1.9-14.8 2.8-22.2a28 28 0 0 0 0-2.9zm23.3 72.9l5-.6c3.7-.2 4.4-1 4.5-4.5s.3-7.3.6-10.8.7-4.6.8-6.9.1-7 .3-10.5c.6-7.4 1.4-14.8 2-22.2.3-4.9.3-9.8.4-14.6.1-1.6-.8-2-2.1-1.8s-3.1.2-4.1 1-.4 2.3-.6 3.5a7 7 0 0 0-.3 1.4l-1.5 15c-.9 8.6-1.7 17.3-2.7 25.9-.8 6.5-1.9 13.1-2.8 19.6-.2 1.9-1.3 4 .5 5.5zm11 201.5h.2l-1.5-6.8a5.4 5.4 0 0 0-4.4-4.4c-4.1-1-8.2-.5-12.2-.5-2.2 0-4.3-.3-6.5-.2a24.4 24.4 0 0 0-4.6.7 6 6 0 0 0-4 3.1c-1.8 2.8-2.4 6-3 9.2a1.9 1.9 0 0 0 2.1 2.4l9.5.2 10.1.5 12.5.7c1.2 0 2.1-.5 1.9-2.1a26.2 26.2 0 0 1-.1-2.8zm69.5-31.4c1.4.3 1.9-.2 1.8-1.3-.1-2.9-.2-5.7-.4-8.5s-.6-4.2-4.2-5.3a27.1 27.1 0 0 0-16.2.2c-3.8 1.2-7.6 2.4-10.3 5.6a3.3 3.3 0 0 0-.8 1.8c.3 2.6.8 5.2 1.2 7.8.2.8.6 1.2 1.5.8l1.7-.5c4.7-2 9.8-2.2 14.7-2.5 2.8-.3 5.6.1 8.4.1s2.6.1 2.6 1.8zm-107.6-371h.6c2.1-6.4.6-13.9 5.7-19.6-2.3.2-3.3 1.6-4.3 2.9-3 3.6-6.1 7.2-8.1 11.4s-3.8 8.6-5.6 12.9a8.7 8.7 0 0 0-.8 3.8 41.2 41.2 0 0 1-3.1 15.5c-.6 1.4-.3 1.9 1.2 1.7l4.1-.7c1-.2 1.7-.1 1.8 1.3a87.3 87.3 0 0 0 4.6 23.7c.2.5.6 1.1.8 1.6a2.3 2.3 0 0 0 .2-1.6c-.4-2.3-1-4.5-1.2-6.8-.4-4.2-.6-8.5-.8-12.7s-.4-8.4-.3-12.6.5-9.7.7-14.6c.1-1.6-.3-3.3 1-4.8s.3-1.6.2-2.5-.5-1.4-.5-2.1 0-1.3.3-1.4a1.6 1.6 0 0 1 1.5.2 4.6 4.6 0 0 1 1 1.8 20 20 0 0 1 1 2.6zm32.4-40.1c-8.5 1.9-14.4 7.4-19.8 13.8 2.1 0 3-1.7 4.3-2.9a4.5 4.5 0 0 1 1.4-.6c.1.7.5 1.5.3 1.9-1.6 1.9-3.1 3.7-6 4a6.8 6.8 0 0 1-5.4-1.7c0 .5-.1.8 0 .9 1.1 3.4 5.4 5.7 8.8 4.5a16.6 16.6 0 0 0 11-11.3c.2-.5.2-1.1.5-1.4a2.9 2.9 0 0 1 1.2-.7l.6 1.2c0 .3-.1.6-.1 1.1 1.9.4 3.7 1.2 5.2-.6a14.5 14.5 0 0 0 1.6-3.3c.5-1.2 1.1-2.4 1.7-3.7l.8.4c.7 3.5-.7 6.5-2.9 9.4a2.6 2.6 0 0 0 3.7-1.3 43.2 43.2 0 0 0 1.9-4.5c1.7-4.6-.7-8.7-1.6-13a8.7 8.7 0 0 0-1.1 1.8c-.8 2.1-1.6 4.2-2.6 6.2s-2 2.3-3.5-.2zm-1 412.6c1-3.8 2-7.3 3-11.3a37.4 37.4 0 0 0-3.8-.8l-11-.7a16.7 16.7 0 0 0-8.6 1.2c-1.1.5-2.2 1.3-2 2.8s.7 4.9 1.1 7.4a4.8 4.8 0 0 0 .8 1.6 32.6 32.6 0 0 1 20.5-.2zm99.8-158.7l-.6-.2c-.3.4-.7.6-1 1l-5.9 6.9c-1.7 2-3.5 3.9-5.1 5.9s-1.8 2.4-1.8 3.6a75.6 75.6 0 0 0 .9 9.1l6.4-3.6a11.8 11.8 0 0 0 2.5-1.9 15.4 15.4 0 0 0 4.1-8.5c.3-2.4.6-4.8.8-7.1s-.2-3.5-.3-5.2zm-23.7-156.4a13.5 13.5 0 0 0 7-5.5c2.6-3.8 5.2-7.7 4.7-12.8-.3-2.7-1.6-4.4-4.3-3.8a5.9 5.9 0 0 0-2.9 1.3c-1.4 1.4-2.5 3.1-3.8 4.5s-1.2 3.1-.8 5.1c.5-.5 1-.8 1.1-1.1.6-2 2.5-2.3 4-3s.9.2 1.3.3a5.6 5.6 0 0 1-.4 1.2 2.4 2.4 0 0 1-.8.6c-3.2 1.3-3.4 4.9-5.4 7.1-.1.2 0 .6 0 .9zM293 668.1a11.3 11.3 0 0 0-1.8-.3c-5.8-.3-11.6-.7-17.4-.8-4 0-8.1-.9-12.3 1.6.8.7 1.4 1.5 2.1 1.7a20.3 20.3 0 0 0 5.4.9c7.4.3 14.8.4 22.2.4.5 0 1.1-.6 1.4-1.1a11.9 11.9 0 0 0 .4-2.4zm75.9-4.2c-7.2-1.2-14-.3-20.5-2.5l-5 5.1.3.7 4.1.3 8.2.6c3.1.1 6.4 1.9 9.4-.7zm-18.6-4.3a5.3 5.3 0 0 0 1.6.4l19.6 1.4c2.3.2 3.4-1.4 4.9-2.9a39.6 39.6 0 0 0-5.5-1.3 17.9 17.9 0 0 0-2.3-.2 46.3 46.3 0 0 0-13.9-.2 5.1 5.1 0 0 0-4.4 2.8zM342.8 229c.9 1.4 1.8 1.6 3.2.4 3.5-2.8 6.3-6.1 6.5-10.8.1-1.9.7-4-1-6-.3.9-.5 1.6-.8 2.3a13.2 13.2 0 0 1-1.5 2.9 15.5 15.5 0 0 1-6.4 4.6 1.8 1.8 0 0 0-.9 1.4c.2 2.1.7 2.4 2.8 1.6h1c.9 2.6-1.7 2.6-2.9 3.6zM241.2 499.5c.1 3.6 4.3 14.2 7.9 15.1a41.9 41.9 0 0 0 1.1-5.1c.5-5.3.8-4.2-3.7-6.8zm100.2 169.1l-2.3 3.7 20.2 1.4 1.4-3.1-10.8-.8c-2.8-.2-5.6.2-8.5-1.2zm-22.7-127.8l-12.3 1.9v.4l12.5 3zm13 129.9c0-1.6.9-2 2.4-1.4v-.6l-5.3-2.9c-.5 3 .3 4.7 2.9 4.9z"/><path d="M289.9 153.3a35.9 35.9 0 0 1 .3-4.7c.4-1.3 1-2.6 2.9-2.2a1.9 1.9 0 0 0 1.6-.9c1.2-1.8 4.5-3 6.4-2.1.4.2 1 1.4.8 1.6s-1.5 1.5-1.9 1.3-2.9-.4-3.5 1.5a2 2 0 0 1-2.6 1.4c-.3-.1-1.1.5-1.3 1a10.1 10.1 0 0 0-.4 2c-.2 1.1-.9 1.6-2.3 1.1zm21.7-10.4l-3.2.8c-.6-2.2 1.3-2.7 2.1-3.8s1.5.1 2.2.1a7.5 7.5 0 0 0 2.1.2c2.4-.6 2.8-.3 4 2a4.1 4.1 0 0 0 3.6 2.6 2.4 2.4 0 0 1 1 .5c-.3.3-.7 1-.9.9a28 28 0 0 1-5-1.2 2.9 2.9 0 0 1-1.2-1.6c-.4-1.4-1.1-1.5-1.9-.5s-2 1.4-2.8 0zm.3 17.4a15.1 15.1 0 0 1-.9 1.8c-.1.3-.6.8-.7.7a1.2 1.2 0 0 1-.9-.8c-.5-1.2.6-3.5 2-4.1s2.1.1 2.9 1.8.8 1.6 1.1 2.4a2.6 2.6 0 0 1 .2 1.5c0 .2-.7.5-.9.4a3.7 3.7 0 0 1-1.3-1.2 14.5 14.5 0 0 1-.9-2.5zm-9.3-7.4a7.2 7.2 0 0 1-1.1 1.9c-.4.4-1 .4-1.6.6s-.4-1.4-.2-1.8a7.7 7.7 0 0 1 2.1-2.3 1.5 1.5 0 0 1 2.4.4 10.4 10.4 0 0 1 .9 3c.1.3-.4 1-.7 1a1.5 1.5 0 0 1-1.2-.7 6.6 6.6 0 0 1-.1-2zm15.7-2.3c.4.5 1 .9 1 1.1s1.5 2.7.6 4.3a2.3 2.3 0 0 1-1.5-.3 5 5 0 0 1-1-4.1zm43.6 369.6c-2-1.8-4.2-3.4-4.8-6.1l.5-.5a30.7 30.7 0 0 1 2.6 2.5c.6.7 1.2.9 1.8.2s1.5-1.4 1.6-2.3-.6-1.5-1-2.3c-1.4-3.1-2.9-6.2-4.4-9.3s-3.2-6.1-4.5-9.4a61.8 61.8 0 0 1-2.4-8.4 24.5 24.5 0 0 1-.2-2.7l.7-.2a16.9 16.9 0 0 1 1.2 2.8 51.6 51.6 0 0 0 6.5 16.4c2.1 3.3 3.5 7.1 5.5 10.6s2.1 4.1-.7 5.9c-.5.3-.7 1.2-1.1 1.7a8.1 8.1 0 0 1-1.3 1.1zm-101.7-4.3l2.1.9c1.8-1.9 3.7-3.7 6.2-4.4l.6.5-1.5 1.8a31.1 31.1 0 0 0-3.2 3.1c-1.7 2.3-4.2 2.1-5.6-.5a3.4 3.4 0 0 1 .6-4.3 148.5 148.5 0 0 0 9-11.9c1.8-2.8 2.8-6.2 4.3-9.3a8.4 8.4 0 0 1 1.8-2.8c-1.6 10.5-7.8 18.6-14.3 26.9zm56.6-65.5a15.4 15.4 0 0 0-1 8.7 6.6 6.6 0 0 0 1.1 2 6.6 6.6 0 0 0 1.4-1.5c.4-.6.5-1.5 1.6-1.1s.6 1.3.4 1.9a7.3 7.3 0 0 1-1.7 2.6c-1.5 1.6-2.6 1.4-3.8-.5-2.5-4.2-1.7-8.6-.2-12.9.6-1.8 2.3-2 3.8-.8a4.4 4.4 0 0 1 .7 1.7l-1.7.2c-.2 0-.4-.2-.6-.3zm-2.6-56.4c-1.5 1.2-2.7 2.6-2.2 4.7s-.2 3.3 1.7 4.2c1.8-2.2 1.8-3.9 0-6.1.8-.3 1.5-.9 2.1-.7s1 1 1.1 1.6a20.7 20.7 0 0 1-.4 5c-.4 1.4-1.3 2.8-3.2 2.6s-2.6-1.8-2.9-3.2a23.9 23.9 0 0 1-.5-6 4.9 4.9 0 0 1 1-2.5c1.2-1.7 2.1-1.6 3.3.4zm-.4 31.3l.4 7.8 2.2-1c1.5 1.4 1.5 1.9.1 3.3a2.4 2.4 0 0 1-3.6.1 3.2 3.2 0 0 1-.8-1.2c-.1-3.2-.5-6.4-.3-9.6a2.4 2.4 0 0 1 3.3-2c.9.3 2 2.2 1.4 2.7s-1.4.1-2.1.1zm67.8 39.7c-.1 1.2.1 2.2-.3 2.7a3.3 3.3 0 0 1-2.2 1.1 1.3 1.3 0 0 1-1.6-1.4c0-1.3 2-3.8 3.1-3.5s.8.8 1 1.1zm-78.5-187.9l-1-1.4c-1.2-1.5-2.2-3.3-3.6-4.5s-6.2-1.5-8.8 1.2l-.9 1.1c-1.4 2.1-2.4 4.5-5.4 5.1-1.9-1.4-1.8-1.4-.7-3.9s1.4-4.2 2.5-6 3-4.8 5.8-6.1a6.7 6.7 0 0 1 7.4 1.9 33.3 33.3 0 0 1 5.5 9.7 8.1 8.1 0 0 1 .1 2.7zm-18.8-1.1a9.3 9.3 0 0 0 1.5-1c1.2-1.5 2.3-3.1 3.6-4.5a5.6 5.6 0 0 1 2.4-1.6c3.2-1.1 6.1-.8 8.7 1.7a19.6 19.6 0 0 0-1.3-2.5c-.5-.8-1.3-1.5-1.8-2.3a4.8 4.8 0 0 0-7.7-.4c-.6.7-1.3 1.3-1.9 2.1a17.7 17.7 0 0 0-3.5 8.5zm11.8 23.4c.8 3-1.5 6.3-4 5.9a6.1 6.1 0 0 1-3-2.1 8.4 8.4 0 0 1-1.5-6.2c.1-.8 0-1.7.1-2.8-3.7 1.8-4.8 5-5.7 8.7-1.5-1.4-1.1-2.5-.8-3.6a17.2 17.2 0 0 1 4.8-7 13.2 13.2 0 0 1 2.8-2.5c2.7-1.3 5.5-1 8.3-.3a2 2 0 0 1 1.4 1.1c.8 1.8 1.5 3.6 2.2 5.4-1.6.9-2.2-.4-2.6-1.4a6.3 6.3 0 0 0-3.3-3.5c-1.6-.8-5.1.8-5.4 2.5s-.6 5.5.9 7.9a4.5 4.5 0 0 0 2.5 1.8c1.3.3 1.9-.8 2.4-1.9a15.9 15.9 0 0 1 .9-2zm42.9-27.9a1.9 1.9 0 0 1-.2-.7c.6-3.3 1.5-6.4 3.7-9a6.8 6.8 0 0 1 6-2c2 .2 3.4 2 4 3.8a71.3 71.3 0 0 1 2.3 8.8c.1.3-.3.8-.4 1.1s-1-.2-1.3-.6-2.1-2.5-3.3-3.7-6.1-2.4-8.5.5l-1.9 2.1zm12.8-3.4c.1-3.1-2.2-6.3-4.3-6.3s-5.4 2-5.3 4.7c3.6-2.3 6.6-.9 9.6 1.6zm-2.5 24.3c-.1 1.9-.2 3.6-.3 5.2a6.5 6.5 0 0 1-4.3 5c-1.5.4-2-.7-2.6-1.6a7.9 7.9 0 0 1-.6-2.2l.6-.4c.3.5.8.9 1.1 1.4s1.1 1.6 2.3.7 2.2-2 2.1-3.6-.4-5.6-.7-8.4-2.6-2.5-3.7-1.6-2 2.4-3 3.6a4.4 4.4 0 0 1-1.4 1.3 7 7 0 0 1 3.9-6.8c1.6-.6 4.9.3 6 2.1s4.1 6.6 3.5 10.7a5.4 5.4 0 0 1-1.6 2.6c-.2-2.7.7-5.5-1.3-8zm-7.7-10.4c-.2-2.3.4-3.4 2.4-3.9s2.5.4 3.8.6a5.4 5.4 0 0 1-.6 1.3c-2.2-.8-4-.2-5.6 2zm-51-.2a6.8 6.8 0 0 1 5.6-.1c.2.1.4.5.6.8s-.3.5-.5.5l-5.7-.5zm32.1 35.5l1.6-2c.5.6 1.4 1.2 1.3 1.7s-.9 1.5-1.4 2.3zm-47.9 43.6a7 7 0 0 1-2 .8c-5.3.7-10.7 1.5-16.1 2.1a16 16 0 0 1-4.4-.4 3.7 3.7 0 0 1-3.1-2.9 2.7 2.7 0 0 1 .4-1.7c.3-.4.8-.5 1.2-.9s1.9-1.4 2.7-.2-.4 1.5-.8 2.7 2.1.9 3.4.8c5.9-.2 11.8-.6 17.7-.9h.7zm99.6-14.3l-1-2.2a21.8 21.8 0 0 1 2.4-.1c1.5.2 2.1 1.3 1.3 2.7a4.4 4.4 0 0 1-3.4 2.3 151.5 151.5 0 0 0-17.7 2.8 12.5 12.5 0 0 1-2.1.2c.5-1.1 5.7-3 9.9-3.9zm-132 141.2c-1.8.1-3.8-1.3-3.6-2.6a7.9 7.9 0 0 1 1.7-2.5 17.5 17.5 0 0 1 2.6 2.9c.3.5-.5 1.5-.7 2.2z"/></g></svg>