<svg xmlns="http://www.w3.org/2000/svg" width="5in" height="5in" viewBox="0 0 360 360"><path fill="#c6e2e6" d="M17 17h324.5v324.53H17z"/><rect width="234" height="16.86" x="63.5" y="316.3" fill="#8dc5cd" rx="8.4"/><ellipse cx="161.8" cy="318.7" fill="#31455d" rx="15.7" ry="1.5"/><ellipse cx="202.2" cy="323.4" fill="#31455d" rx="15.7" ry="2"/><path fill="#e8ecf3" d="M193.3 39.4c0 6.7-7 8.8-13.7 8.8s-13.7-2.2-13.7-8.9c1.5-2.9-2.4-5.7-.8-8.2 2.6.4 3.4-3 4.5-4.1s7.2-2.5 10-3.1c6.6-1.3 13.7 6.4 13.7 15.5z"/><path fill="#31455d" d="M210.5 64.6c.5-4-3.4-17.3-8.5-19.3s-35.5-12.9-54.5 8.3c-4.5 5.7-5.9 19.6-5.9 19.6s16.5-21.2 36-22.3 23.8 4.6 32.9 13.7z"/><path fill="#77583b" d="M148.9 120.8s-4.4-8.3-5.1-16.4h-4.1s7.4-58.5 45.8-50.2 23.2 51.5 23.2 51.5z"/><path fill="#e8ecf3" d="M215.5 72.7s.2 4.9-.4 5.4 1.7 11.9-1.1 14.7-3.7 2.1-3.7 2.1l1-7.5s-2.6-14.5-8.8-16.5c-1.2-1.2 2.6-7-.7-9.1-1.6 1.6-1.6 6.3-5.9 6-.6-4-6.7-5.8-8.1-4.9.9-4.3-2.3-7.5-2.3-7.5s-.1 7-4.1 8.3c0 0-6.9-.3-8.2 1l-1.6-4.5-3.3 5.3c-4-.6-12.7 6.8-12.7 8.7l-2.1-.7-.9 2.9s-6.1 4.4-7.8 9.5-2.4 6.5-4.1 15.4l-2.3-1.5-1.3-13.4.9-1.5s-2.9-3.4.4-7.6 18.7-24.3 35.9-26 28.4-.9 41.2 21.4z"/><path fill="#31455d" d="M211.2 151.3s10.1 43.2 11.8 44.8l2.1.7 1.8 8.6-3.6 3.6-1.1-3.6-8.7 9.4 1.4 26s-8.7 9-13.3 7.7v-10.1l-11.9 2s-2.9 2.8-4.8 3l-.6 5.3s-11.7-4.5-29.4-3.7c-7.3-.8-9.5-2.7-9.5-2.7l1.4-18.5s-8.8-3-12-11.2c0 0-1.1-5 1.7-8.6 0 0 12.7-45.2 14.8-46.2s11.2 3.5 32.5.3c6.9 1.6 21.6-7.6 28-6.8"/><path fill="#cc4a4a" d="M214.6 134l1.6-5.3-4.1-5.2s-57 .2-64.7 9.4c-2.2 3.1 1.8 4.6 1.5 6.7s-8.5 3.2-7.9 5.4 4.4 4.7 3.8 9.1c-.2 2 3.4 3.2 7.5 3.9-.5 27.1-12.2 42.6-10.4 44.4s2.4 1 2.4 5.2 14.8 5.6 17.5 3.6l1.5-11.3 7-.5 2.6-40.6c6.8-.3 15.2-.8 16.8-1.4s23-7.1 23-7.1l3.5-8.9 2.9-4.9s-3.3-2.6-4.5-2.5zm7.2 71.4l-8.3 9.8.6 7.2s13-4.4 7.7-17zm-81.9 15.3c.7 5.1 4.7 10 6.1 10l.7-6.9z"/><path fill="#eedece" d="M207.8 86.7V111s5.8-7.1 7.7-3.2-3.1 12.1-7 13.6v2.1s-40-.6-57.9 7.1l-10.9-7.1s-5.3-12.1 6.4-7.7l1.7 3.9h1.1s-4-27.4-.3-31.5l1.7.8s1.1-11.3 3.8-11.5 6.3 1.5 10.8-5.7l3.8 1.4s7.3-3.6 7.7 0 .8 6.4.8 6.4l3.4-3s.4 7.6 0 9.7c0 0 10.4-7.3 10-16.7 0 0 4.2 4.7 4.2 6.8s1.5-3.7 1.5-3.7a3.1 3.1 0 0 0 3.5 0c2-1.3 4.9 11.4 4.9 11.4l2.1-2.1c.8.7 1.3 3.5 1 4.7z"/><path fill="#fff" d="M201.8 110.5c-.6 1.1-2.7 2.7-4 2.1s-3.9-3.2-2.7-6.6 4.3-3.3 5.1-1.3 2.2 4.5 1.6 5.8z"/><ellipse cx="199.2" cy="117.2" fill="#f1cece" rx="4.4" ry="2.5"/><ellipse cx="163" cy="119.7" fill="#f1cece" rx="4.4" ry="2.5"/><ellipse cx="198.1" cy="107.8" fill="#8dc5cd" rx="2.4" ry="4.5"/><path fill="#fff" d="M173.2 109c-1.1-2.5-5.9-7.1-9.8 3.1 0 2.1 3.2 2.4 6.1 1.8s3.7-4.9 3.7-4.9z"/><ellipse cx="169.1" cy="109.8" fill="#8dc5cd" rx="2.4" ry="4.1"/><path fill="#77583b" d="M202.8 94.4c-.6-4-4.5-8.3-7.1-1.1.9.5 3.6-1.9 7.1 1.1zm-29 1.4c-.6-3.9-6-10-9.6 2.5 1.2 1.1 5.7-8.2 9.6-2.5z"/><path fill="#83909e" d="M184.1 243.7s6.8 35.6 9.1 35.8 9-1.7 9-1.7-2-10.8-1-18.8.3-20.6.3-20.6l-11.9 2zm-12.4 1.6v6.2l-1.5 3.3-2.2 23.3s-8.8-1.9-10.2-.5-5.1-15.8-.6-24.7l-1.3-1.3 2.2-2.2-1.8-4.1z"/><ellipse cx="182.9" cy="197.5" fill="#424b59" rx="1.5" ry="3.8"/><ellipse cx="181.6" cy="182.6" fill="#424b59" rx="1.1" ry="3.4"/><ellipse cx="180.7" cy="166.1" fill="#424b59" rx="1.5" ry="3"/><path fill="#cc4a4a" d="M209.1 278.1l-.7 6.4 1.9 1.3.4 7.4-.7 2.5v1.7l6.3 2.4.9 7.5s.3-3.9-8-3.4-9.6 3.1-10.3 3.8l-6.7 6.4-3.7-1.4s-1.4-.9-.9-3.8a27.9 27.9 0 0 0 .4-5.3l1.8-1.8-1.8-4.8-.5-13.4s5.9-5.3 10.8-5.5 10.8 0 10.8 0zm-35.2 2.1c-4.1-4.3-19.8-4.5-20.7.7l1.3 4.2.4 2.1-1.1 1.2 1 7.3 1.1.4-.6 7.6s-6 .3-5.5 9.2l21.4 1.2s.8-6.5-1.7-9z"/><path fill="#594f43" d="M169.5 317.5l1.7-3.4-19.6-.8s-2.4 4.7 5.2 4.7 12.7-.5 12.7-.5zm48.3-7.7l-.7-3.4s-1.8-4.9-14.8-1.5c-3.9 1.4-10.1 9.2-10.1 9.2l-3.3-.9s-.7 4.2 4.2 4.2a126.8 126.8 0 0 1 13.8 1.3l1.2-1.2 9.1-7.7"/><g fill="#131f31"><path d="M155 303.1l.2-6.1c-.7-.2-1.2-.6-1.1-1.8a19.8 19.8 0 0 0-.6-3.2l-.3-2.4a2.8 2.8 0 0 1 2.3-3.3c3.2-.9 6.4-.2 9.6 0l4.1.5a.9.9 0 0 1 .7 1.2c-.4 1.7-.8 3.4-1.3 5a23.4 23.4 0 0 1-.9 2.4c-.3.5-.6.5-1.1.3a13.3 13.3 0 0 0-9-.5c-.8.3-.9.6-1 1.4a34.4 34.4 0 0 1-.5 4.5c-.1.6-.1 1.3-.2 2.1l3.5-.6a8.6 8.6 0 0 1 1.7.3c.4 0 .8.3 1.1.3a17.8 17.8 0 0 1 6.1.3h.6a14.6 14.6 0 0 0 .5-2l2.1-11.3 1.5-7a6 6 0 0 0 .2-2.3c-.1-.5-.7-.9-1.2-1.2a19.9 19.9 0 0 0-2.6-.9l-.7-.2a55.9 55.9 0 0 0-5.9-.8 22 22 0 0 0-5.8.5 8.3 8.3 0 0 0-2.7 1.9 1.2 1.2 0 0 0-.3 1.2c.3 1.2.7 2.3 1 3.5a1.7 1.7 0 0 1-.1 1c-.3-.2-.7-.3-.8-.5s-1-2.9-1.4-4.4a1.2 1.2 0 0 1 .3-1l2.9-2.9a.9.9 0 0 0 .4-1.2c-.8-2-.8-4.2-1.1-6.3a48 48 0 0 1-.3-10 33.6 33.6 0 0 1 1.1-6.2 1.1 1.1 0 0 0-.3-1.2c-.8-.8-.6-1.7.5-2.2l1.1-.4c0-1 .1-1.9-.9-2.5s-.4-.9-.7-1.5l-4.1-.2a21.7 21.7 0 0 1-2.4-.7l-3.7-1.1c-.6-.1-1-.2-1.1-.7a2.9 2.9 0 0 1 0-1.3 15.2 15.2 0 0 1 .3-2.1l.6-7a1.5 1.5 0 0 0-.4-1 11 11 0 0 1-3.4-3.4 7 7 0 0 1-.9-2.4c-.6-2-1.1-4-1.7-6a2 2 0 0 0-.4-.8c-1.4-1.7-2.8-3.3-4.1-5.1a2.2 2.2 0 0 1-.4-2.4 2 2 0 0 0 0-1.7 4 4 0 0 1 .2-3.2 31.9 31.9 0 0 0 1.1-3.3 4.7 4.7 0 0 1 .6-.9c.3-.4.8-.7.9-1.1l1.5-6.4c.2-.7.5-1.4.8-2.2l4.2-14.2c.6-1.9 1.4-3.7 2.1-5.5l2.1-6.8c.5-1.9 1-3.7 1.6-5.5a19.6 19.6 0 0 1 1.2-2.6l-3.7-1.1a3.5 3.5 0 0 1-2.5-3.4c-.1-1.7.2-3.5-1.1-5a11.4 11.4 0 0 1-1.1-1.1 2.8 2.8 0 0 1-.9-3.6c.1-.1.1-.3.3-.4l2.9-1.7 3.4-1.7a1.4 1.4 0 0 0 .2-1.1c-.7-1.2-.7-2.7-1.9-3.7a1.1 1.1 0 0 1-.1-1 11.6 11.6 0 0 1 1.3-2.2 3.4 3.4 0 0 1 1.4-.9c.5-.4.7-.7 0-1.1l-5.6-3.5a11.8 11.8 0 0 1-4.3-4.3 6.5 6.5 0 0 1 0-6.6 5.2 5.2 0 0 1 3.6-1.6l2.9.5c-.4-2.2-.7-4.4-1.3-6.5a4.9 4.9 0 0 1-.3-2.1c.1-.6-.3-.7-.9-.6h-2.9a1.3 1.3 0 0 1-1.1-.8 1.7 1.7 0 0 1 .5-1.3c1.3-1.3 1.2-1.9-.6-2.6s-1.2-1.3-1.3-2.5-.3-5.1-.5-7.6-.3-2.7-.5-4.1V86c1.6-1.2.4-2.6.3-3.9a5 5 0 0 1 .5-3.1l2.8-4.4.9-1.7a.9.9 0 0 0-.1-.7c-.3-.5-.2-2.8.3-3.2h.4c.2-1.1-.2-2.2.6-3.3s.9-2.5 1.2-3.8A27.9 27.9 0 0 1 147 53c1-1.6 2.6-2.3 3.8-3.6a6.1 6.1 0 0 1 1.6-1.2 14.6 14.6 0 0 1 3.2-2.1c2.5-.7 4.3-2.7 6.9-3.1a14.3 14.3 0 0 0 2.7-.9c.1-1.5-.8-3.3.7-4.6l-1.9-3.6a2.7 2.7 0 0 1 1.2-4c.6-.3 2.1.6 2.2 1.2s-.1.6-.3.7h-.7c-.4-.4-.8-.6-1.2-.2a1.8 1.8 0 0 0-.3 1.2 31.4 31.4 0 0 0 1.8 3.1c.2.3.5.4.8.7s.6 1-.1 1.4-1.1 2.3-.9 3.7a27.9 27.9 0 0 1 4.7-1.4c1.8-.1 3.6-.7 5.4-.1a11.3 11.3 0 0 0 2.6 0c2.5 0 5.1-.1 7.6 0a37.6 37.6 0 0 1 5.5.7c-.8-.9-.3-1.6.3-2.2s.3-.7-.1-1.2a12.4 12.4 0 0 1-.8-3.2c-.6-.1-.4-1-.3-1.6s-.1-.8-.5-1-1.6-1.2-1.3-2.4-.5-.5-.7-.8l-.3-1.1 1-.2a2.1 2.1 0 0 1 1.4 2.1 1.5 1.5 0 0 0 .8 1.3c.3.2.6.3.7.5a19.1 19.1 0 0 1 .6 3.3 15.4 15.4 0 0 0 .6 4.3 3.1 3.1 0 0 1 .2.8c-.2 1.5.2 2 1.7 2a2.4 2.4 0 0 1 1.2.3l4.3 2.2a17.8 17.8 0 0 1 4.2 3.6 21 21 0 0 1 4.4 8.5c.7 2.3 1.3 4.6 2 6.9a5.6 5.6 0 0 1 0 1.3c.3 1.8 1.4 3.1 2.3 4.5l.6 1 1.2 2.1a2.1 2.1 0 0 1 .4 1 38.4 38.4 0 0 1 0 4.8 3.1 3.1 0 0 1-.5 1.2h-.3c.2.5.3 1.1.5 1.5a5.4 5.4 0 0 1 .2 3.1c-.1 1.6-.1 3.3-.2 4.9a25.7 25.7 0 0 1-.5 4 2.6 2.6 0 0 1-1 1.3 32 32 0 0 1-3.6 2.4c-.5 3.8-1.1 8.1-1.7 12.4a7.9 7.9 0 0 1 4.3-2.1 3.3 3.3 0 0 1 3.2 2.5 10.2 10.2 0 0 1-1.3 6.5 25.7 25.7 0 0 1-4.5 5.3 8.3 8.3 0 0 1-1.2.8c-.2.2-.5.6-.4.9s.5.5.7.4a5.6 5.6 0 0 1 4.4 1.4c1.5 1.2 3 2.5 2.9 4.8a3.1 3.1 0 0 1-1.1 2.5c-1 1.1-.8 1.7.4 2.3a16.6 16.6 0 0 1 3 2.2c.3.2.3.8.2 1.1a9.1 9.1 0 0 1-1.1 2.2c-1.6 2.2-3.2 4.5-3.6 7.4s-.6 3.6-2.5 4.5a1.7 1.7 0 0 0-.3 1c.4 1.6.9 3.2 1.3 4.8s.8 4 1.2 6 .9 4.1 1.4 6.1l1.2 4.7c.6 2.5 1.1 5.1 1.8 7.6s1.1 3.6 1.6 5.3 1.3 4.5 2 6.7l.6 1.5c.2.6.3 1.2 1.3.8s.9.4 1.1 1a23.9 23.9 0 0 0 1.3 2.8c0 .2.1.4 0 .5s-.3 2.1.2 3.2a3.4 3.4 0 0 1-.9 3.5l-2.1 2.6.2.2h-.7l-.9 5.9c-.3 2-1.7 3.2-3.1 4.3s-3 1.9-4.4 2.9a1.1 1.1 0 0 0-.4 1.1c0 1.8.2 3.5.3 5.3s0 1.1.1 1.6l.3 10.5a1.4 1.4 0 0 1-.3.9c-2 1.7-4 3.4-6.1 5a5.3 5.3 0 0 1-1.7.8 34.9 34.9 0 0 1-3.4 1.5 6.4 6.4 0 0 1-1.9-.1c0 .4-.1.8-.1 1.2-.1 2.1-.2 4.3-.1 6.4a33.9 33.9 0 0 1-.2 4.5 48.2 48.2 0 0 0-.1 12c.1 1.2.3 2.4.5 3.8h1.6c1.4.1 2.8 0 4.1.2s1.8.9 1.6 2.3-.2 2.5-.4 3.7 1 1.3 1.2 2 .7 1.7.8 2.5.4 4.2.5 6.3a7.6 7.6 0 0 1-.6 2 2.1 2.1 0 0 1-.4.7l5 2.3c.6.2 1.2.6.8 1.5a2.3 2.3 0 0 0 .4.9 7.4 7.4 0 0 1 .8 4.1 6.1 6.1 0 0 0 .1 1.4 7.9 7.9 0 0 1 .3 1.3c0 .3-.3.5-.5.7s-.4-.3-.5-.5a1.1 1.1 0 0 1-.2-.8c-.4-1.7-1.8-2.1-3.2-2.5s-4.6-.3-6.9-.2a10.4 10.4 0 0 0-4.6 1.1 9.1 9.1 0 0 0-1.6 1.1l-3.7 3.4c-1.1 1.1-2.1 2.2-3.1 3.4s-.3 1.6.2 2.3l5.2-6a10.5 10.5 0 0 1 4.2-3 9.8 9.8 0 0 1 3-.1h3.1l.9.2c1.8.3 3.5.5 5.2.9a4.9 4.9 0 0 1 2.1 1.4.7.7 0 0 1-.4 1.2 10.1 10.1 0 0 0-4.5 2.8 48.9 48.9 0 0 0-4.7 4.4c.8 1.2.8 1.6-.5 2a6.2 6.2 0 0 1-3 .3c-2.6-.3-5.1-.8-7.7-1.2a19.4 19.4 0 0 0-3.4-.2 7.1 7.1 0 0 1-4.6-1.9 5.2 5.2 0 0 1-.6-1.5c-.4-1.2-.9-2.4-1.3-3.7a8.4 8.4 0 0 1 .4-5.4 2.1 2.1 0 0 0-.1-2 1.5 1.5 0 0 1 .7-2.1l1.1-.8c-1-2.2-1.9-4.3-1.7-6.8a20.3 20.3 0 0 0-.3-4.2V286a9.7 9.7 0 0 0-.3-1.8 1.3 1.3 0 0 1 .3-1.5 13.1 13.1 0 0 1 4.7-3.2l-1.5-7c-.6-2.2-1.4-4.3-2-6.5l-1.8-6.8-1.8-8.3a2.5 2.5 0 0 0-1.4-1.9c-2.7-1.5-5.8-1.6-8.8-1.8h-2.3a21.7 21.7 0 0 0 .1 2.6 4.7 4.7 0 0 1-.4 3.1 13.9 13.9 0 0 0-1.2 5.7c-.2 2.5-.8 4.9-1.1 7.4s-.6 6.3-.8 9.5a12.7 12.7 0 0 0-.1 2l3.9 1.1c1.3.4 2.3 1.1 1.9 3l-1.5 8c-.4 2.4-.7 4.8-1.1 7.2s-.9 4.3-1.3 6.4a2.7 2.7 0 0 0 .1 1.8c1.3 2.9 1.4 6 1.4 9.1a10.4 10.4 0 0 1-1.1 3.7 1.5 1.5 0 0 1-1.3.8c-1.6.1-3.2-.1-4.7-.1h-4.7c-2.1 0-4.1.2-6.2.1s-4.2-1.5-4.2-4.7a4.1 4.1 0 0 0 0-1.1c-.7-1.7-.2-3.4.3-5.1a13.7 13.7 0 0 1 2-3.5 3.8 3.8 0 0 1 1.7-.8zm18.3-143.2c0 1.3.1 2.5 0 3.7s-.3 4.9-.4 7.4-.3 3.5-.4 5.3-.5 3.3-.6 5-.1 4.2-.3 6.3-.5 6.6-.6 9.9c0 1-.6 1.5-.8 2.3l-.7.3-5.2.8c-.3 0-.6.4-.7.6-.3 2.3-.5 4.6-.8 6.9-.1.7-.4 1.5-.1 2.1a1.1 1.1 0 0 1-.8 1.6 17.5 17.5 0 0 1-4.4.7 57.4 57.4 0 0 1-7.1-.9l-2.5-.4a1.9 1.9 0 0 0-.2.7c-.2 4.4-.4 8.7-.7 13.1-.1 2.3-.6 4.6-.5 7s-.5 5.9-.7 8.9a1.2 1.2 0 0 0 .4.8 7.7 7.7 0 0 0 1.9.8l6.4 1a21.7 21.7 0 0 1 2.6.1 19.5 19.5 0 0 0 5.9.3c1.7-.1 3.4.1 5.1 0a11.6 11.6 0 0 0 1.8-.4l5.7-.6 7.3-1 4.4-.8a1.5 1.5 0 0 0 1.1-.9 4.5 4.5 0 0 0 .1-2 26.8 26.8 0 0 1-.7-8c.1-4.8.1-9.7.1-14.5s-.1-8.3-.3-12.5-.3-5.6-.4-8.4c-.5-7.7-.7-15.3-1.8-22.9a46.1 46.1 0 0 1-.2-5.3c-.2-2.3-.5-4.7-.7-7a.9.9 0 0 1 .5-.9c.5-.2.7.2.8.7l.3 3c.2 3.2.3 6.3.5 9.5s.8 7.5 1.1 11.3.4 6.8.6 10.2a28.1 28.1 0 0 0 0 2.9c.2 2.9.5 5.8.6 8.8s.2 7.8.2 11.7v3.9c0 3.2.1 6.4 0 9.5a27.1 27.1 0 0 0 1 9l3.7-.4 6.4-1.1a34.4 34.4 0 0 1 4.6-.3 7.5 7.5 0 0 1 2.6.1 12.5 12.5 0 0 1 2.7 1c1.2.4 1.3.7.4 1.8-2.6-1.7-5.4-1.7-8.6-1.3l.5 8.9 1.8-.4a25.7 25.7 0 0 0 9.4-6.2 2.5 2.5 0 0 0 .7-2.1c-.1-.8-.1-1.5-.2-2.3s-.3-2.5-.3-3.8c-.2-2.9-.2-5.9-.3-8.8s-.5-2.9-.6-4.4a7.7 7.7 0 0 0-.8-3.7c0-.1 0-.4.1-.5a4.1 4.1 0 0 0 .3-2.9c-.5-3.7-.9-7.3-1.3-11h-.3l.2 3.6h-.3c-.1-1-.3-2.1-.3-3.1a6.6 6.6 0 0 0 .1-1.4 20 20 0 0 0-.4-2.4c-.5-4.2-.9-8.5-1.4-12.7-.3-2.6-.8-5.1-1.1-7.7l-.9-8.8c0-.3.4-.6.5-.9a1.6 1.6 0 0 1 .7.7c.2 1.7.5 3.4.7 5.2.4 3.8.8 7.7 1.3 11.5s.9 5.7 1.3 8.5.4 3.8.7 5.7 1 6.4 1.4 9.6a31.1 31.1 0 0 1 .4 3.2h.3l1-1.2c1.6-2 3.2-4 4.9-5.9a27.5 27.5 0 0 1 2.6-2.2c.5-.5.9-.3 1.1.3s-.7.7-.7 1 .4 2.2.5 3.1a21.8 21.8 0 0 0 2.2-3.1 1.9 1.9 0 0 0 .2-1.5 16.6 16.6 0 0 0-.6-2.1c-.1-.8-.5-1-1.1-.6l-3 2c-.2.1-.3.4-.5.4l-.8-.3c.1-.4.1-.9.4-1.2a7.2 7.2 0 0 1 5-2.4c-.1-.4-.3-.8-.4-1.2s-.7-1.1-1.9-.7a9.7 9.7 0 0 0-3.6 2.3c-.1.1-.6 0-.8-.1s-.3-.7-.2-.8a8.7 8.7 0 0 1 1.5-1.3c2.3-1.3 2.3-1.3 1.9-3.2v-.2c-1-3.3-2.1-6.6-3.1-9.9s-1.4-5.7-2.1-8.5c-.2-.6-.1-1.3-.4-1.8s-1-4.1-1.5-6.1-1-4.7-1.6-7.1c-.1-.7-.3-1.5-.5-2.3l-1.5-5.9h-1.3a10.8 10.8 0 0 0-1.8 0l-1.6.5-5.6 1.5-9.9 3.1a14.3 14.3 0 0 1-2.8.7c-2.2.1-4.3.1-6.4.3a7.6 7.6 0 0 0-1.6.3l-3.1.5zm-26.2-39.4c-.3-1-.6-1.7-.8-2.5a3.8 3.8 0 1 0-6.3 4 20 20 0 0 0 4.1 3.6c2 1.4 4.3 2.3 6.2 4a1.1 1.1 0 0 0 .8.2l2.1-.7 11.7-3.4c1-.3 2-.1 3-.3l6.7-1.4a54.4 54.4 0 0 1 5.8-.5c1.5-.1 3.1.2 4.6.1l7.1-.4 14.6-.5c.8 0 1.2-.3 1.1-1.2l-.3-7.5c-.1-2.4-.2-4.8-.2-7.1s.2-4.3.2-6.4-.1-5.8-.1-8.8-.3-4.6-.3-6.9c0-.3.3-.6.5-.9s.6.5.6.8c.2 3.5.3 7 .5 10.5.1 1.7.2 3.4.2 4.9v-.2c.5-2.9 1-5.8 1.3-8.7s.5-4.2-.2-6.2-.3-2-.6-2.8-1.7-3.8-2.5-5.7a9.2 9.2 0 0 0-4.3-4.6c-1.3-.7-1.2-.8-1.8.6 2.5 3 3.2 6.7 4.3 10.4l1.6-1.5.3.2a5 5 0 0 1-.3 1.3 10.4 10.4 0 0 1-1.2 1.7c-.2.3-.8.6-1 .5a2.3 2.3 0 0 1-.9-1.2c-.1-.4 0-.9-.1-1.4-.6-2.1-1.2-4.2-2-6.3s-.9-2.3-1.8-2.7l-3.2.6c-.2 1.2-.3 2.5-.6 3.8a1.4 1.4 0 0 1-1.1.9c-.6.1-.8-.5-.7-1s.1-.6.1-.9a11.9 11.9 0 0 0-3.3-6.1 11.7 11.7 0 0 1-.3 2.2c-.4 1.4-.9 2.8-1.4 4.1-1.1 3.1-3.4 5.5-5.4 8h-.4c-.2.1-.5.1-.6.3A15.1 15.1 0 0 0 181 88c-.3.9-1 1-2 1.4 1.4-3.7 1.3-7.3 1.2-11.1l-3.1 2.1h-1c-.2-.1-.2-.6-.2-.8a11.1 11.1 0 0 0-.3-7.4c-.1-.2.2-.6.3-.9l.9.5a.7.7 0 0 1 .1.5 12.1 12.1 0 0 1 .6 6c1.9-.5 2-2.5 3.2-3.5.7.5.8.7.7 1.4a6.9 6.9 0 0 0-.2 1.3c0 1.3.1 2.7.2 4.1s0 2.2-.1 3.4c3-3.6 3-8.1 4.3-12.2.7-.1 1.3-.1 1.1.7l-.6 2.7-1.5 5.8a4.9 4.9 0 0 0 1.1-1.4 19.5 19.5 0 0 0 4.1-10.9l.3-1.8a1.5 1.5 0 0 1 .6-.5.8.8 0 0 1 .4.4c-.1 1.1.8 1.8 1.3 2.6s2.1 2.6 2.4 4.4l.3.3a8.9 8.9 0 0 0 .2-1.5 14.8 14.8 0 0 1 .1-2.1 8.1 8.1 0 0 0-3.4-7.2 4.5 4.5 0 0 0-3.2-.5 2.2 2.2 0 0 0-1.9 1.3c-.2.5-.8.8-1.2 1.2h-.6a.8.8 0 0 1-.2-.8l.5-.6a6.3 6.3 0 0 0 .3-8.2 3.8 3.8 0 0 0-.1 1A5.7 5.7 0 0 1 184 62l-2.1 2a1.8 1.8 0 0 1-.9.4h-3.1a10.1 10.1 0 0 0-4.2.8 7.7 7.7 0 0 1-1.4 7 3.1 3.1 0 0 1-1.5 1.1 5.3 5.3 0 0 1-4.6-.6l-.9-.4a8 8 0 0 1-2.7 4 13.4 13.4 0 0 1-2.8 1.8 6.9 6.9 0 0 1-4.9.2 1.6 1.6 0 0 0-1.2.3 4.2 4.2 0 0 0-1 2c-.5 2.3-1 4.7-1.3 7.1s.3 2 .3 3a3.8 3.8 0 0 1-.3 1 1.6 1.6 0 0 1-.9-.5c-.6-.5-1-1.2-1.7-1.9a18.9 18.9 0 0 0-.6 1.8c-.2 2.9-.4 5.8-.4 8.7s0 6.1.2 9.2a65 65 0 0 0 1.2 8.7c.5 2.3 1.3 4.4 1.9 6.7a3.7 3.7 0 0 1 .1 1.1l-1-.6-.3-.3c-.6.4-1 .1-1.3-.6a3.7 3.7 0 0 0-2.6-2.4l-.8-.2h-3.1c.3-1.4 1.6-1.6 5-.9zm66.4 15l-.2-.3a2.2 2.2 0 0 1 .2-1.1 20.8 20.8 0 0 1 1.2-3.2c.6-1.3.8-2.5-.4-3.6l-.6-.8c-.9-1.1-1.8-2.4-3.7-2h-.5c-2-.1-4-.3-6-.2-4.3.2-8.6.7-12.9 1l-8.6.4a43 43 0 0 0-8.8.7l-3.3.7a52.4 52.4 0 0 0-5.3.8 54.1 54.1 0 0 0-5.8 1.2l-5.9 1.8-2.4.9c-2.7 1.3-3.9 2.2-2.1 4.8s1 3.8 1.3 5.7a7 7 0 0 1-.4 2.3c-1.3-.8 0-2.4-1.2-3.2l-4.2 2.1-1.4 1a.9.9 0 0 0-.1 1.5l1.2 1.3c.9 1.2 1.8 2.3 1.8 4a14.6 14.6 0 0 0 .2 2.9 1.6 1.6 0 0 0 1.6 1.6l.7.2a35.8 35.8 0 0 0 7.3 2 62.9 62.9 0 0 0 11.5.7c1.9-.2 3.8-.1 5.7-.2a36.5 36.5 0 0 0 4.7-.1 44.8 44.8 0 0 1 8.2-.9 8.6 8.6 0 0 0 2.3-.2l8.9-2.5c2.8-.8 5.4-2.1 8.3-2.4a25.3 25.3 0 0 0 5.5-1.8c.9-.4 2.2-.4 2.5-1.6l.3-.6a26.4 26.4 0 0 1 1.4-4.8c1.1-2.4 2.5-4.6 3.8-6.9-.7-.5-1.3-1.1-2-1.5a2.3 2.3 0 0 0-1.4-.1zm-58.4-61.8c.5-1 .7-2 1.4-2.6a35 35 0 0 1 4.3-3.3 25.2 25.2 0 0 1 7.5-3.3 1.4 1.4 0 0 0 1.1-1.2 14.1 14.1 0 0 0 .6-2.2 16.1 16.1 0 0 0 0-3.1c-.1-.7-.6-1.6.3-1.8s1 .7 1.2 1.3.6 2.4 1 3.6.7 1.8 1 2.8a5.1 5.1 0 0 1 1.8-.7c1.9-.3 3.8-.4 5.8-.6a1.4 1.4 0 0 0 .9-.3 5.9 5.9 0 0 0 2.3-6.2c0-.3-.2-.7-.1-.9s.7-.6.9-.5a3.5 3.5 0 0 1 2.4 2.2 40.1 40.1 0 0 1 .9 5v.6a18.3 18.3 0 0 1 2.1-.2 7.4 7.4 0 0 1 4.8 3.5 1.8 1.8 0 0 0 2.9.5 5.5 5.5 0 0 0 2.2-5.1c-.1-.3.1-.9.3-.9s1 0 1.1.3a14.6 14.6 0 0 1 1.6 3 8.1 8.1 0 0 1-.6 5.7c-.3.6-.1 1 .5 1.3a10.4 10.4 0 0 1 2.4 1.7 37 37 0 0 1 3.1 4.6 7.5 7.5 0 0 1 1 2c.8 2.5 1.5 4.9 2.2 7.4a5.5 5.5 0 0 1 .2 1.8c-.1.7-.5 1.4-.6 2.1s-.2 2.6-.3 4a5.1 5.1 0 0 0 3.3-5.3 40.2 40.2 0 0 1 .3-6 6.3 6.3 0 0 0-.4-2.7c-.6-1.4-1-2.9-1.5-4.4s.2-.7.4-.8.7 0 .8.6a4.2 4.2 0 0 0 .6 1.5 6.5 6.5 0 0 0-.7-5.5c-.9-1.5-1.3-3.2-3-4-.2-.1-.2-.4-.3-.6a8.1 8.1 0 0 0-1-2.1q-1.7-2-3.6-3.9a18 18 0 0 0-2-1.9c-1.3-.9-2.5-1.9-3.9-2.7l-3.6-2.3c-1.7-.9-3.4-1.6-5.1-2.3h-.4c-1.5-.2-2.9-.2-4.4-.5a19.9 19.9 0 0 0-7.3 0l-6.2 1a36.5 36.5 0 0 0-5.5 1.3 34.9 34.9 0 0 0-4.8 2.3c-2.5 1.5-5 3-7.3 4.7a60.9 60.9 0 0 0-6 5.4c-2.4 2.3-4.7 4.7-7 7.2s-2.6 3.3-3.8 4.9a5.5 5.5 0 0 0-.7 5.9 10.2 10.2 0 0 1 .8-1.5 2 2 0 0 1 .8-.4c.1.3.3.7.2.9a6.9 6.9 0 0 1-1 1.9 4.8 4.8 0 0 0-1.1 4.1 27 27 0 0 1 .4 2.8c.2 2 .4 4.1.5 6.1a2.2 2.2 0 0 0 1.8 2.4c.3-1.5.6-3.1.8-4.5h-1.3a3.5 3.5 0 0 1 .3-1.1c1.2-2.5 2.4-4.9 3.7-7.4a3.2 3.2 0 0 0 .3-.9 4.9 4.9 0 0 1 1.1-3.1 1.2 1.2 0 0 0 .5-.5c.9-1.2 1.7-2.5 2.7-3.6a28 28 0 0 1 3.1-2.8.9.9 0 0 0 .4-1.2 4.2 4.2 0 0 1-.2-2.2c.2-1.1 1-1.3 1.8-.6a8 8 0 0 1 1.3 1.3zm6 137.5c2-17.2 4.9-34.1 5.9-51.1l-8.3-.5-5.2-.4c-.2 0-.6.4-.7.6-.2 2-.3 3.9-.6 5.8a80.9 80.9 0 0 1-1.2 8.4c-.8 4-1.8 8-2.8 12a14.7 14.7 0 0 1-.8 3c-1.5 4.1-3.1 8.1-4.7 12.2-.3.7-.2 1.4.6 1.6s1.9 1.6 1.6 3.1v.5a2.8 2.8 0 0 0 1.6 3c3.3 1.6 6.9 1.9 10.5 2.2 1.3.2 2.7-.3 4.1-.4zM210 63h.3a31.9 31.9 0 0 1-1.1-3.3c-.8-4.2-2.2-8.2-5.2-11.5a13 13 0 0 0-5.2-3.7c-.3-.1-.8 0-1-.2s-3.4-1.5-5.2-1.7a67 67 0 0 0-7.7-.8 43.4 43.4 0 0 0-5.1-.1c-1.1-.1-2.2.1-3.2-.1a13.9 13.9 0 0 0-6.7.6l-1.8.5c-1.4.4-2.9.7-4.2 1.2a70.7 70.7 0 0 0-8.3 4c-2.8 1.6-5.6 3.4-7.4 6.3l-.4.5a8.2 8.2 0 0 0-1.6 2.2c-.8 2-1.4 4.1-2 6.1s-1.2 5.2-1.9 7.8v1.1l.4-.4 4.6-4.9c1.6-1.7 3.3-3.1 4.7-4.9s2.5-1.8 3.2-3.2h.5c.7-.4 1.6-.5 2-1.3l.4-.2 2.3-1.4a2.1 2.1 0 0 1 1-.4 2.1 2.1 0 0 0 1.9-1.2l.5-.4 5-2.2c.4-.2.9 0 1.4-.1l.8-.2 2.4-.6v.2l.5-.8.3 1.1 1-.2.3-1.2 1.1.4c.3.1.5.3.8.3l6.6-.7a14.5 14.5 0 0 1 2.9.4l4.1.6a18 18 0 0 1 2.2.6 40.2 40.2 0 0 1 4.7 2.2 50 50 0 0 1 5.4 3.5c2.4 1.8 5 3.5 6.7 6.1zm-19.8 178c.2 1.2-.6 1.7-1.4 2.1a29.9 29.9 0 0 1-3.2.9 1.4 1.4 0 0 0-.7.6c.4 1.4-.1 2.9 1 4.1s.1.4.1.5c-.4 1.7.2 3.4.5 5 .9 3.7 1.9 7.4 2.9 11.1.5 1.9 1.1 3.8 1.6 5.7s1.1 4.4 1.6 6.7.4 1.3 1.6 1l4.6-1 2.7-.6c-.9-.4-.9-1.3-1-2s-.1-2.7-.2-4.1a55.7 55.7 0 0 1 .3-10.8c.3-2.3.1-4.7.2-7.1v-9c0-1.6-.2-3.2-.3-4.9zm17.4 42.7a30.3 30.3 0 0 0 .6-4.2 1 1 0 0 0-.6-1 8.3 8.3 0 0 0-3.1-.4l-6.2.9a29.6 29.6 0 0 0-5.8 1.7 23 23 0 0 0-4 2.3 1.2 1.2 0 0 0-.4.8c0 2.1.1 4.1.2 6.2s.3 3.2.3 4.7.4 4.2 1.8 5.9.3 1-.1 1.5l-.9.7a1.3 1.3 0 0 0-.6 1.4 19.4 19.4 0 0 1-.2 2.4c-.1.8-.4 1.5-.5 2.3a3.4 3.4 0 0 0 2.1 4c1.5.7 2.1.6 3.2-.7a23.9 23.9 0 0 1 2.2-2.3c1.2-1.3 2.6-2.5 3.9-3.7s1.3-1.6 2.1-1.8a25.3 25.3 0 0 1 4.8-.8h3.2c1.5 0 3.1-.3 4.7.5a11.1 11.1 0 0 0 2 .7c-.2-.9-.3-1.6-.5-2.3a11.7 11.7 0 0 0-.5-2h.2a11.4 11.4 0 0 0-7.1-2.3 37.4 37.4 0 0 0-6.6.9c-1.5.4-3.1.7-3.9 2.4a3.8 3.8 0 0 1-.9 1.3c-.8.8-1.1 2.2-2.7 2.1s-.6.5-.8.8a3.6 3.6 0 0 0-.4.9c-1-.4-.8-1-.5-1.6a4.5 4.5 0 0 1 2.3-2.4 3.9 3.9 0 0 0 1-.8c.7-.9 1.3-1.9 2-2.7a1.8 1.8 0 0 1 .9-.6l2-.3 8.6-1.6c.1-.7-.9-.8-1.1-1.3s-1.4-1.5-2.6-1.4a8.5 8.5 0 0 1-1.6 0c-2.1.2-4.1.2-6.2.6a36.6 36.6 0 0 0-4.4 1.3c-1.4.3-1.6-.1-1.8-1.4s-.5-2.9-.7-4.3-.3-1.7.5-2.3a15.1 15.1 0 0 1 4.9-2.9 18.1 18.1 0 0 1 9.5-1.1zm-40.4-6.6c.2-2.2.3-4.2.5-6.3s.3-3.5.5-5.3.7-5.4 1.1-8.1a10.9 10.9 0 0 1 .6-3.6c1.1-2.5.8-5 .8-7.5l-13.8-.4a32.8 32.8 0 0 1 2.2 2.6c.2.1.2.3.1.5a2.1 2.1 0 0 1-1.8 2.1l-.7.4.5.4c1 .4 1 .5.4 1.4l-.4.6c-1 2.8-.9 5.8-1.1 8.7a15.1 15.1 0 0 0-.1 3c.4 3.3.2 6.7 1.5 9.9.5 1.2.3 1.2 1.7 1.1h4.1zm-15.6-118h-.3c-.2.6-.6 1.1-.8 1.7s-.9 3.1-1.3 4.6-1.5 4.7-2.3 7-1.1 2.8-1.6 4.2l-.9 2.2c-.6 1.9-1.1 3.9-1.7 5.9-1.1 3.7-2.2 7.4-3.2 11.1s-1.4 5.5-2 8.3a2.8 2.8 0 0 0 .2 1.8l2.8 3.9.3 1c-.4 0-.8.1-1.1-.1a6.2 6.2 0 0 1-1.4-1.4 24 24 0 0 1-2.1-3.1c-1.5 1.4-1.4 3.5.1 5.1a21 21 0 0 1 2.2 3c.2.2 0 .6-.1.8l-.6-.4-2.1-2.3-.4.2a12.6 12.6 0 0 0 1.3 2.3c1.6 1.9 3.2 3.7 4.9 5.4a8.3 8.3 0 0 0 4.4 2.6v-.9c.2-3.4.3-6.7.6-10.1 0-.9-.2-1.4-1-1.7s-1-.3-1.2-.7a4.3 4.3 0 0 1-.6-3.7c.3-1.2 0-1.6-1.2-1.8l-1-.2a12.1 12.1 0 0 1-.1-1.8c0-.3-.1-.6 0-.8 1.3-3.2 2.6-6.4 3.8-9.6s1.3-3.7 1.8-5.5.8-3.5 1.2-5.3 1.4-5.1 1.9-7.7 1-8.2 1.5-12.3a8.5 8.5 0 0 0 0-1.7zm12.9 40.3l2.8-.3c2-.1 2.4-.5 2.5-2.5s.1-4 .3-6 .4-2.5.4-3.8.1-3.9.2-5.8c.3-4.1.8-8.2 1.1-12.3s.2-5.4.2-8.1c.1-.8-.4-1-1.1-.9a5.2 5.2 0 0 0-2.3.5c-.4.3-.3 1.3-.4 1.9s-.1.6-.1.8c-.3 2.8-.5 5.6-.8 8.3l-1.5 14.3c-.5 3.7-1.1 7.3-1.6 10.9-.1 1-.7 2.2.3 3zm6.1 111.5h.1c-.3-1.2-.6-2.4-.8-3.7a3.1 3.1 0 0 0-2.5-2.4c-2.2-.6-4.5-.3-6.7-.3h-3.6a11.7 11.7 0 0 0-2.6.4 3.2 3.2 0 0 0-2.2 1.7 12.7 12.7 0 0 0-1.6 5.1c-.2.8.2 1.3 1.1 1.3h5.3l5.6.3 6.9.4c.7 0 1.2-.3 1.1-1.2a7.6 7.6 0 0 1-.1-1.6zm38.4-17.4c.8.2 1.1-.1 1-.7s-.1-3.1-.2-4.7-.3-2.3-2.3-2.9a14.6 14.6 0 0 0-9 .1c-2.1.6-4.2 1.3-5.7 3.1a1.5 1.5 0 0 0-.4.9c.2 1.5.4 2.9.7 4.4s.2.6.7.4l1-.3a28.1 28.1 0 0 1 8.1-1.4c1.6-.1 3.2.1 4.7.1s1.4.1 1.4 1zM149.5 88.3h.3c1.2-3.5.4-7.6 3.2-10.8a3.3 3.3 0 0 0-2.4 1.6 31.4 31.4 0 0 0-4.5 6.3c-1.1 2.3-2.1 4.7-3.1 7.1a7.8 7.8 0 0 0-.4 2.1 22.7 22.7 0 0 1-1.7 8.6c-.3.8-.2 1 .7.9l2.2-.4c.6-.1 1 0 1 .8a45.5 45.5 0 0 0 2.6 13.1l.4.9a1.5 1.5 0 0 0 .1-.9c-.2-1.3-.6-2.5-.7-3.8s-.3-4.7-.4-7-.2-4.7-.2-7 .3-5.4.4-8c.1-1-.1-1.9.6-2.7s.1-.9.1-1.4-.3-.8-.3-1.2 0-.7.2-.8a.8.8 0 0 1 .8.2 3.3 3.3 0 0 1 .6 1c.2.4.3.9.5 1.4zm17.9-22.1c-4.7 1-7.9 4-10.9 7.6 1.1 0 1.6-1 2.3-1.6s.6-.2.9-.4.2.9.1 1.1-1.7 2-3.3 2.2a3.6 3.6 0 0 1-3-.9c0 .2-.1.4 0 .5a4 4 0 0 0 4.9 2.4 9 9 0 0 0 6.1-6.2 1.9 1.9 0 0 1 .2-.8l.7-.4.3.7v.6c1 .3 2 .7 2.8-.3a6.1 6.1 0 0 0 .9-1.8 20 20 0 0 1 1-2.1l.4.2c.4 2-.4 3.6-1.6 5.2a1.5 1.5 0 0 0 2.1-.7 18.6 18.6 0 0 0 1-2.5c.9-2.5-.4-4.8-.9-7.2-.3.4-.4.7-.6 1s-.9 2.3-1.4 3.4-1.2 1.3-2 0zm-.5 228.1c.5-2.1 1.1-4 1.7-6.2a10.3 10.3 0 0 0-2.2-.4l-6.1-.4a9.4 9.4 0 0 0-4.7.6c-.6.3-1.2.7-1.1 1.6l.6 4.1.4.8a18.5 18.5 0 0 1 11.4-.1zm55.2-87.8h-.3a1.5 1.5 0 0 0-.6.5l-3.3 3.8-2.8 3.3a3.5 3.5 0 0 0-1 2 47 47 0 0 0 .5 5l3.5-2a7.1 7.1 0 0 0 1.4-1 9 9 0 0 0 2.3-4.8c.2-1.3.3-2.6.4-3.9s-.1-1.9-.1-2.9zM209 120.1a7.8 7.8 0 0 0 3.8-3.1c1.5-2.1 2.9-4.2 2.6-7.1s-.9-2.4-2.3-2.1a5.3 5.3 0 0 0-1.7.8c-.7.7-1.3 1.7-2.1 2.4s-.6 1.8-.4 2.8l.6-.5c.4-1.1 1.4-1.3 2.3-1.7s.4.1.7.1l-.3.7a.5.5 0 0 1-.4.3c-1.8.8-1.9 2.8-3 4s0 .3 0 .5.1 1.9.2 2.9zm-39.5 194.8l-1-.2c-3.2-.2-6.4-.4-9.6-.4s-4.5-.6-6.9.8c.5.4.8.9 1.2 1a15.7 15.7 0 0 0 3 .5l12.3.2c.2 0 .6-.4.7-.6a5 5 0 0 0 .3-1.3zm42-2.4c-4-.7-7.8-.1-11.4-1.4l-2.8 2.9.2.3 2.3.2c1.5.1 3 .3 4.5.3s3.6 1.1 5.2-.3zm-10.4-2.3l1 .2 10.8.8c1.2 0 1.9-.8 2.7-1.7l-3-.7h-1.3a24.9 24.9 0 0 0-7.7-.1 3.1 3.1 0 0 0-2.5 1.5zM197 72c.5.8 1 .9 1.8.2s3.5-3.3 3.6-6c0-1 .3-2.2-.6-3.3a5 5 0 0 1-.4 1.3 8.3 8.3 0 0 1-.9 1.6 7.5 7.5 0 0 1-3.5 2.5 1.4 1.4 0 0 0-.5.8c.1 1.2.4 1.3 1.6.9h.5c.5 1.4-.9 1.5-1.6 2zm-56.2 149.6c.1 2 2.4 7.9 4.4 8.4.2-1 .5-1.9.6-2.8.3-3 .5-2.4-2-3.8zm55.4 93.5l-1.2 2.1 11.2.8.7-1.8-6-.4c-1.5-.1-3.1.1-4.7-.7zm-12.5-70.6l-6.8 1v.2l6.9 1.7zm7.2 71.8c0-.9.5-1.1 1.3-.8v-.3l-2.9-1.6c-.3 1.7.1 2.6 1.6 2.7z"/><path d="M167.8 30.1a11.4 11.4 0 0 1 .2-2.6 1.3 1.3 0 0 1 1.6-1.2c.2.1.6-.2.8-.5a3.2 3.2 0 0 1 3.5-1.1c.3.1.6.7.5.9s-.8.8-1.1.7-1.5-.3-1.9.8a1.1 1.1 0 0 1-1.4.8c-.2-.1-.6.2-.7.5a2 2 0 0 0-.2 1.1c-.2.6-.5.9-1.3.6zm12-5.7l-1.8.4c-.3-1.2.7-1.5 1.2-2.1s.8.1 1.2.1.8.2 1.1.1 1.6-.2 2.2 1.1a2.2 2.2 0 0 0 2 1.4c.2 0 .4.2.6.3l-.5.5a12.7 12.7 0 0 1-2.8-.6c-.3-.1-.5-.6-.6-.9s-.6-.9-1.1-.3-1.1.8-1.5 0zm.1 9.6a4.7 4.7 0 0 1-.5 1c0 .2-.3.4-.4.4l-.5-.4a2.2 2.2 0 0 1 1.1-2.3c.7-.3 1.2 0 1.7 1a7.5 7.5 0 0 0 .6 1.3 2.8 2.8 0 0 1 .1.9s-.4.2-.5.1a1.1 1.1 0 0 1-.7-.6 5.8 5.8 0 0 1-.5-1.4zm-5.1-4.1l-.6 1.1c-.2.2-.6.2-.9.3s-.2-.8-.1-1a6.9 6.9 0 0 1 1.1-1.3.9.9 0 0 1 1.4.3 9.8 9.8 0 0 1 .5 1.6c0 .2-.3.6-.4.6a1 1 0 0 1-.7-.4c-.1-.4 0-.8-.1-1.1zm8.7-1.2c.2.2.5.4.5.6s.9 1.5.3 2.3h-.7a2.5 2.5 0 0 1-.6-2.3c.1-.3.3-.4.5-.6zm24.1 204.4c-1.1-1.1-2.4-1.9-2.7-3.4l.3-.3 1.4 1.4c.4.4.7.5 1.1.1s.8-.8.8-1.2-.3-.9-.5-1.3-1.6-3.5-2.5-5.2-1.7-3.4-2.5-5.2a36.2 36.2 0 0 1-1.3-4.7 6.1 6.1 0 0 1-.1-1.4h.4a10.1 10.1 0 0 1 .7 1.5 27.5 27.5 0 0 0 3.6 9.1c1.1 1.8 1.9 3.9 3 5.8s1.1 2.3-.4 3.3-.4.6-.6.9-.4.3-.7.6zm-56.2-2.4l1.1.5a6.5 6.5 0 0 1 3.5-2.4l.2.2a3.9 3.9 0 0 1-.8 1l-1.7 1.7c-1 1.3-2.3 1.2-3.1-.3a1.7 1.7 0 0 1 .3-2.3c1.7-2.2 3.5-4.3 5-6.6a40.9 40.9 0 0 0 2.3-5.2l1-1.5c-.8 5.8-4.3 10.3-7.8 14.9zm31.2-36.3a9.1 9.1 0 0 0-.5 4.9c0 .4.4.7.6 1.1l.8-.9c.2-.3.3-.8.9-.6s.3.7.2 1.1a6.7 6.7 0 0 1-.9 1.4c-.9.9-1.5.8-2.1-.3s-1-4.7-.2-7.1 1.3-1.1 2.1-.4.3.6.4.9h-.9zm-1.4-31.1a2.3 2.3 0 0 0-1.2 2.5c.2.9-.1 1.9.9 2.4a2.3 2.3 0 0 0 0-3.4c.4-.2.9-.5 1.2-.4a1.5 1.5 0 0 1 .6.9 13.2 13.2 0 0 1-.2 2.8 1.7 1.7 0 0 1-1.8 1.4c-1-.1-1.4-1-1.6-1.8a11.9 11.9 0 0 1-.3-3.3 2.8 2.8 0 0 1 .6-1.4c.7-.9 1.1-.9 1.8.3zm-.2 17.2l.2 4.4 1.2-.6c.8.8.8 1.1.1 1.8a1.3 1.3 0 0 1-2 .1c-.2-.2-.4-.4-.4-.6a48.7 48.7 0 0 1-.2-5.4 1.3 1.3 0 0 1 1.8-1.1c.5.2 1.1 1.3.8 1.5s-.8.1-1.2.1zm37.5 22c-.1.7.1 1.3-.2 1.5a1.4 1.4 0 0 1-1.2.6c-.5.1-.9-.1-.9-.7s1.1-2.1 1.7-2 .5.5.6.6zM175.1 98.6l-.6-.8a24.3 24.3 0 0 0-2-2.5c-1.3-1.2-3.4-.8-4.8.7l-.5.6c-.8 1.2-1.3 2.5-3 2.8s-1-.7-.4-2.1a32.7 32.7 0 0 1 1.4-3.3 7 7 0 0 1 3.2-3.4 3.8 3.8 0 0 1 4.1 1 19.1 19.1 0 0 1 3 5.4c.2.4 0 1 .1 1.5zm-10.4-.6l.8-.6 2-2.5a2.9 2.9 0 0 1 1.3-.8 4.3 4.3 0 0 1 4.8.9 9.1 9.1 0 0 0-.7-1.4 14.7 14.7 0 0 1-1-1.3 2.8 2.8 0 0 0-4.3-.2l-1 1.2a8.7 8.7 0 0 0-1.9 4.7zm6.5 12.9c.4 1.7-.9 3.5-2.2 3.3a3.8 3.8 0 0 1-1.7-1.2 4.4 4.4 0 0 1-.8-3.4v-1.5c-2 .9-2.6 2.7-3.1 4.8a1.5 1.5 0 0 1-.4-2 8.7 8.7 0 0 1 2.6-3.9 9.6 9.6 0 0 1 1.5-1.4 7.5 7.5 0 0 1 4.7-.2 1.2 1.2 0 0 1 .7.7 20.8 20.8 0 0 1 1.2 3c-.9.5-1.2-.3-1.4-.8a3.5 3.5 0 0 0-1.8-2 2.7 2.7 0 0 0-3 1.5 5.9 5.9 0 0 0 .5 4.3 2.8 2.8 0 0 0 1.4 1c.7.2 1-.5 1.3-1.1zm23.7-15.4c0-.1-.1-.3-.1-.4a11.6 11.6 0 0 1 2.1-5 3.7 3.7 0 0 1 3.3-1.1 2.9 2.9 0 0 1 2.2 2.2 37.6 37.6 0 0 1 1.3 4.8c0 .2-.2.4-.3.6s-.5-.1-.7-.3-1.1-1.4-1.8-2.1a3 3 0 0 0-4.7.3l-1 1.1zm7.1-1.9c.1-1.7-1.2-3.5-2.4-3.5a2.6 2.6 0 0 0-2.9 2.7c2-1.3 3.7-.6 5.3.8zm-1.4 13.5a28.3 28.3 0 0 1-.2 2.9 3.3 3.3 0 0 1-2.3 2.7c-.8.2-1.2-.4-1.5-.9a4.2 4.2 0 0 1-.3-1.2l.3-.2a2.4 2.4 0 0 1 .6.8c.4.8.7.8 1.3.3a2.3 2.3 0 0 0 1.2-2c-.1-1.5-.2-3-.4-4.6s-1.5-1.4-2-.9a8.2 8.2 0 0 0-1.7 2 2.7 2.7 0 0 1-.8.7 3.8 3.8 0 0 1 2.1-3.7 3.3 3.3 0 0 1 3.4 1.1c1.1 1.8 2.2 3.7 1.9 6a3.1 3.1 0 0 1-.9 1.4c-.1-1.5.4-3-.7-4.4zm-4.2-5.8c-.2-1.3.2-1.9 1.3-2.1s1.4.2 2.1.3l-.3.7a2.5 2.5 0 0 0-3.1 1.1zm-28.2-.1a3.9 3.9 0 0 1 3-.1 1 1 0 0 1 .4.5.5.5 0 0 1-.3.3l-3.1-.3zm17.7 19.7l.9-1.2c.3.3.8.7.7 1s-.5.8-.8 1.2zm-26.5 24l-1.1.5-8.9 1.1a10.7 10.7 0 0 1-2.5-.1 2 2 0 0 1-1.6-1.7 1.1 1.1 0 0 1 .2-.9c.1-.2.4-.3.7-.5s1-.8 1.4-.1-.2.8-.4 1.5a2.3 2.3 0 0 0 1.9.4l9.8-.5h.4zm55.1-7.9l-.6-1.2a6.5 6.5 0 0 1 1.4 0 .9.9 0 0 1 .7 1.4 2.5 2.5 0 0 1-1.9 1.4 64.4 64.4 0 0 0-9.8 1.5h-1.1c.2-.6 3.1-1.7 5.4-2.1zm-73 78.1c-1 .1-2.1-.7-2-1.4s.6-.9 1-1.4a7 7 0 0 1 1.4 1.6c.1.3-.3.9-.4 1.2z"/></g></svg>