<svg xmlns="http://www.w3.org/2000/svg" width="5in" height="5in" viewBox="0 0 360 360"><defs><clipPath id="a"><path fill="none" d="M55.1 0h261.4v360H55.1z"/></clipPath></defs><path fill="#fff" d="M0 0h360v360H0z"/><g clip-path="url(#a)"><path fill="none" stroke="#003b71" stroke-miterlimit="10" stroke-width="5.63" d="M120.8 324.9l-10.4-20.8h20.8l-10.4 20.8z"/><g clip-path="url(#a)"><path fill="none" stroke="#003b71" stroke-miterlimit="10" stroke-width="5.63" d="M137.5 303.2v5.2c6 0 5.5 5.4 5.5 5.4m15.2 3.7a5.4 5.4 0 1 1-5.3-5.3 5.4 5.4 0 0 1 5.3 5.3zm-10.7-14.6v14.6m53.7 0a5.4 5.4 0 1 1-5.4-5.3 5.4 5.4 0 0 1 5.4 5.3zm-10.7-14.6v14.6m56.6 5.4a5.4 5.4 0 1 1 5.3-5.4 5.4 5.4 0 0 1-5.3 5.4zm16.3-10.7h-14.6"/><circle cx="166.3" cy="311.7" r="2.7" fill="none" stroke="#003b71" stroke-miterlimit="10" stroke-width="5.63"/><path fill="none" stroke="#003b71" stroke-miterlimit="10" stroke-width="5.63" d="M173.7 314.4h-7.4m53.5-8.9h-12.4v17.4M237 305l-13.4 9.2 13.4 9.7"/><path fill="#003b71" d="M251.1 305.5a2.2 2.2 0 0 1-2.3 2.2 2.2 2.2 0 0 1 0-4.4 2.2 2.2 0 0 1 2.3 2.2M91.9 291.2h1.2c1 0 1.3-.4 1.3-2v-16.8c0-1.6-.3-2-1.3-2h-1.2v-5.9h29.4v10.1h-5l-1.1-1.9c-1.2-2-1.9-2.3-4.9-2.3H107v7.4h.8c1.5 0 2-.6 2-2.5v-.7h4.9V287h-4.9v-.8c0-1.9-.5-2.6-2-2.6h-.8v7.6h3.6c3 0 3.6-.1 4.8-2.3l1.1-1.9h5.1v10.1H91.9zm33.9 4.3V287h9.2v3.8a9.8 9.8 0 0 0 3.5.7c2.2 0 3.4-1 3.4-2.3s-2.1-2.5-6.6-3.7-9.9-3.8-9.9-10.3 5.1-11.4 14.8-11.4a31.2 31.2 0 0 1 12.6 2.3v7.8h-9.2V271a9.1 9.1 0 0 0-3.3-.5c-2 0-3.1.7-3.1 2.1s2.4 2 6.4 3.1 10.3 3.8 10.3 10.6-4 11.5-15 11.5a36 36 0 0 1-13.1-2.3m32.1-4.3h1.2c1 0 1.3-.4 1.3-2v-16.8c0-1.6-.3-2-1.3-2h-1.2v-5.9h17.7v5.9h-1c-1.1 0-1.4.4-1.4 2v5.6c2.6-2.4 5.9-5.6 5.8-5.4s.6-2.2-.5-2.2h-1v-5.9h16.3v5.9h-.9c-.9 0-1.5.3-2.8 1.5l-4.8 4.2 7.2 13.8c.5.8.9 1.3 1.8 1.3h.5v5.9h-18.2v-5.9h.5c.8 0 .8-.6.5-1.2l-2.8-5.5-1.6 1.4v3.3c0 1.6.3 2 1.4 2h1v5.9h-17.7zm58.5-4.2h-7.6l-.7 2.2c-.5 1.6-.1 2 1.2 2h.6v5.9h-12.7v-5.9h.8c1.2 0 1.4-.4 2-2l9.1-24.7h12.8l8.6 24.7c.6 1.6 1.1 2 2.3 2h.8v5.9h-18.4v-5.9h.8c1.3 0 1.7-.4 1.2-2zm-6.1-5.4h4.8l-2.4-7.6zm40.6-17.1l9.9 14.1v-6.2c0-1.6-.3-2-1.3-2h-1.8v-5.9h13.5v5.9h-1.7c-1.1 0-1.4.4-1.4 2v24.7h-8.7l-13.1-18.6v10.7c0 1.6.3 2 1.3 2h1.8v5.9h-13.5v-5.9h1.7c1.1 0 1.4-.4 1.4-2v-16.8c0-1.6-.3-2-1.4-2h-1.7v-5.9zm20.8-70.6a11.8 11.8 0 0 0 8.3 2.2c-3.9-5.6-7.3-13.6-12-24.7 2.8 2.9 6.3 5.3 9.2 4.8-6.1-10.9-11.9-21.7-12.8-29.1 2.6 1.3 5.1 2.1 7.3 1.8a80.9 80.9 0 0 1-10.3-17.8c1.7.1 2.8 1.6 5.9.9-3.6-3.6-7.5-11.6-11.4-19.5a39.7 39.7 0 0 1-9.9 19.7l5-1.5c-3.4 6.9-6.7 14.1-10.2 16.4 3 .4 5.9-.4 8.3 0-2.4 6.3-6.7 12.4-12.5 18.4 3.6-.4 7.2-.6 9.7-2.3-4.5 10.3-8.9 19.6-13.2 26.1 3.3.3 6.5.2 9.1-1.6a170.9 170.9 0 0 1-15.9 23.9 101.6 101.6 0 0 0 19.7 4.5v14.2h17.8v-13.9a80.9 80.9 0 0 0 20.6-4.8c-7.1-6.2-12.6-12.2-12.7-17.7"/><path fill="#503629" d="M182.9 62l11.8-26.4-3.2-3.1-10.9 24.6-10.5-23.8-3.2 3.1 11.5 25.8-1.6 3.6-31.9 70.8s50.5-13.1 50.5 39.6h39zm-31.4 69.8l29.2-64.4 46.7 104h-28.3c0-46.9-47.6-39.6-47.6-39.6"/><path fill="#003b71" d="M162.1 173.8l-10.5 15h.6v8h-4.8V169h-15v16.9h-4.8v-42.3H87.9v84.9H172v-39.7h.6l-10.5-15z"/><path fill="#503629" d="M191.9 255.2c0-23.7-10.4-26.1-10.4-35s14.3-8.8 3.4-26.4h-12.3v3.4h8.9c7.8 12.5-5.2 15.2-5.2 23.1s9.9 11 9.9 30H94.8l9.9-21.2h-5l-11.8 26.1zm83.2 0l-11-24.5h-4.3l9.1 19.6h-37.8c3.6-20-18.6-19.3-19.7-28.5s5.6-18.6 1.6-24.6h23l2.1-3.4h-31c5.1 9.4-.7 16-.7 27.7 0 14 26.1 10.2 19.1 33.7z"/></g></g></svg>