<svg xmlns="http://www.w3.org/2000/svg" width="17in" height="11in" viewBox="0 0 1224 792"><path fill="#231f20" d="M855.3 46.1h243.4v344.42H855.3z"/><path fill="none" stroke="#003b71" stroke-miterlimit="10" stroke-width="5.62" d="M131.6 706l-23.9-47.7h47.7L131.6 706zm38.3-49.8V668c13.7 0 12.6 12.4 12.6 12.4"/><circle cx="205.2" cy="689.1" r="12.3" fill="none" stroke="#003b71" stroke-miterlimit="10" stroke-width="5.62"/><path fill="none" stroke="#003b71" stroke-miterlimit="10" stroke-width="5.62" d="M192.9 655.5v33.6"/><circle cx="303.8" cy="689.1" r="12.3" fill="none" stroke="#003b71" stroke-miterlimit="10" stroke-width="5.62"/><path fill="none" stroke="#003b71" stroke-miterlimit="10" stroke-width="5.62" d="M291.5 655.5v33.6"/><circle cx="421.5" cy="689.1" r="12.3" fill="none" stroke="#003b71" stroke-miterlimit="10" stroke-width="5.62"/><path fill="none" stroke="#003b71" stroke-miterlimit="10" stroke-width="5.62" d="M459.1 676.8h-33.6"/><circle cx="236" cy="675.6" r="6.2" fill="none" stroke="#003b71" stroke-miterlimit="10" stroke-width="5.62"/><path fill="none" stroke="#003b71" stroke-miterlimit="10" stroke-width="5.62" d="M253.1 681.9H236m123-20.5h-28.6v39.9m67.9-40.9l-30.7 21 30.7 22.3"/><circle cx="425.5" cy="661.4" r="5.1" fill="#003b71"/><path fill="#003b71" d="M65.1 628.6h2.8c2.4 0 3.1-.9 3.1-4.5v-38.7c0-3.6-.7-4.5-3.1-4.5h-2.8v-13.5h67.6v23h-11.5l-2.5-4.2c-2.7-4.7-4.4-5.3-11.3-5.3h-7.6v16.8h1.9c3.4 0 4.5-1.2 4.5-5.6v-1.7h11.2V619h-11.2v-1.8c0-4.4-1.1-6.1-4.5-6.1h-1.9v17.5h8.3c6.9 0 8.2-.3 11.1-5.3l2.5-4.3h11.6v23.1H65.1zm77.9 10V619h21.1v8.8a22.7 22.7 0 0 0 8.1 1.4c5 0 7.9-2.2 7.9-5.2 0-5.4-4.9-5.7-15.3-8.4-12.6-3.2-22.6-8.7-22.6-23.7s11.5-26.2 33.9-26.2c13.7 0 23.1 2.8 29 5.4V589h-21.2v-6.7a21.6 21.6 0 0 0-7.5-1.3c-4.7 0-7.3 1.8-7.3 4.8 0 4.6 5.6 4.7 14.8 7.2 12.3 3.3 23.6 8.8 23.6 24.3s-9.2 26.5-34.4 26.5a88.6 88.6 0 0 1-30.1-5.2zm71.7-10h2.8c2.4 0 3-.9 3-4.5v-38.7c0-3.6-.6-4.5-3-4.5h-2.8v-13.5h40.6v13.5H253c-2.4 0-3 .9-3 4.5v13c5.7-5.5 13.4-12.9 13.2-12.6 2.5-2.5 1.4-4.9-1.2-4.9h-2.2v-13.5h37.3v13.5h-2c-2.1 0-3.5.8-6.3 3.3l-11.1 9.8 16.4 31.6c1.1 1.8 2 3 4.3 3h1v13.5h-41.7v-13.5h1.2c1.8 0 1.8-1.4 1.1-2.7l-6.4-12.7-3.6 3.3v7.6c0 3.6.6 4.5 3 4.5h2.3v13.5h-40.6zm136.3-9.7h-17.4l-1.6 5.2c-1.1 3.6-.2 4.5 2.7 4.5h1.4v13.5h-29.2v-13.5h1.9c2.8 0 3.3-.9 4.6-4.5l21-56.7h29.3l19.8 56.7c1.2 3.6 2.5 4.5 5.3 4.5h1.7v13.5h-42.1v-13.5h1.8c2.8 0 3.9-.9 2.6-4.5zm-14-12.4h11.1l-5.6-17.3zm93.4-39.1l22.6 32.4v-14.4c0-3.6-.7-4.5-3.1-4.5H446v-13.5h30.9v13.5h-4c-2.4 0-3 .9-3 4.5v56.7h-20.2l-30-42.6v24.6c0 3.6.7 4.5 3.1 4.5h3.9v13.5h-30.8v-13.5h3.9c2.4 0 3.1-.9 3.1-4.5v-38.7c0-3.6-.7-4.5-3.1-4.5h-3.9v-13.5zM471 405.3c5.7 4.2 12.1 5.4 19 5-8.8-12.8-16.7-31.2-27.5-56.7 6.6 6.6 14.4 12.1 21.2 11.1-14.2-25.3-27.4-49.9-29.5-67 6 3 11.7 4.9 16.8 4.2a179.1 179.1 0 0 1-23.6-40.9c3.8.2 6.5 3.8 13.5 2.1-8.2-8.3-17.2-26.6-26.1-44.7a93.7 93.7 0 0 1-22.8 45.1l11.4-3.3c-7.7 15.8-15.3 32.3-23.2 37.5 6.7.9 13.3-.9 19 0-5.5 14.5-15.5 28.6-28.7 42.2 8.1-.9 16.5-1.3 22.1-5.1-10.1 23.5-20.2 45-30.1 59.9 7.6.7 14.8.4 20.7-3.7-9.9 18.5-22.2 36.7-36.3 54.8a229.6 229.6 0 0 0 45.1 10.4v32.7h40.8v-32a187.7 187.7 0 0 0 47.3-11.1c-16.3-14.2-28.9-27.9-29.1-40.5z"/><path fill="#503629" d="M259 102.5l27.2-60.8-7.4-7-24.9 56.4-24.2-54.6-7.4 7 26.4 59.4-3.6 8.2-73.3 162.6s115.9-30.1 115.9 91h89.6zm-72.1 160L254 114.8l107.3 238.8h-64.9c0-107.7-109.5-91.1-109.5-91.1z"/><path fill="#003b71" d="M219.4 359l-24.1 34.6h1.3v18.3h-10.9V348h-34.6v38.8h-11v-97H49v194.9h193.2v-91.1h1.3L219.4 359z"/><path fill="none" stroke="#003b71" stroke-miterlimit="10" stroke-width=".81" d="M770.9 544.6l-3.4-6.9h6.9l-3.5 6.9zm4.8-7.2v1.7a1.6 1.6 0 0 1 1.8 1.8"/><circle cx="781.3" cy="542.2" r="1.8" fill="none" stroke="#003b71" stroke-miterlimit="10" stroke-width=".81"/><path fill="none" stroke="#003b71" stroke-miterlimit="10" stroke-width=".81" d="M779.6 537.4v4.8"/><circle cx="795.5" cy="542.2" r="1.8" fill="none" stroke="#003b71" stroke-miterlimit="10" stroke-width=".81"/><path fill="none" stroke="#003b71" stroke-miterlimit="10" stroke-width=".81" d="M793.7 537.4v4.8"/><circle cx="812.3" cy="542.2" r="1.8" fill="none" stroke="#003b71" stroke-miterlimit="10" stroke-width=".81"/><path fill="none" stroke="#003b71" stroke-miterlimit="10" stroke-width=".81" d="M817.1 540.4h-4.8"/><circle cx="785.2" cy="540.2" r=".9" fill="none" stroke="#003b71" stroke-miterlimit="10" stroke-width=".81"/><path fill="none" stroke="#003b71" stroke-miterlimit="10" stroke-width=".81" d="M787.6 541.1h-2.4m18.2-2.9h-4.1v5.7m9.7-5.9l-4.4 3.1 4.4 3.2"/><circle cx="812.3" cy="538.2" r=".7" fill="#003b71"/><path fill="#003b71" d="M762.4 533h.4c.3 0 .4-.1.4-.6v-5.6c0-.5-.1-.6-.4-.6h-.4v-2h9.6v3.4h-1.6l-.4-.7c-.4-.6-.6-.7-1.6-.7h-1.1v2.4h.3c.5 0 .6-.2.6-.8v-.2h1.6v4h-1.6v-.2c0-.6-.1-.9-.6-.9h-.3v2.5h1.2c1 0 1.2 0 1.6-.7l.4-.7h1.6v3.4h-9.7zm9.8 1.5v-2.9h3v1.3l1.2.2c.7 0 1.1-.3 1.1-.7s-.7-.8-2.2-1.2-3.2-1.3-3.2-3.4 1.7-3.8 4.9-3.8a9.4 9.4 0 0 1 4.1.8v2.5h-3v-.9l-1.1-.2c-.7 0-1 .3-1 .7s.8.7 2.1 1 3.4 1.3 3.4 3.5-1.4 3.8-5 3.8a15.7 15.7 0 0 1-4.3-.7zm11.4-1.5h.4c.4 0 .5-.1.5-.6v-5.6c0-.5-.1-.6-.5-.6h-.4v-2h5.8v2h-.3c-.3 0-.4.1-.4.6v1.9a19.5 19.5 0 0 1 1.9-1.8c.3-.4.2-.7-.2-.7h-.3v-2h5.3v2h-.2c-.4 0-.5.1-1 .5l-1.5 1.4 2.3 4.5c.2.3.3.4.6.4h.2v2h-6v-2h.2c.2 0 .2-.2.1-.4l-.9-1.8-.5.5v1.1c0 .5.1.6.4.6h.3v2h-5.8zm19.4-1.4h-2.5l-.2.8c-.2.5 0 .6.4.6h.2v2h-4.2v-2h.3c.4 0 .4-.1.6-.6l3-8.2h4.2l2.9 8.2c.1.5.3.6.7.6h.3v2h-6.1v-2h.3c.4 0 .6-.1.4-.6zm-2-1.7h1.6l-.8-2.5zm13.5-5.7l3.3 4.7v-2.1c0-.5-.1-.6-.5-.6h-.5v-2h4.4v2h-.6c-.3 0-.4.1-.4.6v8.2h-2.9l-4.3-6.1v3.5c0 .5.1.6.4.6h.6v2h-4.4v-2h.6c.3 0 .4-.1.4-.6v-5.6c0-.5-.1-.6-.4-.6h-.6v-2z"/><path fill="none" stroke="#231f20" stroke-miterlimit="10" stroke-width=".81" d="M884.4 544.6l-3.4-6.9h6.8l-3.4 6.9zm4.8-7.2v1.7a1.6 1.6 0 0 1 1.8 1.8"/><circle cx="894.8" cy="542.2" r="1.8" fill="none" stroke="#231f20" stroke-miterlimit="10" stroke-width=".81"/><path fill="none" stroke="#231f20" stroke-miterlimit="10" stroke-width=".81" d="M893.1 537.4v4.8"/><circle cx="909" cy="542.2" r="1.8" fill="none" stroke="#231f20" stroke-miterlimit="10" stroke-width=".81"/><path fill="none" stroke="#231f20" stroke-miterlimit="10" stroke-width=".81" d="M907.2 537.4v4.8"/><circle cx="925.8" cy="542.2" r="1.8" fill="none" stroke="#231f20" stroke-miterlimit="10" stroke-width=".81"/><path fill="none" stroke="#231f20" stroke-miterlimit="10" stroke-width=".81" d="M930.6 540.4h-4.8"/><circle cx="898.7" cy="540.2" r=".9" fill="none" stroke="#231f20" stroke-miterlimit="10" stroke-width=".81"/><path fill="none" stroke="#231f20" stroke-miterlimit="10" stroke-width=".81" d="M901.1 541.1h-2.4m18.2-2.9h-4.1v5.7m9.7-5.9l-4.4 3.1 4.4 3.2"/><circle cx="925.6" cy="538.5" r=".7" fill="#231f20"/><path fill="#231f20" d="M874.8 533h.4c.4 0 .5-.1.5-.6v-5.6c0-.5-.1-.6-.5-.6h-.4v-2h9.7v3.4h-1.6l-.4-.7c-.4-.6-.6-.7-1.6-.7h-1.1v2.4h.3c.5 0 .6-.2.6-.8v-.2h1.6v4h-1.6v-.2c0-.6-.1-.9-.6-.9h-.3v2.5h1.2c1 0 1.2 0 1.6-.7l.3-.7h1.7v3.4h-9.8zm11.9 1.5v-2.9h3v1.3l1.2.2c.7 0 1.1-.3 1.1-.7s-.7-.8-2.2-1.2-3.2-1.3-3.2-3.4 1.6-3.8 4.9-3.8a9.4 9.4 0 0 1 4.1.8v2.5h-3v-.9l-1.1-.2c-.7 0-1.1.3-1.1.7s.8.7 2.2 1 3.3 1.3 3.3 3.5-1.3 3.8-4.9 3.8a14.9 14.9 0 0 1-4.3-.7zm10.4-1.5h.4c.4 0 .5-.1.5-.6v-5.6c0-.5-.1-.6-.5-.6h-.4v-2h5.8v2h-.3c-.3 0-.4.1-.4.6v1.9a19.5 19.5 0 0 1 1.9-1.8c.3-.4.2-.7-.2-.7h-.3v-2h5.3v2h-.3c-.3 0-.5.1-.9.5l-1.6 1.4 2.4 4.5c.2.3.3.4.6.4h.2v2h-6v-2h.2c.2 0 .2-.2.1-.4l-.9-1.8-.5.5v1.1c0 .5.1.6.4.6h.3v2h-5.8zm19.4-1.4H914l-.2.8c-.2.5 0 .6.4.6h.2v2h-4.2v-2h.3c.4 0 .4-.1.6-.6l3-8.2h4.2l2.9 8.2c.1.5.3.6.7.6h.3v2h-6.1v-2h.3c.4 0 .5-.1.4-.6zm-2-1.7h1.6l-.8-2.5zm13.5-5.7l3.3 4.7v-2.1c0-.5-.1-.6-.5-.6h-.5v-2h4.4v2h-.6c-.3 0-.4.1-.4.6v8.2h-2.9l-4.3-6.1v3.5c0 .5.1.6.4.6h.6v2h-4.4v-2h.5c.4 0 .5-.1.5-.6v-5.6c0-.5-.1-.6-.5-.6h-.5v-2z"/><path fill="none" stroke="#fff" stroke-miterlimit="10" stroke-width="2.95" d="M920.6 348.9v5.6c6.5 0 6 5.8 6 5.8m-23.3 12.1L892 349.8h22.5l-11.2 22.6z"/><circle cx="939.2" cy="364.4" r="5.8" fill="none" stroke="#fff" stroke-miterlimit="10" stroke-width="2.95"/><path fill="none" stroke="#fff" stroke-miterlimit="10" stroke-width="2.95" d="M933.4 348.5v15.9"/><circle cx="985.7" cy="364.4" r="5.8" fill="none" stroke="#fff" stroke-miterlimit="10" stroke-width="2.95"/><path fill="none" stroke="#fff" stroke-miterlimit="10" stroke-width="2.95" d="M979.9 348.5v15.9"/><circle cx="1041.2" cy="364.4" r="5.8" fill="none" stroke="#fff" stroke-miterlimit="10" stroke-width="2.95"/><path fill="none" stroke="#fff" stroke-miterlimit="10" stroke-width="2.95" d="M1057.1 358.6h-15.9"/><circle cx="951.8" cy="358" r="2.9" fill="none" stroke="#fff" stroke-miterlimit="10" stroke-width="2.95"/><path fill="none" stroke="#fff" stroke-miterlimit="10" stroke-width="2.95" d="M959.9 361h-8.1m59.9-9.7h-13.5v18.9m32.1-19.4l-14.5 10 14.5 10.5"/><circle cx="1041.2" cy="351.3" r="2.4" fill="#fff"/><path fill="#fff" d="M877.2 332.3h1.4c1.1 0 1.4-.5 1.4-2.2v-18.2c0-1.7-.3-2.2-1.4-2.2h-1.4v-6.3h31.9v10.9h-5.4l-1.2-2.1c-1.3-2.1-2.1-2.5-5.3-2.5h-3.6v8h.9c1.6 0 2.1-.6 2.1-2.6v-.8h5.3v13.4h-5.3v-.8c0-2.1-.5-2.9-2.1-2.9h-.9v8.3h3.9c3.2 0 3.9-.2 5.3-2.5l1.1-2.1h5.5v10.9h-32.2zm36.6 4.7v-9.3h10v4.2a11.7 11.7 0 0 0 3.8.7c2.3 0 3.7-1.1 3.7-2.5s-2.3-2.7-7.2-4-10.6-4.1-10.6-11.2 5.4-12.3 16-12.3a33.7 33.7 0 0 1 13.6 2.5v8.5h-9.9v-3.2a10.7 10.7 0 0 0-3.6-.6c-2.2 0-3.4.8-3.4 2.3s2.6 2.2 7 3.4 11.1 4.1 11.1 11.4-4.4 12.5-16.3 12.5a42 42 0 0 1-14.2-2.4zm34.3-4.7h1.4c1.1 0 1.4-.5 1.4-2.2v-18.2c0-1.7-.3-2.2-1.4-2.2h-1.4v-6.3h19.2v6.3h-1.1c-1.1 0-1.4.5-1.4 2.2v6.1c2.7-2.6 6.3-6.1 6.2-5.9s.7-2.4-.6-2.4h-1v-6.3H987v6.3h-.9c-1 0-1.7.4-3 1.6l-5.2 4.7 7.7 14.9c.5.8 1 1.4 2 1.4h.5v6.3h-19.7v-6.3h.6c.8 0 .8-.7.5-1.3l-3-6-1.7 1.6v3.5c0 1.7.3 2.2 1.4 2.2h1.1v6.3h-19.2zm63.9-4.6h-8.2l-.8 2.4c-.5 1.7-.1 2.2 1.3 2.2h.6v6.3h-13.7v-6.3h.9c1.3 0 1.5-.5 2.2-2.2l9.8-26.7h13.9l9.3 26.7c.6 1.7 1.2 2.2 2.5 2.2h.8v6.3h-19.9v-6.3h.9c1.3 0 1.8-.5 1.2-2.2zm-6.6-5.9h5.2l-2.6-8.1zm44.5-18.4l10.7 15.3v-6.8c0-1.7-.3-2.2-1.5-2.2h-1.8v-6.3h14.5v6.3h-1.8c-1.2 0-1.5.5-1.5 2.2v26.7h-9.5l-14.1-20v11.5c0 1.7.3 2.2 1.4 2.2h1.9v6.3h-14.6v-6.3h1.9c1.1 0 1.4-.5 1.4-2.2v-18.2c0-1.7-.3-2.2-1.4-2.2h-1.9v-6.3z"/><path fill="none" stroke="#231f20" stroke-miterlimit="10" stroke-width="2.69" d="M659.7 348.1v5.5c6.4 0 5.9 5.7 5.9 5.7m-21.3 11.9l-11.1-22.1h22.2l-11.1 22.1z"/><circle cx="678" cy="363.3" r="5.7" fill="none" stroke="#231f20" stroke-miterlimit="10" stroke-width="2.69"/><path fill="none" stroke="#231f20" stroke-miterlimit="10" stroke-width="2.69" d="M672.3 347.8v15.5"/><circle cx="723.7" cy="363.3" r="5.7" fill="none" stroke="#231f20" stroke-miterlimit="10" stroke-width="2.69"/><path fill="none" stroke="#231f20" stroke-miterlimit="10" stroke-width="2.69" d="M718 347.8v15.5"/><circle cx="778.3" cy="363.3" r="5.7" fill="none" stroke="#231f20" stroke-miterlimit="10" stroke-width="2.69"/><path fill="none" stroke="#231f20" stroke-miterlimit="10" stroke-width="2.69" d="M793.9 357.7h-15.6"/><circle cx="690.4" cy="357.1" r="2.9" fill="none" stroke="#231f20" stroke-miterlimit="10" stroke-width="2.69"/><path fill="none" stroke="#231f20" stroke-miterlimit="10" stroke-width="2.69" d="M698.4 360h-8m58.9-9.5h-13.2V369m31.5-19l-14.3 9.8 14.3 10.4"/><circle cx="778.3" cy="350.5" r="2.4" fill="#231f20"/><path fill="#231f20" d="M616.3 331.8h1.3c1.1 0 1.4-.5 1.4-2.1v-18c0-1.7-.3-2.1-1.4-2.1h-1.3v-6.2h31.4v10.7h-5.4l-1.2-2c-1.2-2.2-2-2.5-5.2-2.5h-3.5v7.9h.9c1.5 0 2.1-.6 2.1-2.7v-.7h5.2v13.2h-5.2v-.8c0-2.1-.6-2.8-2.1-2.8h-.9v8.1h3.8c3.2 0 3.9-.1 5.2-2.5l1.2-2h5.3V338h-31.6zm36 4.6v-9.1h9.8v4.1a10.5 10.5 0 0 0 3.7.7c2.3 0 3.7-1.1 3.7-2.5s-2.3-2.6-7.1-3.8-10.5-4.1-10.5-11.1 5.4-12.1 15.8-12.1a32.9 32.9 0 0 1 13.4 2.5v8.3h-9.8v-3.1a9.6 9.6 0 0 0-3.5-.6c-2.2 0-3.4.8-3.4 2.2s2.6 2.2 6.9 3.4 10.9 4 10.9 11.2-4.2 12.3-15.9 12.3a40.6 40.6 0 0 1-14-2.4zm33.7-4.6h1.3c1.1 0 1.4-.5 1.4-2.1v-18c0-1.7-.3-2.1-1.4-2.1H686v-6.2h18.9v6.2h-1.1c-1.1 0-1.4.4-1.4 2.1v6.1l6.1-5.9c1.2-1.1.7-2.3-.6-2.3h-.9v-6.2h17.3v6.2h-1c-1 0-1.6.4-2.9 1.6l-5.2 4.5 7.7 14.7c.5.8.9 1.4 2 1.4h.4v6.2H706v-6.2h.5c.9 0 .9-.7.6-1.3l-3-5.9-1.7 1.6v3.5c0 1.6.3 2.1 1.4 2.1h1.1v6.2H686zm62.8-4.5h-8.1l-.7 2.4c-.5 1.6-.1 2.1 1.2 2.1h.7v6.2h-13.6v-6.2h.9c1.3 0 1.5-.5 2.2-2.1l9.7-26.3h13.6l9.2 26.3c.5 1.6 1.1 2.1 2.4 2.1h.8v6.2h-19.5v-6.2h.8c1.3 0 1.8-.5 1.2-2.1zm-6.5-5.8h5.1l-2.5-8zm43.8-18.1l10.5 15v-6.7c0-1.7-.3-2.1-1.4-2.1h-1.9v-6.2h14.4v6.2h-1.9c-1.1 0-1.4.4-1.4 2.1V338h-9.3l-14-19.7v11.4c0 1.6.4 2.1 1.5 2.1h1.8v6.2h-14.3v-6.2h1.8c1.1 0 1.4-.5 1.4-2.1v-18c0-1.7-.3-2.1-1.4-2.1h-1.8v-6.2z"/><circle cx="549.6" cy="719.6" r="25.7" fill="#003b71"/><circle cx="703.4" cy="719.6" r="25.7" fill="#503629"/><path fill="#004876" d="M585 716.6h1.9a3.4 3.4 0 0 1 2.2.6 2.2 2.2 0 0 1 .7 1.6 2.4 2.4 0 0 1-.6 1.7 3.1 3.1 0 0 1-2.4.8h-.8v3.1h-1zm1 3.8h.8c1.3 0 2-.6 2-1.6s-.7-1.5-1.8-1.5h-1zm11.5.5c0-1.1-.1-2.4-.1-3.4l-1 3-1.4 3.7h-.7l-1.3-3.7c-.3-1.1-.7-2.1-.9-3 0 1-.1 2.3-.1 3.5l-.3 3.3h-.9l.5-7.8h1.3l1.3 3.8c.3.9.6 1.8.8 2.6a16.1 16.1 0 0 1 .9-2.6l1.3-3.8h1.3l.5 7.8h-1zm2.6 2.2a4.8 4.8 0 0 0 1.8.5 1.4 1.4 0 0 0 1.6-1.4c0-.7-.4-1.1-1.4-1.5s-2.1-1.1-2.1-2.2a2.2 2.2 0 0 1 2.5-2.1 3.2 3.2 0 0 1 1.7.4l-.2.8a3.9 3.9 0 0 0-1.5-.4c-1.1 0-1.5.7-1.5 1.2s.5 1.1 1.6 1.5 1.9 1.1 1.9 2.3-.8 2.2-2.7 2.2a4.2 4.2 0 0 1-2-.5zm12.7-6.3v.7l-3.2 6.8h-1.1l3.3-6.6h-3.7v-.8zm5.4.7h-.8a3 3 0 0 0-2.6 2.6 2.3 2.3 0 0 1 4.1 1.6 2.5 2.5 0 0 1-2.5 2.6c-1.6 0-2.6-1.2-2.6-3.2a5 5 0 0 1 1.2-3.4 4.8 4.8 0 0 1 2.4-1.1h.8zm-.3 4.3a1.6 1.6 0 0 0-1.6-1.7 1.7 1.7 0 0 0-1.4.9.7.7 0 0 0-.1.5c0 1.2.5 2.1 1.6 2.1s1.5-.7 1.5-1.8zm2.5 1.8h.8a2.6 2.6 0 0 0 1.5-.7 3 3 0 0 0 1-2 2.3 2.3 0 0 1-4-1.5 2.6 2.6 0 0 1 2.6-2.6c1.5 0 2.5 1.2 2.5 3.1a4.7 4.7 0 0 1-1.3 3.5 3.7 3.7 0 0 1-2.2 1h-.9zm.3-4.3a1.4 1.4 0 0 0 1.5 1.5 1.5 1.5 0 0 0 1.4-.7c.1-.1.1-.2.1-.4s-.4-2.3-1.5-2.3-1.5.8-1.5 1.9zm5.2 3.8a3.4 3.4 0 0 0 1.7.5c1.3 0 1.7-.8 1.7-1.5s-1-1.5-2-1.5h-.5v-.7h.5c.8 0 1.7-.4 1.7-1.3s-.4-1.1-1.3-1.1a3 3 0 0 0-1.5.5l-.3-.7a3.6 3.6 0 0 1 2-.6c1.5 0 2.1.8 2.1 1.8a1.8 1.8 0 0 1-1.4 1.7 2 2 0 0 1 1.7 2c0 1.2-.9 2.2-2.7 2.2a4.8 4.8 0 0 1-2-.5zm13.9.9a4.8 4.8 0 0 1-2.1.4 3.6 3.6 0 0 1-3.8-3.9 3.9 3.9 0 0 1 4.1-4.1 5.4 5.4 0 0 1 1.8.3l-.2.9a3.8 3.8 0 0 0-1.6-.4 2.9 2.9 0 0 0-3 3.2 2.8 2.8 0 0 0 2.9 3.1 4 4 0 0 0 1.7-.3z"/><path fill="#503629" d="M740.1 712l1.9-.2a2.5 2.5 0 0 1 2.1.7 1.8 1.8 0 0 1 .7 1.6 2.1 2.1 0 0 1-.6 1.6 3 3 0 0 1-2.3.9h-.8v3.1h-1zm1 3.7h.8c1.2 0 1.9-.6 1.9-1.7s-.7-1.5-1.8-1.5h-.9zm11.5.5c-.1-1.1-.2-2.4-.2-3.3l-1 2.9-1.3 3.8h-.8l-1.2-3.7a24.3 24.3 0 0 1-.9-3h-.1c0 .9 0 2.2-.1 3.4l-.2 3.3h-1l.6-7.7h1.2l1.4 3.7a17.1 17.1 0 0 1 .7 2.6h.1c.2-.8.5-1.6.8-2.6l1.4-3.7h1.3l.4 7.7h-.9zm2.5 2.2a3.5 3.5 0 0 0 1.8.5c1.1 0 1.7-.5 1.7-1.3s-.5-1.2-1.5-1.6-2-1.1-2-2.2.9-2.1 2.5-2.1a3.9 3.9 0 0 1 1.7.4l-.3.8a4.3 4.3 0 0 0-1.5-.3c-1 0-1.4.6-1.4 1.1s.4 1.1 1.5 1.5 2 1.2 2 2.3-.9 2.2-2.7 2.2a3.7 3.7 0 0 1-2-.5zm11.1 1.2v-2h-3.5v-.7l3.3-4.8h1.1v4.7h1.1v.8h-1.1v2zm0-2.8v-3.7l-.7 1.1-1.8 2.6h2.5zm7.6-4.7v.7l-3.3 6.8h-1l3.2-6.6h-3.6v-.9zm5.3.8c-.2-.1-.5 0-.8 0a3.1 3.1 0 0 0-2.6 2.7h.1a2 2 0 0 1 1.8-.9 2.2 2.2 0 0 1 2.2 2.4 2.4 2.4 0 0 1-2.5 2.6c-1.6 0-2.6-1.2-2.6-3.1a4.4 4.4 0 0 1 1.3-3.4 3.8 3.8 0 0 1 2.4-1.1h.7zm-.3 4.3c0-1.1-.6-1.7-1.5-1.7a1.6 1.6 0 0 0-1.5.9c-.1.1-.1.2-.1.4s.6 2.2 1.6 2.2a1.6 1.6 0 0 0 1.5-1.8zm10.1 2.2a7 7 0 0 1-2 .3 3.5 3.5 0 0 1-3.8-3.9 4 4 0 0 1 5.8-3.7l-.2.8a3.5 3.5 0 0 0-1.6-.3c-1.8 0-3 1.1-3 3.2a2.8 2.8 0 0 0 3 3.1 3.8 3.8 0 0 0 1.6-.3z"/><path fill="#231f20" d="M1009.7 712.5h8.7v2h-6.5v3.3h6.3v1.9h-6.3v3.5h6.5v2h-8.7zm11 10a4.4 4.4 0 0 0 3.1 1.3c1.2 0 1.8-.4 1.8-1.1s-1-1.1-2.1-1.3-3.4-.8-3.4-2.8 1.3-2.8 3.6-2.8a4.8 4.8 0 0 1 3.5 1.3l-.8 1.4a3.7 3.7 0 0 0-2.7-1.1c-1 0-1.7.4-1.7 1s.9 1 2 1.2 3.5.8 3.5 3-1.3 2.8-3.8 2.8a5.6 5.6 0 0 1-3.9-1.4zm12.1-1.1l-1.3 1.3v2.5h-2v-12.7h2v7.9l4.1-4.4h2.5l-3.9 4.2 3.9 5h-2.5zm12.3 2.8a3.6 3.6 0 0 1-2.9 1.2 3 3 0 0 1-3.2-3 3 3 0 0 1 3.2-3 3.6 3.6 0 0 1 2.9 1.2v-1.4c0-1.1-.8-1.7-2.1-1.7a4 4 0 0 0-2.7 1.1l-.8-1.3a5.4 5.4 0 0 1 3.8-1.5c2.1 0 3.8.8 3.8 3.3v6.1h-2zm0-2.5a2.6 2.6 0 0 0-2.1-.9c-1.2 0-2 .6-2 1.6s.8 1.6 2 1.6a2.6 2.6 0 0 0 2.1-.9zm10.8-2.3c0-1.4-.7-1.9-1.8-1.9a3.4 3.4 0 0 0-2.4 1.3v6.4h-2V716h2v1.3a4.1 4.1 0 0 1 3.3-1.5 2.6 2.6 0 0 1 2.9 2.9v6.5h-2zm9-.5a6.4 6.4 0 0 1 6.5-6.6 5.6 5.6 0 0 1 5.2 2.9l-1.9.9a3.8 3.8 0 0 0-3.3-1.8 4.6 4.6 0 0 0 0 9.1 3.6 3.6 0 0 0 3.3-1.8l1.9 1a5.8 5.8 0 0 1-5.2 2.8 6.3 6.3 0 0 1-6.5-6.5zm12.9 1.7a4.7 4.7 0 1 1 4.7 4.8 4.6 4.6 0 0 1-4.7-4.8zm7.3 0c0-1.6-.9-3.1-2.6-3.1a2.9 2.9 0 0 0-2.7 3.1 2.8 2.8 0 0 0 2.7 3c1.7 0 2.6-1.4 2.6-3zm15.4-1.4c0-1-.5-1.7-1.5-1.7a3 3 0 0 0-2.2 1.3v6.4h-1.9v-6a1.5 1.5 0 0 0-1.6-1.7 3 3 0 0 0-2.1 1.3v6.4h-2V716h2v1.3a3.9 3.9 0 0 1 3-1.5 2.4 2.4 0 0 1 2.5 1.7 3.8 3.8 0 0 1 3.1-1.7 2.5 2.5 0 0 1 2.7 2.8v6.6h-2zm4.6 9.5V716h1.9v1.3a3.8 3.8 0 0 1 3-1.5c2.4 0 4.1 1.8 4.1 4.8s-1.7 4.8-4.1 4.8a3.7 3.7 0 0 1-3-1.5v4.8zm4.3-11.2a3.2 3.2 0 0 0-2.4 1.3v3.6a3.1 3.1 0 0 0 2.4 1.2c1.6 0 2.6-1.2 2.6-3s-1-3.1-2.6-3.1zm12.3 6.7a3.9 3.9 0 0 1-3 1.2 3 3 0 0 1-3.2-3 3 3 0 0 1 3.2-3 3.9 3.9 0 0 1 3 1.2v-1.4c0-1.1-.9-1.7-2.2-1.7a4 4 0 0 0-2.7 1.1l-.8-1.3a5.6 5.6 0 0 1 3.9-1.5c2 0 3.8.8 3.8 3.3v6.1h-2zm0-2.5a2.8 2.8 0 0 0-2.2-.9c-1.1 0-2 .6-2 1.6s.9 1.6 2 1.6a2.8 2.8 0 0 0 2.2-.9zm10.8-2.3a1.7 1.7 0 0 0-1.9-1.9 3 3 0 0 0-2.3 1.3v6.4h-2V716h2v1.3a3.9 3.9 0 0 1 3.2-1.5c2 0 2.9 1 2.9 2.9v6.5h-1.9zm5.2 7.7a1.2 1.2 0 0 0 1.3-.8l.5-1-3.8-9.3h2.1l2.7 6.9 2.7-6.9h2.1l-4.4 10.8a3 3 0 0 1-3.1 2.1h-1.2l.3-1.8zm-128.1 11h1.3v4.3a3.2 3.2 0 0 1 2.7-1.4c2.2 0 3.7 1.7 3.7 4.3s-1.5 4.3-3.7 4.3a3.5 3.5 0 0 1-2.7-1.4v1.2h-1.3zm3.7 10.4c1.7 0 2.7-1.4 2.7-3.2s-1-3.2-2.7-3.2a2.8 2.8 0 0 0-2.4 1.4v3.7a2.9 2.9 0 0 0 2.4 1.3zm6.5 3.1a1.1 1.1 0 0 0 1.2-.9l.6-1.2-3.4-8.3h1.3l2.8 6.7 2.7-6.7h1.4l-4.1 9.9a2.4 2.4 0 0 1-2.4 1.6h-1l.2-1.1zm14.9-7.3l-1.1 1.3v3.8h-1.5v-11.3h1.5v5.8l5-5.8h1.7l-4.7 5.4 5.1 5.9h-1.7zm7.6-3.1h1.3v1.3a3.6 3.6 0 0 1 2.7-1.5v1.3h-.5a2.9 2.9 0 0 0-2.2 1.3v5.8h-1.3zm6.1 10.4a1.2 1.2 0 0 0 1.2-.9l.5-1.2-3.4-8.3h1.4l2.7 6.7 2.7-6.7h1.4l-4.1 9.9a2.3 2.3 0 0 1-2.4 1.6h-.9l.2-1.1zm7.8-4.2a3.8 3.8 0 0 0 2.7 1.2c1.3 0 1.9-.6 1.9-1.4s-1-1.2-2.1-1.4-2.9-.7-2.9-2.4 1.1-2.4 3-2.4a4.2 4.2 0 0 1 3.1 1.2l-.6.9a3.3 3.3 0 0 0-2.5-1.1c-1.1 0-1.8.5-1.8 1.3s.9 1 2 1.3 3.1.7 3.1 2.5-1.1 2.5-3.2 2.5a4.5 4.5 0 0 1-3.4-1.3zm8.2.3v-5.4h-1.4v-1.1h1.4V739h1.3v2.2h1.7v1.1h-1.7v5.1c0 .6.3 1.1.8 1.1a1.3 1.3 0 0 0 .9-.4l.4 1a2.3 2.3 0 0 1-1.6.5 1.7 1.7 0 0 1-1.8-1.9zm5.2 3.9c.6 0 .9-.2 1.2-.9l.6-1.2-3.5-8.3h1.4l2.7 6.7 2.8-6.7h1.4l-4.2 9.9a2.3 2.3 0 0 1-2.4 1.6h-.9l.2-1.1zm13.4-7.6c0-1.4-.7-1.9-1.8-1.9a2.9 2.9 0 0 0-2.4 1.3v6h-1.3v-8.2h1.3v1.2a3.9 3.9 0 0 1 2.9-1.4 2.3 2.3 0 0 1 2.6 2.6v5.8h-1.3zm9 4.5a3.7 3.7 0 0 1-2.7 1.1 2.7 2.7 0 1 1 0-5.4 3.3 3.3 0 0 1 2.7 1.1v-1.5c0-1.1-.9-1.7-2.1-1.7a3.4 3.4 0 0 0-2.5 1.1l-.6-.8a4 4 0 0 1 3.3-1.4c1.7 0 3.2.8 3.2 2.8v5.6h-1.3zm0-2.4a3.1 3.1 0 0 0-2.3-1 1.8 1.8 0 1 0 0 3.6 2.8 2.8 0 0 0 2.3-1zm17.9-6.1l-3.8 9.4h-.6l-3.8-9.4v9.4h-1.5v-11.3h2.1l3.5 8.6 3.5-8.6h2v11.3h-1.4zm9.2 8.5a3.7 3.7 0 0 1-2.7 1.1 2.7 2.7 0 1 1 0-5.4 3.3 3.3 0 0 1 2.7 1.1v-1.5c0-1.1-.9-1.7-2.1-1.7a3.4 3.4 0 0 0-2.5 1.1l-.6-.8a4 4 0 0 1 3.3-1.4c1.7 0 3.2.8 3.2 2.8v5.6h-1.3zm0-2.4a3.1 3.1 0 0 0-2.3-1 1.8 1.8 0 1 0 0 3.6 2.8 2.8 0 0 0 2.3-1zm7.4-5.1a3.5 3.5 0 0 1 3 1.4l-.8.8a2.8 2.8 0 0 0-2.1-1.1c-1.8 0-2.8 1.4-2.8 3.2s1 3.2 2.8 3.2a2.8 2.8 0 0 0 2.1-1.1l.8.8a3.5 3.5 0 0 1-3 1.4 4.3 4.3 0 0 1 0-8.6zm4.8-2.9h1.3v11.3h-1.3zm7.4 2.9c2.5 0 4 1.9 4 4.4v.3h-6.7a2.9 2.9 0 0 0 3 2.9 3.4 3.4 0 0 0 2.5-1.1l.6.9a4.4 4.4 0 0 1-3.2 1.2 4 4 0 0 1-4.2-4.3 4.1 4.1 0 0 1 4-4.3zm-2.7 3.8h5.4a2.6 2.6 0 0 0-2.7-2.7 2.7 2.7 0 0 0-2.7 2.7zm8.2.5a4.1 4.1 0 1 1 4.1 4.3 4 4 0 0 1-4.1-4.3zm6.8 0c0-1.7-.9-3.2-2.7-3.2s-2.7 1.5-2.7 3.2 1 3.2 2.7 3.2 2.7-1.5 2.7-3.2zm9.4 2.9a3.5 3.5 0 0 1-2.8 1.4c-2.1 0-3.6-1.6-3.6-4.3s1.5-4.3 3.6-4.3a3.5 3.5 0 0 1 2.8 1.4v-4.3h1.3v11.3h-1.3zm0-4.7a3.1 3.1 0 0 0-2.5-1.4c-1.6 0-2.6 1.4-2.6 3.2s1 3.2 2.6 3.2a3.3 3.3 0 0 0 2.5-1.3z"/><path fill="#503629" d="M287.7 546c0-54.4-23.8-60.1-23.8-80.3s32.9-20.3 7.9-60.8h-28.3v7.8h20.4c18 28.8-11.8 35.1-11.8 53.1s22.5 25.2 22.5 68.8H64.9L87.5 486H76.1L49 546zm191.2 0l-25.4-56.3h-9.8l20.9 44.9h-86.8c8.3-45.7-42.6-44.2-45.3-65.3-3-23.8 13-42.8 3.8-56.6H389l5-7.8h-71.3c11.8 21.6-1.6 36.7-1.6 63.6 0 32.3 59.8 23.4 43.9 77.5z"/><path fill="#231f20" d="M803.5 228.9a12.2 12.2 0 0 0 8.5 2.3c-4-5.8-7.5-14-12.4-25.5 3 3 6.5 5.4 9.6 5-6.4-11.4-12.3-22.4-13.3-30.1 2.7 1.3 5.3 2.2 7.6 1.9a78.6 78.6 0 0 1-10.6-18.4 24.9 24.9 0 0 1 6 .9c-3.7-3.7-7.7-11.9-11.7-20.1a41.5 41.5 0 0 1-10.3 20.3l5.2-1.5c-3.5 7.1-6.9 14.5-10.5 16.9 3 .4 6-.5 8.6 0-2.5 6.5-7 12.8-12.9 18.9 3.6-.4 7.4-.6 9.9-2.3-4.5 10.6-9.1 20.3-13.5 27 3.4.3 6.6.1 9.3-1.7a180.4 180.4 0 0 1-16.3 24.6 98.4 98.4 0 0 0 20.2 4.7v14.7h18.4v-14.4a82.3 82.3 0 0 0 21.3-5c-7.4-6.3-13-12.5-13.1-18.2zM708.2 92.8l12.2-27.3-3.3-3.1-11.2 25.3L695 63.2l-3.3 3.1L703.6 93l-1.7 3.7-32.9 73.1s52.1-13.6 52.1 40.9h40.2zm-32.4 72l30.1-66.4 48.3 107.3H725c0-48.4-49.2-40.9-49.2-40.9zm14.6 43.3l-10.9 15.5h.7v8.3h-5v-28.7h-15.5v17.4h-5V177h-40.9v87.6h86.8v-41h.6l-10.8-15.5z"/><path fill="#231f20" d="M721.1 292.2c0-24.5-10.7-27-10.7-36.1s14.8-9.1 3.5-27.3h-12.7v3.4h9.2c8.1 13-5.3 15.8-5.3 23.9s10.1 11.3 10.1 31H621l10.1-21.9H626l-12.2 27zm85.9 0l-11.4-25.4h-4.4l9.4 20.3h-39c3.7-20.6-19.2-20-20.4-29.4s7.8-18.2 1.7-25.5h23.7l2.2-3.4h-32c7.3 9.7-.7 16.5-.7 28.5 0 14.5 26.9 10.6 19.7 34.9zm126.9 208a3.7 3.7 0 0 0 2.7.7 42.6 42.6 0 0 1-3.9-8c.9.9 2 1.7 3 1.6-2-3.6-3.9-7.1-4.2-9.5a4.7 4.7 0 0 0 2.4.6 22.3 22.3 0 0 1-3.3-5.8l1.9.3c-1.2-1.2-2.5-3.8-3.7-6.3a14.3 14.3 0 0 1-3.2 6.4l1.6-.5c-1.1 2.2-2.2 4.6-3.3 5.3.9.1 1.9-.1 2.7 0a19.5 19.5 0 0 1-4.1 6c1.2-.2 2.4-.2 3.1-.8a51.7 51.7 0 0 1-4.2 8.5 4 4 0 0 0 2.9-.5 51.3 51.3 0 0 1-5.1 7.7 35 35 0 0 0 6.4 1.5v4.6h5.7v-4.5a22.6 22.6 0 0 0 6.7-1.6c-2.3-2-4.1-3.9-4.1-5.7zm-30-42.8l3.9-8.6-1.1-1-3.5 8-3.4-7.7-1 1 3.7 8.4-.5 1.1-10.4 23s16.4-4.3 16.4 12.9h12.7zM893.8 480l9.4-20.9 15.2 33.8h-9.2c0-15.2-15.4-12.9-15.4-12.9zm4.5 13.6l-3.4 4.9h.2v2.6h-1.5v-9h-4.9v5.5h-1.6v-13.7h-12.8v27.5h27.3v-12.9h.1l-3.4-4.9z"/><path fill="#231f20" d="M908 520.1c0-7.7-3.4-8.5-3.4-11.4s4.7-2.8 1.1-8.6h-4v1.1h2.9c2.6 4.1-1.6 5-1.6 7.5s3.1 3.6 3.1 9.8h-29.6l3.2-6.9h-1.6l-3.8 8.5zm27 0l-3.6-8H930l3 6.4h-12.3c1.2-6.5-6-6.3-6.4-9.3s2.5-5.7.6-8h7.4l.7-1.1h-10.1c2.3 3.1-.2 5.2-.2 9s8.5 3.3 6.2 11z"/><path fill="#003b71" d="M820.7 500.2a3.7 3.7 0 0 0 2.7.7 49.9 49.9 0 0 1-3.9-8c.9.9 2.1 1.7 3 1.6-2-3.6-3.9-7.1-4.2-9.5a4.7 4.7 0 0 0 2.4.6 22.3 22.3 0 0 1-3.3-5.8l1.9.3c-1.2-1.2-2.4-3.8-3.7-6.3a14.3 14.3 0 0 1-3.2 6.4l1.6-.5c-1.1 2.2-2.2 4.6-3.3 5.3 1 .1 1.9-.1 2.7 0a19.5 19.5 0 0 1-4.1 6c1.2-.2 2.4-.2 3.2-.8a60.3 60.3 0 0 1-4.3 8.5 4 4 0 0 0 2.9-.5 51.3 51.3 0 0 1-5.1 7.7 37.1 37.1 0 0 0 6.4 1.5v4.6h5.7v-4.5a22.6 22.6 0 0 0 6.7-1.6c-2.3-2-4-3.9-4.1-5.7z"/><path fill="#503629" d="M790.8 457.4l3.8-8.6-1-1-3.6 8-3.4-7.7-1 1 3.7 8.4-.5 1.1-10.4 23s16.4-4.3 16.4 12.9h12.7zM780.6 480l9.5-20.9 15.1 33.8H796c0-15.2-15.4-12.9-15.4-12.9z"/><path fill="#003b71" d="M785.2 493.6l-3.4 4.9h.1v2.6h-1.5v-9h-4.9v5.5H774v-13.7h-12.9v27.5h27.3v-12.9h.2l-3.4-4.9z"/><path fill="#503629" d="M794.8 520.1c0-7.7-3.3-8.5-3.3-11.4s4.6-2.8 1.1-8.6h-4v1.1h2.9c2.5 4.1-1.7 5-1.7 7.5s3.2 3.6 3.2 9.8h-29.7l3.2-6.9h-1.6l-3.8 8.5zm27 0l-3.6-8h-1.3l2.9 6.4h-12.3c1.2-6.5-6-6.3-6.3-9.3s2.4-5.7.5-8h7.4l.7-1.1h-10c2.3 3.1-.3 5.2-.3 9s8.5 3.3 6.2 11z"/><path fill="#fff" d="M1068.3 229.2a12.2 12.2 0 0 0 8.5 2.2c-3.9-5.7-7.5-14-12.4-25.4 3 2.9 6.5 5.4 9.6 4.9-6.4-11.3-12.3-22.4-13.3-30.1 2.7 1.4 5.3 2.2 7.6 1.9a76.6 76.6 0 0 1-10.6-18.4 22.5 22.5 0 0 1 6.1 1c-3.7-3.7-7.8-12-11.8-20.1a42.6 42.6 0 0 1-10.2 20.3l5.1-1.5c-3.5 7.1-6.9 14.5-10.4 16.8 3 .5 5.9-.4 8.5 0-2.5 6.6-6.9 12.9-12.9 19 3.6-.4 7.4-.6 9.9-2.3-4.5 10.5-9.1 20.2-13.5 26.9 3.4.3 6.7.2 9.3-1.6a180.4 180.4 0 0 1-16.3 24.6 114.5 114.5 0 0 0 20.3 4.7v14.6h18.3v-14.4a78.2 78.2 0 0 0 21.3-4.9c-7.3-6.4-13-12.6-13.1-18.2zM973 93.1l12.2-27.3-3.3-3.2L970.7 88l-10.9-24.5-3.3 3.1 11.9 26.7-1.6 3.7-33 73s52.1-13.5 52.1 40.9h40.3zM940.6 165l30.2-66.4L1019 206h-29.2c0-48.5-49.2-41-49.2-41zm14.6 43.4l-10.8 15.5h.6v8.3h-5v-28.8h-15.5v17.5h-4.9v-43.6h-41v87.6h86.9v-41h.5l-10.8-15.5z"/><path fill="#fff" d="M985.9 292.4c0-24.4-10.7-27-10.7-36.1s14.8-9.1 3.6-27.3H966v3.5h9.2c8.1 13-5.3 15.8-5.3 23.9s10.1 11.3 10.1 30.9h-94.2l10.1-21.9h-5.1l-12.2 27zm85.9 0l-11.4-25.3h-4.4l9.4 20.2h-39c3.7-20.6-19.2-19.9-20.3-29.4s7.7-18.2 1.7-25.4h23.6l2.3-3.5h-32.1c7.3 9.7-.7 16.5-.7 28.6 0 14.5 26.9 10.5 19.8 34.8z"/></svg>