<svg xmlns="http://www.w3.org/2000/svg" width="5in" height="5in" viewBox="0 0 360 360"><path fill="#e0d8ec" d="M0 0h360v360H0z"/><path fill="#eeedee" d="M309.8 279.2c-27-7.9-75.3-13.1-130.5-13.1s-103.4 5.2-130.4 13.1H26v14.5c0 15.3 68.7 27.7 153.3 27.7s153.4-12.4 153.4-27.7v-14.5z"/><ellipse cx="179.3" cy="279.2" fill="#fff" rx="153.3" ry="27.7"/><path fill="#f8aaa5" d="M101.9 162.3c-15.4 1.8-16.7-12.7-8.5-18.7s-.2-9.3-.2-9.3c19.6 4.5 24.5 27 8.7 28zm113.4-85c-14.1 6.2-19.6-7.2-13.6-15.4s-3-8.8-3-8.8c20.1-1.5 31.4 18.5 16.6 24.2zm45-9.4c-14.9 3.5-17.8-8.3-10.5-14.4s-1.2-7.6-1.2-7.6c19.7 1.1 27.1 19 11.7 22zm-129 88.2c-15.3 1.8-16.6-12.7-8.4-18.7s-.2-6.1-.2-6.1c18-6.3 24.4 23.8 8.6 24.8zm38.8-17c-14.1 9.2-21.2-1.1-15.7-9.8s-2.6-4.5-2.6-4.5c15-14.1 33.2 5.5 18.3 14.3zm25.3-35.5c-7.7 15.1-18.9 9.7-18.6-.6s-4.5-2.6-4.5-2.6c5.9-19.7 31.5-12 23.1 3.2z"/><path fill="none" stroke="#f37f7e" stroke-linejoin="round" d="M101.9 162.3c-15.4 1.8-16.7-12.7-8.5-18.7s-.2-9.3-.2-9.3c19.6 4.5 24.5 27 8.7 28zm113.4-85c-14.1 6.2-19.6-7.2-13.6-15.4s-3-8.8-3-8.8c20.1-1.5 31.4 18.5 16.6 24.2zm45-9.4c-14.9 3.5-17.8-8.3-10.5-14.4s-1.2-7.6-1.2-7.6c19.7 1.1 27.1 19 11.7 22zm-129 88.2c-15.3 1.8-16.6-12.7-8.4-18.7s-.2-6.1-.2-6.1c18-6.3 24.4 23.8 8.6 24.8zm38.8-17c-14.1 9.2-21.2-1.1-15.7-9.8s-2.6-4.5-2.6-4.5c15-14.1 33.2 5.5 18.3 14.3zm25.3-35.5c-7.7 15.1-18.9 9.7-18.6-.6s-4.5-2.6-4.5-2.6c5.9-19.7 31.5-12 23.1 3.2z"/><path fill="#f8afaa" d="M283.9 282.8a5.6 5.6 0 0 0 1.8-6.5c-9.3-24.7 6.1-76.2 10.9-86.4 9.6-15.3-54.3 2.3-85.3 33.2-16.4 17.9-128.9 1.8-128.9 1.8A297.5 297.5 0 0 0 71.8 278a5.2 5.2 0 0 0 .6 3c13.6 24.4 184.6 22.8 211.5 1.8z"/><path fill="none" stroke="#ed7a7a" stroke-miterlimit="10" d="M283.9 282.8a5.6 5.6 0 0 0 1.8-6.5c-9.3-24.7 6.1-76.2 10.9-86.4 9.6-15.3-54.3 2.3-85.3 33.2-16.4 17.9-128.9 1.8-128.9 1.8A297.5 297.5 0 0 0 71.8 278a5.2 5.2 0 0 0 .6 3c13.6 24.4 184.6 22.8 211.5 1.8z"/><path fill="#f8afaa" d="M290.7 127.3c-14.4-17.8-79.3 12-124.7 73-22.4 26.6-80 20.2-80 20.2-5.5-5.5 3.5-14.3 0-32.7s.5-27.4 5.5-27.4 61.1-2.9 81.1-29.1 44-65.4 83-65.4c12.7 0 20 13.7 20 13.7s15.1 38.3 15.1 47.7z"/><path fill="none" stroke="#ed7a7a" stroke-miterlimit="10" d="M290.7 127.3c-14.4-17.8-79.3 12-124.7 73-22.4 26.6-80 20.2-80 20.2-5.5-5.5 3.5-14.3 0-32.7s.5-27.4 5.5-27.4 61.1-2.9 81.1-29.1 44-65.4 83-65.4c12.7 0 20 13.7 20 13.7s15.1 38.3 15.1 47.7z"/><path fill="#f37f7e" d="M84.1 165.9c-3.6 9.3 1.5 18.5 0 24.1s-4 13.2 2.2 13.2 17.4-22.7 27.1-22.7 16.9 7 29.8-6 10.5-15 24.2-20.2 21.6-11.6 26.5-29c1.5-6.5 8.2 6.3 12.7 1.8s3.6-10.4 6.4-10.4 17.1.3 22-14.2 22.2-1.6 28.7-3.6 6.2-6.3 8.9-5.7 10.6 4.5 10.6 6.9l1.5 4.2c7.7-6.2-6-16.1-6-21.6s-2.1-12.6.8-16.5-7.3-12.3-16.6-1.4c-3.6-2.5-26.5-1.2-33.5 6.3-2.6-6.5-20.2-6.1-31.3 11.9s-12.6 30.5-21.1 39c-4 .1-8.6 6.6-9.6 10.3-4 .1-7.5 3.9-10.8 10-10.4 5-42.6 16.6-64.3 15.9-5-.6-8.2 7.7-8.2 7.7z"/><path fill="none" stroke="#ee6565" stroke-miterlimit="10" d="M84.1 165.9c-3.6 9.3 1.5 18.5 0 24.1s-4 13.2 2.2 13.2 17.4-22.7 27.1-22.7 16.9 7 29.8-6 10.5-15 24.2-20.2 21.6-11.6 26.5-29c1.5-6.5 8.2 6.3 12.7 1.8s3.6-10.4 6.4-10.4 17.1.3 22-14.2 22.2-1.6 28.7-3.6 6.2-6.3 8.9-5.7 10.6 4.5 10.6 6.9l1.5 4.2c7.7-6.2-6-16.1-6-21.6s-2.1-12.6.8-16.5-7.3-12.3-16.6-1.4c-3.6-2.5-26.5-1.2-33.5 6.3-2.6-6.5-20.2-6.1-31.3 11.9s-12.6 30.5-21.1 39c-4 .1-8.6 6.6-9.6 10.3-4 .1-7.5 3.9-10.8 10-10.4 5-42.6 16.6-64.3 15.9-5-.6-8.2 7.7-8.2 7.7z"/><path fill="#fff" d="M279.1 69.3l-.3-.5c-1.4-2.6-3.2-4.4-5.3-4.4h-.6c-2.3.5-3.8 3.5-3.6 7.2a33.9 33.9 0 0 1 6.4 7.9l.6 1.5h-.1l2.7 7.1a12.7 12.7 0 0 0 2.6-8.3 25 25 0 0 0-2.4-10.5zm-50.4 27.6c0 9.6-5.5 15-11.6 15s-11.8-4.5-11.8-14.1S212 76.4 218 76.4s10.7 11 10.7 20.5z"/><ellipse cx="219.7" cy="87.4" fill="#9d80bb" rx="6.9" ry="11.2" transform="rotate(-12 219.742 87.546)"/><ellipse cx="219.7" cy="87.4" fill="none" stroke="#694691" stroke-miterlimit="10" rx="6.9" ry="11.2" transform="rotate(-12 219.742 87.546)"/><ellipse cx="276" cy="71.3" fill="#9d80bb" rx="3.7" ry="6" transform="rotate(-15.6 276.557 71.35)"/><ellipse cx="276" cy="71.3" fill="none" stroke="#694691" stroke-miterlimit="10" rx="3.7" ry="6" transform="rotate(-15.6 276.557 71.35)"/><path fill="#754b9e" d="M291.4 134.3c-10.6 6.6-24.4 18.6-22.9 26.5-.2 3.4 3.7 8.5-1 10.3-2.7.3.4-9.4-4.2-9.1s-12.7 17.4-7.8 27.7l-8.5 5.1c.9-8.3-.3-22.3-5-17.6s-9.5 31-9.5 31-28.1 21.7-31.5 21.7l-36.8-.4-.5-22.5 52.9-55s69.9-40.3 74.8-17.7z"/><ellipse cx="276.7" cy="68.9" fill="#64468a" rx="1.8" ry="3" transform="rotate(-15.6 277.272 68.846)"/><path fill="none" stroke="#694691" stroke-miterlimit="10" d="M291.4 134.3c-10.6 6.6-24.4 18.6-22.9 26.5-.2 3.4 3.7 8.5-1 10.3-2.7.3.4-9.4-4.2-9.1s-12.7 17.4-7.8 27.7l-8.5 5.1c.9-8.3-.3-22.3-5-17.6s-9.5 31-9.5 31-28.1 21.7-31.5 21.7l-36.8-.4-.5-22.5 52.9-55s69.9-40.3 74.8-17.7z"/><path fill="#64468a" d="M281.8 123.9c3.1 7.2-1.4 19.6-42.6 50.4s-68.7 61.2-78.6 53.7 14.3-40.9 49.6-70.7 71.6-33.4 71.6-33.4z"/><path fill="none" stroke="#58397d" stroke-miterlimit="10" d="M281.8 123.9c3.1 7.2-1.4 19.6-42.6 50.4s-68.7 61.2-78.6 53.7 14.3-40.9 49.6-70.7 71.6-33.4 71.6-33.4z"/><ellipse cx="221" cy="80.7" fill="#64468a" rx="2.6" ry="4.4" transform="rotate(-15.6 221.33 80.891)"/><path fill="#f37f7e" d="M268.5 76.3c3.7-8.2 3.5-9.1 9.6-10-2.3-4.9-11.1-2.4-9.6 10z"/><path fill="#bb4f3c" d="M169.5 227c6.5-13.6 48.2-49.4 70.5-39.9 7.7 5-27 25.2-28.4 35.4z"/><path fill="none" stroke="#b53c2f" stroke-miterlimit="10" d="M169.5 227c6.5-13.6 48.2-49.4 70.5-39.9 7.7 5-27 25.2-28.4 35.4z"/><path fill="#f37f7e" d="M227.5 77.6c-9.9-2.5-18.8 7.3-21.1 30.1-7.4-6.2-2.1-47.7 21.1-30.1z"/><path fill="#58397d" d="M282.6 129c-.6 12-31.7 36.7-31.7 36.7-1 4.3 1.1 8.3-1 10.5s.4-8.5-2.6-7.8-6.6 7.3-8.1 5.9c4.6-6.4 42.6-35.9 43.4-45.3z"/><path fill="#8968ad" d="M299.4 184.3c-4.5-6.6-20.9-13.7-58.7 12.5-17.2 11.8-27 25.4-32.5 23.8s-18.3-33.1-1.2-53.6 29.6-25.6 29.6-16.5-5.6 18.1 0 18.1c10.7 0 1.5-14.2 3.6-19.7s21.1-19 33.2-19 11.7 2.1 12.1 2.7c1.6 2.4 3.1 8.2 2.5 9.9s-4.5 9.3-1 9.7 2.6-2.7 3.4-5.8 4.5-11.6 2.8-17.2-11.6-6.8-11.6-6.8-28.2-7.1-73.8 32.7-44.4 52.7-55.9 56-22.6 10.5-65.1 9c-3.4 1-5.4 3.7-6.7 7.9s-4.1 16-5.9 19.5-.3 11.5 4.3 6.9 3.3-20.4 6.2-24.3 4.9-2 4.9-2c-1 1.8-5.1 13.5-.5 13.5s.7-11.1 5-12.7 10.9 3.9 16 1.5 10.4 4.7 16.3 3.6 11.8-4.4 12.5-2.1-5.3 12.7-2.8 15.2 4.4-2.5 4.4-8.8 4.1-7.8 13-5 24.5-1.6 30.2-1 10 6.1 15.5 5.5 7.9 10.8 2.5 17-4.3 11.7-1.1 11.3 13.1-14.1 13.1-27.6 3.3-16.3 6.6-17.3 8.4-3.7 8.4 1.7-3.8 12.5.4 12.5 1.8-12.2 6.9-21.5 16.4-18.6 22.1-19.3 7.4-.5 5.2 2.3-4.6 10.2-.8 10.8 5.2-8 5.8-12.9 10.9-9.7 13.8-7.8 1.6 7.6-.4 9.5-1.2 5.2.9 5.2 1.3-5.7 5.1-10.8 6.8-.4 6.8-.4c3.7 5.9-13.5 23.4-9.5 27.4s5.7-7.9 8.2-12.9 9.8-17.3 6.2-20.7zM175 224.4c-16.1 7.1-8.5-18.9-5.2-20.4s11.7 17.2 5.2 20.4zm14.8-.7c-13.3 5.9-11.9-29.6-6-31.4 8.1-2.5 14.2 28.9 6 31.4z"/><path fill="none" stroke="#694691" stroke-miterlimit="10" d="M299.4 184.3c-4.5-6.6-20.9-13.7-58.7 12.5-17.2 11.8-27 25.4-32.5 23.8s-18.3-33.1-1.2-53.6 29.6-25.6 29.6-16.5-5.6 18.1 0 18.1c10.7 0 1.5-14.2 3.6-19.7s21.2-17.7 33.2-19c8-.9 10.7 1.3 12.1 2.7s3.7 7.4 2.5 9.9-4.5 9.3-1 9.7 2.6-2.7 3.4-5.8 4.5-11.6 2.8-17.2-11.6-6.8-11.6-6.8-28.2-7.1-73.8 32.7-44.4 52.7-55.9 56-22.6 10.5-65.1 9c-3.4 1-5.4 3.7-6.7 7.9s-4.1 16-5.9 19.5-.3 11.5 4.3 6.9 3.3-20.4 6.2-24.3 4.9-2 4.9-2c-1 1.8-5.1 13.5-.5 13.5s.7-11.1 5-12.7 10.9 3.9 16 1.5 10.4 4.7 16.3 3.6 11.8-4.4 12.5-2.1-5.3 12.7-2.8 15.2 4.4-2.5 4.4-8.8 4.1-7.8 13-5 24.5-1.6 30.2-1 10 6.1 15.5 5.5 7.9 10.8 2.5 17-4.3 11.7-1.1 11.3 13.1-14.1 13.1-27.6 3.3-16.3 6.6-17.3 8.4-3.7 8.4 1.7-3.8 12.5.4 12.5 1.8-12.2 6.9-21.5 16.4-18.6 22.1-19.3 7.4-.5 5.2 2.3-4.6 10.2-.8 10.8 5.2-8 5.8-12.9 10.9-9.7 13.8-7.8 1.6 7.6-.4 9.5-1.2 5.2.9 5.2 1.3-5.7 5.1-10.8 6.8-.4 6.8-.4c3.7 5.9-13.5 23.4-9.5 27.4s5.7-7.9 8.2-12.9 9.8-17.3 6.2-20.7zM175 224.4c-16.1 7.1-8.5-18.9-5.2-20.4s11.7 17.2 5.2 20.4zm14.8-.7c-13.3 5.9-11.9-29.6-6-31.4 8.1-2.5 14.2 28.9 6 31.4z"/><ellipse cx="91.8" cy="211.2" fill="#f37f7e" rx="1.3" ry="2.3"/><ellipse cx="228.7" cy="119.6" fill="#f37f7e" rx="1.3" ry="2.3"/><ellipse cx="177.3" cy="154" fill="#f37f7e" rx="1.3" ry="2.3"/><ellipse cx="149.9" cy="186.6" fill="#f37f7e" rx="1.3" ry="2.3"/><ellipse cx="231.3" cy="114.8" fill="#f37f7e" rx="1.3" ry="2.3"/><ellipse cx="283.8" cy="118" fill="#f37f7e" rx="1.3" ry="2.3"/><ellipse cx="94.2" cy="215.5" fill="#f37f7e" rx="1.3" ry="2.3"/><ellipse cx="88.8" cy="205.5" fill="#f37f7e" rx=".8" ry="1.6"/><ellipse cx="146.3" cy="181.1" fill="#f37f7e" rx=".8" ry="1.6"/><ellipse cx="180" cy="156.3" fill="#f37f7e" rx=".8" ry="1.6"/><ellipse cx="87.8" cy="210" fill="#f37f7e" rx=".6" ry="1.1"/><ellipse cx="226.9" cy="123.9" fill="#f37f7e" rx=".6" ry="1.1"/><ellipse cx="279.7" cy="116.8" fill="#f37f7e" rx=".6" ry="1.1"/><ellipse cx="225.8" cy="118" fill="#f37f7e" rx=".6" ry="1.1"/><ellipse cx="279" cy="212.5" fill="#f37f7e" rx="1.3" ry="2.3"/><ellipse cx="281.6" cy="207.7" fill="#f37f7e" rx="1.3" ry="2.3"/><ellipse cx="276.1" cy="210.9" fill="#f37f7e" rx=".6" ry="1.1"/><ellipse cx="287" cy="120.3" fill="#f37f7e" rx=".6" ry="1.1"/><ellipse cx="86.1" cy="214.8" fill="#f37f7e" rx=".8" ry="1.6"/><ellipse cx="89.6" cy="217.1" fill="#f37f7e" rx=".8" ry="1.6"/><ellipse cx="97" cy="204.4" fill="#f37f7e" rx="1.5" ry="2.7"/><ellipse cx="98.6" cy="213.4" fill="#f37f7e" rx="2" ry="4.1"/><ellipse cx="272.7" cy="277.3" fill="#f37f7e" rx="1.3" ry="2.3"/><ellipse cx="266.2" cy="271.9" fill="#f37f7e" rx=".6" ry="1.1"/><ellipse cx="275.5" cy="266.3" fill="#f37f7e" rx="1.5" ry="2.7"/><ellipse cx="277.1" cy="275.2" fill="#f37f7e" rx="2" ry="4.1"/><ellipse cx="80.1" cy="275.6" fill="#f37f7e" rx="1.3" ry="2.3"/><ellipse cx="82.5" cy="279.9" fill="#f37f7e" rx="1.3" ry="2.3"/><ellipse cx="86.1" cy="284.5" fill="#f37f7e" rx="1.3" ry="2.3"/><ellipse cx="80.8" cy="268.4" fill="#f37f7e" rx="1.3" ry="2.3"/><ellipse cx="77" cy="270" fill="#f37f7e" rx=".8" ry="1.6"/><ellipse cx="76" cy="274.5" fill="#f37f7e" rx=".6" ry="1.1"/><ellipse cx="77.8" cy="280.8" fill="#f37f7e" rx=".6" ry="1.1"/><ellipse cx="74.3" cy="279.2" fill="#f37f7e" rx=".8" ry="1.6"/><ellipse cx="85.3" cy="268.8" fill="#f37f7e" rx="1.5" ry="2.7"/><ellipse cx="86.9" cy="277.8" fill="#f37f7e" rx="2" ry="4.1"/><ellipse cx="91.8" cy="286.1" fill="#f37f7e" rx="2" ry="4.1"/><ellipse cx="145.6" cy="189.6" fill="#f37f7e" rx="2" ry="4.1"/><ellipse cx="157.6" cy="261.2" fill="#f37f7e" rx="1.3" ry="2.3"/><ellipse cx="154" cy="255.7" fill="#f37f7e" rx=".8" ry="1.6"/><ellipse cx="153.2" cy="264.3" fill="#f37f7e" rx="2" ry="4.1"/><ellipse cx="239.3" cy="240.1" fill="#f37f7e" rx="1.3" ry="2.3"/><ellipse cx="242.9" cy="245.6" fill="#f37f7e" rx=".8" ry="1.6"/><ellipse cx="243.7" cy="237" fill="#f37f7e" rx="2" ry="4.1"/><path fill="#ee6565" d="M177 122c-10.2 0-12 19.2-11.3 20.7 2.5-11.3 3-16.2 11.3-20.7z"/><path fill="#ee6565" d="M167.1 132.3c-9.1 1.1-11.9 12.3-11.1 14.7 0-3 4.1-13.5 11.1-14.7z"/><path fill="none" stroke="#ee6565" stroke-linecap="round" stroke-linejoin="round" d="M206.4 107.7c2.2-16.9 6.3-31.2 21.1-30.1"/><path fill="none" stroke="#ee6565" stroke-linecap="round" stroke-linejoin="round" stroke-width=".75" d="M279 66.7c-5.8-1.2-8.8 3.8-10.5 9.6"/><path fill="#fff" d="M341.6 345.6l1.2.3-3-5.1 13-23.3H326l12.9 23.3-2.1 3.9 1.1-.4 1.5-2.7zm-2.2-5.6l-12-21.7h24z"/><path fill="#fff" d="M331.4 354.2v-.9h-4l12-21.6 12 21.6h-3.5v.9h4.9l-13-23.3 3-5.2-1.2.4-2.2 3.9-3.2-5.8-1.2-.3 3.9 7-12.9 23.3h5.4z"/><path fill="#fff" d="M332.5 354h.7v-5.8h1.4v2.8h.4l2.3-2.3c.2-.2.2-.5-.2-.5h1.2c-.3 0-.4.2-.8.5l-1.5 1.5 2.5 3.8h.3v.2H336v-.2h.8l-1.9-2.9h-.3v2.9h.8v.2h-2.9zm6.9 0h.3c.4 0 .5-.2.5-.5v-5.3h1.4l1.7 4.4 1.5-4.4h1.4v5.8h.8v.2h-3v-.2h.8v-5.3l-2 5.5h-.4l-2.1-5.5v4.8c0 .3.2.5.6.5h.3v.2h-1.8z"/></svg>