<svg xmlns="http://www.w3.org/2000/svg" width="5in" height="5in" viewBox="0 0 360 360"><path fill="#606e7a" d="M195.5 255.2l10.4 3.2-25.1-44.3L292.3 13.8H61.4l111.5 200.3-18.7 33.6 9.9-3.3 12.7-23.2zM176.8 207L73.3 21.1h207z"/><path fill="#606e7a" d="M108.3 329.2v-7.4h-35l103.5-185.9 103.5 185.9h-30.6v7.4h42.6L180.8 128.9l25.1-44.4-10.4 3.3-18.7 34-27.8-50-9.9-3.3 33.8 60.4L61.4 329.2h46.9z"/><path fill="#e8b2b1" d="M62.2 203.3h6.7v-49.7h-6.7v-1.2h25.3v1.2h-6.7v23.3h3l20-19.5c1.7-1.7 1.6-3.8-2.1-3.8H99v-1.2h14.6v1.2h-1.3c-2.6 0-3.8.9-6.9 3.9l-12.9 12.6 21.2 33.2h2.9v1.2H92.9v-1.2h6.4l-16.1-25.2h-2.4v25.2h6.7v1.2H62.2zm171.5 0h2.4c3.5 0 4.7-1.7 4.7-4.7v-45h-6.6v-1.2H253l14.2 37.9 13.6-37.9h18.1v1.2h-6.6v49.7h6.6v1.2h-25.6v-1.2h7v-46.1l-17 47.3H260l-18-47.2v41.3c0 3 1.2 4.7 4.7 4.7h2.4v1.2h-15.4zM112.8 331.8h4v-28.4h-4v-.7h13c10.5 0 15 5.7 15 14.4s-4.2 15.4-15 15.4h-13zm13.1 0c6.7 0 10-4.9 10-14.2s-3.3-14.2-10-14.2h-4.7v28.4zm23.4-9.3c0 7.6 1.8 9.6 5.3 9.6s6.4-2.1 6.4-5.5h.7a5.9 5.9 0 0 1-4.2 5.6 8.1 8.1 0 0 1-3.3.6c-5.5 0-9.1-3-9.1-10.4s3.7-10.5 9.1-10.5 8 2.5 8 8.1v1.8h-12.9zm9-1.4v-1.8c0-4.2-.9-6.8-4.1-6.8s-4.7 2.9-4.9 8.6zm7.8 11.7a14.2 14.2 0 0 0 .5-4.2v-3.3h.7v1.6c0 2.3 2.6 5.2 6.8 5.2s5.2-1.3 5.2-3.8c0-5.3-12.8-2-12.8-10.4 0-4.6 4-6 7.1-6a7.1 7.1 0 0 1 5.1 1.9c1-.2 1.4-1.3 1.7-1.9h.6a9.3 9.3 0 0 0-.8 4.2v2.3h-.6v-.8c0-2.3-1.8-5.1-6.1-5.1s-5.3 1.2-5.3 3.8c0 5.2 13 2 13 10.1 0 3.6-2.7 6.4-7.1 6.4a8.5 8.5 0 0 1-5.8-2.2c-.8.2-1.3 1.4-1.6 2.2zm18.2-1h3.1v-18.9h-3.1v-.7h7.1v19.6h3.2v.7h-10.3zm4.8-29.6a2.5 2.5 0 0 1 2.4 2.5 2.4 2.4 0 0 1-4.8 0 2.5 2.5 0 0 1 2.4-2.5zm13.5 33.8c-1.6-.3-2.3.7-2.3 2.7s2 3.7 6.2 3.7 8.5-1.5 8.5-4.7-3.9-3.4-8.4-3.7-9.6-.7-9.6-4.9c0-2.5 1.7-4.1 3.4-5.3a6.2 6.2 0 0 1-2.1-4.9c0-3.9 2.7-7 8.2-7a8.4 8.4 0 0 1 5.9 1.9 2.7 2.7 0 0 0 1.4-2.6c0-1.6-.5-2.4-2.1-2.3v-.4a5.5 5.5 0 0 1 1.6-.2c2.5 0 3.2 1.3 3.2 2.4s-1.7 2.4-3.6 3.6a6.4 6.4 0 0 1 1.6 4.4c0 4.2-3 6.8-8.2 6.8a9.9 9.9 0 0 1-5.3-1.3c-1.3.9-2.3 1.9-2.3 3.3s3.6 2.4 8.4 2.8 9.3 1.2 9.3 5.9-4.8 6.8-9.9 6.8-9.2-1.7-9.2-4.6 2-3 3.9-3a5.8 5.8 0 0 1 1.4.2zm7.9-17.3c0-3.6-.8-6.2-4.1-6.2s-4.1 2.6-4.1 6.3.7 6.1 4 6.1 4.2-2.5 4.2-6.2zm7.4 13.1h3.2v-18.9h-3.2v-.7h7.1v4.8h.1a7.2 7.2 0 0 1 7.2-5.1c4.5 0 6.5 1.9 6.5 6.1v13.8h3.2v.7h-10v-.7h2.8v-14.6c0-3.3-.7-4.5-3.2-4.5a5.8 5.8 0 0 0-4.9 2.6 9.3 9.3 0 0 0-1.6 5v11.5h2.8v.7h-10z"/></svg>