<svg xmlns="http://www.w3.org/2000/svg" xmlns:xlink="http://www.w3.org/1999/xlink" width="432" height="288" viewBox="0 0 432 288"><defs><radialGradient id="b" cx="68.85" cy="191.82" r="290.18" gradientTransform="matrix(.44 0 0 .12 71.1 178.7)" gradientUnits="userSpaceOnUse"><stop offset="0" stop-color="#b16928"/><stop offset=".31" stop-color="#b46c28"/><stop offset=".53" stop-color="#bd7428"/><stop offset=".72" stop-color="#cd8227"/><stop offset=".9" stop-color="#e39626"/><stop offset=".95" stop-color="#ea9c26"/></radialGradient><clipPath id="c"><path fill="none" d="M117.2 254.9H213v19.53h-95.8z"/></clipPath><linearGradient id="a" x1="95.77" x2="101.67" y1="181.57" y2="181.57" gradientUnits="userSpaceOnUse"><stop offset=".43" stop-color="#e3e3e3"/><stop offset="1" stop-color="#fff"/></linearGradient><linearGradient id="d" x1="102.84" x2="108.74" y1="181.57" y2="181.57" xlink:href="#a"/><linearGradient id="e" x1="110.29" x2="114.21" y1="181.57" y2="181.57" xlink:href="#a"/><linearGradient id="f" x1="115.31" x2="119.23" y1="181.57" y2="181.57" xlink:href="#a"/><linearGradient id="g" x1="120.34" x2="124.26" y1="181.57" y2="181.57" xlink:href="#a"/><linearGradient id="h" x1="125.61" x2="129.53" y1="181.57" y2="181.57" xlink:href="#a"/><linearGradient id="i" x1="95.71" x2="98.72" y1="193.66" y2="193.66" xlink:href="#a"/><linearGradient id="j" x1="99.24" x2="102.59" y1="194.47" y2="194.47" xlink:href="#a"/><linearGradient id="k" x1="103.27" x2="106.53" y1="195.23" y2="195.23" xlink:href="#a"/><linearGradient id="l" x1="107.26" x2="110.71" y1="194.47" y2="194.47" xlink:href="#a"/><linearGradient id="m" x1="113.57" x2="114.27" y1="193.66" y2="193.66" xlink:href="#a"/><linearGradient id="n" x1="115.46" x2="118.38" y1="194.42" y2="194.42" xlink:href="#a"/><linearGradient id="o" x1="119.33" x2="122.29" y1="194.47" y2="194.47" xlink:href="#a"/><linearGradient id="p" x1="123.05" x2="123.99" y1="196.21" y2="196.21" xlink:href="#a"/></defs><path fill="#eb9d28" d="M-9-9h450v306H-9z"/><ellipse cx="101.4" cy="201.2" fill="url(#b)" opacity=".5" rx="128.5" ry="35.1"/><path fill="#47331f" d="M164.9 173l36.8 20.7-75.4 19.4-36.2-16.2 74.8-23.9z"/><path fill="#3f2000" d="M201.7 182.7L83.5 131.3l3.1 11.4L200 189l1.7-6.3z"/><path fill="#270900" d="M86.6 142.7l-3.2 9.7 118.3 41.3-1.7-4.7-113.4-46.3z"/><path fill="#462600" d="M188.1 193.8c1.6-.8 3.3-.8 3.7.1s-.5 2.2-2.2 3-3.3.8-3.7-.1.5-2.2 2.2-3"/><path fill="#6b401a" d="M185.9 196.8c4.1.6 3.7-3.2 5.9-2.9-2.3-.8-2.5 2.4-5.9 2.9"/><path fill="#462600" d="M162.2 193.5c1.7-.8 3.4-.8 3.8.1s-.5 2.2-2.2 3-3.3.8-3.8-.1.6-2.2 2.2-3"/><path fill="#6b401a" d="M160.1 196.5c4.1.6 3.7-3.2 5.8-2.9-2.2-.8-2.4 2.4-5.8 2.9"/><path fill="#462600" d="M137.9 204.8c1.6-.8 3.3-.7 3.8.1s-.6 2.3-2.3 3.1-3.3.7-3.7-.1.5-2.3 2.2-3.1"/><path fill="#6b401a" d="M135.7 207.8c4.1.7 3.7-3.1 5.9-2.8-2.3-.8-2.5 2.3-5.9 2.8"/><path fill="#462600" d="M131.5 208.2c1.6-.9 3.3-.8 3.7.1s-.5 2.2-2.2 3-3.3.8-3.8-.1.6-2.2 2.3-3"/><path fill="#6b401a" d="M129.3 211.2c4.1.6 3.7-3.2 5.8-2.9-2.2-.8-2.4 2.3-5.8 2.9"/><path fill="#462600" d="M131.2 205.1c1.6-.8 3.3-.8 3.8.1s-.6 2.2-2.3 3-3.3.8-3.7-.1.5-2.2 2.2-3"/><path fill="#6b401a" d="M129 208.1c4.1.6 3.7-3.1 5.9-2.9-2.3-.8-2.5 2.4-5.9 2.9"/><path fill="#462600" d="M134.4 203c1.6-.9 3.3-.8 3.8 0s-.6 2.3-2.3 3.1-3.3.8-3.7-.1.5-2.2 2.2-3"/><path fill="#6b401a" d="M132.2 206c4.1.6 3.7-3.2 5.9-2.9-2.3-.8-2.5 2.3-5.9 2.9"/><path fill="#462600" d="M129.4 202c1.7-.8 3.4-.8 3.8.1s-.6 2.2-2.2 3-3.4.8-3.8-.1.6-2.2 2.2-3"/><path fill="#6b401a" d="M127.3 205c4.1.6 3.7-3.1 5.8-2.9-2.2-.8-2.4 2.4-5.8 2.9"/><path fill="#462600" d="M140.8 200.2c1.6-.8 3.3-.7 3.7.1s-.5 2.3-2.2 3.1-3.3.8-3.8-.1.6-2.2 2.3-3.1"/><path fill="#6b401a" d="M138.6 203.3c4.1.6 3.7-3.2 5.8-2.9-2.2-.8-2.4 2.3-5.8 2.9"/><path fill="#462600" d="M141.1 197.1c1.7-.8 3.4-.7 3.8.1s-.6 2.3-2.2 3.1-3.4.7-3.8-.1.6-2.3 2.2-3.1"/><path fill="#6b401a" d="M139 200.1c4.1.7 3.7-3.1 5.8-2.8-2.2-.8-2.5 2.3-5.8 2.8"/><path fill="#462600" d="M156.4 199.1c1.7-.8 3.4-.7 3.8.1s-.6 2.3-2.2 3.1-3.4.7-3.8-.1.6-2.3 2.2-3.1"/><path fill="#6b401a" d="M154.3 202.1c4.1.7 3.7-3.1 5.8-2.8-2.3-.8-2.5 2.3-5.8 2.8"/><path fill="#462600" d="M148.1 204.3c1.7-.9 3.4-.8 3.8.1s-.6 2.2-2.2 3-3.4.8-3.8-.1.6-2.2 2.2-3"/><path fill="#6b401a" d="M146 207.3c4.1.6 3.7-3.2 5.8-2.9-2.2-.8-2.5 2.4-5.8 2.9"/><path fill="#462600" d="M176.9 192.6c1-1.5 2.5-2.3 3.3-1.8s.6 2.3-.4 3.8-2.5 2.3-3.3 1.8-.7-2.3.4-3.8"/><path fill="#6b401a" d="M176.5 196.3c3.9-1.5 1.7-4.6 3.6-5.4-2.3.4-.9 3.3-3.6 5.4"/><path fill="#462600" d="M168.4 198.4c1.1-1.5 2.6-2.3 3.4-1.7s.6 2.2-.5 3.7-2.5 2.3-3.3 1.8-.6-2.2.4-3.8"/><path fill="#6b401a" d="M168.1 202.1c3.8-1.5 1.6-4.5 3.6-5.4-2.3.5-1 3.3-3.6 5.4"/><path fill="#462600" d="M163.7 204.7c-1.7-.7-2.7-2.1-2.3-2.9s2.1-1 3.7-.2 2.8 2.1 2.4 2.9-2.1 1-3.8.2"/><path fill="#6b401a" d="M167.4 204.5c-2.1-3.6-4.8-.9-5.9-2.7.8 2.3 3.4.4 5.9 2.7"/><path fill="#462600" d="M196.6 195c-1.7-.8-2.7-2.1-2.3-3s2.1-.9 3.8-.2 2.7 2.1 2.3 3-2.1 1-3.8.2"/><path fill="#6b401a" d="M200.3 194.8c-2.1-3.6-4.8-.9-5.9-2.7.8 2.2 3.4.4 5.9 2.7"/><path fill="#462600" d="M194.1 192.7c-1.6-.7-2.7-2.1-2.3-3s2.1-.9 3.8-.2 2.7 2.1 2.3 3-2.1 1-3.8.2"/><path fill="#6b401a" d="M197.8 192.5c-2.1-3.6-4.7-.9-5.9-2.7.8 2.2 3.4.4 5.9 2.7"/><path fill="#462600" d="M187.9 189.9c-1.7-.8-2.8-2.1-2.4-3s2.1-1 3.8-.2 2.7 2.1 2.3 3-2.1.9-3.7.2"/><path fill="#6b401a" d="M191.5 189.6c-2.1-3.6-4.7-.9-5.9-2.7.8 2.3 3.4.4 5.9 2.7"/><path fill="#462600" d="M192.9 195.5c-1.7-.8-2.7-2.1-2.3-3s2.1-1 3.7-.2 2.8 2.1 2.4 3-2.1.9-3.8.2"/><path fill="#6b401a" d="M196.6 195.2c-2.1-3.6-4.8-.9-5.9-2.7.8 2.3 3.4.4 5.9 2.7"/><path fill="#462600" d="M185.7 192.6c-1.7-.8-2.7-2.1-2.3-3s2.1-1 3.7-.2 2.8 2.1 2.4 3-2.1.9-3.8.2"/><path fill="#6b401a" d="M189.4 192.3c-2.1-3.5-4.8-.8-5.9-2.7.8 2.3 3.3.5 5.9 2.7"/><path fill="#462600" d="M183.8 189.5c-1.6-.7-2.7-2.1-2.3-2.9s2.1-1 3.8-.3 2.7 2.1 2.3 3-2.1 1-3.8.2"/><path fill="#6b401a" d="M187.5 189.3c-2.1-3.6-4.7-.9-5.9-2.7.8 2.2 3.4.4 5.9 2.7"/><path fill="#462600" d="M188.3 196.5c-1.7.7-3.4.5-3.7-.4s.7-2.2 2.5-2.8 3.4-.5 3.7.4-.8 2.2-2.5 2.8"/><path fill="#6b401a" d="M190.7 193.7c-4-1-3.9 2.8-6 2.4 2.1 1 2.6-2.2 6-2.4"/><path fill="#462600" d="M182.2 197.8c-1.7-.7-2.7-2.1-2.3-2.9s2-1 3.7-.3 2.7 2.1 2.3 3-2.1 1-3.7.2"/><path fill="#6b401a" d="M185.9 197.6c-2.2-3.6-4.8-.9-6-2.7.8 2.2 3.4.4 6 2.7"/><path fill="#462600" d="M176.2 200.2c-1.7-.8-2.7-2.1-2.3-3s2-.9 3.7-.2 2.7 2.1 2.3 3-2 1-3.7.2"/><path fill="#6b401a" d="M179.9 200c-2.1-3.6-4.8-.9-5.9-2.7.8 2.2 3.3.4 5.9 2.7"/><path fill="#462600" d="M173.9 194.1c-1.7-.8-2.7-2.1-2.3-3s2.1-1 3.7-.2 2.7 2.1 2.3 2.9-2 1-3.7.3"/><path fill="#6b401a" d="M177.6 193.8c-2.1-3.6-4.8-.9-5.9-2.7.8 2.3 3.3.4 5.9 2.7"/><path fill="#462600" d="M173.5 191.9c-1.7-.7-2.7-2.1-2.3-3s2.1-.9 3.7-.2 2.8 2.1 2.3 3-2 1-3.7.2"/><path fill="#6b401a" d="M177.2 191.7c-2.1-3.6-4.8-.9-5.9-2.7.8 2.2 3.3.4 5.9 2.7"/><path fill="#462600" d="M149.9 199.2c-1.7-.8-2.7-2.1-2.3-3s2.1-1 3.7-.2 2.8 2.1 2.4 3-2.1.9-3.8.2"/><path fill="#6b401a" d="M153.6 198.9c-2.1-3.6-4.8-.9-5.9-2.7.8 2.3 3.4.4 5.9 2.7"/><path fill="#462600" d="M157.2 200.7c-1.7-.8-2.7-2.1-2.3-3s2.1-1 3.8-.2 2.7 2.1 2.3 3-2.1.9-3.8.2"/><path fill="#6b401a" d="M160.9 200.4c-2.1-3.6-4.8-.9-5.9-2.7.8 2.3 3.4.4 5.9 2.7"/><path fill="#462600" d="M182.5 194.4c-1.7-.8-2.7-2.1-2.3-3s2-1 3.7-.2 2.7 2.1 2.3 3-2 .9-3.7.2"/><path fill="#6b401a" d="M186.2 194.1c-2.1-3.6-4.8-.9-5.9-2.7.8 2.3 3.3.4 5.9 2.7"/><path fill="#462600" d="M164.4 198.4c-1.6-.8-2.7-2.1-2.3-3s2.1-1 3.8-.2 2.7 2.1 2.3 3-2.1.9-3.8.2"/><path fill="#6b401a" d="M168.1 198.1c-2.1-3.6-4.7-.9-5.9-2.7.8 2.3 3.4.4 5.9 2.7"/><path fill="#462600" d="M145.9 205.7c-1.7-.7-2.7-2.1-2.3-3s2.1-.9 3.7-.2 2.7 2.1 2.3 3-2 1-3.7.2"/><path fill="#6b401a" d="M149.6 205.5c-2.1-3.6-4.8-.9-5.9-2.7.8 2.2 3.3.4 5.9 2.7"/><path fill="#462600" d="M132.9 203.7c-1.7-.8-2.8-2.1-2.4-3s2.1-1 3.8-.2 2.7 2.1 2.3 3-2.1.9-3.7.2"/><path fill="#6b401a" d="M136.5 203.4c-2.1-3.5-4.7-.8-5.9-2.7.8 2.3 3.4.5 5.9 2.7"/><path fill="#462600" d="M128 208.4c-1.7-.7-2.7-2.1-2.3-2.9s2.1-1 3.7-.2 2.8 2.1 2.4 2.9-2.1 1-3.8.2"/><path fill="#6b401a" d="M131.7 208.2c-2.1-3.6-4.8-.9-5.9-2.7.8 2.3 3.3.4 5.9 2.7"/><path fill="#462600" d="M135.6 211.3c-1.7-.7-2.7-2.1-2.3-3s2-.9 3.7-.2 2.7 2.1 2.3 3-2.1 1-3.7.2"/><path fill="#6b401a" d="M139.3 211.1c-2.2-3.6-4.8-.9-6-2.7.9 2.2 3.4.4 6 2.7"/><path fill="#462600" d="M129.2 203.1c-1.7-.7-2.7-2.1-2.3-3s2.1-.9 3.8-.2 2.7 2.1 2.3 3-2.1 1-3.8.2"/><path fill="#6b401a" d="M132.9 202.9c-2.1-3.6-4.8-.9-5.9-2.7.8 2.2 3.4.4 5.9 2.7"/><path fill="#462600" d="M173.9 199.9c.8-1.2 2-1.8 2.6-1.4s.5 1.7-.3 2.9-2 1.8-2.6 1.4-.4-1.7.3-2.9"/><path fill="#6b401a" d="M173.7 202.7c2.9-1.1 1.2-3.5 2.8-4.1-1.9.3-.8 2.5-2.8 4.1"/><path fill="#462600" d="M145.6 207.7c.8-1.2 1.9-1.8 2.5-1.4s.5 1.7-.3 2.9-1.9 1.8-2.5 1.4-.5-1.7.3-2.9"/><path fill="#6b401a" d="M145.3 210.5c3-1.1 1.3-3.5 2.8-4.1-1.8.3-.7 2.5-2.8 4.1"/><path fill="#462600" d="M154.1 205c.8-1.2 1.9-1.8 2.5-1.4s.5 1.7-.3 2.9-1.9 1.8-2.6 1.4-.4-1.7.4-2.9"/><path fill="#6b401a" d="M153.8 207.8c3-1.1 1.3-3.5 2.8-4.1-1.8.3-.8 2.5-2.8 4.1"/><path fill="#462600" d="M159.1 203.2c1.1 0 2 .6 2 1.3s-.9 1.3-2 1.3-2-.6-2-1.3.9-1.3 2-1.3"/><path fill="#6b401a" d="M157.2 204.9c2 3.3 2.8-1.7 3.8 0-1-2.4-1.9 1.4-3.8 0"/><path fill="#462600" d="M156.9 206.6c1 0 1.9.6 1.9 1.3s-.8 1.3-1.9 1.3-2-.6-2-1.3.9-1.3 2-1.3"/><path fill="#6b401a" d="M154.9 208.3c2.1 3.3 2.8-1.6 3.9 0-1-2.4-1.9 1.4-3.9 0"/><path fill="#462600" d="M163.4 204.8c1.1 0 2 .5 2 1.3s-.9 1.2-1.9 1.2-2-.5-2-1.2.8-1.3 1.9-1.3"/><path fill="#6b401a" d="M161.5 206.5c2 3.3 2.8-1.7 3.9-.1-1-2.3-2 1.5-3.9.1"/><path fill="#462600" d="M169.2 206.4c1.1 0 2 .6 2 1.3s-.9 1.3-1.9 1.3-2-.6-2-1.3.8-1.3 1.9-1.3"/><path fill="#6b401a" d="M167.3 208.1c2 3.3 2.8-1.7 3.9 0-1-2.4-2 1.4-3.9 0"/><path fill="#462600" d="M192.2 204.2c1 0 1.9.6 1.9 1.3s-.8 1.2-1.9 1.3-2-.6-2-1.3.9-1.3 2-1.3"/><path fill="#6b401a" d="M190.2 205.9c2.1 3.3 2.8-1.7 3.9-.1-1-2.3-1.9 1.5-3.9.1"/><path fill="#462600" d="M174.2 203.1c1.1 0 2 .6 2 1.3s-.9 1.3-2 1.3-2-.6-2-1.3.9-1.3 2-1.3"/><path fill="#6b401a" d="M172.3 204.8c2 3.3 2.8-1.7 3.8 0-1-2.4-1.9 1.4-3.8 0"/><path fill="#462600" d="M178.9 202c1.1 0 2 .6 2 1.3s-.9 1.2-2 1.2-1.9-.5-1.9-1.2.8-1.3 1.9-1.3"/><path fill="#6b401a" d="M177 203.7c2 3.3 2.8-1.7 3.8-.1-.9-2.3-1.9 1.5-3.8.1"/><path fill="#462600" d="M185.4 202.7c1.1 0 2 .5 2 1.3s-.9 1.2-2 1.2-1.9-.5-1.9-1.2.8-1.3 1.9-1.3"/><path fill="#6b401a" d="M183.5 204.4c2 3.3 2.8-1.7 3.9-.1-1-2.3-2 1.5-3.9.1"/><path fill="#462600" d="M208.8 200.9c1.1 0 2 .6 2 1.3s-.9 1.3-2 1.3-2-.6-2-1.3.9-1.3 2-1.3"/><path fill="#6b401a" d="M206.9 202.6c2 3.3 2.7-1.7 3.8 0-1-2.4-1.9 1.4-3.8 0"/><path fill="#462600" d="M201.7 199.5c1.1 0 2 .5 2 1.2s-.9 1.3-2 1.3-1.9-.5-1.9-1.2.8-1.3 1.9-1.3"/><path fill="#6b401a" d="M199.8 201.2c2 3.2 2.8-1.7 3.9-.1-1-2.4-2 1.5-3.9.1"/><path fill="#462600" d="M195.1 200.5c1.1 0 2 .5 2 1.2s-.9 1.3-2 1.3-1.9-.5-1.9-1.2.8-1.3 1.9-1.3"/><path fill="#6b401a" d="M193.2 202.2c2 3.3 2.8-1.7 3.9-.1-1-2.4-2 1.5-3.9.1"/><path fill="#462600" d="M205.4 197.2c1.1-.1 2 .5 2 1.2s-.8 1.3-1.9 1.3-2-.6-2-1.3.8-1.2 1.9-1.2"/><path fill="#6b401a" d="M203.5 198.8c2 3.3 2.8-1.6 3.9 0-1-2.4-1.9 1.4-3.9 0"/><path fill="#462600" d="M187.7 197.2c1.1-.1 2 .5 2 1.2s-.9 1.3-2 1.3-2-.6-2-1.3.9-1.2 2-1.2"/><path fill="#6b401a" d="M185.8 198.8c2 3.3 2.7-1.6 3.8 0-1-2.4-1.9 1.4-3.8 0"/><path fill="#462600" d="M183.6 197.6c1.1 0 2 .6 2 1.3s-.9 1.3-2 1.3-2-.6-2-1.3.9-1.3 2-1.3"/><path fill="#6b401a" d="M181.7 199.3c2 3.3 2.7-1.7 3.8 0-1-2.4-1.9 1.4-3.8 0"/><path fill="#462600" d="M188.1 199.6c1.1 0 2 .6 2 1.3s-.9 1.3-1.9 1.3-2-.6-2-1.3.8-1.3 1.9-1.3"/><path fill="#6b401a" d="M186.2 201.3c2 3.3 2.8-1.7 3.9 0-1-2.4-2 1.4-3.9 0"/><path fill="#462600" d="M167.4 201.9c1.1 0 2 .6 2 1.3s-.9 1.3-2 1.3-2-.6-2-1.3.9-1.3 2-1.3"/><path fill="#6b401a" d="M165.5 203.6c2 3.3 2.7-1.6 3.8 0-1-2.4-1.9 1.4-3.8 0"/><path fill="#462600" d="M168.8 190.4c.8-1.2 1.9-1.8 2.5-1.4s.5 1.7-.3 2.9-1.9 1.8-2.6 1.3-.4-1.7.4-2.8"/><path fill="#6b401a" d="M168.5 193.2c3-1.2 1.3-3.5 2.8-4.1-1.8.3-.8 2.5-2.8 4.1"/><path fill="#462600" d="M178.9 198c1-1.5 2.5-2.3 3.3-1.8s.6 2.3-.4 3.8-2.5 2.3-3.3 1.8-.6-2.2.4-3.8"/><path fill="#6b401a" d="M178.5 201.7c3.9-1.5 1.7-4.5 3.7-5.4-2.4.4-1 3.3-3.7 5.4"/><path fill="#462600" d="M123.8 204.5c1.6-.8 3.3-.8 3.8.1s-.6 2.2-2.3 3-3.3.8-3.7-.1.5-2.2 2.2-3"/><path fill="#6b401a" d="M121.6 207.5c4.1.6 3.7-3.1 5.9-2.9-2.3-.8-2.5 2.4-5.9 2.9"/><path fill="#462600" d="M124.4 199.8c1.7-.8 3.4-.8 3.8.1s-.6 2.2-2.2 3-3.4.8-3.8-.1.6-2.2 2.2-3"/><path fill="#6b401a" d="M122.3 202.8c4.1.6 3.7-3.1 5.8-2.9-2.2-.8-2.4 2.4-5.8 2.9"/><path fill="#462600" d="M189.8 189.9c1.7-.8 3.4-.8 3.8.1s-.6 2.2-2.2 3-3.4.8-3.8-.1.6-2.2 2.2-3"/><path fill="#6b401a" d="M187.7 192.9c4.1.6 3.7-3.1 5.8-2.9-2.2-.8-2.4 2.4-5.8 2.9"/><path fill="#462600" d="M172.4 194.3c1.6-.8 3.3-.8 3.7.1s-.5 2.2-2.2 3-3.3.8-3.8-.1.6-2.2 2.3-3"/><path fill="#6b401a" d="M170.2 197.3c4.1.6 3.7-3.1 5.8-2.9-2.2-.8-2.4 2.4-5.8 2.9"/><path fill="#462600" d="M178 194.9c1.7-.9 3.4-.8 3.8 0s-.6 2.3-2.2 3.1-3.4.8-3.8-.1.6-2.2 2.2-3"/><path fill="#6b401a" d="M175.9 197.9c4.1.6 3.7-3.2 5.8-2.9-2.2-.8-2.4 2.3-5.8 2.9"/><path fill="#462600" d="M179.9 188.8c1.7-.9 3.3-.8 3.8.1s-.6 2.2-2.3 3-3.3.8-3.7-.1.5-2.2 2.2-3"/><path fill="#6b401a" d="M177.8 191.8c4.1.6 3.7-3.2 5.8-2.9-2.3-.8-2.5 2.3-5.8 2.9"/><path fill="#462600" d="M177 187.7c1.6-.8 3.3-.7 3.8.1s-.6 2.3-2.3 3.1-3.3.7-3.7-.1.5-2.3 2.2-3.1"/><path fill="#6b401a" d="M174.8 190.7c4.1.7 3.7-3.1 5.9-2.8-2.3-.8-2.5 2.3-5.9 2.8"/><path fill="#462600" d="M154 194.3c1.7-.9 3.4-.8 3.8.1s-.6 2.2-2.2 3-3.4.8-3.8-.1.6-2.2 2.2-3"/><path fill="#6b401a" d="M151.9 197.3c4.1.6 3.7-3.2 5.8-2.9-2.3-.8-2.5 2.4-5.8 2.9"/><path fill="#462600" d="M191.4 186.2c1.4.3 2.4 1.1 2.3 1.8s-1.4 1.2-2.8.9-2.4-1-2.3-1.8 1.4-1.1 2.8-.9"/><path fill="#6b401a" d="M188.7 187.1c2.2 4.6 3.7-.5 4.9 1.8-1-3.1-2.6.7-4.9-1.8"/><path fill="#462600" d="M190.3 195.9c1.4-.7 2.9-.7 3.2 0s-.5 1.9-1.9 2.6-2.9.7-3.3 0 .5-1.9 2-2.6"/><path fill="#6b401a" d="M188.4 198.5c3.5.4 3.2-2.7 5.1-2.5-2-.7-2.2 2-5.1 2.5"/><path fill="#462600" d="M201.8 193.6c1.2.5 2 1.4 1.7 2s-1.4.8-2.7.3-2-1.4-1.7-2 1.4-.8 2.7-.3"/><path fill="#6b401a" d="M199.1 193.9c1.7 2.9 3.5.5 4.4 2-.7-1.8-2.5-.2-4.4-2"/><path fill="#462600" d="M201.6 196.2c1.2.5 2 1.4 1.8 2.1s-1.5.7-2.7.3-2-1.4-1.8-2.1 1.5-.8 2.7-.3"/><path fill="#6b401a" d="M199 196.5c1.6 2.9 3.4.6 4.3 2-.7-1.8-2.4-.2-4.3-2"/><path fill="#462600" d="M198.1 195.1c1.3.5 2.1 1.4 1.8 2.1s-1.5.7-2.7.3-2-1.4-1.8-2.1 1.5-.8 2.7-.3"/><path fill="#6b401a" d="M195.5 195.4c1.6 3 3.4.6 4.3 2-.6-1.8-2.4-.2-4.3-2"/><path fill="#462600" d="M193.4 196.6c1.3.4 2.1 1.3 1.8 2s-1.5.8-2.7.3-2-1.4-1.8-2.1 1.5-.7 2.7-.2"/><path fill="#6b401a" d="M190.8 196.9c1.6 2.9 3.4.5 4.3 2-.6-1.9-2.4-.2-4.3-2"/><path fill="#462600" d="M160.8 200.9c-1.7-.2-3.1.4-3.2 1.2s1.1 1.7 2.8 1.9 3.2-.4 3.3-1.3-1.2-1.6-2.9-1.8"/><path fill="#6b401a" d="M163.6 203c-3.4 2.3-4.2-1.9-5.9-.7 1.7-1.8 2.8 1.5 5.9.7"/><path fill="#462600" d="M169.2 194.4c-1.4-.9-2.9-1.1-3.5-.4s.2 2 1.5 2.9 2.9 1.2 3.5.5-.2-2-1.5-3"/><path fill="#6b401a" d="M170.6 197.3c-3.8 0-2.8-3.2-4.8-3.3 2.2-.4 1.8 2.4 4.8 3.3"/><path fill="#462600" d="M154.1 204.9c1.3-1.2 1.8-2.6 1.2-3.2s-2.2-.2-3.4 1-1.7 2.5-1.1 3.1 2.1.2 3.3-.9"/><path fill="#6b401a" d="M150.9 205.8c.7-3.6 3.8-2.2 4.3-4 0 2.1-2.8 1.3-4.3 4"/><path fill="#462600" d="M144.8 205.6c1.2-1.1 1.7-2.5 1.1-3.1s-2.1-.2-3.3.9-1.7 2.6-1.1 3.2 2.1.2 3.3-1"/><path fill="#6b401a" d="M141.5 206.5c.8-3.5 3.9-2.1 4.4-4-.1 2.1-2.9 1.4-4.4 4"/><path fill="#462600" d="M154.5 201.7c1.2-1.2 1.7-2.6 1.1-3.2s-2.1-.2-3.4 1-1.7 2.5-1.1 3.1 2.1.2 3.4-.9"/><path fill="#6b401a" d="M151.2 202.6c.7-3.6 3.9-2.2 4.3-4 0 2.1-2.8 1.3-4.3 4"/><path fill="#462600" d="M148.4 202c1.3-1.1 1.8-2.6 1.2-3.2s-2.2-.1-3.4 1-1.7 2.6-1.1 3.2 2.1.1 3.3-1"/><path fill="#6b401a" d="M145.2 202.9c.7-3.6 3.8-2.2 4.3-4 0 2.1-2.8 1.4-4.3 4"/><path fill="#462600" d="M161.5 197.1c1.2-1.2 1.7-2.6 1.1-3.2s-2.1-.2-3.3 1-1.8 2.5-1.2 3.1 2.2.2 3.4-.9"/><path fill="#6b401a" d="M158.2 198c.8-3.6 3.9-2.2 4.3-4 0 2.1-2.8 1.3-4.3 4"/><path fill="#462600" d="M160.7 194.3c1.3-1.2 1.8-2.6 1.2-3.2s-2.2-.1-3.4 1-1.7 2.5-1.1 3.1 2.1.2 3.3-.9"/><path fill="#6b401a" d="M157.5 195.2c.7-3.6 3.8-2.2 4.3-4 0 2.1-2.8 1.4-4.3 4"/><path fill="#462600" d="M166.1 200.3c1.3-1.1 1.8-2.5 1.1-3.1s-2.1-.2-3.3.9-1.7 2.6-1.1 3.2 2.1.2 3.3-1"/><path fill="#6b401a" d="M162.8 201.2c.8-3.5 3.9-2.1 4.4-4 0 2.1-2.8 1.4-4.4 4"/><path fill="#462600" d="M174.1 200.1c1.3-1.1 1.8-2.6 1.2-3.2s-2.2-.1-3.4 1-1.7 2.6-1.1 3.2 2.1.1 3.3-1"/><path fill="#6b401a" d="M170.9 201c.7-3.6 3.8-2.2 4.3-4 0 2.1-2.8 1.4-4.3 4"/><path fill="#462600" d="M172.2 194.7c1.2-1.1 1.7-2.5 1.1-3.1s-2.1-.2-3.3.9-1.8 2.6-1.1 3.2 2.1.1 3.3-1"/><path fill="#6b401a" d="M168.9 195.6c.8-3.6 3.9-2.1 4.3-4 0 2.1-2.8 1.4-4.3 4"/><path fill="#462600" d="M167.4 192.5c1.2-1.1 1.7-2.5 1.1-3.1s-2.1-.2-3.4.9-1.7 2.6-1.1 3.2 2.1.1 3.4-1"/><path fill="#6b401a" d="M164.1 193.4c.7-3.6 3.9-2.1 4.3-4 0 2.1-2.8 1.4-4.3 4"/><path fill="#462600" d="M150.1 197.7c-1.4-.9-2.9-1.1-3.5-.4s.2 2 1.5 2.9 2.9 1.2 3.5.5-.2-2-1.5-3"/><path fill="#6b401a" d="M151.5 200.6c-3.8 0-2.8-3.2-4.8-3.3 2.2-.3 1.8 2.4 4.8 3.3"/><path fill="#462600" d="M148.5 200.8c-1.4-.9-2.9-1.2-3.4-.5s.1 2 1.5 3 2.9 1.1 3.4.4-.1-2-1.5-2.9"/><path fill="#6b401a" d="M149.9 203.7c-3.8 0-2.8-3.2-4.8-3.3 2.2-.4 1.9 2.4 4.8 3.3"/><path fill="#462600" d="M147.5 196c-1.4-.9-2.9-1.1-3.5-.4s.2 2 1.5 2.9 2.9 1.2 3.5.5-.2-2-1.5-3"/><path fill="#6b401a" d="M148.9 198.9c-3.8 0-2.8-3.2-4.8-3.3 2.2-.4 1.9 2.4 4.8 3.3"/><path fill="#462600" d="M170.2 200.5c-1.4-1-2.9-1.2-3.4-.5s.1 2 1.5 3 2.9 1.1 3.4.4-.1-2-1.5-2.9"/><path fill="#6b401a" d="M171.6 203.4c-3.8-.1-2.8-3.2-4.7-3.3 2.1-.4 1.8 2.4 4.7 3.3"/><path fill="#462600" d="M157.1 196.1c-1.7-.2-3.2.4-3.3 1.2s1.2 1.7 2.9 1.9 3.1-.4 3.2-1.3-1.2-1.6-2.8-1.8"/><path fill="#6b401a" d="M159.8 198.2c-3.3 2.3-4.1-1.9-5.9-.8 1.7-1.7 2.9 1.6 5.9.8"/><path fill="#462600" d="M162.7 197.4c-1.7-.1-3.2.4-3.3 1.2s1.2 1.7 2.9 1.9 3.1-.4 3.2-1.2-1.2-1.7-2.8-1.9"/><path fill="#6b401a" d="M165.4 199.6c-3.4 2.3-4.1-2-5.9-.8 1.7-1.8 2.8 1.5 5.9.8"/><path fill="#462600" d="M150.2 202.7c-1.7-.1-3.1.4-3.2 1.3s1.1 1.6 2.8 1.8 3.2-.4 3.3-1.2-1.2-1.7-2.9-1.9"/><path fill="#6b401a" d="M153 204.9c-3.4 2.3-4.2-1.9-6-.8 1.8-1.8 2.9 1.5 6 .8"/><path fill="#462600" d="M142.1 206c-1.7-.1-3.1.4-3.2 1.3s1.1 1.6 2.8 1.8 3.1-.4 3.3-1.2-1.2-1.7-2.9-1.9"/><path fill="#6b401a" d="M144.9 208.2c-3.4 2.3-4.2-1.9-6-.8 1.8-1.8 2.9 1.6 6 .8"/><path fill="#462600" d="M140.3 207.8c-1.7-.2-3.2.3-3.3 1.2s1.2 1.7 2.9 1.8 3.1-.4 3.2-1.2-1.1-1.7-2.8-1.8"/><path fill="#6b401a" d="M143.1 209.9c-3.4 2.3-4.2-1.9-6-.8 1.7-1.7 2.9 1.6 6 .8"/><path fill="#462600" d="M139.5 200.8c-1.7-.1-3.2.4-3.3 1.3s1.2 1.6 2.9 1.8 3.1-.4 3.2-1.2-1.2-1.7-2.8-1.9"/><path fill="#6b401a" d="M142.2 203c-3.3 2.3-4.1-1.9-5.9-.8 1.7-1.8 2.8 1.6 5.9.8"/><path fill="#462600" d="M136.5 197.9c-1.7-.2-3.2.4-3.3 1.2s1.2 1.7 2.9 1.9 3.1-.4 3.2-1.3-1.1-1.6-2.8-1.8"/><path fill="#6b401a" d="M139.3 200c-3.4 2.3-4.2-1.9-6-.7 1.7-1.8 2.9 1.5 6 .7"/><path fill="#462600" d="M145.7 198.4c-1.7-.2-3.2.3-3.3 1.2s1.2 1.6 2.9 1.8 3.1-.4 3.2-1.2-1.2-1.7-2.8-1.8"/><path fill="#6b401a" d="M148.4 200.5c-3.3 2.3-4.1-1.9-5.9-.8 1.7-1.7 2.8 1.6 5.9.8"/><path fill="#5e462e" d="M83.5 131.3l118.2 51.2-75.4 19.4L9 159.4l74.5-28.1z"/><path fill="#270900" d="M126.6 202L9 159.4l3.2 11.4 117.1 35.9-2.7-4.7z"/><path fill="#3f2000" d="M12.2 170.8L9 180.4l117.6 32.7 2.7-6.4-117.1-35.9z"/><path fill="#462600" d="M66.6 226.9c-1.7.7-3.4.5-3.7-.4s.7-2.2 2.4-2.9 3.4-.4 3.8.5-.8 2.1-2.5 2.8"/><path fill="#6b401a" d="M69 224.1c-4-1-3.9 2.8-6 2.3 2.1 1 2.6-2.1 6-2.3"/><path fill="#462600" d="M66.7 228.4c1.1.3 1.8 1.1 1.6 1.8s-1.1 1-2.2.7-1.8-1.1-1.6-1.7 1.2-1 2.2-.8"/><path fill="#4b3721" d="M53 69.3c0 14.7-4.4 19.9-4.4 25.5V220l20.2 6.6v-121h-.1c.3-3.2 2.4-28.5-15.7-36.3z"/><path fill="#4b3721" d="M53 71.6c-2.9-4-4.9-10.1-.8-10.4s4 7.6.8 10.4z"/><path fill="#3a291a" d="M53 69.3c0 14.7-4.4 19.9-4.4 25.5V220l5.7 1.4v-121s3.4-29.3-1.3-31.1z"/><path fill="#6c5036" d="M137.6 69.3H53c9 6.2 15.3 13.7 15.6 36.5v121h84.7v-121c.3-19.6-4.1-27.4-15.7-36.5z"/><path fill="#7b5b3f" d="M137.6 69.3h-10.4c9.1 6.2 15.4 13.7 15.7 36.5v121h10.4v-121c.3-19.6-4.1-27.4-15.7-36.5z"/><path fill="#5c442c" d="M138.9 61.2H52.2c4.1.7 3.2 8.1.8 8.1l85.2.5c1.5-.3 5.1-6.9.7-8.6z"/><path fill="#45311c" d="M68.6 169.7h84.7v35.19H68.6z"/><path fill="#6b401a" d="M64.5 229.2c1.6 4.4 3-.3 3.8 2-.7-3-2.1.4-3.8-2"/><path fill="#462600" d="M55.4 222.1a1.8 1.8 0 0 1 1.1 2.1c-.4.6-1.4.6-2.4 0s-1.4-1.5-1-2.1 1.4-.6 2.3 0"/><path fill="#6b401a" d="M53.1 222.2c.9 2.5 2.9.7 3.3 2-.2-1.6-2-.4-3.3-2"/><path fill="#462600" d="M63 223.1c1 0 1.9.6 1.9 1.3s-.8 1.3-1.9 1.3-2-.6-2-1.3.9-1.3 2-1.3"/><path fill="#6b401a" d="M61 224.8c2.1 3.3 2.8-1.7 3.9 0-1-2.4-1.9 1.4-3.9 0"/><path fill="#462600" d="M57.2 223.1c1.1 0 2 .6 2 1.3s-.9 1.3-1.9 1.3-2-.6-2-1.3.8-1.3 1.9-1.3"/><path fill="#6b401a" d="M55.3 224.8c2 3.3 2.8-1.7 3.9 0-1-2.4-2 1.4-3.9 0"/><path fill="#462600" d="M59.4 221.2c1.5.6 2.5 1.7 2.2 2.5s-1.8.8-3.3.2-2.4-1.7-2.1-2.5 1.8-.8 3.2-.2"/><path fill="#6b401a" d="M56.3 221.4c1.9 3 4.1.7 5.2 2.2-.8-1.8-3-.3-5.2-2.2"/><path fill="#462600" d="M60.8 222.7c1.1-.1 2 .5 2 1.2s-.9 1.3-2 1.3-2-.6-2-1.3.9-1.2 2-1.2"/><path fill="#6b401a" d="M58.9 224.3c2 3.3 2.8-1.6 3.8 0-1-2.4-1.9 1.4-3.8 0"/><path fill="#462600" d="M59.8 224.5c1 0 1.9.6 1.9 1.3s-.8 1.2-1.9 1.3-2-.6-2-1.3.9-1.3 2-1.3"/><path fill="#6b401a" d="M57.8 226.2c2.1 3.3 2.8-1.7 3.9 0-1-2.4-1.9 1.4-3.9 0"/><path fill="#462600" d="M69.6 225.8c1.3.4 2 1.4 1.8 2s-1.5.8-2.7.3-2-1.4-1.8-2 1.5-.8 2.7-.3"/><path fill="#6b401a" d="M67 226.1c1.6 2.9 3.4.5 4.3 2-.6-1.9-2.4-.2-4.3-2"/><path fill="#462600" d="M74.1 226.6c1.2.5 2 1.4 1.7 2.1s-1.4.7-2.6.3-2.1-1.4-1.8-2.1 1.4-.8 2.7-.3"/><path fill="#6b401a" d="M71.4 226.9c1.7 3 3.5.6 4.4 2-.7-1.8-2.5-.2-4.4-2"/><path fill="#462600" d="M73.4 224.7c1.3.5 2.1 1.4 1.8 2s-1.4.8-2.7.3-2-1.4-1.7-2 1.4-.8 2.6-.3"/><path fill="#6b401a" d="M70.8 225c1.7 2.9 3.5.5 4.4 2-.7-1.8-2.5-.2-4.4-2"/><path fill="#462600" d="M63.4 225.5c1.3.4 2.1 1.4 1.8 2s-1.4.8-2.7.3-2-1.4-1.8-2 1.5-.8 2.7-.3"/><path fill="#6b401a" d="M60.8 225.8c1.7 2.9 3.5.5 4.3 2-.6-1.9-2.4-.2-4.3-2"/><path fill="#462600" d="M318.5 246.5c-8.6-2.8-14.5-8.8-13-13.3s9.7-5.9 18.3-3.1 14.5 8.7 13 13.2-9.7 6-18.3 3.2"/><path fill="#6b401a" d="M336.4 243.2c-12.3-16.3-23.8-1.6-30.4-9.9 5.2 10.6 16.7.2 30.4 9.9"/><text fill="#462600" font-family="KomuA, Komu" font-size="21.99" transform="translate(38.6 267.4)">Coffee</text><text fill="#6b401a" font-family="ProximaNovaCond-Regular, Proxima Nova Condensed" font-size="9.93" transform="translate(38.6 276.7)">Expo Inc.</text><path fill="#462600" d="M34.1 265.8c-2.2 6.9-6.9 11.5-10.5 10.4s-4.8-7.7-2.5-14.6 6.9-11.5 10.5-10.4 4.8 7.7 2.5 14.6"/><path fill="#6b401a" d="M31.5 251.5c-12.9 9.9-1.3 19-7.8 24.3 8.4-4.2.1-13.4 7.8-24.3"/><path fill="#231f20" d="M177.4 262.8a3.8 3.8 0 0 1-.7-2.1 3.4 3.4 0 0 1 3.5-3.5 3.4 3.4 0 0 1 3.4 3.5 4.7 4.7 0 0 1-.3 1.7l-.7-.6-1.6 1.8 4.2.5a5.6 5.6 0 0 0 1-3.3 5.8 5.8 0 0 0-6-5.9 6 6 0 0 0-6.1 5.9 2.8 2.8 0 0 0 .1.9l3.2 1m17.5 1.4l2.3-.3a7.3 7.3 0 0 0 .3-2.2v-6.5H195v6.6a2.4 2.4 0 0 1-1.2 2.4h1.1m6.9-1v-8h-2.5v8.4l2.5-.4m4.5-1.1v-2.7l1.6 2.2 2.4-.9-4.2-5.5h-2.3v7.5l2.5-.6m-14.7 2.2c-1-.3-1.5-1.2-1.5-2.6v-6.5h-2.5v6.5a6.3 6.3 0 0 0 .5 2.6 20.4 20.4 0 0 0 3.5 0m12.2-.4v2.7h2.5v-3.2l-2.5.5m-4.5.6v2.1h2.5v-2.4l-2.5.3m-2.6.2l-8.3.3a4.8 4.8 0 0 0 4.1 1.8 4.6 4.6 0 0 0 4.3-2.1h-.1"/><g fill="#231f20" clip-path="url(#c)"><path d="M179.7 264.2h-.1a40.1 40.1 0 0 1-5-.9 6.1 6.1 0 0 0 5.6 3.4 5.9 5.9 0 0 0 3.4-1l1.8 1.6 1.6-1.8-.9-.7a63.3 63.3 0 0 1-6.4-.6m31.8-2.1l-2.6.7 2.9 3.7h2.1v-5.1l-2.4.7m0-7v5.1l2.4-1.2v-3.9zm-73.5 3.5l2.6-.2a3.3 3.3 0 0 1 2.4-1.2 4.3 4.3 0 0 1 3 1.2l1.6-1.9a6.3 6.3 0 0 0-4.5-1.6 5.7 5.7 0 0 0-5.5 3.7h.4m14.3.1a3.3 3.3 0 0 1 2.8-1.5 3.5 3.5 0 0 1 3.3 2.3l2.8.6a6 6 0 0 0-6-5.2 6 6 0 0 0-5.7 3.6l2.8.2"/></g><path fill="#231f20" d="M132.5 259v-3.9H130v4.3l2.5-.4m37.7 3.1l-5.3-7h-2.3v5.3l2.4.7v-1.8l5.6 7.2h2.1v-3.6l-2.5-.8zm-7.6 4.4h2.4v-3.3l-2.4-1.1zm7.6-11.4v5.1l2.5 1.1v-6.2zm-11.6 5.7a3.4 3.4 0 0 1-3.4 3.5 3.4 3.4 0 0 1-3.5-3.6 5.1 5.1 0 0 1 .2-1.3l-2.6-.3a8.8 8.8 0 0 0-.2 1.6 5.8 5.8 0 0 0 6 5.8 5.9 5.9 0 0 0 6.1-5.1l-2.6-.8m-15.5 1.5h2.5v1.7a4.5 4.5 0 0 1-2.4.6 3.4 3.4 0 0 1-3.4-3.6 3.3 3.3 0 0 1 .4-1.7h-2.9a7.7 7.7 0 0 0-.2 1.5 5.7 5.7 0 0 0 6 5.8 7.5 7.5 0 0 0 4.9-1.8V260h-4.9zm-10.6-2.1l-2.5.5v6h7.1v-2.3h-4.6zm-14.4 4.5l-.9 2h2.6l.9-2.3h5l1 2.3h2.6l-2.2-5.3a52.7 52.7 0 0 0-9 3.3"/><g fill="#231f20" clip-path="url(#c)"><path d="M122.1 260.9l1.1-2.8 1 2.3 2.3-.5-2.1-4.9h-2.3l-2.8 6.6 2.8-.7m46.5 10.9a3.4 3.4 0 0 1 3.4-3.5 3.2 3.2 0 0 1 2.6 1.1l-.7.8a2.7 2.7 0 0 0-1.9-.8 2.2 2.2 0 0 0-2.2 2.3 2.2 2.2 0 0 0 2.2 2.3 2.7 2.7 0 0 0 1.9-.8l.8.7a3.5 3.5 0 0 1-6.1-2.2m12.4.1a2.3 2.3 0 0 0-2.3-2.4 2.2 2.2 0 0 0-2.2 2.3 2.2 2.2 0 0 0 2.3 2.3 2.2 2.2 0 0 0 2.2-2.3m-5.7 0a3.4 3.4 0 0 1 3.5-3.5 3.4 3.4 0 0 1 3.4 3.4 3.4 3.4 0 0 1-3.5 3.4 3.3 3.3 0 0 1-3.4-3.4"/></g><path fill="#231f20" d="M183.4 268.4v6h4.7v-.4h-3.5v-5.6h-1.2zm5.9 0v6h4.7v-.4h-3.5v-5.6h-1.2zm5.9 0v6h5v-.4h-3.8v-1.7h3.3v-1.1h-3.3v-1.7h3.8v-1.1h-5z"/><g clip-path="url(#c)"><path fill="#231f20" d="M201.2 271.8a3.4 3.4 0 0 1 3.4-3.5 3.6 3.6 0 0 1 2.6.9l-.7.9a3.2 3.2 0 0 0-1.9-.7 2.3 2.3 0 0 0-2.2 2.3 2.2 2.2 0 0 0 2.3 2.3 2.8 2.8 0 0 0 1.6-.5v-1.2h-1.7v-1h2.8v2.8a4.4 4.4 0 0 1-2.7 1 3.3 3.3 0 0 1-3.5-3.4"/></g><path fill="#231f20" d="M208.9 268.4v6h4.2v-.4h-3v-1.7h3v-1.1h-3v-1.7h3v-1.1h-4.2zm-31.5-5.6a3.8 3.8 0 0 1-.7-2.1 3.4 3.4 0 0 1 3.5-3.5 3.4 3.4 0 0 1 3.4 3.5 4.7 4.7 0 0 1-.3 1.7l-.7-.6-1.6 1.8 4.2.5a5.6 5.6 0 0 0 1-3.3 5.8 5.8 0 0 0-6-5.9 6 6 0 0 0-6.1 5.9 2.8 2.8 0 0 0 .1.9l3.2 1m17.5 1.4l2.3-.3a7.3 7.3 0 0 0 .3-2.2v-6.5H195v6.6a2.4 2.4 0 0 1-1.2 2.4h1.1m6.9-1v-8h-2.5v8.4l2.5-.4m4.5-1.1v-2.7l1.6 2.2 2.4-.9-4.2-5.5h-2.3v7.5l2.5-.6m-14.7 2.2c-1-.3-1.5-1.2-1.5-2.6v-6.5h-2.5v6.5a6.3 6.3 0 0 0 .5 2.6 20.4 20.4 0 0 0 3.5 0m12.2-.4v2.7h2.5v-3.2l-2.5.5m-4.5.6v2.1h2.5v-2.4l-2.5.3m-2.6.2l-8.3.3a4.8 4.8 0 0 0 4.1 1.8 4.6 4.6 0 0 0 4.3-2.1h-.1"/><g fill="#231f20" clip-path="url(#c)"><path d="M179.7 264.2h-.1a40.1 40.1 0 0 1-5-.9 6.1 6.1 0 0 0 5.6 3.4 5.9 5.9 0 0 0 3.4-1l1.8 1.6 1.6-1.8-.9-.7a63.3 63.3 0 0 1-6.4-.6m31.8-2.1l-2.6.7 2.9 3.7h2.1v-5.1l-2.4.7m0-7v5.1l2.4-1.2v-3.9zm-73.5 3.5l2.6-.2a3.3 3.3 0 0 1 2.4-1.2 4.3 4.3 0 0 1 3 1.2l1.6-1.9a6.3 6.3 0 0 0-4.5-1.6 5.7 5.7 0 0 0-5.5 3.7h.4m14.3.1a3.3 3.3 0 0 1 2.8-1.5 3.5 3.5 0 0 1 3.3 2.3l2.8.6a6 6 0 0 0-6-5.2 6 6 0 0 0-5.7 3.6l2.8.2"/></g><path fill="#231f20" d="M132.5 259v-3.9H130v4.3l2.5-.4m37.7 3.1l-5.3-7h-2.3v5.3l2.4.7v-1.8l5.6 7.2h2.1v-3.6l-2.5-.8zm-7.6 4.4h2.4v-3.3l-2.4-1.1zm7.6-11.4v5.1l2.5 1.1v-6.2zm-11.6 5.7a3.4 3.4 0 0 1-3.4 3.5 3.4 3.4 0 0 1-3.5-3.6 5.1 5.1 0 0 1 .2-1.3l-2.6-.3a8.8 8.8 0 0 0-.2 1.6 5.8 5.8 0 0 0 6 5.8 5.9 5.9 0 0 0 6.1-5.1l-2.6-.8m-15.5 1.5h2.5v1.7a4.5 4.5 0 0 1-2.4.6 3.4 3.4 0 0 1-3.4-3.6 3.3 3.3 0 0 1 .4-1.7h-2.9a7.7 7.7 0 0 0-.2 1.5 5.7 5.7 0 0 0 6 5.8 7.5 7.5 0 0 0 4.9-1.8V260h-4.9zm-10.6-2.1l-2.5.5v6h7.1v-2.3h-4.6zm-14.4 4.5l-.9 2h2.6l.9-2.3h5l1 2.3h2.6l-2.2-5.3a52.7 52.7 0 0 0-9 3.3m4-3.6l1.1-2.8 1 2.3 2.3-.5-2.1-4.9h-2.3l-2.8 6.6 2.8-.7"/><path fill="none" d="M0 0h432v288H0z"/><path fill="#6b4019" d="M219.8 109.5c0-2.4 1.2-4.1 3.1-4.1a2.5 2.5 0 0 1 2.3 1.5l-.8.4a1.7 1.7 0 0 0-1.5-1.1c-1.3 0-2.1 1.4-2.1 3.3s.8 3.3 2.1 3.3a1.7 1.7 0 0 0 1.5-1.2l.8.4a2.4 2.4 0 0 1-2.3 1.6c-1.9 0-3.1-1.7-3.1-4.1zm6.3 1.1c0-1.6.8-3 2.4-3s2.3 1.4 2.3 3-.8 3-2.3 3-2.4-1.4-2.4-3zm3.8 0c0-1.2-.4-2.3-1.4-2.3s-1.5 1.1-1.5 2.3.5 2.3 1.5 2.3 1.4-1.1 1.4-2.3zm2.4-2.1h-.7v-.8h.7v-.7a1.4 1.4 0 0 1 1.4-1.6h.8l-.2.7h-.4c-.5 0-.7.3-.7.9v.7h1v.8h-1v5h-.9zm3.1 0h-.8v-.8h.8v-.7a1.4 1.4 0 0 1 1.4-1.6h.7l-.2.7h-.4c-.4 0-.7.3-.7.9v.7h1v.8h-1v5h-.8zm4.9-.9c1.5 0 2.3 1.3 2.3 3v.3h-3.8c.1 1.1.7 2 1.7 2a1.7 1.7 0 0 0 1.4-.7l.4.5a2.2 2.2 0 0 1-1.9.9c-1.5 0-2.5-1.2-2.5-3s.9-3 2.4-3zm-1.5 2.6h2.9c0-.8-.4-1.9-1.4-1.9s-1.5 1.1-1.5 1.9zm7.1-2.6c1.5 0 2.3 1.3 2.3 3v.3h-3.8c.1 1.1.7 2 1.7 2a1.7 1.7 0 0 0 1.4-.7l.4.5a2.2 2.2 0 0 1-1.9.9c-1.5 0-2.4-1.2-2.4-3s.8-3 2.3-3zm-1.5 2.6h2.9c0-.8-.4-1.9-1.4-1.9s-1.4 1.1-1.5 1.9zm4.9 4.5a2.3 2.3 0 0 0 .8-1.2h-.2a.6.6 0 0 1-.6-.6.7.7 0 0 1 .7-.7.8.8 0 0 1 .7.9 2.1 2.1 0 0 1-1 1.8zm7.5-7.1a2.2 2.2 0 0 1 1.7.7l-.5.6a1.3 1.3 0 0 0-1.1-.6c-1 0-1.6 1.1-1.6 2.3s.6 2.3 1.6 2.3a1.3 1.3 0 0 0 1.1-.6l.5.6a2.2 2.2 0 0 1-1.7.7c-1.5 0-2.4-1.3-2.4-3s.9-3 2.4-3zm2.5 3c0-1.6.8-3 2.4-3s2.3 1.4 2.3 3-.8 3-2.3 3-2.4-1.4-2.4-3zm3.8 0c0-1.2-.4-2.3-1.4-2.3s-1.5 1.1-1.5 2.3.5 2.3 1.5 2.3 1.4-1.1 1.4-2.3zm2.4-2.1h-.7v-.8h.7v-.7a1.4 1.4 0 0 1 1.4-1.6h.8l-.2.7h-.4c-.5 0-.7.3-.7.9v.7h1v.8h-1v5h-.9zm3.1 0h-.8v-.8h.8v-.7c0-1 .5-1.6 1.4-1.6h.7l-.2.7h-.4c-.4 0-.7.3-.7.9v.7h1v.8h-1v5h-.8zm4.9-.9c1.5 0 2.3 1.3 2.3 3v.3H272c.1 1.1.7 2 1.7 2a1.7 1.7 0 0 0 1.4-.7l.4.5a2.2 2.2 0 0 1-1.9.9c-1.5 0-2.5-1.2-2.5-3s.9-3 2.4-3zm-1.5 2.6h2.9c0-.8-.4-1.9-1.4-1.9s-1.5 1.1-1.5 1.9zm7.1-2.6c1.5 0 2.3 1.3 2.3 3v.3h-3.8c.1 1.1.7 2 1.7 2a1.7 1.7 0 0 0 1.4-.7l.4.5a2.2 2.2 0 0 1-1.9.9c-1.5 0-2.5-1.2-2.5-3s.9-3 2.4-3zm-1.5 2.6h2.9c0-.8-.4-1.9-1.4-1.9s-1.4 1.1-1.5 1.9zm10.6 2.7a1.8 1.8 0 0 1-1.5.7 1.9 1.9 0 0 1 0-3.8 1.8 1.8 0 0 1 1.5.7v-1a1.1 1.1 0 0 0-1.2-1.2 1.7 1.7 0 0 0-1.4.7l-.4-.6a2.4 2.4 0 0 1 1.9-.8c1.2 0 2 .5 2 1.8v4.1h-.9zm0-1.7a1.4 1.4 0 0 0-1.2-.8 1.3 1.3 0 0 0 0 2.6 1.3 1.3 0 0 0 1.2-.7zm5.6-1.8c0-.8-.4-1.1-1-1.1s-1 .5-1.3 1v4.2h-.9v-5.8h.9v.8a2.1 2.1 0 0 1 1.7-.9c1 0 1.4.5 1.4 1.5v4.4h-.8zm5.7 3.3a1.6 1.6 0 0 1-1.5.9c-1.3 0-2.1-1.2-2.1-3s.8-3 2.1-3a1.6 1.6 0 0 1 1.5.9v-3h.9v8h-.9zm0-3.4a1.5 1.5 0 0 0-1.3-1c-.9 0-1.4 1-1.4 2.3s.5 2.3 1.4 2.3a1.5 1.5 0 0 0 1.3-1zm10.9 0c0-.6-.2-1-.8-1a1.5 1.5 0 0 0-1.2 1v4.2h-.9v-4.2c0-.6-.3-1-.8-1s-1 .5-1.3 1v4.2h-.8v-5.8h.8v.8a2.2 2.2 0 0 1 1.6-.9 1.2 1.2 0 0 1 1.3 1 2 2 0 0 1 1.6-1c.9 0 1.4.4 1.4 1.5v4.4h-.9zm2.2 1.3c0-1.6.8-3 2.3-3s2.4 1.4 2.4 3-.8 3-2.4 3-2.3-1.4-2.3-3zm3.8 0c0-1.2-.5-2.3-1.5-2.3s-1.4 1.1-1.4 2.3.4 2.3 1.4 2.3 1.5-1.1 1.5-2.3zm2.2-2.9h.8v.9a2.1 2.1 0 0 1 1.7-1v.9h-.3a2 2 0 0 0-1.4 1v4.1h-.8zm5.5-.1c1.6 0 2.3 1.3 2.3 3v.3h-3.7c0 1.1.6 2 1.6 2a1.5 1.5 0 0 0 1.4-.7l.5.5a2.3 2.3 0 0 1-1.9.9c-1.6 0-2.5-1.2-2.5-3s.9-3 2.3-3zm-1.4 2.6h2.9c0-.8-.4-1.9-1.5-1.9s-1.4 1.1-1.4 1.9zm9.7-2.6a1.9 1.9 0 0 1 1.6.7l-.4.6a1.4 1.4 0 0 0-1.1-.6c-1.1 0-1.6 1.1-1.6 2.3s.5 2.3 1.6 2.3a1.4 1.4 0 0 0 1.1-.6l.4.6a1.9 1.9 0 0 1-1.6.7c-1.5 0-2.4-1.3-2.4-3s.9-3 2.4-3zm2.5 3c0-1.6.8-3 2.3-3s2.4 1.4 2.4 3-.8 3-2.4 3-2.3-1.4-2.3-3zm3.8 0c0-1.2-.5-2.3-1.5-2.3s-1.4 1.1-1.4 2.3.4 2.3 1.4 2.3 1.5-1.1 1.5-2.3zm2.4-2.1h-.8v-.8h.8v-.7a1.4 1.4 0 0 1 1.4-1.6h.7l-.2.7h-.4c-.4 0-.7.3-.7.9v.7h1v.8h-1v5h-.8zm3 0h-.7v-.8h.7v-.7a1.4 1.4 0 0 1 1.4-1.6h.8l-.2.7h-.4c-.5 0-.7.3-.7.9v.7h1v.8h-1v5h-.9zm4.9-.9c1.6 0 2.3 1.3 2.3 3v.3h-3.7c0 1.1.6 2 1.6 2a1.6 1.6 0 0 0 1.4-.7l.5.5a2.5 2.5 0 0 1-1.9.9c-1.6 0-2.5-1.2-2.5-3s.9-3 2.3-3zm-1.4 2.6h2.9c0-.8-.4-1.9-1.5-1.9s-1.4 1.1-1.4 1.9zm7-2.6c1.6 0 2.3 1.3 2.3 3v.3h-3.7a1.8 1.8 0 0 0 1.7 2 1.5 1.5 0 0 0 1.3-.7l.5.5a2.3 2.3 0 0 1-1.9.9c-1.6 0-2.5-1.2-2.5-3s.9-3 2.3-3zm-1.4 2.6h2.9c0-.8-.4-1.9-1.5-1.9s-1.4 1.1-1.4 1.9zm5.5 2.1a.7.7 0 0 1 .7.7.7.7 0 0 1-.7.6.6.6 0 0 1-.6-.6.7.7 0 0 1 .6-.7zm4.5-2.8c0-2.4 1.2-4.1 3.1-4.1a2.5 2.5 0 0 1 2.4 1.5l-.8.4a1.9 1.9 0 0 0-1.6-1.1c-1.3 0-2.1 1.4-2.1 3.3s.8 3.3 2.1 3.3a1.7 1.7 0 0 0 1.6-1.2l.8.4a2.4 2.4 0 0 1-2.4 1.6c-1.9 0-3.1-1.7-3.1-4.1zm6.4 1.1c0-1.6.8-3 2.3-3s2.4 1.4 2.4 3-.8 3-2.4 3-2.3-1.4-2.3-3zm3.8 0c0-1.2-.5-2.3-1.5-2.3s-1.4 1.1-1.4 2.3.4 2.3 1.4 2.3 1.5-1.1 1.5-2.3zm2.4-2.1h-.8v-.8h.8v-.7a1.4 1.4 0 0 1 1.4-1.6h.7l-.2.7h-.3c-.5 0-.7.3-.7.9v.7h.9v.8h-.9v5h-.9zm3 0h-.7v-.8h.7v-.7a1.4 1.4 0 0 1 1.5-1.6h.7l-.2.7h-.4c-.4 0-.7.3-.7.9v.7h1v.8h-1v5h-.9zm4.9-.9c1.6 0 2.3 1.3 2.3 3v.3h-3.7c0 1.1.6 2 1.6 2a1.5 1.5 0 0 0 1.4-.7l.5.5a2.3 2.3 0 0 1-1.9.9c-1.6 0-2.5-1.2-2.5-3s.9-3 2.3-3zm-1.4 2.6h2.9c0-.8-.4-1.9-1.5-1.9s-1.4 1.1-1.4 1.9zm7.1-2.6c1.5 0 2.3 1.3 2.3 3v.3h-3.8a1.8 1.8 0 0 0 1.7 2 1.5 1.5 0 0 0 1.3-.7l.5.5a2.3 2.3 0 0 1-1.9.9c-1.6 0-2.5-1.2-2.5-3s.9-3 2.4-3zm-1.5 2.6h2.9c0-.8-.4-1.9-1.5-1.9s-1.4 1.1-1.4 1.9zm7.8-1.7h-.8v-.8h.8v-.7a1.4 1.4 0 0 1 1.4-1.6h.8l-.2.7h-.4c-.5 0-.7.3-.7.9v.7h.9v.8h-.9v5h-.9zm2.8-.8h.9v.9a1.9 1.9 0 0 1 1.6-1v.9h-.3a1.7 1.7 0 0 0-1.3 1v4.1h-.9zm3.2 2.9c0-1.6.9-3 2.4-3s2.4 1.4 2.4 3-.8 3-2.4 3-2.4-1.4-2.4-3zm3.9 0c0-1.2-.5-2.3-1.5-2.3s-1.5 1.1-1.5 2.3.5 2.3 1.5 2.3 1.5-1.1 1.5-2.3zm8-1.3c0-.6-.2-1-.8-1s-1 .5-1.3 1v4.2h-.8v-4.2c0-.6-.3-1-.8-1s-1 .5-1.3 1v4.2h-.8v-5.8h.8v.8a2 2 0 0 1 1.6-.9 1.2 1.2 0 0 1 1.3 1 2 2 0 0 1 1.6-1c.9 0 1.4.4 1.4 1.5v4.4h-.9z"/><text fill="#6b4019" font-family="ProximaNovaCond-Regular, Proxima Nova Condensed" font-size="12" transform="translate(218.9 126.5)">around the world and from Canada! Come try</text><text fill="#6b4019" font-family="ProximaNovaCond-Regular, Proxima Nova Condensed" font-size="12" transform="translate(218.9 139.5)">something ne<tspan x="60.6" y="0" letter-spacing="-.04em">w</tspan><tspan x="67.8" y="0" letter-spacing="0em">.</tspan></text><text fill="#6b4019" font-family="KomuB, Komu" font-size="13" transform="translate(218.9 173)">Name</text><text fill="#6b4019" font-family="KomuB, Komu" font-size="13" transform="translate(218.9 186.9)">Email</text><path fill="none" stroke="#fff" stroke-width=".5" d="M251.5 163.3H423v9.87H251.5zm0 13.8H423v9.87H251.5z"/><text fill="#231f20" font-family="KomuB, Komu" font-size="13" transform="translate(306.3 209.1)">Submit</text><text fill="#6b4019" font-family="ProximaNovaCond-Regular, Proxima Nova Condensed" font-size="12" letter-spacing="-.03em" transform="translate(218.9 156.4)">K<tspan x="5.7" y="0" letter-spacing="0em">eep up dated and sign up!</tspan></text><path fill="none" d="M0 0h432v288H0z"/><path fill="#462600" d="M240.1 31c0-10.5 5.8-17.8 14.9-17.8 7.4 0 10.7 4.8 12.3 9l-6.8 3c-.9-2.7-2.7-4.6-5.5-4.6s-6.4 4.4-6.4 10.4 2.4 10.4 6.4 10.4 4.7-2.2 5.5-5l6.9 3c-1.6 4.2-4.9 9.3-12.4 9.3-9.1 0-14.9-7.3-14.9-17.7zm44.2-17.8c9.3 0 15 7.4 15 17.8s-5.7 17.7-15 17.7-14.9-7.4-14.9-17.7 5.7-17.8 14.9-17.8zm0 7.4c-4.1 0-6.4 4.4-6.4 10.4s2.3 10.4 6.4 10.4 6.6-4.5 6.6-10.4-2.4-10.4-6.6-10.4zm19-6.8H324V21h-12.3v6.1h12v7.2h-12v13.8h-8.4zm25 0h20.6V21h-12.3v6.1h12v7.2h-12v13.8h-8.3zm24.9 0h20.7V21h-12.4v6.1h12v7.2h-12V41h12.4v7.1h-20.7zm25.2 0h20.7V21h-12.3v6.1h11.9v7.2h-11.9V41h12.3v7.1h-20.7z"/><path fill="#6b4019" d="M287.6 53h11.2v1.1h-10v10.1h9.7v1.1h-9.7V76h10v1.1h-11.2zm21.7 12.9l-6.5 11.2h-1.4l7.3-12.3-6.9-11.8h1.4l6.1 10.7 6.1-10.7h1.5L310 64.8l7.3 12.3h-1.4zM320.8 53h6c3.9 0 5.9 3.2 5.9 6.9s-2 6.8-5.9 6.8h-4.9v10.4h-1.1zm5.9 1.1h-4.8v11.5h4.8c3.1 0 4.7-2.4 4.7-5.7s-1.6-5.8-4.7-5.8zm17.8-1.5c5.5 0 8.4 5.7 8.4 12.5s-2.9 12.5-8.4 12.5-8.3-5.7-8.3-12.5 2.8-12.5 8.3-12.5zm0 1.1c-4.6 0-7.1 5.1-7.1 11.4s2.5 11.4 7.1 11.4 7.1-5.2 7.1-11.4-2.5-11.4-7.1-11.4zm-53.4 26.7a6.3 6.3 0 1 1-6.1 6.2 6 6 0 0 1 6.1-6.2zm0 1.6c-2.6 0-4.2 2-4.2 4.6s1.6 4.7 4.2 4.7 4.2-2 4.2-4.7-1.7-4.6-4.2-4.6zm10.7.2h-3.7v-1.6h9.2v1.6h-3.7v10.5h-1.8zm10.4 0h-3.8v-1.6h9.3v1.6H314v10.5h-1.8zm13.8 8h-5.9l-1 2.5h-2l4.8-12.1h2.3l4.8 12.1h-2zm-5.4-1.6h4.9l-2.5-6.4zm15.7-5.2l-2.5 9.3h-1.9l-3.5-12.1h2l2.5 9.7 2.7-9.7h1.4l2.6 9.7 2.5-9.7h2.1l-3.5 12.1h-1.9zm16.2 6.8h-5.9l-1 2.5h-2l4.8-12.1h2.3l4.8 12.1h-2zm-5.4-1.6h4.9l-2.5-6.4z"/><path fill="url(#a)" d="M99.5 176.6h-1.7v9.7h1.8v-1.8h2.1v2c0 1.2-.5 1.9-2 1.9h-1.9c-1.6 0-2-.7-2-1.9v-10c0-1.2.5-1.9 1.9-1.9h2c1.4 0 2 .7 2 1.9v1.8h-2.1v-1.7z"/><path fill="url(#d)" d="M102.8 186.6v-10c0-1.2.6-1.9 2-1.9h2c1.4 0 1.9.7 1.9 1.9v10c0 1.2-.4 1.9-1.9 1.9h-2c-1.5 0-2-.7-2-1.9zm3.8-10h-1.7v9.7h1.8v-9.7z"/><path fill="url(#e)" d="M112.3 182.4v5.8c0 .1 0 .2-.1.2h-1.8c-.1 0-.1-.1-.1-.2v-13.3h3.9v1.7h-1.9v3.8h1.8v1.7h-1.8z"/><path fill="url(#f)" d="M117.4 182.4v5.8a.2.2 0 0 1-.2.2h-1.7a.2.2 0 0 1-.2-.2v-13.3h3.9v1.7h-1.8v3.8h1.8v1.7h-1.8z"/><path fill="url(#g)" d="M120.5 188.4a.2.2 0 0 1-.2-.2v-13.3h4v1.7h-1.9v3.8h1.9v1.7h-1.9v4h1.9v1.7a.2.2 0 0 1-.2.2z"/><path fill="url(#h)" d="M125.8 188.4a.2.2 0 0 1-.2-.2v-13.3h3.9v1.7h-1.8v3.8h1.8v1.7h-1.8v4h1.8v1.7c0 .1 0 .2-.1.2z"/><path fill="url(#i)" d="M95.7 190.7h3v.7h-2.3v1.9h2.3v.6h-2.3v2.1h2.3v.6h-3z"/><path fill="url(#j)" d="M100.9 194.9l-1 1.7h-.7l1.3-2.2-1.2-2h.7l.9 1.6.9-1.6h.7l-1.2 2 1.3 2.2h-.7z"/><path fill="url(#k)" d="M103.3 198.2v-5.8h.6v.6a1.3 1.3 0 0 1 1.1-.8c1 0 1.5.9 1.5 2.3s-.5 2.2-1.5 2.2a1.5 1.5 0 0 1-1.1-.7v2.2zm1.6-5.4a1.2 1.2 0 0 0-1 .7v1.9a1.2 1.2 0 0 0 1 .7c.6 0 1-.7 1-1.6s-.4-1.7-1-1.7z"/><path fill="url(#l)" d="M107.3 194.5c0-1.2.6-2.3 1.7-2.3s1.7 1.1 1.7 2.3-.6 2.2-1.7 2.2-1.7-1-1.7-2.2zm2.7 0c0-.9-.3-1.7-1-1.7s-1.1.8-1.1 1.7.4 1.6 1.1 1.6 1-.8 1-1.6z"/><path fill="url(#m)" d="M113.6 190.7h.7v5.9h-.7z"/><path fill="url(#n)" d="M117.8 193.6c0-.6-.3-.8-.7-.8a1.2 1.2 0 0 0-1 .7v3.1h-.6v-4.2h.6v.6a1.5 1.5 0 0 1 1.2-.8c.7 0 1.1.4 1.1 1.2v3.2h-.6z"/><path fill="url(#o)" d="M121.1 192.2a1.6 1.6 0 0 1 1.2.6l-.3.4a1.1 1.1 0 0 0-.9-.4c-.7 0-1.1.8-1.1 1.7s.4 1.6 1.1 1.6a1.1 1.1 0 0 0 .9-.4l.3.4a1.3 1.3 0 0 1-1.2.6 2 2 0 0 1-1.8-2.2c0-1.3.7-2.3 1.8-2.3z"/><path fill="url(#p)" d="M123.5 195.7a.5.5 0 0 1 .5.5.5.5 0 0 1-.5.5.5.5 0 0 1-.4-.5c0-.2.2-.5.4-.5z"/><ellipse cx="86.3" cy="182.5" fill="#462600" rx="8.6" ry="4.5" transform="rotate(-72 86.281 182.554)"/><path fill="#6b4019" d="M88.8 174.5c-8.5 6.5-.8 12.5-5.1 16 5.5-2.7 0-8.8 5.1-16z"/></svg>