<svg xmlns="http://www.w3.org/2000/svg" xmlns:xlink="http://www.w3.org/1999/xlink" width="5in" height="5in" viewBox="0 0 360 360"><defs><clipPath id="a"><path fill="none" d="M276.7 280.6h70.1v70.12h-70.1z"/></clipPath><clipPath id="b"><path fill="none" d="M169.5 122.5h107.3v83.48H169.5z"/></clipPath><clipPath id="c"><path fill="none" d="M84.4 133.7h90.7v78.56H84.4z"/></clipPath><clipPath id="d"><path fill="none" d="M18 7.8h151.4v114.75H18z"/></clipPath><clipPath id="e"><path fill="none" d="M175.1 31h96.4v74.33h-96.4z"/></clipPath></defs><image width="3264" height="2448" transform="matrix(0 .03 -.03 0 350.3 100.1)" xlink:href="../../../../../../Portfolio%20Work/Portfolio%20Ready/Re-design%20Logo/logo-sketches/IMG_3504.JPG"/><image width="3264" height="2448" transform="matrix(0 .03 -.03 0 352.6 7.8)" xlink:href="../../../../../../Portfolio%20Work/Portfolio%20Ready/Re-design%20Logo/logo-sketches/IMG_3502.JPG"/><image width="3264" height="2448" transform="rotate(90 81.3 269) scale(.03)" xlink:href="../../../../../../Portfolio%20Work/Portfolio%20Ready/Re-design%20Logo/logo-sketches/IMG_3503.JPG"/><g clip-path="url(#a)"><image width="3504" height="2548" transform="matrix(.05 0 0 .05 252.8 273.2)" xlink:href="../../../../../../Portfolio%20Work/Branding/Assignment%201/krystyna-macleod-dsn1539-010-assignment1p1/week-03/krystyna-macleod-dsn1539-010-week2-sketches03.jpeg"/></g><g clip-path="url(#b)"><image width="3504" height="2548" transform="matrix(.04 0 0 .04 150.3 119.8)" xlink:href="../../../../../../Portfolio%20Work/Branding/Assignment%201/krystyna-macleod-dsn1539-010-assignment1p1/week-04/krystyna-macleod-dsn1539-010-week3-sketches04.jpeg"/></g><g clip-path="url(#c)"><image width="3504" height="2548" transform="matrix(.03 0 0 .03 74.9 130.8)" xlink:href="../../../../../../Portfolio%20Work/Branding/Assignment%201/krystyna-macleod-dsn1539-010-assignment1p1/week-03/krystyna-macleod-dsn1539-010-week2-sketches05.jpeg"/></g><g clip-path="url(#d)"><image width="3504" height="2548" transform="matrix(.06 0 0 .06 4.6 3.8)" xlink:href="../../../../../../Portfolio%20Work/Branding/Assignment%201/krystyna-macleod-dsn1539-010-assignment1p1/week-03/krystyna-macleod-dsn1539-010-week2-sketches00.jpeg"/></g><g clip-path="url(#e)"><image width="3504" height="2548" transform="matrix(.03 0 0 .03 166 26.7)" xlink:href="../../../../../../Portfolio%20Work/Branding/Assignment%201/krystyna-macleod-dsn1539-010-assignment1p1/week-04/krystyna-macleod-dsn1539-010-week3-sketches06.jpeg"/></g></svg>